%TF.GenerationSoftware,KiCad,Pcbnew,(6.0.0)*%
%TF.CreationDate,2022-01-09T22:19:22-05:00*%
%TF.ProjectId,Main-board-FeatherRP2040,4d61696e-2d62-46f6-9172-642d46656174,rev?*%
%TF.SameCoordinates,Original*%
%TF.FileFunction,Legend,Bot*%
%TF.FilePolarity,Positive*%
%FSLAX46Y46*%
G04 Gerber Fmt 4.6, Leading zero omitted, Abs format (unit mm)*
G04 Created by KiCad (PCBNEW (6.0.0)) date 2022-01-09 22:19:22*
%MOMM*%
%LPD*%
G01*
G04 APERTURE LIST*
%ADD10C,0.200000*%
%ADD11C,0.300000*%
%ADD12C,0.150000*%
%ADD13C,0.120000*%
G04 APERTURE END LIST*
D10*
X73685714Y-3850285D02*
X74085714Y-3850285D01*
X74085714Y-4478857D02*
X74085714Y-3278857D01*
X73514285Y-3278857D01*
X72885714Y-4478857D02*
X73000000Y-4421714D01*
X73057142Y-4364571D01*
X73114285Y-4250285D01*
X73114285Y-3907428D01*
X73057142Y-3793142D01*
X73000000Y-3736000D01*
X72885714Y-3678857D01*
X72714285Y-3678857D01*
X72600000Y-3736000D01*
X72542857Y-3793142D01*
X72485714Y-3907428D01*
X72485714Y-4250285D01*
X72542857Y-4364571D01*
X72600000Y-4421714D01*
X72714285Y-4478857D01*
X72885714Y-4478857D01*
X71971428Y-4478857D02*
X71971428Y-3678857D01*
X71971428Y-3907428D02*
X71914285Y-3793142D01*
X71857142Y-3736000D01*
X71742857Y-3678857D01*
X71628571Y-3678857D01*
X70714285Y-4421714D02*
X70828571Y-4478857D01*
X71057142Y-4478857D01*
X71171428Y-4421714D01*
X71228571Y-4364571D01*
X71285714Y-4250285D01*
X71285714Y-3907428D01*
X71228571Y-3793142D01*
X71171428Y-3736000D01*
X71057142Y-3678857D01*
X70828571Y-3678857D01*
X70714285Y-3736000D01*
X69742857Y-4421714D02*
X69857142Y-4478857D01*
X70085714Y-4478857D01*
X70200000Y-4421714D01*
X70257142Y-4307428D01*
X70257142Y-3850285D01*
X70200000Y-3736000D01*
X70085714Y-3678857D01*
X69857142Y-3678857D01*
X69742857Y-3736000D01*
X69685714Y-3850285D01*
X69685714Y-3964571D01*
X70257142Y-4078857D01*
X67742857Y-4421714D02*
X67857142Y-4478857D01*
X68085714Y-4478857D01*
X68200000Y-4421714D01*
X68257142Y-4364571D01*
X68314285Y-4250285D01*
X68314285Y-3907428D01*
X68257142Y-3793142D01*
X68200000Y-3736000D01*
X68085714Y-3678857D01*
X67857142Y-3678857D01*
X67742857Y-3736000D01*
X66714285Y-3678857D02*
X66714285Y-4478857D01*
X67228571Y-3678857D02*
X67228571Y-4307428D01*
X67171428Y-4421714D01*
X67057142Y-4478857D01*
X66885714Y-4478857D01*
X66771428Y-4421714D01*
X66714285Y-4364571D01*
X66142857Y-4478857D02*
X66142857Y-3678857D01*
X66142857Y-3907428D02*
X66085714Y-3793142D01*
X66028571Y-3736000D01*
X65914285Y-3678857D01*
X65800000Y-3678857D01*
X65514285Y-3678857D02*
X65228571Y-4478857D01*
X64942857Y-3678857D01*
X64028571Y-4421714D02*
X64142857Y-4478857D01*
X64371428Y-4478857D01*
X64485714Y-4421714D01*
X64542857Y-4307428D01*
X64542857Y-3850285D01*
X64485714Y-3736000D01*
X64371428Y-3678857D01*
X64142857Y-3678857D01*
X64028571Y-3736000D01*
X63971428Y-3850285D01*
X63971428Y-3964571D01*
X64542857Y-4078857D01*
X62542857Y-4478857D02*
X62542857Y-3678857D01*
X62542857Y-3793142D02*
X62485714Y-3736000D01*
X62371428Y-3678857D01*
X62200000Y-3678857D01*
X62085714Y-3736000D01*
X62028571Y-3850285D01*
X62028571Y-4478857D01*
X62028571Y-3850285D02*
X61971428Y-3736000D01*
X61857142Y-3678857D01*
X61685714Y-3678857D01*
X61571428Y-3736000D01*
X61514285Y-3850285D01*
X61514285Y-4478857D01*
X60485714Y-4421714D02*
X60600000Y-4478857D01*
X60828571Y-4478857D01*
X60942857Y-4421714D01*
X61000000Y-4307428D01*
X61000000Y-3850285D01*
X60942857Y-3736000D01*
X60828571Y-3678857D01*
X60600000Y-3678857D01*
X60485714Y-3736000D01*
X60428571Y-3850285D01*
X60428571Y-3964571D01*
X61000000Y-4078857D01*
X60085714Y-3678857D02*
X59628571Y-3678857D01*
X59914285Y-3278857D02*
X59914285Y-4307428D01*
X59857142Y-4421714D01*
X59742857Y-4478857D01*
X59628571Y-4478857D01*
X58771428Y-4421714D02*
X58885714Y-4478857D01*
X59114285Y-4478857D01*
X59228571Y-4421714D01*
X59285714Y-4307428D01*
X59285714Y-3850285D01*
X59228571Y-3736000D01*
X59114285Y-3678857D01*
X58885714Y-3678857D01*
X58771428Y-3736000D01*
X58714285Y-3850285D01*
X58714285Y-3964571D01*
X59285714Y-4078857D01*
X58200000Y-4478857D02*
X58200000Y-3678857D01*
X58200000Y-3907428D02*
X58142857Y-3793142D01*
X58085714Y-3736000D01*
X57971428Y-3678857D01*
X57857142Y-3678857D01*
X78914285Y-6410857D02*
X78914285Y-5210857D01*
X78514285Y-6068000D01*
X78114285Y-5210857D01*
X78114285Y-6410857D01*
X77028571Y-6410857D02*
X77028571Y-5782285D01*
X77085714Y-5668000D01*
X77200000Y-5610857D01*
X77428571Y-5610857D01*
X77542857Y-5668000D01*
X77028571Y-6353714D02*
X77142857Y-6410857D01*
X77428571Y-6410857D01*
X77542857Y-6353714D01*
X77600000Y-6239428D01*
X77600000Y-6125142D01*
X77542857Y-6010857D01*
X77428571Y-5953714D01*
X77142857Y-5953714D01*
X77028571Y-5896571D01*
X76457142Y-6410857D02*
X76457142Y-5610857D01*
X76457142Y-5210857D02*
X76514285Y-5268000D01*
X76457142Y-5325142D01*
X76400000Y-5268000D01*
X76457142Y-5210857D01*
X76457142Y-5325142D01*
X75885714Y-5610857D02*
X75885714Y-6410857D01*
X75885714Y-5725142D02*
X75828571Y-5668000D01*
X75714285Y-5610857D01*
X75542857Y-5610857D01*
X75428571Y-5668000D01*
X75371428Y-5782285D01*
X75371428Y-6410857D01*
X73885714Y-6410857D02*
X73885714Y-5210857D01*
X73885714Y-5668000D02*
X73771428Y-5610857D01*
X73542857Y-5610857D01*
X73428571Y-5668000D01*
X73371428Y-5725142D01*
X73314285Y-5839428D01*
X73314285Y-6182285D01*
X73371428Y-6296571D01*
X73428571Y-6353714D01*
X73542857Y-6410857D01*
X73771428Y-6410857D01*
X73885714Y-6353714D01*
X72628571Y-6410857D02*
X72742857Y-6353714D01*
X72800000Y-6296571D01*
X72857142Y-6182285D01*
X72857142Y-5839428D01*
X72800000Y-5725142D01*
X72742857Y-5668000D01*
X72628571Y-5610857D01*
X72457142Y-5610857D01*
X72342857Y-5668000D01*
X72285714Y-5725142D01*
X72228571Y-5839428D01*
X72228571Y-6182285D01*
X72285714Y-6296571D01*
X72342857Y-6353714D01*
X72457142Y-6410857D01*
X72628571Y-6410857D01*
X71200000Y-6410857D02*
X71200000Y-5782285D01*
X71257142Y-5668000D01*
X71371428Y-5610857D01*
X71600000Y-5610857D01*
X71714285Y-5668000D01*
X71200000Y-6353714D02*
X71314285Y-6410857D01*
X71600000Y-6410857D01*
X71714285Y-6353714D01*
X71771428Y-6239428D01*
X71771428Y-6125142D01*
X71714285Y-6010857D01*
X71600000Y-5953714D01*
X71314285Y-5953714D01*
X71200000Y-5896571D01*
X70628571Y-6410857D02*
X70628571Y-5610857D01*
X70628571Y-5839428D02*
X70571428Y-5725142D01*
X70514285Y-5668000D01*
X70400000Y-5610857D01*
X70285714Y-5610857D01*
X69371428Y-6410857D02*
X69371428Y-5210857D01*
X69371428Y-6353714D02*
X69485714Y-6410857D01*
X69714285Y-6410857D01*
X69828571Y-6353714D01*
X69885714Y-6296571D01*
X69942857Y-6182285D01*
X69942857Y-5839428D01*
X69885714Y-5725142D01*
X69828571Y-5668000D01*
X69714285Y-5610857D01*
X69485714Y-5610857D01*
X69371428Y-5668000D01*
X67542857Y-6868000D02*
X67600000Y-6810857D01*
X67714285Y-6639428D01*
X67771428Y-6525142D01*
X67828571Y-6353714D01*
X67885714Y-6068000D01*
X67885714Y-5839428D01*
X67828571Y-5553714D01*
X67771428Y-5382285D01*
X67714285Y-5268000D01*
X67600000Y-5096571D01*
X67542857Y-5039428D01*
X66685714Y-5782285D02*
X67085714Y-5782285D01*
X67085714Y-6410857D02*
X67085714Y-5210857D01*
X66514285Y-5210857D01*
X65599999Y-6353714D02*
X65714285Y-6410857D01*
X65942857Y-6410857D01*
X66057142Y-6353714D01*
X66114285Y-6239428D01*
X66114285Y-5782285D01*
X66057142Y-5668000D01*
X65942857Y-5610857D01*
X65714285Y-5610857D01*
X65599999Y-5668000D01*
X65542857Y-5782285D01*
X65542857Y-5896571D01*
X66114285Y-6010857D01*
X64514285Y-6410857D02*
X64514285Y-5782285D01*
X64571428Y-5668000D01*
X64685714Y-5610857D01*
X64914285Y-5610857D01*
X65028571Y-5668000D01*
X64514285Y-6353714D02*
X64628571Y-6410857D01*
X64914285Y-6410857D01*
X65028571Y-6353714D01*
X65085714Y-6239428D01*
X65085714Y-6125142D01*
X65028571Y-6010857D01*
X64914285Y-5953714D01*
X64628571Y-5953714D01*
X64514285Y-5896571D01*
X64114285Y-5610857D02*
X63657142Y-5610857D01*
X63942857Y-5210857D02*
X63942857Y-6239428D01*
X63885714Y-6353714D01*
X63771428Y-6410857D01*
X63657142Y-6410857D01*
X63257142Y-6410857D02*
X63257142Y-5210857D01*
X62742857Y-6410857D02*
X62742857Y-5782285D01*
X62799999Y-5668000D01*
X62914285Y-5610857D01*
X63085714Y-5610857D01*
X63199999Y-5668000D01*
X63257142Y-5725142D01*
X61714285Y-6353714D02*
X61828571Y-6410857D01*
X62057142Y-6410857D01*
X62171428Y-6353714D01*
X62228571Y-6239428D01*
X62228571Y-5782285D01*
X62171428Y-5668000D01*
X62057142Y-5610857D01*
X61828571Y-5610857D01*
X61714285Y-5668000D01*
X61657142Y-5782285D01*
X61657142Y-5896571D01*
X62228571Y-6010857D01*
X61142857Y-6410857D02*
X61142857Y-5610857D01*
X61142857Y-5839428D02*
X61085714Y-5725142D01*
X61028571Y-5668000D01*
X60914285Y-5610857D01*
X60799999Y-5610857D01*
X58799999Y-6410857D02*
X59199999Y-5839428D01*
X59485714Y-6410857D02*
X59485714Y-5210857D01*
X59028571Y-5210857D01*
X58914285Y-5268000D01*
X58857142Y-5325142D01*
X58799999Y-5439428D01*
X58799999Y-5610857D01*
X58857142Y-5725142D01*
X58914285Y-5782285D01*
X59028571Y-5839428D01*
X59485714Y-5839428D01*
X58285714Y-6410857D02*
X58285714Y-5210857D01*
X57828571Y-5210857D01*
X57714285Y-5268000D01*
X57657142Y-5325142D01*
X57599999Y-5439428D01*
X57599999Y-5610857D01*
X57657142Y-5725142D01*
X57714285Y-5782285D01*
X57828571Y-5839428D01*
X58285714Y-5839428D01*
X57142857Y-5325142D02*
X57085714Y-5268000D01*
X56971428Y-5210857D01*
X56685714Y-5210857D01*
X56571428Y-5268000D01*
X56514285Y-5325142D01*
X56457142Y-5439428D01*
X56457142Y-5553714D01*
X56514285Y-5725142D01*
X57199999Y-6410857D01*
X56457142Y-6410857D01*
X55714285Y-5210857D02*
X55599999Y-5210857D01*
X55485714Y-5268000D01*
X55428571Y-5325142D01*
X55371428Y-5439428D01*
X55314285Y-5668000D01*
X55314285Y-5953714D01*
X55371428Y-6182285D01*
X55428571Y-6296571D01*
X55485714Y-6353714D01*
X55599999Y-6410857D01*
X55714285Y-6410857D01*
X55828571Y-6353714D01*
X55885714Y-6296571D01*
X55942857Y-6182285D01*
X55999999Y-5953714D01*
X55999999Y-5668000D01*
X55942857Y-5439428D01*
X55885714Y-5325142D01*
X55828571Y-5268000D01*
X55714285Y-5210857D01*
X54285714Y-5610857D02*
X54285714Y-6410857D01*
X54571428Y-5153714D02*
X54857142Y-6010857D01*
X54114285Y-6010857D01*
X53428571Y-5210857D02*
X53314285Y-5210857D01*
X53199999Y-5268000D01*
X53142857Y-5325142D01*
X53085714Y-5439428D01*
X53028571Y-5668000D01*
X53028571Y-5953714D01*
X53085714Y-6182285D01*
X53142857Y-6296571D01*
X53199999Y-6353714D01*
X53314285Y-6410857D01*
X53428571Y-6410857D01*
X53542857Y-6353714D01*
X53599999Y-6296571D01*
X53657142Y-6182285D01*
X53714285Y-5953714D01*
X53714285Y-5668000D01*
X53657142Y-5439428D01*
X53599999Y-5325142D01*
X53542857Y-5268000D01*
X53428571Y-5210857D01*
X52628571Y-6868000D02*
X52571428Y-6810857D01*
X52457142Y-6639428D01*
X52399999Y-6525142D01*
X52342857Y-6353714D01*
X52285714Y-6068000D01*
X52285714Y-5839428D01*
X52342857Y-5553714D01*
X52399999Y-5382285D01*
X52457142Y-5268000D01*
X52571428Y-5096571D01*
X52628571Y-5039428D01*
X70428571Y-7200000D02*
X70542857Y-7142857D01*
X70714285Y-7142857D01*
X70885714Y-7200000D01*
X71000000Y-7314285D01*
X71057142Y-7428571D01*
X71114285Y-7657142D01*
X71114285Y-7828571D01*
X71057142Y-8057142D01*
X71000000Y-8171428D01*
X70885714Y-8285714D01*
X70714285Y-8342857D01*
X70600000Y-8342857D01*
X70428571Y-8285714D01*
X70371428Y-8228571D01*
X70371428Y-7828571D01*
X70600000Y-7828571D01*
X69400000Y-8285714D02*
X69514285Y-8342857D01*
X69742857Y-8342857D01*
X69857142Y-8285714D01*
X69914285Y-8171428D01*
X69914285Y-7714285D01*
X69857142Y-7600000D01*
X69742857Y-7542857D01*
X69514285Y-7542857D01*
X69400000Y-7600000D01*
X69342857Y-7714285D01*
X69342857Y-7828571D01*
X69914285Y-7942857D01*
X68828571Y-7542857D02*
X68828571Y-8342857D01*
X68828571Y-7657142D02*
X68771428Y-7600000D01*
X68657142Y-7542857D01*
X68485714Y-7542857D01*
X68371428Y-7600000D01*
X68314285Y-7714285D01*
X68314285Y-8342857D01*
X66885714Y-7257142D02*
X66828571Y-7200000D01*
X66714285Y-7142857D01*
X66428571Y-7142857D01*
X66314285Y-7200000D01*
X66257142Y-7257142D01*
X66200000Y-7371428D01*
X66200000Y-7485714D01*
X66257142Y-7657142D01*
X66942857Y-8342857D01*
X66200000Y-8342857D01*
X64085714Y-8342857D02*
X64485714Y-7771428D01*
X64771428Y-8342857D02*
X64771428Y-7142857D01*
X64314285Y-7142857D01*
X64200000Y-7200000D01*
X64142857Y-7257142D01*
X64085714Y-7371428D01*
X64085714Y-7542857D01*
X64142857Y-7657142D01*
X64200000Y-7714285D01*
X64314285Y-7771428D01*
X64771428Y-7771428D01*
X63114285Y-8285714D02*
X63228571Y-8342857D01*
X63457142Y-8342857D01*
X63571428Y-8285714D01*
X63628571Y-8171428D01*
X63628571Y-7714285D01*
X63571428Y-7600000D01*
X63457142Y-7542857D01*
X63228571Y-7542857D01*
X63114285Y-7600000D01*
X63057142Y-7714285D01*
X63057142Y-7828571D01*
X63628571Y-7942857D01*
X62657142Y-7542857D02*
X62371428Y-8342857D01*
X62085714Y-7542857D01*
X60485714Y-7142857D02*
X60371428Y-7142857D01*
X60257142Y-7200000D01*
X60200000Y-7257142D01*
X60142857Y-7371428D01*
X60085714Y-7600000D01*
X60085714Y-7885714D01*
X60142857Y-8114285D01*
X60200000Y-8228571D01*
X60257142Y-8285714D01*
X60371428Y-8342857D01*
X60485714Y-8342857D01*
X60600000Y-8285714D01*
X60657142Y-8228571D01*
X60714285Y-8114285D01*
X60771428Y-7885714D01*
X60771428Y-7600000D01*
X60714285Y-7371428D01*
X60657142Y-7257142D01*
X60600000Y-7200000D01*
X60485714Y-7142857D01*
X70571428Y-9074857D02*
X70571428Y-9932000D01*
X70628571Y-10103428D01*
X70742857Y-10217714D01*
X70914285Y-10274857D01*
X71028571Y-10274857D01*
X69485714Y-10274857D02*
X69485714Y-9646285D01*
X69542857Y-9532000D01*
X69657142Y-9474857D01*
X69885714Y-9474857D01*
X70000000Y-9532000D01*
X69485714Y-10217714D02*
X69600000Y-10274857D01*
X69885714Y-10274857D01*
X70000000Y-10217714D01*
X70057142Y-10103428D01*
X70057142Y-9989142D01*
X70000000Y-9874857D01*
X69885714Y-9817714D01*
X69600000Y-9817714D01*
X69485714Y-9760571D01*
X68914285Y-9474857D02*
X68914285Y-10274857D01*
X68914285Y-9589142D02*
X68857142Y-9532000D01*
X68742857Y-9474857D01*
X68571428Y-9474857D01*
X68457142Y-9532000D01*
X68400000Y-9646285D01*
X68400000Y-10274857D01*
X66857142Y-10274857D02*
X66628571Y-10274857D01*
X66514285Y-10217714D01*
X66457142Y-10160571D01*
X66342857Y-9989142D01*
X66285714Y-9760571D01*
X66285714Y-9303428D01*
X66342857Y-9189142D01*
X66400000Y-9132000D01*
X66514285Y-9074857D01*
X66742857Y-9074857D01*
X66857142Y-9132000D01*
X66914285Y-9189142D01*
X66971428Y-9303428D01*
X66971428Y-9589142D01*
X66914285Y-9703428D01*
X66857142Y-9760571D01*
X66742857Y-9817714D01*
X66514285Y-9817714D01*
X66400000Y-9760571D01*
X66342857Y-9703428D01*
X66285714Y-9589142D01*
X65714285Y-10217714D02*
X65714285Y-10274857D01*
X65771428Y-10389142D01*
X65828571Y-10446285D01*
X64342857Y-9189142D02*
X64285714Y-9132000D01*
X64171428Y-9074857D01*
X63885714Y-9074857D01*
X63771428Y-9132000D01*
X63714285Y-9189142D01*
X63657142Y-9303428D01*
X63657142Y-9417714D01*
X63714285Y-9589142D01*
X64400000Y-10274857D01*
X63657142Y-10274857D01*
X62914285Y-9074857D02*
X62800000Y-9074857D01*
X62685714Y-9132000D01*
X62628571Y-9189142D01*
X62571428Y-9303428D01*
X62514285Y-9532000D01*
X62514285Y-9817714D01*
X62571428Y-10046285D01*
X62628571Y-10160571D01*
X62685714Y-10217714D01*
X62800000Y-10274857D01*
X62914285Y-10274857D01*
X63028571Y-10217714D01*
X63085714Y-10160571D01*
X63142857Y-10046285D01*
X63200000Y-9817714D01*
X63200000Y-9532000D01*
X63142857Y-9303428D01*
X63085714Y-9189142D01*
X63028571Y-9132000D01*
X62914285Y-9074857D01*
X62057142Y-9189142D02*
X62000000Y-9132000D01*
X61885714Y-9074857D01*
X61600000Y-9074857D01*
X61485714Y-9132000D01*
X61428571Y-9189142D01*
X61371428Y-9303428D01*
X61371428Y-9417714D01*
X61428571Y-9589142D01*
X62114285Y-10274857D01*
X61371428Y-10274857D01*
X60914285Y-9189142D02*
X60857142Y-9132000D01*
X60742857Y-9074857D01*
X60457142Y-9074857D01*
X60342857Y-9132000D01*
X60285714Y-9189142D01*
X60228571Y-9303428D01*
X60228571Y-9417714D01*
X60285714Y-9589142D01*
X60971428Y-10274857D01*
X60228571Y-10274857D01*
X73714285Y-12206857D02*
X73714285Y-11006857D01*
X73428571Y-11006857D01*
X73257142Y-11064000D01*
X73142857Y-11178285D01*
X73085714Y-11292571D01*
X73028571Y-11521142D01*
X73028571Y-11692571D01*
X73085714Y-11921142D01*
X73142857Y-12035428D01*
X73257142Y-12149714D01*
X73428571Y-12206857D01*
X73714285Y-12206857D01*
X72057142Y-12149714D02*
X72171428Y-12206857D01*
X72400000Y-12206857D01*
X72514285Y-12149714D01*
X72571428Y-12035428D01*
X72571428Y-11578285D01*
X72514285Y-11464000D01*
X72400000Y-11406857D01*
X72171428Y-11406857D01*
X72057142Y-11464000D01*
X72000000Y-11578285D01*
X72000000Y-11692571D01*
X72571428Y-11806857D01*
X71542857Y-12149714D02*
X71428571Y-12206857D01*
X71200000Y-12206857D01*
X71085714Y-12149714D01*
X71028571Y-12035428D01*
X71028571Y-11978285D01*
X71085714Y-11864000D01*
X71200000Y-11806857D01*
X71371428Y-11806857D01*
X71485714Y-11749714D01*
X71542857Y-11635428D01*
X71542857Y-11578285D01*
X71485714Y-11464000D01*
X71371428Y-11406857D01*
X71200000Y-11406857D01*
X71085714Y-11464000D01*
X70514285Y-12206857D02*
X70514285Y-11406857D01*
X70514285Y-11006857D02*
X70571428Y-11064000D01*
X70514285Y-11121142D01*
X70457142Y-11064000D01*
X70514285Y-11006857D01*
X70514285Y-11121142D01*
X69428571Y-11406857D02*
X69428571Y-12378285D01*
X69485714Y-12492571D01*
X69542857Y-12549714D01*
X69657142Y-12606857D01*
X69828571Y-12606857D01*
X69942857Y-12549714D01*
X69428571Y-12149714D02*
X69542857Y-12206857D01*
X69771428Y-12206857D01*
X69885714Y-12149714D01*
X69942857Y-12092571D01*
X70000000Y-11978285D01*
X70000000Y-11635428D01*
X69942857Y-11521142D01*
X69885714Y-11464000D01*
X69771428Y-11406857D01*
X69542857Y-11406857D01*
X69428571Y-11464000D01*
X68857142Y-11406857D02*
X68857142Y-12206857D01*
X68857142Y-11521142D02*
X68800000Y-11464000D01*
X68685714Y-11406857D01*
X68514285Y-11406857D01*
X68400000Y-11464000D01*
X68342857Y-11578285D01*
X68342857Y-12206857D01*
X67314285Y-12149714D02*
X67428571Y-12206857D01*
X67657142Y-12206857D01*
X67771428Y-12149714D01*
X67828571Y-12035428D01*
X67828571Y-11578285D01*
X67771428Y-11464000D01*
X67657142Y-11406857D01*
X67428571Y-11406857D01*
X67314285Y-11464000D01*
X67257142Y-11578285D01*
X67257142Y-11692571D01*
X67828571Y-11806857D01*
X66228571Y-12206857D02*
X66228571Y-11006857D01*
X66228571Y-12149714D02*
X66342857Y-12206857D01*
X66571428Y-12206857D01*
X66685714Y-12149714D01*
X66742857Y-12092571D01*
X66800000Y-11978285D01*
X66800000Y-11635428D01*
X66742857Y-11521142D01*
X66685714Y-11464000D01*
X66571428Y-11406857D01*
X66342857Y-11406857D01*
X66228571Y-11464000D01*
X64742857Y-12206857D02*
X64742857Y-11006857D01*
X64742857Y-11464000D02*
X64628571Y-11406857D01*
X64400000Y-11406857D01*
X64285714Y-11464000D01*
X64228571Y-11521142D01*
X64171428Y-11635428D01*
X64171428Y-11978285D01*
X64228571Y-12092571D01*
X64285714Y-12149714D01*
X64400000Y-12206857D01*
X64628571Y-12206857D01*
X64742857Y-12149714D01*
X63771428Y-11406857D02*
X63485714Y-12206857D01*
X63200000Y-11406857D02*
X63485714Y-12206857D01*
X63600000Y-12492571D01*
X63657142Y-12549714D01*
X63771428Y-12606857D01*
X61828571Y-12206857D02*
X61828571Y-11006857D01*
X61371428Y-11006857D01*
X61257142Y-11064000D01*
X61200000Y-11121142D01*
X61142857Y-11235428D01*
X61142857Y-11406857D01*
X61200000Y-11521142D01*
X61257142Y-11578285D01*
X61371428Y-11635428D01*
X61828571Y-11635428D01*
X60742857Y-11406857D02*
X60457142Y-12206857D01*
X60171428Y-11406857D02*
X60457142Y-12206857D01*
X60571428Y-12492571D01*
X60628571Y-12549714D01*
X60742857Y-12606857D01*
X59542857Y-12206857D02*
X59657142Y-12149714D01*
X59714285Y-12035428D01*
X59714285Y-11006857D01*
X58914285Y-12206857D02*
X59028571Y-12149714D01*
X59085714Y-12092571D01*
X59142857Y-11978285D01*
X59142857Y-11635428D01*
X59085714Y-11521142D01*
X59028571Y-11464000D01*
X58914285Y-11406857D01*
X58742857Y-11406857D01*
X58628571Y-11464000D01*
X58571428Y-11521142D01*
X58514285Y-11635428D01*
X58514285Y-11978285D01*
X58571428Y-12092571D01*
X58628571Y-12149714D01*
X58742857Y-12206857D01*
X58914285Y-12206857D01*
X58000000Y-11406857D02*
X58000000Y-12206857D01*
X58000000Y-11521142D02*
X57942857Y-11464000D01*
X57828571Y-11406857D01*
X57657142Y-11406857D01*
X57542857Y-11464000D01*
X57485714Y-11578285D01*
X57485714Y-12206857D01*
D11*
X103950000Y-4200000D02*
X101250000Y-4200000D01*
X114050000Y-3200000D02*
X114050000Y-5000000D01*
X106450000Y-1000000D02*
X105650000Y-1000000D01*
X101250000Y-4200000D02*
X101250000Y-5300000D01*
X113150000Y-1100000D02*
X111550000Y-1100000D01*
X106450000Y-5200000D02*
X106450000Y-1000000D01*
X111550000Y-1100000D02*
X111550000Y-5100000D01*
X115950000Y-3200000D02*
X114050000Y-3200000D01*
X103950000Y-5200000D02*
X103950000Y-4200000D01*
D10*
X23585714Y-7457142D02*
X23528571Y-7400000D01*
X23414285Y-7342857D01*
X23128571Y-7342857D01*
X23014285Y-7400000D01*
X22957142Y-7457142D01*
X22900000Y-7571428D01*
X22900000Y-7685714D01*
X22957142Y-7857142D01*
X23642857Y-8542857D01*
X22900000Y-8542857D01*
X22385714Y-8085714D02*
X21471428Y-8085714D01*
X21928571Y-8542857D02*
X21928571Y-7628571D01*
D12*
X133219047Y-48452380D02*
X133219047Y-49166666D01*
X133266666Y-49309523D01*
X133361904Y-49404761D01*
X133504761Y-49452380D01*
X133600000Y-49452380D01*
X132266666Y-49452380D02*
X132742857Y-49452380D01*
X132742857Y-48452380D01*
X131361904Y-49357142D02*
X131409523Y-49404761D01*
X131552380Y-49452380D01*
X131647619Y-49452380D01*
X131790476Y-49404761D01*
X131885714Y-49309523D01*
X131933333Y-49214285D01*
X131980952Y-49023809D01*
X131980952Y-48880952D01*
X131933333Y-48690476D01*
X131885714Y-48595238D01*
X131790476Y-48500000D01*
X131647619Y-48452380D01*
X131552380Y-48452380D01*
X131409523Y-48500000D01*
X131361904Y-48547619D01*
X130647619Y-48452380D02*
X130647619Y-49166666D01*
X130695238Y-49309523D01*
X130790476Y-49404761D01*
X130933333Y-49452380D01*
X131028571Y-49452380D01*
X129695238Y-49452380D02*
X130171428Y-49452380D01*
X130171428Y-48452380D01*
X128790476Y-49357142D02*
X128838095Y-49404761D01*
X128980952Y-49452380D01*
X129076190Y-49452380D01*
X129219047Y-49404761D01*
X129314285Y-49309523D01*
X129361904Y-49214285D01*
X129409523Y-49023809D01*
X129409523Y-48880952D01*
X129361904Y-48690476D01*
X129314285Y-48595238D01*
X129219047Y-48500000D01*
X129076190Y-48452380D01*
X128980952Y-48452380D01*
X128838095Y-48500000D01*
X128790476Y-48547619D01*
X128076190Y-48452380D02*
X128076190Y-49166666D01*
X128123809Y-49309523D01*
X128219047Y-49404761D01*
X128361904Y-49452380D01*
X128457142Y-49452380D01*
X127123809Y-49452380D02*
X127600000Y-49452380D01*
X127600000Y-48452380D01*
X126219047Y-49357142D02*
X126266666Y-49404761D01*
X126409523Y-49452380D01*
X126504761Y-49452380D01*
X126647619Y-49404761D01*
X126742857Y-49309523D01*
X126790476Y-49214285D01*
X126838095Y-49023809D01*
X126838095Y-48880952D01*
X126790476Y-48690476D01*
X126742857Y-48595238D01*
X126647619Y-48500000D01*
X126504761Y-48452380D01*
X126409523Y-48452380D01*
X126266666Y-48500000D01*
X126219047Y-48547619D01*
X125504761Y-48452380D02*
X125504761Y-49166666D01*
X125552380Y-49309523D01*
X125647619Y-49404761D01*
X125790476Y-49452380D01*
X125885714Y-49452380D01*
X124552380Y-49452380D02*
X125028571Y-49452380D01*
X125028571Y-48452380D01*
X123647619Y-49357142D02*
X123695238Y-49404761D01*
X123838095Y-49452380D01*
X123933333Y-49452380D01*
X124076190Y-49404761D01*
X124171428Y-49309523D01*
X124219047Y-49214285D01*
X124266666Y-49023809D01*
X124266666Y-48880952D01*
X124219047Y-48690476D01*
X124171428Y-48595238D01*
X124076190Y-48500000D01*
X123933333Y-48452380D01*
X123838095Y-48452380D01*
X123695238Y-48500000D01*
X123647619Y-48547619D01*
D10*
X128992857Y-1604761D02*
X128850000Y-1652380D01*
X128611904Y-1652380D01*
X128516666Y-1604761D01*
X128469047Y-1557142D01*
X128421428Y-1461904D01*
X128421428Y-1366666D01*
X128469047Y-1271428D01*
X128516666Y-1223809D01*
X128611904Y-1176190D01*
X128802380Y-1128571D01*
X128897619Y-1080952D01*
X128945238Y-1033333D01*
X128992857Y-938095D01*
X128992857Y-842857D01*
X128945238Y-747619D01*
X128897619Y-700000D01*
X128802380Y-652380D01*
X128564285Y-652380D01*
X128421428Y-700000D01*
X127992857Y-1652380D02*
X127992857Y-652380D01*
X127611904Y-652380D01*
X127516666Y-700000D01*
X127469047Y-747619D01*
X127421428Y-842857D01*
X127421428Y-985714D01*
X127469047Y-1080952D01*
X127516666Y-1128571D01*
X127611904Y-1176190D01*
X127992857Y-1176190D01*
X126992857Y-1652380D02*
X126992857Y-652380D01*
X126516666Y-1271428D02*
X125754761Y-1271428D01*
X125326190Y-1604761D02*
X125183333Y-1652380D01*
X124945238Y-1652380D01*
X124850000Y-1604761D01*
X124802380Y-1557142D01*
X124754761Y-1461904D01*
X124754761Y-1366666D01*
X124802380Y-1271428D01*
X124850000Y-1223809D01*
X124945238Y-1176190D01*
X125135714Y-1128571D01*
X125230952Y-1080952D01*
X125278571Y-1033333D01*
X125326190Y-938095D01*
X125326190Y-842857D01*
X125278571Y-747619D01*
X125230952Y-700000D01*
X125135714Y-652380D01*
X124897619Y-652380D01*
X124754761Y-700000D01*
X123754761Y-1557142D02*
X123802380Y-1604761D01*
X123945238Y-1652380D01*
X124040476Y-1652380D01*
X124183333Y-1604761D01*
X124278571Y-1509523D01*
X124326190Y-1414285D01*
X124373809Y-1223809D01*
X124373809Y-1080952D01*
X124326190Y-890476D01*
X124278571Y-795238D01*
X124183333Y-700000D01*
X124040476Y-652380D01*
X123945238Y-652380D01*
X123802380Y-700000D01*
X123754761Y-747619D01*
X123326190Y-1652380D02*
X123326190Y-652380D01*
X122754761Y-1652380D02*
X123183333Y-1080952D01*
X122754761Y-652380D02*
X123326190Y-1223809D01*
X120850000Y-604761D02*
X121707142Y-1890476D01*
X119754761Y-1652380D02*
X119754761Y-652380D01*
X119326190Y-747619D02*
X119278571Y-700000D01*
X119183333Y-652380D01*
X118945238Y-652380D01*
X118850000Y-700000D01*
X118802380Y-747619D01*
X118754761Y-842857D01*
X118754761Y-938095D01*
X118802380Y-1080952D01*
X119373809Y-1652380D01*
X118754761Y-1652380D01*
X117754761Y-1557142D02*
X117802380Y-1604761D01*
X117945238Y-1652380D01*
X118040476Y-1652380D01*
X118183333Y-1604761D01*
X118278571Y-1509523D01*
X118326190Y-1414285D01*
X118373809Y-1223809D01*
X118373809Y-1080952D01*
X118326190Y-890476D01*
X118278571Y-795238D01*
X118183333Y-700000D01*
X118040476Y-652380D01*
X117945238Y-652380D01*
X117802380Y-700000D01*
X117754761Y-747619D01*
X117326190Y-1271428D02*
X116564285Y-1271428D01*
X116135714Y-1604761D02*
X115992857Y-1652380D01*
X115754761Y-1652380D01*
X115659523Y-1604761D01*
X115611904Y-1557142D01*
X115564285Y-1461904D01*
X115564285Y-1366666D01*
X115611904Y-1271428D01*
X115659523Y-1223809D01*
X115754761Y-1176190D01*
X115945238Y-1128571D01*
X116040476Y-1080952D01*
X116088095Y-1033333D01*
X116135714Y-938095D01*
X116135714Y-842857D01*
X116088095Y-747619D01*
X116040476Y-700000D01*
X115945238Y-652380D01*
X115707142Y-652380D01*
X115564285Y-700000D01*
X115135714Y-1652380D02*
X115135714Y-652380D01*
X114897619Y-652380D01*
X114754761Y-700000D01*
X114659523Y-795238D01*
X114611904Y-890476D01*
X114564285Y-1080952D01*
X114564285Y-1223809D01*
X114611904Y-1414285D01*
X114659523Y-1509523D01*
X114754761Y-1604761D01*
X114897619Y-1652380D01*
X115135714Y-1652380D01*
X114183333Y-1366666D02*
X113707142Y-1366666D01*
X114278571Y-1652380D02*
X113945238Y-652380D01*
X113611904Y-1652380D01*
X121769047Y-3604761D02*
X121626190Y-3652380D01*
X121388095Y-3652380D01*
X121292857Y-3604761D01*
X121245238Y-3557142D01*
X121197619Y-3461904D01*
X121197619Y-3366666D01*
X121245238Y-3271428D01*
X121292857Y-3223809D01*
X121388095Y-3176190D01*
X121578571Y-3128571D01*
X121673809Y-3080952D01*
X121721428Y-3033333D01*
X121769047Y-2938095D01*
X121769047Y-2842857D01*
X121721428Y-2747619D01*
X121673809Y-2700000D01*
X121578571Y-2652380D01*
X121340476Y-2652380D01*
X121197619Y-2700000D01*
X120769047Y-3652380D02*
X120769047Y-2652380D01*
X120388095Y-2652380D01*
X120292857Y-2700000D01*
X120245238Y-2747619D01*
X120197619Y-2842857D01*
X120197619Y-2985714D01*
X120245238Y-3080952D01*
X120292857Y-3128571D01*
X120388095Y-3176190D01*
X120769047Y-3176190D01*
X119769047Y-3652380D02*
X119769047Y-2652380D01*
X119292857Y-3271428D02*
X118530952Y-3271428D01*
X117483333Y-3557142D02*
X117530952Y-3604761D01*
X117673809Y-3652380D01*
X117769047Y-3652380D01*
X117911904Y-3604761D01*
X118007142Y-3509523D01*
X118054761Y-3414285D01*
X118102380Y-3223809D01*
X118102380Y-3080952D01*
X118054761Y-2890476D01*
X118007142Y-2795238D01*
X117911904Y-2700000D01*
X117769047Y-2652380D01*
X117673809Y-2652380D01*
X117530952Y-2700000D01*
X117483333Y-2747619D01*
X117102380Y-3604761D02*
X116959523Y-3652380D01*
X116721428Y-3652380D01*
X116626190Y-3604761D01*
X116578571Y-3557142D01*
X116530952Y-3461904D01*
X116530952Y-3366666D01*
X116578571Y-3271428D01*
X116626190Y-3223809D01*
X116721428Y-3176190D01*
X116911904Y-3128571D01*
X117007142Y-3080952D01*
X117054761Y-3033333D01*
X117102380Y-2938095D01*
X117102380Y-2842857D01*
X117054761Y-2747619D01*
X117007142Y-2700000D01*
X116911904Y-2652380D01*
X116673809Y-2652380D01*
X116530952Y-2700000D01*
X111050000Y-10938095D02*
X111002380Y-10842857D01*
X111002380Y-10700000D01*
X111050000Y-10557142D01*
X111145238Y-10461904D01*
X111240476Y-10414285D01*
X111430952Y-10366666D01*
X111573809Y-10366666D01*
X111764285Y-10414285D01*
X111859523Y-10461904D01*
X111954761Y-10557142D01*
X112002380Y-10700000D01*
X112002380Y-10795238D01*
X111954761Y-10938095D01*
X111907142Y-10985714D01*
X111573809Y-10985714D01*
X111573809Y-10795238D01*
X112002380Y-11414285D02*
X111002380Y-11414285D01*
X112002380Y-11985714D01*
X111002380Y-11985714D01*
X112002380Y-12461904D02*
X111002380Y-12461904D01*
X111002380Y-12700000D01*
X111050000Y-12842857D01*
X111145238Y-12938095D01*
X111240476Y-12985714D01*
X111430952Y-13033333D01*
X111573809Y-13033333D01*
X111764285Y-12985714D01*
X111859523Y-12938095D01*
X111954761Y-12842857D01*
X112002380Y-12700000D01*
X112002380Y-12461904D01*
X105240476Y-1504761D02*
X105097619Y-1552380D01*
X104859523Y-1552380D01*
X104764285Y-1504761D01*
X104716666Y-1457142D01*
X104669047Y-1361904D01*
X104669047Y-1266666D01*
X104716666Y-1171428D01*
X104764285Y-1123809D01*
X104859523Y-1076190D01*
X105050000Y-1028571D01*
X105145238Y-980952D01*
X105192857Y-933333D01*
X105240476Y-838095D01*
X105240476Y-742857D01*
X105192857Y-647619D01*
X105145238Y-600000D01*
X105050000Y-552380D01*
X104811904Y-552380D01*
X104669047Y-600000D01*
X103669047Y-1457142D02*
X103716666Y-1504761D01*
X103859523Y-1552380D01*
X103954761Y-1552380D01*
X104097619Y-1504761D01*
X104192857Y-1409523D01*
X104240476Y-1314285D01*
X104288095Y-1123809D01*
X104288095Y-980952D01*
X104240476Y-790476D01*
X104192857Y-695238D01*
X104097619Y-600000D01*
X103954761Y-552380D01*
X103859523Y-552380D01*
X103716666Y-600000D01*
X103669047Y-647619D01*
X103240476Y-1552380D02*
X103240476Y-552380D01*
X102669047Y-1552380D02*
X103097619Y-980952D01*
X102669047Y-552380D02*
X103240476Y-1123809D01*
X101526190Y-504761D02*
X102383333Y-1790476D01*
X101240476Y-1504761D02*
X101097619Y-1552380D01*
X100859523Y-1552380D01*
X100764285Y-1504761D01*
X100716666Y-1457142D01*
X100669047Y-1361904D01*
X100669047Y-1266666D01*
X100716666Y-1171428D01*
X100764285Y-1123809D01*
X100859523Y-1076190D01*
X101050000Y-1028571D01*
X101145238Y-980952D01*
X101192857Y-933333D01*
X101240476Y-838095D01*
X101240476Y-742857D01*
X101192857Y-647619D01*
X101145238Y-600000D01*
X101050000Y-552380D01*
X100811904Y-552380D01*
X100669047Y-600000D01*
X100240476Y-1552380D02*
X100240476Y-552380D01*
X99859523Y-552380D01*
X99764285Y-600000D01*
X99716666Y-647619D01*
X99669047Y-742857D01*
X99669047Y-885714D01*
X99716666Y-980952D01*
X99764285Y-1028571D01*
X99859523Y-1076190D01*
X100240476Y-1076190D01*
X99240476Y-1552380D02*
X99240476Y-552380D01*
X98764285Y-1171428D02*
X98002380Y-1171428D01*
X97526190Y-1552380D02*
X97526190Y-552380D01*
X97192857Y-1266666D01*
X96859523Y-552380D01*
X96859523Y-1552380D01*
X96192857Y-552380D02*
X96002380Y-552380D01*
X95907142Y-600000D01*
X95811904Y-695238D01*
X95764285Y-885714D01*
X95764285Y-1219047D01*
X95811904Y-1409523D01*
X95907142Y-1504761D01*
X96002380Y-1552380D01*
X96192857Y-1552380D01*
X96288095Y-1504761D01*
X96383333Y-1409523D01*
X96430952Y-1219047D01*
X96430952Y-885714D01*
X96383333Y-695238D01*
X96288095Y-600000D01*
X96192857Y-552380D01*
X95383333Y-1504761D02*
X95240476Y-1552380D01*
X95002380Y-1552380D01*
X94907142Y-1504761D01*
X94859523Y-1457142D01*
X94811904Y-1361904D01*
X94811904Y-1266666D01*
X94859523Y-1171428D01*
X94907142Y-1123809D01*
X95002380Y-1076190D01*
X95192857Y-1028571D01*
X95288095Y-980952D01*
X95335714Y-933333D01*
X95383333Y-838095D01*
X95383333Y-742857D01*
X95335714Y-647619D01*
X95288095Y-600000D01*
X95192857Y-552380D01*
X94954761Y-552380D01*
X94811904Y-600000D01*
X94383333Y-1552380D02*
X94383333Y-552380D01*
X93192857Y-504761D02*
X94050000Y-1790476D01*
X92859523Y-1552380D02*
X92859523Y-552380D01*
X92430952Y-647619D02*
X92383333Y-600000D01*
X92288095Y-552380D01*
X92050000Y-552380D01*
X91954761Y-600000D01*
X91907142Y-647619D01*
X91859523Y-742857D01*
X91859523Y-838095D01*
X91907142Y-980952D01*
X92478571Y-1552380D01*
X91859523Y-1552380D01*
X90859523Y-1457142D02*
X90907142Y-1504761D01*
X91050000Y-1552380D01*
X91145238Y-1552380D01*
X91288095Y-1504761D01*
X91383333Y-1409523D01*
X91430952Y-1314285D01*
X91478571Y-1123809D01*
X91478571Y-980952D01*
X91430952Y-790476D01*
X91383333Y-695238D01*
X91288095Y-600000D01*
X91145238Y-552380D01*
X91050000Y-552380D01*
X90907142Y-600000D01*
X90859523Y-647619D01*
X90430952Y-1171428D02*
X89669047Y-1171428D01*
X89240476Y-1504761D02*
X89097619Y-1552380D01*
X88859523Y-1552380D01*
X88764285Y-1504761D01*
X88716666Y-1457142D01*
X88669047Y-1361904D01*
X88669047Y-1266666D01*
X88716666Y-1171428D01*
X88764285Y-1123809D01*
X88859523Y-1076190D01*
X89050000Y-1028571D01*
X89145238Y-980952D01*
X89192857Y-933333D01*
X89240476Y-838095D01*
X89240476Y-742857D01*
X89192857Y-647619D01*
X89145238Y-600000D01*
X89050000Y-552380D01*
X88811904Y-552380D01*
X88669047Y-600000D01*
X87669047Y-1457142D02*
X87716666Y-1504761D01*
X87859523Y-1552380D01*
X87954761Y-1552380D01*
X88097619Y-1504761D01*
X88192857Y-1409523D01*
X88240476Y-1314285D01*
X88288095Y-1123809D01*
X88288095Y-980952D01*
X88240476Y-790476D01*
X88192857Y-695238D01*
X88097619Y-600000D01*
X87954761Y-552380D01*
X87859523Y-552380D01*
X87716666Y-600000D01*
X87669047Y-647619D01*
X86764285Y-1552380D02*
X87240476Y-1552380D01*
X87240476Y-552380D01*
X101702380Y-5680952D02*
X100702380Y-5680952D01*
X100702380Y-5919047D01*
X100750000Y-6061904D01*
X100845238Y-6157142D01*
X100940476Y-6204761D01*
X101130952Y-6252380D01*
X101273809Y-6252380D01*
X101464285Y-6204761D01*
X101559523Y-6157142D01*
X101654761Y-6061904D01*
X101702380Y-5919047D01*
X101702380Y-5680952D01*
X101702380Y-7109523D02*
X101178571Y-7109523D01*
X101083333Y-7061904D01*
X101035714Y-6966666D01*
X101035714Y-6776190D01*
X101083333Y-6680952D01*
X101654761Y-7109523D02*
X101702380Y-7014285D01*
X101702380Y-6776190D01*
X101654761Y-6680952D01*
X101559523Y-6633333D01*
X101464285Y-6633333D01*
X101369047Y-6680952D01*
X101321428Y-6776190D01*
X101321428Y-7014285D01*
X101273809Y-7109523D01*
X101035714Y-7442857D02*
X101035714Y-7823809D01*
X100702380Y-7585714D02*
X101559523Y-7585714D01*
X101654761Y-7633333D01*
X101702380Y-7728571D01*
X101702380Y-7823809D01*
X101702380Y-8585714D02*
X101178571Y-8585714D01*
X101083333Y-8538095D01*
X101035714Y-8442857D01*
X101035714Y-8252380D01*
X101083333Y-8157142D01*
X101654761Y-8585714D02*
X101702380Y-8490476D01*
X101702380Y-8252380D01*
X101654761Y-8157142D01*
X101559523Y-8109523D01*
X101464285Y-8109523D01*
X101369047Y-8157142D01*
X101321428Y-8252380D01*
X101321428Y-8490476D01*
X101273809Y-8585714D01*
X100654761Y-9776190D02*
X101940476Y-8919047D01*
X101654761Y-10061904D02*
X101702380Y-10204761D01*
X101702380Y-10442857D01*
X101654761Y-10538095D01*
X101607142Y-10585714D01*
X101511904Y-10633333D01*
X101416666Y-10633333D01*
X101321428Y-10585714D01*
X101273809Y-10538095D01*
X101226190Y-10442857D01*
X101178571Y-10252380D01*
X101130952Y-10157142D01*
X101083333Y-10109523D01*
X100988095Y-10061904D01*
X100892857Y-10061904D01*
X100797619Y-10109523D01*
X100750000Y-10157142D01*
X100702380Y-10252380D01*
X100702380Y-10490476D01*
X100750000Y-10633333D01*
X101702380Y-11061904D02*
X100702380Y-11061904D01*
X100702380Y-11442857D01*
X100750000Y-11538095D01*
X100797619Y-11585714D01*
X100892857Y-11633333D01*
X101035714Y-11633333D01*
X101130952Y-11585714D01*
X101178571Y-11538095D01*
X101226190Y-11442857D01*
X101226190Y-11061904D01*
X101702380Y-12061904D02*
X100702380Y-12061904D01*
X101321428Y-12538095D02*
X101321428Y-13300000D01*
X101702380Y-13776190D02*
X100702380Y-13776190D01*
X101416666Y-14109523D01*
X100702380Y-14442857D01*
X101702380Y-14442857D01*
X101702380Y-14919047D02*
X100702380Y-14919047D01*
X101654761Y-15347619D02*
X101702380Y-15490476D01*
X101702380Y-15728571D01*
X101654761Y-15823809D01*
X101607142Y-15871428D01*
X101511904Y-15919047D01*
X101416666Y-15919047D01*
X101321428Y-15871428D01*
X101273809Y-15823809D01*
X101226190Y-15728571D01*
X101178571Y-15538095D01*
X101130952Y-15442857D01*
X101083333Y-15395238D01*
X100988095Y-15347619D01*
X100892857Y-15347619D01*
X100797619Y-15395238D01*
X100750000Y-15442857D01*
X100702380Y-15538095D01*
X100702380Y-15776190D01*
X100750000Y-15919047D01*
X100702380Y-16538095D02*
X100702380Y-16728571D01*
X100750000Y-16823809D01*
X100845238Y-16919047D01*
X101035714Y-16966666D01*
X101369047Y-16966666D01*
X101559523Y-16919047D01*
X101654761Y-16823809D01*
X101702380Y-16728571D01*
X101702380Y-16538095D01*
X101654761Y-16442857D01*
X101559523Y-16347619D01*
X101369047Y-16300000D01*
X101035714Y-16300000D01*
X100845238Y-16347619D01*
X100750000Y-16442857D01*
X100702380Y-16538095D01*
X109021428Y-10314285D02*
X109021428Y-11076190D01*
X109402380Y-10695238D02*
X108640476Y-10695238D01*
X108402380Y-12028571D02*
X108402380Y-11552380D01*
X108878571Y-11504761D01*
X108830952Y-11552380D01*
X108783333Y-11647619D01*
X108783333Y-11885714D01*
X108830952Y-11980952D01*
X108878571Y-12028571D01*
X108973809Y-12076190D01*
X109211904Y-12076190D01*
X109307142Y-12028571D01*
X109354761Y-11980952D01*
X109402380Y-11885714D01*
X109402380Y-11647619D01*
X109354761Y-11552380D01*
X109307142Y-11504761D01*
X108402380Y-12361904D02*
X109402380Y-12695238D01*
X108402380Y-13028571D01*
X103921428Y-10300000D02*
X103921428Y-11061904D01*
X104302380Y-10680952D02*
X103540476Y-10680952D01*
X103302380Y-11442857D02*
X103302380Y-12061904D01*
X103683333Y-11728571D01*
X103683333Y-11871428D01*
X103730952Y-11966666D01*
X103778571Y-12014285D01*
X103873809Y-12061904D01*
X104111904Y-12061904D01*
X104207142Y-12014285D01*
X104254761Y-11966666D01*
X104302380Y-11871428D01*
X104302380Y-11585714D01*
X104254761Y-11490476D01*
X104207142Y-11442857D01*
X104207142Y-12490476D02*
X104254761Y-12538095D01*
X104302380Y-12490476D01*
X104254761Y-12442857D01*
X104207142Y-12490476D01*
X104302380Y-12490476D01*
X103302380Y-12871428D02*
X103302380Y-13490476D01*
X103683333Y-13157142D01*
X103683333Y-13300000D01*
X103730952Y-13395238D01*
X103778571Y-13442857D01*
X103873809Y-13490476D01*
X104111904Y-13490476D01*
X104207142Y-13442857D01*
X104254761Y-13395238D01*
X104302380Y-13300000D01*
X104302380Y-13014285D01*
X104254761Y-12919047D01*
X104207142Y-12871428D01*
X103302380Y-13776190D02*
X104302380Y-14109523D01*
X103302380Y-14442857D01*
X18400000Y-8542857D02*
X19085714Y-8542857D01*
X18742857Y-8542857D02*
X18742857Y-7342857D01*
X18857142Y-7514285D01*
X18971428Y-7628571D01*
X19085714Y-7685714D01*
X17885714Y-8085714D02*
X16971428Y-8085714D01*
X17428571Y-8542857D02*
X17428571Y-7628571D01*
X113550000Y-11038095D02*
X113502380Y-10942857D01*
X113502380Y-10800000D01*
X113550000Y-10657142D01*
X113645238Y-10561904D01*
X113740476Y-10514285D01*
X113930952Y-10466666D01*
X114073809Y-10466666D01*
X114264285Y-10514285D01*
X114359523Y-10561904D01*
X114454761Y-10657142D01*
X114502380Y-10800000D01*
X114502380Y-10895238D01*
X114454761Y-11038095D01*
X114407142Y-11085714D01*
X114073809Y-11085714D01*
X114073809Y-10895238D01*
X114502380Y-11514285D02*
X113502380Y-11514285D01*
X114502380Y-12085714D01*
X113502380Y-12085714D01*
X114502380Y-12561904D02*
X113502380Y-12561904D01*
X113502380Y-12800000D01*
X113550000Y-12942857D01*
X113645238Y-13038095D01*
X113740476Y-13085714D01*
X113930952Y-13133333D01*
X114073809Y-13133333D01*
X114264285Y-13085714D01*
X114359523Y-13038095D01*
X114454761Y-12942857D01*
X114502380Y-12800000D01*
X114502380Y-12561904D01*
X109354761Y-561904D02*
X109402380Y-704761D01*
X109402380Y-942857D01*
X109354761Y-1038095D01*
X109307142Y-1085714D01*
X109211904Y-1133333D01*
X109116666Y-1133333D01*
X109021428Y-1085714D01*
X108973809Y-1038095D01*
X108926190Y-942857D01*
X108878571Y-752380D01*
X108830952Y-657142D01*
X108783333Y-609523D01*
X108688095Y-561904D01*
X108592857Y-561904D01*
X108497619Y-609523D01*
X108450000Y-657142D01*
X108402380Y-752380D01*
X108402380Y-990476D01*
X108450000Y-1133333D01*
X108402380Y-1466666D02*
X109402380Y-1704761D01*
X108688095Y-1895238D01*
X109402380Y-2085714D01*
X108402380Y-2323809D01*
X109021428Y-2704761D02*
X109021428Y-3466666D01*
X109402380Y-3942857D02*
X108402380Y-3942857D01*
X109402380Y-4419047D02*
X108402380Y-4419047D01*
X109402380Y-4990476D01*
X108402380Y-4990476D01*
X13400000Y-8542857D02*
X14085714Y-8542857D01*
X13742857Y-8542857D02*
X13742857Y-7342857D01*
X13857142Y-7514285D01*
X13971428Y-7628571D01*
X14085714Y-7685714D01*
X12885714Y-8085714D02*
X11971428Y-8085714D01*
X105950000Y-10938095D02*
X105902380Y-10842857D01*
X105902380Y-10700000D01*
X105950000Y-10557142D01*
X106045238Y-10461904D01*
X106140476Y-10414285D01*
X106330952Y-10366666D01*
X106473809Y-10366666D01*
X106664285Y-10414285D01*
X106759523Y-10461904D01*
X106854761Y-10557142D01*
X106902380Y-10700000D01*
X106902380Y-10795238D01*
X106854761Y-10938095D01*
X106807142Y-10985714D01*
X106473809Y-10985714D01*
X106473809Y-10795238D01*
X106902380Y-11414285D02*
X105902380Y-11414285D01*
X106902380Y-11985714D01*
X105902380Y-11985714D01*
X106902380Y-12461904D02*
X105902380Y-12461904D01*
X105902380Y-12700000D01*
X105950000Y-12842857D01*
X106045238Y-12938095D01*
X106140476Y-12985714D01*
X106330952Y-13033333D01*
X106473809Y-13033333D01*
X106664285Y-12985714D01*
X106759523Y-12938095D01*
X106854761Y-12842857D01*
X106902380Y-12700000D01*
X106902380Y-12461904D01*
X29085714Y-7457142D02*
X29028571Y-7400000D01*
X28914285Y-7342857D01*
X28628571Y-7342857D01*
X28514285Y-7400000D01*
X28457142Y-7457142D01*
X28400000Y-7571428D01*
X28400000Y-7685714D01*
X28457142Y-7857142D01*
X29142857Y-8542857D01*
X28400000Y-8542857D01*
X27885714Y-8085714D02*
X26971428Y-8085714D01*
D12*
%TO.C,J4*%
X102252380Y-37286666D02*
X102966666Y-37286666D01*
X103109523Y-37239047D01*
X103204761Y-37143809D01*
X103252380Y-37000952D01*
X103252380Y-36905714D01*
X102585714Y-38191428D02*
X103252380Y-38191428D01*
X102204761Y-37953333D02*
X102919047Y-37715238D01*
X102919047Y-38334285D01*
%TO.C,J5*%
X91632380Y-22046666D02*
X92346666Y-22046666D01*
X92489523Y-21999047D01*
X92584761Y-21903809D01*
X92632380Y-21760952D01*
X92632380Y-21665714D01*
X91632380Y-22999047D02*
X91632380Y-22522857D01*
X92108571Y-22475238D01*
X92060952Y-22522857D01*
X92013333Y-22618095D01*
X92013333Y-22856190D01*
X92060952Y-22951428D01*
X92108571Y-22999047D01*
X92203809Y-23046666D01*
X92441904Y-23046666D01*
X92537142Y-22999047D01*
X92584761Y-22951428D01*
X92632380Y-22856190D01*
X92632380Y-22618095D01*
X92584761Y-22522857D01*
X92537142Y-22475238D01*
D13*
%TO.C,J4*%
X101360000Y-37620000D02*
X101360000Y-36290000D01*
X98760000Y-38950000D02*
X93620000Y-38950000D01*
X93620000Y-38950000D02*
X93620000Y-36290000D01*
X98760000Y-36290000D02*
X93620000Y-36290000D01*
X101360000Y-36290000D02*
X100030000Y-36290000D01*
X98760000Y-38950000D02*
X98760000Y-36290000D01*
%TO.C,J5*%
X96220000Y-21050000D02*
X98820000Y-21050000D01*
X96220000Y-21050000D02*
X96220000Y-23710000D01*
X93620000Y-23710000D02*
X94950000Y-23710000D01*
X96220000Y-23710000D02*
X98820000Y-23710000D01*
X98820000Y-21050000D02*
X98820000Y-23710000D01*
X93620000Y-22380000D02*
X93620000Y-23710000D01*
%TD*%
M02*
