%TF.GenerationSoftware,KiCad,Pcbnew,(6.0.0)*%
%TF.CreationDate,2022-01-09T22:19:22-05:00*%
%TF.ProjectId,Main-board-FeatherRP2040,4d61696e-2d62-46f6-9172-642d46656174,rev?*%
%TF.SameCoordinates,Original*%
%TF.FileFunction,Legend,Top*%
%TF.FilePolarity,Positive*%
%FSLAX46Y46*%
G04 Gerber Fmt 4.6, Leading zero omitted, Abs format (unit mm)*
G04 Created by KiCad (PCBNEW (6.0.0)) date 2022-01-09 22:19:22*
%MOMM*%
%LPD*%
G01*
G04 APERTURE LIST*
%ADD10C,0.200000*%
%ADD11C,0.300000*%
%ADD12C,0.150000*%
%ADD13C,0.120000*%
%ADD14C,0.100000*%
G04 APERTURE END LIST*
D10*
X98752380Y-1652380D02*
X99323809Y-1652380D01*
X99038095Y-2652380D02*
X99038095Y-1652380D01*
X99800000Y-2652380D02*
X99704761Y-2604761D01*
X99657142Y-2557142D01*
X99609523Y-2461904D01*
X99609523Y-2176190D01*
X99657142Y-2080952D01*
X99704761Y-2033333D01*
X99800000Y-1985714D01*
X99942857Y-1985714D01*
X100038095Y-2033333D01*
X100085714Y-2080952D01*
X100133333Y-2176190D01*
X100133333Y-2461904D01*
X100085714Y-2557142D01*
X100038095Y-2604761D01*
X99942857Y-2652380D01*
X99800000Y-2652380D01*
X101276190Y-2366666D02*
X101752380Y-2366666D01*
X101180952Y-2652380D02*
X101514285Y-1652380D01*
X101847619Y-2652380D01*
X102180952Y-2652380D02*
X102180952Y-1652380D01*
X102419047Y-1652380D01*
X102561904Y-1700000D01*
X102657142Y-1795238D01*
X102704761Y-1890476D01*
X102752380Y-2080952D01*
X102752380Y-2223809D01*
X102704761Y-2414285D01*
X102657142Y-2509523D01*
X102561904Y-2604761D01*
X102419047Y-2652380D01*
X102180952Y-2652380D01*
X103752380Y-2557142D02*
X103704761Y-2604761D01*
X103561904Y-2652380D01*
X103466666Y-2652380D01*
X103323809Y-2604761D01*
X103228571Y-2509523D01*
X103180952Y-2414285D01*
X103133333Y-2223809D01*
X103133333Y-2080952D01*
X103180952Y-1890476D01*
X103228571Y-1795238D01*
X103323809Y-1700000D01*
X103466666Y-1652380D01*
X103561904Y-1652380D01*
X103704761Y-1700000D01*
X103752380Y-1747619D01*
X104942857Y-2652380D02*
X104942857Y-1652380D01*
X104942857Y-2033333D02*
X105038095Y-1985714D01*
X105228571Y-1985714D01*
X105323809Y-2033333D01*
X105371428Y-2080952D01*
X105419047Y-2176190D01*
X105419047Y-2461904D01*
X105371428Y-2557142D01*
X105323809Y-2604761D01*
X105228571Y-2652380D01*
X105038095Y-2652380D01*
X104942857Y-2604761D01*
X105990476Y-2652380D02*
X105895238Y-2604761D01*
X105847619Y-2557142D01*
X105800000Y-2461904D01*
X105800000Y-2176190D01*
X105847619Y-2080952D01*
X105895238Y-2033333D01*
X105990476Y-1985714D01*
X106133333Y-1985714D01*
X106228571Y-2033333D01*
X106276190Y-2080952D01*
X106323809Y-2176190D01*
X106323809Y-2461904D01*
X106276190Y-2557142D01*
X106228571Y-2604761D01*
X106133333Y-2652380D01*
X105990476Y-2652380D01*
X107180952Y-2652380D02*
X107180952Y-2128571D01*
X107133333Y-2033333D01*
X107038095Y-1985714D01*
X106847619Y-1985714D01*
X106752380Y-2033333D01*
X107180952Y-2604761D02*
X107085714Y-2652380D01*
X106847619Y-2652380D01*
X106752380Y-2604761D01*
X106704761Y-2509523D01*
X106704761Y-2414285D01*
X106752380Y-2319047D01*
X106847619Y-2271428D01*
X107085714Y-2271428D01*
X107180952Y-2223809D01*
X107657142Y-2652380D02*
X107657142Y-1985714D01*
X107657142Y-2176190D02*
X107704761Y-2080952D01*
X107752380Y-2033333D01*
X107847619Y-1985714D01*
X107942857Y-1985714D01*
X108704761Y-2652380D02*
X108704761Y-1652380D01*
X108704761Y-2604761D02*
X108609523Y-2652380D01*
X108419047Y-2652380D01*
X108323809Y-2604761D01*
X108276190Y-2557142D01*
X108228571Y-2461904D01*
X108228571Y-2176190D01*
X108276190Y-2080952D01*
X108323809Y-2033333D01*
X108419047Y-1985714D01*
X108609523Y-1985714D01*
X108704761Y-2033333D01*
D11*
X11750000Y-29750000D02*
X10250000Y-29750000D01*
X10250000Y-29750000D02*
X11000000Y-28500000D01*
X11000000Y-28500000D02*
X11750000Y-29750000D01*
G36*
X11750000Y-29750000D02*
G01*
X10250000Y-29750000D01*
X11000000Y-28500000D01*
X11750000Y-29750000D01*
G37*
X11750000Y-29750000D02*
X10250000Y-29750000D01*
X11000000Y-28500000D01*
X11750000Y-29750000D01*
X53028571Y-49035714D02*
X52957142Y-49107142D01*
X52742857Y-49178571D01*
X52600000Y-49178571D01*
X52385714Y-49107142D01*
X52242857Y-48964285D01*
X52171428Y-48821428D01*
X52100000Y-48535714D01*
X52100000Y-48321428D01*
X52171428Y-48035714D01*
X52242857Y-47892857D01*
X52385714Y-47750000D01*
X52600000Y-47678571D01*
X52742857Y-47678571D01*
X52957142Y-47750000D01*
X53028571Y-47821428D01*
X53528571Y-48178571D02*
X53885714Y-49178571D01*
X54242857Y-48178571D02*
X53885714Y-49178571D01*
X53742857Y-49535714D01*
X53671428Y-49607142D01*
X53528571Y-49678571D01*
X55457142Y-49107142D02*
X55314285Y-49178571D01*
X55028571Y-49178571D01*
X54885714Y-49107142D01*
X54814285Y-49035714D01*
X54742857Y-48892857D01*
X54742857Y-48464285D01*
X54814285Y-48321428D01*
X54885714Y-48250000D01*
X55028571Y-48178571D01*
X55314285Y-48178571D01*
X55457142Y-48250000D01*
X56314285Y-49178571D02*
X56171428Y-49107142D01*
X56100000Y-48964285D01*
X56100000Y-47678571D01*
X57457142Y-49107142D02*
X57314285Y-49178571D01*
X57028571Y-49178571D01*
X56885714Y-49107142D01*
X56814285Y-48964285D01*
X56814285Y-48392857D01*
X56885714Y-48250000D01*
X57028571Y-48178571D01*
X57314285Y-48178571D01*
X57457142Y-48250000D01*
X57528571Y-48392857D01*
X57528571Y-48535714D01*
X56814285Y-48678571D01*
X59242857Y-49107142D02*
X59457142Y-49178571D01*
X59814285Y-49178571D01*
X59957142Y-49107142D01*
X60028571Y-49035714D01*
X60100000Y-48892857D01*
X60100000Y-48750000D01*
X60028571Y-48607142D01*
X59957142Y-48535714D01*
X59814285Y-48464285D01*
X59528571Y-48392857D01*
X59385714Y-48321428D01*
X59314285Y-48250000D01*
X59242857Y-48107142D01*
X59242857Y-47964285D01*
X59314285Y-47821428D01*
X59385714Y-47750000D01*
X59528571Y-47678571D01*
X59885714Y-47678571D01*
X60100000Y-47750000D01*
X60528571Y-48178571D02*
X61100000Y-48178571D01*
X60742857Y-47678571D02*
X60742857Y-48964285D01*
X60814285Y-49107142D01*
X60957142Y-49178571D01*
X61100000Y-49178571D01*
X62242857Y-49178571D02*
X62242857Y-48392857D01*
X62171428Y-48250000D01*
X62028571Y-48178571D01*
X61742857Y-48178571D01*
X61600000Y-48250000D01*
X62242857Y-49107142D02*
X62100000Y-49178571D01*
X61742857Y-49178571D01*
X61600000Y-49107142D01*
X61528571Y-48964285D01*
X61528571Y-48821428D01*
X61600000Y-48678571D01*
X61742857Y-48607142D01*
X62100000Y-48607142D01*
X62242857Y-48535714D01*
X62957142Y-49178571D02*
X62957142Y-48178571D01*
X62957142Y-48464285D02*
X63028571Y-48321428D01*
X63100000Y-48250000D01*
X63242857Y-48178571D01*
X63385714Y-48178571D01*
X63671428Y-48178571D02*
X64242857Y-48178571D01*
X63885714Y-47678571D02*
X63885714Y-48964285D01*
X63957142Y-49107142D01*
X64100000Y-49178571D01*
X64242857Y-49178571D01*
D10*
X17114285Y-12042857D02*
X16714285Y-11471428D01*
X16428571Y-12042857D02*
X16428571Y-10842857D01*
X16885714Y-10842857D01*
X17000000Y-10900000D01*
X17057142Y-10957142D01*
X17114285Y-11071428D01*
X17114285Y-11242857D01*
X17057142Y-11357142D01*
X17000000Y-11414285D01*
X16885714Y-11471428D01*
X16428571Y-11471428D01*
X18085714Y-11985714D02*
X17971428Y-12042857D01*
X17742857Y-12042857D01*
X17628571Y-11985714D01*
X17571428Y-11871428D01*
X17571428Y-11414285D01*
X17628571Y-11300000D01*
X17742857Y-11242857D01*
X17971428Y-11242857D01*
X18085714Y-11300000D01*
X18142857Y-11414285D01*
X18142857Y-11528571D01*
X17571428Y-11642857D01*
X19171428Y-12042857D02*
X19171428Y-10842857D01*
X19171428Y-11985714D02*
X19057142Y-12042857D01*
X18828571Y-12042857D01*
X18714285Y-11985714D01*
X18657142Y-11928571D01*
X18600000Y-11814285D01*
X18600000Y-11471428D01*
X18657142Y-11357142D01*
X18714285Y-11300000D01*
X18828571Y-11242857D01*
X19057142Y-11242857D01*
X19171428Y-11300000D01*
X123942857Y-14985714D02*
X123942857Y-15671428D01*
X123942857Y-15328571D02*
X122742857Y-15328571D01*
X122914285Y-15442857D01*
X123028571Y-15557142D01*
X123085714Y-15671428D01*
X122857142Y-14528571D02*
X122800000Y-14471428D01*
X122742857Y-14357142D01*
X122742857Y-14071428D01*
X122800000Y-13957142D01*
X122857142Y-13900000D01*
X122971428Y-13842857D01*
X123085714Y-13842857D01*
X123257142Y-13900000D01*
X123942857Y-14585714D01*
X123942857Y-13842857D01*
X122742857Y-13500000D02*
X123942857Y-13100000D01*
X122742857Y-12700000D01*
X122857142Y-11442857D02*
X122800000Y-11385714D01*
X122742857Y-11271428D01*
X122742857Y-10985714D01*
X122800000Y-10871428D01*
X122857142Y-10814285D01*
X122971428Y-10757142D01*
X123085714Y-10757142D01*
X123257142Y-10814285D01*
X123942857Y-11500000D01*
X123942857Y-10757142D01*
X123600000Y-10300000D02*
X123600000Y-9728571D01*
X123942857Y-10414285D02*
X122742857Y-10014285D01*
X123942857Y-9614285D01*
D11*
X37892857Y-47678571D02*
X37892857Y-48892857D01*
X37964285Y-49035714D01*
X38035714Y-49107142D01*
X38178571Y-49178571D01*
X38464285Y-49178571D01*
X38607142Y-49107142D01*
X38678571Y-49035714D01*
X38750000Y-48892857D01*
X38750000Y-47678571D01*
X39464285Y-48178571D02*
X39464285Y-49678571D01*
X39464285Y-48250000D02*
X39607142Y-48178571D01*
X39892857Y-48178571D01*
X40035714Y-48250000D01*
X40107142Y-48321428D01*
X40178571Y-48464285D01*
X40178571Y-48892857D01*
X40107142Y-49035714D01*
X40035714Y-49107142D01*
X39892857Y-49178571D01*
X39607142Y-49178571D01*
X39464285Y-49107142D01*
X17742857Y-49178571D02*
X17242857Y-48464285D01*
X16885714Y-49178571D02*
X16885714Y-47678571D01*
X17457142Y-47678571D01*
X17600000Y-47750000D01*
X17671428Y-47821428D01*
X17742857Y-47964285D01*
X17742857Y-48178571D01*
X17671428Y-48321428D01*
X17600000Y-48392857D01*
X17457142Y-48464285D01*
X16885714Y-48464285D01*
X18957142Y-49107142D02*
X18814285Y-49178571D01*
X18528571Y-49178571D01*
X18385714Y-49107142D01*
X18314285Y-48964285D01*
X18314285Y-48392857D01*
X18385714Y-48250000D01*
X18528571Y-48178571D01*
X18814285Y-48178571D01*
X18957142Y-48250000D01*
X19028571Y-48392857D01*
X19028571Y-48535714D01*
X18314285Y-48678571D01*
X19600000Y-49107142D02*
X19742857Y-49178571D01*
X20028571Y-49178571D01*
X20171428Y-49107142D01*
X20242857Y-48964285D01*
X20242857Y-48892857D01*
X20171428Y-48750000D01*
X20028571Y-48678571D01*
X19814285Y-48678571D01*
X19671428Y-48607142D01*
X19600000Y-48464285D01*
X19600000Y-48392857D01*
X19671428Y-48250000D01*
X19814285Y-48178571D01*
X20028571Y-48178571D01*
X20171428Y-48250000D01*
X21457142Y-49107142D02*
X21314285Y-49178571D01*
X21028571Y-49178571D01*
X20885714Y-49107142D01*
X20814285Y-48964285D01*
X20814285Y-48392857D01*
X20885714Y-48250000D01*
X21028571Y-48178571D01*
X21314285Y-48178571D01*
X21457142Y-48250000D01*
X21528571Y-48392857D01*
X21528571Y-48535714D01*
X20814285Y-48678571D01*
X21957142Y-48178571D02*
X22528571Y-48178571D01*
X22171428Y-47678571D02*
X22171428Y-48964285D01*
X22242857Y-49107142D01*
X22385714Y-49178571D01*
X22528571Y-49178571D01*
X74464285Y-49178571D02*
X74464285Y-47678571D01*
X74821428Y-47678571D01*
X75035714Y-47750000D01*
X75178571Y-47892857D01*
X75250000Y-48035714D01*
X75321428Y-48321428D01*
X75321428Y-48535714D01*
X75250000Y-48821428D01*
X75178571Y-48964285D01*
X75035714Y-49107142D01*
X74821428Y-49178571D01*
X74464285Y-49178571D01*
X76178571Y-49178571D02*
X76035714Y-49107142D01*
X75964285Y-49035714D01*
X75892857Y-48892857D01*
X75892857Y-48464285D01*
X75964285Y-48321428D01*
X76035714Y-48250000D01*
X76178571Y-48178571D01*
X76392857Y-48178571D01*
X76535714Y-48250000D01*
X76607142Y-48321428D01*
X76678571Y-48464285D01*
X76678571Y-48892857D01*
X76607142Y-49035714D01*
X76535714Y-49107142D01*
X76392857Y-49178571D01*
X76178571Y-49178571D01*
X77178571Y-48178571D02*
X77464285Y-49178571D01*
X77750000Y-48464285D01*
X78035714Y-49178571D01*
X78321428Y-48178571D01*
X78892857Y-48178571D02*
X78892857Y-49178571D01*
X78892857Y-48321428D02*
X78964285Y-48250000D01*
X79107142Y-48178571D01*
X79321428Y-48178571D01*
X79464285Y-48250000D01*
X79535714Y-48392857D01*
X79535714Y-49178571D01*
D10*
X26628571Y-11414285D02*
X26800000Y-11471428D01*
X26857142Y-11528571D01*
X26914285Y-11642857D01*
X26914285Y-11814285D01*
X26857142Y-11928571D01*
X26800000Y-11985714D01*
X26685714Y-12042857D01*
X26228571Y-12042857D01*
X26228571Y-10842857D01*
X26628571Y-10842857D01*
X26742857Y-10900000D01*
X26800000Y-10957142D01*
X26857142Y-11071428D01*
X26857142Y-11185714D01*
X26800000Y-11300000D01*
X26742857Y-11357142D01*
X26628571Y-11414285D01*
X26228571Y-11414285D01*
X27600000Y-12042857D02*
X27485714Y-11985714D01*
X27428571Y-11871428D01*
X27428571Y-10842857D01*
X28571428Y-12042857D02*
X28571428Y-11414285D01*
X28514285Y-11300000D01*
X28400000Y-11242857D01*
X28171428Y-11242857D01*
X28057142Y-11300000D01*
X28571428Y-11985714D02*
X28457142Y-12042857D01*
X28171428Y-12042857D01*
X28057142Y-11985714D01*
X28000000Y-11871428D01*
X28000000Y-11757142D01*
X28057142Y-11642857D01*
X28171428Y-11585714D01*
X28457142Y-11585714D01*
X28571428Y-11528571D01*
X29657142Y-11985714D02*
X29542857Y-12042857D01*
X29314285Y-12042857D01*
X29200000Y-11985714D01*
X29142857Y-11928571D01*
X29085714Y-11814285D01*
X29085714Y-11471428D01*
X29142857Y-11357142D01*
X29200000Y-11300000D01*
X29314285Y-11242857D01*
X29542857Y-11242857D01*
X29657142Y-11300000D01*
X30171428Y-12042857D02*
X30171428Y-10842857D01*
X30285714Y-11585714D02*
X30628571Y-12042857D01*
X30628571Y-11242857D02*
X30171428Y-11700000D01*
X10914285Y-11414285D02*
X11085714Y-11471428D01*
X11142857Y-11528571D01*
X11200000Y-11642857D01*
X11200000Y-11814285D01*
X11142857Y-11928571D01*
X11085714Y-11985714D01*
X10971428Y-12042857D01*
X10514285Y-12042857D01*
X10514285Y-10842857D01*
X10914285Y-10842857D01*
X11028571Y-10900000D01*
X11085714Y-10957142D01*
X11142857Y-11071428D01*
X11142857Y-11185714D01*
X11085714Y-11300000D01*
X11028571Y-11357142D01*
X10914285Y-11414285D01*
X10514285Y-11414285D01*
X11885714Y-12042857D02*
X11771428Y-11985714D01*
X11714285Y-11871428D01*
X11714285Y-10842857D01*
X12857142Y-11242857D02*
X12857142Y-12042857D01*
X12342857Y-11242857D02*
X12342857Y-11871428D01*
X12400000Y-11985714D01*
X12514285Y-12042857D01*
X12685714Y-12042857D01*
X12800000Y-11985714D01*
X12857142Y-11928571D01*
X13885714Y-11985714D02*
X13771428Y-12042857D01*
X13542857Y-12042857D01*
X13428571Y-11985714D01*
X13371428Y-11871428D01*
X13371428Y-11414285D01*
X13428571Y-11300000D01*
X13542857Y-11242857D01*
X13771428Y-11242857D01*
X13885714Y-11300000D01*
X13942857Y-11414285D01*
X13942857Y-11528571D01*
X13371428Y-11642857D01*
X31376857Y-9755714D02*
X31376857Y-9070000D01*
X32576857Y-9412857D02*
X31376857Y-9412857D01*
X32576857Y-8498571D02*
X32519714Y-8612857D01*
X32462571Y-8670000D01*
X32348285Y-8727142D01*
X32005428Y-8727142D01*
X31891142Y-8670000D01*
X31834000Y-8612857D01*
X31776857Y-8498571D01*
X31776857Y-8327142D01*
X31834000Y-8212857D01*
X31891142Y-8155714D01*
X32005428Y-8098571D01*
X32348285Y-8098571D01*
X32462571Y-8155714D01*
X32519714Y-8212857D01*
X32576857Y-8327142D01*
X32576857Y-8498571D01*
X32519714Y-6727142D02*
X32576857Y-6612857D01*
X32576857Y-6384285D01*
X32519714Y-6270000D01*
X32405428Y-6212857D01*
X32348285Y-6212857D01*
X32234000Y-6270000D01*
X32176857Y-6384285D01*
X32176857Y-6555714D01*
X32119714Y-6670000D01*
X32005428Y-6727142D01*
X31948285Y-6727142D01*
X31834000Y-6670000D01*
X31776857Y-6555714D01*
X31776857Y-6384285D01*
X31834000Y-6270000D01*
X31776857Y-5870000D02*
X31776857Y-5412857D01*
X31376857Y-5698571D02*
X32405428Y-5698571D01*
X32519714Y-5641428D01*
X32576857Y-5527142D01*
X32576857Y-5412857D01*
X32519714Y-4555714D02*
X32576857Y-4670000D01*
X32576857Y-4898571D01*
X32519714Y-5012857D01*
X32405428Y-5070000D01*
X31948285Y-5070000D01*
X31834000Y-5012857D01*
X31776857Y-4898571D01*
X31776857Y-4670000D01*
X31834000Y-4555714D01*
X31948285Y-4498571D01*
X32062571Y-4498571D01*
X32176857Y-5070000D01*
X31776857Y-3984285D02*
X32976857Y-3984285D01*
X31834000Y-3984285D02*
X31776857Y-3870000D01*
X31776857Y-3641428D01*
X31834000Y-3527142D01*
X31891142Y-3470000D01*
X32005428Y-3412857D01*
X32348285Y-3412857D01*
X32462571Y-3470000D01*
X32519714Y-3527142D01*
X32576857Y-3641428D01*
X32576857Y-3870000D01*
X32519714Y-3984285D01*
X31776857Y-2898571D02*
X32976857Y-2898571D01*
X31834000Y-2898571D02*
X31776857Y-2784285D01*
X31776857Y-2555714D01*
X31834000Y-2441428D01*
X31891142Y-2384285D01*
X32005428Y-2327142D01*
X32348285Y-2327142D01*
X32462571Y-2384285D01*
X32519714Y-2441428D01*
X32576857Y-2555714D01*
X32576857Y-2784285D01*
X32519714Y-2898571D01*
X32519714Y-1355714D02*
X32576857Y-1470000D01*
X32576857Y-1698571D01*
X32519714Y-1812857D01*
X32405428Y-1870000D01*
X31948285Y-1870000D01*
X31834000Y-1812857D01*
X31776857Y-1698571D01*
X31776857Y-1470000D01*
X31834000Y-1355714D01*
X31948285Y-1298571D01*
X32062571Y-1298571D01*
X32176857Y-1870000D01*
X32576857Y-784285D02*
X31776857Y-784285D01*
X32005428Y-784285D02*
X31891142Y-727142D01*
X31834000Y-670000D01*
X31776857Y-555714D01*
X31776857Y-441428D01*
X34508857Y-9584285D02*
X33708857Y-9584285D01*
X33823142Y-9584285D02*
X33766000Y-9527142D01*
X33708857Y-9412857D01*
X33708857Y-9241428D01*
X33766000Y-9127142D01*
X33880285Y-9070000D01*
X34508857Y-9070000D01*
X33880285Y-9070000D02*
X33766000Y-9012857D01*
X33708857Y-8898571D01*
X33708857Y-8727142D01*
X33766000Y-8612857D01*
X33880285Y-8555714D01*
X34508857Y-8555714D01*
X34508857Y-7812857D02*
X34451714Y-7927142D01*
X34394571Y-7984285D01*
X34280285Y-8041428D01*
X33937428Y-8041428D01*
X33823142Y-7984285D01*
X33766000Y-7927142D01*
X33708857Y-7812857D01*
X33708857Y-7641428D01*
X33766000Y-7527142D01*
X33823142Y-7470000D01*
X33937428Y-7412857D01*
X34280285Y-7412857D01*
X34394571Y-7470000D01*
X34451714Y-7527142D01*
X34508857Y-7641428D01*
X34508857Y-7812857D01*
X33708857Y-7070000D02*
X33708857Y-6612857D01*
X33308857Y-6898571D02*
X34337428Y-6898571D01*
X34451714Y-6841428D01*
X34508857Y-6727142D01*
X34508857Y-6612857D01*
X34508857Y-6041428D02*
X34451714Y-6155714D01*
X34394571Y-6212857D01*
X34280285Y-6270000D01*
X33937428Y-6270000D01*
X33823142Y-6212857D01*
X33766000Y-6155714D01*
X33708857Y-6041428D01*
X33708857Y-5870000D01*
X33766000Y-5755714D01*
X33823142Y-5698571D01*
X33937428Y-5641428D01*
X34280285Y-5641428D01*
X34394571Y-5698571D01*
X34451714Y-5755714D01*
X34508857Y-5870000D01*
X34508857Y-6041428D01*
X34508857Y-5127142D02*
X33708857Y-5127142D01*
X33937428Y-5127142D02*
X33823142Y-5070000D01*
X33766000Y-5012857D01*
X33708857Y-4898571D01*
X33708857Y-4784285D01*
X124942857Y-2757142D02*
X125000000Y-2700000D01*
X125114285Y-2642857D01*
X125400000Y-2642857D01*
X125514285Y-2700000D01*
X125571428Y-2757142D01*
X125628571Y-2871428D01*
X125628571Y-2985714D01*
X125571428Y-3157142D01*
X124885714Y-3842857D01*
X125628571Y-3842857D01*
X126085714Y-3500000D02*
X126657142Y-3500000D01*
X125971428Y-3842857D02*
X126371428Y-2642857D01*
X126771428Y-3842857D01*
X21371428Y-10900000D02*
X21257142Y-10842857D01*
X21085714Y-10842857D01*
X20914285Y-10900000D01*
X20800000Y-11014285D01*
X20742857Y-11128571D01*
X20685714Y-11357142D01*
X20685714Y-11528571D01*
X20742857Y-11757142D01*
X20800000Y-11871428D01*
X20914285Y-11985714D01*
X21085714Y-12042857D01*
X21200000Y-12042857D01*
X21371428Y-11985714D01*
X21428571Y-11928571D01*
X21428571Y-11528571D01*
X21200000Y-11528571D01*
X21942857Y-12042857D02*
X21942857Y-11242857D01*
X21942857Y-11471428D02*
X22000000Y-11357142D01*
X22057142Y-11300000D01*
X22171428Y-11242857D01*
X22285714Y-11242857D01*
X23142857Y-11985714D02*
X23028571Y-12042857D01*
X22800000Y-12042857D01*
X22685714Y-11985714D01*
X22628571Y-11871428D01*
X22628571Y-11414285D01*
X22685714Y-11300000D01*
X22800000Y-11242857D01*
X23028571Y-11242857D01*
X23142857Y-11300000D01*
X23200000Y-11414285D01*
X23200000Y-11528571D01*
X22628571Y-11642857D01*
X24171428Y-11985714D02*
X24057142Y-12042857D01*
X23828571Y-12042857D01*
X23714285Y-11985714D01*
X23657142Y-11871428D01*
X23657142Y-11414285D01*
X23714285Y-11300000D01*
X23828571Y-11242857D01*
X24057142Y-11242857D01*
X24171428Y-11300000D01*
X24228571Y-11414285D01*
X24228571Y-11528571D01*
X23657142Y-11642857D01*
X24742857Y-11242857D02*
X24742857Y-12042857D01*
X24742857Y-11357142D02*
X24800000Y-11300000D01*
X24914285Y-11242857D01*
X25085714Y-11242857D01*
X25200000Y-11300000D01*
X25257142Y-11414285D01*
X25257142Y-12042857D01*
D12*
%TO.C,F1*%
X121166666Y-6828571D02*
X120833333Y-6828571D01*
X120833333Y-7352380D02*
X120833333Y-6352380D01*
X121309523Y-6352380D01*
X122214285Y-7352380D02*
X121642857Y-7352380D01*
X121928571Y-7352380D02*
X121928571Y-6352380D01*
X121833333Y-6495238D01*
X121738095Y-6590476D01*
X121642857Y-6638095D01*
%TO.C,C3*%
X1857142Y-14166666D02*
X1904761Y-14214285D01*
X1952380Y-14357142D01*
X1952380Y-14452380D01*
X1904761Y-14595238D01*
X1809523Y-14690476D01*
X1714285Y-14738095D01*
X1523809Y-14785714D01*
X1380952Y-14785714D01*
X1190476Y-14738095D01*
X1095238Y-14690476D01*
X1000000Y-14595238D01*
X952380Y-14452380D01*
X952380Y-14357142D01*
X1000000Y-14214285D01*
X1047619Y-14166666D01*
X952380Y-13833333D02*
X952380Y-13214285D01*
X1333333Y-13547619D01*
X1333333Y-13404761D01*
X1380952Y-13309523D01*
X1428571Y-13261904D01*
X1523809Y-13214285D01*
X1761904Y-13214285D01*
X1857142Y-13261904D01*
X1904761Y-13309523D01*
X1952380Y-13404761D01*
X1952380Y-13690476D01*
X1904761Y-13785714D01*
X1857142Y-13833333D01*
%TO.C,SW4*%
X75816666Y-30530761D02*
X75959523Y-30578380D01*
X76197619Y-30578380D01*
X76292857Y-30530761D01*
X76340476Y-30483142D01*
X76388095Y-30387904D01*
X76388095Y-30292666D01*
X76340476Y-30197428D01*
X76292857Y-30149809D01*
X76197619Y-30102190D01*
X76007142Y-30054571D01*
X75911904Y-30006952D01*
X75864285Y-29959333D01*
X75816666Y-29864095D01*
X75816666Y-29768857D01*
X75864285Y-29673619D01*
X75911904Y-29626000D01*
X76007142Y-29578380D01*
X76245238Y-29578380D01*
X76388095Y-29626000D01*
X76721428Y-29578380D02*
X76959523Y-30578380D01*
X77150000Y-29864095D01*
X77340476Y-30578380D01*
X77578571Y-29578380D01*
X78388095Y-29911714D02*
X78388095Y-30578380D01*
X78150000Y-29530761D02*
X77911904Y-30245047D01*
X78530952Y-30245047D01*
%TO.C,J8*%
X8652380Y-9733333D02*
X9366666Y-9733333D01*
X9509523Y-9780952D01*
X9604761Y-9876190D01*
X9652380Y-10019047D01*
X9652380Y-10114285D01*
X9080952Y-9114285D02*
X9033333Y-9209523D01*
X8985714Y-9257142D01*
X8890476Y-9304761D01*
X8842857Y-9304761D01*
X8747619Y-9257142D01*
X8700000Y-9209523D01*
X8652380Y-9114285D01*
X8652380Y-8923809D01*
X8700000Y-8828571D01*
X8747619Y-8780952D01*
X8842857Y-8733333D01*
X8890476Y-8733333D01*
X8985714Y-8780952D01*
X9033333Y-8828571D01*
X9080952Y-8923809D01*
X9080952Y-9114285D01*
X9128571Y-9209523D01*
X9176190Y-9257142D01*
X9271428Y-9304761D01*
X9461904Y-9304761D01*
X9557142Y-9257142D01*
X9604761Y-9209523D01*
X9652380Y-9114285D01*
X9652380Y-8923809D01*
X9604761Y-8828571D01*
X9557142Y-8780952D01*
X9461904Y-8733333D01*
X9271428Y-8733333D01*
X9176190Y-8780952D01*
X9128571Y-8828571D01*
X9080952Y-8923809D01*
%TO.C,D6*%
X92011904Y-14052380D02*
X92011904Y-13052380D01*
X92250000Y-13052380D01*
X92392857Y-13100000D01*
X92488095Y-13195238D01*
X92535714Y-13290476D01*
X92583333Y-13480952D01*
X92583333Y-13623809D01*
X92535714Y-13814285D01*
X92488095Y-13909523D01*
X92392857Y-14004761D01*
X92250000Y-14052380D01*
X92011904Y-14052380D01*
X93440476Y-13052380D02*
X93250000Y-13052380D01*
X93154761Y-13100000D01*
X93107142Y-13147619D01*
X93011904Y-13290476D01*
X92964285Y-13480952D01*
X92964285Y-13861904D01*
X93011904Y-13957142D01*
X93059523Y-14004761D01*
X93154761Y-14052380D01*
X93345238Y-14052380D01*
X93440476Y-14004761D01*
X93488095Y-13957142D01*
X93535714Y-13861904D01*
X93535714Y-13623809D01*
X93488095Y-13528571D01*
X93440476Y-13480952D01*
X93345238Y-13433333D01*
X93154761Y-13433333D01*
X93059523Y-13480952D01*
X93011904Y-13528571D01*
X92964285Y-13623809D01*
%TO.C,J3*%
X114492380Y-22713333D02*
X115206666Y-22713333D01*
X115349523Y-22760952D01*
X115444761Y-22856190D01*
X115492380Y-22999047D01*
X115492380Y-23094285D01*
X114492380Y-22332380D02*
X114492380Y-21713333D01*
X114873333Y-22046666D01*
X114873333Y-21903809D01*
X114920952Y-21808571D01*
X114968571Y-21760952D01*
X115063809Y-21713333D01*
X115301904Y-21713333D01*
X115397142Y-21760952D01*
X115444761Y-21808571D01*
X115492380Y-21903809D01*
X115492380Y-22189523D01*
X115444761Y-22284761D01*
X115397142Y-22332380D01*
%TO.C,J1*%
X125916666Y-6959880D02*
X125916666Y-7674166D01*
X125869047Y-7817023D01*
X125773809Y-7912261D01*
X125630952Y-7959880D01*
X125535714Y-7959880D01*
X126916666Y-7959880D02*
X126345238Y-7959880D01*
X126630952Y-7959880D02*
X126630952Y-6959880D01*
X126535714Y-7102738D01*
X126440476Y-7197976D01*
X126345238Y-7245595D01*
%TO.C,SW1*%
X18666666Y-30530761D02*
X18809523Y-30578380D01*
X19047619Y-30578380D01*
X19142857Y-30530761D01*
X19190476Y-30483142D01*
X19238095Y-30387904D01*
X19238095Y-30292666D01*
X19190476Y-30197428D01*
X19142857Y-30149809D01*
X19047619Y-30102190D01*
X18857142Y-30054571D01*
X18761904Y-30006952D01*
X18714285Y-29959333D01*
X18666666Y-29864095D01*
X18666666Y-29768857D01*
X18714285Y-29673619D01*
X18761904Y-29626000D01*
X18857142Y-29578380D01*
X19095238Y-29578380D01*
X19238095Y-29626000D01*
X19571428Y-29578380D02*
X19809523Y-30578380D01*
X20000000Y-29864095D01*
X20190476Y-30578380D01*
X20428571Y-29578380D01*
X21333333Y-30578380D02*
X20761904Y-30578380D01*
X21047619Y-30578380D02*
X21047619Y-29578380D01*
X20952380Y-29721238D01*
X20857142Y-29816476D01*
X20761904Y-29864095D01*
%TO.C,D1*%
X125786904Y-36677380D02*
X125786904Y-35677380D01*
X126025000Y-35677380D01*
X126167857Y-35725000D01*
X126263095Y-35820238D01*
X126310714Y-35915476D01*
X126358333Y-36105952D01*
X126358333Y-36248809D01*
X126310714Y-36439285D01*
X126263095Y-36534523D01*
X126167857Y-36629761D01*
X126025000Y-36677380D01*
X125786904Y-36677380D01*
X127310714Y-36677380D02*
X126739285Y-36677380D01*
X127025000Y-36677380D02*
X127025000Y-35677380D01*
X126929761Y-35820238D01*
X126834523Y-35915476D01*
X126739285Y-35963095D01*
%TO.C,D2*%
X103811904Y-24477380D02*
X103811904Y-23477380D01*
X104050000Y-23477380D01*
X104192857Y-23525000D01*
X104288095Y-23620238D01*
X104335714Y-23715476D01*
X104383333Y-23905952D01*
X104383333Y-24048809D01*
X104335714Y-24239285D01*
X104288095Y-24334523D01*
X104192857Y-24429761D01*
X104050000Y-24477380D01*
X103811904Y-24477380D01*
X104764285Y-23572619D02*
X104811904Y-23525000D01*
X104907142Y-23477380D01*
X105145238Y-23477380D01*
X105240476Y-23525000D01*
X105288095Y-23572619D01*
X105335714Y-23667857D01*
X105335714Y-23763095D01*
X105288095Y-23905952D01*
X104716666Y-24477380D01*
X105335714Y-24477380D01*
%TO.C,D7*%
X92011904Y-4052380D02*
X92011904Y-3052380D01*
X92250000Y-3052380D01*
X92392857Y-3100000D01*
X92488095Y-3195238D01*
X92535714Y-3290476D01*
X92583333Y-3480952D01*
X92583333Y-3623809D01*
X92535714Y-3814285D01*
X92488095Y-3909523D01*
X92392857Y-4004761D01*
X92250000Y-4052380D01*
X92011904Y-4052380D01*
X92916666Y-3052380D02*
X93583333Y-3052380D01*
X93154761Y-4052380D01*
%TO.C,U2*%
X8022380Y-27761904D02*
X8831904Y-27761904D01*
X8927142Y-27714285D01*
X8974761Y-27666666D01*
X9022380Y-27571428D01*
X9022380Y-27380952D01*
X8974761Y-27285714D01*
X8927142Y-27238095D01*
X8831904Y-27190476D01*
X8022380Y-27190476D01*
X8117619Y-26761904D02*
X8070000Y-26714285D01*
X8022380Y-26619047D01*
X8022380Y-26380952D01*
X8070000Y-26285714D01*
X8117619Y-26238095D01*
X8212857Y-26190476D01*
X8308095Y-26190476D01*
X8450952Y-26238095D01*
X9022380Y-26809523D01*
X9022380Y-26190476D01*
D10*
X16040714Y-24442857D02*
X16097857Y-24271428D01*
X16097857Y-23985714D01*
X16040714Y-23871428D01*
X15983571Y-23814285D01*
X15869285Y-23757142D01*
X15755000Y-23757142D01*
X15640714Y-23814285D01*
X15583571Y-23871428D01*
X15526428Y-23985714D01*
X15469285Y-24214285D01*
X15412142Y-24328571D01*
X15355000Y-24385714D01*
X15240714Y-24442857D01*
X15126428Y-24442857D01*
X15012142Y-24385714D01*
X14955000Y-24328571D01*
X14897857Y-24214285D01*
X14897857Y-23928571D01*
X14955000Y-23757142D01*
X15297857Y-23414285D02*
X15297857Y-22957142D01*
X14897857Y-23242857D02*
X15926428Y-23242857D01*
X16040714Y-23185714D01*
X16097857Y-23071428D01*
X16097857Y-22957142D01*
X16040714Y-22100000D02*
X16097857Y-22214285D01*
X16097857Y-22442857D01*
X16040714Y-22557142D01*
X15926428Y-22614285D01*
X15469285Y-22614285D01*
X15355000Y-22557142D01*
X15297857Y-22442857D01*
X15297857Y-22214285D01*
X15355000Y-22100000D01*
X15469285Y-22042857D01*
X15583571Y-22042857D01*
X15697857Y-22614285D01*
X15297857Y-21528571D02*
X16497857Y-21528571D01*
X15355000Y-21528571D02*
X15297857Y-21414285D01*
X15297857Y-21185714D01*
X15355000Y-21071428D01*
X15412142Y-21014285D01*
X15526428Y-20957142D01*
X15869285Y-20957142D01*
X15983571Y-21014285D01*
X16040714Y-21071428D01*
X16097857Y-21185714D01*
X16097857Y-21414285D01*
X16040714Y-21528571D01*
X16040714Y-20500000D02*
X16097857Y-20328571D01*
X16097857Y-20042857D01*
X16040714Y-19928571D01*
X15983571Y-19871428D01*
X15869285Y-19814285D01*
X15755000Y-19814285D01*
X15640714Y-19871428D01*
X15583571Y-19928571D01*
X15526428Y-20042857D01*
X15469285Y-20271428D01*
X15412142Y-20385714D01*
X15355000Y-20442857D01*
X15240714Y-20500000D01*
X15126428Y-20500000D01*
X15012142Y-20442857D01*
X14955000Y-20385714D01*
X14897857Y-20271428D01*
X14897857Y-19985714D01*
X14955000Y-19814285D01*
X15297857Y-19471428D02*
X15297857Y-19014285D01*
X14897857Y-19300000D02*
X15926428Y-19300000D01*
X16040714Y-19242857D01*
X16097857Y-19128571D01*
X16097857Y-19014285D01*
X16097857Y-18614285D02*
X15297857Y-18614285D01*
X14897857Y-18614285D02*
X14955000Y-18671428D01*
X15012142Y-18614285D01*
X14955000Y-18557142D01*
X14897857Y-18614285D01*
X15012142Y-18614285D01*
X16040714Y-17528571D02*
X16097857Y-17642857D01*
X16097857Y-17871428D01*
X16040714Y-17985714D01*
X15983571Y-18042857D01*
X15869285Y-18100000D01*
X15526428Y-18100000D01*
X15412142Y-18042857D01*
X15355000Y-17985714D01*
X15297857Y-17871428D01*
X15297857Y-17642857D01*
X15355000Y-17528571D01*
X16097857Y-17014285D02*
X14897857Y-17014285D01*
X15640714Y-16900000D02*
X16097857Y-16557142D01*
X15297857Y-16557142D02*
X15755000Y-17014285D01*
X23717857Y-22814285D02*
X22517857Y-22814285D01*
X22517857Y-22528571D01*
X22575000Y-22357142D01*
X22689285Y-22242857D01*
X22803571Y-22185714D01*
X23032142Y-22128571D01*
X23203571Y-22128571D01*
X23432142Y-22185714D01*
X23546428Y-22242857D01*
X23660714Y-22357142D01*
X23717857Y-22528571D01*
X23717857Y-22814285D01*
X23717857Y-21614285D02*
X22917857Y-21614285D01*
X23146428Y-21614285D02*
X23032142Y-21557142D01*
X22975000Y-21500000D01*
X22917857Y-21385714D01*
X22917857Y-21271428D01*
X23717857Y-20871428D02*
X22917857Y-20871428D01*
X22517857Y-20871428D02*
X22575000Y-20928571D01*
X22632142Y-20871428D01*
X22575000Y-20814285D01*
X22517857Y-20871428D01*
X22632142Y-20871428D01*
X22917857Y-20414285D02*
X23717857Y-20128571D01*
X22917857Y-19842857D01*
X23660714Y-18928571D02*
X23717857Y-19042857D01*
X23717857Y-19271428D01*
X23660714Y-19385714D01*
X23546428Y-19442857D01*
X23089285Y-19442857D01*
X22975000Y-19385714D01*
X22917857Y-19271428D01*
X22917857Y-19042857D01*
X22975000Y-18928571D01*
X23089285Y-18871428D01*
X23203571Y-18871428D01*
X23317857Y-19442857D01*
X23717857Y-18357142D02*
X22917857Y-18357142D01*
X23146428Y-18357142D02*
X23032142Y-18300000D01*
X22975000Y-18242857D01*
X22917857Y-18128571D01*
X22917857Y-18014285D01*
X18580714Y-22471428D02*
X18637857Y-22300000D01*
X18637857Y-22014285D01*
X18580714Y-21900000D01*
X18523571Y-21842857D01*
X18409285Y-21785714D01*
X18295000Y-21785714D01*
X18180714Y-21842857D01*
X18123571Y-21900000D01*
X18066428Y-22014285D01*
X18009285Y-22242857D01*
X17952142Y-22357142D01*
X17895000Y-22414285D01*
X17780714Y-22471428D01*
X17666428Y-22471428D01*
X17552142Y-22414285D01*
X17495000Y-22357142D01*
X17437857Y-22242857D01*
X17437857Y-21957142D01*
X17495000Y-21785714D01*
X17837857Y-21442857D02*
X17837857Y-20985714D01*
X17437857Y-21271428D02*
X18466428Y-21271428D01*
X18580714Y-21214285D01*
X18637857Y-21100000D01*
X18637857Y-20985714D01*
X17837857Y-20700000D02*
X18637857Y-20414285D01*
X17837857Y-20128571D02*
X18637857Y-20414285D01*
X18923571Y-20528571D01*
X18980714Y-20585714D01*
X19037857Y-20700000D01*
X18637857Y-19500000D02*
X18580714Y-19614285D01*
X18466428Y-19671428D01*
X17437857Y-19671428D01*
X18580714Y-18585714D02*
X18637857Y-18700000D01*
X18637857Y-18928571D01*
X18580714Y-19042857D01*
X18466428Y-19100000D01*
X18009285Y-19100000D01*
X17895000Y-19042857D01*
X17837857Y-18928571D01*
X17837857Y-18700000D01*
X17895000Y-18585714D01*
X18009285Y-18528571D01*
X18123571Y-18528571D01*
X18237857Y-19100000D01*
X21120714Y-23671428D02*
X21177857Y-23500000D01*
X21177857Y-23214285D01*
X21120714Y-23100000D01*
X21063571Y-23042857D01*
X20949285Y-22985714D01*
X20835000Y-22985714D01*
X20720714Y-23042857D01*
X20663571Y-23100000D01*
X20606428Y-23214285D01*
X20549285Y-23442857D01*
X20492142Y-23557142D01*
X20435000Y-23614285D01*
X20320714Y-23671428D01*
X20206428Y-23671428D01*
X20092142Y-23614285D01*
X20035000Y-23557142D01*
X19977857Y-23442857D01*
X19977857Y-23157142D01*
X20035000Y-22985714D01*
X20377857Y-22642857D02*
X20377857Y-22185714D01*
X19977857Y-22471428D02*
X21006428Y-22471428D01*
X21120714Y-22414285D01*
X21177857Y-22300000D01*
X21177857Y-22185714D01*
X21120714Y-21328571D02*
X21177857Y-21442857D01*
X21177857Y-21671428D01*
X21120714Y-21785714D01*
X21006428Y-21842857D01*
X20549285Y-21842857D01*
X20435000Y-21785714D01*
X20377857Y-21671428D01*
X20377857Y-21442857D01*
X20435000Y-21328571D01*
X20549285Y-21271428D01*
X20663571Y-21271428D01*
X20777857Y-21842857D01*
X20377857Y-20757142D02*
X21577857Y-20757142D01*
X20435000Y-20757142D02*
X20377857Y-20642857D01*
X20377857Y-20414285D01*
X20435000Y-20300000D01*
X20492142Y-20242857D01*
X20606428Y-20185714D01*
X20949285Y-20185714D01*
X21063571Y-20242857D01*
X21120714Y-20300000D01*
X21177857Y-20414285D01*
X21177857Y-20642857D01*
X21120714Y-20757142D01*
X20377857Y-19671428D02*
X21577857Y-19671428D01*
X20435000Y-19671428D02*
X20377857Y-19557142D01*
X20377857Y-19328571D01*
X20435000Y-19214285D01*
X20492142Y-19157142D01*
X20606428Y-19100000D01*
X20949285Y-19100000D01*
X21063571Y-19157142D01*
X21120714Y-19214285D01*
X21177857Y-19328571D01*
X21177857Y-19557142D01*
X21120714Y-19671428D01*
X21120714Y-18128571D02*
X21177857Y-18242857D01*
X21177857Y-18471428D01*
X21120714Y-18585714D01*
X21006428Y-18642857D01*
X20549285Y-18642857D01*
X20435000Y-18585714D01*
X20377857Y-18471428D01*
X20377857Y-18242857D01*
X20435000Y-18128571D01*
X20549285Y-18071428D01*
X20663571Y-18071428D01*
X20777857Y-18642857D01*
X21177857Y-17557142D02*
X20377857Y-17557142D01*
X20606428Y-17557142D02*
X20492142Y-17500000D01*
X20435000Y-17442857D01*
X20377857Y-17328571D01*
X20377857Y-17214285D01*
D12*
%TO.C,U1*%
X86782380Y-30761904D02*
X87591904Y-30761904D01*
X87687142Y-30714285D01*
X87734761Y-30666666D01*
X87782380Y-30571428D01*
X87782380Y-30380952D01*
X87734761Y-30285714D01*
X87687142Y-30238095D01*
X87591904Y-30190476D01*
X86782380Y-30190476D01*
X87782380Y-29190476D02*
X87782380Y-29761904D01*
X87782380Y-29476190D02*
X86782380Y-29476190D01*
X86925238Y-29571428D01*
X87020476Y-29666666D01*
X87068095Y-29761904D01*
D10*
X125000000Y-29800000D02*
X124428571Y-29800000D01*
X125114285Y-29457142D02*
X124714285Y-30657142D01*
X124314285Y-29457142D01*
X123400000Y-29457142D02*
X123400000Y-30657142D01*
X123400000Y-29514285D02*
X123514285Y-29457142D01*
X123742857Y-29457142D01*
X123857142Y-29514285D01*
X123914285Y-29571428D01*
X123971428Y-29685714D01*
X123971428Y-30028571D01*
X123914285Y-30142857D01*
X123857142Y-30200000D01*
X123742857Y-30257142D01*
X123514285Y-30257142D01*
X123400000Y-30200000D01*
X122314285Y-29457142D02*
X122314285Y-30085714D01*
X122371428Y-30200000D01*
X122485714Y-30257142D01*
X122714285Y-30257142D01*
X122828571Y-30200000D01*
X122314285Y-29514285D02*
X122428571Y-29457142D01*
X122714285Y-29457142D01*
X122828571Y-29514285D01*
X122885714Y-29628571D01*
X122885714Y-29742857D01*
X122828571Y-29857142D01*
X122714285Y-29914285D01*
X122428571Y-29914285D01*
X122314285Y-29971428D01*
X121914285Y-30257142D02*
X121457142Y-30257142D01*
X121742857Y-29457142D02*
X121742857Y-30485714D01*
X121685714Y-30600000D01*
X121571428Y-30657142D01*
X121457142Y-30657142D01*
X121057142Y-29457142D02*
X121057142Y-30257142D01*
X121057142Y-30028571D02*
X121000000Y-30142857D01*
X120942857Y-30200000D01*
X120828571Y-30257142D01*
X120714285Y-30257142D01*
X119800000Y-30257142D02*
X119800000Y-29457142D01*
X120314285Y-30257142D02*
X120314285Y-29628571D01*
X120257142Y-29514285D01*
X120142857Y-29457142D01*
X119971428Y-29457142D01*
X119857142Y-29514285D01*
X119800000Y-29571428D01*
X119228571Y-29457142D02*
X119228571Y-30257142D01*
X119228571Y-30657142D02*
X119285714Y-30600000D01*
X119228571Y-30542857D01*
X119171428Y-30600000D01*
X119228571Y-30657142D01*
X119228571Y-30542857D01*
X118828571Y-30257142D02*
X118371428Y-30257142D01*
X118657142Y-30657142D02*
X118657142Y-29628571D01*
X118600000Y-29514285D01*
X118485714Y-29457142D01*
X118371428Y-29457142D01*
X116657142Y-30085714D02*
X117057142Y-30085714D01*
X117057142Y-29457142D02*
X117057142Y-30657142D01*
X116485714Y-30657142D01*
X115571428Y-29514285D02*
X115685714Y-29457142D01*
X115914285Y-29457142D01*
X116028571Y-29514285D01*
X116085714Y-29628571D01*
X116085714Y-30085714D01*
X116028571Y-30200000D01*
X115914285Y-30257142D01*
X115685714Y-30257142D01*
X115571428Y-30200000D01*
X115514285Y-30085714D01*
X115514285Y-29971428D01*
X116085714Y-29857142D01*
X114485714Y-29457142D02*
X114485714Y-30085714D01*
X114542857Y-30200000D01*
X114657142Y-30257142D01*
X114885714Y-30257142D01*
X115000000Y-30200000D01*
X114485714Y-29514285D02*
X114600000Y-29457142D01*
X114885714Y-29457142D01*
X115000000Y-29514285D01*
X115057142Y-29628571D01*
X115057142Y-29742857D01*
X115000000Y-29857142D01*
X114885714Y-29914285D01*
X114600000Y-29914285D01*
X114485714Y-29971428D01*
X114085714Y-30257142D02*
X113628571Y-30257142D01*
X113914285Y-30657142D02*
X113914285Y-29628571D01*
X113857142Y-29514285D01*
X113742857Y-29457142D01*
X113628571Y-29457142D01*
X113228571Y-29457142D02*
X113228571Y-30657142D01*
X112714285Y-29457142D02*
X112714285Y-30085714D01*
X112771428Y-30200000D01*
X112885714Y-30257142D01*
X113057142Y-30257142D01*
X113171428Y-30200000D01*
X113228571Y-30142857D01*
X111685714Y-29514285D02*
X111800000Y-29457142D01*
X112028571Y-29457142D01*
X112142857Y-29514285D01*
X112200000Y-29628571D01*
X112200000Y-30085714D01*
X112142857Y-30200000D01*
X112028571Y-30257142D01*
X111800000Y-30257142D01*
X111685714Y-30200000D01*
X111628571Y-30085714D01*
X111628571Y-29971428D01*
X112200000Y-29857142D01*
X111114285Y-29457142D02*
X111114285Y-30257142D01*
X111114285Y-30028571D02*
X111057142Y-30142857D01*
X111000000Y-30200000D01*
X110885714Y-30257142D01*
X110771428Y-30257142D01*
X108771428Y-29457142D02*
X109171428Y-30028571D01*
X109457142Y-29457142D02*
X109457142Y-30657142D01*
X109000000Y-30657142D01*
X108885714Y-30600000D01*
X108828571Y-30542857D01*
X108771428Y-30428571D01*
X108771428Y-30257142D01*
X108828571Y-30142857D01*
X108885714Y-30085714D01*
X109000000Y-30028571D01*
X109457142Y-30028571D01*
X108257142Y-29457142D02*
X108257142Y-30657142D01*
X107800000Y-30657142D01*
X107685714Y-30600000D01*
X107628571Y-30542857D01*
X107571428Y-30428571D01*
X107571428Y-30257142D01*
X107628571Y-30142857D01*
X107685714Y-30085714D01*
X107800000Y-30028571D01*
X108257142Y-30028571D01*
X107114285Y-30542857D02*
X107057142Y-30600000D01*
X106942857Y-30657142D01*
X106657142Y-30657142D01*
X106542857Y-30600000D01*
X106485714Y-30542857D01*
X106428571Y-30428571D01*
X106428571Y-30314285D01*
X106485714Y-30142857D01*
X107171428Y-29457142D01*
X106428571Y-29457142D01*
X105685714Y-30657142D02*
X105571428Y-30657142D01*
X105457142Y-30600000D01*
X105400000Y-30542857D01*
X105342857Y-30428571D01*
X105285714Y-30200000D01*
X105285714Y-29914285D01*
X105342857Y-29685714D01*
X105400000Y-29571428D01*
X105457142Y-29514285D01*
X105571428Y-29457142D01*
X105685714Y-29457142D01*
X105800000Y-29514285D01*
X105857142Y-29571428D01*
X105914285Y-29685714D01*
X105971428Y-29914285D01*
X105971428Y-30200000D01*
X105914285Y-30428571D01*
X105857142Y-30542857D01*
X105800000Y-30600000D01*
X105685714Y-30657142D01*
X104257142Y-30257142D02*
X104257142Y-29457142D01*
X104542857Y-30714285D02*
X104828571Y-29857142D01*
X104085714Y-29857142D01*
X103400000Y-30657142D02*
X103285714Y-30657142D01*
X103171428Y-30600000D01*
X103114285Y-30542857D01*
X103057142Y-30428571D01*
X103000000Y-30200000D01*
X103000000Y-29914285D01*
X103057142Y-29685714D01*
X103114285Y-29571428D01*
X103171428Y-29514285D01*
X103285714Y-29457142D01*
X103400000Y-29457142D01*
X103514285Y-29514285D01*
X103571428Y-29571428D01*
X103628571Y-29685714D01*
X103685714Y-29914285D01*
X103685714Y-30200000D01*
X103628571Y-30428571D01*
X103571428Y-30542857D01*
X103514285Y-30600000D01*
X103400000Y-30657142D01*
D12*
%TO.C,D3*%
X109936904Y-15727380D02*
X109936904Y-14727380D01*
X110175000Y-14727380D01*
X110317857Y-14775000D01*
X110413095Y-14870238D01*
X110460714Y-14965476D01*
X110508333Y-15155952D01*
X110508333Y-15298809D01*
X110460714Y-15489285D01*
X110413095Y-15584523D01*
X110317857Y-15679761D01*
X110175000Y-15727380D01*
X109936904Y-15727380D01*
X110841666Y-14727380D02*
X111460714Y-14727380D01*
X111127380Y-15108333D01*
X111270238Y-15108333D01*
X111365476Y-15155952D01*
X111413095Y-15203571D01*
X111460714Y-15298809D01*
X111460714Y-15536904D01*
X111413095Y-15632142D01*
X111365476Y-15679761D01*
X111270238Y-15727380D01*
X110984523Y-15727380D01*
X110889285Y-15679761D01*
X110841666Y-15632142D01*
%TO.C,J2*%
X118066666Y-1652380D02*
X118066666Y-2366666D01*
X118019047Y-2509523D01*
X117923809Y-2604761D01*
X117780952Y-2652380D01*
X117685714Y-2652380D01*
X118495238Y-1747619D02*
X118542857Y-1700000D01*
X118638095Y-1652380D01*
X118876190Y-1652380D01*
X118971428Y-1700000D01*
X119019047Y-1747619D01*
X119066666Y-1842857D01*
X119066666Y-1938095D01*
X119019047Y-2080952D01*
X118447619Y-2652380D01*
X119066666Y-2652380D01*
%TO.C,SW3*%
X56766666Y-30530761D02*
X56909523Y-30578380D01*
X57147619Y-30578380D01*
X57242857Y-30530761D01*
X57290476Y-30483142D01*
X57338095Y-30387904D01*
X57338095Y-30292666D01*
X57290476Y-30197428D01*
X57242857Y-30149809D01*
X57147619Y-30102190D01*
X56957142Y-30054571D01*
X56861904Y-30006952D01*
X56814285Y-29959333D01*
X56766666Y-29864095D01*
X56766666Y-29768857D01*
X56814285Y-29673619D01*
X56861904Y-29626000D01*
X56957142Y-29578380D01*
X57195238Y-29578380D01*
X57338095Y-29626000D01*
X57671428Y-29578380D02*
X57909523Y-30578380D01*
X58100000Y-29864095D01*
X58290476Y-30578380D01*
X58528571Y-29578380D01*
X58814285Y-29578380D02*
X59433333Y-29578380D01*
X59100000Y-29959333D01*
X59242857Y-29959333D01*
X59338095Y-30006952D01*
X59385714Y-30054571D01*
X59433333Y-30149809D01*
X59433333Y-30387904D01*
X59385714Y-30483142D01*
X59338095Y-30530761D01*
X59242857Y-30578380D01*
X58957142Y-30578380D01*
X58861904Y-30530761D01*
X58814285Y-30483142D01*
%TO.C,D5*%
X92036904Y-10652380D02*
X92036904Y-9652380D01*
X92275000Y-9652380D01*
X92417857Y-9700000D01*
X92513095Y-9795238D01*
X92560714Y-9890476D01*
X92608333Y-10080952D01*
X92608333Y-10223809D01*
X92560714Y-10414285D01*
X92513095Y-10509523D01*
X92417857Y-10604761D01*
X92275000Y-10652380D01*
X92036904Y-10652380D01*
X93513095Y-9652380D02*
X93036904Y-9652380D01*
X92989285Y-10128571D01*
X93036904Y-10080952D01*
X93132142Y-10033333D01*
X93370238Y-10033333D01*
X93465476Y-10080952D01*
X93513095Y-10128571D01*
X93560714Y-10223809D01*
X93560714Y-10461904D01*
X93513095Y-10557142D01*
X93465476Y-10604761D01*
X93370238Y-10652380D01*
X93132142Y-10652380D01*
X93036904Y-10604761D01*
X92989285Y-10557142D01*
%TO.C,SW2*%
X37716666Y-30530761D02*
X37859523Y-30578380D01*
X38097619Y-30578380D01*
X38192857Y-30530761D01*
X38240476Y-30483142D01*
X38288095Y-30387904D01*
X38288095Y-30292666D01*
X38240476Y-30197428D01*
X38192857Y-30149809D01*
X38097619Y-30102190D01*
X37907142Y-30054571D01*
X37811904Y-30006952D01*
X37764285Y-29959333D01*
X37716666Y-29864095D01*
X37716666Y-29768857D01*
X37764285Y-29673619D01*
X37811904Y-29626000D01*
X37907142Y-29578380D01*
X38145238Y-29578380D01*
X38288095Y-29626000D01*
X38621428Y-29578380D02*
X38859523Y-30578380D01*
X39050000Y-29864095D01*
X39240476Y-30578380D01*
X39478571Y-29578380D01*
X39811904Y-29673619D02*
X39859523Y-29626000D01*
X39954761Y-29578380D01*
X40192857Y-29578380D01*
X40288095Y-29626000D01*
X40335714Y-29673619D01*
X40383333Y-29768857D01*
X40383333Y-29864095D01*
X40335714Y-30006952D01*
X39764285Y-30578380D01*
X40383333Y-30578380D01*
%TO.C,D4*%
X92011904Y-7352380D02*
X92011904Y-6352380D01*
X92250000Y-6352380D01*
X92392857Y-6400000D01*
X92488095Y-6495238D01*
X92535714Y-6590476D01*
X92583333Y-6780952D01*
X92583333Y-6923809D01*
X92535714Y-7114285D01*
X92488095Y-7209523D01*
X92392857Y-7304761D01*
X92250000Y-7352380D01*
X92011904Y-7352380D01*
X93440476Y-6685714D02*
X93440476Y-7352380D01*
X93202380Y-6304761D02*
X92964285Y-7019047D01*
X93583333Y-7019047D01*
D13*
%TO.C,F1*%
X120430000Y-5920000D02*
X131170000Y-5920000D01*
X120430000Y-680000D02*
X120430000Y-5920000D01*
X120430000Y-680000D02*
X131170000Y-680000D01*
X131170000Y-680000D02*
X131170000Y-5920000D01*
%TO.C,C3*%
X8740000Y-19738349D02*
X6040000Y-19738349D01*
X3960000Y-18898349D02*
X998000Y-18898349D01*
X6813000Y-21778349D02*
X3187000Y-21778349D01*
X8774000Y-19658349D02*
X6040000Y-19658349D01*
X3960000Y-19058349D02*
X1033000Y-19058349D01*
X8562000Y-20098349D02*
X6040000Y-20098349D01*
X3960000Y-19258349D02*
X1086000Y-19258349D01*
X3960000Y-20578349D02*
X1750000Y-20578349D01*
X9071000Y-18377349D02*
X929000Y-18377349D01*
X6229000Y-22018349D02*
X3771000Y-22018349D01*
X9076000Y-18297349D02*
X924000Y-18297349D01*
X7454000Y-21378349D02*
X2546000Y-21378349D01*
X9079000Y-18217349D02*
X921000Y-18217349D01*
X3960000Y-20418349D02*
X1635000Y-20418349D01*
X8220000Y-20618349D02*
X6040000Y-20618349D01*
X3960000Y-19178349D02*
X1064000Y-19178349D01*
X9024000Y-18777349D02*
X976000Y-18777349D01*
X3960000Y-20618349D02*
X1780000Y-20618349D01*
X9074000Y-18337349D02*
X926000Y-18337349D01*
X8850000Y-19458349D02*
X6040000Y-19458349D01*
X8019000Y-20858349D02*
X6040000Y-20858349D01*
X8584000Y-20058349D02*
X6040000Y-20058349D01*
X8365000Y-20418349D02*
X6040000Y-20418349D01*
X3960000Y-20698349D02*
X1844000Y-20698349D01*
X8540000Y-20138349D02*
X6040000Y-20138349D01*
X8156000Y-20698349D02*
X6040000Y-20698349D01*
X3960000Y-19898349D02*
X1334000Y-19898349D01*
X8517000Y-20178349D02*
X6040000Y-20178349D01*
X9080000Y-18177349D02*
X920000Y-18177349D01*
X8704000Y-19818349D02*
X6040000Y-19818349D01*
X3960000Y-20538349D02*
X1720000Y-20538349D01*
X8250000Y-20578349D02*
X6040000Y-20578349D01*
X9030000Y-18737349D02*
X970000Y-18737349D01*
X9080000Y-18137349D02*
X920000Y-18137349D01*
X8418000Y-20338349D02*
X6040000Y-20338349D01*
X8863000Y-19418349D02*
X6040000Y-19418349D01*
X7315000Y-13687651D02*
X7315000Y-14487651D01*
X8309000Y-20498349D02*
X6040000Y-20498349D01*
X7228000Y-21538349D02*
X2772000Y-21538349D01*
X8947000Y-19138349D02*
X6040000Y-19138349D01*
X9052000Y-18577349D02*
X948000Y-18577349D01*
X3960000Y-19418349D02*
X1137000Y-19418349D01*
X7983000Y-20898349D02*
X2017000Y-20898349D01*
X3960000Y-20218349D02*
X1507000Y-20218349D01*
X8469000Y-20258349D02*
X6040000Y-20258349D01*
X8914000Y-19258349D02*
X6040000Y-19258349D01*
X7867000Y-21018349D02*
X2133000Y-21018349D01*
X9042000Y-18657349D02*
X958000Y-18657349D01*
X8444000Y-20298349D02*
X6040000Y-20298349D01*
X3960000Y-19378349D02*
X1123000Y-19378349D01*
X9010000Y-18858349D02*
X6040000Y-18858349D01*
X3960000Y-19218349D02*
X1075000Y-19218349D01*
X8090000Y-20778349D02*
X6040000Y-20778349D01*
X6453000Y-21938349D02*
X3547000Y-21938349D01*
X8957000Y-19098349D02*
X6040000Y-19098349D01*
X9061000Y-18497349D02*
X939000Y-18497349D01*
X6098000Y-22058349D02*
X3902000Y-22058349D01*
X9048000Y-18617349D02*
X952000Y-18617349D01*
X6964000Y-21698349D02*
X3036000Y-21698349D01*
X8821000Y-19538349D02*
X6040000Y-19538349D01*
X8647000Y-19938349D02*
X6040000Y-19938349D01*
X9037000Y-18697349D02*
X963000Y-18697349D01*
X3960000Y-20178349D02*
X1483000Y-20178349D01*
X6645000Y-21858349D02*
X3355000Y-21858349D01*
X8889000Y-19338349D02*
X6040000Y-19338349D01*
X3960000Y-19458349D02*
X1150000Y-19458349D01*
X3960000Y-20818349D02*
X1945000Y-20818349D01*
X7945000Y-20938349D02*
X2055000Y-20938349D01*
X7741000Y-21138349D02*
X2259000Y-21138349D01*
X7505000Y-21338349D02*
X2495000Y-21338349D01*
X3960000Y-20018349D02*
X1394000Y-20018349D01*
X9068000Y-18417349D02*
X932000Y-18417349D01*
X8835000Y-19498349D02*
X6040000Y-19498349D01*
X3960000Y-20458349D02*
X1662000Y-20458349D01*
X9080000Y-18097349D02*
X920000Y-18097349D01*
X3960000Y-20138349D02*
X1460000Y-20138349D01*
X7400000Y-21418349D02*
X2600000Y-21418349D01*
X3960000Y-20738349D02*
X1876000Y-20738349D01*
X7166000Y-21578349D02*
X2834000Y-21578349D01*
X8493000Y-20218349D02*
X6040000Y-20218349D01*
X8189000Y-20658349D02*
X6040000Y-20658349D01*
X7715000Y-14087651D02*
X6915000Y-14087651D01*
X8967000Y-19058349D02*
X6040000Y-19058349D01*
X3960000Y-19578349D02*
X1195000Y-19578349D01*
X3960000Y-18858349D02*
X990000Y-18858349D01*
X8338000Y-20458349D02*
X6040000Y-20458349D01*
X3960000Y-20338349D02*
X1582000Y-20338349D01*
X9057000Y-18537349D02*
X943000Y-18537349D01*
X3960000Y-18938349D02*
X1006000Y-18938349D01*
X8606000Y-20018349D02*
X6040000Y-20018349D01*
X3960000Y-19858349D02*
X1314000Y-19858349D01*
X9077000Y-18257349D02*
X923000Y-18257349D01*
X8994000Y-18938349D02*
X6040000Y-18938349D01*
X3960000Y-19978349D02*
X1373000Y-19978349D01*
X8985000Y-18978349D02*
X6040000Y-18978349D01*
X3960000Y-19098349D02*
X1043000Y-19098349D01*
X8976000Y-19018349D02*
X6040000Y-19018349D01*
X8925000Y-19218349D02*
X6040000Y-19218349D01*
X6346000Y-21978349D02*
X3654000Y-21978349D01*
X3960000Y-20258349D02*
X1531000Y-20258349D01*
X6890000Y-21738349D02*
X3110000Y-21738349D01*
X7784000Y-21098349D02*
X2216000Y-21098349D01*
X8877000Y-19378349D02*
X6040000Y-19378349D01*
X8627000Y-19978349D02*
X6040000Y-19978349D01*
X8757000Y-19698349D02*
X6040000Y-19698349D01*
X9002000Y-18898349D02*
X6040000Y-18898349D01*
X7034000Y-21658349D02*
X2966000Y-21658349D01*
X3960000Y-19698349D02*
X1243000Y-19698349D01*
X8722000Y-19778349D02*
X6040000Y-19778349D01*
X3960000Y-19538349D02*
X1179000Y-19538349D01*
X3960000Y-19498349D02*
X1165000Y-19498349D01*
X9017000Y-18818349D02*
X6040000Y-18818349D01*
X5948000Y-22098349D02*
X4052000Y-22098349D01*
X3960000Y-19938349D02*
X1353000Y-19938349D01*
X6731000Y-21818349D02*
X3269000Y-21818349D01*
X3960000Y-19338349D02*
X1111000Y-19338349D01*
X3960000Y-20378349D02*
X1608000Y-20378349D01*
X3960000Y-19738349D02*
X1260000Y-19738349D01*
X7697000Y-21178349D02*
X2303000Y-21178349D01*
X7287000Y-21498349D02*
X2713000Y-21498349D01*
X6552000Y-21898349D02*
X3448000Y-21898349D01*
X8124000Y-20738349D02*
X6040000Y-20738349D01*
X7907000Y-20978349D02*
X2093000Y-20978349D01*
X8392000Y-20378349D02*
X6040000Y-20378349D01*
X3960000Y-19138349D02*
X1053000Y-19138349D01*
X8280000Y-20538349D02*
X6040000Y-20538349D01*
X3960000Y-20058349D02*
X1416000Y-20058349D01*
X3960000Y-20658349D02*
X1811000Y-20658349D01*
X5768000Y-22138349D02*
X4232000Y-22138349D01*
X3960000Y-19818349D02*
X1296000Y-19818349D01*
X3960000Y-19298349D02*
X1098000Y-19298349D01*
X8805000Y-19578349D02*
X6040000Y-19578349D01*
X8936000Y-19178349D02*
X6040000Y-19178349D01*
X3960000Y-20858349D02*
X1981000Y-20858349D01*
X3960000Y-18978349D02*
X1015000Y-18978349D01*
X3960000Y-19618349D02*
X1210000Y-19618349D01*
X7604000Y-21258349D02*
X2396000Y-21258349D01*
X7826000Y-21058349D02*
X2174000Y-21058349D01*
X7345000Y-21458349D02*
X2655000Y-21458349D01*
X7651000Y-21218349D02*
X2349000Y-21218349D01*
X7556000Y-21298349D02*
X2444000Y-21298349D01*
X8790000Y-19618349D02*
X6040000Y-19618349D01*
X5533000Y-22178349D02*
X4467000Y-22178349D01*
X3960000Y-19018349D02*
X1024000Y-19018349D01*
X9065000Y-18457349D02*
X935000Y-18457349D01*
X7102000Y-21618349D02*
X2898000Y-21618349D01*
X8666000Y-19898349D02*
X6040000Y-19898349D01*
X8055000Y-20818349D02*
X6040000Y-20818349D01*
X3960000Y-19658349D02*
X1226000Y-19658349D01*
X8902000Y-19298349D02*
X6040000Y-19298349D01*
X3960000Y-20778349D02*
X1910000Y-20778349D01*
X3960000Y-20298349D02*
X1556000Y-20298349D01*
X8686000Y-19858349D02*
X6040000Y-19858349D01*
X3960000Y-19778349D02*
X1278000Y-19778349D01*
X3960000Y-18818349D02*
X983000Y-18818349D01*
X3960000Y-20098349D02*
X1438000Y-20098349D01*
X3960000Y-20498349D02*
X1691000Y-20498349D01*
X9120000Y-18097349D02*
G75*
G03*
X9120000Y-18097349I-4120000J0D01*
G01*
%TO.C,SW4*%
X70165000Y-44985000D02*
X70165000Y-31015000D01*
X84135000Y-31015000D02*
X84135000Y-44985000D01*
X70165000Y-31015000D02*
X84135000Y-31015000D01*
X84135000Y-44985000D02*
X70165000Y-44985000D01*
%TO.C,J8*%
X10440000Y-44000D02*
X30561000Y-44000D01*
X10440000Y-9965000D02*
X30561000Y-9965000D01*
X10440000Y-7905000D02*
X30561000Y-7905000D01*
X24070000Y-4030000D02*
X24035000Y-4066000D01*
X19070000Y-4030000D02*
X19035000Y-4066000D01*
X26773000Y-6328000D02*
X26726000Y-6374000D01*
X10440000Y-44000D02*
X10440000Y-9965000D01*
X29070000Y-4030000D02*
X29035000Y-4066000D01*
X21773000Y-6328000D02*
X21726000Y-6374000D01*
X30561000Y-44000D02*
X30561000Y-9965000D01*
X19275000Y-4236000D02*
X19228000Y-4282000D01*
X10200000Y-9465000D02*
X10200000Y-10205000D01*
X26966000Y-6544000D02*
X26931000Y-6579000D01*
X10440000Y-9405000D02*
X30561000Y-9405000D01*
X24275000Y-4236000D02*
X24228000Y-4282000D01*
X21966000Y-6544000D02*
X21931000Y-6579000D01*
X29275000Y-4236000D02*
X29228000Y-4282000D01*
X16966000Y-6544000D02*
X16931000Y-6579000D01*
X10440000Y-3004000D02*
X30561000Y-3004000D01*
X16773000Y-6328000D02*
X16726000Y-6374000D01*
X10200000Y-10205000D02*
X10700000Y-10205000D01*
X13684000Y-3770000D02*
G75*
G03*
X12316958Y-3769573I-684001J-1534993D01*
G01*
X12316000Y-6840000D02*
G75*
G03*
X13028805Y-6985253I683999J1535001D01*
G01*
X13000000Y-6985000D02*
G75*
G03*
X13683318Y-6839756I1J1679992D01*
G01*
X14535000Y-5989000D02*
G75*
G03*
X14535427Y-4621958I-1534993J684001D01*
G01*
X11465000Y-4621000D02*
G75*
G03*
X11464573Y-5988042I1534993J-684001D01*
G01*
X19680000Y-5305000D02*
G75*
G03*
X19680000Y-5305000I-1680000J0D01*
G01*
X24680000Y-5305000D02*
G75*
G03*
X24680000Y-5305000I-1680000J0D01*
G01*
X29680000Y-5305000D02*
G75*
G03*
X29680000Y-5305000I-1680000J0D01*
G01*
%TO.C,D6*%
X95870000Y-15070000D02*
X90430000Y-15070000D01*
X90430000Y-15070000D02*
X90430000Y-14940000D01*
X94970000Y-15070000D02*
X94970000Y-12130000D01*
X95090000Y-15070000D02*
X95090000Y-12130000D01*
X90430000Y-12130000D02*
X90430000Y-12260000D01*
X95870000Y-12130000D02*
X90430000Y-12130000D01*
X94850000Y-15070000D02*
X94850000Y-12130000D01*
X95870000Y-14940000D02*
X95870000Y-15070000D01*
X95870000Y-12260000D02*
X95870000Y-12130000D01*
%TO.C,J3*%
X119080000Y-21050000D02*
X124220000Y-21050000D01*
X116480000Y-22380000D02*
X116480000Y-21050000D01*
X119080000Y-23710000D02*
X119080000Y-21050000D01*
X116480000Y-21050000D02*
X117810000Y-21050000D01*
X124220000Y-23710000D02*
X124220000Y-21050000D01*
X119080000Y-23710000D02*
X124220000Y-23710000D01*
%TO.C,J1*%
X131250000Y-8657500D02*
X140050000Y-8657500D01*
X125350000Y-8657500D02*
X127250000Y-8657500D01*
X126200000Y-18057500D02*
X125150000Y-18057500D01*
X140050000Y-8657500D02*
X140050000Y-17857500D01*
X140050000Y-17857500D02*
X125350000Y-17857500D01*
X125150000Y-17007500D02*
X125150000Y-18057500D01*
X125350000Y-11357500D02*
X125350000Y-8657500D01*
X125350000Y-17857500D02*
X125350000Y-15257500D01*
%TO.C,SW1*%
X13015000Y-31015000D02*
X26985000Y-31015000D01*
X26985000Y-44985000D02*
X13015000Y-44985000D01*
X26985000Y-31015000D02*
X26985000Y-44985000D01*
X13015000Y-44985000D02*
X13015000Y-31015000D01*
%TO.C,D1*%
X128855000Y-37695000D02*
X128855000Y-34755000D01*
X128615000Y-37695000D02*
X128615000Y-34755000D01*
X129635000Y-34885000D02*
X129635000Y-34755000D01*
X129635000Y-34755000D02*
X124195000Y-34755000D01*
X124195000Y-37695000D02*
X124195000Y-37565000D01*
X124195000Y-34755000D02*
X124195000Y-34885000D01*
X128735000Y-37695000D02*
X128735000Y-34755000D01*
X129635000Y-37695000D02*
X124195000Y-37695000D01*
X129635000Y-37565000D02*
X129635000Y-37695000D01*
%TO.C,D2*%
X107660000Y-25365000D02*
X107660000Y-25495000D01*
X106760000Y-25495000D02*
X106760000Y-22555000D01*
X106880000Y-25495000D02*
X106880000Y-22555000D01*
X107660000Y-22555000D02*
X102220000Y-22555000D01*
X102220000Y-22555000D02*
X102220000Y-22685000D01*
X102220000Y-25495000D02*
X102220000Y-25365000D01*
X106640000Y-25495000D02*
X106640000Y-22555000D01*
X107660000Y-25495000D02*
X102220000Y-25495000D01*
X107660000Y-22685000D02*
X107660000Y-22555000D01*
%TO.C,D7*%
X95860000Y-4940000D02*
X95860000Y-5070000D01*
X95860000Y-2260000D02*
X95860000Y-2130000D01*
X95860000Y-2130000D02*
X90420000Y-2130000D01*
X94960000Y-5070000D02*
X94960000Y-2130000D01*
X95080000Y-5070000D02*
X95080000Y-2130000D01*
X90420000Y-5070000D02*
X90420000Y-4940000D01*
X95860000Y-5070000D02*
X90420000Y-5070000D01*
X90420000Y-2130000D02*
X90420000Y-2260000D01*
X94840000Y-5070000D02*
X94840000Y-2130000D01*
%TO.C,U2*%
X30160000Y-12880000D02*
X9840000Y-12880000D01*
X30160000Y-28120000D02*
X30160000Y-12880000D01*
X9840000Y-12880000D02*
X9840000Y-28120000D01*
X9840000Y-28120000D02*
X30160000Y-28120000D01*
%TO.C,U1*%
X88600000Y-18570000D02*
X139400000Y-18570000D01*
X88600000Y-41430000D02*
X88600000Y-18570000D01*
X132700000Y-25400000D02*
X140500000Y-25400000D01*
X132700000Y-34600000D02*
X140500000Y-34600000D01*
X139400000Y-41430000D02*
X88600000Y-41430000D01*
X140500000Y-34600000D02*
X140500000Y-25400000D01*
X132700000Y-34600000D02*
X132700000Y-25400000D01*
X139400000Y-18570000D02*
X139400000Y-41430000D01*
%TO.C,D3*%
X113770000Y-16615000D02*
X113770000Y-16745000D01*
X112990000Y-16745000D02*
X112990000Y-13805000D01*
X112750000Y-16745000D02*
X112750000Y-13805000D01*
X108330000Y-13805000D02*
X108330000Y-13935000D01*
X113770000Y-13935000D02*
X113770000Y-13805000D01*
X113770000Y-16745000D02*
X108330000Y-16745000D01*
X113770000Y-13805000D02*
X108330000Y-13805000D01*
X108330000Y-16745000D02*
X108330000Y-16615000D01*
X112870000Y-16745000D02*
X112870000Y-13805000D01*
D11*
%TO.C,J2*%
X106750000Y-12250000D02*
X106750000Y-10750000D01*
X98750000Y-12250000D02*
X106750000Y-12250000D01*
X118000000Y-4750000D02*
X118000000Y-10750000D01*
X100000000Y-4750000D02*
X118000000Y-4750000D01*
X118000000Y-10750000D02*
X111250000Y-10750000D01*
X98750000Y-3250000D02*
X98750000Y-12250000D01*
X119250000Y-3250000D02*
X119250000Y-12250000D01*
X100000000Y-10750000D02*
X106750000Y-10750000D01*
X119250000Y-12250000D02*
X111250000Y-12250000D01*
X98750000Y-3250000D02*
X119250000Y-3250000D01*
X111250000Y-12250000D02*
X111250000Y-10750000D01*
X100000000Y-4750000D02*
X100000000Y-10750000D01*
D14*
X105190000Y-14100000D02*
X102650000Y-14100000D01*
X102650000Y-14100000D02*
X103920000Y-12830000D01*
X103920000Y-12830000D02*
X105190000Y-14100000D01*
G36*
X105190000Y-14100000D02*
G01*
X102650000Y-14100000D01*
X103920000Y-12830000D01*
X105190000Y-14100000D01*
G37*
X105190000Y-14100000D02*
X102650000Y-14100000D01*
X103920000Y-12830000D01*
X105190000Y-14100000D01*
D13*
%TO.C,SW3*%
X65085000Y-31015000D02*
X65085000Y-44985000D01*
X51115000Y-44985000D02*
X51115000Y-31015000D01*
X65085000Y-44985000D02*
X51115000Y-44985000D01*
X51115000Y-31015000D02*
X65085000Y-31015000D01*
%TO.C,D5*%
X95870000Y-11540000D02*
X95870000Y-11670000D01*
X95870000Y-11670000D02*
X90430000Y-11670000D01*
X95870000Y-8730000D02*
X90430000Y-8730000D01*
X95090000Y-11670000D02*
X95090000Y-8730000D01*
X90430000Y-11670000D02*
X90430000Y-11540000D01*
X94850000Y-11670000D02*
X94850000Y-8730000D01*
X94970000Y-11670000D02*
X94970000Y-8730000D01*
X90430000Y-8730000D02*
X90430000Y-8860000D01*
X95870000Y-8860000D02*
X95870000Y-8730000D01*
%TO.C,SW2*%
X46035000Y-31015000D02*
X46035000Y-44985000D01*
X32065000Y-44985000D02*
X32065000Y-31015000D01*
X46035000Y-44985000D02*
X32065000Y-44985000D01*
X32065000Y-31015000D02*
X46035000Y-31015000D01*
%TO.C,D4*%
X94970000Y-8370000D02*
X94970000Y-5430000D01*
X95870000Y-5430000D02*
X90430000Y-5430000D01*
X95090000Y-8370000D02*
X95090000Y-5430000D01*
X94850000Y-8370000D02*
X94850000Y-5430000D01*
X90430000Y-5430000D02*
X90430000Y-5560000D01*
X95870000Y-8240000D02*
X95870000Y-8370000D01*
X95870000Y-8370000D02*
X90430000Y-8370000D01*
X90430000Y-8370000D02*
X90430000Y-8240000D01*
X95870000Y-5560000D02*
X95870000Y-5430000D01*
%TD*%
M02*
