M48
; DRILL file {KiCad (6.0.0)} date Sun Jan  9 22:19:25 2022
; FORMAT={-:-/ absolute / metric / decimal}
; #@! TF.CreationDate,2022-01-09T22:19:25-05:00
; #@! TF.GenerationSoftware,Kicad,Pcbnew,(6.0.0)
; #@! TF.FileFunction,Plated,1,2,PTH
FMAT,2
METRIC
; #@! TA.AperFunction,Plated,PTH,ViaDrill
T1C0.400
; #@! TA.AperFunction,Plated,PTH,ComponentDrill
T2C0.800
; #@! TA.AperFunction,Plated,PTH,ComponentDrill
T3C1.000
; #@! TA.AperFunction,Plated,PTH,ComponentDrill
T4C1.100
; #@! TA.AperFunction,Plated,PTH,ComponentDrill
T5C1.300
; #@! TA.AperFunction,Plated,PTH,ComponentDrill
T6C1.500
; #@! TA.AperFunction,Plated,PTH,ComponentDrill
T7C3.200
%
G90
G05
T1
X15.6Y-3.6
X25.4Y-3.6
X31.8Y-30.8
X34.6Y-25.0
X99.3Y-7.7
X103.9Y-20.9
T2
X5.0Y-16.347
X5.0Y-19.847
T3
X11.11Y-14.15
X11.11Y-21.77
X11.11Y-24.31
X11.11Y-26.85
X13.65Y-14.15
X13.65Y-26.85
X16.19Y-14.15
X16.19Y-26.85
X18.73Y-14.15
X18.73Y-26.85
X21.27Y-14.15
X21.27Y-26.85
X23.81Y-14.15
X23.81Y-26.85
X26.35Y-14.15
X26.35Y-26.85
X28.89Y-14.15
X28.89Y-26.85
X94.95Y-19.84
X94.95Y-22.38
X94.95Y-37.62
X94.95Y-40.16
X97.49Y-19.84
X97.49Y-22.38
X97.49Y-37.62
X97.49Y-40.16
X100.03Y-19.84
X100.03Y-37.62
X100.03Y-40.16
X102.57Y-19.84
X102.57Y-40.16
X103.92Y-6.48
X103.92Y-9.02
X105.11Y-19.84
X105.11Y-40.16
X106.46Y-6.48
X106.46Y-9.02
X107.65Y-19.84
X107.65Y-40.16
X109.0Y-6.48
X109.0Y-9.02
X110.19Y-19.84
X110.19Y-40.16
X111.54Y-6.48
X111.54Y-9.02
X112.73Y-19.84
X112.73Y-40.16
X114.08Y-6.48
X114.08Y-9.02
X115.27Y-19.84
X115.27Y-40.16
X117.81Y-19.84
X117.81Y-22.38
X117.81Y-40.16
X120.35Y-19.84
X120.35Y-22.38
X120.35Y-40.16
X122.89Y-19.84
X122.89Y-22.38
X122.89Y-40.16
X123.3Y-3.3
X125.43Y-19.84
X127.97Y-19.84
X128.3Y-3.3
X130.51Y-19.84
X133.05Y-19.84
T4
X89.33Y-3.6
X89.34Y-6.9
X89.34Y-10.2
X89.34Y-13.6
X96.95Y-3.6
X96.96Y-6.9
X96.96Y-10.2
X96.96Y-13.6
X101.13Y-24.025
X107.24Y-15.275
X108.75Y-24.025
X114.86Y-15.275
X123.105Y-36.225
X130.725Y-36.225
T5
X13.0Y-5.305
X18.0Y-5.305
X23.0Y-5.305
X28.0Y-5.305
T6
X16.19Y-35.46
X22.54Y-32.92
X35.24Y-35.46
X41.59Y-32.92
X54.29Y-35.46
X60.64Y-32.92
X73.34Y-35.46
X79.69Y-32.92
T7
X135.0Y-45.0
T3
G00X126.25Y-14.257
M15
G01X126.25Y-12.258
M16
G05
G00X130.25Y-8.557
M15
G01X128.25Y-8.557
M16
G05
G00X132.25Y-14.257
M15
G01X132.25Y-12.258
M16
G05
T0
M30
