%TF.GenerationSoftware,KiCad,Pcbnew,(6.0.0)*%
%TF.CreationDate,2022-01-09T22:19:22-05:00*%
%TF.ProjectId,Main-board-FeatherRP2040,4d61696e-2d62-46f6-9172-642d46656174,rev?*%
%TF.SameCoordinates,Original*%
%TF.FileFunction,AssemblyDrawing,Top*%
%FSLAX46Y46*%
G04 Gerber Fmt 4.6, Leading zero omitted, Abs format (unit mm)*
G04 Created by KiCad (PCBNEW (6.0.0)) date 2022-01-09 22:19:22*
%MOMM*%
%LPD*%
G01*
G04 APERTURE LIST*
%ADD10C,0.150000*%
%ADD11C,0.100000*%
G04 APERTURE END LIST*
D10*
%TO.C,F1*%
X125466666Y-3228571D02*
X125133333Y-3228571D01*
X125133333Y-3752380D02*
X125133333Y-2752380D01*
X125609523Y-2752380D01*
X126514285Y-3752380D02*
X125942857Y-3752380D01*
X126228571Y-3752380D02*
X126228571Y-2752380D01*
X126133333Y-2895238D01*
X126038095Y-2990476D01*
X125942857Y-3038095D01*
%TO.C,H1*%
X134538095Y-45452380D02*
X134538095Y-44452380D01*
X134538095Y-44928571D02*
X135109523Y-44928571D01*
X135109523Y-45452380D02*
X135109523Y-44452380D01*
X136109523Y-45452380D02*
X135538095Y-45452380D01*
X135823809Y-45452380D02*
X135823809Y-44452380D01*
X135728571Y-44595238D01*
X135633333Y-44690476D01*
X135538095Y-44738095D01*
%TO.C,C3*%
X5357142Y-18264015D02*
X5404761Y-18311634D01*
X5452380Y-18454491D01*
X5452380Y-18549729D01*
X5404761Y-18692587D01*
X5309523Y-18787825D01*
X5214285Y-18835444D01*
X5023809Y-18883063D01*
X4880952Y-18883063D01*
X4690476Y-18835444D01*
X4595238Y-18787825D01*
X4500000Y-18692587D01*
X4452380Y-18549729D01*
X4452380Y-18454491D01*
X4500000Y-18311634D01*
X4547619Y-18264015D01*
X4452380Y-17930682D02*
X4452380Y-17311634D01*
X4833333Y-17644968D01*
X4833333Y-17502110D01*
X4880952Y-17406872D01*
X4928571Y-17359253D01*
X5023809Y-17311634D01*
X5261904Y-17311634D01*
X5357142Y-17359253D01*
X5404761Y-17406872D01*
X5452380Y-17502110D01*
X5452380Y-17787825D01*
X5404761Y-17883063D01*
X5357142Y-17930682D01*
%TO.C,SW4*%
X75816666Y-30530761D02*
X75959523Y-30578380D01*
X76197619Y-30578380D01*
X76292857Y-30530761D01*
X76340476Y-30483142D01*
X76388095Y-30387904D01*
X76388095Y-30292666D01*
X76340476Y-30197428D01*
X76292857Y-30149809D01*
X76197619Y-30102190D01*
X76007142Y-30054571D01*
X75911904Y-30006952D01*
X75864285Y-29959333D01*
X75816666Y-29864095D01*
X75816666Y-29768857D01*
X75864285Y-29673619D01*
X75911904Y-29626000D01*
X76007142Y-29578380D01*
X76245238Y-29578380D01*
X76388095Y-29626000D01*
X76721428Y-29578380D02*
X76959523Y-30578380D01*
X77150000Y-29864095D01*
X77340476Y-30578380D01*
X77578571Y-29578380D01*
X78388095Y-29911714D02*
X78388095Y-30578380D01*
X78150000Y-29530761D02*
X77911904Y-30245047D01*
X78530952Y-30245047D01*
%TO.C,J8*%
X20166666Y-7957380D02*
X20166666Y-8671666D01*
X20119047Y-8814523D01*
X20023809Y-8909761D01*
X19880952Y-8957380D01*
X19785714Y-8957380D01*
X20785714Y-8385952D02*
X20690476Y-8338333D01*
X20642857Y-8290714D01*
X20595238Y-8195476D01*
X20595238Y-8147857D01*
X20642857Y-8052619D01*
X20690476Y-8005000D01*
X20785714Y-7957380D01*
X20976190Y-7957380D01*
X21071428Y-8005000D01*
X21119047Y-8052619D01*
X21166666Y-8147857D01*
X21166666Y-8195476D01*
X21119047Y-8290714D01*
X21071428Y-8338333D01*
X20976190Y-8385952D01*
X20785714Y-8385952D01*
X20690476Y-8433571D01*
X20642857Y-8481190D01*
X20595238Y-8576428D01*
X20595238Y-8766904D01*
X20642857Y-8862142D01*
X20690476Y-8909761D01*
X20785714Y-8957380D01*
X20976190Y-8957380D01*
X21071428Y-8909761D01*
X21119047Y-8862142D01*
X21166666Y-8766904D01*
X21166666Y-8576428D01*
X21119047Y-8481190D01*
X21071428Y-8433571D01*
X20976190Y-8385952D01*
%TO.C,D6*%
X96698095Y-16152380D02*
X96698095Y-15152380D01*
X97269523Y-16152380D02*
X96840952Y-15580952D01*
X97269523Y-15152380D02*
X96698095Y-15723809D01*
X92021904Y-14052380D02*
X92021904Y-13052380D01*
X92260000Y-13052380D01*
X92402857Y-13100000D01*
X92498095Y-13195238D01*
X92545714Y-13290476D01*
X92593333Y-13480952D01*
X92593333Y-13623809D01*
X92545714Y-13814285D01*
X92498095Y-13909523D01*
X92402857Y-14004761D01*
X92260000Y-14052380D01*
X92021904Y-14052380D01*
X93450476Y-13052380D02*
X93260000Y-13052380D01*
X93164761Y-13100000D01*
X93117142Y-13147619D01*
X93021904Y-13290476D01*
X92974285Y-13480952D01*
X92974285Y-13861904D01*
X93021904Y-13957142D01*
X93069523Y-14004761D01*
X93164761Y-14052380D01*
X93355238Y-14052380D01*
X93450476Y-14004761D01*
X93498095Y-13957142D01*
X93545714Y-13861904D01*
X93545714Y-13623809D01*
X93498095Y-13528571D01*
X93450476Y-13480952D01*
X93355238Y-13433333D01*
X93164761Y-13433333D01*
X93069523Y-13480952D01*
X93021904Y-13528571D01*
X92974285Y-13623809D01*
%TO.C,H4*%
X-4071904Y-3372380D02*
X-4071904Y-2372380D01*
X-4071904Y-2848571D02*
X-3500476Y-2848571D01*
X-3500476Y-3372380D02*
X-3500476Y-2372380D01*
X-2595714Y-2705714D02*
X-2595714Y-3372380D01*
X-2833809Y-2324761D02*
X-3071904Y-3039047D01*
X-2452857Y-3039047D01*
%TO.C,J3*%
X120016666Y-21832380D02*
X120016666Y-22546666D01*
X119969047Y-22689523D01*
X119873809Y-22784761D01*
X119730952Y-22832380D01*
X119635714Y-22832380D01*
X120397619Y-21832380D02*
X121016666Y-21832380D01*
X120683333Y-22213333D01*
X120826190Y-22213333D01*
X120921428Y-22260952D01*
X120969047Y-22308571D01*
X121016666Y-22403809D01*
X121016666Y-22641904D01*
X120969047Y-22737142D01*
X120921428Y-22784761D01*
X120826190Y-22832380D01*
X120540476Y-22832380D01*
X120445238Y-22784761D01*
X120397619Y-22737142D01*
%TO.C,H2*%
X134538095Y-5452380D02*
X134538095Y-4452380D01*
X134538095Y-4928571D02*
X135109523Y-4928571D01*
X135109523Y-5452380D02*
X135109523Y-4452380D01*
X135538095Y-4547619D02*
X135585714Y-4500000D01*
X135680952Y-4452380D01*
X135919047Y-4452380D01*
X136014285Y-4500000D01*
X136061904Y-4547619D01*
X136109523Y-4642857D01*
X136109523Y-4738095D01*
X136061904Y-4880952D01*
X135490476Y-5452380D01*
X136109523Y-5452380D01*
%TO.C,J1*%
X150108849Y-42878660D02*
X150108849Y-43592946D01*
X150061230Y-43735803D01*
X149965992Y-43831041D01*
X149823135Y-43878660D01*
X149727897Y-43878660D01*
X151108849Y-43878660D02*
X150537421Y-43878660D01*
X150823135Y-43878660D02*
X150823135Y-42878660D01*
X150727897Y-43021518D01*
X150632659Y-43116756D01*
X150537421Y-43164375D01*
%TO.C,SW1*%
X18666666Y-30530761D02*
X18809523Y-30578380D01*
X19047619Y-30578380D01*
X19142857Y-30530761D01*
X19190476Y-30483142D01*
X19238095Y-30387904D01*
X19238095Y-30292666D01*
X19190476Y-30197428D01*
X19142857Y-30149809D01*
X19047619Y-30102190D01*
X18857142Y-30054571D01*
X18761904Y-30006952D01*
X18714285Y-29959333D01*
X18666666Y-29864095D01*
X18666666Y-29768857D01*
X18714285Y-29673619D01*
X18761904Y-29626000D01*
X18857142Y-29578380D01*
X19095238Y-29578380D01*
X19238095Y-29626000D01*
X19571428Y-29578380D02*
X19809523Y-30578380D01*
X20000000Y-29864095D01*
X20190476Y-30578380D01*
X20428571Y-29578380D01*
X21333333Y-30578380D02*
X20761904Y-30578380D01*
X21047619Y-30578380D02*
X21047619Y-29578380D01*
X20952380Y-29721238D01*
X20857142Y-29816476D01*
X20761904Y-29864095D01*
%TO.C,D1*%
X125786904Y-36677380D02*
X125786904Y-35677380D01*
X126025000Y-35677380D01*
X126167857Y-35725000D01*
X126263095Y-35820238D01*
X126310714Y-35915476D01*
X126358333Y-36105952D01*
X126358333Y-36248809D01*
X126310714Y-36439285D01*
X126263095Y-36534523D01*
X126167857Y-36629761D01*
X126025000Y-36677380D01*
X125786904Y-36677380D01*
X127310714Y-36677380D02*
X126739285Y-36677380D01*
X127025000Y-36677380D02*
X127025000Y-35677380D01*
X126929761Y-35820238D01*
X126834523Y-35915476D01*
X126739285Y-35963095D01*
X130463095Y-38777380D02*
X130463095Y-37777380D01*
X131034523Y-38777380D02*
X130605952Y-38205952D01*
X131034523Y-37777380D02*
X130463095Y-38348809D01*
%TO.C,D2*%
X103811904Y-24477380D02*
X103811904Y-23477380D01*
X104050000Y-23477380D01*
X104192857Y-23525000D01*
X104288095Y-23620238D01*
X104335714Y-23715476D01*
X104383333Y-23905952D01*
X104383333Y-24048809D01*
X104335714Y-24239285D01*
X104288095Y-24334523D01*
X104192857Y-24429761D01*
X104050000Y-24477380D01*
X103811904Y-24477380D01*
X104764285Y-23572619D02*
X104811904Y-23525000D01*
X104907142Y-23477380D01*
X105145238Y-23477380D01*
X105240476Y-23525000D01*
X105288095Y-23572619D01*
X105335714Y-23667857D01*
X105335714Y-23763095D01*
X105288095Y-23905952D01*
X104716666Y-24477380D01*
X105335714Y-24477380D01*
X108488095Y-26577380D02*
X108488095Y-25577380D01*
X109059523Y-26577380D02*
X108630952Y-26005952D01*
X109059523Y-25577380D02*
X108488095Y-26148809D01*
%TO.C,D7*%
X96688095Y-6152380D02*
X96688095Y-5152380D01*
X97259523Y-6152380D02*
X96830952Y-5580952D01*
X97259523Y-5152380D02*
X96688095Y-5723809D01*
X92011904Y-4052380D02*
X92011904Y-3052380D01*
X92250000Y-3052380D01*
X92392857Y-3100000D01*
X92488095Y-3195238D01*
X92535714Y-3290476D01*
X92583333Y-3480952D01*
X92583333Y-3623809D01*
X92535714Y-3814285D01*
X92488095Y-3909523D01*
X92392857Y-4004761D01*
X92250000Y-4052380D01*
X92011904Y-4052380D01*
X92916666Y-3052380D02*
X93583333Y-3052380D01*
X93154761Y-4052380D01*
%TO.C,U2*%
X22904761Y-22833333D02*
X22952380Y-22690476D01*
X22952380Y-22452380D01*
X22904761Y-22357142D01*
X22857142Y-22309523D01*
X22761904Y-22261904D01*
X22666666Y-22261904D01*
X22571428Y-22309523D01*
X22523809Y-22357142D01*
X22476190Y-22452380D01*
X22428571Y-22642857D01*
X22380952Y-22738095D01*
X22333333Y-22785714D01*
X22238095Y-22833333D01*
X22142857Y-22833333D01*
X22047619Y-22785714D01*
X22000000Y-22738095D01*
X21952380Y-22642857D01*
X21952380Y-22404761D01*
X22000000Y-22261904D01*
X21809523Y-22547619D02*
X23095238Y-22547619D01*
X23333333Y-21547619D02*
X23333333Y-21595238D01*
X23285714Y-21690476D01*
X23190476Y-21738095D01*
X22714285Y-21738095D01*
X22619047Y-21785714D01*
X22571428Y-21880952D01*
X22523809Y-21785714D01*
X22428571Y-21738095D01*
X21952380Y-21738095D01*
X21857142Y-21690476D01*
X21809523Y-21595238D01*
X21809523Y-21547619D01*
X22952380Y-20595238D02*
X22476190Y-20928571D01*
X22952380Y-21166666D02*
X21952380Y-21166666D01*
X21952380Y-20785714D01*
X22000000Y-20690476D01*
X22047619Y-20642857D01*
X22142857Y-20595238D01*
X22285714Y-20595238D01*
X22380952Y-20642857D01*
X22428571Y-20690476D01*
X22476190Y-20785714D01*
X22476190Y-21166666D01*
X22428571Y-20166666D02*
X22428571Y-19833333D01*
X22952380Y-19690476D02*
X22952380Y-20166666D01*
X21952380Y-20166666D01*
X21952380Y-19690476D01*
X22428571Y-18928571D02*
X22428571Y-19261904D01*
X22952380Y-19261904D02*
X21952380Y-19261904D01*
X21952380Y-18785714D01*
X23333333Y-18500000D02*
X23333333Y-18452380D01*
X23285714Y-18357142D01*
X23190476Y-18309523D01*
X22714285Y-18309523D01*
X22619047Y-18261904D01*
X22571428Y-18166666D01*
X22523809Y-18261904D01*
X22428571Y-18309523D01*
X21952380Y-18309523D01*
X21857142Y-18357142D01*
X21809523Y-18452380D01*
X21809523Y-18500000D01*
%TO.C,H3*%
X4538095Y-45452380D02*
X4538095Y-44452380D01*
X4538095Y-44928571D02*
X5109523Y-44928571D01*
X5109523Y-45452380D02*
X5109523Y-44452380D01*
X5490476Y-44452380D02*
X6109523Y-44452380D01*
X5776190Y-44833333D01*
X5919047Y-44833333D01*
X6014285Y-44880952D01*
X6061904Y-44928571D01*
X6109523Y-45023809D01*
X6109523Y-45261904D01*
X6061904Y-45357142D01*
X6014285Y-45404761D01*
X5919047Y-45452380D01*
X5633333Y-45452380D01*
X5538095Y-45404761D01*
X5490476Y-45357142D01*
%TO.C,U1*%
X116583333Y-17845238D02*
X116440476Y-17797619D01*
X116202380Y-17797619D01*
X116107142Y-17845238D01*
X116059523Y-17892857D01*
X116011904Y-17988095D01*
X116011904Y-18083333D01*
X116059523Y-18178571D01*
X116107142Y-18226190D01*
X116202380Y-18273809D01*
X116392857Y-18321428D01*
X116488095Y-18369047D01*
X116535714Y-18416666D01*
X116583333Y-18511904D01*
X116583333Y-18607142D01*
X116535714Y-18702380D01*
X116488095Y-18750000D01*
X116392857Y-18797619D01*
X116154761Y-18797619D01*
X116011904Y-18750000D01*
X116297619Y-18940476D02*
X116297619Y-17654761D01*
X115297619Y-17416666D02*
X115345238Y-17416666D01*
X115440476Y-17464285D01*
X115488095Y-17559523D01*
X115488095Y-18035714D01*
X115535714Y-18130952D01*
X115630952Y-18178571D01*
X115535714Y-18226190D01*
X115488095Y-18321428D01*
X115488095Y-18797619D01*
X115440476Y-18892857D01*
X115345238Y-18940476D01*
X115297619Y-18940476D01*
X114345238Y-17797619D02*
X114678571Y-18273809D01*
X114916666Y-17797619D02*
X114916666Y-18797619D01*
X114535714Y-18797619D01*
X114440476Y-18750000D01*
X114392857Y-18702380D01*
X114345238Y-18607142D01*
X114345238Y-18464285D01*
X114392857Y-18369047D01*
X114440476Y-18321428D01*
X114535714Y-18273809D01*
X114916666Y-18273809D01*
X113916666Y-18321428D02*
X113583333Y-18321428D01*
X113440476Y-17797619D02*
X113916666Y-17797619D01*
X113916666Y-18797619D01*
X113440476Y-18797619D01*
X112678571Y-18321428D02*
X113011904Y-18321428D01*
X113011904Y-17797619D02*
X113011904Y-18797619D01*
X112535714Y-18797619D01*
X112250000Y-17416666D02*
X112202380Y-17416666D01*
X112107142Y-17464285D01*
X112059523Y-17559523D01*
X112059523Y-18035714D01*
X112011904Y-18130952D01*
X111916666Y-18178571D01*
X112011904Y-18226190D01*
X112059523Y-18321428D01*
X112059523Y-18797619D01*
X112107142Y-18892857D01*
X112202380Y-18940476D01*
X112250000Y-18940476D01*
%TO.C,D3*%
X114598095Y-17827380D02*
X114598095Y-16827380D01*
X115169523Y-17827380D02*
X114740952Y-17255952D01*
X115169523Y-16827380D02*
X114598095Y-17398809D01*
X109921904Y-15727380D02*
X109921904Y-14727380D01*
X110160000Y-14727380D01*
X110302857Y-14775000D01*
X110398095Y-14870238D01*
X110445714Y-14965476D01*
X110493333Y-15155952D01*
X110493333Y-15298809D01*
X110445714Y-15489285D01*
X110398095Y-15584523D01*
X110302857Y-15679761D01*
X110160000Y-15727380D01*
X109921904Y-15727380D01*
X110826666Y-14727380D02*
X111445714Y-14727380D01*
X111112380Y-15108333D01*
X111255238Y-15108333D01*
X111350476Y-15155952D01*
X111398095Y-15203571D01*
X111445714Y-15298809D01*
X111445714Y-15536904D01*
X111398095Y-15632142D01*
X111350476Y-15679761D01*
X111255238Y-15727380D01*
X110969523Y-15727380D01*
X110874285Y-15679761D01*
X110826666Y-15632142D01*
%TO.C,J2*%
X108666666Y-7202380D02*
X108666666Y-7916666D01*
X108619047Y-8059523D01*
X108523809Y-8154761D01*
X108380952Y-8202380D01*
X108285714Y-8202380D01*
X109095238Y-7297619D02*
X109142857Y-7250000D01*
X109238095Y-7202380D01*
X109476190Y-7202380D01*
X109571428Y-7250000D01*
X109619047Y-7297619D01*
X109666666Y-7392857D01*
X109666666Y-7488095D01*
X109619047Y-7630952D01*
X109047619Y-8202380D01*
X109666666Y-8202380D01*
%TO.C,SW3*%
X56766666Y-30530761D02*
X56909523Y-30578380D01*
X57147619Y-30578380D01*
X57242857Y-30530761D01*
X57290476Y-30483142D01*
X57338095Y-30387904D01*
X57338095Y-30292666D01*
X57290476Y-30197428D01*
X57242857Y-30149809D01*
X57147619Y-30102190D01*
X56957142Y-30054571D01*
X56861904Y-30006952D01*
X56814285Y-29959333D01*
X56766666Y-29864095D01*
X56766666Y-29768857D01*
X56814285Y-29673619D01*
X56861904Y-29626000D01*
X56957142Y-29578380D01*
X57195238Y-29578380D01*
X57338095Y-29626000D01*
X57671428Y-29578380D02*
X57909523Y-30578380D01*
X58100000Y-29864095D01*
X58290476Y-30578380D01*
X58528571Y-29578380D01*
X58814285Y-29578380D02*
X59433333Y-29578380D01*
X59100000Y-29959333D01*
X59242857Y-29959333D01*
X59338095Y-30006952D01*
X59385714Y-30054571D01*
X59433333Y-30149809D01*
X59433333Y-30387904D01*
X59385714Y-30483142D01*
X59338095Y-30530761D01*
X59242857Y-30578380D01*
X58957142Y-30578380D01*
X58861904Y-30530761D01*
X58814285Y-30483142D01*
%TO.C,D5*%
X96698095Y-12752380D02*
X96698095Y-11752380D01*
X97269523Y-12752380D02*
X96840952Y-12180952D01*
X97269523Y-11752380D02*
X96698095Y-12323809D01*
X92021904Y-10652380D02*
X92021904Y-9652380D01*
X92260000Y-9652380D01*
X92402857Y-9700000D01*
X92498095Y-9795238D01*
X92545714Y-9890476D01*
X92593333Y-10080952D01*
X92593333Y-10223809D01*
X92545714Y-10414285D01*
X92498095Y-10509523D01*
X92402857Y-10604761D01*
X92260000Y-10652380D01*
X92021904Y-10652380D01*
X93498095Y-9652380D02*
X93021904Y-9652380D01*
X92974285Y-10128571D01*
X93021904Y-10080952D01*
X93117142Y-10033333D01*
X93355238Y-10033333D01*
X93450476Y-10080952D01*
X93498095Y-10128571D01*
X93545714Y-10223809D01*
X93545714Y-10461904D01*
X93498095Y-10557142D01*
X93450476Y-10604761D01*
X93355238Y-10652380D01*
X93117142Y-10652380D01*
X93021904Y-10604761D01*
X92974285Y-10557142D01*
%TO.C,SW2*%
X37716666Y-30530761D02*
X37859523Y-30578380D01*
X38097619Y-30578380D01*
X38192857Y-30530761D01*
X38240476Y-30483142D01*
X38288095Y-30387904D01*
X38288095Y-30292666D01*
X38240476Y-30197428D01*
X38192857Y-30149809D01*
X38097619Y-30102190D01*
X37907142Y-30054571D01*
X37811904Y-30006952D01*
X37764285Y-29959333D01*
X37716666Y-29864095D01*
X37716666Y-29768857D01*
X37764285Y-29673619D01*
X37811904Y-29626000D01*
X37907142Y-29578380D01*
X38145238Y-29578380D01*
X38288095Y-29626000D01*
X38621428Y-29578380D02*
X38859523Y-30578380D01*
X39050000Y-29864095D01*
X39240476Y-30578380D01*
X39478571Y-29578380D01*
X39811904Y-29673619D02*
X39859523Y-29626000D01*
X39954761Y-29578380D01*
X40192857Y-29578380D01*
X40288095Y-29626000D01*
X40335714Y-29673619D01*
X40383333Y-29768857D01*
X40383333Y-29864095D01*
X40335714Y-30006952D01*
X39764285Y-30578380D01*
X40383333Y-30578380D01*
%TO.C,D4*%
X92021904Y-7352380D02*
X92021904Y-6352380D01*
X92260000Y-6352380D01*
X92402857Y-6400000D01*
X92498095Y-6495238D01*
X92545714Y-6590476D01*
X92593333Y-6780952D01*
X92593333Y-6923809D01*
X92545714Y-7114285D01*
X92498095Y-7209523D01*
X92402857Y-7304761D01*
X92260000Y-7352380D01*
X92021904Y-7352380D01*
X93450476Y-6685714D02*
X93450476Y-7352380D01*
X93212380Y-6304761D02*
X92974285Y-7019047D01*
X93593333Y-7019047D01*
X96698095Y-9452380D02*
X96698095Y-8452380D01*
X97269523Y-9452380D02*
X96840952Y-8880952D01*
X97269523Y-8452380D02*
X96698095Y-9023809D01*
D11*
%TO.C,F1*%
X120550000Y-5800000D02*
X131050000Y-5800000D01*
X131050000Y-800000D02*
X120550000Y-800000D01*
X120550000Y-800000D02*
X120550000Y-5800000D01*
X131050000Y-5800000D02*
X131050000Y-800000D01*
%TO.C,C3*%
X6747500Y-14670590D02*
X6747500Y-15470590D01*
X7147500Y-15070590D02*
X6347500Y-15070590D01*
X9000000Y-18097349D02*
G75*
G03*
X9000000Y-18097349I-4000000J0D01*
G01*
%TO.C,SW4*%
X83500000Y-44350000D02*
X70800000Y-44350000D01*
X83500000Y-31650000D02*
X83500000Y-44350000D01*
X70800000Y-31650000D02*
X83500000Y-31650000D01*
X70800000Y-44350000D02*
X70800000Y-31650000D01*
%TO.C,J8*%
X29138000Y-4350000D02*
X27046000Y-6443000D01*
X19138000Y-4350000D02*
X17046000Y-6443000D01*
X13955000Y-4167000D02*
X11862000Y-6260000D01*
X24138000Y-4350000D02*
X22046000Y-6443000D01*
X10500000Y-105000D02*
X30500000Y-105000D01*
X28955000Y-4167000D02*
X26863000Y-6260000D01*
X10500000Y-3005000D02*
X30500000Y-3005000D01*
X18955000Y-4167000D02*
X16863000Y-6260000D01*
X23955000Y-4167000D02*
X21863000Y-6260000D01*
X10500000Y-7905000D02*
X30500000Y-7905000D01*
X14138000Y-4350000D02*
X12045000Y-6443000D01*
X10500000Y-9405000D02*
X30500000Y-9405000D01*
X11000000Y-9905000D02*
X10500000Y-9405000D01*
X10500000Y-9405000D02*
X10500000Y-105000D01*
X30500000Y-9905000D02*
X11000000Y-9905000D01*
X30500000Y-105000D02*
X30500000Y-9905000D01*
X29500000Y-5305000D02*
G75*
G03*
X29500000Y-5305000I-1500000J0D01*
G01*
X14500000Y-5305000D02*
G75*
G03*
X14500000Y-5305000I-1500000J0D01*
G01*
X19500000Y-5305000D02*
G75*
G03*
X19500000Y-5305000I-1500000J0D01*
G01*
X24500000Y-5305000D02*
G75*
G03*
X24500000Y-5305000I-1500000J0D01*
G01*
%TO.C,D6*%
X89340000Y-13600000D02*
X90550000Y-13600000D01*
X95750000Y-12250000D02*
X90550000Y-12250000D01*
X95750000Y-14950000D02*
X95750000Y-12250000D01*
X96960000Y-13600000D02*
X95750000Y-13600000D01*
X90550000Y-14950000D02*
X95750000Y-14950000D01*
X94870000Y-14950000D02*
X94870000Y-12250000D01*
X90550000Y-12250000D02*
X90550000Y-14950000D01*
X95070000Y-14950000D02*
X95070000Y-12250000D01*
X94970000Y-14950000D02*
X94970000Y-12250000D01*
%TO.C,J3*%
X116540000Y-23650000D02*
X116540000Y-21745000D01*
X124160000Y-23650000D02*
X116540000Y-23650000D01*
X117175000Y-21110000D02*
X124160000Y-21110000D01*
X124160000Y-21110000D02*
X124160000Y-23650000D01*
X116540000Y-21745000D02*
X117175000Y-21110000D01*
%TO.C,J1*%
X125450000Y-8757500D02*
X125450000Y-17007500D01*
X126253213Y-17762925D02*
X125450000Y-17007500D01*
X139950000Y-17757500D02*
X139950000Y-8757500D01*
X136450000Y-17757500D02*
X136450000Y-8757500D01*
X139950000Y-8757500D02*
X125450000Y-8757500D01*
X126250000Y-17757500D02*
X139950000Y-17757500D01*
%TO.C,SW1*%
X13650000Y-31650000D02*
X26350000Y-31650000D01*
X26350000Y-31650000D02*
X26350000Y-44350000D01*
X13650000Y-44350000D02*
X13650000Y-31650000D01*
X26350000Y-44350000D02*
X13650000Y-44350000D01*
%TO.C,D1*%
X128735000Y-37575000D02*
X128735000Y-34875000D01*
X129515000Y-37575000D02*
X129515000Y-34875000D01*
X124315000Y-34875000D02*
X124315000Y-37575000D01*
X124315000Y-37575000D02*
X129515000Y-37575000D01*
X128835000Y-37575000D02*
X128835000Y-34875000D01*
X128635000Y-37575000D02*
X128635000Y-34875000D01*
X123105000Y-36225000D02*
X124315000Y-36225000D01*
X129515000Y-34875000D02*
X124315000Y-34875000D01*
X130725000Y-36225000D02*
X129515000Y-36225000D01*
%TO.C,D2*%
X107540000Y-22675000D02*
X102340000Y-22675000D01*
X106760000Y-25375000D02*
X106760000Y-22675000D01*
X108750000Y-24025000D02*
X107540000Y-24025000D01*
X106660000Y-25375000D02*
X106660000Y-22675000D01*
X106860000Y-25375000D02*
X106860000Y-22675000D01*
X102340000Y-22675000D02*
X102340000Y-25375000D01*
X102340000Y-25375000D02*
X107540000Y-25375000D01*
X101130000Y-24025000D02*
X102340000Y-24025000D01*
X107540000Y-25375000D02*
X107540000Y-22675000D01*
%TO.C,D7*%
X94860000Y-4950000D02*
X94860000Y-2250000D01*
X94960000Y-4950000D02*
X94960000Y-2250000D01*
X95740000Y-2250000D02*
X90540000Y-2250000D01*
X95060000Y-4950000D02*
X95060000Y-2250000D01*
X95740000Y-4950000D02*
X95740000Y-2250000D01*
X89330000Y-3600000D02*
X90540000Y-3600000D01*
X90540000Y-2250000D02*
X90540000Y-4950000D01*
X96950000Y-3600000D02*
X95740000Y-3600000D01*
X90540000Y-4950000D02*
X95740000Y-4950000D01*
%TO.C,D3*%
X108450000Y-16625000D02*
X113650000Y-16625000D01*
X112970000Y-16625000D02*
X112970000Y-13925000D01*
X113650000Y-13925000D02*
X108450000Y-13925000D01*
X113650000Y-16625000D02*
X113650000Y-13925000D01*
X108450000Y-13925000D02*
X108450000Y-16625000D01*
X112870000Y-16625000D02*
X112870000Y-13925000D01*
X112770000Y-16625000D02*
X112770000Y-13925000D01*
X114860000Y-15275000D02*
X113650000Y-15275000D01*
X107240000Y-15275000D02*
X108450000Y-15275000D01*
%TO.C,J2*%
X102645000Y-5105000D02*
X114075000Y-5105000D01*
X115345000Y-10185000D02*
X102645000Y-10185000D01*
X102645000Y-10185000D02*
X102645000Y-5105000D01*
X115345000Y-6375000D02*
X115345000Y-10185000D01*
X114075000Y-5105000D02*
X115345000Y-6375000D01*
%TO.C,SW3*%
X64450000Y-44350000D02*
X51750000Y-44350000D01*
X51750000Y-44350000D02*
X51750000Y-31650000D01*
X64450000Y-31650000D02*
X64450000Y-44350000D01*
X51750000Y-31650000D02*
X64450000Y-31650000D01*
%TO.C,D5*%
X95750000Y-8850000D02*
X90550000Y-8850000D01*
X89340000Y-10200000D02*
X90550000Y-10200000D01*
X95070000Y-11550000D02*
X95070000Y-8850000D01*
X96960000Y-10200000D02*
X95750000Y-10200000D01*
X95750000Y-11550000D02*
X95750000Y-8850000D01*
X94870000Y-11550000D02*
X94870000Y-8850000D01*
X90550000Y-8850000D02*
X90550000Y-11550000D01*
X94970000Y-11550000D02*
X94970000Y-8850000D01*
X90550000Y-11550000D02*
X95750000Y-11550000D01*
%TO.C,SW2*%
X32700000Y-31650000D02*
X45400000Y-31650000D01*
X32700000Y-44350000D02*
X32700000Y-31650000D01*
X45400000Y-31650000D02*
X45400000Y-44350000D01*
X45400000Y-44350000D02*
X32700000Y-44350000D01*
%TO.C,D4*%
X96960000Y-6900000D02*
X95750000Y-6900000D01*
X90550000Y-5550000D02*
X90550000Y-8250000D01*
X90550000Y-8250000D02*
X95750000Y-8250000D01*
X89340000Y-6900000D02*
X90550000Y-6900000D01*
X95750000Y-8250000D02*
X95750000Y-5550000D01*
X95750000Y-5550000D02*
X90550000Y-5550000D01*
X94870000Y-8250000D02*
X94870000Y-5550000D01*
X94970000Y-8250000D02*
X94970000Y-5550000D01*
X95070000Y-8250000D02*
X95070000Y-5550000D01*
%TD*%
M02*
