%TF.GenerationSoftware,KiCad,Pcbnew,(6.0.0)*%
%TF.CreationDate,2022-01-09T22:19:22-05:00*%
%TF.ProjectId,Main-board-FeatherRP2040,4d61696e-2d62-46f6-9172-642d46656174,rev?*%
%TF.SameCoordinates,Original*%
%TF.FileFunction,AssemblyDrawing,Bot*%
%FSLAX46Y46*%
G04 Gerber Fmt 4.6, Leading zero omitted, Abs format (unit mm)*
G04 Created by KiCad (PCBNEW (6.0.0)) date 2022-01-09 22:19:22*
%MOMM*%
%LPD*%
G01*
G04 APERTURE LIST*
%ADD10C,0.150000*%
%ADD11C,0.100000*%
G04 APERTURE END LIST*
D10*
%TO.C,J4*%
X97823333Y-37072380D02*
X97823333Y-37786666D01*
X97870952Y-37929523D01*
X97966190Y-38024761D01*
X98109047Y-38072380D01*
X98204285Y-38072380D01*
X96918571Y-37405714D02*
X96918571Y-38072380D01*
X97156666Y-37024761D02*
X97394761Y-37739047D01*
X96775714Y-37739047D01*
%TO.C,J5*%
X96553333Y-21832380D02*
X96553333Y-22546666D01*
X96600952Y-22689523D01*
X96696190Y-22784761D01*
X96839047Y-22832380D01*
X96934285Y-22832380D01*
X95600952Y-21832380D02*
X96077142Y-21832380D01*
X96124761Y-22308571D01*
X96077142Y-22260952D01*
X95981904Y-22213333D01*
X95743809Y-22213333D01*
X95648571Y-22260952D01*
X95600952Y-22308571D01*
X95553333Y-22403809D01*
X95553333Y-22641904D01*
X95600952Y-22737142D01*
X95648571Y-22784761D01*
X95743809Y-22832380D01*
X95981904Y-22832380D01*
X96077142Y-22784761D01*
X96124761Y-22737142D01*
D11*
%TO.C,J4*%
X93680000Y-38890000D02*
X101300000Y-38890000D01*
X101300000Y-38890000D02*
X101300000Y-36985000D01*
X93680000Y-36350000D02*
X93680000Y-38890000D01*
X100665000Y-36350000D02*
X93680000Y-36350000D01*
X101300000Y-36985000D02*
X100665000Y-36350000D01*
%TO.C,J5*%
X93680000Y-21110000D02*
X93680000Y-23015000D01*
X93680000Y-23015000D02*
X94315000Y-23650000D01*
X98760000Y-23650000D02*
X98760000Y-21110000D01*
X94315000Y-23650000D02*
X98760000Y-23650000D01*
X98760000Y-21110000D02*
X93680000Y-21110000D01*
%TD*%
M02*
