%TF.GenerationSoftware,KiCad,Pcbnew,(6.0.0)*%
%TF.CreationDate,2022-01-14T12:25:06-05:00*%
%TF.ProjectId,ADC-board-HX711,4144432d-626f-4617-9264-2d4858373131,rev?*%
%TF.SameCoordinates,Original*%
%TF.FileFunction,Copper,L2,Bot*%
%TF.FilePolarity,Positive*%
%FSLAX46Y46*%
G04 Gerber Fmt 4.6, Leading zero omitted, Abs format (unit mm)*
G04 Created by KiCad (PCBNEW (6.0.0)) date 2022-01-14 12:25:06*
%MOMM*%
%LPD*%
G01*
G04 APERTURE LIST*
G04 Aperture macros list*
%AMRoundRect*
0 Rectangle with rounded corners*
0 $1 Rounding radius*
0 $2 $3 $4 $5 $6 $7 $8 $9 X,Y pos of 4 corners*
0 Add a 4 corners polygon primitive as box body*
4,1,4,$2,$3,$4,$5,$6,$7,$8,$9,$2,$3,0*
0 Add four circle primitives for the rounded corners*
1,1,$1+$1,$2,$3*
1,1,$1+$1,$4,$5*
1,1,$1+$1,$6,$7*
1,1,$1+$1,$8,$9*
0 Add four rect primitives between the rounded corners*
20,1,$1+$1,$2,$3,$4,$5,0*
20,1,$1+$1,$4,$5,$6,$7,0*
20,1,$1+$1,$6,$7,$8,$9,0*
20,1,$1+$1,$8,$9,$2,$3,0*%
%AMFreePoly0*
4,1,22,0.500000,-0.750000,0.000000,-0.750000,0.000000,-0.745033,-0.079941,-0.743568,-0.215256,-0.701293,-0.333266,-0.622738,-0.424486,-0.514219,-0.481581,-0.384460,-0.499164,-0.250000,-0.500000,-0.250000,-0.500000,0.250000,-0.499164,0.250000,-0.499963,0.256109,-0.478152,0.396186,-0.417904,0.524511,-0.324060,0.630769,-0.204165,0.706417,-0.067858,0.745374,0.000000,0.744959,0.000000,0.750000,
0.500000,0.750000,0.500000,-0.750000,0.500000,-0.750000,$1*%
%AMFreePoly1*
4,1,20,0.000000,0.744959,0.073905,0.744508,0.209726,0.703889,0.328688,0.626782,0.421226,0.519385,0.479903,0.390333,0.500000,0.250000,0.500000,-0.250000,0.499851,-0.262216,0.476331,-0.402017,0.414519,-0.529596,0.319384,-0.634700,0.198574,-0.708877,0.061801,-0.746166,0.000000,-0.745033,0.000000,-0.750000,-0.500000,-0.750000,-0.500000,0.750000,0.000000,0.750000,0.000000,0.744959,
0.000000,0.744959,$1*%
G04 Aperture macros list end*
%TA.AperFunction,ComponentPad*%
%ADD10O,2.200000X2.200000*%
%TD*%
%TA.AperFunction,ComponentPad*%
%ADD11R,2.200000X2.200000*%
%TD*%
%TA.AperFunction,SMDPad,CuDef*%
%ADD12RoundRect,0.250000X0.650000X-0.412500X0.650000X0.412500X-0.650000X0.412500X-0.650000X-0.412500X0*%
%TD*%
%TA.AperFunction,SMDPad,CuDef*%
%ADD13RoundRect,0.250000X0.412500X0.650000X-0.412500X0.650000X-0.412500X-0.650000X0.412500X-0.650000X0*%
%TD*%
%TA.AperFunction,ComponentPad*%
%ADD14R,1.700000X1.700000*%
%TD*%
%TA.AperFunction,ComponentPad*%
%ADD15O,1.700000X1.700000*%
%TD*%
%TA.AperFunction,ComponentPad*%
%ADD16R,2.600000X2.600000*%
%TD*%
%TA.AperFunction,ComponentPad*%
%ADD17C,2.600000*%
%TD*%
%TA.AperFunction,SMDPad,CuDef*%
%ADD18RoundRect,0.250000X0.475000X-0.337500X0.475000X0.337500X-0.475000X0.337500X-0.475000X-0.337500X0*%
%TD*%
%TA.AperFunction,SMDPad,CuDef*%
%ADD19RoundRect,0.250000X0.337500X0.475000X-0.337500X0.475000X-0.337500X-0.475000X0.337500X-0.475000X0*%
%TD*%
%TA.AperFunction,SMDPad,CuDef*%
%ADD20R,3.500000X2.300000*%
%TD*%
%TA.AperFunction,SMDPad,CuDef*%
%ADD21FreePoly0,0.000000*%
%TD*%
%TA.AperFunction,SMDPad,CuDef*%
%ADD22FreePoly1,0.000000*%
%TD*%
%TA.AperFunction,SMDPad,CuDef*%
%ADD23R,0.650000X1.060000*%
%TD*%
%TA.AperFunction,SMDPad,CuDef*%
%ADD24RoundRect,0.250000X0.350000X0.450000X-0.350000X0.450000X-0.350000X-0.450000X0.350000X-0.450000X0*%
%TD*%
%TA.AperFunction,SMDPad,CuDef*%
%ADD25RoundRect,0.250000X0.450000X-0.350000X0.450000X0.350000X-0.450000X0.350000X-0.450000X-0.350000X0*%
%TD*%
%TA.AperFunction,SMDPad,CuDef*%
%ADD26RoundRect,0.250000X-0.450000X0.350000X-0.450000X-0.350000X0.450000X-0.350000X0.450000X0.350000X0*%
%TD*%
%TA.AperFunction,SMDPad,CuDef*%
%ADD27RoundRect,0.250000X-0.475000X0.337500X-0.475000X-0.337500X0.475000X-0.337500X0.475000X0.337500X0*%
%TD*%
%TA.AperFunction,SMDPad,CuDef*%
%ADD28RoundRect,0.250000X-0.350000X-0.450000X0.350000X-0.450000X0.350000X0.450000X-0.350000X0.450000X0*%
%TD*%
%TA.AperFunction,SMDPad,CuDef*%
%ADD29RoundRect,0.250000X0.325000X0.450000X-0.325000X0.450000X-0.325000X-0.450000X0.325000X-0.450000X0*%
%TD*%
%TA.AperFunction,SMDPad,CuDef*%
%ADD30R,1.900000X0.800000*%
%TD*%
%TA.AperFunction,SMDPad,CuDef*%
%ADD31RoundRect,0.150000X-0.150000X0.850000X-0.150000X-0.850000X0.150000X-0.850000X0.150000X0.850000X0*%
%TD*%
%TA.AperFunction,ViaPad*%
%ADD32C,0.800100*%
%TD*%
%TA.AperFunction,Conductor*%
%ADD33C,0.500000*%
%TD*%
%TA.AperFunction,Conductor*%
%ADD34C,0.249936*%
%TD*%
%TA.AperFunction,Conductor*%
%ADD35C,1.000000*%
%TD*%
%TA.AperFunction,Conductor*%
%ADD36C,0.300000*%
%TD*%
G04 APERTURE END LIST*
D10*
%TO.P,D2,2,A*%
%TO.N,GND*%
X4480000Y-20700000D03*
D11*
%TO.P,D2,1,K*%
%TO.N,+5V*%
X12100000Y-20700000D03*
%TD*%
D12*
%TO.P,C7,1*%
%TO.N,+3V3*%
X33800000Y-25262500D03*
%TO.P,C7,2*%
%TO.N,GND*%
X33800000Y-22137500D03*
%TD*%
D13*
%TO.P,C4,1*%
%TO.N,E+*%
X35662500Y-5800000D03*
%TO.P,C4,2*%
%TO.N,GND*%
X32537500Y-5800000D03*
%TD*%
D12*
%TO.P,C3,1*%
%TO.N,+5V*%
X32300000Y-16662500D03*
%TO.P,C3,2*%
%TO.N,GND*%
X32300000Y-13537500D03*
%TD*%
D14*
%TO.P,J1,1,Pin_1*%
%TO.N,+3V3*%
X16920000Y-33270000D03*
D15*
%TO.P,J1,2,Pin_2*%
%TO.N,DATA*%
X16920000Y-30730000D03*
%TO.P,J1,3,Pin_3*%
%TO.N,GND*%
X19460000Y-33270000D03*
%TO.P,J1,4,Pin_4*%
%TO.N,SCK*%
X19460000Y-30730000D03*
%TO.P,J1,5,Pin_5*%
%TO.N,+5V*%
X22000000Y-33270000D03*
%TO.P,J1,6,Pin_6*%
%TO.N,SWITCH-IN*%
X22000000Y-30730000D03*
%TO.P,J1,7,Pin_7*%
%TO.N,GND*%
X24540000Y-33270000D03*
%TO.P,J1,8,Pin_8*%
X24540000Y-30730000D03*
%TO.P,J1,9,Pin_9*%
X27080000Y-33270000D03*
%TO.P,J1,10,Pin_10*%
X27080000Y-30730000D03*
%TD*%
D16*
%TO.P,J3,1,Pin_1*%
%TO.N,SWITCH-IN*%
X74000000Y-34000000D03*
D17*
%TO.P,J3,2,Pin_2*%
%TO.N,GND*%
X79000000Y-34000000D03*
%TD*%
D16*
%TO.P,J2,1,Pin_1*%
%TO.N,A+*%
X53500000Y-5695000D03*
D17*
%TO.P,J2,2,Pin_2*%
%TO.N,A-*%
X48500000Y-5695000D03*
%TO.P,J2,3,Pin_3*%
%TO.N,GND*%
X43500000Y-5695000D03*
%TO.P,J2,4,Pin_4*%
%TO.N,E+*%
X38500000Y-5695000D03*
%TD*%
D18*
%TO.P,C6,1*%
%TO.N,Net-(C6-Pad1)*%
X50550000Y-12487500D03*
%TO.P,C6,2*%
%TO.N,Net-(C6-Pad2)*%
X50550000Y-10412500D03*
%TD*%
D19*
%TO.P,C1,1*%
%TO.N,GND*%
X42327500Y-22020000D03*
%TO.P,C1,2*%
%TO.N,+3V3*%
X40252500Y-22020000D03*
%TD*%
D20*
%TO.P,D1,1,A1*%
%TO.N,GND*%
X6570000Y-24610000D03*
%TO.P,D1,2,A2*%
%TO.N,+5V*%
X11970000Y-24610000D03*
%TD*%
D19*
%TO.P,C2,1*%
%TO.N,E+*%
X35087500Y-8300000D03*
%TO.P,C2,2*%
%TO.N,GND*%
X33012500Y-8300000D03*
%TD*%
D21*
%TO.P,JP1,1,1*%
%TO.N,GND*%
X36850000Y-20750000D03*
D22*
%TO.P,JP1,2,2*%
%TO.N,Net-(JP1-Pad2)*%
X38150000Y-20750000D03*
%TD*%
D23*
%TO.P,U2,1,IO1*%
%TO.N,unconnected-(U2-Pad1)*%
X17250000Y-24000000D03*
%TO.P,U2,2,VN*%
%TO.N,GND*%
X18200000Y-24000000D03*
%TO.P,U2,3,IO2*%
%TO.N,SWITCH-IN*%
X19150000Y-24000000D03*
%TO.P,U2,4,IO3*%
%TO.N,SCK*%
X19150000Y-26200000D03*
%TO.P,U2,5,VP*%
%TO.N,+3V3*%
X18200000Y-26200000D03*
%TO.P,U2,6,IO4*%
%TO.N,DATA*%
X17250000Y-26200000D03*
%TD*%
D24*
%TO.P,R3,1*%
%TO.N,Net-(R3-Pad1)*%
X44150000Y-12150000D03*
%TO.P,R3,2*%
%TO.N,Net-(L1-Pad2)*%
X42150000Y-12150000D03*
%TD*%
D25*
%TO.P,R8,1*%
%TO.N,+3V3*%
X39510000Y-18550000D03*
%TO.P,R8,2*%
%TO.N,Net-(JP1-Pad2)*%
X39510000Y-16550000D03*
%TD*%
D26*
%TO.P,R5,1*%
%TO.N,A-*%
X48550000Y-10450000D03*
%TO.P,R5,2*%
%TO.N,Net-(C6-Pad1)*%
X48550000Y-12450000D03*
%TD*%
D27*
%TO.P,C5,1*%
%TO.N,GND*%
X46450000Y-10312500D03*
%TO.P,C5,2*%
%TO.N,Net-(C5-Pad2)*%
X46450000Y-12387500D03*
%TD*%
D18*
%TO.P,C8,1*%
%TO.N,GND*%
X36040000Y-18537500D03*
%TO.P,C8,2*%
%TO.N,+5V*%
X36040000Y-16462500D03*
%TD*%
D28*
%TO.P,R4,1*%
%TO.N,GND*%
X42150000Y-10150000D03*
%TO.P,R4,2*%
%TO.N,Net-(R3-Pad1)*%
X44150000Y-10150000D03*
%TD*%
D26*
%TO.P,R6,1*%
%TO.N,A+*%
X52550000Y-10450000D03*
%TO.P,R6,2*%
%TO.N,Net-(C6-Pad2)*%
X52550000Y-12450000D03*
%TD*%
D29*
%TO.P,L1,1,1*%
%TO.N,E+*%
X38025000Y-10400000D03*
%TO.P,L1,2,2*%
%TO.N,Net-(L1-Pad2)*%
X35975000Y-10400000D03*
%TD*%
D30*
%TO.P,Q1,1,B*%
%TO.N,Net-(Q1-Pad1)*%
X39400000Y-12600000D03*
%TO.P,Q1,2,E*%
%TO.N,+5V*%
X39400000Y-14500000D03*
%TO.P,Q1,3,C*%
%TO.N,Net-(L1-Pad2)*%
X36400000Y-13550000D03*
%TD*%
D31*
%TO.P,U1,1,VSUP*%
%TO.N,+5V*%
X41505000Y-14650000D03*
%TO.P,U1,2,Base*%
%TO.N,Net-(Q1-Pad1)*%
X42775000Y-14650000D03*
%TO.P,U1,3,AVDD*%
%TO.N,Net-(L1-Pad2)*%
X44045000Y-14650000D03*
%TO.P,U1,4,VFB*%
%TO.N,Net-(R3-Pad1)*%
X45315000Y-14650000D03*
%TO.P,U1,5,AGND*%
%TO.N,GND*%
X46585000Y-14650000D03*
%TO.P,U1,6,VBG*%
%TO.N,Net-(C5-Pad2)*%
X47855000Y-14650000D03*
%TO.P,U1,7,INNA*%
%TO.N,Net-(C6-Pad1)*%
X49125000Y-14650000D03*
%TO.P,U1,8,INPA*%
%TO.N,Net-(C6-Pad2)*%
X50395000Y-14650000D03*
%TO.P,U1,9,INNB*%
%TO.N,unconnected-(U1-Pad9)*%
X50395000Y-19650000D03*
%TO.P,U1,10,INPB*%
%TO.N,unconnected-(U1-Pad10)*%
X49125000Y-19650000D03*
%TO.P,U1,11,PD_SCK*%
%TO.N,SCK*%
X47855000Y-19650000D03*
%TO.P,U1,12,DOUT*%
%TO.N,DATA*%
X46585000Y-19650000D03*
%TO.P,U1,13,XO*%
%TO.N,unconnected-(U1-Pad13)*%
X45315000Y-19650000D03*
%TO.P,U1,14,XI*%
%TO.N,GND*%
X44045000Y-19650000D03*
%TO.P,U1,15,RATE*%
%TO.N,Net-(JP1-Pad2)*%
X42775000Y-19650000D03*
%TO.P,U1,16,DVDD*%
%TO.N,+3V3*%
X41505000Y-19650000D03*
%TD*%
D32*
%TO.N,GND*%
X16400000Y-17330000D03*
X20050000Y-21100000D03*
X17250000Y-21070000D03*
X18190000Y-22980000D03*
X36750000Y-20750000D03*
X14760000Y-19210000D03*
X46450000Y-8950000D03*
X15870000Y-24000000D03*
X21420000Y-23530000D03*
X43750000Y-21550000D03*
X17710000Y-18920000D03*
X31900000Y-7200000D03*
%TO.N,SWITCH-IN*%
X15490000Y-18270000D03*
X20450000Y-22970000D03*
%TD*%
D33*
%TO.N,+5V*%
X12100000Y-24480000D02*
X11970000Y-24610000D01*
X12100000Y-20700000D02*
X12100000Y-24480000D01*
X12100000Y-20700000D02*
X14580000Y-20700000D01*
X15240000Y-20040000D02*
X18992500Y-16287500D01*
X14580000Y-20700000D02*
X15240000Y-20040000D01*
%TO.N,SWITCH-IN*%
X9420000Y-32130000D02*
X9420000Y-19680000D01*
X10830000Y-18270000D02*
X15490000Y-18270000D01*
X13450000Y-36160000D02*
X9420000Y-32130000D01*
X22760938Y-36160000D02*
X13450000Y-36160000D01*
X9420000Y-19680000D02*
X10830000Y-18270000D01*
X23910938Y-35010000D02*
X22760938Y-36160000D01*
D34*
%TO.N,+3V3*%
X33800000Y-25500000D02*
X33945000Y-25645000D01*
X33800000Y-25262500D02*
X33800000Y-25500000D01*
D33*
X33945000Y-25645000D02*
X38595000Y-25645000D01*
X24865000Y-25645000D02*
X33945000Y-25645000D01*
D34*
%TO.N,+5V*%
X32300000Y-16300000D02*
X32287500Y-16287500D01*
X32300000Y-16662500D02*
X32300000Y-16300000D01*
D33*
X32287500Y-16287500D02*
X35865000Y-16287500D01*
X18992500Y-16287500D02*
X32287500Y-16287500D01*
X35865000Y-16287500D02*
X36040000Y-16462500D01*
D35*
%TO.N,GND*%
X46450000Y-10312500D02*
X46450000Y-8950000D01*
D33*
X44045000Y-21255000D02*
X43750000Y-21550000D01*
D36*
X45350000Y-11412500D02*
X46450000Y-10312500D01*
X46585000Y-14650000D02*
X46585000Y-13485000D01*
X46585000Y-13485000D02*
X46385040Y-13285040D01*
D35*
X46450000Y-8645000D02*
X43500000Y-5695000D01*
X35200000Y-3300000D02*
X41105000Y-3300000D01*
D33*
X43280000Y-22020000D02*
X43750000Y-21550000D01*
D36*
X45350000Y-12950000D02*
X45350000Y-11412500D01*
D35*
X42150000Y-10150000D02*
X42150000Y-7045000D01*
D36*
X45685040Y-13285040D02*
X45350000Y-12950000D01*
D33*
X42327500Y-22020000D02*
X43280000Y-22020000D01*
D35*
X46387500Y-10250000D02*
X46450000Y-10312500D01*
X46450000Y-8950000D02*
X46450000Y-8645000D01*
D36*
X46385040Y-13285040D02*
X45685040Y-13285040D01*
D33*
X44045000Y-19650000D02*
X44045000Y-21255000D01*
D35*
X33012500Y-5487500D02*
X35200000Y-3300000D01*
X41105000Y-3300000D02*
X43500000Y-5695000D01*
X42150000Y-7045000D02*
X43500000Y-5695000D01*
X33012500Y-8300000D02*
X33012500Y-5487500D01*
D33*
%TO.N,SWITCH-IN*%
X23910938Y-35010000D02*
X23280469Y-34379531D01*
X23280469Y-32010469D02*
X23280469Y-34379531D01*
X74000000Y-34000000D02*
X29970000Y-34000000D01*
X23910938Y-35010000D02*
X28960000Y-35010000D01*
X19150000Y-24000000D02*
X19420000Y-24000000D01*
X19420000Y-24000000D02*
X20450000Y-22970000D01*
X22000000Y-30730000D02*
X23280469Y-32010469D01*
X28960000Y-35010000D02*
X29970000Y-34000000D01*
%TO.N,+5V*%
X11970000Y-32710000D02*
X11970000Y-24610000D01*
X22000000Y-33270000D02*
X19980000Y-35290000D01*
X39400000Y-14500000D02*
X41355000Y-14500000D01*
X41355000Y-14500000D02*
X41505000Y-14650000D01*
X39400000Y-14500000D02*
X38002500Y-14500000D01*
X38002500Y-14500000D02*
X36040000Y-16462500D01*
X14550000Y-35290000D02*
X11970000Y-32710000D01*
X39600000Y-14700000D02*
X39400000Y-14500000D01*
X19980000Y-35290000D02*
X14550000Y-35290000D01*
D35*
%TO.N,E+*%
X38500000Y-5695000D02*
X35592500Y-5695000D01*
X38025000Y-10400000D02*
X38025000Y-8575000D01*
X38500000Y-8100000D02*
X38500000Y-5695000D01*
X35592500Y-5695000D02*
X35087500Y-6200000D01*
X38025000Y-8575000D02*
X38500000Y-8100000D01*
X35087500Y-8300000D02*
X35087500Y-6200000D01*
D33*
%TO.N,Net-(C5-Pad2)*%
X47855000Y-13792500D02*
X46450000Y-12387500D01*
X47855000Y-14650000D02*
X47855000Y-13792500D01*
%TO.N,Net-(C6-Pad2)*%
X52550000Y-12450000D02*
X52550000Y-12412500D01*
X52550000Y-12412500D02*
X50550000Y-10412500D01*
X50395000Y-14650000D02*
X50395000Y-14605000D01*
X50395000Y-14605000D02*
X52550000Y-12450000D01*
%TO.N,Net-(C6-Pad1)*%
X50512500Y-12450000D02*
X50550000Y-12487500D01*
X49125000Y-14650000D02*
X49125000Y-13025000D01*
X49125000Y-13025000D02*
X48550000Y-12450000D01*
X48550000Y-12450000D02*
X50512500Y-12450000D01*
D35*
%TO.N,A-*%
X48550000Y-10450000D02*
X48550000Y-5745000D01*
X48600000Y-5795000D02*
X48500000Y-5695000D01*
X48550000Y-5745000D02*
X48500000Y-5695000D01*
%TO.N,A+*%
X52550000Y-10450000D02*
X53500000Y-9500000D01*
X53500000Y-9500000D02*
X53500000Y-5695000D01*
D36*
%TO.N,Net-(L1-Pad2)*%
X44045000Y-14650000D02*
X44045000Y-13645000D01*
X41800000Y-11800000D02*
X38250000Y-11800000D01*
X37550000Y-13550000D02*
X36400000Y-13550000D01*
X38250000Y-11800000D02*
X37750000Y-12300000D01*
D33*
X36400000Y-13550000D02*
X36400000Y-10825000D01*
D36*
X37750000Y-12300000D02*
X37750000Y-13350000D01*
D33*
X36400000Y-10825000D02*
X35975000Y-10400000D01*
D36*
X43050000Y-13200000D02*
X42150000Y-12300000D01*
X43600000Y-13200000D02*
X43050000Y-13200000D01*
X44045000Y-13645000D02*
X43600000Y-13200000D01*
X42150000Y-12150000D02*
X41800000Y-11800000D01*
X42150000Y-12300000D02*
X42150000Y-12150000D01*
X37750000Y-13350000D02*
X37550000Y-13550000D01*
%TO.N,Net-(Q1-Pad1)*%
X42775000Y-13575594D02*
X42449406Y-13250000D01*
X41000000Y-13250000D02*
X40350000Y-12600000D01*
X42449406Y-13250000D02*
X41000000Y-13250000D01*
X40350000Y-12600000D02*
X39400000Y-12600000D01*
X42775000Y-14650000D02*
X42775000Y-13575594D01*
%TO.N,Net-(R3-Pad1)*%
X44150000Y-12600000D02*
X44150000Y-12150000D01*
X45315000Y-13765000D02*
X44150000Y-12600000D01*
D35*
X44150000Y-12150000D02*
X44150000Y-10150000D01*
D36*
X45315000Y-14650000D02*
X45315000Y-13765000D01*
D33*
%TO.N,DATA*%
X17250000Y-25475938D02*
X17625938Y-25100000D01*
X17250000Y-26200000D02*
X17250000Y-25475938D01*
X17625938Y-25100000D02*
X20000000Y-25100000D01*
X16920000Y-27980000D02*
X17250000Y-27650000D01*
X17250000Y-27650000D02*
X17250000Y-26200000D01*
X16920000Y-30730000D02*
X16920000Y-27980000D01*
X22000000Y-27100000D02*
X43300000Y-27100000D01*
X46585000Y-23815000D02*
X46585000Y-19650000D01*
X20000000Y-25100000D02*
X22000000Y-27100000D01*
X43300000Y-27100000D02*
X46585000Y-23815000D01*
%TO.N,SCK*%
X19460000Y-30730000D02*
X19460000Y-28260000D01*
X45380000Y-28260000D02*
X47855000Y-25785000D01*
X19460000Y-28260000D02*
X19460000Y-26510000D01*
X19460000Y-28260000D02*
X45380000Y-28260000D01*
X19460000Y-26510000D02*
X19150000Y-26200000D01*
X47855000Y-25785000D02*
X47855000Y-19650000D01*
%TO.N,+3V3*%
X40252500Y-20902500D02*
X41505000Y-19650000D01*
X16920000Y-33270000D02*
X15080000Y-33270000D01*
X41505000Y-19650000D02*
X41505000Y-19575000D01*
X18200000Y-31990000D02*
X16920000Y-33270000D01*
X14690000Y-32880000D02*
X14690000Y-23060000D01*
X38595000Y-25645000D02*
X40252500Y-23987500D01*
X40252500Y-23987500D02*
X40252500Y-22020000D01*
X14690000Y-23060000D02*
X15690000Y-22060000D01*
X41505000Y-19575000D02*
X40480000Y-18550000D01*
X18200000Y-26200000D02*
X18200000Y-31990000D01*
X40480000Y-18550000D02*
X39510000Y-18550000D01*
X40252500Y-22020000D02*
X40252500Y-20902500D01*
X15690000Y-22060000D02*
X21280000Y-22060000D01*
X21280000Y-22060000D02*
X24865000Y-25645000D01*
X15080000Y-33270000D02*
X14690000Y-32880000D01*
%TO.N,Net-(JP1-Pad2)*%
X40850000Y-16450000D02*
X39700000Y-16450000D01*
X38150000Y-20750000D02*
X38150000Y-17910000D01*
X42775000Y-18375000D02*
X40850000Y-16450000D01*
X42775000Y-19650000D02*
X42775000Y-18375000D01*
X38150000Y-17910000D02*
X39510000Y-16550000D01*
%TD*%
%TA.AperFunction,Conductor*%
%TO.N,GND*%
G36*
X90988227Y-202518D02*
G01*
X90999642Y-205143D01*
X91010516Y-202682D01*
X91021665Y-202702D01*
X91021663Y-203716D01*
X91031524Y-203105D01*
X91087538Y-208622D01*
X91146370Y-214416D01*
X91165400Y-218202D01*
X91231110Y-238134D01*
X91296817Y-258066D01*
X91314745Y-265492D01*
X91365229Y-292476D01*
X91435856Y-330227D01*
X91451991Y-341008D01*
X91558152Y-428131D01*
X91571869Y-441848D01*
X91581454Y-453527D01*
X91658992Y-548009D01*
X91669772Y-564143D01*
X91703923Y-628033D01*
X91734507Y-685252D01*
X91741934Y-703183D01*
X91781798Y-834598D01*
X91785584Y-853630D01*
X91790102Y-899500D01*
X91796897Y-968493D01*
X91797374Y-978371D01*
X91797356Y-988775D01*
X91794857Y-999642D01*
X91797559Y-1011583D01*
X91800000Y-1033432D01*
X91800000Y-37966040D01*
X91797482Y-37988227D01*
X91794857Y-37999642D01*
X91797318Y-38010516D01*
X91797298Y-38021665D01*
X91796284Y-38021663D01*
X91796895Y-38031524D01*
X91785584Y-38146368D01*
X91781798Y-38165402D01*
X91741934Y-38296817D01*
X91734508Y-38314745D01*
X91669773Y-38435856D01*
X91658992Y-38451991D01*
X91571869Y-38558152D01*
X91558152Y-38571869D01*
X91477053Y-38638425D01*
X91451991Y-38658992D01*
X91435857Y-38669772D01*
X91314745Y-38734508D01*
X91296817Y-38741934D01*
X91231110Y-38761866D01*
X91165400Y-38781798D01*
X91146370Y-38785584D01*
X91031501Y-38796897D01*
X91021629Y-38797374D01*
X91011225Y-38797356D01*
X91000358Y-38794857D01*
X90988417Y-38797559D01*
X90966568Y-38800000D01*
X1033960Y-38800000D01*
X1011773Y-38797482D01*
X1000358Y-38794857D01*
X989484Y-38797318D01*
X978335Y-38797298D01*
X978337Y-38796284D01*
X968476Y-38796895D01*
X912462Y-38791378D01*
X853630Y-38785584D01*
X834600Y-38781798D01*
X768890Y-38761866D01*
X703183Y-38741934D01*
X685255Y-38734508D01*
X564143Y-38669772D01*
X548009Y-38658992D01*
X522947Y-38638425D01*
X441848Y-38571869D01*
X428131Y-38558152D01*
X341008Y-38451991D01*
X330227Y-38435856D01*
X265492Y-38314745D01*
X258066Y-38296817D01*
X218202Y-38165402D01*
X214416Y-38146368D01*
X203103Y-38031507D01*
X202626Y-38021629D01*
X202644Y-38011225D01*
X205143Y-38000358D01*
X202441Y-37988417D01*
X200000Y-37966568D01*
X200000Y-32500000D01*
X1394559Y-32500000D01*
X1414310Y-32876871D01*
X1414715Y-32879429D01*
X1414716Y-32879437D01*
X1446700Y-33081370D01*
X1473347Y-33249613D01*
X1474018Y-33252117D01*
X1474019Y-33252122D01*
X1567798Y-33602110D01*
X1571022Y-33614143D01*
X1706266Y-33966465D01*
X1786452Y-34123838D01*
X1860911Y-34269971D01*
X1877597Y-34302720D01*
X1879008Y-34304892D01*
X1879011Y-34304898D01*
X1985844Y-34469407D01*
X2083137Y-34619225D01*
X2320635Y-34912511D01*
X2587489Y-35179365D01*
X2880775Y-35416863D01*
X2994582Y-35490770D01*
X3195102Y-35620989D01*
X3195108Y-35620992D01*
X3197280Y-35622403D01*
X3533535Y-35793734D01*
X3885857Y-35928978D01*
X3888360Y-35929649D01*
X3888361Y-35929649D01*
X4247878Y-36025981D01*
X4247883Y-36025982D01*
X4250387Y-36026653D01*
X4252958Y-36027060D01*
X4252957Y-36027060D01*
X4620563Y-36085284D01*
X4620571Y-36085285D01*
X4623129Y-36085690D01*
X4905720Y-36100500D01*
X5094280Y-36100500D01*
X5376871Y-36085690D01*
X5379429Y-36085285D01*
X5379437Y-36085284D01*
X5747043Y-36027060D01*
X5747042Y-36027060D01*
X5749613Y-36026653D01*
X5752117Y-36025982D01*
X5752122Y-36025981D01*
X6111639Y-35929649D01*
X6111640Y-35929649D01*
X6114143Y-35928978D01*
X6466465Y-35793734D01*
X6802720Y-35622403D01*
X6804892Y-35620992D01*
X6804898Y-35620989D01*
X7005418Y-35490770D01*
X7119225Y-35416863D01*
X7412511Y-35179365D01*
X7679365Y-34912511D01*
X7916863Y-34619225D01*
X7918274Y-34617052D01*
X7918280Y-34617044D01*
X8120989Y-34304899D01*
X8120992Y-34304893D01*
X8122403Y-34302721D01*
X8123580Y-34300412D01*
X8200291Y-34149858D01*
X8293734Y-33966465D01*
X8428978Y-33614143D01*
X8432202Y-33602110D01*
X8525981Y-33252122D01*
X8525982Y-33252117D01*
X8526653Y-33249613D01*
X8553300Y-33081370D01*
X8585284Y-32879437D01*
X8585285Y-32879429D01*
X8585690Y-32876871D01*
X8605441Y-32500000D01*
X8586800Y-32144310D01*
X8964636Y-32144310D01*
X8973788Y-32194418D01*
X8975248Y-32202414D01*
X8975759Y-32205483D01*
X8983450Y-32256643D01*
X8983451Y-32256647D01*
X8984551Y-32263962D01*
X8987679Y-32270475D01*
X8988975Y-32277573D01*
X8992386Y-32284139D01*
X9016198Y-32329980D01*
X9017588Y-32332762D01*
X9039987Y-32379408D01*
X9039989Y-32379411D01*
X9043191Y-32386079D01*
X9047297Y-32390521D01*
X9048820Y-32392781D01*
X9051421Y-32397788D01*
X9055725Y-32402828D01*
X9093357Y-32440460D01*
X9096051Y-32443263D01*
X9130124Y-32480124D01*
X9130127Y-32480126D01*
X9135146Y-32485556D01*
X9141210Y-32489078D01*
X9148535Y-32495638D01*
X13108381Y-36455484D01*
X13116122Y-36464196D01*
X13138128Y-36492110D01*
X13144215Y-36496317D01*
X13144216Y-36496318D01*
X13186733Y-36525703D01*
X13189263Y-36527511D01*
X13236817Y-36562635D01*
X13243634Y-36565029D01*
X13249569Y-36569131D01*
X13256622Y-36571362D01*
X13256625Y-36571363D01*
X13288390Y-36581409D01*
X13305904Y-36586948D01*
X13308841Y-36587928D01*
X13357648Y-36605068D01*
X13357650Y-36605068D01*
X13364631Y-36607520D01*
X13370673Y-36607758D01*
X13373353Y-36608280D01*
X13378730Y-36609980D01*
X13385337Y-36610500D01*
X13438531Y-36610500D01*
X13442417Y-36610576D01*
X13492604Y-36612548D01*
X13492606Y-36612548D01*
X13499994Y-36612838D01*
X13506772Y-36611041D01*
X13516598Y-36610500D01*
X22728311Y-36610500D01*
X22739947Y-36611186D01*
X22775248Y-36615364D01*
X22782524Y-36614035D01*
X22782527Y-36614035D01*
X22818197Y-36607520D01*
X22833368Y-36604749D01*
X22836414Y-36604242D01*
X22894900Y-36595449D01*
X22901413Y-36592321D01*
X22908511Y-36591025D01*
X22960920Y-36563801D01*
X22963700Y-36562412D01*
X23010346Y-36540013D01*
X23010349Y-36540011D01*
X23017017Y-36536809D01*
X23021459Y-36532703D01*
X23023719Y-36531180D01*
X23028726Y-36528579D01*
X23033766Y-36524275D01*
X23071398Y-36486643D01*
X23074201Y-36483949D01*
X23111062Y-36449876D01*
X23111064Y-36449873D01*
X23116494Y-36444854D01*
X23120016Y-36438790D01*
X23126576Y-36431465D01*
X24068545Y-35489496D01*
X24123062Y-35461719D01*
X24138549Y-35460500D01*
X28927373Y-35460500D01*
X28939009Y-35461186D01*
X28974310Y-35465364D01*
X28981586Y-35464035D01*
X28981589Y-35464035D01*
X29016120Y-35457728D01*
X29032430Y-35454749D01*
X29035476Y-35454242D01*
X29093962Y-35445449D01*
X29100475Y-35442321D01*
X29107573Y-35441025D01*
X29159982Y-35413801D01*
X29162762Y-35412412D01*
X29209408Y-35390013D01*
X29209411Y-35390011D01*
X29216079Y-35386809D01*
X29220521Y-35382703D01*
X29222781Y-35381180D01*
X29227788Y-35378579D01*
X29232828Y-35374275D01*
X29270460Y-35336643D01*
X29273263Y-35333949D01*
X29310124Y-35299876D01*
X29310126Y-35299873D01*
X29315556Y-35294854D01*
X29319078Y-35288790D01*
X29325638Y-35281465D01*
X30127607Y-34479496D01*
X30182124Y-34451719D01*
X30197611Y-34450500D01*
X72400500Y-34450500D01*
X72458691Y-34469407D01*
X72494655Y-34518907D01*
X72499500Y-34549500D01*
X72499500Y-35319748D01*
X72511133Y-35378231D01*
X72555448Y-35444552D01*
X72621769Y-35488867D01*
X72631332Y-35490769D01*
X72631334Y-35490770D01*
X72654005Y-35495279D01*
X72680252Y-35500500D01*
X75319748Y-35500500D01*
X75345995Y-35495279D01*
X75368666Y-35490770D01*
X75368668Y-35490769D01*
X75378231Y-35488867D01*
X75441903Y-35446322D01*
X77918717Y-35446322D01*
X77918907Y-35447521D01*
X77923045Y-35452388D01*
X78036260Y-35535401D01*
X78042465Y-35539279D01*
X78273785Y-35660982D01*
X78280513Y-35663907D01*
X78527279Y-35750081D01*
X78534346Y-35751975D01*
X78791146Y-35800730D01*
X78798426Y-35801559D01*
X79059606Y-35811822D01*
X79066925Y-35811566D01*
X79326764Y-35783109D01*
X79333948Y-35781777D01*
X79586730Y-35715225D01*
X79593656Y-35712840D01*
X79833805Y-35609664D01*
X79840306Y-35606281D01*
X80062574Y-35468736D01*
X80068498Y-35464432D01*
X80076418Y-35457728D01*
X80083437Y-35446385D01*
X80083210Y-35443323D01*
X80081417Y-35440627D01*
X79011086Y-34370296D01*
X78999203Y-34364242D01*
X78994172Y-34365038D01*
X77924771Y-35434439D01*
X77918717Y-35446322D01*
X75441903Y-35446322D01*
X75444552Y-35444552D01*
X75488867Y-35378231D01*
X75500500Y-35319748D01*
X75500500Y-33956207D01*
X77187727Y-33956207D01*
X77200268Y-34217293D01*
X77201160Y-34224555D01*
X77252155Y-34480923D01*
X77254112Y-34487979D01*
X77342435Y-34733980D01*
X77345418Y-34740681D01*
X77469133Y-34970926D01*
X77473069Y-34977104D01*
X77545178Y-35073669D01*
X77556068Y-35081365D01*
X77557519Y-35081346D01*
X77562610Y-35078180D01*
X78629704Y-34011086D01*
X78634946Y-34000797D01*
X79364242Y-34000797D01*
X79365038Y-34005828D01*
X80437820Y-35078610D01*
X80449482Y-35084552D01*
X80456016Y-35078643D01*
X80591371Y-34868210D01*
X80594865Y-34861775D01*
X80702225Y-34623443D01*
X80704722Y-34616581D01*
X80775675Y-34365004D01*
X80777136Y-34357820D01*
X80810271Y-34097356D01*
X80810650Y-34092407D01*
X80813005Y-34002492D01*
X80812885Y-33997517D01*
X80793427Y-33735665D01*
X80792346Y-33728436D01*
X80734657Y-33473490D01*
X80732517Y-33466489D01*
X80637780Y-33222873D01*
X80634629Y-33216267D01*
X80504928Y-32989337D01*
X80500824Y-32983253D01*
X80455488Y-32925744D01*
X80444397Y-32918334D01*
X80442254Y-32918418D01*
X80438192Y-32921018D01*
X79370296Y-33988914D01*
X79364242Y-34000797D01*
X78634946Y-34000797D01*
X78635758Y-33999203D01*
X78634962Y-33994172D01*
X77564090Y-32923300D01*
X77552207Y-32917246D01*
X77549405Y-32917689D01*
X77546559Y-32919963D01*
X77526300Y-32944322D01*
X77522047Y-32950284D01*
X77386451Y-33173739D01*
X77383121Y-33180275D01*
X77282045Y-33421314D01*
X77279718Y-33428267D01*
X77215379Y-33681603D01*
X77214107Y-33688819D01*
X77187919Y-33948887D01*
X77187727Y-33956207D01*
X75500500Y-33956207D01*
X75500500Y-32680252D01*
X75488867Y-32621769D01*
X75444552Y-32555448D01*
X75441786Y-32553600D01*
X77915923Y-32553600D01*
X77920228Y-32561018D01*
X78988914Y-33629704D01*
X79000797Y-33635758D01*
X79005828Y-33634962D01*
X80076075Y-32564715D01*
X80082129Y-32552832D01*
X80082049Y-32552325D01*
X80077084Y-32546638D01*
X80009855Y-32500000D01*
X83394559Y-32500000D01*
X83414310Y-32876871D01*
X83414715Y-32879429D01*
X83414716Y-32879437D01*
X83446700Y-33081370D01*
X83473347Y-33249613D01*
X83474018Y-33252117D01*
X83474019Y-33252122D01*
X83567798Y-33602110D01*
X83571022Y-33614143D01*
X83706266Y-33966465D01*
X83786452Y-34123838D01*
X83860911Y-34269971D01*
X83877597Y-34302720D01*
X83879008Y-34304892D01*
X83879011Y-34304898D01*
X83985844Y-34469407D01*
X84083137Y-34619225D01*
X84320635Y-34912511D01*
X84587489Y-35179365D01*
X84880775Y-35416863D01*
X84994582Y-35490770D01*
X85195102Y-35620989D01*
X85195108Y-35620992D01*
X85197280Y-35622403D01*
X85533535Y-35793734D01*
X85885857Y-35928978D01*
X85888360Y-35929649D01*
X85888361Y-35929649D01*
X86247878Y-36025981D01*
X86247883Y-36025982D01*
X86250387Y-36026653D01*
X86252958Y-36027060D01*
X86252957Y-36027060D01*
X86620563Y-36085284D01*
X86620571Y-36085285D01*
X86623129Y-36085690D01*
X86905720Y-36100500D01*
X87094280Y-36100500D01*
X87376871Y-36085690D01*
X87379429Y-36085285D01*
X87379437Y-36085284D01*
X87747043Y-36027060D01*
X87747042Y-36027060D01*
X87749613Y-36026653D01*
X87752117Y-36025982D01*
X87752122Y-36025981D01*
X88111639Y-35929649D01*
X88111640Y-35929649D01*
X88114143Y-35928978D01*
X88466465Y-35793734D01*
X88802720Y-35622403D01*
X88804892Y-35620992D01*
X88804898Y-35620989D01*
X89005418Y-35490770D01*
X89119225Y-35416863D01*
X89412511Y-35179365D01*
X89679365Y-34912511D01*
X89916863Y-34619225D01*
X89918274Y-34617052D01*
X89918280Y-34617044D01*
X90120989Y-34304899D01*
X90120992Y-34304893D01*
X90122403Y-34302721D01*
X90123580Y-34300412D01*
X90200291Y-34149858D01*
X90293734Y-33966465D01*
X90428978Y-33614143D01*
X90432202Y-33602110D01*
X90525981Y-33252122D01*
X90525982Y-33252117D01*
X90526653Y-33249613D01*
X90553300Y-33081370D01*
X90585284Y-32879437D01*
X90585285Y-32879429D01*
X90585690Y-32876871D01*
X90605441Y-32500000D01*
X90585690Y-32123129D01*
X90585095Y-32119369D01*
X90529746Y-31769917D01*
X90526653Y-31750387D01*
X90523826Y-31739834D01*
X90429649Y-31388361D01*
X90429649Y-31388360D01*
X90428978Y-31385857D01*
X90293734Y-31033535D01*
X90122403Y-30697280D01*
X89916863Y-30380775D01*
X89679365Y-30087489D01*
X89412511Y-29820635D01*
X89119225Y-29583137D01*
X88948948Y-29472558D01*
X88804898Y-29379011D01*
X88804892Y-29379008D01*
X88802720Y-29377597D01*
X88466465Y-29206266D01*
X88114143Y-29071022D01*
X88111639Y-29070351D01*
X87752122Y-28974019D01*
X87752117Y-28974018D01*
X87749613Y-28973347D01*
X87409954Y-28919550D01*
X87355437Y-28891773D01*
X87327660Y-28837256D01*
X87337231Y-28776824D01*
X87374452Y-28736909D01*
X87496839Y-28663372D01*
X87496841Y-28663371D01*
X87501432Y-28660612D01*
X87539036Y-28625052D01*
X87571027Y-28594798D01*
X87631591Y-28537526D01*
X87732283Y-28389362D01*
X87798810Y-28223032D01*
X87801023Y-28209668D01*
X87827193Y-28051585D01*
X87828069Y-28046296D01*
X87822226Y-27934812D01*
X87818974Y-27872755D01*
X87818973Y-27872751D01*
X87818693Y-27867401D01*
X87771121Y-27694691D01*
X87760326Y-27674215D01*
X87695459Y-27551186D01*
X87687572Y-27536227D01*
X87683268Y-27531133D01*
X87575404Y-27403493D01*
X87575402Y-27403491D01*
X87571944Y-27399399D01*
X87489843Y-27336628D01*
X87433894Y-27293851D01*
X87433891Y-27293849D01*
X87429632Y-27290593D01*
X87267275Y-27214885D01*
X87262045Y-27213716D01*
X87262042Y-27213715D01*
X87096407Y-27176692D01*
X87096408Y-27176692D01*
X87092448Y-27175807D01*
X87088375Y-27175579D01*
X87088343Y-27175577D01*
X87088326Y-27175577D01*
X87086957Y-27175500D01*
X86955244Y-27175500D01*
X86925920Y-27178686D01*
X86827232Y-27189406D01*
X86827227Y-27189407D01*
X86821907Y-27189985D01*
X86652122Y-27247124D01*
X86498568Y-27339388D01*
X86494676Y-27343068D01*
X86494674Y-27343070D01*
X86434886Y-27399609D01*
X86368409Y-27462474D01*
X86267717Y-27610638D01*
X86246555Y-27663547D01*
X86204665Y-27768281D01*
X86201190Y-27776968D01*
X86200316Y-27782250D01*
X86200315Y-27782252D01*
X86198934Y-27790593D01*
X86171931Y-27953704D01*
X86173538Y-27984362D01*
X86176800Y-28046597D01*
X86181307Y-28132599D01*
X86228879Y-28305309D01*
X86312428Y-28463773D01*
X86315888Y-28467867D01*
X86315889Y-28467869D01*
X86424596Y-28596507D01*
X86428056Y-28600601D01*
X86432315Y-28603857D01*
X86566106Y-28706149D01*
X86566109Y-28706151D01*
X86570368Y-28709407D01*
X86575226Y-28711672D01*
X86575232Y-28711676D01*
X86618276Y-28731748D01*
X86663024Y-28773477D01*
X86674698Y-28833538D01*
X86648839Y-28888991D01*
X86591924Y-28919252D01*
X86250387Y-28973347D01*
X86247883Y-28974018D01*
X86247878Y-28974019D01*
X85888361Y-29070351D01*
X85885857Y-29071022D01*
X85533535Y-29206266D01*
X85197280Y-29377597D01*
X85195108Y-29379008D01*
X85195102Y-29379011D01*
X85051052Y-29472558D01*
X84880775Y-29583137D01*
X84587489Y-29820635D01*
X84320635Y-30087489D01*
X84083137Y-30380775D01*
X84081726Y-30382948D01*
X84081720Y-30382956D01*
X83879011Y-30695101D01*
X83879008Y-30695107D01*
X83877597Y-30697279D01*
X83876421Y-30699587D01*
X83870884Y-30710454D01*
X83706266Y-31033535D01*
X83571022Y-31385857D01*
X83570351Y-31388360D01*
X83570351Y-31388361D01*
X83476175Y-31739834D01*
X83473347Y-31750387D01*
X83470254Y-31769917D01*
X83414906Y-32119369D01*
X83414310Y-32123129D01*
X83394559Y-32500000D01*
X80009855Y-32500000D01*
X79923224Y-32439902D01*
X79916901Y-32436178D01*
X79682492Y-32320581D01*
X79675683Y-32317829D01*
X79426749Y-32238144D01*
X79419632Y-32236435D01*
X79161638Y-32194418D01*
X79154354Y-32193781D01*
X78892979Y-32190360D01*
X78885683Y-32190806D01*
X78626674Y-32226056D01*
X78619522Y-32227576D01*
X78368577Y-32300720D01*
X78361711Y-32303287D01*
X78124341Y-32412716D01*
X78117935Y-32416267D01*
X77924204Y-32543282D01*
X77915923Y-32553600D01*
X75441786Y-32553600D01*
X75378231Y-32511133D01*
X75368668Y-32509231D01*
X75368666Y-32509230D01*
X75345995Y-32504721D01*
X75319748Y-32499500D01*
X72680252Y-32499500D01*
X72654005Y-32504721D01*
X72631334Y-32509230D01*
X72631332Y-32509231D01*
X72621769Y-32511133D01*
X72555448Y-32555448D01*
X72511133Y-32621769D01*
X72499500Y-32680252D01*
X72499500Y-33450500D01*
X72480593Y-33508691D01*
X72431093Y-33544655D01*
X72400500Y-33549500D01*
X30002627Y-33549500D01*
X29990991Y-33548814D01*
X29989454Y-33548632D01*
X29955690Y-33544636D01*
X29897567Y-33555251D01*
X29894520Y-33555758D01*
X29871128Y-33559275D01*
X29843353Y-33563451D01*
X29843352Y-33563451D01*
X29836038Y-33564551D01*
X29829528Y-33567677D01*
X29822427Y-33568974D01*
X29789586Y-33586033D01*
X29770005Y-33596204D01*
X29767227Y-33597592D01*
X29720600Y-33619983D01*
X29720596Y-33619985D01*
X29713921Y-33623191D01*
X29709483Y-33627294D01*
X29707220Y-33628819D01*
X29702212Y-33631420D01*
X29697172Y-33635725D01*
X29659540Y-33673357D01*
X29656737Y-33676051D01*
X29619876Y-33710124D01*
X29619874Y-33710127D01*
X29614444Y-33715146D01*
X29610922Y-33721210D01*
X29604362Y-33728535D01*
X28802393Y-34530504D01*
X28747876Y-34558281D01*
X28732389Y-34559500D01*
X27920133Y-34559500D01*
X27861942Y-34540593D01*
X27825978Y-34491093D01*
X27825978Y-34429907D01*
X27862644Y-34379902D01*
X27956231Y-34313148D01*
X27962412Y-34307924D01*
X28114831Y-34156035D01*
X28120088Y-34149858D01*
X28245651Y-33975119D01*
X28249823Y-33968176D01*
X28345164Y-33775268D01*
X28348144Y-33767744D01*
X28410701Y-33561843D01*
X28412410Y-33553938D01*
X28414304Y-33539547D01*
X28411873Y-33526431D01*
X28410571Y-33525195D01*
X28405290Y-33524000D01*
X24385000Y-33524000D01*
X24326809Y-33505093D01*
X24290845Y-33455593D01*
X24286000Y-33425000D01*
X24286000Y-33000320D01*
X24794000Y-33000320D01*
X24798122Y-33013005D01*
X24802243Y-33016000D01*
X26810320Y-33016000D01*
X26823005Y-33011878D01*
X26826000Y-33007757D01*
X26826000Y-33000320D01*
X27334000Y-33000320D01*
X27338122Y-33013005D01*
X27342243Y-33016000D01*
X28400779Y-33016000D01*
X28412730Y-33012117D01*
X28413058Y-33002462D01*
X28370946Y-32834809D01*
X28368333Y-32827133D01*
X28282534Y-32629807D01*
X28278701Y-32622660D01*
X28161826Y-32441997D01*
X28156880Y-32435575D01*
X28012065Y-32276426D01*
X28006139Y-32270899D01*
X27837269Y-32137534D01*
X27830525Y-32133054D01*
X27748969Y-32088032D01*
X27707162Y-32043356D01*
X27699600Y-31982640D01*
X27729170Y-31929075D01*
X27753260Y-31912456D01*
X27774087Y-31902253D01*
X27781046Y-31898104D01*
X27956231Y-31773148D01*
X27962412Y-31767924D01*
X28114831Y-31616035D01*
X28120088Y-31609858D01*
X28245651Y-31435119D01*
X28249823Y-31428176D01*
X28345164Y-31235268D01*
X28348144Y-31227744D01*
X28410701Y-31021843D01*
X28412410Y-31013938D01*
X28414304Y-30999547D01*
X28411873Y-30986431D01*
X28410571Y-30985195D01*
X28405290Y-30984000D01*
X27349680Y-30984000D01*
X27336995Y-30988122D01*
X27334000Y-30992243D01*
X27334000Y-33000320D01*
X26826000Y-33000320D01*
X26826000Y-30999680D01*
X26821878Y-30986995D01*
X26817757Y-30984000D01*
X24809680Y-30984000D01*
X24796995Y-30988122D01*
X24794000Y-30992243D01*
X24794000Y-33000320D01*
X24286000Y-33000320D01*
X24286000Y-30460320D01*
X24794000Y-30460320D01*
X24798122Y-30473005D01*
X24802243Y-30476000D01*
X26810320Y-30476000D01*
X26823005Y-30471878D01*
X26826000Y-30467757D01*
X26826000Y-30460320D01*
X27334000Y-30460320D01*
X27338122Y-30473005D01*
X27342243Y-30476000D01*
X28400779Y-30476000D01*
X28412730Y-30472117D01*
X28413058Y-30462462D01*
X28370946Y-30294809D01*
X28368333Y-30287133D01*
X28282534Y-30089807D01*
X28278701Y-30082660D01*
X28161826Y-29901997D01*
X28156880Y-29895575D01*
X28012065Y-29736426D01*
X28006139Y-29730899D01*
X27837269Y-29597534D01*
X27830525Y-29593054D01*
X27642141Y-29489060D01*
X27634749Y-29485738D01*
X27431920Y-29413912D01*
X27424081Y-29411841D01*
X27349436Y-29398545D01*
X27336226Y-29400378D01*
X27335805Y-29400782D01*
X27334000Y-29407996D01*
X27334000Y-30460320D01*
X26826000Y-30460320D01*
X26826000Y-29410667D01*
X26821878Y-29397982D01*
X26820877Y-29397254D01*
X26814549Y-29396739D01*
X26768220Y-29403829D01*
X26760348Y-29405705D01*
X26555807Y-29472558D01*
X26548350Y-29475693D01*
X26357479Y-29575054D01*
X26350627Y-29579369D01*
X26178544Y-29708573D01*
X26172491Y-29713947D01*
X26023830Y-29869513D01*
X26018727Y-29875814D01*
X25897466Y-30053575D01*
X25895023Y-30057876D01*
X25849841Y-30099134D01*
X25789037Y-30105954D01*
X25735836Y-30075732D01*
X25725821Y-30062750D01*
X25621826Y-29901997D01*
X25616880Y-29895575D01*
X25472065Y-29736426D01*
X25466139Y-29730899D01*
X25297269Y-29597534D01*
X25290525Y-29593054D01*
X25102141Y-29489060D01*
X25094749Y-29485738D01*
X24891920Y-29413912D01*
X24884081Y-29411841D01*
X24809436Y-29398545D01*
X24796226Y-29400378D01*
X24795805Y-29400782D01*
X24794000Y-29407996D01*
X24794000Y-30460320D01*
X24286000Y-30460320D01*
X24286000Y-29410667D01*
X24281878Y-29397982D01*
X24280877Y-29397254D01*
X24274549Y-29396739D01*
X24228220Y-29403829D01*
X24220348Y-29405705D01*
X24015807Y-29472558D01*
X24008350Y-29475693D01*
X23817479Y-29575054D01*
X23810627Y-29579369D01*
X23638544Y-29708573D01*
X23632491Y-29713947D01*
X23483830Y-29869513D01*
X23478727Y-29875814D01*
X23357466Y-30053575D01*
X23353468Y-30060613D01*
X23262871Y-30255790D01*
X23260073Y-30263394D01*
X23206095Y-30458031D01*
X23172325Y-30509052D01*
X23115014Y-30530480D01*
X23056054Y-30514129D01*
X23017965Y-30466244D01*
X23015921Y-30460188D01*
X22992603Y-30382956D01*
X22975935Y-30327749D01*
X22879218Y-30145849D01*
X22749011Y-29986200D01*
X22667395Y-29918681D01*
X22594002Y-29857965D01*
X22594000Y-29857964D01*
X22590275Y-29854882D01*
X22448650Y-29778306D01*
X22413309Y-29759197D01*
X22413308Y-29759197D01*
X22409055Y-29756897D01*
X22290797Y-29720290D01*
X22216875Y-29697407D01*
X22216871Y-29697406D01*
X22212254Y-29695977D01*
X22207446Y-29695472D01*
X22207443Y-29695471D01*
X22012185Y-29674949D01*
X22012183Y-29674949D01*
X22007369Y-29674443D01*
X21947354Y-29679905D01*
X21807022Y-29692675D01*
X21807017Y-29692676D01*
X21802203Y-29693114D01*
X21604572Y-29751280D01*
X21600288Y-29753519D01*
X21600287Y-29753520D01*
X21552876Y-29778306D01*
X21422002Y-29846726D01*
X21418231Y-29849758D01*
X21265220Y-29972781D01*
X21265217Y-29972783D01*
X21261447Y-29975815D01*
X21258333Y-29979526D01*
X21258332Y-29979527D01*
X21157970Y-30099134D01*
X21129024Y-30133630D01*
X21126689Y-30137878D01*
X21126688Y-30137879D01*
X21119955Y-30150126D01*
X21029776Y-30314162D01*
X21028313Y-30318775D01*
X21028311Y-30318779D01*
X21008645Y-30380775D01*
X20967484Y-30510532D01*
X20966944Y-30515344D01*
X20966944Y-30515345D01*
X20965865Y-30524970D01*
X20944520Y-30715262D01*
X20961759Y-30920553D01*
X20963092Y-30925201D01*
X20963092Y-30925202D01*
X21005023Y-31071431D01*
X21018544Y-31118586D01*
X21112712Y-31301818D01*
X21240677Y-31463270D01*
X21244357Y-31466402D01*
X21244359Y-31466404D01*
X21320638Y-31531322D01*
X21397564Y-31596791D01*
X21401787Y-31599151D01*
X21401791Y-31599154D01*
X21493364Y-31650332D01*
X21577398Y-31697297D01*
X21581996Y-31698791D01*
X21768724Y-31759463D01*
X21768726Y-31759464D01*
X21773329Y-31760959D01*
X21977894Y-31785351D01*
X21982716Y-31784980D01*
X21982719Y-31784980D01*
X22050541Y-31779761D01*
X22183300Y-31769546D01*
X22298893Y-31737272D01*
X22360022Y-31739834D01*
X22395518Y-31762621D01*
X22800973Y-32168076D01*
X22828750Y-32222593D01*
X22829969Y-32238080D01*
X22829969Y-32382788D01*
X22811062Y-32440979D01*
X22761562Y-32476943D01*
X22700376Y-32476943D01*
X22667864Y-32459069D01*
X22594002Y-32397965D01*
X22594000Y-32397964D01*
X22590275Y-32394882D01*
X22409055Y-32296897D01*
X22323699Y-32270475D01*
X22216875Y-32237407D01*
X22216871Y-32237406D01*
X22212254Y-32235977D01*
X22207446Y-32235472D01*
X22207443Y-32235471D01*
X22012185Y-32214949D01*
X22012183Y-32214949D01*
X22007369Y-32214443D01*
X21951800Y-32219500D01*
X21807022Y-32232675D01*
X21807017Y-32232676D01*
X21802203Y-32233114D01*
X21604572Y-32291280D01*
X21600288Y-32293519D01*
X21600287Y-32293520D01*
X21581605Y-32303287D01*
X21422002Y-32386726D01*
X21418231Y-32389758D01*
X21265220Y-32512781D01*
X21265217Y-32512783D01*
X21261447Y-32515815D01*
X21258333Y-32519526D01*
X21258332Y-32519527D01*
X21157970Y-32639134D01*
X21129024Y-32673630D01*
X21126689Y-32677878D01*
X21126688Y-32677879D01*
X21123756Y-32683213D01*
X21029776Y-32854162D01*
X21028312Y-32858778D01*
X21028310Y-32858782D01*
X20982313Y-33003785D01*
X20946696Y-33053535D01*
X20888638Y-33072849D01*
X20830317Y-33054348D01*
X20794008Y-33005101D01*
X20791930Y-32997969D01*
X20750946Y-32834809D01*
X20748333Y-32827133D01*
X20662534Y-32629807D01*
X20658701Y-32622660D01*
X20541826Y-32441997D01*
X20536880Y-32435575D01*
X20392065Y-32276426D01*
X20386139Y-32270899D01*
X20217269Y-32137534D01*
X20210525Y-32133054D01*
X20022141Y-32029060D01*
X20014749Y-32025738D01*
X19811920Y-31953912D01*
X19804081Y-31951841D01*
X19734589Y-31939463D01*
X19680616Y-31910644D01*
X19653890Y-31855605D01*
X19664619Y-31795367D01*
X19708706Y-31752941D01*
X19725327Y-31746644D01*
X19769867Y-31734208D01*
X19841725Y-31714145D01*
X19846038Y-31711966D01*
X19846044Y-31711964D01*
X20021289Y-31623441D01*
X20021291Y-31623440D01*
X20025610Y-31621258D01*
X20032295Y-31616035D01*
X20184135Y-31497406D01*
X20184139Y-31497402D01*
X20187951Y-31494424D01*
X20322564Y-31338472D01*
X20341231Y-31305613D01*
X20421934Y-31163550D01*
X20421935Y-31163547D01*
X20424323Y-31159344D01*
X20435433Y-31125948D01*
X20487824Y-30968454D01*
X20487824Y-30968452D01*
X20489351Y-30963863D01*
X20491586Y-30946176D01*
X20514823Y-30762228D01*
X20515171Y-30759474D01*
X20515583Y-30730000D01*
X20512375Y-30697279D01*
X20495952Y-30529780D01*
X20495951Y-30529776D01*
X20495480Y-30524970D01*
X20479451Y-30471878D01*
X20437333Y-30332380D01*
X20435935Y-30327749D01*
X20339218Y-30145849D01*
X20209011Y-29986200D01*
X20127395Y-29918681D01*
X20054002Y-29857965D01*
X20054000Y-29857964D01*
X20050275Y-29854882D01*
X20006410Y-29831164D01*
X19962413Y-29807375D01*
X19920219Y-29763066D01*
X19910500Y-29720290D01*
X19910500Y-28809500D01*
X19929407Y-28751309D01*
X19978907Y-28715345D01*
X20009500Y-28710500D01*
X45347373Y-28710500D01*
X45359009Y-28711186D01*
X45394310Y-28715364D01*
X45401586Y-28714035D01*
X45401589Y-28714035D01*
X45432288Y-28708428D01*
X45452430Y-28704749D01*
X45455476Y-28704242D01*
X45513962Y-28695449D01*
X45520475Y-28692321D01*
X45527573Y-28691025D01*
X45579982Y-28663801D01*
X45582762Y-28662412D01*
X45629408Y-28640013D01*
X45629411Y-28640011D01*
X45636079Y-28636809D01*
X45640521Y-28632703D01*
X45642781Y-28631180D01*
X45647788Y-28628579D01*
X45652828Y-28624275D01*
X45690460Y-28586643D01*
X45693263Y-28583949D01*
X45730124Y-28549876D01*
X45730126Y-28549873D01*
X45735556Y-28544854D01*
X45739078Y-28538790D01*
X45745638Y-28531465D01*
X48150484Y-26126619D01*
X48159197Y-26118877D01*
X48161080Y-26117393D01*
X48187110Y-26096872D01*
X48192968Y-26088397D01*
X48220703Y-26048267D01*
X48222511Y-26045737D01*
X48253239Y-26004135D01*
X48253240Y-26004134D01*
X48257635Y-25998183D01*
X48260029Y-25991366D01*
X48264131Y-25985431D01*
X48268601Y-25971299D01*
X48281943Y-25929110D01*
X48282928Y-25926159D01*
X48300068Y-25877352D01*
X48300068Y-25877350D01*
X48302520Y-25870369D01*
X48302758Y-25864327D01*
X48303280Y-25861647D01*
X48304980Y-25856270D01*
X48305500Y-25849663D01*
X48305500Y-25796484D01*
X48305576Y-25792597D01*
X48307548Y-25742400D01*
X48307839Y-25735006D01*
X48306041Y-25728224D01*
X48305500Y-25718399D01*
X48305500Y-20706325D01*
X48315557Y-20662849D01*
X48342161Y-20608422D01*
X48345536Y-20601518D01*
X48346645Y-20593916D01*
X48346646Y-20593913D01*
X48354983Y-20536763D01*
X48354983Y-20536761D01*
X48355500Y-20533218D01*
X48624500Y-20533218D01*
X48625028Y-20536801D01*
X48625028Y-20536808D01*
X48629525Y-20567355D01*
X48634642Y-20602112D01*
X48686068Y-20706855D01*
X48768650Y-20789293D01*
X48873482Y-20840536D01*
X48881084Y-20841645D01*
X48881087Y-20841646D01*
X48938237Y-20849983D01*
X48938239Y-20849983D01*
X48941782Y-20850500D01*
X49308218Y-20850500D01*
X49311801Y-20849972D01*
X49311808Y-20849972D01*
X49369499Y-20841479D01*
X49369501Y-20841478D01*
X49377112Y-20840358D01*
X49481855Y-20788932D01*
X49564293Y-20706350D01*
X49615536Y-20601518D01*
X49616645Y-20593916D01*
X49616646Y-20593913D01*
X49624983Y-20536763D01*
X49624983Y-20536761D01*
X49625500Y-20533218D01*
X49894500Y-20533218D01*
X49895028Y-20536801D01*
X49895028Y-20536808D01*
X49899525Y-20567355D01*
X49904642Y-20602112D01*
X49956068Y-20706855D01*
X50038650Y-20789293D01*
X50143482Y-20840536D01*
X50151084Y-20841645D01*
X50151087Y-20841646D01*
X50208237Y-20849983D01*
X50208239Y-20849983D01*
X50211782Y-20850500D01*
X50578218Y-20850500D01*
X50581801Y-20849972D01*
X50581808Y-20849972D01*
X50639499Y-20841479D01*
X50639501Y-20841478D01*
X50647112Y-20840358D01*
X50751855Y-20788932D01*
X50834293Y-20706350D01*
X50885536Y-20601518D01*
X50886645Y-20593916D01*
X50886646Y-20593913D01*
X50894983Y-20536763D01*
X50894983Y-20536761D01*
X50895500Y-20533218D01*
X50895500Y-18766782D01*
X50892956Y-18749496D01*
X50886479Y-18705501D01*
X50886478Y-18705499D01*
X50885358Y-18697888D01*
X50833932Y-18593145D01*
X50751350Y-18510707D01*
X50646518Y-18459464D01*
X50638916Y-18458355D01*
X50638913Y-18458354D01*
X50581763Y-18450017D01*
X50581761Y-18450017D01*
X50578218Y-18449500D01*
X50211782Y-18449500D01*
X50208199Y-18450028D01*
X50208192Y-18450028D01*
X50150501Y-18458521D01*
X50150499Y-18458522D01*
X50142888Y-18459642D01*
X50038145Y-18511068D01*
X49955707Y-18593650D01*
X49904464Y-18698482D01*
X49903355Y-18706084D01*
X49903354Y-18706087D01*
X49901074Y-18721719D01*
X49894500Y-18766782D01*
X49894500Y-20533218D01*
X49625500Y-20533218D01*
X49625500Y-18766782D01*
X49622956Y-18749496D01*
X49616479Y-18705501D01*
X49616478Y-18705499D01*
X49615358Y-18697888D01*
X49563932Y-18593145D01*
X49481350Y-18510707D01*
X49376518Y-18459464D01*
X49368916Y-18458355D01*
X49368913Y-18458354D01*
X49311763Y-18450017D01*
X49311761Y-18450017D01*
X49308218Y-18449500D01*
X48941782Y-18449500D01*
X48938199Y-18450028D01*
X48938192Y-18450028D01*
X48880501Y-18458521D01*
X48880499Y-18458522D01*
X48872888Y-18459642D01*
X48768145Y-18511068D01*
X48685707Y-18593650D01*
X48634464Y-18698482D01*
X48633355Y-18706084D01*
X48633354Y-18706087D01*
X48631074Y-18721719D01*
X48624500Y-18766782D01*
X48624500Y-20533218D01*
X48355500Y-20533218D01*
X48355500Y-18766782D01*
X48352956Y-18749496D01*
X48346479Y-18705501D01*
X48346478Y-18705499D01*
X48345358Y-18697888D01*
X48293932Y-18593145D01*
X48211350Y-18510707D01*
X48106518Y-18459464D01*
X48098916Y-18458355D01*
X48098913Y-18458354D01*
X48041763Y-18450017D01*
X48041761Y-18450017D01*
X48038218Y-18449500D01*
X47671782Y-18449500D01*
X47668199Y-18450028D01*
X47668192Y-18450028D01*
X47610501Y-18458521D01*
X47610499Y-18458522D01*
X47602888Y-18459642D01*
X47498145Y-18511068D01*
X47415707Y-18593650D01*
X47364464Y-18698482D01*
X47363355Y-18706084D01*
X47363354Y-18706087D01*
X47361074Y-18721719D01*
X47354500Y-18766782D01*
X47354500Y-20533218D01*
X47355028Y-20536801D01*
X47355028Y-20536808D01*
X47359525Y-20567355D01*
X47364642Y-20602112D01*
X47368033Y-20609018D01*
X47368033Y-20609019D01*
X47394367Y-20662655D01*
X47404500Y-20706286D01*
X47404500Y-25557388D01*
X47385593Y-25615579D01*
X47375504Y-25627392D01*
X45222393Y-27780504D01*
X45167876Y-27808281D01*
X45152389Y-27809500D01*
X20009500Y-27809500D01*
X19951309Y-27790593D01*
X19915345Y-27741093D01*
X19910500Y-27710500D01*
X19910500Y-26542626D01*
X19911186Y-26530990D01*
X19914494Y-26503037D01*
X19915364Y-26495689D01*
X19914035Y-26488413D01*
X19914035Y-26488409D01*
X19904750Y-26437573D01*
X19904239Y-26434505D01*
X19896549Y-26383355D01*
X19895449Y-26376038D01*
X19892321Y-26369525D01*
X19891025Y-26362427D01*
X19863793Y-26310002D01*
X19862403Y-26307221D01*
X19840012Y-26260592D01*
X19836809Y-26253921D01*
X19832705Y-26249481D01*
X19831180Y-26247218D01*
X19828579Y-26242211D01*
X19824275Y-26237172D01*
X19786643Y-26199540D01*
X19783949Y-26196737D01*
X19749876Y-26159876D01*
X19749873Y-26159874D01*
X19744854Y-26154444D01*
X19738790Y-26150922D01*
X19731465Y-26144362D01*
X19704496Y-26117393D01*
X19676719Y-26062876D01*
X19675500Y-26047389D01*
X19675500Y-25651611D01*
X19694407Y-25593420D01*
X19743907Y-25557456D01*
X19805093Y-25557456D01*
X19844504Y-25581607D01*
X21658381Y-27395484D01*
X21666122Y-27404196D01*
X21688128Y-27432110D01*
X21734668Y-27464275D01*
X21736741Y-27465708D01*
X21739272Y-27467517D01*
X21780861Y-27498236D01*
X21780863Y-27498237D01*
X21786816Y-27502634D01*
X21793632Y-27505027D01*
X21799569Y-27509131D01*
X21806628Y-27511364D01*
X21806629Y-27511364D01*
X21826973Y-27517798D01*
X21855929Y-27526956D01*
X21858814Y-27527918D01*
X21914631Y-27547519D01*
X21920673Y-27547756D01*
X21923347Y-27548277D01*
X21928730Y-27549980D01*
X21935337Y-27550500D01*
X21988541Y-27550500D01*
X21992428Y-27550576D01*
X22042603Y-27552548D01*
X22042606Y-27552548D01*
X22049994Y-27552838D01*
X22056772Y-27551041D01*
X22066597Y-27550500D01*
X43267373Y-27550500D01*
X43279009Y-27551186D01*
X43314310Y-27555364D01*
X43321586Y-27554035D01*
X43321589Y-27554035D01*
X43357265Y-27547519D01*
X43372430Y-27544749D01*
X43375476Y-27544242D01*
X43433962Y-27535449D01*
X43440475Y-27532321D01*
X43447573Y-27531025D01*
X43499982Y-27503801D01*
X43502762Y-27502412D01*
X43549408Y-27480013D01*
X43549411Y-27480011D01*
X43556079Y-27476809D01*
X43560521Y-27472703D01*
X43562781Y-27471180D01*
X43567788Y-27468579D01*
X43572828Y-27464275D01*
X43610460Y-27426643D01*
X43613263Y-27423949D01*
X43650124Y-27389876D01*
X43650126Y-27389873D01*
X43655556Y-27384854D01*
X43659078Y-27378790D01*
X43665638Y-27371465D01*
X46880484Y-24156619D01*
X46889197Y-24148877D01*
X46911299Y-24131453D01*
X46917110Y-24126872D01*
X46950704Y-24078266D01*
X46952511Y-24075737D01*
X46983239Y-24034135D01*
X46983240Y-24034134D01*
X46987635Y-24028183D01*
X46990029Y-24021366D01*
X46994131Y-24015431D01*
X46999341Y-23998959D01*
X47011943Y-23959110D01*
X47012928Y-23956159D01*
X47030068Y-23907352D01*
X47030068Y-23907350D01*
X47032520Y-23900369D01*
X47032758Y-23894327D01*
X47033280Y-23891647D01*
X47034980Y-23886270D01*
X47035500Y-23879663D01*
X47035500Y-23826484D01*
X47035576Y-23822597D01*
X47035753Y-23818080D01*
X47037839Y-23765006D01*
X47036041Y-23758224D01*
X47035500Y-23748399D01*
X47035500Y-20706325D01*
X47045557Y-20662849D01*
X47072161Y-20608422D01*
X47075536Y-20601518D01*
X47076645Y-20593916D01*
X47076646Y-20593913D01*
X47084983Y-20536763D01*
X47084983Y-20536761D01*
X47085500Y-20533218D01*
X47085500Y-18766782D01*
X47082956Y-18749496D01*
X47076479Y-18705501D01*
X47076478Y-18705499D01*
X47075358Y-18697888D01*
X47023932Y-18593145D01*
X46941350Y-18510707D01*
X46836518Y-18459464D01*
X46828916Y-18458355D01*
X46828913Y-18458354D01*
X46771763Y-18450017D01*
X46771761Y-18450017D01*
X46768218Y-18449500D01*
X46401782Y-18449500D01*
X46398199Y-18450028D01*
X46398192Y-18450028D01*
X46340501Y-18458521D01*
X46340499Y-18458522D01*
X46332888Y-18459642D01*
X46228145Y-18511068D01*
X46145707Y-18593650D01*
X46094464Y-18698482D01*
X46093355Y-18706084D01*
X46093354Y-18706087D01*
X46091074Y-18721719D01*
X46084500Y-18766782D01*
X46084500Y-20533218D01*
X46085028Y-20536801D01*
X46085028Y-20536808D01*
X46089525Y-20567355D01*
X46094642Y-20602112D01*
X46098033Y-20609018D01*
X46098033Y-20609019D01*
X46124367Y-20662655D01*
X46134500Y-20706286D01*
X46134500Y-23587388D01*
X46115593Y-23645579D01*
X46105504Y-23657392D01*
X43142393Y-26620504D01*
X43087876Y-26648281D01*
X43072389Y-26649500D01*
X22227611Y-26649500D01*
X22169420Y-26630593D01*
X22157607Y-26620504D01*
X20341619Y-24804516D01*
X20333877Y-24795803D01*
X20316453Y-24773701D01*
X20311872Y-24767890D01*
X20263251Y-24734286D01*
X20260728Y-24732483D01*
X20219139Y-24701764D01*
X20219137Y-24701763D01*
X20213184Y-24697366D01*
X20206368Y-24694973D01*
X20200431Y-24690869D01*
X20193372Y-24688636D01*
X20193371Y-24688636D01*
X20173027Y-24682202D01*
X20144071Y-24673044D01*
X20141186Y-24672082D01*
X20085369Y-24652481D01*
X20079327Y-24652244D01*
X20076653Y-24651723D01*
X20071270Y-24650020D01*
X20064663Y-24649500D01*
X20011459Y-24649500D01*
X20007572Y-24649424D01*
X19957397Y-24647452D01*
X19957394Y-24647452D01*
X19950006Y-24647162D01*
X19943228Y-24648959D01*
X19933403Y-24649500D01*
X19774426Y-24649500D01*
X19716235Y-24630593D01*
X19680271Y-24581093D01*
X19676872Y-24549748D01*
X19675500Y-24549748D01*
X19675500Y-24422611D01*
X19694407Y-24364420D01*
X19704496Y-24352607D01*
X19730460Y-24326643D01*
X19733263Y-24323949D01*
X19770124Y-24289876D01*
X19770126Y-24289873D01*
X19775556Y-24284854D01*
X19779078Y-24278790D01*
X19785638Y-24271465D01*
X20462365Y-23594738D01*
X20519446Y-23566589D01*
X20606775Y-23555092D01*
X20752866Y-23494579D01*
X20878317Y-23398317D01*
X20974579Y-23272866D01*
X21035092Y-23126775D01*
X21055732Y-22970000D01*
X21035092Y-22813225D01*
X20974579Y-22667134D01*
X20971811Y-22663527D01*
X20959260Y-22604482D01*
X20984146Y-22548586D01*
X21037134Y-22517993D01*
X21097984Y-22524388D01*
X21127722Y-22544825D01*
X24523381Y-25940484D01*
X24531122Y-25949196D01*
X24553128Y-25977110D01*
X24559215Y-25981317D01*
X24559216Y-25981318D01*
X24601733Y-26010703D01*
X24604263Y-26012511D01*
X24651817Y-26047635D01*
X24658634Y-26050029D01*
X24664569Y-26054131D01*
X24671622Y-26056362D01*
X24671625Y-26056363D01*
X24692220Y-26062876D01*
X24720904Y-26071948D01*
X24723841Y-26072928D01*
X24772648Y-26090068D01*
X24772650Y-26090068D01*
X24779631Y-26092520D01*
X24785673Y-26092758D01*
X24788353Y-26093280D01*
X24793730Y-26094980D01*
X24800337Y-26095500D01*
X24853516Y-26095500D01*
X24857403Y-26095576D01*
X24914994Y-26097839D01*
X24921776Y-26096041D01*
X24931601Y-26095500D01*
X32970813Y-26095500D01*
X33003615Y-26101092D01*
X33064631Y-26122519D01*
X33070638Y-26123087D01*
X33070639Y-26123087D01*
X33093855Y-26125282D01*
X33093865Y-26125282D01*
X33096166Y-26125500D01*
X34503834Y-26125500D01*
X34506135Y-26125282D01*
X34506145Y-26125282D01*
X34529361Y-26123087D01*
X34529362Y-26123087D01*
X34535369Y-26122519D01*
X34596385Y-26101092D01*
X34629187Y-26095500D01*
X38562373Y-26095500D01*
X38574009Y-26096186D01*
X38609310Y-26100364D01*
X38616586Y-26099035D01*
X38616589Y-26099035D01*
X38652259Y-26092520D01*
X38667430Y-26089749D01*
X38670476Y-26089242D01*
X38728962Y-26080449D01*
X38735475Y-26077321D01*
X38742573Y-26076025D01*
X38794982Y-26048801D01*
X38797762Y-26047412D01*
X38844408Y-26025013D01*
X38844411Y-26025011D01*
X38851079Y-26021809D01*
X38855521Y-26017703D01*
X38857781Y-26016180D01*
X38862788Y-26013579D01*
X38867828Y-26009275D01*
X38905460Y-25971643D01*
X38908263Y-25968949D01*
X38945124Y-25934876D01*
X38945126Y-25934873D01*
X38950556Y-25929854D01*
X38954078Y-25923790D01*
X38960638Y-25916465D01*
X40547984Y-24329119D01*
X40556697Y-24321377D01*
X40578799Y-24303953D01*
X40584610Y-24299372D01*
X40618213Y-24250753D01*
X40620013Y-24248236D01*
X40650735Y-24206640D01*
X40650737Y-24206636D01*
X40655134Y-24200683D01*
X40657527Y-24193869D01*
X40661631Y-24187931D01*
X40679451Y-24131586D01*
X40680430Y-24128650D01*
X40697567Y-24079850D01*
X40700019Y-24072869D01*
X40700256Y-24066832D01*
X40700779Y-24064148D01*
X40702480Y-24058770D01*
X40703000Y-24052163D01*
X40703000Y-23998959D01*
X40703076Y-23995072D01*
X40705048Y-23944897D01*
X40705048Y-23944894D01*
X40705338Y-23937506D01*
X40703541Y-23930728D01*
X40703000Y-23920903D01*
X40703000Y-23002977D01*
X40721907Y-22944786D01*
X40769198Y-22909569D01*
X40769486Y-22909468D01*
X40803184Y-22897634D01*
X40864655Y-22852231D01*
X40906193Y-22821550D01*
X40912150Y-22817150D01*
X40926284Y-22798014D01*
X40988238Y-22714136D01*
X40988239Y-22714135D01*
X40992634Y-22708184D01*
X41037519Y-22580369D01*
X41040500Y-22548834D01*
X41040500Y-21491166D01*
X41037519Y-21459631D01*
X40992634Y-21331816D01*
X40912150Y-21222850D01*
X40807425Y-21145498D01*
X40771852Y-21095719D01*
X40772333Y-21034536D01*
X40796240Y-20995863D01*
X41005724Y-20786379D01*
X41060241Y-20758602D01*
X41120673Y-20768173D01*
X41135878Y-20779210D01*
X41136198Y-20778761D01*
X41142859Y-20783512D01*
X41148650Y-20789293D01*
X41253482Y-20840536D01*
X41261084Y-20841645D01*
X41261087Y-20841646D01*
X41318237Y-20849983D01*
X41318239Y-20849983D01*
X41321782Y-20850500D01*
X41688218Y-20850500D01*
X41691801Y-20849972D01*
X41691808Y-20849972D01*
X41749499Y-20841479D01*
X41749501Y-20841478D01*
X41757112Y-20840358D01*
X41861855Y-20788932D01*
X41944293Y-20706350D01*
X41995536Y-20601518D01*
X41996645Y-20593916D01*
X41996646Y-20593913D01*
X42004983Y-20536763D01*
X42004983Y-20536761D01*
X42005500Y-20533218D01*
X42005500Y-18766782D01*
X42002956Y-18749496D01*
X41996479Y-18705501D01*
X41996478Y-18705499D01*
X41995358Y-18697888D01*
X41943932Y-18593145D01*
X41861350Y-18510707D01*
X41756518Y-18459464D01*
X41748916Y-18458355D01*
X41748913Y-18458354D01*
X41691763Y-18450017D01*
X41691761Y-18450017D01*
X41688218Y-18449500D01*
X41321782Y-18449500D01*
X41318199Y-18450028D01*
X41318192Y-18450028D01*
X41260501Y-18458521D01*
X41260499Y-18458522D01*
X41252888Y-18459642D01*
X41245982Y-18463033D01*
X41245981Y-18463033D01*
X41164777Y-18502902D01*
X41104210Y-18511576D01*
X41051142Y-18484039D01*
X40821619Y-18254516D01*
X40813877Y-18245803D01*
X40803849Y-18233082D01*
X40791872Y-18217890D01*
X40743251Y-18184286D01*
X40740728Y-18182483D01*
X40699139Y-18151764D01*
X40699137Y-18151763D01*
X40693184Y-18147366D01*
X40686368Y-18144973D01*
X40680431Y-18140869D01*
X40673372Y-18138636D01*
X40673371Y-18138636D01*
X40653027Y-18132202D01*
X40624071Y-18123044D01*
X40621186Y-18122082D01*
X40565369Y-18102481D01*
X40559327Y-18102244D01*
X40556653Y-18101723D01*
X40551270Y-18100020D01*
X40544663Y-18099500D01*
X40491459Y-18099500D01*
X40487573Y-18099424D01*
X40485087Y-18099326D01*
X40468211Y-18098663D01*
X40410807Y-18077484D01*
X40378691Y-18032541D01*
X40373100Y-18016620D01*
X40362634Y-17986816D01*
X40344294Y-17961985D01*
X40286550Y-17883807D01*
X40282150Y-17877850D01*
X40276193Y-17873450D01*
X40179136Y-17801762D01*
X40179135Y-17801761D01*
X40173184Y-17797366D01*
X40045369Y-17752481D01*
X40039362Y-17751913D01*
X40039361Y-17751913D01*
X40016145Y-17749718D01*
X40016135Y-17749718D01*
X40013834Y-17749500D01*
X39186611Y-17749500D01*
X39128420Y-17730593D01*
X39092456Y-17681093D01*
X39092456Y-17619907D01*
X39116607Y-17580496D01*
X39317607Y-17379496D01*
X39372124Y-17351719D01*
X39387611Y-17350500D01*
X40013834Y-17350500D01*
X40016135Y-17350282D01*
X40016145Y-17350282D01*
X40039361Y-17348087D01*
X40039362Y-17348087D01*
X40045369Y-17347519D01*
X40173184Y-17302634D01*
X40184690Y-17294136D01*
X40276193Y-17226550D01*
X40282150Y-17222150D01*
X40286550Y-17216193D01*
X40358238Y-17119136D01*
X40358239Y-17119135D01*
X40362634Y-17113184D01*
X40407519Y-16985369D01*
X40408086Y-16979370D01*
X40408325Y-16978281D01*
X40439265Y-16925495D01*
X40495323Y-16900976D01*
X40505024Y-16900500D01*
X40622389Y-16900500D01*
X40680580Y-16919407D01*
X40692393Y-16929496D01*
X42292570Y-18529673D01*
X42320347Y-18584190D01*
X42311509Y-18643153D01*
X42284464Y-18698482D01*
X42283355Y-18706084D01*
X42283354Y-18706087D01*
X42281074Y-18721719D01*
X42274500Y-18766782D01*
X42274500Y-20533218D01*
X42275028Y-20536801D01*
X42275028Y-20536808D01*
X42279525Y-20567355D01*
X42284642Y-20602112D01*
X42336068Y-20706855D01*
X42418650Y-20789293D01*
X42523482Y-20840536D01*
X42531084Y-20841645D01*
X42531087Y-20841646D01*
X42588237Y-20849983D01*
X42588239Y-20849983D01*
X42591782Y-20850500D01*
X42958218Y-20850500D01*
X42961801Y-20849972D01*
X42961808Y-20849972D01*
X43019499Y-20841479D01*
X43019501Y-20841478D01*
X43027112Y-20840358D01*
X43131855Y-20788932D01*
X43214293Y-20706350D01*
X43265536Y-20601518D01*
X43266645Y-20593916D01*
X43266646Y-20593913D01*
X43274983Y-20536763D01*
X43274983Y-20536761D01*
X43275500Y-20533218D01*
X44814500Y-20533218D01*
X44815028Y-20536801D01*
X44815028Y-20536808D01*
X44819525Y-20567355D01*
X44824642Y-20602112D01*
X44876068Y-20706855D01*
X44958650Y-20789293D01*
X45063482Y-20840536D01*
X45071084Y-20841645D01*
X45071087Y-20841646D01*
X45128237Y-20849983D01*
X45128239Y-20849983D01*
X45131782Y-20850500D01*
X45498218Y-20850500D01*
X45501801Y-20849972D01*
X45501808Y-20849972D01*
X45559499Y-20841479D01*
X45559501Y-20841478D01*
X45567112Y-20840358D01*
X45671855Y-20788932D01*
X45754293Y-20706350D01*
X45805536Y-20601518D01*
X45806645Y-20593916D01*
X45806646Y-20593913D01*
X45814983Y-20536763D01*
X45814983Y-20536761D01*
X45815500Y-20533218D01*
X45815500Y-18766782D01*
X45812956Y-18749496D01*
X45806479Y-18705501D01*
X45806478Y-18705499D01*
X45805358Y-18697888D01*
X45753932Y-18593145D01*
X45671350Y-18510707D01*
X45566518Y-18459464D01*
X45558916Y-18458355D01*
X45558913Y-18458354D01*
X45501763Y-18450017D01*
X45501761Y-18450017D01*
X45498218Y-18449500D01*
X45131782Y-18449500D01*
X45128199Y-18450028D01*
X45128192Y-18450028D01*
X45070501Y-18458521D01*
X45070499Y-18458522D01*
X45062888Y-18459642D01*
X44958145Y-18511068D01*
X44875707Y-18593650D01*
X44824464Y-18698482D01*
X44823355Y-18706084D01*
X44823354Y-18706087D01*
X44821074Y-18721719D01*
X44814500Y-18766782D01*
X44814500Y-20533218D01*
X43275500Y-20533218D01*
X43275500Y-18766782D01*
X43272956Y-18749496D01*
X43266479Y-18705501D01*
X43266478Y-18705499D01*
X43265358Y-18697888D01*
X43235633Y-18637344D01*
X43225500Y-18593714D01*
X43225500Y-18407626D01*
X43226186Y-18395990D01*
X43229494Y-18368037D01*
X43230364Y-18360689D01*
X43229035Y-18353413D01*
X43229035Y-18353409D01*
X43219750Y-18302573D01*
X43219239Y-18299505D01*
X43211549Y-18248355D01*
X43210449Y-18241038D01*
X43207321Y-18234525D01*
X43206025Y-18227427D01*
X43178801Y-18175018D01*
X43177412Y-18172238D01*
X43155013Y-18125592D01*
X43155011Y-18125589D01*
X43151809Y-18118921D01*
X43147703Y-18114479D01*
X43146180Y-18112219D01*
X43143579Y-18107212D01*
X43139275Y-18102172D01*
X43101643Y-18064540D01*
X43098949Y-18061737D01*
X43064876Y-18024876D01*
X43064873Y-18024874D01*
X43059854Y-18019444D01*
X43053790Y-18015922D01*
X43046465Y-18009362D01*
X41191619Y-16154516D01*
X41183877Y-16145803D01*
X41166453Y-16123701D01*
X41161872Y-16117890D01*
X41113251Y-16084286D01*
X41110728Y-16082483D01*
X41069139Y-16051764D01*
X41069137Y-16051763D01*
X41063184Y-16047366D01*
X41056368Y-16044973D01*
X41050431Y-16040869D01*
X41043372Y-16038636D01*
X41043371Y-16038636D01*
X41023027Y-16032202D01*
X40994071Y-16023044D01*
X40991186Y-16022082D01*
X40935369Y-16002481D01*
X40929327Y-16002244D01*
X40926653Y-16001723D01*
X40921270Y-16000020D01*
X40914663Y-15999500D01*
X40861459Y-15999500D01*
X40857572Y-15999424D01*
X40807397Y-15997452D01*
X40807394Y-15997452D01*
X40800006Y-15997162D01*
X40793228Y-15998959D01*
X40783403Y-15999500D01*
X40421957Y-15999500D01*
X40363766Y-15980593D01*
X40342324Y-15959318D01*
X40286550Y-15883807D01*
X40282150Y-15877850D01*
X40250794Y-15854690D01*
X40179136Y-15801762D01*
X40179135Y-15801761D01*
X40173184Y-15797366D01*
X40045369Y-15752481D01*
X40039362Y-15751913D01*
X40039361Y-15751913D01*
X40016145Y-15749718D01*
X40016135Y-15749718D01*
X40013834Y-15749500D01*
X39006166Y-15749500D01*
X39003865Y-15749718D01*
X39003855Y-15749718D01*
X38980639Y-15751913D01*
X38980638Y-15751913D01*
X38974631Y-15752481D01*
X38846816Y-15797366D01*
X38840865Y-15801761D01*
X38840864Y-15801762D01*
X38769206Y-15854690D01*
X38737850Y-15877850D01*
X38733450Y-15883807D01*
X38703326Y-15924592D01*
X38657366Y-15986816D01*
X38612481Y-16114631D01*
X38611913Y-16120638D01*
X38611913Y-16120639D01*
X38611624Y-16123701D01*
X38609500Y-16146166D01*
X38609500Y-16772389D01*
X38590593Y-16830580D01*
X38580504Y-16842393D01*
X37854516Y-17568381D01*
X37845804Y-17576122D01*
X37817890Y-17598128D01*
X37813683Y-17604215D01*
X37784292Y-17646741D01*
X37782483Y-17649272D01*
X37754327Y-17687392D01*
X37747366Y-17696816D01*
X37744973Y-17703632D01*
X37740869Y-17709569D01*
X37727298Y-17752481D01*
X37723049Y-17765915D01*
X37722082Y-17768814D01*
X37702481Y-17824631D01*
X37702244Y-17830673D01*
X37701723Y-17833347D01*
X37700020Y-17838730D01*
X37699500Y-17845337D01*
X37699500Y-17898541D01*
X37699424Y-17902428D01*
X37697816Y-17943357D01*
X37697162Y-17959994D01*
X37698959Y-17966772D01*
X37699500Y-17976597D01*
X37699500Y-19704478D01*
X37680593Y-19762669D01*
X37631093Y-19798633D01*
X37619814Y-19801576D01*
X37581334Y-19809230D01*
X37581332Y-19809231D01*
X37571769Y-19811133D01*
X37505448Y-19855448D01*
X37461133Y-19921769D01*
X37445572Y-20000000D01*
X37445572Y-20437573D01*
X37444393Y-20452801D01*
X37442902Y-20462379D01*
X37442194Y-20520335D01*
X37443410Y-20529636D01*
X37444736Y-20539775D01*
X37445572Y-20552611D01*
X37445572Y-20937573D01*
X37444393Y-20952801D01*
X37442902Y-20962379D01*
X37442194Y-21020335D01*
X37442651Y-21023829D01*
X37444736Y-21039775D01*
X37445572Y-21052611D01*
X37445572Y-21500000D01*
X37451159Y-21528089D01*
X37458077Y-21562866D01*
X37461133Y-21578231D01*
X37505448Y-21644552D01*
X37571769Y-21688867D01*
X37581332Y-21690769D01*
X37581334Y-21690770D01*
X37613119Y-21697092D01*
X37650000Y-21704428D01*
X38140431Y-21704428D01*
X38142246Y-21704445D01*
X38208689Y-21705663D01*
X38266208Y-21698498D01*
X38269600Y-21697573D01*
X38269606Y-21697572D01*
X38353304Y-21674753D01*
X38404388Y-21660825D01*
X38415067Y-21656204D01*
X38454350Y-21639204D01*
X38457581Y-21637806D01*
X38460580Y-21635965D01*
X38460585Y-21635962D01*
X38576633Y-21564708D01*
X38579633Y-21562866D01*
X38624228Y-21525843D01*
X38720342Y-21419659D01*
X38752755Y-21371605D01*
X38815202Y-21242713D01*
X38822946Y-21218450D01*
X38831752Y-21190856D01*
X38831753Y-21190852D01*
X38832824Y-21187496D01*
X38833407Y-21184029D01*
X38833409Y-21184022D01*
X38856271Y-21048133D01*
X38856272Y-21048122D01*
X38856586Y-21046258D01*
X38857414Y-21037023D01*
X38859233Y-21016753D01*
X38859233Y-21016744D01*
X38859404Y-21014843D01*
X38859555Y-21002501D01*
X38857505Y-20971019D01*
X38855428Y-20956516D01*
X38854428Y-20942481D01*
X38854428Y-20567355D01*
X38855800Y-20550930D01*
X38856271Y-20548133D01*
X38856272Y-20548122D01*
X38856586Y-20546258D01*
X38858598Y-20523829D01*
X38859233Y-20516753D01*
X38859233Y-20516744D01*
X38859404Y-20514843D01*
X38859555Y-20502501D01*
X38857505Y-20471019D01*
X38837201Y-20329242D01*
X38820933Y-20273610D01*
X38761653Y-20143231D01*
X38730426Y-20094402D01*
X38728132Y-20091739D01*
X38728127Y-20091733D01*
X38649084Y-20000000D01*
X38636936Y-19985901D01*
X38634278Y-19983582D01*
X38631798Y-19981087D01*
X38632458Y-19980431D01*
X38602998Y-19931201D01*
X38600500Y-19909103D01*
X38600500Y-19316901D01*
X38619407Y-19258710D01*
X38668907Y-19222746D01*
X38730093Y-19222746D01*
X38758318Y-19237268D01*
X38846816Y-19302634D01*
X38974631Y-19347519D01*
X38980638Y-19348087D01*
X38980639Y-19348087D01*
X39003855Y-19350282D01*
X39003865Y-19350282D01*
X39006166Y-19350500D01*
X40013834Y-19350500D01*
X40016135Y-19350282D01*
X40016145Y-19350282D01*
X40039361Y-19348087D01*
X40039362Y-19348087D01*
X40045369Y-19347519D01*
X40173184Y-19302634D01*
X40282150Y-19222150D01*
X40312770Y-19180695D01*
X40362550Y-19145121D01*
X40423733Y-19145602D01*
X40462406Y-19169509D01*
X40835393Y-19542496D01*
X40863170Y-19597013D01*
X40853599Y-19657445D01*
X40835393Y-19682504D01*
X39957016Y-20560881D01*
X39948304Y-20568622D01*
X39920390Y-20590628D01*
X39916183Y-20596715D01*
X39886792Y-20639241D01*
X39884983Y-20641772D01*
X39854314Y-20683294D01*
X39849866Y-20689316D01*
X39847473Y-20696132D01*
X39843369Y-20702069D01*
X39841136Y-20709128D01*
X39841136Y-20709129D01*
X39825549Y-20758415D01*
X39824582Y-20761314D01*
X39804981Y-20817131D01*
X39804744Y-20823173D01*
X39804223Y-20825847D01*
X39802520Y-20831230D01*
X39802000Y-20837837D01*
X39802000Y-20891041D01*
X39801924Y-20894928D01*
X39799662Y-20952494D01*
X39801459Y-20959272D01*
X39802000Y-20969097D01*
X39802000Y-21037023D01*
X39783093Y-21095214D01*
X39735802Y-21130431D01*
X39701816Y-21142366D01*
X39695865Y-21146761D01*
X39695864Y-21146762D01*
X39640715Y-21187496D01*
X39592850Y-21222850D01*
X39512366Y-21331816D01*
X39467481Y-21459631D01*
X39464500Y-21491166D01*
X39464500Y-22548834D01*
X39467481Y-22580369D01*
X39512366Y-22708184D01*
X39516761Y-22714135D01*
X39516762Y-22714136D01*
X39578716Y-22798014D01*
X39592850Y-22817150D01*
X39598807Y-22821550D01*
X39640346Y-22852231D01*
X39701816Y-22897634D01*
X39735514Y-22909468D01*
X39735802Y-22909569D01*
X39784441Y-22946689D01*
X39802000Y-23002977D01*
X39802000Y-23759889D01*
X39783093Y-23818080D01*
X39773004Y-23829893D01*
X38437393Y-25165504D01*
X38382876Y-25193281D01*
X38367389Y-25194500D01*
X34999500Y-25194500D01*
X34941309Y-25175593D01*
X34905345Y-25126093D01*
X34900500Y-25095500D01*
X34900500Y-24796166D01*
X34898377Y-24773701D01*
X34898087Y-24770639D01*
X34898087Y-24770638D01*
X34897519Y-24764631D01*
X34852634Y-24636816D01*
X34772150Y-24527850D01*
X34663184Y-24447366D01*
X34535369Y-24402481D01*
X34529362Y-24401913D01*
X34529361Y-24401913D01*
X34506145Y-24399718D01*
X34506135Y-24399718D01*
X34503834Y-24399500D01*
X33096166Y-24399500D01*
X33093865Y-24399718D01*
X33093855Y-24399718D01*
X33070639Y-24401913D01*
X33070638Y-24401913D01*
X33064631Y-24402481D01*
X32936816Y-24447366D01*
X32827850Y-24527850D01*
X32747366Y-24636816D01*
X32702481Y-24764631D01*
X32701913Y-24770638D01*
X32701913Y-24770639D01*
X32701624Y-24773701D01*
X32699500Y-24796166D01*
X32699500Y-25095500D01*
X32680593Y-25153691D01*
X32631093Y-25189655D01*
X32600500Y-25194500D01*
X25092612Y-25194500D01*
X25034421Y-25175593D01*
X25022608Y-25165504D01*
X21621619Y-21764516D01*
X21613877Y-21755803D01*
X21596453Y-21733701D01*
X21591872Y-21727890D01*
X21543251Y-21694286D01*
X21540728Y-21692483D01*
X21535833Y-21688867D01*
X21523805Y-21679983D01*
X21499139Y-21661764D01*
X21499137Y-21661763D01*
X21493184Y-21657366D01*
X21486368Y-21654973D01*
X21480431Y-21650869D01*
X21473372Y-21648636D01*
X21473371Y-21648636D01*
X21433296Y-21635962D01*
X21424071Y-21633044D01*
X21421186Y-21632082D01*
X21365369Y-21612481D01*
X21359327Y-21612244D01*
X21356653Y-21611723D01*
X21351270Y-21610020D01*
X21344663Y-21609500D01*
X21291459Y-21609500D01*
X21287572Y-21609424D01*
X21237397Y-21607452D01*
X21237394Y-21607452D01*
X21230006Y-21607162D01*
X21223228Y-21608959D01*
X21213403Y-21609500D01*
X15722627Y-21609500D01*
X15710991Y-21608814D01*
X15709454Y-21608632D01*
X15675690Y-21604636D01*
X15617567Y-21615251D01*
X15614520Y-21615758D01*
X15591128Y-21619275D01*
X15563353Y-21623451D01*
X15563352Y-21623451D01*
X15556038Y-21624551D01*
X15549528Y-21627677D01*
X15542427Y-21628974D01*
X15522733Y-21639204D01*
X15490005Y-21656204D01*
X15487227Y-21657592D01*
X15440600Y-21679983D01*
X15440596Y-21679985D01*
X15433921Y-21683191D01*
X15429482Y-21687295D01*
X15427221Y-21688819D01*
X15422212Y-21691420D01*
X15417172Y-21695724D01*
X15379527Y-21733369D01*
X15376725Y-21736062D01*
X15334444Y-21775146D01*
X15330923Y-21781208D01*
X15324368Y-21788528D01*
X14394512Y-22718385D01*
X14385797Y-22726127D01*
X14357890Y-22748128D01*
X14324292Y-22796741D01*
X14322488Y-22799264D01*
X14287366Y-22846816D01*
X14284973Y-22853632D01*
X14280869Y-22859569D01*
X14278636Y-22866628D01*
X14278636Y-22866629D01*
X14263049Y-22915915D01*
X14262082Y-22918814D01*
X14242481Y-22974631D01*
X14242244Y-22980673D01*
X14241723Y-22983347D01*
X14240020Y-22988730D01*
X14239500Y-22995337D01*
X14239500Y-23048541D01*
X14239424Y-23052428D01*
X14237162Y-23109994D01*
X14238959Y-23116772D01*
X14239500Y-23126597D01*
X14239500Y-32847373D01*
X14238814Y-32859009D01*
X14234636Y-32894310D01*
X14235965Y-32901586D01*
X14235965Y-32901589D01*
X14245248Y-32952414D01*
X14245758Y-32955476D01*
X14254551Y-33013962D01*
X14257679Y-33020475D01*
X14258975Y-33027573D01*
X14286198Y-33079980D01*
X14287588Y-33082762D01*
X14309987Y-33129408D01*
X14309989Y-33129411D01*
X14313191Y-33136079D01*
X14317297Y-33140521D01*
X14318820Y-33142781D01*
X14321421Y-33147788D01*
X14325725Y-33152828D01*
X14363357Y-33190460D01*
X14366051Y-33193263D01*
X14400124Y-33230124D01*
X14400127Y-33230126D01*
X14405146Y-33235556D01*
X14411210Y-33239078D01*
X14418535Y-33245638D01*
X14738381Y-33565484D01*
X14746122Y-33574196D01*
X14768128Y-33602110D01*
X14815662Y-33634962D01*
X14816741Y-33635708D01*
X14819272Y-33637517D01*
X14860861Y-33668236D01*
X14860863Y-33668237D01*
X14866816Y-33672634D01*
X14873632Y-33675027D01*
X14879569Y-33679131D01*
X14886628Y-33681364D01*
X14886629Y-33681364D01*
X14887385Y-33681603D01*
X14935929Y-33696956D01*
X14938814Y-33697918D01*
X14994631Y-33717519D01*
X15000673Y-33717756D01*
X15003347Y-33718277D01*
X15008730Y-33719980D01*
X15015337Y-33720500D01*
X15068541Y-33720500D01*
X15072428Y-33720576D01*
X15129994Y-33722838D01*
X15136773Y-33721041D01*
X15146593Y-33720500D01*
X15770500Y-33720500D01*
X15828691Y-33739407D01*
X15864655Y-33788907D01*
X15869500Y-33819500D01*
X15869500Y-34139748D01*
X15881133Y-34198231D01*
X15925448Y-34264552D01*
X15991769Y-34308867D01*
X16001332Y-34310769D01*
X16001334Y-34310770D01*
X16024005Y-34315279D01*
X16050252Y-34320500D01*
X17789748Y-34320500D01*
X17815995Y-34315279D01*
X17838666Y-34310770D01*
X17838668Y-34310769D01*
X17848231Y-34308867D01*
X17914552Y-34264552D01*
X17958867Y-34198231D01*
X17970500Y-34139748D01*
X17970500Y-33718491D01*
X17989407Y-33660300D01*
X18038907Y-33624336D01*
X18100093Y-33624336D01*
X18149593Y-33660300D01*
X18161226Y-33681245D01*
X18242183Y-33880620D01*
X18245840Y-33887860D01*
X18358266Y-34071322D01*
X18363056Y-34077867D01*
X18503935Y-34240502D01*
X18509729Y-34246176D01*
X18675292Y-34383629D01*
X18681921Y-34388270D01*
X18867713Y-34496838D01*
X18875008Y-34500334D01*
X19076038Y-34577099D01*
X19083808Y-34579357D01*
X19190637Y-34601091D01*
X19203846Y-34599586D01*
X19206000Y-34591405D01*
X19206000Y-33115000D01*
X19224907Y-33056809D01*
X19274407Y-33020845D01*
X19305000Y-33016000D01*
X19615000Y-33016000D01*
X19673191Y-33034907D01*
X19709155Y-33084407D01*
X19714000Y-33115000D01*
X19714000Y-34590952D01*
X19718122Y-34603637D01*
X19719650Y-34604748D01*
X19724884Y-34605238D01*
X19739291Y-34603392D01*
X19747200Y-34601710D01*
X19776780Y-34592836D01*
X19837950Y-34594224D01*
X19886621Y-34631301D01*
X19904204Y-34689906D01*
X19883981Y-34747653D01*
X19875233Y-34757664D01*
X19822393Y-34810504D01*
X19767876Y-34838281D01*
X19752389Y-34839500D01*
X14777611Y-34839500D01*
X14719420Y-34820593D01*
X14707607Y-34810504D01*
X12449496Y-32552393D01*
X12421719Y-32497876D01*
X12420500Y-32482389D01*
X12420500Y-26059500D01*
X12439407Y-26001309D01*
X12488907Y-25965345D01*
X12519500Y-25960500D01*
X13739748Y-25960500D01*
X13765995Y-25955279D01*
X13788666Y-25950770D01*
X13788668Y-25950769D01*
X13798231Y-25948867D01*
X13864552Y-25904552D01*
X13908867Y-25838231D01*
X13920500Y-25779748D01*
X13920500Y-23440252D01*
X13911134Y-23393164D01*
X13910770Y-23391334D01*
X13910769Y-23391332D01*
X13908867Y-23381769D01*
X13864552Y-23315448D01*
X13798231Y-23271133D01*
X13788668Y-23269231D01*
X13788666Y-23269230D01*
X13765995Y-23264721D01*
X13739748Y-23259500D01*
X12649500Y-23259500D01*
X12591309Y-23240593D01*
X12555345Y-23191093D01*
X12550500Y-23160500D01*
X12550500Y-22099500D01*
X12569407Y-22041309D01*
X12618907Y-22005345D01*
X12649500Y-22000500D01*
X13219748Y-22000500D01*
X13245995Y-21995279D01*
X13268666Y-21990770D01*
X13268668Y-21990769D01*
X13278231Y-21988867D01*
X13344552Y-21944552D01*
X13388867Y-21878231D01*
X13400500Y-21819748D01*
X13400500Y-21249500D01*
X13419407Y-21191309D01*
X13468907Y-21155345D01*
X13499500Y-21150500D01*
X14547373Y-21150500D01*
X14559009Y-21151186D01*
X14594310Y-21155364D01*
X14601586Y-21154035D01*
X14601589Y-21154035D01*
X14632288Y-21148428D01*
X14652430Y-21144749D01*
X14655476Y-21144242D01*
X14713962Y-21135449D01*
X14720475Y-21132321D01*
X14727573Y-21131025D01*
X14779982Y-21103801D01*
X14782762Y-21102412D01*
X14829408Y-21080013D01*
X14829411Y-21080011D01*
X14836079Y-21076809D01*
X14840521Y-21072703D01*
X14842781Y-21071180D01*
X14847788Y-21068579D01*
X14852828Y-21064275D01*
X14890460Y-21026643D01*
X14893263Y-21023949D01*
X14930124Y-20989876D01*
X14930126Y-20989873D01*
X14935556Y-20984854D01*
X14939078Y-20978790D01*
X14945638Y-20971465D01*
X19150107Y-16766996D01*
X19204624Y-16739219D01*
X19220111Y-16738000D01*
X31100500Y-16738000D01*
X31158691Y-16756907D01*
X31194655Y-16806407D01*
X31199500Y-16837000D01*
X31199500Y-17128834D01*
X31202481Y-17160369D01*
X31247366Y-17288184D01*
X31251761Y-17294135D01*
X31251762Y-17294136D01*
X31294294Y-17351719D01*
X31327850Y-17397150D01*
X31436816Y-17477634D01*
X31564631Y-17522519D01*
X31570638Y-17523087D01*
X31570639Y-17523087D01*
X31593855Y-17525282D01*
X31593865Y-17525282D01*
X31596166Y-17525500D01*
X33003834Y-17525500D01*
X33006135Y-17525282D01*
X33006145Y-17525282D01*
X33029361Y-17523087D01*
X33029362Y-17523087D01*
X33035369Y-17522519D01*
X33163184Y-17477634D01*
X33272150Y-17397150D01*
X33305706Y-17351719D01*
X33348238Y-17294136D01*
X33348239Y-17294135D01*
X33352634Y-17288184D01*
X33397519Y-17160369D01*
X33400500Y-17128834D01*
X33400500Y-16837000D01*
X33419407Y-16778809D01*
X33468907Y-16742845D01*
X33499500Y-16738000D01*
X35015500Y-16738000D01*
X35073691Y-16756907D01*
X35109655Y-16806407D01*
X35114500Y-16837000D01*
X35114500Y-16853834D01*
X35117481Y-16885369D01*
X35162366Y-17013184D01*
X35166761Y-17019135D01*
X35166762Y-17019136D01*
X35238450Y-17116193D01*
X35242850Y-17122150D01*
X35351816Y-17202634D01*
X35479631Y-17247519D01*
X35485638Y-17248087D01*
X35485639Y-17248087D01*
X35508855Y-17250282D01*
X35508865Y-17250282D01*
X35511166Y-17250500D01*
X36568834Y-17250500D01*
X36571135Y-17250282D01*
X36571145Y-17250282D01*
X36594361Y-17248087D01*
X36594362Y-17248087D01*
X36600369Y-17247519D01*
X36728184Y-17202634D01*
X36837150Y-17122150D01*
X36841550Y-17116193D01*
X36913238Y-17019136D01*
X36913239Y-17019135D01*
X36917634Y-17013184D01*
X36962519Y-16885369D01*
X36965500Y-16853834D01*
X36965500Y-16215111D01*
X36984407Y-16156920D01*
X36994496Y-16145107D01*
X38135875Y-15003728D01*
X38190392Y-14975951D01*
X38250824Y-14985522D01*
X38288194Y-15018730D01*
X38305448Y-15044552D01*
X38371769Y-15088867D01*
X38381332Y-15090769D01*
X38381334Y-15090770D01*
X38404005Y-15095279D01*
X38430252Y-15100500D01*
X39363859Y-15100500D01*
X39396661Y-15106092D01*
X39514631Y-15147520D01*
X39574026Y-15149853D01*
X39642600Y-15152548D01*
X39642603Y-15152548D01*
X39649994Y-15152838D01*
X39668958Y-15147810D01*
X39773779Y-15120017D01*
X39773780Y-15120017D01*
X39780937Y-15118119D01*
X39787220Y-15114200D01*
X39794008Y-15111263D01*
X39794661Y-15112771D01*
X39837529Y-15100500D01*
X40369748Y-15100500D01*
X40395995Y-15095279D01*
X40418666Y-15090770D01*
X40418668Y-15090769D01*
X40428231Y-15088867D01*
X40494552Y-15044552D01*
X40527998Y-14994497D01*
X40576049Y-14956619D01*
X40610313Y-14950500D01*
X40905500Y-14950500D01*
X40963691Y-14969407D01*
X40999655Y-15018907D01*
X41004500Y-15049500D01*
X41004500Y-15533218D01*
X41014642Y-15602112D01*
X41066068Y-15706855D01*
X41148650Y-15789293D01*
X41253482Y-15840536D01*
X41261084Y-15841645D01*
X41261087Y-15841646D01*
X41318237Y-15849983D01*
X41318239Y-15849983D01*
X41321782Y-15850500D01*
X41688218Y-15850500D01*
X41691801Y-15849972D01*
X41691808Y-15849972D01*
X41749499Y-15841479D01*
X41749501Y-15841478D01*
X41757112Y-15840358D01*
X41766433Y-15835782D01*
X41803274Y-15817694D01*
X41861855Y-15788932D01*
X41944293Y-15706350D01*
X41995536Y-15601518D01*
X41996645Y-15593916D01*
X41996646Y-15593913D01*
X42004983Y-15536763D01*
X42004983Y-15536761D01*
X42005500Y-15533218D01*
X42005500Y-13766782D01*
X41997718Y-13713918D01*
X42007948Y-13653595D01*
X42051683Y-13610805D01*
X42095662Y-13600500D01*
X42184268Y-13600500D01*
X42242459Y-13619407D01*
X42278423Y-13668907D01*
X42282231Y-13713790D01*
X42274500Y-13766782D01*
X42274500Y-15533218D01*
X42284642Y-15602112D01*
X42336068Y-15706855D01*
X42418650Y-15789293D01*
X42523482Y-15840536D01*
X42531084Y-15841645D01*
X42531087Y-15841646D01*
X42588237Y-15849983D01*
X42588239Y-15849983D01*
X42591782Y-15850500D01*
X42958218Y-15850500D01*
X42961801Y-15849972D01*
X42961808Y-15849972D01*
X43019499Y-15841479D01*
X43019501Y-15841478D01*
X43027112Y-15840358D01*
X43036433Y-15835782D01*
X43073274Y-15817694D01*
X43131855Y-15788932D01*
X43214293Y-15706350D01*
X43265536Y-15601518D01*
X43266645Y-15593916D01*
X43266646Y-15593913D01*
X43274983Y-15536763D01*
X43274983Y-15536761D01*
X43275500Y-15533218D01*
X43275500Y-13766782D01*
X43274972Y-13763190D01*
X43266479Y-13705501D01*
X43266478Y-13705499D01*
X43265358Y-13697888D01*
X43261967Y-13690981D01*
X43259684Y-13683634D01*
X43261579Y-13683045D01*
X43254347Y-13632571D01*
X43282927Y-13578471D01*
X43337847Y-13551501D01*
X43351889Y-13550500D01*
X43413810Y-13550500D01*
X43472001Y-13569407D01*
X43483814Y-13579496D01*
X43525486Y-13621168D01*
X43553263Y-13675685D01*
X43553445Y-13705463D01*
X43545340Y-13761022D01*
X43544500Y-13766782D01*
X43544500Y-15533218D01*
X43554642Y-15602112D01*
X43606068Y-15706855D01*
X43688650Y-15789293D01*
X43793482Y-15840536D01*
X43801084Y-15841645D01*
X43801087Y-15841646D01*
X43858237Y-15849983D01*
X43858239Y-15849983D01*
X43861782Y-15850500D01*
X44228218Y-15850500D01*
X44231801Y-15849972D01*
X44231808Y-15849972D01*
X44289499Y-15841479D01*
X44289501Y-15841478D01*
X44297112Y-15840358D01*
X44306433Y-15835782D01*
X44343274Y-15817694D01*
X44401855Y-15788932D01*
X44484293Y-15706350D01*
X44535536Y-15601518D01*
X44536645Y-15593916D01*
X44536646Y-15593913D01*
X44544983Y-15536763D01*
X44544983Y-15536761D01*
X44545500Y-15533218D01*
X44545500Y-13766782D01*
X44544972Y-13763190D01*
X44541490Y-13739543D01*
X44551720Y-13679219D01*
X44595454Y-13636429D01*
X44655987Y-13627518D01*
X44709438Y-13655120D01*
X44785504Y-13731186D01*
X44813281Y-13785703D01*
X44814500Y-13801190D01*
X44814500Y-15533218D01*
X44824642Y-15602112D01*
X44876068Y-15706855D01*
X44958650Y-15789293D01*
X45063482Y-15840536D01*
X45071084Y-15841645D01*
X45071087Y-15841646D01*
X45128237Y-15849983D01*
X45128239Y-15849983D01*
X45131782Y-15850500D01*
X45498218Y-15850500D01*
X45501801Y-15849972D01*
X45501808Y-15849972D01*
X45559499Y-15841479D01*
X45559501Y-15841478D01*
X45567112Y-15840358D01*
X45576433Y-15835782D01*
X45613274Y-15817694D01*
X45671855Y-15788932D01*
X45754293Y-15706350D01*
X45805536Y-15601518D01*
X45806645Y-15593916D01*
X45806646Y-15593913D01*
X45814983Y-15536763D01*
X45814983Y-15536761D01*
X45815500Y-15533218D01*
X45815500Y-13766782D01*
X45814972Y-13763190D01*
X45806479Y-13705501D01*
X45806478Y-13705499D01*
X45805358Y-13697888D01*
X45799159Y-13685261D01*
X45773289Y-13632571D01*
X45753932Y-13593145D01*
X45745005Y-13584233D01*
X45689706Y-13529031D01*
X45671350Y-13510707D01*
X45566518Y-13459464D01*
X45527158Y-13453722D01*
X45471445Y-13425763D01*
X44935299Y-12889617D01*
X44907522Y-12835100D01*
X44911895Y-12786813D01*
X44914697Y-12778834D01*
X45524500Y-12778834D01*
X45527481Y-12810369D01*
X45572366Y-12938184D01*
X45576761Y-12944135D01*
X45576762Y-12944136D01*
X45648450Y-13041193D01*
X45652850Y-13047150D01*
X45658807Y-13051550D01*
X45675203Y-13063660D01*
X45761816Y-13127634D01*
X45889631Y-13172519D01*
X45895638Y-13173087D01*
X45895639Y-13173087D01*
X45918855Y-13175282D01*
X45918865Y-13175282D01*
X45921166Y-13175500D01*
X46559889Y-13175500D01*
X46618080Y-13194407D01*
X46629893Y-13204496D01*
X47325504Y-13900107D01*
X47353281Y-13954624D01*
X47354500Y-13970111D01*
X47354500Y-15533218D01*
X47364642Y-15602112D01*
X47416068Y-15706855D01*
X47498650Y-15789293D01*
X47603482Y-15840536D01*
X47611084Y-15841645D01*
X47611087Y-15841646D01*
X47668237Y-15849983D01*
X47668239Y-15849983D01*
X47671782Y-15850500D01*
X48038218Y-15850500D01*
X48041801Y-15849972D01*
X48041808Y-15849972D01*
X48099499Y-15841479D01*
X48099501Y-15841478D01*
X48107112Y-15840358D01*
X48116433Y-15835782D01*
X48153274Y-15817694D01*
X48211855Y-15788932D01*
X48294293Y-15706350D01*
X48345536Y-15601518D01*
X48346645Y-15593916D01*
X48346646Y-15593913D01*
X48354983Y-15536763D01*
X48354983Y-15536761D01*
X48355500Y-15533218D01*
X48355500Y-13766782D01*
X48354972Y-13763190D01*
X48346479Y-13705501D01*
X48346478Y-13705499D01*
X48345358Y-13697888D01*
X48339159Y-13685261D01*
X48313289Y-13632571D01*
X48293932Y-13593145D01*
X48285005Y-13584233D01*
X48272204Y-13571455D01*
X48211350Y-13510707D01*
X48210024Y-13510059D01*
X48207665Y-13508062D01*
X48181643Y-13482040D01*
X48178949Y-13479237D01*
X48144876Y-13442376D01*
X48144873Y-13442374D01*
X48139854Y-13436944D01*
X48133790Y-13433422D01*
X48126465Y-13426862D01*
X48119107Y-13419504D01*
X48091330Y-13364987D01*
X48100901Y-13304555D01*
X48144166Y-13261290D01*
X48189111Y-13250500D01*
X48575500Y-13250500D01*
X48633691Y-13269407D01*
X48669655Y-13318907D01*
X48674500Y-13349500D01*
X48674500Y-13593675D01*
X48664443Y-13637151D01*
X48634464Y-13698482D01*
X48633355Y-13706084D01*
X48633354Y-13706087D01*
X48625340Y-13761022D01*
X48624500Y-13766782D01*
X48624500Y-15533218D01*
X48634642Y-15602112D01*
X48686068Y-15706855D01*
X48768650Y-15789293D01*
X48873482Y-15840536D01*
X48881084Y-15841645D01*
X48881087Y-15841646D01*
X48938237Y-15849983D01*
X48938239Y-15849983D01*
X48941782Y-15850500D01*
X49308218Y-15850500D01*
X49311801Y-15849972D01*
X49311808Y-15849972D01*
X49369499Y-15841479D01*
X49369501Y-15841478D01*
X49377112Y-15840358D01*
X49386433Y-15835782D01*
X49423274Y-15817694D01*
X49481855Y-15788932D01*
X49564293Y-15706350D01*
X49615536Y-15601518D01*
X49616645Y-15593916D01*
X49616646Y-15593913D01*
X49624983Y-15536763D01*
X49624983Y-15536761D01*
X49625500Y-15533218D01*
X49625500Y-13766782D01*
X49624972Y-13763190D01*
X49616479Y-13705501D01*
X49616478Y-13705499D01*
X49615358Y-13697888D01*
X49585633Y-13637344D01*
X49575500Y-13593714D01*
X49575500Y-13207251D01*
X49594407Y-13149060D01*
X49643907Y-13113096D01*
X49705093Y-13113096D01*
X49744504Y-13137247D01*
X49748450Y-13141193D01*
X49752850Y-13147150D01*
X49758807Y-13151550D01*
X49825080Y-13200500D01*
X49861816Y-13227634D01*
X49989631Y-13272519D01*
X49995638Y-13273087D01*
X49995639Y-13273087D01*
X50018855Y-13275282D01*
X50018865Y-13275282D01*
X50021166Y-13275500D01*
X50091670Y-13275500D01*
X50149861Y-13294407D01*
X50185825Y-13343907D01*
X50185825Y-13405093D01*
X50149861Y-13454593D01*
X50135301Y-13463367D01*
X50038145Y-13511068D01*
X49955707Y-13593650D01*
X49904464Y-13698482D01*
X49903355Y-13706084D01*
X49903354Y-13706087D01*
X49895340Y-13761022D01*
X49894500Y-13766782D01*
X49894500Y-15533218D01*
X49904642Y-15602112D01*
X49956068Y-15706855D01*
X50038650Y-15789293D01*
X50143482Y-15840536D01*
X50151084Y-15841645D01*
X50151087Y-15841646D01*
X50208237Y-15849983D01*
X50208239Y-15849983D01*
X50211782Y-15850500D01*
X50578218Y-15850500D01*
X50581801Y-15849972D01*
X50581808Y-15849972D01*
X50639499Y-15841479D01*
X50639501Y-15841478D01*
X50647112Y-15840358D01*
X50656433Y-15835782D01*
X50693274Y-15817694D01*
X50751855Y-15788932D01*
X50834293Y-15706350D01*
X50885536Y-15601518D01*
X50886645Y-15593916D01*
X50886646Y-15593913D01*
X50894983Y-15536763D01*
X50894983Y-15536761D01*
X50895500Y-15533218D01*
X50895500Y-14782611D01*
X50914407Y-14724420D01*
X50924496Y-14712607D01*
X52357607Y-13279496D01*
X52412124Y-13251719D01*
X52427611Y-13250500D01*
X53053834Y-13250500D01*
X53056135Y-13250282D01*
X53056145Y-13250282D01*
X53079361Y-13248087D01*
X53079362Y-13248087D01*
X53085369Y-13247519D01*
X53213184Y-13202634D01*
X53221205Y-13196710D01*
X53316193Y-13126550D01*
X53322150Y-13122150D01*
X53402634Y-13013184D01*
X53447519Y-12885369D01*
X53450500Y-12853834D01*
X53450500Y-12046166D01*
X53447519Y-12014631D01*
X53402634Y-11886816D01*
X53370860Y-11843797D01*
X53326550Y-11783807D01*
X53322150Y-11777850D01*
X53213184Y-11697366D01*
X53085369Y-11652481D01*
X53079362Y-11651913D01*
X53079361Y-11651913D01*
X53056145Y-11649718D01*
X53056135Y-11649718D01*
X53053834Y-11649500D01*
X52465111Y-11649500D01*
X52406920Y-11630593D01*
X52395107Y-11620504D01*
X52194107Y-11419504D01*
X52166330Y-11364987D01*
X52175901Y-11304555D01*
X52219166Y-11261290D01*
X52264111Y-11250500D01*
X53053834Y-11250500D01*
X53056135Y-11250282D01*
X53056145Y-11250282D01*
X53079361Y-11248087D01*
X53079362Y-11248087D01*
X53085369Y-11247519D01*
X53213184Y-11202634D01*
X53322150Y-11122150D01*
X53365703Y-11063184D01*
X53398238Y-11019136D01*
X53398239Y-11019135D01*
X53402634Y-11013184D01*
X53447519Y-10885369D01*
X53448301Y-10877096D01*
X53450282Y-10856145D01*
X53450282Y-10856135D01*
X53450500Y-10853834D01*
X53450500Y-10581164D01*
X53469407Y-10522973D01*
X53479496Y-10511160D01*
X53975734Y-10014923D01*
X53980658Y-10010324D01*
X54019899Y-9976092D01*
X54024396Y-9972169D01*
X54061103Y-9919939D01*
X54064188Y-9915786D01*
X54099900Y-9870242D01*
X54099902Y-9870239D01*
X54103584Y-9865543D01*
X54107367Y-9857165D01*
X54116604Y-9840969D01*
X54118456Y-9838334D01*
X54121887Y-9833453D01*
X54125410Y-9824419D01*
X54145078Y-9773973D01*
X54147086Y-9769197D01*
X54161706Y-9736816D01*
X54173355Y-9711016D01*
X54175031Y-9701974D01*
X54180134Y-9684058D01*
X54183476Y-9675487D01*
X54191810Y-9612181D01*
X54192619Y-9607070D01*
X54203164Y-9550180D01*
X54203164Y-9550177D01*
X54204252Y-9544308D01*
X54200664Y-9482075D01*
X54200500Y-9476378D01*
X54200500Y-7294500D01*
X54219407Y-7236309D01*
X54268907Y-7200345D01*
X54299500Y-7195500D01*
X54819748Y-7195500D01*
X54845995Y-7190279D01*
X54868666Y-7185770D01*
X54868668Y-7185769D01*
X54878231Y-7183867D01*
X54944552Y-7139552D01*
X54988867Y-7073231D01*
X54992924Y-7052838D01*
X54995342Y-7040679D01*
X55000500Y-7014748D01*
X55000500Y-4500000D01*
X83394559Y-4500000D01*
X83414310Y-4876871D01*
X83414715Y-4879429D01*
X83414716Y-4879437D01*
X83459389Y-5161489D01*
X83473347Y-5249613D01*
X83474018Y-5252117D01*
X83474019Y-5252122D01*
X83528738Y-5456335D01*
X83571022Y-5614143D01*
X83706266Y-5966465D01*
X83877597Y-6302720D01*
X83879008Y-6304892D01*
X83879011Y-6304898D01*
X83984164Y-6466820D01*
X84083137Y-6619225D01*
X84320635Y-6912511D01*
X84587489Y-7179365D01*
X84880775Y-7416863D01*
X84924227Y-7445081D01*
X85195102Y-7620989D01*
X85195108Y-7620992D01*
X85197280Y-7622403D01*
X85533535Y-7793734D01*
X85885857Y-7928978D01*
X85888360Y-7929649D01*
X85888361Y-7929649D01*
X86247878Y-8025981D01*
X86247883Y-8025982D01*
X86250387Y-8026653D01*
X86590046Y-8080450D01*
X86644563Y-8108227D01*
X86672340Y-8162744D01*
X86662769Y-8223176D01*
X86625548Y-8263091D01*
X86545786Y-8311017D01*
X86498568Y-8339388D01*
X86494676Y-8343068D01*
X86494674Y-8343070D01*
X86434988Y-8399513D01*
X86368409Y-8462474D01*
X86267717Y-8610638D01*
X86201190Y-8776968D01*
X86171931Y-8953704D01*
X86172212Y-8959061D01*
X86179680Y-9101550D01*
X86181307Y-9132599D01*
X86228879Y-9305309D01*
X86231382Y-9310056D01*
X86231383Y-9310059D01*
X86270570Y-9384383D01*
X86312428Y-9463773D01*
X86315888Y-9467867D01*
X86315889Y-9467869D01*
X86377866Y-9541209D01*
X86428056Y-9600601D01*
X86463696Y-9627850D01*
X86566106Y-9706149D01*
X86566109Y-9706151D01*
X86570368Y-9709407D01*
X86732725Y-9785115D01*
X86737955Y-9786284D01*
X86737958Y-9786285D01*
X86846713Y-9810594D01*
X86907552Y-9824193D01*
X86911625Y-9824421D01*
X86911657Y-9824423D01*
X86911674Y-9824423D01*
X86913043Y-9824500D01*
X87044756Y-9824500D01*
X87074080Y-9821314D01*
X87172768Y-9810594D01*
X87172773Y-9810593D01*
X87178093Y-9810015D01*
X87347878Y-9752876D01*
X87476676Y-9675487D01*
X87496839Y-9663372D01*
X87496841Y-9663371D01*
X87501432Y-9660612D01*
X87507916Y-9654481D01*
X87618210Y-9550180D01*
X87631591Y-9537526D01*
X87732283Y-9389362D01*
X87787031Y-9252481D01*
X87796820Y-9228008D01*
X87796821Y-9228006D01*
X87798810Y-9223032D01*
X87807054Y-9173238D01*
X87814668Y-9127245D01*
X87828069Y-9046296D01*
X87818693Y-8867401D01*
X87771121Y-8694691D01*
X87687572Y-8536227D01*
X87677933Y-8524820D01*
X87575404Y-8403493D01*
X87575402Y-8403491D01*
X87571944Y-8399399D01*
X87489843Y-8336628D01*
X87433894Y-8293851D01*
X87433891Y-8293849D01*
X87429632Y-8290593D01*
X87424774Y-8288328D01*
X87424768Y-8288324D01*
X87381724Y-8268252D01*
X87336976Y-8226523D01*
X87325302Y-8166462D01*
X87351161Y-8111009D01*
X87408076Y-8080748D01*
X87749613Y-8026653D01*
X87752117Y-8025982D01*
X87752122Y-8025981D01*
X88111639Y-7929649D01*
X88111640Y-7929649D01*
X88114143Y-7928978D01*
X88466465Y-7793734D01*
X88802720Y-7622403D01*
X88804892Y-7620992D01*
X88804898Y-7620989D01*
X89075773Y-7445081D01*
X89119225Y-7416863D01*
X89412511Y-7179365D01*
X89679365Y-6912511D01*
X89916863Y-6619225D01*
X89918274Y-6617052D01*
X89918280Y-6617044D01*
X90120989Y-6304899D01*
X90120992Y-6304893D01*
X90122403Y-6302721D01*
X90123580Y-6300412D01*
X90266988Y-6018956D01*
X90293734Y-5966465D01*
X90428978Y-5614143D01*
X90471262Y-5456335D01*
X90525981Y-5252122D01*
X90525982Y-5252117D01*
X90526653Y-5249613D01*
X90540611Y-5161489D01*
X90585284Y-4879437D01*
X90585285Y-4879429D01*
X90585690Y-4876871D01*
X90605441Y-4500000D01*
X90585690Y-4123129D01*
X90583812Y-4111267D01*
X90527060Y-3752957D01*
X90526653Y-3750387D01*
X90428978Y-3385857D01*
X90293734Y-3033535D01*
X90122403Y-2697280D01*
X89916863Y-2380775D01*
X89679365Y-2087489D01*
X89412511Y-1820635D01*
X89119225Y-1583137D01*
X88971642Y-1487296D01*
X88804898Y-1379011D01*
X88804892Y-1379008D01*
X88802720Y-1377597D01*
X88466465Y-1206266D01*
X88114143Y-1071022D01*
X88111639Y-1070351D01*
X87752122Y-974019D01*
X87752117Y-974018D01*
X87749613Y-973347D01*
X87706881Y-966579D01*
X87379437Y-914716D01*
X87379429Y-914715D01*
X87376871Y-914310D01*
X87094280Y-899500D01*
X86905720Y-899500D01*
X86623129Y-914310D01*
X86620571Y-914715D01*
X86620563Y-914716D01*
X86293119Y-966579D01*
X86250387Y-973347D01*
X86247883Y-974018D01*
X86247878Y-974019D01*
X85888361Y-1070351D01*
X85885857Y-1071022D01*
X85533535Y-1206266D01*
X85197280Y-1377597D01*
X85195108Y-1379008D01*
X85195102Y-1379011D01*
X85028358Y-1487296D01*
X84880775Y-1583137D01*
X84587489Y-1820635D01*
X84320635Y-2087489D01*
X84083137Y-2380775D01*
X84081726Y-2382948D01*
X84081720Y-2382956D01*
X83879011Y-2695101D01*
X83879008Y-2695107D01*
X83877597Y-2697279D01*
X83876421Y-2699587D01*
X83852337Y-2746854D01*
X83706266Y-3033535D01*
X83571022Y-3385857D01*
X83473347Y-3750387D01*
X83472940Y-3752957D01*
X83416189Y-4111267D01*
X83414310Y-4123129D01*
X83394559Y-4500000D01*
X55000500Y-4500000D01*
X55000500Y-4375252D01*
X54988867Y-4316769D01*
X54944552Y-4250448D01*
X54878231Y-4206133D01*
X54868668Y-4204231D01*
X54868666Y-4204230D01*
X54845995Y-4199721D01*
X54819748Y-4194500D01*
X52180252Y-4194500D01*
X52154005Y-4199721D01*
X52131334Y-4204230D01*
X52131332Y-4204231D01*
X52121769Y-4206133D01*
X52055448Y-4250448D01*
X52011133Y-4316769D01*
X51999500Y-4375252D01*
X51999500Y-7014748D01*
X52004658Y-7040679D01*
X52007077Y-7052838D01*
X52011133Y-7073231D01*
X52055448Y-7139552D01*
X52121769Y-7183867D01*
X52131332Y-7185769D01*
X52131334Y-7185770D01*
X52154005Y-7190279D01*
X52180252Y-7195500D01*
X52700500Y-7195500D01*
X52758691Y-7214407D01*
X52794655Y-7263907D01*
X52799500Y-7294500D01*
X52799500Y-9168837D01*
X52780593Y-9227028D01*
X52770503Y-9238841D01*
X52388839Y-9620504D01*
X52334323Y-9648281D01*
X52318836Y-9649500D01*
X52046166Y-9649500D01*
X52043865Y-9649718D01*
X52043855Y-9649718D01*
X52020639Y-9651913D01*
X52020638Y-9651913D01*
X52014631Y-9652481D01*
X51886816Y-9697366D01*
X51880865Y-9701761D01*
X51880864Y-9701762D01*
X51783807Y-9773450D01*
X51777850Y-9777850D01*
X51773450Y-9783807D01*
X51709315Y-9870639D01*
X51697366Y-9886816D01*
X51666015Y-9976092D01*
X51660075Y-9993006D01*
X51622955Y-10041644D01*
X51564335Y-10059176D01*
X51506605Y-10038902D01*
X51472546Y-9989622D01*
X51472519Y-9989631D01*
X51472485Y-9989534D01*
X51427634Y-9861816D01*
X51402577Y-9827891D01*
X51351550Y-9758807D01*
X51347150Y-9752850D01*
X51309347Y-9724928D01*
X51244136Y-9676762D01*
X51244135Y-9676761D01*
X51238184Y-9672366D01*
X51110369Y-9627481D01*
X51104362Y-9626913D01*
X51104361Y-9626913D01*
X51081145Y-9624718D01*
X51081135Y-9624718D01*
X51078834Y-9624500D01*
X50021166Y-9624500D01*
X50018865Y-9624718D01*
X50018855Y-9624718D01*
X49995639Y-9626913D01*
X49995638Y-9626913D01*
X49989631Y-9627481D01*
X49861816Y-9672366D01*
X49855865Y-9676761D01*
X49855864Y-9676762D01*
X49790653Y-9724928D01*
X49752850Y-9752850D01*
X49748450Y-9758807D01*
X49697424Y-9827891D01*
X49672366Y-9861816D01*
X49627481Y-9989631D01*
X49625604Y-9988972D01*
X49599100Y-10034201D01*
X49543044Y-10058726D01*
X49483280Y-10045618D01*
X49442634Y-9999884D01*
X49439925Y-9993006D01*
X49433985Y-9976092D01*
X49402634Y-9886816D01*
X49390686Y-9870639D01*
X49326550Y-9783807D01*
X49322150Y-9777850D01*
X49290680Y-9754606D01*
X49255108Y-9704826D01*
X49250500Y-9674974D01*
X49250500Y-7053865D01*
X49269407Y-6995674D01*
X49292010Y-6973268D01*
X49468522Y-6847363D01*
X49468523Y-6847362D01*
X49471829Y-6845004D01*
X49646605Y-6670837D01*
X49790588Y-6470463D01*
X49899911Y-6249264D01*
X49901089Y-6245388D01*
X49901091Y-6245382D01*
X49970459Y-6017064D01*
X49970459Y-6017063D01*
X49971639Y-6013180D01*
X50003845Y-5768550D01*
X50005643Y-5695000D01*
X50002287Y-5654175D01*
X49985758Y-5453136D01*
X49985757Y-5453133D01*
X49985425Y-5449089D01*
X49980798Y-5430665D01*
X49935951Y-5252122D01*
X49925316Y-5209783D01*
X49826928Y-4983507D01*
X49692905Y-4776339D01*
X49526846Y-4593842D01*
X49523660Y-4591326D01*
X49523657Y-4591323D01*
X49336398Y-4443435D01*
X49336392Y-4443431D01*
X49333210Y-4440918D01*
X49293611Y-4419058D01*
X49120756Y-4323637D01*
X49120755Y-4323636D01*
X49117198Y-4321673D01*
X49113367Y-4320316D01*
X49113364Y-4320315D01*
X48888446Y-4240667D01*
X48888442Y-4240666D01*
X48884610Y-4239309D01*
X48641694Y-4196039D01*
X48637633Y-4195989D01*
X48637629Y-4195989D01*
X48524411Y-4194606D01*
X48394972Y-4193025D01*
X48151070Y-4230347D01*
X48024879Y-4271593D01*
X47920397Y-4305742D01*
X47920393Y-4305744D01*
X47916540Y-4307003D01*
X47912940Y-4308877D01*
X47701284Y-4419058D01*
X47701281Y-4419060D01*
X47697679Y-4420935D01*
X47694436Y-4423370D01*
X47694431Y-4423373D01*
X47595830Y-4497405D01*
X47500364Y-4569083D01*
X47497559Y-4572018D01*
X47497557Y-4572020D01*
X47458693Y-4612689D01*
X47329896Y-4747468D01*
X47327604Y-4750828D01*
X47197314Y-4941826D01*
X47190851Y-4951300D01*
X47189143Y-4954980D01*
X47189140Y-4954985D01*
X47170798Y-4994500D01*
X47086965Y-5175104D01*
X47021026Y-5412871D01*
X46994806Y-5658214D01*
X47009010Y-5904545D01*
X47063255Y-6145249D01*
X47064784Y-6149013D01*
X47064785Y-6149018D01*
X47126260Y-6300412D01*
X47156084Y-6373861D01*
X47285006Y-6584241D01*
X47287665Y-6587311D01*
X47287666Y-6587312D01*
X47442617Y-6766193D01*
X47446557Y-6770741D01*
X47636399Y-6928351D01*
X47800449Y-7024214D01*
X47841151Y-7069896D01*
X47849500Y-7109689D01*
X47849500Y-9674974D01*
X47830593Y-9733165D01*
X47809321Y-9754605D01*
X47777850Y-9777850D01*
X47773450Y-9783807D01*
X47709315Y-9870639D01*
X47697366Y-9886816D01*
X47652481Y-10014631D01*
X47651913Y-10020638D01*
X47651913Y-10020639D01*
X47650187Y-10038902D01*
X47649500Y-10046166D01*
X47649500Y-10853834D01*
X47649718Y-10856135D01*
X47649718Y-10856145D01*
X47651699Y-10877096D01*
X47652481Y-10885369D01*
X47697366Y-11013184D01*
X47701761Y-11019135D01*
X47701762Y-11019136D01*
X47734297Y-11063184D01*
X47777850Y-11122150D01*
X47886816Y-11202634D01*
X48014631Y-11247519D01*
X48020638Y-11248087D01*
X48020639Y-11248087D01*
X48043855Y-11250282D01*
X48043865Y-11250282D01*
X48046166Y-11250500D01*
X49053834Y-11250500D01*
X49056135Y-11250282D01*
X49056145Y-11250282D01*
X49079361Y-11248087D01*
X49079362Y-11248087D01*
X49085369Y-11247519D01*
X49213184Y-11202634D01*
X49322150Y-11122150D01*
X49365703Y-11063184D01*
X49398238Y-11019136D01*
X49398239Y-11019135D01*
X49402634Y-11013184D01*
X49427961Y-10941063D01*
X49445521Y-10891060D01*
X49445522Y-10891056D01*
X49447519Y-10885369D01*
X49448087Y-10879361D01*
X49448343Y-10878195D01*
X49479281Y-10825408D01*
X49535338Y-10800887D01*
X49595102Y-10813999D01*
X49635745Y-10859735D01*
X49638451Y-10866608D01*
X49647038Y-10891060D01*
X49672366Y-10963184D01*
X49676761Y-10969135D01*
X49676762Y-10969136D01*
X49748450Y-11066193D01*
X49752850Y-11072150D01*
X49861816Y-11152634D01*
X49989631Y-11197519D01*
X49995638Y-11198087D01*
X49995639Y-11198087D01*
X50018855Y-11200282D01*
X50018865Y-11200282D01*
X50021166Y-11200500D01*
X50659889Y-11200500D01*
X50718080Y-11219407D01*
X50729893Y-11229496D01*
X51030893Y-11530496D01*
X51058670Y-11585013D01*
X51049099Y-11645445D01*
X51005834Y-11688710D01*
X50960889Y-11699500D01*
X50021166Y-11699500D01*
X50018865Y-11699718D01*
X50018855Y-11699718D01*
X49995639Y-11701913D01*
X49995638Y-11701913D01*
X49989631Y-11702481D01*
X49861816Y-11747366D01*
X49752850Y-11827850D01*
X49748450Y-11833807D01*
X49704141Y-11893797D01*
X49672366Y-11936816D01*
X49669914Y-11943798D01*
X49668312Y-11946824D01*
X49624374Y-11989404D01*
X49580819Y-11999500D01*
X49512366Y-11999500D01*
X49454175Y-11980593D01*
X49418958Y-11933301D01*
X49405086Y-11893798D01*
X49405086Y-11893797D01*
X49402634Y-11886816D01*
X49370860Y-11843797D01*
X49326550Y-11783807D01*
X49322150Y-11777850D01*
X49213184Y-11697366D01*
X49085369Y-11652481D01*
X49079362Y-11651913D01*
X49079361Y-11651913D01*
X49056145Y-11649718D01*
X49056135Y-11649718D01*
X49053834Y-11649500D01*
X48046166Y-11649500D01*
X48043865Y-11649718D01*
X48043855Y-11649718D01*
X48020639Y-11651913D01*
X48020638Y-11651913D01*
X48014631Y-11652481D01*
X47886816Y-11697366D01*
X47777850Y-11777850D01*
X47773450Y-11783807D01*
X47729141Y-11843797D01*
X47697366Y-11886816D01*
X47652481Y-12014631D01*
X47649500Y-12046166D01*
X47649500Y-12710889D01*
X47630593Y-12769080D01*
X47581093Y-12805044D01*
X47519907Y-12805044D01*
X47480496Y-12780893D01*
X47404496Y-12704893D01*
X47376719Y-12650376D01*
X47375500Y-12634889D01*
X47375500Y-11996166D01*
X47372519Y-11964631D01*
X47327634Y-11836816D01*
X47259755Y-11744915D01*
X47251550Y-11733807D01*
X47247150Y-11727850D01*
X47209063Y-11699718D01*
X47144136Y-11651762D01*
X47144135Y-11651761D01*
X47138184Y-11647366D01*
X47010369Y-11602481D01*
X47004362Y-11601913D01*
X47004361Y-11601913D01*
X46981145Y-11599718D01*
X46981135Y-11599718D01*
X46978834Y-11599500D01*
X45921166Y-11599500D01*
X45918865Y-11599718D01*
X45918855Y-11599718D01*
X45895639Y-11601913D01*
X45895638Y-11601913D01*
X45889631Y-11602481D01*
X45761816Y-11647366D01*
X45755865Y-11651761D01*
X45755864Y-11651762D01*
X45690937Y-11699718D01*
X45652850Y-11727850D01*
X45648450Y-11733807D01*
X45640246Y-11744915D01*
X45572366Y-11836816D01*
X45527481Y-11964631D01*
X45524500Y-11996166D01*
X45524500Y-12778834D01*
X44914697Y-12778834D01*
X44947519Y-12685369D01*
X44948087Y-12679361D01*
X44950282Y-12656145D01*
X44950282Y-12656135D01*
X44950500Y-12653834D01*
X44950500Y-11646166D01*
X44947519Y-11614631D01*
X44902634Y-11486816D01*
X44869866Y-11442452D01*
X44850500Y-11383636D01*
X44850500Y-10916364D01*
X44869866Y-10857548D01*
X44902634Y-10813184D01*
X44947519Y-10685369D01*
X44950500Y-10653834D01*
X44950500Y-9646166D01*
X44947519Y-9614631D01*
X44902634Y-9486816D01*
X44894925Y-9476378D01*
X44826550Y-9383807D01*
X44822150Y-9377850D01*
X44713184Y-9297366D01*
X44585369Y-9252481D01*
X44579362Y-9251913D01*
X44579361Y-9251913D01*
X44556145Y-9249718D01*
X44556135Y-9249718D01*
X44553834Y-9249500D01*
X43746166Y-9249500D01*
X43743865Y-9249718D01*
X43743855Y-9249718D01*
X43720639Y-9251913D01*
X43720638Y-9251913D01*
X43714631Y-9252481D01*
X43586816Y-9297366D01*
X43477850Y-9377850D01*
X43473450Y-9383807D01*
X43405076Y-9476378D01*
X43397366Y-9486816D01*
X43352481Y-9614631D01*
X43349500Y-9646166D01*
X43349500Y-10653834D01*
X43352481Y-10685369D01*
X43397366Y-10813184D01*
X43430134Y-10857548D01*
X43449500Y-10916364D01*
X43449500Y-11383636D01*
X43430134Y-11442452D01*
X43397366Y-11486816D01*
X43352481Y-11614631D01*
X43349500Y-11646166D01*
X43349500Y-12653834D01*
X43349718Y-12656135D01*
X43349718Y-12656145D01*
X43351913Y-12679361D01*
X43352481Y-12685369D01*
X43354480Y-12691061D01*
X43354481Y-12691064D01*
X43363834Y-12717698D01*
X43365275Y-12778866D01*
X43330487Y-12829200D01*
X43270426Y-12849500D01*
X43236190Y-12849500D01*
X43177999Y-12830593D01*
X43166186Y-12820504D01*
X42979496Y-12633814D01*
X42951719Y-12579297D01*
X42950500Y-12563810D01*
X42950500Y-11646166D01*
X42947519Y-11614631D01*
X42902634Y-11486816D01*
X42881915Y-11458764D01*
X42826550Y-11383807D01*
X42822150Y-11377850D01*
X42713184Y-11297366D01*
X42585369Y-11252481D01*
X42579362Y-11251913D01*
X42579361Y-11251913D01*
X42556145Y-11249718D01*
X42556135Y-11249718D01*
X42553834Y-11249500D01*
X41746166Y-11249500D01*
X41743865Y-11249718D01*
X41743855Y-11249718D01*
X41720639Y-11251913D01*
X41720638Y-11251913D01*
X41714631Y-11252481D01*
X41586816Y-11297366D01*
X41477850Y-11377850D01*
X41454606Y-11409320D01*
X41404826Y-11444892D01*
X41374974Y-11449500D01*
X38583291Y-11449500D01*
X38525100Y-11430593D01*
X38489136Y-11381093D01*
X38489136Y-11319907D01*
X38525100Y-11270407D01*
X38550490Y-11257092D01*
X38556202Y-11255086D01*
X38556203Y-11255086D01*
X38563184Y-11252634D01*
X38633768Y-11200500D01*
X38666193Y-11176550D01*
X38672150Y-11172150D01*
X38676550Y-11166193D01*
X38748238Y-11069136D01*
X38748239Y-11069135D01*
X38752634Y-11063184D01*
X38797519Y-10935369D01*
X38800500Y-10903834D01*
X38800500Y-9896166D01*
X38800277Y-9893797D01*
X38798087Y-9870639D01*
X38798087Y-9870638D01*
X38797519Y-9864631D01*
X38752634Y-9736816D01*
X38748241Y-9730868D01*
X38748238Y-9730863D01*
X38744866Y-9726298D01*
X38725500Y-9667481D01*
X38725500Y-8906164D01*
X38744407Y-8847973D01*
X38754496Y-8836160D01*
X38975727Y-8614929D01*
X38980651Y-8610330D01*
X39019901Y-8576090D01*
X39024396Y-8572169D01*
X39061115Y-8519923D01*
X39064201Y-8515769D01*
X39099900Y-8470240D01*
X39103583Y-8465543D01*
X39107366Y-8457165D01*
X39116599Y-8440977D01*
X39118454Y-8438338D01*
X39118455Y-8438336D01*
X39121887Y-8433453D01*
X39145084Y-8373956D01*
X39147089Y-8369188D01*
X39170899Y-8316456D01*
X39173355Y-8311017D01*
X39175031Y-8301972D01*
X39180135Y-8284055D01*
X39181307Y-8281050D01*
X39183476Y-8275487D01*
X39184429Y-8268252D01*
X39191809Y-8212189D01*
X39192620Y-8207070D01*
X39201489Y-8159214D01*
X39204252Y-8144308D01*
X39200664Y-8082081D01*
X39200500Y-8076382D01*
X39200500Y-7141322D01*
X42418717Y-7141322D01*
X42418907Y-7142521D01*
X42423045Y-7147388D01*
X42536260Y-7230401D01*
X42542465Y-7234279D01*
X42773785Y-7355982D01*
X42780513Y-7358907D01*
X43027279Y-7445081D01*
X43034346Y-7446975D01*
X43291146Y-7495730D01*
X43298426Y-7496559D01*
X43559606Y-7506822D01*
X43566925Y-7506566D01*
X43826764Y-7478109D01*
X43833948Y-7476777D01*
X44086730Y-7410225D01*
X44093656Y-7407840D01*
X44333805Y-7304664D01*
X44340306Y-7301281D01*
X44562574Y-7163736D01*
X44568498Y-7159432D01*
X44576418Y-7152728D01*
X44583437Y-7141385D01*
X44583210Y-7138323D01*
X44581417Y-7135627D01*
X43511086Y-6065296D01*
X43499203Y-6059242D01*
X43494172Y-6060038D01*
X42424771Y-7129439D01*
X42418717Y-7141322D01*
X39200500Y-7141322D01*
X39200500Y-7084544D01*
X39219407Y-7026353D01*
X39255947Y-6995639D01*
X39270954Y-6988287D01*
X39471829Y-6845004D01*
X39646605Y-6670837D01*
X39790588Y-6470463D01*
X39899911Y-6249264D01*
X39901089Y-6245388D01*
X39901091Y-6245382D01*
X39970459Y-6017064D01*
X39970459Y-6017063D01*
X39971639Y-6013180D01*
X40003845Y-5768550D01*
X40005643Y-5695000D01*
X40002287Y-5654175D01*
X40002043Y-5651207D01*
X41687727Y-5651207D01*
X41700268Y-5912293D01*
X41701160Y-5919555D01*
X41752155Y-6175923D01*
X41754112Y-6182979D01*
X41842435Y-6428980D01*
X41845418Y-6435681D01*
X41969133Y-6665926D01*
X41973069Y-6672104D01*
X42045178Y-6768669D01*
X42056068Y-6776365D01*
X42057519Y-6776346D01*
X42062610Y-6773180D01*
X43129704Y-5706086D01*
X43134946Y-5695797D01*
X43864242Y-5695797D01*
X43865038Y-5700828D01*
X44937820Y-6773610D01*
X44949482Y-6779552D01*
X44956016Y-6773643D01*
X45091371Y-6563210D01*
X45094865Y-6556775D01*
X45202225Y-6318443D01*
X45204722Y-6311581D01*
X45275675Y-6060004D01*
X45277136Y-6052820D01*
X45310271Y-5792356D01*
X45310650Y-5787407D01*
X45313005Y-5697492D01*
X45312885Y-5692517D01*
X45293427Y-5430665D01*
X45292346Y-5423436D01*
X45234657Y-5168490D01*
X45232517Y-5161489D01*
X45137780Y-4917873D01*
X45134629Y-4911267D01*
X45004928Y-4684337D01*
X45000824Y-4678253D01*
X44955488Y-4620744D01*
X44944397Y-4613334D01*
X44942254Y-4613418D01*
X44938192Y-4616018D01*
X43870296Y-5683914D01*
X43864242Y-5695797D01*
X43134946Y-5695797D01*
X43135758Y-5694203D01*
X43134962Y-5689172D01*
X42064090Y-4618300D01*
X42052207Y-4612246D01*
X42049405Y-4612689D01*
X42046559Y-4614963D01*
X42026300Y-4639322D01*
X42022047Y-4645284D01*
X41886451Y-4868739D01*
X41883121Y-4875275D01*
X41782045Y-5116314D01*
X41779718Y-5123267D01*
X41715379Y-5376603D01*
X41714107Y-5383819D01*
X41687919Y-5643887D01*
X41687727Y-5651207D01*
X40002043Y-5651207D01*
X39985758Y-5453136D01*
X39985757Y-5453133D01*
X39985425Y-5449089D01*
X39980798Y-5430665D01*
X39935951Y-5252122D01*
X39925316Y-5209783D01*
X39826928Y-4983507D01*
X39692905Y-4776339D01*
X39526846Y-4593842D01*
X39523660Y-4591326D01*
X39523657Y-4591323D01*
X39336398Y-4443435D01*
X39336392Y-4443431D01*
X39333210Y-4440918D01*
X39293611Y-4419058D01*
X39120756Y-4323637D01*
X39120755Y-4323636D01*
X39117198Y-4321673D01*
X39113367Y-4320316D01*
X39113364Y-4320315D01*
X38910848Y-4248600D01*
X42415923Y-4248600D01*
X42420228Y-4256018D01*
X43488914Y-5324704D01*
X43500797Y-5330758D01*
X43505828Y-5329962D01*
X44576075Y-4259715D01*
X44582129Y-4247832D01*
X44582049Y-4247325D01*
X44577084Y-4241638D01*
X44423224Y-4134902D01*
X44416901Y-4131178D01*
X44182492Y-4015581D01*
X44175683Y-4012829D01*
X43926749Y-3933144D01*
X43919632Y-3931435D01*
X43661638Y-3889418D01*
X43654354Y-3888781D01*
X43392979Y-3885360D01*
X43385683Y-3885806D01*
X43126674Y-3921056D01*
X43119522Y-3922576D01*
X42868577Y-3995720D01*
X42861711Y-3998287D01*
X42624341Y-4107716D01*
X42617935Y-4111267D01*
X42424204Y-4238282D01*
X42415923Y-4248600D01*
X38910848Y-4248600D01*
X38888446Y-4240667D01*
X38888442Y-4240666D01*
X38884610Y-4239309D01*
X38641694Y-4196039D01*
X38637633Y-4195989D01*
X38637629Y-4195989D01*
X38524411Y-4194606D01*
X38394972Y-4193025D01*
X38151070Y-4230347D01*
X38024879Y-4271593D01*
X37920397Y-4305742D01*
X37920393Y-4305744D01*
X37916540Y-4307003D01*
X37912940Y-4308877D01*
X37701284Y-4419058D01*
X37701281Y-4419060D01*
X37697679Y-4420935D01*
X37694436Y-4423370D01*
X37694431Y-4423373D01*
X37595830Y-4497405D01*
X37500364Y-4569083D01*
X37497559Y-4572018D01*
X37497557Y-4572020D01*
X37458693Y-4612689D01*
X37329896Y-4747468D01*
X37193139Y-4947947D01*
X37190859Y-4951289D01*
X37142448Y-4988706D01*
X37109075Y-4994500D01*
X36566534Y-4994500D01*
X36508343Y-4975593D01*
X36479632Y-4942506D01*
X36477634Y-4936816D01*
X36463643Y-4917873D01*
X36401550Y-4833807D01*
X36397150Y-4827850D01*
X36288184Y-4747366D01*
X36160369Y-4702481D01*
X36154362Y-4701913D01*
X36154361Y-4701913D01*
X36131145Y-4699718D01*
X36131135Y-4699718D01*
X36128834Y-4699500D01*
X35196166Y-4699500D01*
X35193865Y-4699718D01*
X35193855Y-4699718D01*
X35170639Y-4701913D01*
X35170638Y-4701913D01*
X35164631Y-4702481D01*
X35036816Y-4747366D01*
X34927850Y-4827850D01*
X34923450Y-4833807D01*
X34861358Y-4917873D01*
X34847366Y-4936816D01*
X34802481Y-5064631D01*
X34799500Y-5096166D01*
X34799500Y-5456335D01*
X34780593Y-5514526D01*
X34770504Y-5526339D01*
X34611766Y-5685077D01*
X34606842Y-5689676D01*
X34563104Y-5727831D01*
X34534487Y-5768550D01*
X34526403Y-5780052D01*
X34523318Y-5784205D01*
X34483916Y-5834457D01*
X34481458Y-5839900D01*
X34481458Y-5839901D01*
X34480133Y-5842835D01*
X34470898Y-5859028D01*
X34465613Y-5866547D01*
X34463446Y-5872106D01*
X34463444Y-5872109D01*
X34442422Y-5926027D01*
X34440414Y-5930803D01*
X34414145Y-5988984D01*
X34413058Y-5994851D01*
X34412469Y-5998026D01*
X34407367Y-6015938D01*
X34404024Y-6024513D01*
X34399348Y-6060038D01*
X34395692Y-6087808D01*
X34394881Y-6092930D01*
X34385184Y-6145249D01*
X34383248Y-6155692D01*
X34384821Y-6182979D01*
X34386836Y-6217924D01*
X34387000Y-6223622D01*
X34387000Y-7525559D01*
X34367633Y-7584377D01*
X34347366Y-7611816D01*
X34302481Y-7739631D01*
X34299500Y-7771166D01*
X34299500Y-8828834D01*
X34299718Y-8831135D01*
X34299718Y-8831145D01*
X34301309Y-8847973D01*
X34302481Y-8860369D01*
X34347366Y-8988184D01*
X34427850Y-9097150D01*
X34536816Y-9177634D01*
X34664631Y-9222519D01*
X34670638Y-9223087D01*
X34670639Y-9223087D01*
X34693855Y-9225282D01*
X34693865Y-9225282D01*
X34696166Y-9225500D01*
X35478834Y-9225500D01*
X35481135Y-9225282D01*
X35481145Y-9225282D01*
X35504361Y-9223087D01*
X35504362Y-9223087D01*
X35510369Y-9222519D01*
X35638184Y-9177634D01*
X35747150Y-9097150D01*
X35827634Y-8988184D01*
X35872519Y-8860369D01*
X35873691Y-8847973D01*
X35875282Y-8831145D01*
X35875282Y-8831135D01*
X35875500Y-8828834D01*
X35875500Y-7771166D01*
X35872519Y-7739631D01*
X35827634Y-7611816D01*
X35807367Y-7584377D01*
X35788000Y-7525559D01*
X35788000Y-6999500D01*
X35806907Y-6941309D01*
X35856407Y-6905345D01*
X35887000Y-6900500D01*
X36128834Y-6900500D01*
X36131135Y-6900282D01*
X36131145Y-6900282D01*
X36154361Y-6898087D01*
X36154362Y-6898087D01*
X36160369Y-6897519D01*
X36288184Y-6852634D01*
X36295321Y-6847363D01*
X36391193Y-6776550D01*
X36397150Y-6772150D01*
X36471046Y-6672104D01*
X36473238Y-6669136D01*
X36473239Y-6669135D01*
X36477634Y-6663184D01*
X36522519Y-6535369D01*
X36525500Y-6503834D01*
X36525500Y-6494500D01*
X36544407Y-6436309D01*
X36593907Y-6400345D01*
X36624500Y-6395500D01*
X37113902Y-6395500D01*
X37172093Y-6414407D01*
X37198312Y-6442771D01*
X37285006Y-6584241D01*
X37287665Y-6587311D01*
X37287666Y-6587312D01*
X37442617Y-6766193D01*
X37446557Y-6770741D01*
X37636399Y-6928351D01*
X37658574Y-6941309D01*
X37750448Y-6994996D01*
X37791151Y-7040679D01*
X37799500Y-7080472D01*
X37799500Y-7768835D01*
X37780593Y-7827026D01*
X37770504Y-7838839D01*
X37549265Y-8060078D01*
X37544341Y-8064677D01*
X37525920Y-8080747D01*
X37500604Y-8102831D01*
X37497173Y-8107713D01*
X37497172Y-8107714D01*
X37494856Y-8111009D01*
X37467326Y-8150182D01*
X37463903Y-8155052D01*
X37460818Y-8159205D01*
X37421416Y-8209457D01*
X37418958Y-8214900D01*
X37418958Y-8214901D01*
X37417633Y-8217835D01*
X37408398Y-8234028D01*
X37403113Y-8241547D01*
X37400946Y-8247106D01*
X37400944Y-8247109D01*
X37379922Y-8301027D01*
X37377914Y-8305803D01*
X37351645Y-8363984D01*
X37350027Y-8372713D01*
X37349969Y-8373026D01*
X37344867Y-8390938D01*
X37341524Y-8399513D01*
X37340745Y-8405432D01*
X37333192Y-8462808D01*
X37332384Y-8467914D01*
X37326420Y-8500087D01*
X37323135Y-8517815D01*
X37320748Y-8530692D01*
X37324336Y-8592924D01*
X37324500Y-8598622D01*
X37324500Y-9667481D01*
X37305134Y-9726298D01*
X37301762Y-9730863D01*
X37301759Y-9730868D01*
X37297366Y-9736816D01*
X37252481Y-9864631D01*
X37251913Y-9870638D01*
X37251913Y-9870639D01*
X37249724Y-9893797D01*
X37249500Y-9896166D01*
X37249500Y-10903834D01*
X37252481Y-10935369D01*
X37297366Y-11063184D01*
X37301761Y-11069135D01*
X37301762Y-11069136D01*
X37373450Y-11166193D01*
X37377850Y-11172150D01*
X37383807Y-11176550D01*
X37416233Y-11200500D01*
X37486816Y-11252634D01*
X37614631Y-11297519D01*
X37620638Y-11298087D01*
X37620639Y-11298087D01*
X37643855Y-11300282D01*
X37643865Y-11300282D01*
X37646166Y-11300500D01*
X38045572Y-11300500D01*
X38103763Y-11319407D01*
X38139727Y-11368907D01*
X38139727Y-11430093D01*
X38103763Y-11479593D01*
X38088427Y-11488744D01*
X38051281Y-11506581D01*
X38051278Y-11506583D01*
X38045674Y-11509274D01*
X38041726Y-11512592D01*
X38040218Y-11514100D01*
X38038929Y-11515282D01*
X38037903Y-11516148D01*
X38032206Y-11519222D01*
X38026655Y-11525227D01*
X38026650Y-11525231D01*
X37998191Y-11556018D01*
X37995497Y-11558821D01*
X37536063Y-12018255D01*
X37519760Y-12031420D01*
X37517726Y-12032733D01*
X37517722Y-12032736D01*
X37510848Y-12037175D01*
X37491015Y-12062332D01*
X37487101Y-12066737D01*
X37487102Y-12066738D01*
X37484449Y-12069869D01*
X37481572Y-12072746D01*
X37470956Y-12087601D01*
X37468170Y-12091312D01*
X37438608Y-12128811D01*
X37436042Y-12136118D01*
X37435395Y-12137363D01*
X37430889Y-12143669D01*
X37428545Y-12151508D01*
X37417208Y-12189415D01*
X37415767Y-12193851D01*
X37399945Y-12238906D01*
X37399500Y-12244044D01*
X37399500Y-12246182D01*
X37399426Y-12247901D01*
X37399311Y-12249262D01*
X37397456Y-12255464D01*
X37397777Y-12263635D01*
X37399424Y-12305554D01*
X37399500Y-12309441D01*
X37399500Y-12850500D01*
X37380593Y-12908691D01*
X37331093Y-12944655D01*
X37300500Y-12949500D01*
X36949500Y-12949500D01*
X36891309Y-12930593D01*
X36855345Y-12881093D01*
X36850500Y-12850500D01*
X36850500Y-10857627D01*
X36851186Y-10845991D01*
X36854494Y-10818038D01*
X36855364Y-10810690D01*
X36844749Y-10752567D01*
X36844240Y-10749510D01*
X36836549Y-10698353D01*
X36836549Y-10698352D01*
X36835449Y-10691038D01*
X36832323Y-10684528D01*
X36831026Y-10677427D01*
X36803796Y-10625005D01*
X36802408Y-10622227D01*
X36780017Y-10575600D01*
X36780015Y-10575596D01*
X36776809Y-10568921D01*
X36772703Y-10564480D01*
X36771183Y-10562224D01*
X36768580Y-10557212D01*
X36767029Y-10555397D01*
X36750500Y-10501287D01*
X36750500Y-9896166D01*
X36750277Y-9893797D01*
X36748087Y-9870639D01*
X36748087Y-9870638D01*
X36747519Y-9864631D01*
X36702634Y-9736816D01*
X36693854Y-9724928D01*
X36626550Y-9633807D01*
X36622150Y-9627850D01*
X36513184Y-9547366D01*
X36385369Y-9502481D01*
X36379362Y-9501913D01*
X36379361Y-9501913D01*
X36356145Y-9499718D01*
X36356135Y-9499718D01*
X36353834Y-9499500D01*
X35596166Y-9499500D01*
X35593865Y-9499718D01*
X35593855Y-9499718D01*
X35570639Y-9501913D01*
X35570638Y-9501913D01*
X35564631Y-9502481D01*
X35436816Y-9547366D01*
X35327850Y-9627850D01*
X35323450Y-9633807D01*
X35256147Y-9724928D01*
X35247366Y-9736816D01*
X35202481Y-9864631D01*
X35201913Y-9870638D01*
X35201913Y-9870639D01*
X35199724Y-9893797D01*
X35199500Y-9896166D01*
X35199500Y-10903834D01*
X35202481Y-10935369D01*
X35247366Y-11063184D01*
X35251761Y-11069135D01*
X35251762Y-11069136D01*
X35323450Y-11166193D01*
X35327850Y-11172150D01*
X35333807Y-11176550D01*
X35366233Y-11200500D01*
X35436816Y-11252634D01*
X35564631Y-11297519D01*
X35570638Y-11298087D01*
X35570639Y-11298087D01*
X35593855Y-11300282D01*
X35593865Y-11300282D01*
X35596166Y-11300500D01*
X35850500Y-11300500D01*
X35908691Y-11319407D01*
X35944655Y-11368907D01*
X35949500Y-11399500D01*
X35949500Y-12850500D01*
X35930593Y-12908691D01*
X35881093Y-12944655D01*
X35850500Y-12949500D01*
X35430252Y-12949500D01*
X35404005Y-12954721D01*
X35381334Y-12959230D01*
X35381332Y-12959231D01*
X35371769Y-12961133D01*
X35305448Y-13005448D01*
X35261133Y-13071769D01*
X35249500Y-13130252D01*
X35249500Y-13969748D01*
X35261133Y-14028231D01*
X35305448Y-14094552D01*
X35371769Y-14138867D01*
X35381332Y-14140769D01*
X35381334Y-14140770D01*
X35404005Y-14145279D01*
X35430252Y-14150500D01*
X37369748Y-14150500D01*
X37395995Y-14145279D01*
X37418666Y-14140770D01*
X37418668Y-14140769D01*
X37428231Y-14138867D01*
X37491442Y-14096630D01*
X37497334Y-14094968D01*
X37502324Y-14082921D01*
X37524655Y-14049500D01*
X37538867Y-14028231D01*
X37549553Y-13974512D01*
X37550083Y-13971845D01*
X37579980Y-13918461D01*
X37635544Y-13892845D01*
X37641012Y-13892198D01*
X37641013Y-13892198D01*
X37649138Y-13891236D01*
X37656122Y-13887882D01*
X37657454Y-13887461D01*
X37665103Y-13886188D01*
X37707160Y-13863495D01*
X37711283Y-13861395D01*
X37748717Y-13843420D01*
X37748721Y-13843418D01*
X37754326Y-13840726D01*
X37758274Y-13837408D01*
X37759782Y-13835900D01*
X37761071Y-13834718D01*
X37762097Y-13833852D01*
X37767794Y-13830778D01*
X37773345Y-13824773D01*
X37773350Y-13824769D01*
X37801809Y-13793982D01*
X37804503Y-13791179D01*
X37963937Y-13631745D01*
X37980240Y-13618580D01*
X37982274Y-13617267D01*
X37982278Y-13617264D01*
X37989152Y-13612825D01*
X38008984Y-13587668D01*
X38012900Y-13583262D01*
X38012899Y-13583261D01*
X38015550Y-13580132D01*
X38018429Y-13577253D01*
X38024036Y-13569407D01*
X38029037Y-13562409D01*
X38031836Y-13558681D01*
X38053002Y-13531831D01*
X38061392Y-13521189D01*
X38063957Y-13513886D01*
X38064609Y-13512631D01*
X38069111Y-13506330D01*
X38082791Y-13460588D01*
X38084232Y-13456154D01*
X38097992Y-13416970D01*
X38097993Y-13416966D01*
X38100055Y-13411094D01*
X38100500Y-13405956D01*
X38100500Y-13403818D01*
X38100574Y-13402099D01*
X38100689Y-13400738D01*
X38102544Y-13394536D01*
X38100576Y-13344446D01*
X38100500Y-13340559D01*
X38100500Y-13164185D01*
X38119407Y-13105994D01*
X38168907Y-13070030D01*
X38230093Y-13070030D01*
X38281815Y-13109183D01*
X38305448Y-13144552D01*
X38371769Y-13188867D01*
X38381332Y-13190769D01*
X38381334Y-13190770D01*
X38399620Y-13194407D01*
X38430252Y-13200500D01*
X40369748Y-13200500D01*
X40388801Y-13196710D01*
X40449563Y-13203900D01*
X40478122Y-13223803D01*
X40718253Y-13463934D01*
X40731418Y-13480236D01*
X40737175Y-13489152D01*
X40749024Y-13498493D01*
X40762328Y-13508981D01*
X40766737Y-13512898D01*
X40766738Y-13512897D01*
X40769867Y-13515548D01*
X40772747Y-13518428D01*
X40776065Y-13520799D01*
X40776066Y-13520800D01*
X40787584Y-13529031D01*
X40791313Y-13531831D01*
X40828811Y-13561392D01*
X40836116Y-13563957D01*
X40837366Y-13564607D01*
X40843669Y-13569111D01*
X40874967Y-13578471D01*
X40889415Y-13582792D01*
X40893851Y-13584233D01*
X40911934Y-13590583D01*
X40937294Y-13599489D01*
X40937296Y-13599490D01*
X40938906Y-13600055D01*
X40938798Y-13600362D01*
X40988618Y-13629301D01*
X41013358Y-13685261D01*
X41012836Y-13709641D01*
X41004500Y-13766782D01*
X41004500Y-13950500D01*
X40985593Y-14008691D01*
X40936093Y-14044655D01*
X40905500Y-14049500D01*
X40610313Y-14049500D01*
X40552122Y-14030593D01*
X40527998Y-14005503D01*
X40505508Y-13971845D01*
X40494552Y-13955448D01*
X40428231Y-13911133D01*
X40418668Y-13909231D01*
X40418666Y-13909230D01*
X40395995Y-13904721D01*
X40369748Y-13899500D01*
X38430252Y-13899500D01*
X38404005Y-13904721D01*
X38381334Y-13909230D01*
X38381332Y-13909231D01*
X38371769Y-13911133D01*
X38305448Y-13955448D01*
X38294492Y-13971845D01*
X38272002Y-14005503D01*
X38223951Y-14043381D01*
X38189687Y-14049500D01*
X38035126Y-14049500D01*
X38023490Y-14048814D01*
X38021953Y-14048632D01*
X37988189Y-14044636D01*
X37980913Y-14045965D01*
X37980909Y-14045965D01*
X37930073Y-14055250D01*
X37927005Y-14055761D01*
X37879993Y-14062829D01*
X37868538Y-14064551D01*
X37862025Y-14067679D01*
X37854927Y-14068975D01*
X37828080Y-14082921D01*
X37802520Y-14096198D01*
X37799738Y-14097588D01*
X37753092Y-14119987D01*
X37753089Y-14119989D01*
X37746421Y-14123191D01*
X37741979Y-14127297D01*
X37739719Y-14128820D01*
X37734712Y-14131421D01*
X37729672Y-14135725D01*
X37692040Y-14173357D01*
X37689238Y-14176050D01*
X37651841Y-14210620D01*
X37636438Y-14217721D01*
X37616448Y-14248949D01*
X36219893Y-15645504D01*
X36165376Y-15673281D01*
X36149889Y-15674500D01*
X35511166Y-15674500D01*
X35508865Y-15674718D01*
X35508855Y-15674718D01*
X35485639Y-15676913D01*
X35485638Y-15676913D01*
X35479631Y-15677481D01*
X35351816Y-15722366D01*
X35345865Y-15726761D01*
X35345864Y-15726762D01*
X35311813Y-15751913D01*
X35242850Y-15802850D01*
X35238917Y-15808175D01*
X35184732Y-15835782D01*
X35169248Y-15837000D01*
X33150544Y-15837000D01*
X33117742Y-15831408D01*
X33041064Y-15804481D01*
X33041065Y-15804481D01*
X33035369Y-15802481D01*
X33029362Y-15801913D01*
X33029361Y-15801913D01*
X33006145Y-15799718D01*
X33006135Y-15799718D01*
X33003834Y-15799500D01*
X31596166Y-15799500D01*
X31593865Y-15799718D01*
X31593855Y-15799718D01*
X31570639Y-15801913D01*
X31570638Y-15801913D01*
X31564631Y-15802481D01*
X31558935Y-15804481D01*
X31558936Y-15804481D01*
X31482258Y-15831408D01*
X31449456Y-15837000D01*
X19025126Y-15837000D01*
X19013490Y-15836314D01*
X19008995Y-15835782D01*
X18978189Y-15832136D01*
X18970913Y-15833465D01*
X18970909Y-15833465D01*
X18920073Y-15842750D01*
X18917005Y-15843261D01*
X18872367Y-15849972D01*
X18858538Y-15852051D01*
X18852025Y-15855179D01*
X18844927Y-15856475D01*
X18812248Y-15873450D01*
X18792502Y-15883707D01*
X18789736Y-15885090D01*
X18736421Y-15910691D01*
X18731981Y-15914795D01*
X18729718Y-15916320D01*
X18724711Y-15918921D01*
X18719672Y-15923225D01*
X18682040Y-15960857D01*
X18679237Y-15963551D01*
X18642376Y-15997624D01*
X18642374Y-15997627D01*
X18636944Y-16002646D01*
X18633422Y-16008710D01*
X18626862Y-16016035D01*
X16259935Y-18382962D01*
X16205418Y-18410739D01*
X16144986Y-18401168D01*
X16101721Y-18357903D01*
X16091778Y-18300037D01*
X16094885Y-18276435D01*
X16094885Y-18276434D01*
X16095732Y-18270000D01*
X16093694Y-18254516D01*
X16089263Y-18220861D01*
X16075092Y-18113225D01*
X16014579Y-17967134D01*
X15918317Y-17841683D01*
X15792866Y-17745421D01*
X15646775Y-17684908D01*
X15490000Y-17664268D01*
X15333225Y-17684908D01*
X15187134Y-17745421D01*
X15181985Y-17749372D01*
X15117253Y-17799042D01*
X15056986Y-17819500D01*
X10862626Y-17819500D01*
X10850990Y-17818814D01*
X10849453Y-17818632D01*
X10815689Y-17814636D01*
X10808413Y-17815965D01*
X10808409Y-17815965D01*
X10757573Y-17825250D01*
X10754505Y-17825761D01*
X10707494Y-17832829D01*
X10696038Y-17834551D01*
X10689525Y-17837679D01*
X10682427Y-17838975D01*
X10630020Y-17866198D01*
X10627238Y-17867588D01*
X10580592Y-17889987D01*
X10580589Y-17889989D01*
X10573921Y-17893191D01*
X10569479Y-17897297D01*
X10567219Y-17898820D01*
X10562212Y-17901421D01*
X10557172Y-17905725D01*
X10519540Y-17943357D01*
X10516737Y-17946051D01*
X10479876Y-17980124D01*
X10479874Y-17980127D01*
X10474444Y-17985146D01*
X10470922Y-17991210D01*
X10464362Y-17998535D01*
X9124516Y-19338381D01*
X9115804Y-19346122D01*
X9087890Y-19368128D01*
X9054423Y-19416552D01*
X9054292Y-19416741D01*
X9052483Y-19419272D01*
X9025763Y-19455448D01*
X9017366Y-19466816D01*
X9014973Y-19473632D01*
X9010869Y-19479569D01*
X9008636Y-19486628D01*
X9008636Y-19486629D01*
X8993049Y-19535915D01*
X8992082Y-19538814D01*
X8972481Y-19594631D01*
X8972244Y-19600673D01*
X8971723Y-19603347D01*
X8970020Y-19608730D01*
X8969500Y-19615337D01*
X8969500Y-19668541D01*
X8969424Y-19672428D01*
X8968165Y-19704478D01*
X8967162Y-19729994D01*
X8968959Y-19736772D01*
X8969500Y-19746597D01*
X8969500Y-32097373D01*
X8968814Y-32109009D01*
X8964636Y-32144310D01*
X8586800Y-32144310D01*
X8585690Y-32123129D01*
X8585095Y-32119369D01*
X8529746Y-31769917D01*
X8526653Y-31750387D01*
X8523826Y-31739834D01*
X8429649Y-31388361D01*
X8429649Y-31388360D01*
X8428978Y-31385857D01*
X8293734Y-31033535D01*
X8122403Y-30697280D01*
X7916863Y-30380775D01*
X7679365Y-30087489D01*
X7412511Y-29820635D01*
X7119225Y-29583137D01*
X6948948Y-29472558D01*
X6804898Y-29379011D01*
X6804892Y-29379008D01*
X6802720Y-29377597D01*
X6466465Y-29206266D01*
X6114143Y-29071022D01*
X6111639Y-29070351D01*
X5752122Y-28974019D01*
X5752117Y-28974018D01*
X5749613Y-28973347D01*
X5409954Y-28919550D01*
X5355437Y-28891773D01*
X5327660Y-28837256D01*
X5337231Y-28776824D01*
X5374452Y-28736909D01*
X5496839Y-28663372D01*
X5496841Y-28663371D01*
X5501432Y-28660612D01*
X5539036Y-28625052D01*
X5571027Y-28594798D01*
X5631591Y-28537526D01*
X5732283Y-28389362D01*
X5798810Y-28223032D01*
X5801023Y-28209668D01*
X5827193Y-28051585D01*
X5828069Y-28046296D01*
X5822226Y-27934812D01*
X5818974Y-27872755D01*
X5818973Y-27872751D01*
X5818693Y-27867401D01*
X5771121Y-27694691D01*
X5760326Y-27674215D01*
X5695459Y-27551186D01*
X5687572Y-27536227D01*
X5683268Y-27531133D01*
X5575404Y-27403493D01*
X5575402Y-27403491D01*
X5571944Y-27399399D01*
X5489843Y-27336628D01*
X5433894Y-27293851D01*
X5433891Y-27293849D01*
X5429632Y-27290593D01*
X5267275Y-27214885D01*
X5262045Y-27213716D01*
X5262042Y-27213715D01*
X5096407Y-27176692D01*
X5096408Y-27176692D01*
X5092448Y-27175807D01*
X5088375Y-27175579D01*
X5088343Y-27175577D01*
X5088326Y-27175577D01*
X5086957Y-27175500D01*
X4955244Y-27175500D01*
X4925920Y-27178686D01*
X4827232Y-27189406D01*
X4827227Y-27189407D01*
X4821907Y-27189985D01*
X4652122Y-27247124D01*
X4498568Y-27339388D01*
X4494676Y-27343068D01*
X4494674Y-27343070D01*
X4434886Y-27399609D01*
X4368409Y-27462474D01*
X4267717Y-27610638D01*
X4246555Y-27663547D01*
X4204665Y-27768281D01*
X4201190Y-27776968D01*
X4200316Y-27782250D01*
X4200315Y-27782252D01*
X4198934Y-27790593D01*
X4171931Y-27953704D01*
X4173538Y-27984362D01*
X4176800Y-28046597D01*
X4181307Y-28132599D01*
X4228879Y-28305309D01*
X4312428Y-28463773D01*
X4315888Y-28467867D01*
X4315889Y-28467869D01*
X4424596Y-28596507D01*
X4428056Y-28600601D01*
X4432315Y-28603857D01*
X4566106Y-28706149D01*
X4566109Y-28706151D01*
X4570368Y-28709407D01*
X4575226Y-28711672D01*
X4575232Y-28711676D01*
X4618276Y-28731748D01*
X4663024Y-28773477D01*
X4674698Y-28833538D01*
X4648839Y-28888991D01*
X4591924Y-28919252D01*
X4250387Y-28973347D01*
X4247883Y-28974018D01*
X4247878Y-28974019D01*
X3888361Y-29070351D01*
X3885857Y-29071022D01*
X3533535Y-29206266D01*
X3197280Y-29377597D01*
X3195108Y-29379008D01*
X3195102Y-29379011D01*
X3051052Y-29472558D01*
X2880775Y-29583137D01*
X2587489Y-29820635D01*
X2320635Y-30087489D01*
X2083137Y-30380775D01*
X2081726Y-30382948D01*
X2081720Y-30382956D01*
X1879011Y-30695101D01*
X1879008Y-30695107D01*
X1877597Y-30697279D01*
X1876421Y-30699587D01*
X1870884Y-30710454D01*
X1706266Y-31033535D01*
X1571022Y-31385857D01*
X1570351Y-31388360D01*
X1570351Y-31388361D01*
X1476175Y-31739834D01*
X1473347Y-31750387D01*
X1470254Y-31769917D01*
X1414906Y-32119369D01*
X1414310Y-32123129D01*
X1394559Y-32500000D01*
X200000Y-32500000D01*
X200000Y-20967315D01*
X2890485Y-20967315D01*
X2945065Y-21194659D01*
X2947459Y-21202026D01*
X3041343Y-21428681D01*
X3044865Y-21435593D01*
X3173046Y-21644764D01*
X3177601Y-21651035D01*
X3336928Y-21837582D01*
X3342418Y-21843072D01*
X3528965Y-22002399D01*
X3535236Y-22006954D01*
X3744407Y-22135135D01*
X3751319Y-22138657D01*
X3977974Y-22232541D01*
X3985341Y-22234935D01*
X4210753Y-22289052D01*
X4223452Y-22288052D01*
X4226000Y-22279018D01*
X4226000Y-22277032D01*
X4734000Y-22277032D01*
X4737936Y-22289147D01*
X4747315Y-22289515D01*
X4974659Y-22234935D01*
X4982026Y-22232541D01*
X5208681Y-22138657D01*
X5215593Y-22135135D01*
X5424764Y-22006954D01*
X5431035Y-22002399D01*
X5617582Y-21843072D01*
X5623072Y-21837582D01*
X5782399Y-21651035D01*
X5786954Y-21644764D01*
X5915135Y-21435593D01*
X5918657Y-21428681D01*
X6012541Y-21202026D01*
X6014935Y-21194659D01*
X6069052Y-20969247D01*
X6068052Y-20956548D01*
X6059018Y-20954000D01*
X4749680Y-20954000D01*
X4736995Y-20958122D01*
X4734000Y-20962243D01*
X4734000Y-22277032D01*
X4226000Y-22277032D01*
X4226000Y-20969680D01*
X4221878Y-20956995D01*
X4217757Y-20954000D01*
X2902968Y-20954000D01*
X2890853Y-20957936D01*
X2890485Y-20967315D01*
X200000Y-20967315D01*
X200000Y-20430753D01*
X2890948Y-20430753D01*
X2891948Y-20443452D01*
X2900982Y-20446000D01*
X4210320Y-20446000D01*
X4223005Y-20441878D01*
X4226000Y-20437757D01*
X4226000Y-20430320D01*
X4734000Y-20430320D01*
X4738122Y-20443005D01*
X4742243Y-20446000D01*
X6057032Y-20446000D01*
X6069147Y-20442064D01*
X6069515Y-20432685D01*
X6014935Y-20205341D01*
X6012541Y-20197974D01*
X5918657Y-19971319D01*
X5915135Y-19964407D01*
X5786954Y-19755236D01*
X5782399Y-19748965D01*
X5623072Y-19562418D01*
X5617582Y-19556928D01*
X5431035Y-19397601D01*
X5424764Y-19393046D01*
X5215593Y-19264865D01*
X5208681Y-19261343D01*
X4982026Y-19167459D01*
X4974659Y-19165065D01*
X4749247Y-19110948D01*
X4736548Y-19111948D01*
X4734000Y-19120982D01*
X4734000Y-20430320D01*
X4226000Y-20430320D01*
X4226000Y-19122968D01*
X4222064Y-19110853D01*
X4212685Y-19110485D01*
X3985341Y-19165065D01*
X3977974Y-19167459D01*
X3751319Y-19261343D01*
X3744407Y-19264865D01*
X3535236Y-19393046D01*
X3528965Y-19397601D01*
X3342418Y-19556928D01*
X3336928Y-19562418D01*
X3177601Y-19748965D01*
X3173046Y-19755236D01*
X3044865Y-19964407D01*
X3041343Y-19971319D01*
X2947459Y-20197974D01*
X2945065Y-20205341D01*
X2890948Y-20430753D01*
X200000Y-20430753D01*
X200000Y-4500000D01*
X1394559Y-4500000D01*
X1414310Y-4876871D01*
X1414715Y-4879429D01*
X1414716Y-4879437D01*
X1459389Y-5161489D01*
X1473347Y-5249613D01*
X1474018Y-5252117D01*
X1474019Y-5252122D01*
X1528738Y-5456335D01*
X1571022Y-5614143D01*
X1706266Y-5966465D01*
X1877597Y-6302720D01*
X1879008Y-6304892D01*
X1879011Y-6304898D01*
X1984164Y-6466820D01*
X2083137Y-6619225D01*
X2320635Y-6912511D01*
X2587489Y-7179365D01*
X2880775Y-7416863D01*
X2924227Y-7445081D01*
X3195102Y-7620989D01*
X3195108Y-7620992D01*
X3197280Y-7622403D01*
X3533535Y-7793734D01*
X3885857Y-7928978D01*
X3888360Y-7929649D01*
X3888361Y-7929649D01*
X4247878Y-8025981D01*
X4247883Y-8025982D01*
X4250387Y-8026653D01*
X4590046Y-8080450D01*
X4644563Y-8108227D01*
X4672340Y-8162744D01*
X4662769Y-8223176D01*
X4625548Y-8263091D01*
X4545786Y-8311017D01*
X4498568Y-8339388D01*
X4494676Y-8343068D01*
X4494674Y-8343070D01*
X4434988Y-8399513D01*
X4368409Y-8462474D01*
X4267717Y-8610638D01*
X4201190Y-8776968D01*
X4171931Y-8953704D01*
X4172212Y-8959061D01*
X4179680Y-9101550D01*
X4181307Y-9132599D01*
X4228879Y-9305309D01*
X4231382Y-9310056D01*
X4231383Y-9310059D01*
X4270570Y-9384383D01*
X4312428Y-9463773D01*
X4315888Y-9467867D01*
X4315889Y-9467869D01*
X4377866Y-9541209D01*
X4428056Y-9600601D01*
X4463696Y-9627850D01*
X4566106Y-9706149D01*
X4566109Y-9706151D01*
X4570368Y-9709407D01*
X4732725Y-9785115D01*
X4737955Y-9786284D01*
X4737958Y-9786285D01*
X4846713Y-9810594D01*
X4907552Y-9824193D01*
X4911625Y-9824421D01*
X4911657Y-9824423D01*
X4911674Y-9824423D01*
X4913043Y-9824500D01*
X5044756Y-9824500D01*
X5074080Y-9821314D01*
X5172768Y-9810594D01*
X5172773Y-9810593D01*
X5178093Y-9810015D01*
X5347878Y-9752876D01*
X5476676Y-9675487D01*
X5496839Y-9663372D01*
X5496841Y-9663371D01*
X5501432Y-9660612D01*
X5507916Y-9654481D01*
X5618210Y-9550180D01*
X5631591Y-9537526D01*
X5732283Y-9389362D01*
X5787031Y-9252481D01*
X5796820Y-9228008D01*
X5796821Y-9228006D01*
X5798810Y-9223032D01*
X5807054Y-9173238D01*
X5814668Y-9127245D01*
X5828069Y-9046296D01*
X5818693Y-8867401D01*
X5771121Y-8694691D01*
X5687572Y-8536227D01*
X5677933Y-8524820D01*
X5575404Y-8403493D01*
X5575402Y-8403491D01*
X5571944Y-8399399D01*
X5489843Y-8336628D01*
X5433894Y-8293851D01*
X5433891Y-8293849D01*
X5429632Y-8290593D01*
X5424774Y-8288328D01*
X5424768Y-8288324D01*
X5381724Y-8268252D01*
X5336976Y-8226523D01*
X5325302Y-8166462D01*
X5351161Y-8111009D01*
X5408076Y-8080748D01*
X5749613Y-8026653D01*
X5752117Y-8025982D01*
X5752122Y-8025981D01*
X6111639Y-7929649D01*
X6111640Y-7929649D01*
X6114143Y-7928978D01*
X6466465Y-7793734D01*
X6802720Y-7622403D01*
X6804892Y-7620992D01*
X6804898Y-7620989D01*
X7075773Y-7445081D01*
X7119225Y-7416863D01*
X7412511Y-7179365D01*
X7679365Y-6912511D01*
X7916863Y-6619225D01*
X7918274Y-6617052D01*
X7918280Y-6617044D01*
X8120989Y-6304899D01*
X8120992Y-6304893D01*
X8122403Y-6302721D01*
X8123580Y-6300412D01*
X8266988Y-6018956D01*
X8293734Y-5966465D01*
X8428978Y-5614143D01*
X8471262Y-5456335D01*
X8525981Y-5252122D01*
X8525982Y-5252117D01*
X8526653Y-5249613D01*
X8540611Y-5161489D01*
X8585284Y-4879437D01*
X8585285Y-4879429D01*
X8585690Y-4876871D01*
X8605441Y-4500000D01*
X8585690Y-4123129D01*
X8583812Y-4111267D01*
X8527060Y-3752957D01*
X8526653Y-3750387D01*
X8428978Y-3385857D01*
X8293734Y-3033535D01*
X8122403Y-2697280D01*
X7916863Y-2380775D01*
X7679365Y-2087489D01*
X7412511Y-1820635D01*
X7119225Y-1583137D01*
X6971642Y-1487296D01*
X6804898Y-1379011D01*
X6804892Y-1379008D01*
X6802720Y-1377597D01*
X6466465Y-1206266D01*
X6114143Y-1071022D01*
X6111639Y-1070351D01*
X5752122Y-974019D01*
X5752117Y-974018D01*
X5749613Y-973347D01*
X5706881Y-966579D01*
X5379437Y-914716D01*
X5379429Y-914715D01*
X5376871Y-914310D01*
X5094280Y-899500D01*
X4905720Y-899500D01*
X4623129Y-914310D01*
X4620571Y-914715D01*
X4620563Y-914716D01*
X4293119Y-966579D01*
X4250387Y-973347D01*
X4247883Y-974018D01*
X4247878Y-974019D01*
X3888361Y-1070351D01*
X3885857Y-1071022D01*
X3533535Y-1206266D01*
X3197280Y-1377597D01*
X3195108Y-1379008D01*
X3195102Y-1379011D01*
X3028358Y-1487296D01*
X2880775Y-1583137D01*
X2587489Y-1820635D01*
X2320635Y-2087489D01*
X2083137Y-2380775D01*
X2081726Y-2382948D01*
X2081720Y-2382956D01*
X1879011Y-2695101D01*
X1879008Y-2695107D01*
X1877597Y-2697279D01*
X1876421Y-2699587D01*
X1852337Y-2746854D01*
X1706266Y-3033535D01*
X1571022Y-3385857D01*
X1473347Y-3750387D01*
X1472940Y-3752957D01*
X1416189Y-4111267D01*
X1414310Y-4123129D01*
X1394559Y-4500000D01*
X200000Y-4500000D01*
X200000Y-1033960D01*
X202518Y-1011773D01*
X202562Y-1011583D01*
X205143Y-1000358D01*
X202682Y-989484D01*
X202702Y-978335D01*
X203716Y-978337D01*
X203105Y-968476D01*
X209892Y-899569D01*
X214416Y-853630D01*
X218202Y-834598D01*
X258066Y-703183D01*
X265493Y-685252D01*
X296078Y-628033D01*
X330228Y-564143D01*
X341008Y-548009D01*
X418546Y-453527D01*
X428131Y-441848D01*
X441848Y-428131D01*
X548009Y-341008D01*
X564144Y-330227D01*
X634771Y-292476D01*
X685255Y-265492D01*
X703183Y-258066D01*
X768891Y-238134D01*
X834600Y-218202D01*
X853630Y-214416D01*
X968499Y-203103D01*
X978371Y-202626D01*
X988775Y-202644D01*
X999642Y-205143D01*
X1011583Y-202441D01*
X1033432Y-200000D01*
X90966040Y-200000D01*
X90988227Y-202518D01*
G37*
%TD.AperFunction*%
%TA.AperFunction,Conductor*%
G36*
X19903550Y-22529407D02*
G01*
X19939514Y-22578907D01*
X19939514Y-22640093D01*
X19931095Y-22659002D01*
X19929375Y-22661981D01*
X19925421Y-22667134D01*
X19922938Y-22673129D01*
X19922936Y-22673133D01*
X19867392Y-22807228D01*
X19864908Y-22813225D01*
X19853411Y-22900553D01*
X19825262Y-22957635D01*
X19542393Y-23240504D01*
X19487876Y-23268281D01*
X19472389Y-23269500D01*
X18805252Y-23269500D01*
X18779005Y-23274721D01*
X18756334Y-23279230D01*
X18756332Y-23279231D01*
X18746769Y-23281133D01*
X18680448Y-23325448D01*
X18636133Y-23391769D01*
X18624500Y-23450252D01*
X18624500Y-24549748D01*
X18622135Y-24549748D01*
X18610980Y-24600567D01*
X18565240Y-24641206D01*
X18525574Y-24649500D01*
X17874426Y-24649500D01*
X17816235Y-24630593D01*
X17780271Y-24581093D01*
X17776872Y-24549748D01*
X17775500Y-24549748D01*
X17775500Y-23450252D01*
X17763867Y-23391769D01*
X17719552Y-23325448D01*
X17653231Y-23281133D01*
X17643668Y-23279231D01*
X17643666Y-23279230D01*
X17620995Y-23274721D01*
X17594748Y-23269500D01*
X16905252Y-23269500D01*
X16879005Y-23274721D01*
X16856334Y-23279230D01*
X16856332Y-23279231D01*
X16846769Y-23281133D01*
X16780448Y-23325448D01*
X16736133Y-23391769D01*
X16724500Y-23450252D01*
X16724500Y-24549748D01*
X16736133Y-24608231D01*
X16780448Y-24674552D01*
X16846769Y-24718867D01*
X16856332Y-24720769D01*
X16856334Y-24720770D01*
X16879005Y-24725279D01*
X16905252Y-24730500D01*
X17119327Y-24730500D01*
X17177518Y-24749407D01*
X17213482Y-24798907D01*
X17213482Y-24860093D01*
X17189331Y-24899504D01*
X16954512Y-25134323D01*
X16945798Y-25142065D01*
X16931051Y-25153691D01*
X16917890Y-25164066D01*
X16896856Y-25194500D01*
X16884292Y-25212679D01*
X16882488Y-25215202D01*
X16847366Y-25262754D01*
X16844973Y-25269570D01*
X16840869Y-25275507D01*
X16838636Y-25282566D01*
X16838636Y-25282567D01*
X16823049Y-25331853D01*
X16822082Y-25334752D01*
X16802481Y-25390569D01*
X16802244Y-25396611D01*
X16801723Y-25399285D01*
X16800020Y-25404668D01*
X16799500Y-25411275D01*
X16799500Y-25464478D01*
X16799424Y-25468358D01*
X16799277Y-25472106D01*
X16779770Y-25524995D01*
X16780448Y-25525448D01*
X16776610Y-25531191D01*
X16776608Y-25531194D01*
X16760047Y-25555980D01*
X16736133Y-25591769D01*
X16724500Y-25650252D01*
X16724500Y-26749748D01*
X16736133Y-26808231D01*
X16775000Y-26866399D01*
X16780448Y-26874552D01*
X16777832Y-26876300D01*
X16798281Y-26916434D01*
X16799500Y-26931921D01*
X16799500Y-27422389D01*
X16780593Y-27480580D01*
X16770504Y-27492393D01*
X16624516Y-27638381D01*
X16615804Y-27646122D01*
X16587890Y-27668128D01*
X16583683Y-27674215D01*
X16554292Y-27716741D01*
X16552488Y-27719264D01*
X16517366Y-27766816D01*
X16514973Y-27773632D01*
X16510869Y-27779569D01*
X16508636Y-27786628D01*
X16508636Y-27786629D01*
X16493049Y-27835915D01*
X16492082Y-27838814D01*
X16472481Y-27894631D01*
X16472244Y-27900673D01*
X16471723Y-27903347D01*
X16470020Y-27908730D01*
X16469500Y-27915337D01*
X16469500Y-27968541D01*
X16469424Y-27972428D01*
X16467162Y-28029994D01*
X16468959Y-28036772D01*
X16469500Y-28046597D01*
X16469500Y-29720115D01*
X16450593Y-29778306D01*
X16416366Y-29807849D01*
X16346295Y-29844481D01*
X16346290Y-29844484D01*
X16342002Y-29846726D01*
X16338231Y-29849758D01*
X16185220Y-29972781D01*
X16185217Y-29972783D01*
X16181447Y-29975815D01*
X16178333Y-29979526D01*
X16178332Y-29979527D01*
X16077970Y-30099134D01*
X16049024Y-30133630D01*
X16046689Y-30137878D01*
X16046688Y-30137879D01*
X16039955Y-30150126D01*
X15949776Y-30314162D01*
X15948313Y-30318775D01*
X15948311Y-30318779D01*
X15928645Y-30380775D01*
X15887484Y-30510532D01*
X15886944Y-30515344D01*
X15886944Y-30515345D01*
X15885865Y-30524970D01*
X15864520Y-30715262D01*
X15881759Y-30920553D01*
X15883092Y-30925201D01*
X15883092Y-30925202D01*
X15925023Y-31071431D01*
X15938544Y-31118586D01*
X16032712Y-31301818D01*
X16160677Y-31463270D01*
X16164357Y-31466402D01*
X16164359Y-31466404D01*
X16240638Y-31531322D01*
X16317564Y-31596791D01*
X16321787Y-31599151D01*
X16321791Y-31599154D01*
X16413364Y-31650332D01*
X16497398Y-31697297D01*
X16501996Y-31698791D01*
X16688724Y-31759463D01*
X16688726Y-31759464D01*
X16693329Y-31760959D01*
X16897894Y-31785351D01*
X16902716Y-31784980D01*
X16902719Y-31784980D01*
X16970541Y-31779761D01*
X17103300Y-31769546D01*
X17301725Y-31714145D01*
X17306038Y-31711966D01*
X17306044Y-31711964D01*
X17481289Y-31623441D01*
X17481291Y-31623440D01*
X17485610Y-31621258D01*
X17492295Y-31616035D01*
X17589550Y-31540052D01*
X17647045Y-31519125D01*
X17705861Y-31535991D01*
X17743530Y-31584205D01*
X17749500Y-31618065D01*
X17749500Y-31762389D01*
X17730593Y-31820580D01*
X17720504Y-31832393D01*
X17362393Y-32190504D01*
X17307876Y-32218281D01*
X17292389Y-32219500D01*
X16050252Y-32219500D01*
X16024005Y-32224721D01*
X16001334Y-32229230D01*
X16001332Y-32229231D01*
X15991769Y-32231133D01*
X15925448Y-32275448D01*
X15881133Y-32341769D01*
X15869500Y-32400252D01*
X15869500Y-32720500D01*
X15850593Y-32778691D01*
X15801093Y-32814655D01*
X15770500Y-32819500D01*
X15307611Y-32819500D01*
X15249420Y-32800593D01*
X15237607Y-32790504D01*
X15169496Y-32722393D01*
X15141719Y-32667876D01*
X15140500Y-32652389D01*
X15140500Y-23287611D01*
X15159407Y-23229420D01*
X15169496Y-23217607D01*
X15847607Y-22539496D01*
X15902124Y-22511719D01*
X15917611Y-22510500D01*
X19845359Y-22510500D01*
X19903550Y-22529407D01*
G37*
%TD.AperFunction*%
%TA.AperFunction,Conductor*%
G36*
X15117253Y-18740958D02*
G01*
X15174554Y-18784926D01*
X15187134Y-18794579D01*
X15333225Y-18855092D01*
X15490000Y-18875732D01*
X15496434Y-18874885D01*
X15496435Y-18874885D01*
X15520037Y-18871778D01*
X15580198Y-18882929D01*
X15622314Y-18927311D01*
X15630300Y-18987973D01*
X15602962Y-19039935D01*
X14422393Y-20220504D01*
X14367876Y-20248281D01*
X14352389Y-20249500D01*
X13499500Y-20249500D01*
X13441309Y-20230593D01*
X13405345Y-20181093D01*
X13400500Y-20150500D01*
X13400500Y-19580252D01*
X13388867Y-19521769D01*
X13344552Y-19455448D01*
X13278231Y-19411133D01*
X13268668Y-19409231D01*
X13268666Y-19409230D01*
X13245995Y-19404721D01*
X13219748Y-19399500D01*
X10980252Y-19399500D01*
X10954005Y-19404721D01*
X10931334Y-19409230D01*
X10931332Y-19409231D01*
X10921769Y-19411133D01*
X10855448Y-19455448D01*
X10811133Y-19521769D01*
X10799500Y-19580252D01*
X10799500Y-21819748D01*
X10811133Y-21878231D01*
X10855448Y-21944552D01*
X10921769Y-21988867D01*
X10931332Y-21990769D01*
X10931334Y-21990770D01*
X10954005Y-21995279D01*
X10980252Y-22000500D01*
X11550500Y-22000500D01*
X11608691Y-22019407D01*
X11644655Y-22068907D01*
X11649500Y-22099500D01*
X11649500Y-23160500D01*
X11630593Y-23218691D01*
X11581093Y-23254655D01*
X11550500Y-23259500D01*
X10200252Y-23259500D01*
X10174005Y-23264721D01*
X10151334Y-23269230D01*
X10151332Y-23269231D01*
X10141769Y-23271133D01*
X10075448Y-23315448D01*
X10070029Y-23323558D01*
X10051815Y-23350817D01*
X10003765Y-23388696D01*
X9942627Y-23391098D01*
X9891753Y-23357105D01*
X9870500Y-23295815D01*
X9870500Y-19907611D01*
X9889407Y-19849420D01*
X9899496Y-19837607D01*
X10987607Y-18749496D01*
X11042124Y-18721719D01*
X11057611Y-18720500D01*
X15056986Y-18720500D01*
X15117253Y-18740958D01*
G37*
%TD.AperFunction*%
%TD*%
M02*
