%TF.GenerationSoftware,KiCad,Pcbnew,(6.0.0)*%
%TF.CreationDate,2022-01-14T12:25:06-05:00*%
%TF.ProjectId,ADC-board-HX711,4144432d-626f-4617-9264-2d4858373131,rev?*%
%TF.SameCoordinates,Original*%
%TF.FileFunction,Legend,Bot*%
%TF.FilePolarity,Positive*%
%FSLAX46Y46*%
G04 Gerber Fmt 4.6, Leading zero omitted, Abs format (unit mm)*
G04 Created by KiCad (PCBNEW (6.0.0)) date 2022-01-14 12:25:06*
%MOMM*%
%LPD*%
G01*
G04 APERTURE LIST*
%ADD10C,0.150000*%
%ADD11C,0.200000*%
%ADD12C,0.120000*%
G04 APERTURE END LIST*
D10*
X29600000Y-20800000D02*
X29600000Y-18400000D01*
X30700000Y-20800000D02*
X29600000Y-20800000D01*
X35600000Y-20800000D02*
X30700000Y-20800000D01*
X41723607Y-16276394D02*
G75*
G03*
X41723607Y-16276394I-223607J0D01*
G01*
X17440000Y-25120000D02*
G75*
G03*
X17440000Y-25120000I-200000J0D01*
G01*
D11*
X26600000Y-35338095D02*
X26552380Y-35242857D01*
X26552380Y-35100000D01*
X26600000Y-34957142D01*
X26695238Y-34861904D01*
X26790476Y-34814285D01*
X26980952Y-34766666D01*
X27123809Y-34766666D01*
X27314285Y-34814285D01*
X27409523Y-34861904D01*
X27504761Y-34957142D01*
X27552380Y-35100000D01*
X27552380Y-35195238D01*
X27504761Y-35338095D01*
X27457142Y-35385714D01*
X27123809Y-35385714D01*
X27123809Y-35195238D01*
X27552380Y-35814285D02*
X26552380Y-35814285D01*
X27552380Y-36385714D01*
X26552380Y-36385714D01*
X27552380Y-36861904D02*
X26552380Y-36861904D01*
X26552380Y-37100000D01*
X26600000Y-37242857D01*
X26695238Y-37338095D01*
X26790476Y-37385714D01*
X26980952Y-37433333D01*
X27123809Y-37433333D01*
X27314285Y-37385714D01*
X27409523Y-37338095D01*
X27504761Y-37242857D01*
X27552380Y-37100000D01*
X27552380Y-36861904D01*
X26700000Y-27138095D02*
X26652380Y-27042857D01*
X26652380Y-26900000D01*
X26700000Y-26757142D01*
X26795238Y-26661904D01*
X26890476Y-26614285D01*
X27080952Y-26566666D01*
X27223809Y-26566666D01*
X27414285Y-26614285D01*
X27509523Y-26661904D01*
X27604761Y-26757142D01*
X27652380Y-26900000D01*
X27652380Y-26995238D01*
X27604761Y-27138095D01*
X27557142Y-27185714D01*
X27223809Y-27185714D01*
X27223809Y-26995238D01*
X27652380Y-27614285D02*
X26652380Y-27614285D01*
X27652380Y-28185714D01*
X26652380Y-28185714D01*
X27652380Y-28661904D02*
X26652380Y-28661904D01*
X26652380Y-28900000D01*
X26700000Y-29042857D01*
X26795238Y-29138095D01*
X26890476Y-29185714D01*
X27080952Y-29233333D01*
X27223809Y-29233333D01*
X27414285Y-29185714D01*
X27509523Y-29138095D01*
X27604761Y-29042857D01*
X27652380Y-28900000D01*
X27652380Y-28661904D01*
X24100000Y-27138095D02*
X24052380Y-27042857D01*
X24052380Y-26900000D01*
X24100000Y-26757142D01*
X24195238Y-26661904D01*
X24290476Y-26614285D01*
X24480952Y-26566666D01*
X24623809Y-26566666D01*
X24814285Y-26614285D01*
X24909523Y-26661904D01*
X25004761Y-26757142D01*
X25052380Y-26900000D01*
X25052380Y-26995238D01*
X25004761Y-27138095D01*
X24957142Y-27185714D01*
X24623809Y-27185714D01*
X24623809Y-26995238D01*
X25052380Y-27614285D02*
X24052380Y-27614285D01*
X25052380Y-28185714D01*
X24052380Y-28185714D01*
X25052380Y-28661904D02*
X24052380Y-28661904D01*
X24052380Y-28900000D01*
X24100000Y-29042857D01*
X24195238Y-29138095D01*
X24290476Y-29185714D01*
X24480952Y-29233333D01*
X24623809Y-29233333D01*
X24814285Y-29185714D01*
X24909523Y-29138095D01*
X25004761Y-29042857D01*
X25052380Y-28900000D01*
X25052380Y-28661904D01*
X18995238Y-29585714D02*
X18947619Y-29442857D01*
X18947619Y-29204761D01*
X18995238Y-29109523D01*
X19042857Y-29061904D01*
X19138095Y-29014285D01*
X19233333Y-29014285D01*
X19328571Y-29061904D01*
X19376190Y-29109523D01*
X19423809Y-29204761D01*
X19471428Y-29395238D01*
X19519047Y-29490476D01*
X19566666Y-29538095D01*
X19661904Y-29585714D01*
X19757142Y-29585714D01*
X19852380Y-29538095D01*
X19900000Y-29490476D01*
X19947619Y-29395238D01*
X19947619Y-29157142D01*
X19900000Y-29014285D01*
X19042857Y-28014285D02*
X18995238Y-28061904D01*
X18947619Y-28204761D01*
X18947619Y-28300000D01*
X18995238Y-28442857D01*
X19090476Y-28538095D01*
X19185714Y-28585714D01*
X19376190Y-28633333D01*
X19519047Y-28633333D01*
X19709523Y-28585714D01*
X19804761Y-28538095D01*
X19900000Y-28442857D01*
X19947619Y-28300000D01*
X19947619Y-28204761D01*
X19900000Y-28061904D01*
X19852380Y-28014285D01*
X18947619Y-27585714D02*
X19947619Y-27585714D01*
X18947619Y-27014285D02*
X19519047Y-27442857D01*
X19947619Y-27014285D02*
X19376190Y-27585714D01*
X21828571Y-37385714D02*
X21828571Y-36623809D01*
X21447619Y-37004761D02*
X22209523Y-37004761D01*
X22447619Y-35671428D02*
X22447619Y-36147619D01*
X21971428Y-36195238D01*
X22019047Y-36147619D01*
X22066666Y-36052380D01*
X22066666Y-35814285D01*
X22019047Y-35719047D01*
X21971428Y-35671428D01*
X21876190Y-35623809D01*
X21638095Y-35623809D01*
X21542857Y-35671428D01*
X21495238Y-35719047D01*
X21447619Y-35814285D01*
X21447619Y-36052380D01*
X21495238Y-36147619D01*
X21542857Y-36195238D01*
X22447619Y-35338095D02*
X21447619Y-35004761D01*
X22447619Y-34671428D01*
X14547619Y-31100000D02*
X15547619Y-31100000D01*
X15547619Y-30861904D01*
X15500000Y-30719047D01*
X15404761Y-30623809D01*
X15309523Y-30576190D01*
X15119047Y-30528571D01*
X14976190Y-30528571D01*
X14785714Y-30576190D01*
X14690476Y-30623809D01*
X14595238Y-30719047D01*
X14547619Y-30861904D01*
X14547619Y-31100000D01*
X14833333Y-30147619D02*
X14833333Y-29671428D01*
X14547619Y-30242857D02*
X15547619Y-29909523D01*
X14547619Y-29576190D01*
X15547619Y-29385714D02*
X15547619Y-28814285D01*
X14547619Y-29100000D02*
X15547619Y-29100000D01*
X14833333Y-28528571D02*
X14833333Y-28052380D01*
X14547619Y-28623809D02*
X15547619Y-28290476D01*
X14547619Y-27957142D01*
D10*
X91534745Y-36957099D02*
X91534745Y-37671385D01*
X91582364Y-37814242D01*
X91677602Y-37909480D01*
X91820459Y-37957099D01*
X91915698Y-37957099D01*
X90582364Y-37957099D02*
X91058555Y-37957099D01*
X91058555Y-36957099D01*
X89677602Y-37861861D02*
X89725221Y-37909480D01*
X89868078Y-37957099D01*
X89963317Y-37957099D01*
X90106174Y-37909480D01*
X90201412Y-37814242D01*
X90249031Y-37719004D01*
X90296650Y-37528528D01*
X90296650Y-37385671D01*
X90249031Y-37195195D01*
X90201412Y-37099957D01*
X90106174Y-37004719D01*
X89963317Y-36957099D01*
X89868078Y-36957099D01*
X89725221Y-37004719D01*
X89677602Y-37052338D01*
X88963317Y-36957099D02*
X88963317Y-37671385D01*
X89010936Y-37814242D01*
X89106174Y-37909480D01*
X89249031Y-37957099D01*
X89344269Y-37957099D01*
X88010936Y-37957099D02*
X88487126Y-37957099D01*
X88487126Y-36957099D01*
X87106174Y-37861861D02*
X87153793Y-37909480D01*
X87296650Y-37957099D01*
X87391888Y-37957099D01*
X87534745Y-37909480D01*
X87629983Y-37814242D01*
X87677602Y-37719004D01*
X87725221Y-37528528D01*
X87725221Y-37385671D01*
X87677602Y-37195195D01*
X87629983Y-37099957D01*
X87534745Y-37004719D01*
X87391888Y-36957099D01*
X87296650Y-36957099D01*
X87153793Y-37004719D01*
X87106174Y-37052338D01*
X86391888Y-36957099D02*
X86391888Y-37671385D01*
X86439507Y-37814242D01*
X86534745Y-37909480D01*
X86677602Y-37957099D01*
X86772840Y-37957099D01*
X85439507Y-37957099D02*
X85915698Y-37957099D01*
X85915698Y-36957099D01*
X84534745Y-37861861D02*
X84582364Y-37909480D01*
X84725221Y-37957099D01*
X84820459Y-37957099D01*
X84963317Y-37909480D01*
X85058555Y-37814242D01*
X85106174Y-37719004D01*
X85153793Y-37528528D01*
X85153793Y-37385671D01*
X85106174Y-37195195D01*
X85058555Y-37099957D01*
X84963317Y-37004719D01*
X84820459Y-36957099D01*
X84725221Y-36957099D01*
X84582364Y-37004719D01*
X84534745Y-37052338D01*
X83820459Y-36957099D02*
X83820459Y-37671385D01*
X83868078Y-37814242D01*
X83963317Y-37909480D01*
X84106174Y-37957099D01*
X84201412Y-37957099D01*
X82868078Y-37957099D02*
X83344269Y-37957099D01*
X83344269Y-36957099D01*
X81963317Y-37861861D02*
X82010936Y-37909480D01*
X82153793Y-37957099D01*
X82249031Y-37957099D01*
X82391888Y-37909480D01*
X82487126Y-37814242D01*
X82534745Y-37719004D01*
X82582364Y-37528528D01*
X82582364Y-37385671D01*
X82534745Y-37195195D01*
X82487126Y-37099957D01*
X82391888Y-37004719D01*
X82249031Y-36957099D01*
X82153793Y-36957099D01*
X82010936Y-37004719D01*
X81963317Y-37052338D01*
D11*
X21595238Y-29400000D02*
X21547619Y-29257142D01*
X21547619Y-29019047D01*
X21595238Y-28923809D01*
X21642857Y-28876190D01*
X21738095Y-28828571D01*
X21833333Y-28828571D01*
X21928571Y-28876190D01*
X21976190Y-28923809D01*
X22023809Y-29019047D01*
X22071428Y-29209523D01*
X22119047Y-29304761D01*
X22166666Y-29352380D01*
X22261904Y-29400000D01*
X22357142Y-29400000D01*
X22452380Y-29352380D01*
X22500000Y-29304761D01*
X22547619Y-29209523D01*
X22547619Y-28971428D01*
X22500000Y-28828571D01*
X22547619Y-28495238D02*
X21547619Y-28257142D01*
X22261904Y-28066666D01*
X21547619Y-27876190D01*
X22547619Y-27638095D01*
X21547619Y-26495238D02*
X22547619Y-26495238D01*
X21547619Y-26019047D02*
X22547619Y-26019047D01*
X21547619Y-25447619D01*
X22547619Y-25447619D01*
X29212857Y-15976857D02*
X29784285Y-15976857D01*
X29784285Y-14776857D01*
X28355714Y-15919714D02*
X28470000Y-15976857D01*
X28698571Y-15976857D01*
X28812857Y-15919714D01*
X28870000Y-15805428D01*
X28870000Y-15348285D01*
X28812857Y-15234000D01*
X28698571Y-15176857D01*
X28470000Y-15176857D01*
X28355714Y-15234000D01*
X28298571Y-15348285D01*
X28298571Y-15462571D01*
X28870000Y-15576857D01*
X27270000Y-15976857D02*
X27270000Y-15348285D01*
X27327142Y-15234000D01*
X27441428Y-15176857D01*
X27670000Y-15176857D01*
X27784285Y-15234000D01*
X27270000Y-15919714D02*
X27384285Y-15976857D01*
X27670000Y-15976857D01*
X27784285Y-15919714D01*
X27841428Y-15805428D01*
X27841428Y-15691142D01*
X27784285Y-15576857D01*
X27670000Y-15519714D01*
X27384285Y-15519714D01*
X27270000Y-15462571D01*
X26812857Y-15176857D02*
X26527142Y-15976857D01*
X26241428Y-15176857D01*
X25327142Y-15919714D02*
X25441428Y-15976857D01*
X25670000Y-15976857D01*
X25784285Y-15919714D01*
X25841428Y-15805428D01*
X25841428Y-15348285D01*
X25784285Y-15234000D01*
X25670000Y-15176857D01*
X25441428Y-15176857D01*
X25327142Y-15234000D01*
X25270000Y-15348285D01*
X25270000Y-15462571D01*
X25841428Y-15576857D01*
X23670000Y-15976857D02*
X23784285Y-15919714D01*
X23841428Y-15862571D01*
X23898571Y-15748285D01*
X23898571Y-15405428D01*
X23841428Y-15291142D01*
X23784285Y-15234000D01*
X23670000Y-15176857D01*
X23498571Y-15176857D01*
X23384285Y-15234000D01*
X23327142Y-15291142D01*
X23270000Y-15405428D01*
X23270000Y-15748285D01*
X23327142Y-15862571D01*
X23384285Y-15919714D01*
X23498571Y-15976857D01*
X23670000Y-15976857D01*
X22755714Y-15176857D02*
X22755714Y-16376857D01*
X22755714Y-15234000D02*
X22641428Y-15176857D01*
X22412857Y-15176857D01*
X22298571Y-15234000D01*
X22241428Y-15291142D01*
X22184285Y-15405428D01*
X22184285Y-15748285D01*
X22241428Y-15862571D01*
X22298571Y-15919714D01*
X22412857Y-15976857D01*
X22641428Y-15976857D01*
X22755714Y-15919714D01*
X21212857Y-15919714D02*
X21327142Y-15976857D01*
X21555714Y-15976857D01*
X21670000Y-15919714D01*
X21727142Y-15805428D01*
X21727142Y-15348285D01*
X21670000Y-15234000D01*
X21555714Y-15176857D01*
X21327142Y-15176857D01*
X21212857Y-15234000D01*
X21155714Y-15348285D01*
X21155714Y-15462571D01*
X21727142Y-15576857D01*
X20641428Y-15176857D02*
X20641428Y-15976857D01*
X20641428Y-15291142D02*
X20584285Y-15234000D01*
X20470000Y-15176857D01*
X20298571Y-15176857D01*
X20184285Y-15234000D01*
X20127142Y-15348285D01*
X20127142Y-15976857D01*
X18812857Y-15176857D02*
X18355714Y-15176857D01*
X18641428Y-15976857D02*
X18641428Y-14948285D01*
X18584285Y-14834000D01*
X18470000Y-14776857D01*
X18355714Y-14776857D01*
X17784285Y-15976857D02*
X17898571Y-15919714D01*
X17955714Y-15862571D01*
X18012857Y-15748285D01*
X18012857Y-15405428D01*
X17955714Y-15291142D01*
X17898571Y-15234000D01*
X17784285Y-15176857D01*
X17612857Y-15176857D01*
X17498571Y-15234000D01*
X17441428Y-15291142D01*
X17384285Y-15405428D01*
X17384285Y-15748285D01*
X17441428Y-15862571D01*
X17498571Y-15919714D01*
X17612857Y-15976857D01*
X17784285Y-15976857D01*
X16870000Y-15976857D02*
X16870000Y-15176857D01*
X16870000Y-15405428D02*
X16812857Y-15291142D01*
X16755714Y-15234000D01*
X16641428Y-15176857D01*
X16527142Y-15176857D01*
X15041428Y-15291142D02*
X15155714Y-15234000D01*
X15212857Y-15176857D01*
X15270000Y-15062571D01*
X15270000Y-15005428D01*
X15212857Y-14891142D01*
X15155714Y-14834000D01*
X15041428Y-14776857D01*
X14812857Y-14776857D01*
X14698571Y-14834000D01*
X14641428Y-14891142D01*
X14584285Y-15005428D01*
X14584285Y-15062571D01*
X14641428Y-15176857D01*
X14698571Y-15234000D01*
X14812857Y-15291142D01*
X15041428Y-15291142D01*
X15155714Y-15348285D01*
X15212857Y-15405428D01*
X15270000Y-15519714D01*
X15270000Y-15748285D01*
X15212857Y-15862571D01*
X15155714Y-15919714D01*
X15041428Y-15976857D01*
X14812857Y-15976857D01*
X14698571Y-15919714D01*
X14641428Y-15862571D01*
X14584285Y-15748285D01*
X14584285Y-15519714D01*
X14641428Y-15405428D01*
X14698571Y-15348285D01*
X14812857Y-15291142D01*
X13841428Y-14776857D02*
X13727142Y-14776857D01*
X13612857Y-14834000D01*
X13555714Y-14891142D01*
X13498571Y-15005428D01*
X13441428Y-15234000D01*
X13441428Y-15519714D01*
X13498571Y-15748285D01*
X13555714Y-15862571D01*
X13612857Y-15919714D01*
X13727142Y-15976857D01*
X13841428Y-15976857D01*
X13955714Y-15919714D01*
X14012857Y-15862571D01*
X14070000Y-15748285D01*
X14127142Y-15519714D01*
X14127142Y-15234000D01*
X14070000Y-15005428D01*
X14012857Y-14891142D01*
X13955714Y-14834000D01*
X13841428Y-14776857D01*
X12927142Y-15976857D02*
X12927142Y-14776857D01*
X12927142Y-15348285D02*
X12241428Y-15348285D01*
X12241428Y-15976857D02*
X12241428Y-14776857D01*
X11784285Y-15176857D02*
X11155714Y-15176857D01*
X11784285Y-15976857D01*
X11155714Y-15976857D01*
X29841428Y-17851714D02*
X29670000Y-17908857D01*
X29384285Y-17908857D01*
X29270000Y-17851714D01*
X29212857Y-17794571D01*
X29155714Y-17680285D01*
X29155714Y-17566000D01*
X29212857Y-17451714D01*
X29270000Y-17394571D01*
X29384285Y-17337428D01*
X29612857Y-17280285D01*
X29727142Y-17223142D01*
X29784285Y-17166000D01*
X29841428Y-17051714D01*
X29841428Y-16937428D01*
X29784285Y-16823142D01*
X29727142Y-16766000D01*
X29612857Y-16708857D01*
X29327142Y-16708857D01*
X29155714Y-16766000D01*
X28470000Y-17908857D02*
X28584285Y-17851714D01*
X28641428Y-17794571D01*
X28698571Y-17680285D01*
X28698571Y-17337428D01*
X28641428Y-17223142D01*
X28584285Y-17166000D01*
X28470000Y-17108857D01*
X28298571Y-17108857D01*
X28184285Y-17166000D01*
X28127142Y-17223142D01*
X28070000Y-17337428D01*
X28070000Y-17680285D01*
X28127142Y-17794571D01*
X28184285Y-17851714D01*
X28298571Y-17908857D01*
X28470000Y-17908857D01*
X27384285Y-17908857D02*
X27498571Y-17851714D01*
X27555714Y-17737428D01*
X27555714Y-16708857D01*
X26412857Y-17908857D02*
X26412857Y-16708857D01*
X26412857Y-17851714D02*
X26527142Y-17908857D01*
X26755714Y-17908857D01*
X26870000Y-17851714D01*
X26927142Y-17794571D01*
X26984285Y-17680285D01*
X26984285Y-17337428D01*
X26927142Y-17223142D01*
X26870000Y-17166000D01*
X26755714Y-17108857D01*
X26527142Y-17108857D01*
X26412857Y-17166000D01*
X25384285Y-17851714D02*
X25498571Y-17908857D01*
X25727142Y-17908857D01*
X25841428Y-17851714D01*
X25898571Y-17737428D01*
X25898571Y-17280285D01*
X25841428Y-17166000D01*
X25727142Y-17108857D01*
X25498571Y-17108857D01*
X25384285Y-17166000D01*
X25327142Y-17280285D01*
X25327142Y-17394571D01*
X25898571Y-17508857D01*
X24812857Y-17908857D02*
X24812857Y-17108857D01*
X24812857Y-17337428D02*
X24755714Y-17223142D01*
X24698571Y-17166000D01*
X24584285Y-17108857D01*
X24469999Y-17108857D01*
X22641428Y-17851714D02*
X22755714Y-17908857D01*
X22984285Y-17908857D01*
X23098571Y-17851714D01*
X23155714Y-17794571D01*
X23212857Y-17680285D01*
X23212857Y-17337428D01*
X23155714Y-17223142D01*
X23098571Y-17166000D01*
X22984285Y-17108857D01*
X22755714Y-17108857D01*
X22641428Y-17166000D01*
X21955714Y-17908857D02*
X22069999Y-17851714D01*
X22127142Y-17737428D01*
X22127142Y-16708857D01*
X21327142Y-17908857D02*
X21441428Y-17851714D01*
X21498571Y-17794571D01*
X21555714Y-17680285D01*
X21555714Y-17337428D01*
X21498571Y-17223142D01*
X21441428Y-17166000D01*
X21327142Y-17108857D01*
X21155714Y-17108857D01*
X21041428Y-17166000D01*
X20984285Y-17223142D01*
X20927142Y-17337428D01*
X20927142Y-17680285D01*
X20984285Y-17794571D01*
X21041428Y-17851714D01*
X21155714Y-17908857D01*
X21327142Y-17908857D01*
X20469999Y-17851714D02*
X20355714Y-17908857D01*
X20127142Y-17908857D01*
X20012857Y-17851714D01*
X19955714Y-17737428D01*
X19955714Y-17680285D01*
X20012857Y-17566000D01*
X20127142Y-17508857D01*
X20298571Y-17508857D01*
X20412857Y-17451714D01*
X20469999Y-17337428D01*
X20469999Y-17280285D01*
X20412857Y-17166000D01*
X20298571Y-17108857D01*
X20127142Y-17108857D01*
X20012857Y-17166000D01*
X18984285Y-17851714D02*
X19098571Y-17908857D01*
X19327142Y-17908857D01*
X19441428Y-17851714D01*
X19498571Y-17737428D01*
X19498571Y-17280285D01*
X19441428Y-17166000D01*
X19327142Y-17108857D01*
X19098571Y-17108857D01*
X18984285Y-17166000D01*
X18927142Y-17280285D01*
X18927142Y-17394571D01*
X19498571Y-17508857D01*
X17898571Y-17908857D02*
X17898571Y-16708857D01*
X17898571Y-17851714D02*
X18012857Y-17908857D01*
X18241428Y-17908857D01*
X18355714Y-17851714D01*
X18412857Y-17794571D01*
X18469999Y-17680285D01*
X18469999Y-17337428D01*
X18412857Y-17223142D01*
X18355714Y-17166000D01*
X18241428Y-17108857D01*
X18012857Y-17108857D01*
X17898571Y-17166000D01*
X16584285Y-17108857D02*
X16127142Y-17108857D01*
X16412857Y-17908857D02*
X16412857Y-16880285D01*
X16355714Y-16766000D01*
X16241428Y-16708857D01*
X16127142Y-16708857D01*
X15555714Y-17908857D02*
X15669999Y-17851714D01*
X15727142Y-17794571D01*
X15784285Y-17680285D01*
X15784285Y-17337428D01*
X15727142Y-17223142D01*
X15669999Y-17166000D01*
X15555714Y-17108857D01*
X15384285Y-17108857D01*
X15269999Y-17166000D01*
X15212857Y-17223142D01*
X15155714Y-17337428D01*
X15155714Y-17680285D01*
X15212857Y-17794571D01*
X15269999Y-17851714D01*
X15384285Y-17908857D01*
X15555714Y-17908857D01*
X14641428Y-17908857D02*
X14641428Y-17108857D01*
X14641428Y-17337428D02*
X14584285Y-17223142D01*
X14527142Y-17166000D01*
X14412857Y-17108857D01*
X14298571Y-17108857D01*
X12355714Y-17908857D02*
X13041428Y-17908857D01*
X12698571Y-17908857D02*
X12698571Y-16708857D01*
X12812857Y-16880285D01*
X12927142Y-16994571D01*
X13041428Y-17051714D01*
X11612857Y-16708857D02*
X11498571Y-16708857D01*
X11384285Y-16766000D01*
X11327142Y-16823142D01*
X11269999Y-16937428D01*
X11212857Y-17166000D01*
X11212857Y-17451714D01*
X11269999Y-17680285D01*
X11327142Y-17794571D01*
X11384285Y-17851714D01*
X11498571Y-17908857D01*
X11612857Y-17908857D01*
X11727142Y-17851714D01*
X11784285Y-17794571D01*
X11841428Y-17680285D01*
X11898571Y-17451714D01*
X11898571Y-17166000D01*
X11841428Y-16937428D01*
X11784285Y-16823142D01*
X11727142Y-16766000D01*
X11612857Y-16708857D01*
X10698571Y-17908857D02*
X10698571Y-16708857D01*
X10698571Y-17280285D02*
X10012857Y-17280285D01*
X10012857Y-17908857D02*
X10012857Y-16708857D01*
X9555714Y-17108857D02*
X8927142Y-17108857D01*
X9555714Y-17908857D01*
X8927142Y-17908857D01*
X19000000Y-35238095D02*
X18952380Y-35142857D01*
X18952380Y-35000000D01*
X19000000Y-34857142D01*
X19095238Y-34761904D01*
X19190476Y-34714285D01*
X19380952Y-34666666D01*
X19523809Y-34666666D01*
X19714285Y-34714285D01*
X19809523Y-34761904D01*
X19904761Y-34857142D01*
X19952380Y-35000000D01*
X19952380Y-35095238D01*
X19904761Y-35238095D01*
X19857142Y-35285714D01*
X19523809Y-35285714D01*
X19523809Y-35095238D01*
X19952380Y-35714285D02*
X18952380Y-35714285D01*
X19952380Y-36285714D01*
X18952380Y-36285714D01*
X19952380Y-36761904D02*
X18952380Y-36761904D01*
X18952380Y-37000000D01*
X19000000Y-37142857D01*
X19095238Y-37238095D01*
X19190476Y-37285714D01*
X19380952Y-37333333D01*
X19523809Y-37333333D01*
X19714285Y-37285714D01*
X19809523Y-37238095D01*
X19904761Y-37142857D01*
X19952380Y-37000000D01*
X19952380Y-36761904D01*
X24100000Y-35338095D02*
X24052380Y-35242857D01*
X24052380Y-35100000D01*
X24100000Y-34957142D01*
X24195238Y-34861904D01*
X24290476Y-34814285D01*
X24480952Y-34766666D01*
X24623809Y-34766666D01*
X24814285Y-34814285D01*
X24909523Y-34861904D01*
X25004761Y-34957142D01*
X25052380Y-35100000D01*
X25052380Y-35195238D01*
X25004761Y-35338095D01*
X24957142Y-35385714D01*
X24623809Y-35385714D01*
X24623809Y-35195238D01*
X25052380Y-35814285D02*
X24052380Y-35814285D01*
X25052380Y-36385714D01*
X24052380Y-36385714D01*
X25052380Y-36861904D02*
X24052380Y-36861904D01*
X24052380Y-37100000D01*
X24100000Y-37242857D01*
X24195238Y-37338095D01*
X24290476Y-37385714D01*
X24480952Y-37433333D01*
X24623809Y-37433333D01*
X24814285Y-37385714D01*
X24909523Y-37338095D01*
X25004761Y-37242857D01*
X25052380Y-37100000D01*
X25052380Y-36861904D01*
X14828571Y-37500000D02*
X14828571Y-36738095D01*
X14447619Y-37119047D02*
X15209523Y-37119047D01*
X15447619Y-36357142D02*
X15447619Y-35738095D01*
X15066666Y-36071428D01*
X15066666Y-35928571D01*
X15019047Y-35833333D01*
X14971428Y-35785714D01*
X14876190Y-35738095D01*
X14638095Y-35738095D01*
X14542857Y-35785714D01*
X14495238Y-35833333D01*
X14447619Y-35928571D01*
X14447619Y-36214285D01*
X14495238Y-36309523D01*
X14542857Y-36357142D01*
X14542857Y-35309523D02*
X14495238Y-35261904D01*
X14447619Y-35309523D01*
X14495238Y-35357142D01*
X14542857Y-35309523D01*
X14447619Y-35309523D01*
X15447619Y-34928571D02*
X15447619Y-34309523D01*
X15066666Y-34642857D01*
X15066666Y-34500000D01*
X15019047Y-34404761D01*
X14971428Y-34357142D01*
X14876190Y-34309523D01*
X14638095Y-34309523D01*
X14542857Y-34357142D01*
X14495238Y-34404761D01*
X14447619Y-34500000D01*
X14447619Y-34785714D01*
X14495238Y-34880952D01*
X14542857Y-34928571D01*
X15447619Y-34023809D02*
X14447619Y-33690476D01*
X15447619Y-33357142D01*
D10*
%TO.C,C7*%
X32257142Y-23533333D02*
X32304761Y-23485714D01*
X32352380Y-23342857D01*
X32352380Y-23247619D01*
X32304761Y-23104761D01*
X32209523Y-23009523D01*
X32114285Y-22961904D01*
X31923809Y-22914285D01*
X31780952Y-22914285D01*
X31590476Y-22961904D01*
X31495238Y-23009523D01*
X31400000Y-23104761D01*
X31352380Y-23247619D01*
X31352380Y-23342857D01*
X31400000Y-23485714D01*
X31447619Y-23533333D01*
X31352380Y-23866666D02*
X31352380Y-24533333D01*
X32352380Y-24104761D01*
%TO.C,C4*%
X34266666Y-4307142D02*
X34314285Y-4354761D01*
X34457142Y-4402380D01*
X34552380Y-4402380D01*
X34695238Y-4354761D01*
X34790476Y-4259523D01*
X34838095Y-4164285D01*
X34885714Y-3973809D01*
X34885714Y-3830952D01*
X34838095Y-3640476D01*
X34790476Y-3545238D01*
X34695238Y-3450000D01*
X34552380Y-3402380D01*
X34457142Y-3402380D01*
X34314285Y-3450000D01*
X34266666Y-3497619D01*
X33409523Y-3735714D02*
X33409523Y-4402380D01*
X33647619Y-3354761D02*
X33885714Y-4069047D01*
X33266666Y-4069047D01*
%TO.C,C3*%
X34507142Y-14933333D02*
X34554761Y-14885714D01*
X34602380Y-14742857D01*
X34602380Y-14647619D01*
X34554761Y-14504761D01*
X34459523Y-14409523D01*
X34364285Y-14361904D01*
X34173809Y-14314285D01*
X34030952Y-14314285D01*
X33840476Y-14361904D01*
X33745238Y-14409523D01*
X33650000Y-14504761D01*
X33602380Y-14647619D01*
X33602380Y-14742857D01*
X33650000Y-14885714D01*
X33697619Y-14933333D01*
X33602380Y-15266666D02*
X33602380Y-15885714D01*
X33983333Y-15552380D01*
X33983333Y-15695238D01*
X34030952Y-15790476D01*
X34078571Y-15838095D01*
X34173809Y-15885714D01*
X34411904Y-15885714D01*
X34507142Y-15838095D01*
X34554761Y-15790476D01*
X34602380Y-15695238D01*
X34602380Y-15409523D01*
X34554761Y-15314285D01*
X34507142Y-15266666D01*
%TO.C,C6*%
X50857142Y-8333333D02*
X50904761Y-8285714D01*
X50952380Y-8142857D01*
X50952380Y-8047619D01*
X50904761Y-7904761D01*
X50809523Y-7809523D01*
X50714285Y-7761904D01*
X50523809Y-7714285D01*
X50380952Y-7714285D01*
X50190476Y-7761904D01*
X50095238Y-7809523D01*
X50000000Y-7904761D01*
X49952380Y-8047619D01*
X49952380Y-8142857D01*
X50000000Y-8285714D01*
X50047619Y-8333333D01*
X49952380Y-9190476D02*
X49952380Y-9000000D01*
X50000000Y-8904761D01*
X50047619Y-8857142D01*
X50190476Y-8761904D01*
X50380952Y-8714285D01*
X50761904Y-8714285D01*
X50857142Y-8761904D01*
X50904761Y-8809523D01*
X50952380Y-8904761D01*
X50952380Y-9095238D01*
X50904761Y-9190476D01*
X50857142Y-9238095D01*
X50761904Y-9285714D01*
X50523809Y-9285714D01*
X50428571Y-9238095D01*
X50380952Y-9190476D01*
X50333333Y-9095238D01*
X50333333Y-8904761D01*
X50380952Y-8809523D01*
X50428571Y-8761904D01*
X50523809Y-8714285D01*
%TO.C,C1*%
X41466666Y-24057142D02*
X41514285Y-24104761D01*
X41657142Y-24152380D01*
X41752380Y-24152380D01*
X41895238Y-24104761D01*
X41990476Y-24009523D01*
X42038095Y-23914285D01*
X42085714Y-23723809D01*
X42085714Y-23580952D01*
X42038095Y-23390476D01*
X41990476Y-23295238D01*
X41895238Y-23200000D01*
X41752380Y-23152380D01*
X41657142Y-23152380D01*
X41514285Y-23200000D01*
X41466666Y-23247619D01*
X40514285Y-24152380D02*
X41085714Y-24152380D01*
X40800000Y-24152380D02*
X40800000Y-23152380D01*
X40895238Y-23295238D01*
X40990476Y-23390476D01*
X41085714Y-23438095D01*
%TO.C,D1*%
X10008095Y-28062380D02*
X10008095Y-27062380D01*
X9770000Y-27062380D01*
X9627142Y-27110000D01*
X9531904Y-27205238D01*
X9484285Y-27300476D01*
X9436666Y-27490952D01*
X9436666Y-27633809D01*
X9484285Y-27824285D01*
X9531904Y-27919523D01*
X9627142Y-28014761D01*
X9770000Y-28062380D01*
X10008095Y-28062380D01*
X8484285Y-28062380D02*
X9055714Y-28062380D01*
X8770000Y-28062380D02*
X8770000Y-27062380D01*
X8865238Y-27205238D01*
X8960476Y-27300476D01*
X9055714Y-27348095D01*
%TO.C,C2*%
X31366666Y-8657142D02*
X31414285Y-8704761D01*
X31557142Y-8752380D01*
X31652380Y-8752380D01*
X31795238Y-8704761D01*
X31890476Y-8609523D01*
X31938095Y-8514285D01*
X31985714Y-8323809D01*
X31985714Y-8180952D01*
X31938095Y-7990476D01*
X31890476Y-7895238D01*
X31795238Y-7800000D01*
X31652380Y-7752380D01*
X31557142Y-7752380D01*
X31414285Y-7800000D01*
X31366666Y-7847619D01*
X30985714Y-7847619D02*
X30938095Y-7800000D01*
X30842857Y-7752380D01*
X30604761Y-7752380D01*
X30509523Y-7800000D01*
X30461904Y-7847619D01*
X30414285Y-7942857D01*
X30414285Y-8038095D01*
X30461904Y-8180952D01*
X31033333Y-8752380D01*
X30414285Y-8752380D01*
%TO.C,JP1*%
X37233333Y-22102380D02*
X37233333Y-22816666D01*
X37280952Y-22959523D01*
X37376190Y-23054761D01*
X37519047Y-23102380D01*
X37614285Y-23102380D01*
X36757142Y-23102380D02*
X36757142Y-22102380D01*
X36376190Y-22102380D01*
X36280952Y-22150000D01*
X36233333Y-22197619D01*
X36185714Y-22292857D01*
X36185714Y-22435714D01*
X36233333Y-22530952D01*
X36280952Y-22578571D01*
X36376190Y-22626190D01*
X36757142Y-22626190D01*
X35233333Y-23102380D02*
X35804761Y-23102380D01*
X35519047Y-23102380D02*
X35519047Y-22102380D01*
X35614285Y-22245238D01*
X35709523Y-22340476D01*
X35804761Y-22388095D01*
%TO.C,U2*%
X15352380Y-24538095D02*
X16161904Y-24538095D01*
X16257142Y-24585714D01*
X16304761Y-24633333D01*
X16352380Y-24728571D01*
X16352380Y-24919047D01*
X16304761Y-25014285D01*
X16257142Y-25061904D01*
X16161904Y-25109523D01*
X15352380Y-25109523D01*
X15447619Y-25538095D02*
X15400000Y-25585714D01*
X15352380Y-25680952D01*
X15352380Y-25919047D01*
X15400000Y-26014285D01*
X15447619Y-26061904D01*
X15542857Y-26109523D01*
X15638095Y-26109523D01*
X15780952Y-26061904D01*
X16352380Y-25490476D01*
X16352380Y-26109523D01*
%TO.C,R3*%
X40466666Y-11652380D02*
X40800000Y-11176190D01*
X41038095Y-11652380D02*
X41038095Y-10652380D01*
X40657142Y-10652380D01*
X40561904Y-10700000D01*
X40514285Y-10747619D01*
X40466666Y-10842857D01*
X40466666Y-10985714D01*
X40514285Y-11080952D01*
X40561904Y-11128571D01*
X40657142Y-11176190D01*
X41038095Y-11176190D01*
X40133333Y-10652380D02*
X39514285Y-10652380D01*
X39847619Y-11033333D01*
X39704761Y-11033333D01*
X39609523Y-11080952D01*
X39561904Y-11128571D01*
X39514285Y-11223809D01*
X39514285Y-11461904D01*
X39561904Y-11557142D01*
X39609523Y-11604761D01*
X39704761Y-11652380D01*
X39990476Y-11652380D01*
X40085714Y-11604761D01*
X40133333Y-11557142D01*
%TO.C,R8*%
X38262380Y-17363333D02*
X37786190Y-17030000D01*
X38262380Y-16791904D02*
X37262380Y-16791904D01*
X37262380Y-17172857D01*
X37310000Y-17268095D01*
X37357619Y-17315714D01*
X37452857Y-17363333D01*
X37595714Y-17363333D01*
X37690952Y-17315714D01*
X37738571Y-17268095D01*
X37786190Y-17172857D01*
X37786190Y-16791904D01*
X37690952Y-17934761D02*
X37643333Y-17839523D01*
X37595714Y-17791904D01*
X37500476Y-17744285D01*
X37452857Y-17744285D01*
X37357619Y-17791904D01*
X37310000Y-17839523D01*
X37262380Y-17934761D01*
X37262380Y-18125238D01*
X37310000Y-18220476D01*
X37357619Y-18268095D01*
X37452857Y-18315714D01*
X37500476Y-18315714D01*
X37595714Y-18268095D01*
X37643333Y-18220476D01*
X37690952Y-18125238D01*
X37690952Y-17934761D01*
X37738571Y-17839523D01*
X37786190Y-17791904D01*
X37881428Y-17744285D01*
X38071904Y-17744285D01*
X38167142Y-17791904D01*
X38214761Y-17839523D01*
X38262380Y-17934761D01*
X38262380Y-18125238D01*
X38214761Y-18220476D01*
X38167142Y-18268095D01*
X38071904Y-18315714D01*
X37881428Y-18315714D01*
X37786190Y-18268095D01*
X37738571Y-18220476D01*
X37690952Y-18125238D01*
%TO.C,R5*%
X49052380Y-8433333D02*
X48576190Y-8100000D01*
X49052380Y-7861904D02*
X48052380Y-7861904D01*
X48052380Y-8242857D01*
X48100000Y-8338095D01*
X48147619Y-8385714D01*
X48242857Y-8433333D01*
X48385714Y-8433333D01*
X48480952Y-8385714D01*
X48528571Y-8338095D01*
X48576190Y-8242857D01*
X48576190Y-7861904D01*
X48052380Y-9338095D02*
X48052380Y-8861904D01*
X48528571Y-8814285D01*
X48480952Y-8861904D01*
X48433333Y-8957142D01*
X48433333Y-9195238D01*
X48480952Y-9290476D01*
X48528571Y-9338095D01*
X48623809Y-9385714D01*
X48861904Y-9385714D01*
X48957142Y-9338095D01*
X49004761Y-9290476D01*
X49052380Y-9195238D01*
X49052380Y-8957142D01*
X49004761Y-8861904D01*
X48957142Y-8814285D01*
%TO.C,C5*%
X46757142Y-8233333D02*
X46804761Y-8185714D01*
X46852380Y-8042857D01*
X46852380Y-7947619D01*
X46804761Y-7804761D01*
X46709523Y-7709523D01*
X46614285Y-7661904D01*
X46423809Y-7614285D01*
X46280952Y-7614285D01*
X46090476Y-7661904D01*
X45995238Y-7709523D01*
X45900000Y-7804761D01*
X45852380Y-7947619D01*
X45852380Y-8042857D01*
X45900000Y-8185714D01*
X45947619Y-8233333D01*
X45852380Y-9138095D02*
X45852380Y-8661904D01*
X46328571Y-8614285D01*
X46280952Y-8661904D01*
X46233333Y-8757142D01*
X46233333Y-8995238D01*
X46280952Y-9090476D01*
X46328571Y-9138095D01*
X46423809Y-9185714D01*
X46661904Y-9185714D01*
X46757142Y-9138095D01*
X46804761Y-9090476D01*
X46852380Y-8995238D01*
X46852380Y-8757142D01*
X46804761Y-8661904D01*
X46757142Y-8614285D01*
%TO.C,C8*%
X34637142Y-18043333D02*
X34684761Y-17995714D01*
X34732380Y-17852857D01*
X34732380Y-17757619D01*
X34684761Y-17614761D01*
X34589523Y-17519523D01*
X34494285Y-17471904D01*
X34303809Y-17424285D01*
X34160952Y-17424285D01*
X33970476Y-17471904D01*
X33875238Y-17519523D01*
X33780000Y-17614761D01*
X33732380Y-17757619D01*
X33732380Y-17852857D01*
X33780000Y-17995714D01*
X33827619Y-18043333D01*
X34160952Y-18614761D02*
X34113333Y-18519523D01*
X34065714Y-18471904D01*
X33970476Y-18424285D01*
X33922857Y-18424285D01*
X33827619Y-18471904D01*
X33780000Y-18519523D01*
X33732380Y-18614761D01*
X33732380Y-18805238D01*
X33780000Y-18900476D01*
X33827619Y-18948095D01*
X33922857Y-18995714D01*
X33970476Y-18995714D01*
X34065714Y-18948095D01*
X34113333Y-18900476D01*
X34160952Y-18805238D01*
X34160952Y-18614761D01*
X34208571Y-18519523D01*
X34256190Y-18471904D01*
X34351428Y-18424285D01*
X34541904Y-18424285D01*
X34637142Y-18471904D01*
X34684761Y-18519523D01*
X34732380Y-18614761D01*
X34732380Y-18805238D01*
X34684761Y-18900476D01*
X34637142Y-18948095D01*
X34541904Y-18995714D01*
X34351428Y-18995714D01*
X34256190Y-18948095D01*
X34208571Y-18900476D01*
X34160952Y-18805238D01*
%TO.C,R4*%
X40466666Y-10252380D02*
X40800000Y-9776190D01*
X41038095Y-10252380D02*
X41038095Y-9252380D01*
X40657142Y-9252380D01*
X40561904Y-9300000D01*
X40514285Y-9347619D01*
X40466666Y-9442857D01*
X40466666Y-9585714D01*
X40514285Y-9680952D01*
X40561904Y-9728571D01*
X40657142Y-9776190D01*
X41038095Y-9776190D01*
X39609523Y-9585714D02*
X39609523Y-10252380D01*
X39847619Y-9204761D02*
X40085714Y-9919047D01*
X39466666Y-9919047D01*
%TO.C,R6*%
X53052380Y-8333333D02*
X52576190Y-8000000D01*
X53052380Y-7761904D02*
X52052380Y-7761904D01*
X52052380Y-8142857D01*
X52100000Y-8238095D01*
X52147619Y-8285714D01*
X52242857Y-8333333D01*
X52385714Y-8333333D01*
X52480952Y-8285714D01*
X52528571Y-8238095D01*
X52576190Y-8142857D01*
X52576190Y-7761904D01*
X52052380Y-9190476D02*
X52052380Y-9000000D01*
X52100000Y-8904761D01*
X52147619Y-8857142D01*
X52290476Y-8761904D01*
X52480952Y-8714285D01*
X52861904Y-8714285D01*
X52957142Y-8761904D01*
X53004761Y-8809523D01*
X53052380Y-8904761D01*
X53052380Y-9095238D01*
X53004761Y-9190476D01*
X52957142Y-9238095D01*
X52861904Y-9285714D01*
X52623809Y-9285714D01*
X52528571Y-9238095D01*
X52480952Y-9190476D01*
X52433333Y-9095238D01*
X52433333Y-8904761D01*
X52480952Y-8809523D01*
X52528571Y-8761904D01*
X52623809Y-8714285D01*
%TO.C,L1*%
X37166666Y-9202380D02*
X37642857Y-9202380D01*
X37642857Y-8202380D01*
X36309523Y-9202380D02*
X36880952Y-9202380D01*
X36595238Y-9202380D02*
X36595238Y-8202380D01*
X36690476Y-8345238D01*
X36785714Y-8440476D01*
X36880952Y-8488095D01*
%TO.C,Q1*%
X34195238Y-13047619D02*
X34290476Y-13000000D01*
X34385714Y-12904761D01*
X34528571Y-12761904D01*
X34623809Y-12714285D01*
X34719047Y-12714285D01*
X34671428Y-12952380D02*
X34766666Y-12904761D01*
X34861904Y-12809523D01*
X34909523Y-12619047D01*
X34909523Y-12285714D01*
X34861904Y-12095238D01*
X34766666Y-12000000D01*
X34671428Y-11952380D01*
X34480952Y-11952380D01*
X34385714Y-12000000D01*
X34290476Y-12095238D01*
X34242857Y-12285714D01*
X34242857Y-12619047D01*
X34290476Y-12809523D01*
X34385714Y-12904761D01*
X34480952Y-12952380D01*
X34671428Y-12952380D01*
X33290476Y-12952380D02*
X33861904Y-12952380D01*
X33576190Y-12952380D02*
X33576190Y-11952380D01*
X33671428Y-12095238D01*
X33766666Y-12190476D01*
X33861904Y-12238095D01*
%TO.C,U1*%
X51552380Y-16438095D02*
X52361904Y-16438095D01*
X52457142Y-16485714D01*
X52504761Y-16533333D01*
X52552380Y-16628571D01*
X52552380Y-16819047D01*
X52504761Y-16914285D01*
X52457142Y-16961904D01*
X52361904Y-17009523D01*
X51552380Y-17009523D01*
X52552380Y-18009523D02*
X52552380Y-17438095D01*
X52552380Y-17723809D02*
X51552380Y-17723809D01*
X51695238Y-17628571D01*
X51790476Y-17533333D01*
X51838095Y-17438095D01*
D12*
%TO.C,C7*%
X34710000Y-24411252D02*
X34710000Y-22988748D01*
X32890000Y-24411252D02*
X32890000Y-22988748D01*
%TO.C,C4*%
X34811252Y-4890000D02*
X33388748Y-4890000D01*
X34811252Y-6710000D02*
X33388748Y-6710000D01*
%TO.C,C3*%
X33210000Y-15811252D02*
X33210000Y-14388748D01*
X31390000Y-15811252D02*
X31390000Y-14388748D01*
%TO.C,C6*%
X49815000Y-11711252D02*
X49815000Y-11188748D01*
X51285000Y-11711252D02*
X51285000Y-11188748D01*
%TO.C,C1*%
X41551252Y-22755000D02*
X41028748Y-22755000D01*
X41551252Y-21285000D02*
X41028748Y-21285000D01*
%TO.C,D1*%
X4670000Y-26760000D02*
X11970000Y-26760000D01*
X4670000Y-26760000D02*
X4670000Y-22460000D01*
X4670000Y-22460000D02*
X11970000Y-22460000D01*
%TO.C,C2*%
X34311252Y-9035000D02*
X33788748Y-9035000D01*
X34311252Y-7565000D02*
X33788748Y-7565000D01*
%TO.C,JP1*%
X36100000Y-20450000D02*
X36100000Y-21050000D01*
X36800000Y-21750000D02*
X38200000Y-21750000D01*
X38200000Y-19750000D02*
X36800000Y-19750000D01*
X38900000Y-21050000D02*
X38900000Y-20450000D01*
X38900000Y-20450000D02*
G75*
G03*
X38200000Y-19750000I-699999J1D01*
G01*
X38200000Y-21750000D02*
G75*
G03*
X38900000Y-21050000I1J699999D01*
G01*
X36800000Y-19750000D02*
G75*
G03*
X36100000Y-20450000I-1J-699999D01*
G01*
X36100000Y-21050000D02*
G75*
G03*
X36800000Y-21750000I699999J-1D01*
G01*
%TO.C,U2*%
X19810000Y-24200000D02*
X19810000Y-26000000D01*
X16590000Y-26000000D02*
X16590000Y-23550000D01*
%TO.C,R3*%
X43377064Y-11415000D02*
X42922936Y-11415000D01*
X43377064Y-12885000D02*
X42922936Y-12885000D01*
%TO.C,R8*%
X40245000Y-17777064D02*
X40245000Y-17322936D01*
X38775000Y-17777064D02*
X38775000Y-17322936D01*
%TO.C,R5*%
X47815000Y-11222936D02*
X47815000Y-11677064D01*
X49285000Y-11222936D02*
X49285000Y-11677064D01*
%TO.C,C5*%
X47185000Y-11088748D02*
X47185000Y-11611252D01*
X45715000Y-11088748D02*
X45715000Y-11611252D01*
%TO.C,C8*%
X35305000Y-17761252D02*
X35305000Y-17238748D01*
X36775000Y-17761252D02*
X36775000Y-17238748D01*
%TO.C,R4*%
X42922936Y-10885000D02*
X43377064Y-10885000D01*
X42922936Y-9415000D02*
X43377064Y-9415000D01*
%TO.C,R6*%
X51815000Y-11222936D02*
X51815000Y-11677064D01*
X53285000Y-11222936D02*
X53285000Y-11677064D01*
%TO.C,L1*%
X37261252Y-9690000D02*
X36738748Y-9690000D01*
X37261252Y-11110000D02*
X36738748Y-11110000D01*
%TO.C,Q1*%
X37140000Y-15130000D02*
X38600000Y-15130000D01*
X37140000Y-11970000D02*
X40300000Y-11970000D01*
X37140000Y-11970000D02*
X37140000Y-12900000D01*
X37140000Y-15130000D02*
X37140000Y-14200000D01*
%TO.C,U1*%
X40890000Y-17150000D02*
X40890000Y-13650000D01*
X51010000Y-17150000D02*
X51010000Y-19100000D01*
X40890000Y-17150000D02*
X40890000Y-19100000D01*
X51010000Y-17150000D02*
X51010000Y-15200000D01*
%TD*%
M02*
