%TF.GenerationSoftware,KiCad,Pcbnew,(6.0.0)*%
%TF.CreationDate,2022-01-14T12:25:06-05:00*%
%TF.ProjectId,ADC-board-HX711,4144432d-626f-4617-9264-2d4858373131,rev?*%
%TF.SameCoordinates,Original*%
%TF.FileFunction,Soldermask,Bot*%
%TF.FilePolarity,Negative*%
%FSLAX46Y46*%
G04 Gerber Fmt 4.6, Leading zero omitted, Abs format (unit mm)*
G04 Created by KiCad (PCBNEW (6.0.0)) date 2022-01-14 12:25:06*
%MOMM*%
%LPD*%
G01*
G04 APERTURE LIST*
G04 Aperture macros list*
%AMRoundRect*
0 Rectangle with rounded corners*
0 $1 Rounding radius*
0 $2 $3 $4 $5 $6 $7 $8 $9 X,Y pos of 4 corners*
0 Add a 4 corners polygon primitive as box body*
4,1,4,$2,$3,$4,$5,$6,$7,$8,$9,$2,$3,0*
0 Add four circle primitives for the rounded corners*
1,1,$1+$1,$2,$3*
1,1,$1+$1,$4,$5*
1,1,$1+$1,$6,$7*
1,1,$1+$1,$8,$9*
0 Add four rect primitives between the rounded corners*
20,1,$1+$1,$2,$3,$4,$5,0*
20,1,$1+$1,$4,$5,$6,$7,0*
20,1,$1+$1,$6,$7,$8,$9,0*
20,1,$1+$1,$8,$9,$2,$3,0*%
%AMFreePoly0*
4,1,22,0.500000,-0.750000,0.000000,-0.750000,0.000000,-0.745033,-0.079941,-0.743568,-0.215256,-0.701293,-0.333266,-0.622738,-0.424486,-0.514219,-0.481581,-0.384460,-0.499164,-0.250000,-0.500000,-0.250000,-0.500000,0.250000,-0.499164,0.250000,-0.499963,0.256109,-0.478152,0.396186,-0.417904,0.524511,-0.324060,0.630769,-0.204165,0.706417,-0.067858,0.745374,0.000000,0.744959,0.000000,0.750000,
0.500000,0.750000,0.500000,-0.750000,0.500000,-0.750000,$1*%
%AMFreePoly1*
4,1,20,0.000000,0.744959,0.073905,0.744508,0.209726,0.703889,0.328688,0.626782,0.421226,0.519385,0.479903,0.390333,0.500000,0.250000,0.500000,-0.250000,0.499851,-0.262216,0.476331,-0.402017,0.414519,-0.529596,0.319384,-0.634700,0.198574,-0.708877,0.061801,-0.746166,0.000000,-0.745033,0.000000,-0.750000,-0.500000,-0.750000,-0.500000,0.750000,0.000000,0.750000,0.000000,0.744959,
0.000000,0.744959,$1*%
G04 Aperture macros list end*
%ADD10O,2.200000X2.200000*%
%ADD11R,2.200000X2.200000*%
%ADD12RoundRect,0.250000X0.650000X-0.412500X0.650000X0.412500X-0.650000X0.412500X-0.650000X-0.412500X0*%
%ADD13RoundRect,0.250000X0.412500X0.650000X-0.412500X0.650000X-0.412500X-0.650000X0.412500X-0.650000X0*%
%ADD14C,1.448000*%
%ADD15R,1.700000X1.700000*%
%ADD16O,1.700000X1.700000*%
%ADD17R,2.600000X2.600000*%
%ADD18C,2.600000*%
%ADD19RoundRect,0.250000X0.475000X-0.337500X0.475000X0.337500X-0.475000X0.337500X-0.475000X-0.337500X0*%
%ADD20C,3.200000*%
%ADD21RoundRect,0.250000X0.337500X0.475000X-0.337500X0.475000X-0.337500X-0.475000X0.337500X-0.475000X0*%
%ADD22R,3.500000X2.300000*%
%ADD23FreePoly0,0.000000*%
%ADD24FreePoly1,0.000000*%
%ADD25R,0.650000X1.060000*%
%ADD26RoundRect,0.250000X0.350000X0.450000X-0.350000X0.450000X-0.350000X-0.450000X0.350000X-0.450000X0*%
%ADD27RoundRect,0.250000X0.450000X-0.350000X0.450000X0.350000X-0.450000X0.350000X-0.450000X-0.350000X0*%
%ADD28RoundRect,0.250000X-0.450000X0.350000X-0.450000X-0.350000X0.450000X-0.350000X0.450000X0.350000X0*%
%ADD29RoundRect,0.250000X-0.475000X0.337500X-0.475000X-0.337500X0.475000X-0.337500X0.475000X0.337500X0*%
%ADD30RoundRect,0.250000X-0.350000X-0.450000X0.350000X-0.450000X0.350000X0.450000X-0.350000X0.450000X0*%
%ADD31RoundRect,0.250000X0.325000X0.450000X-0.325000X0.450000X-0.325000X-0.450000X0.325000X-0.450000X0*%
%ADD32R,1.900000X0.800000*%
%ADD33RoundRect,0.150000X-0.150000X0.850000X-0.150000X-0.850000X0.150000X-0.850000X0.150000X0.850000X0*%
G04 APERTURE END LIST*
D10*
%TO.C,D2*%
X4480000Y-20700000D03*
D11*
X12100000Y-20700000D03*
%TD*%
D12*
%TO.C,C7*%
X33800000Y-25262500D03*
X33800000Y-22137500D03*
%TD*%
D13*
%TO.C,C4*%
X35662500Y-5800000D03*
X32537500Y-5800000D03*
%TD*%
D12*
%TO.C,C3*%
X32300000Y-16662500D03*
X32300000Y-13537500D03*
%TD*%
D14*
%TO.C,HT4*%
X87000000Y-28000000D03*
%TD*%
%TO.C,HT3*%
X5000000Y-28000000D03*
%TD*%
D15*
%TO.C,J1*%
X16920000Y-33270000D03*
D16*
X16920000Y-30730000D03*
X19460000Y-33270000D03*
X19460000Y-30730000D03*
X22000000Y-33270000D03*
X22000000Y-30730000D03*
X24540000Y-33270000D03*
X24540000Y-30730000D03*
X27080000Y-33270000D03*
X27080000Y-30730000D03*
%TD*%
D14*
%TO.C,HT2*%
X87000000Y-9000000D03*
%TD*%
%TO.C,HT1*%
X5000000Y-9000000D03*
%TD*%
D17*
%TO.C,J3*%
X74000000Y-34000000D03*
D18*
X79000000Y-34000000D03*
%TD*%
D17*
%TO.C,J2*%
X53500000Y-5695000D03*
D18*
X48500000Y-5695000D03*
X43500000Y-5695000D03*
X38500000Y-5695000D03*
%TD*%
D19*
%TO.C,C6*%
X50550000Y-12487500D03*
X50550000Y-10412500D03*
%TD*%
D20*
%TO.C,H4*%
X87000000Y-32500000D03*
%TD*%
D21*
%TO.C,C1*%
X42327500Y-22020000D03*
X40252500Y-22020000D03*
%TD*%
D22*
%TO.C,D1*%
X6570000Y-24610000D03*
X11970000Y-24610000D03*
%TD*%
D21*
%TO.C,C2*%
X35087500Y-8300000D03*
X33012500Y-8300000D03*
%TD*%
D23*
%TO.C,JP1*%
X36850000Y-20750000D03*
D24*
X38150000Y-20750000D03*
%TD*%
D25*
%TO.C,U2*%
X17250000Y-24000000D03*
X18200000Y-24000000D03*
X19150000Y-24000000D03*
X19150000Y-26200000D03*
X18200000Y-26200000D03*
X17250000Y-26200000D03*
%TD*%
D26*
%TO.C,R3*%
X44150000Y-12150000D03*
X42150000Y-12150000D03*
%TD*%
D27*
%TO.C,R8*%
X39510000Y-18550000D03*
X39510000Y-16550000D03*
%TD*%
D20*
%TO.C,H2*%
X87000000Y-4500000D03*
%TD*%
D28*
%TO.C,R5*%
X48550000Y-10450000D03*
X48550000Y-12450000D03*
%TD*%
D29*
%TO.C,C5*%
X46450000Y-10312500D03*
X46450000Y-12387500D03*
%TD*%
D20*
%TO.C,H1*%
X5000000Y-4500000D03*
%TD*%
%TO.C,H3*%
X5000000Y-32500000D03*
%TD*%
D19*
%TO.C,C8*%
X36040000Y-18537500D03*
X36040000Y-16462500D03*
%TD*%
D30*
%TO.C,R4*%
X42150000Y-10150000D03*
X44150000Y-10150000D03*
%TD*%
D28*
%TO.C,R6*%
X52550000Y-10450000D03*
X52550000Y-12450000D03*
%TD*%
D31*
%TO.C,L1*%
X38025000Y-10400000D03*
X35975000Y-10400000D03*
%TD*%
D32*
%TO.C,Q1*%
X39400000Y-12600000D03*
X39400000Y-14500000D03*
X36400000Y-13550000D03*
%TD*%
D33*
%TO.C,U1*%
X41505000Y-14650000D03*
X42775000Y-14650000D03*
X44045000Y-14650000D03*
X45315000Y-14650000D03*
X46585000Y-14650000D03*
X47855000Y-14650000D03*
X49125000Y-14650000D03*
X50395000Y-14650000D03*
X50395000Y-19650000D03*
X49125000Y-19650000D03*
X47855000Y-19650000D03*
X46585000Y-19650000D03*
X45315000Y-19650000D03*
X44045000Y-19650000D03*
X42775000Y-19650000D03*
X41505000Y-19650000D03*
%TD*%
M02*
