%TF.GenerationSoftware,KiCad,Pcbnew,(6.0.0)*%
%TF.CreationDate,2022-01-14T12:25:06-05:00*%
%TF.ProjectId,ADC-board-HX711,4144432d-626f-4617-9264-2d4858373131,rev?*%
%TF.SameCoordinates,Original*%
%TF.FileFunction,Paste,Bot*%
%TF.FilePolarity,Positive*%
%FSLAX46Y46*%
G04 Gerber Fmt 4.6, Leading zero omitted, Abs format (unit mm)*
G04 Created by KiCad (PCBNEW (6.0.0)) date 2022-01-14 12:25:06*
%MOMM*%
%LPD*%
G01*
G04 APERTURE LIST*
G04 Aperture macros list*
%AMRoundRect*
0 Rectangle with rounded corners*
0 $1 Rounding radius*
0 $2 $3 $4 $5 $6 $7 $8 $9 X,Y pos of 4 corners*
0 Add a 4 corners polygon primitive as box body*
4,1,4,$2,$3,$4,$5,$6,$7,$8,$9,$2,$3,0*
0 Add four circle primitives for the rounded corners*
1,1,$1+$1,$2,$3*
1,1,$1+$1,$4,$5*
1,1,$1+$1,$6,$7*
1,1,$1+$1,$8,$9*
0 Add four rect primitives between the rounded corners*
20,1,$1+$1,$2,$3,$4,$5,0*
20,1,$1+$1,$4,$5,$6,$7,0*
20,1,$1+$1,$6,$7,$8,$9,0*
20,1,$1+$1,$8,$9,$2,$3,0*%
G04 Aperture macros list end*
%ADD10RoundRect,0.250000X0.650000X-0.412500X0.650000X0.412500X-0.650000X0.412500X-0.650000X-0.412500X0*%
%ADD11RoundRect,0.250000X0.412500X0.650000X-0.412500X0.650000X-0.412500X-0.650000X0.412500X-0.650000X0*%
%ADD12RoundRect,0.250000X0.475000X-0.337500X0.475000X0.337500X-0.475000X0.337500X-0.475000X-0.337500X0*%
%ADD13RoundRect,0.250000X0.337500X0.475000X-0.337500X0.475000X-0.337500X-0.475000X0.337500X-0.475000X0*%
%ADD14R,3.500000X2.300000*%
%ADD15R,0.650000X1.060000*%
%ADD16RoundRect,0.250000X0.350000X0.450000X-0.350000X0.450000X-0.350000X-0.450000X0.350000X-0.450000X0*%
%ADD17RoundRect,0.250000X0.450000X-0.350000X0.450000X0.350000X-0.450000X0.350000X-0.450000X-0.350000X0*%
%ADD18RoundRect,0.250000X-0.450000X0.350000X-0.450000X-0.350000X0.450000X-0.350000X0.450000X0.350000X0*%
%ADD19RoundRect,0.250000X-0.475000X0.337500X-0.475000X-0.337500X0.475000X-0.337500X0.475000X0.337500X0*%
%ADD20RoundRect,0.250000X-0.350000X-0.450000X0.350000X-0.450000X0.350000X0.450000X-0.350000X0.450000X0*%
%ADD21RoundRect,0.250000X0.325000X0.450000X-0.325000X0.450000X-0.325000X-0.450000X0.325000X-0.450000X0*%
%ADD22R,1.900000X0.800000*%
%ADD23RoundRect,0.150000X-0.150000X0.850000X-0.150000X-0.850000X0.150000X-0.850000X0.150000X0.850000X0*%
G04 APERTURE END LIST*
D10*
%TO.C,C7*%
X33800000Y-25262500D03*
X33800000Y-22137500D03*
%TD*%
D11*
%TO.C,C4*%
X35662500Y-5800000D03*
X32537500Y-5800000D03*
%TD*%
D10*
%TO.C,C3*%
X32300000Y-16662500D03*
X32300000Y-13537500D03*
%TD*%
D12*
%TO.C,C6*%
X50550000Y-12487500D03*
X50550000Y-10412500D03*
%TD*%
D13*
%TO.C,C1*%
X42327500Y-22020000D03*
X40252500Y-22020000D03*
%TD*%
D14*
%TO.C,D1*%
X6570000Y-24610000D03*
X11970000Y-24610000D03*
%TD*%
D13*
%TO.C,C2*%
X35087500Y-8300000D03*
X33012500Y-8300000D03*
%TD*%
D15*
%TO.C,U2*%
X17250000Y-24000000D03*
X18200000Y-24000000D03*
X19150000Y-24000000D03*
X19150000Y-26200000D03*
X18200000Y-26200000D03*
X17250000Y-26200000D03*
%TD*%
D16*
%TO.C,R3*%
X44150000Y-12150000D03*
X42150000Y-12150000D03*
%TD*%
D17*
%TO.C,R8*%
X39510000Y-18550000D03*
X39510000Y-16550000D03*
%TD*%
D18*
%TO.C,R5*%
X48550000Y-10450000D03*
X48550000Y-12450000D03*
%TD*%
D19*
%TO.C,C5*%
X46450000Y-10312500D03*
X46450000Y-12387500D03*
%TD*%
D12*
%TO.C,C8*%
X36040000Y-18537500D03*
X36040000Y-16462500D03*
%TD*%
D20*
%TO.C,R4*%
X42150000Y-10150000D03*
X44150000Y-10150000D03*
%TD*%
D18*
%TO.C,R6*%
X52550000Y-10450000D03*
X52550000Y-12450000D03*
%TD*%
D21*
%TO.C,L1*%
X38025000Y-10400000D03*
X35975000Y-10400000D03*
%TD*%
D22*
%TO.C,Q1*%
X39400000Y-12600000D03*
X39400000Y-14500000D03*
X36400000Y-13550000D03*
%TD*%
D23*
%TO.C,U1*%
X41505000Y-14650000D03*
X42775000Y-14650000D03*
X44045000Y-14650000D03*
X45315000Y-14650000D03*
X46585000Y-14650000D03*
X47855000Y-14650000D03*
X49125000Y-14650000D03*
X50395000Y-14650000D03*
X50395000Y-19650000D03*
X49125000Y-19650000D03*
X47855000Y-19650000D03*
X46585000Y-19650000D03*
X45315000Y-19650000D03*
X44045000Y-19650000D03*
X42775000Y-19650000D03*
X41505000Y-19650000D03*
%TD*%
M02*
