%TF.GenerationSoftware,KiCad,Pcbnew,(6.0.0)*%
%TF.CreationDate,2022-01-14T12:25:06-05:00*%
%TF.ProjectId,ADC-board-HX711,4144432d-626f-4617-9264-2d4858373131,rev?*%
%TF.SameCoordinates,Original*%
%TF.FileFunction,AssemblyDrawing,Top*%
%FSLAX46Y46*%
G04 Gerber Fmt 4.6, Leading zero omitted, Abs format (unit mm)*
G04 Created by KiCad (PCBNEW (6.0.0)) date 2022-01-14 12:25:06*
%MOMM*%
%LPD*%
G01*
G04 APERTURE LIST*
%ADD10C,0.150000*%
%ADD11C,0.100000*%
G04 APERTURE END LIST*
D10*
%TO.C,D2*%
X11838095Y-23252380D02*
X11838095Y-22252380D01*
X12409523Y-23252380D02*
X11980952Y-22680952D01*
X12409523Y-22252380D02*
X11838095Y-22823809D01*
X7161904Y-21152380D02*
X7161904Y-20152380D01*
X7400000Y-20152380D01*
X7542857Y-20200000D01*
X7638095Y-20295238D01*
X7685714Y-20390476D01*
X7733333Y-20580952D01*
X7733333Y-20723809D01*
X7685714Y-20914285D01*
X7638095Y-21009523D01*
X7542857Y-21104761D01*
X7400000Y-21152380D01*
X7161904Y-21152380D01*
X8114285Y-20247619D02*
X8161904Y-20200000D01*
X8257142Y-20152380D01*
X8495238Y-20152380D01*
X8590476Y-20200000D01*
X8638095Y-20247619D01*
X8685714Y-20342857D01*
X8685714Y-20438095D01*
X8638095Y-20580952D01*
X8066666Y-21152380D01*
X8685714Y-21152380D01*
%TO.C,J1*%
X21666666Y-31452380D02*
X21666666Y-32166666D01*
X21619047Y-32309523D01*
X21523809Y-32404761D01*
X21380952Y-32452380D01*
X21285714Y-32452380D01*
X22666666Y-32452380D02*
X22095238Y-32452380D01*
X22380952Y-32452380D02*
X22380952Y-31452380D01*
X22285714Y-31595238D01*
X22190476Y-31690476D01*
X22095238Y-31738095D01*
%TO.C,J3*%
X76166666Y-36652380D02*
X76166666Y-37366666D01*
X76119047Y-37509523D01*
X76023809Y-37604761D01*
X75880952Y-37652380D01*
X75785714Y-37652380D01*
X76547619Y-36652380D02*
X77166666Y-36652380D01*
X76833333Y-37033333D01*
X76976190Y-37033333D01*
X77071428Y-37080952D01*
X77119047Y-37128571D01*
X77166666Y-37223809D01*
X77166666Y-37461904D01*
X77119047Y-37557142D01*
X77071428Y-37604761D01*
X76976190Y-37652380D01*
X76690476Y-37652380D01*
X76595238Y-37604761D01*
X76547619Y-37557142D01*
%TO.C,J2*%
X45666666Y-1947380D02*
X45666666Y-2661666D01*
X45619047Y-2804523D01*
X45523809Y-2899761D01*
X45380952Y-2947380D01*
X45285714Y-2947380D01*
X46095238Y-2042619D02*
X46142857Y-1995000D01*
X46238095Y-1947380D01*
X46476190Y-1947380D01*
X46571428Y-1995000D01*
X46619047Y-2042619D01*
X46666666Y-2137857D01*
X46666666Y-2233095D01*
X46619047Y-2375952D01*
X46047619Y-2947380D01*
X46666666Y-2947380D01*
D11*
%TO.C,D2*%
X10210000Y-22050000D02*
X10210000Y-19350000D01*
X10010000Y-22050000D02*
X10010000Y-19350000D01*
X10110000Y-22050000D02*
X10110000Y-19350000D01*
X4480000Y-20700000D02*
X5690000Y-20700000D01*
X12100000Y-20700000D02*
X10890000Y-20700000D01*
X5690000Y-22050000D02*
X10890000Y-22050000D01*
X5690000Y-19350000D02*
X5690000Y-22050000D01*
X10890000Y-19350000D02*
X5690000Y-19350000D01*
X10890000Y-22050000D02*
X10890000Y-19350000D01*
%TO.C,J1*%
X28345000Y-30625000D02*
X28345000Y-34435000D01*
X28345000Y-34435000D02*
X15645000Y-34435000D01*
X15645000Y-29355000D02*
X27075000Y-29355000D01*
X27075000Y-29355000D02*
X28345000Y-30625000D01*
X15645000Y-34435000D02*
X15645000Y-29355000D01*
%TO.C,J3*%
X71500000Y-36600000D02*
X81500000Y-36600000D01*
X72000000Y-38600000D02*
X71500000Y-38100000D01*
X81500000Y-38600000D02*
X72000000Y-38600000D01*
X81500000Y-28800000D02*
X81500000Y-38600000D01*
X79955000Y-32862000D02*
X77863000Y-34955000D01*
X74955000Y-32862000D02*
X72862000Y-34955000D01*
X71500000Y-31700000D02*
X81500000Y-31700000D01*
X75138000Y-33045000D02*
X73045000Y-35138000D01*
X71500000Y-38100000D02*
X81500000Y-38100000D01*
X80138000Y-33045000D02*
X78046000Y-35138000D01*
X71500000Y-28800000D02*
X81500000Y-28800000D01*
X71500000Y-38100000D02*
X71500000Y-28800000D01*
X75500000Y-34000000D02*
G75*
G03*
X75500000Y-34000000I-1500000J0D01*
G01*
X80500000Y-34000000D02*
G75*
G03*
X80500000Y-34000000I-1500000J0D01*
G01*
%TO.C,J2*%
X37545000Y-6833000D02*
X39637000Y-4740000D01*
X56000000Y-3095000D02*
X36000000Y-3095000D01*
X56000000Y-10895000D02*
X36000000Y-10895000D01*
X47362000Y-6650000D02*
X49454000Y-4557000D01*
X56000000Y-1595000D02*
X36000000Y-1595000D01*
X52545000Y-6833000D02*
X54638000Y-4740000D01*
X55500000Y-1095000D02*
X56000000Y-1595000D01*
X52362000Y-6650000D02*
X54455000Y-4557000D01*
X36000000Y-1095000D02*
X55500000Y-1095000D01*
X47545000Y-6833000D02*
X49637000Y-4740000D01*
X36000000Y-10895000D02*
X36000000Y-1095000D01*
X56000000Y-7995000D02*
X36000000Y-7995000D01*
X42362000Y-6650000D02*
X44454000Y-4557000D01*
X56000000Y-1595000D02*
X56000000Y-10895000D01*
X42545000Y-6833000D02*
X44637000Y-4740000D01*
X37362000Y-6650000D02*
X39454000Y-4557000D01*
X45000000Y-5695000D02*
G75*
G03*
X45000000Y-5695000I-1500000J0D01*
G01*
X40000000Y-5695000D02*
G75*
G03*
X40000000Y-5695000I-1500000J0D01*
G01*
X50000000Y-5695000D02*
G75*
G03*
X50000000Y-5695000I-1500000J0D01*
G01*
X55000000Y-5695000D02*
G75*
G03*
X55000000Y-5695000I-1500000J0D01*
G01*
%TD*%
M02*
