%TF.GenerationSoftware,KiCad,Pcbnew,(6.0.0)*%
%TF.CreationDate,2022-01-14T12:25:06-05:00*%
%TF.ProjectId,ADC-board-HX711,4144432d-626f-4617-9264-2d4858373131,rev?*%
%TF.SameCoordinates,Original*%
%TF.FileFunction,AssemblyDrawing,Bot*%
%FSLAX46Y46*%
G04 Gerber Fmt 4.6, Leading zero omitted, Abs format (unit mm)*
G04 Created by KiCad (PCBNEW (6.0.0)) date 2022-01-14 12:25:06*
%MOMM*%
%LPD*%
G01*
G04 APERTURE LIST*
%ADD10C,0.120000*%
%ADD11C,0.080000*%
%ADD12C,0.150000*%
%ADD13C,0.075000*%
%ADD14C,0.100000*%
G04 APERTURE END LIST*
D10*
%TO.C,C7*%
X34085714Y-23566666D02*
X34123809Y-23528571D01*
X34161904Y-23414285D01*
X34161904Y-23338095D01*
X34123809Y-23223809D01*
X34047619Y-23147619D01*
X33971428Y-23109523D01*
X33819047Y-23071428D01*
X33704761Y-23071428D01*
X33552380Y-23109523D01*
X33476190Y-23147619D01*
X33400000Y-23223809D01*
X33361904Y-23338095D01*
X33361904Y-23414285D01*
X33400000Y-23528571D01*
X33438095Y-23566666D01*
X33361904Y-23833333D02*
X33361904Y-24366666D01*
X34161904Y-24023809D01*
%TO.C,C4*%
X34233333Y-6085714D02*
X34271428Y-6123809D01*
X34385714Y-6161904D01*
X34461904Y-6161904D01*
X34576190Y-6123809D01*
X34652380Y-6047619D01*
X34690476Y-5971428D01*
X34728571Y-5819047D01*
X34728571Y-5704761D01*
X34690476Y-5552380D01*
X34652380Y-5476190D01*
X34576190Y-5400000D01*
X34461904Y-5361904D01*
X34385714Y-5361904D01*
X34271428Y-5400000D01*
X34233333Y-5438095D01*
X33547619Y-5628571D02*
X33547619Y-6161904D01*
X33738095Y-5323809D02*
X33928571Y-5895238D01*
X33433333Y-5895238D01*
%TO.C,C3*%
X32585714Y-14966666D02*
X32623809Y-14928571D01*
X32661904Y-14814285D01*
X32661904Y-14738095D01*
X32623809Y-14623809D01*
X32547619Y-14547619D01*
X32471428Y-14509523D01*
X32319047Y-14471428D01*
X32204761Y-14471428D01*
X32052380Y-14509523D01*
X31976190Y-14547619D01*
X31900000Y-14623809D01*
X31861904Y-14738095D01*
X31861904Y-14814285D01*
X31900000Y-14928571D01*
X31938095Y-14966666D01*
X31861904Y-15233333D02*
X31861904Y-15728571D01*
X32166666Y-15461904D01*
X32166666Y-15576190D01*
X32204761Y-15652380D01*
X32242857Y-15690476D01*
X32319047Y-15728571D01*
X32509523Y-15728571D01*
X32585714Y-15690476D01*
X32623809Y-15652380D01*
X32661904Y-15576190D01*
X32661904Y-15347619D01*
X32623809Y-15271428D01*
X32585714Y-15233333D01*
D11*
%TO.C,C6*%
X50728571Y-11366666D02*
X50752380Y-11342857D01*
X50776190Y-11271428D01*
X50776190Y-11223809D01*
X50752380Y-11152380D01*
X50704761Y-11104761D01*
X50657142Y-11080952D01*
X50561904Y-11057142D01*
X50490476Y-11057142D01*
X50395238Y-11080952D01*
X50347619Y-11104761D01*
X50300000Y-11152380D01*
X50276190Y-11223809D01*
X50276190Y-11271428D01*
X50300000Y-11342857D01*
X50323809Y-11366666D01*
X50276190Y-11795238D02*
X50276190Y-11700000D01*
X50300000Y-11652380D01*
X50323809Y-11628571D01*
X50395238Y-11580952D01*
X50490476Y-11557142D01*
X50680952Y-11557142D01*
X50728571Y-11580952D01*
X50752380Y-11604761D01*
X50776190Y-11652380D01*
X50776190Y-11747619D01*
X50752380Y-11795238D01*
X50728571Y-11819047D01*
X50680952Y-11842857D01*
X50561904Y-11842857D01*
X50514285Y-11819047D01*
X50490476Y-11795238D01*
X50466666Y-11747619D01*
X50466666Y-11652380D01*
X50490476Y-11604761D01*
X50514285Y-11580952D01*
X50561904Y-11557142D01*
D12*
%TO.C,H4*%
X87461904Y-32952380D02*
X87461904Y-31952380D01*
X87461904Y-32428571D02*
X86890476Y-32428571D01*
X86890476Y-32952380D02*
X86890476Y-31952380D01*
X85985714Y-32285714D02*
X85985714Y-32952380D01*
X86223809Y-31904761D02*
X86461904Y-32619047D01*
X85842857Y-32619047D01*
D11*
%TO.C,C1*%
X41373333Y-22198571D02*
X41397142Y-22222380D01*
X41468571Y-22246190D01*
X41516190Y-22246190D01*
X41587619Y-22222380D01*
X41635238Y-22174761D01*
X41659047Y-22127142D01*
X41682857Y-22031904D01*
X41682857Y-21960476D01*
X41659047Y-21865238D01*
X41635238Y-21817619D01*
X41587619Y-21770000D01*
X41516190Y-21746190D01*
X41468571Y-21746190D01*
X41397142Y-21770000D01*
X41373333Y-21793809D01*
X40897142Y-22246190D02*
X41182857Y-22246190D01*
X41040000Y-22246190D02*
X41040000Y-21746190D01*
X41087619Y-21817619D01*
X41135238Y-21865238D01*
X41182857Y-21889047D01*
D12*
%TO.C,D1*%
X10008095Y-28062380D02*
X10008095Y-27062380D01*
X9770000Y-27062380D01*
X9627142Y-27110000D01*
X9531904Y-27205238D01*
X9484285Y-27300476D01*
X9436666Y-27490952D01*
X9436666Y-27633809D01*
X9484285Y-27824285D01*
X9531904Y-27919523D01*
X9627142Y-28014761D01*
X9770000Y-28062380D01*
X10008095Y-28062380D01*
X8484285Y-28062380D02*
X9055714Y-28062380D01*
X8770000Y-28062380D02*
X8770000Y-27062380D01*
X8865238Y-27205238D01*
X8960476Y-27300476D01*
X9055714Y-27348095D01*
D11*
%TO.C,C2*%
X34133333Y-8478571D02*
X34157142Y-8502380D01*
X34228571Y-8526190D01*
X34276190Y-8526190D01*
X34347619Y-8502380D01*
X34395238Y-8454761D01*
X34419047Y-8407142D01*
X34442857Y-8311904D01*
X34442857Y-8240476D01*
X34419047Y-8145238D01*
X34395238Y-8097619D01*
X34347619Y-8050000D01*
X34276190Y-8026190D01*
X34228571Y-8026190D01*
X34157142Y-8050000D01*
X34133333Y-8073809D01*
X33942857Y-8073809D02*
X33919047Y-8050000D01*
X33871428Y-8026190D01*
X33752380Y-8026190D01*
X33704761Y-8050000D01*
X33680952Y-8073809D01*
X33657142Y-8121428D01*
X33657142Y-8169047D01*
X33680952Y-8240476D01*
X33966666Y-8526190D01*
X33657142Y-8526190D01*
D13*
%TO.C,U2*%
X18580952Y-24826190D02*
X18580952Y-25230952D01*
X18557142Y-25278571D01*
X18533333Y-25302380D01*
X18485714Y-25326190D01*
X18390476Y-25326190D01*
X18342857Y-25302380D01*
X18319047Y-25278571D01*
X18295238Y-25230952D01*
X18295238Y-24826190D01*
X18080952Y-24873809D02*
X18057142Y-24850000D01*
X18009523Y-24826190D01*
X17890476Y-24826190D01*
X17842857Y-24850000D01*
X17819047Y-24873809D01*
X17795238Y-24921428D01*
X17795238Y-24969047D01*
X17819047Y-25040476D01*
X18104761Y-25326190D01*
X17795238Y-25326190D01*
D11*
%TO.C,R3*%
X43233333Y-12376190D02*
X43400000Y-12138095D01*
X43519047Y-12376190D02*
X43519047Y-11876190D01*
X43328571Y-11876190D01*
X43280952Y-11900000D01*
X43257142Y-11923809D01*
X43233333Y-11971428D01*
X43233333Y-12042857D01*
X43257142Y-12090476D01*
X43280952Y-12114285D01*
X43328571Y-12138095D01*
X43519047Y-12138095D01*
X43066666Y-11876190D02*
X42757142Y-11876190D01*
X42923809Y-12066666D01*
X42852380Y-12066666D01*
X42804761Y-12090476D01*
X42780952Y-12114285D01*
X42757142Y-12161904D01*
X42757142Y-12280952D01*
X42780952Y-12328571D01*
X42804761Y-12352380D01*
X42852380Y-12376190D01*
X42995238Y-12376190D01*
X43042857Y-12352380D01*
X43066666Y-12328571D01*
%TO.C,R8*%
X39736190Y-17466666D02*
X39498095Y-17300000D01*
X39736190Y-17180952D02*
X39236190Y-17180952D01*
X39236190Y-17371428D01*
X39260000Y-17419047D01*
X39283809Y-17442857D01*
X39331428Y-17466666D01*
X39402857Y-17466666D01*
X39450476Y-17442857D01*
X39474285Y-17419047D01*
X39498095Y-17371428D01*
X39498095Y-17180952D01*
X39450476Y-17752380D02*
X39426666Y-17704761D01*
X39402857Y-17680952D01*
X39355238Y-17657142D01*
X39331428Y-17657142D01*
X39283809Y-17680952D01*
X39260000Y-17704761D01*
X39236190Y-17752380D01*
X39236190Y-17847619D01*
X39260000Y-17895238D01*
X39283809Y-17919047D01*
X39331428Y-17942857D01*
X39355238Y-17942857D01*
X39402857Y-17919047D01*
X39426666Y-17895238D01*
X39450476Y-17847619D01*
X39450476Y-17752380D01*
X39474285Y-17704761D01*
X39498095Y-17680952D01*
X39545714Y-17657142D01*
X39640952Y-17657142D01*
X39688571Y-17680952D01*
X39712380Y-17704761D01*
X39736190Y-17752380D01*
X39736190Y-17847619D01*
X39712380Y-17895238D01*
X39688571Y-17919047D01*
X39640952Y-17942857D01*
X39545714Y-17942857D01*
X39498095Y-17919047D01*
X39474285Y-17895238D01*
X39450476Y-17847619D01*
D12*
%TO.C,H2*%
X87461904Y-4952380D02*
X87461904Y-3952380D01*
X87461904Y-4428571D02*
X86890476Y-4428571D01*
X86890476Y-4952380D02*
X86890476Y-3952380D01*
X86461904Y-4047619D02*
X86414285Y-4000000D01*
X86319047Y-3952380D01*
X86080952Y-3952380D01*
X85985714Y-4000000D01*
X85938095Y-4047619D01*
X85890476Y-4142857D01*
X85890476Y-4238095D01*
X85938095Y-4380952D01*
X86509523Y-4952380D01*
X85890476Y-4952380D01*
D11*
%TO.C,R5*%
X48776190Y-11366666D02*
X48538095Y-11200000D01*
X48776190Y-11080952D02*
X48276190Y-11080952D01*
X48276190Y-11271428D01*
X48300000Y-11319047D01*
X48323809Y-11342857D01*
X48371428Y-11366666D01*
X48442857Y-11366666D01*
X48490476Y-11342857D01*
X48514285Y-11319047D01*
X48538095Y-11271428D01*
X48538095Y-11080952D01*
X48276190Y-11819047D02*
X48276190Y-11580952D01*
X48514285Y-11557142D01*
X48490476Y-11580952D01*
X48466666Y-11628571D01*
X48466666Y-11747619D01*
X48490476Y-11795238D01*
X48514285Y-11819047D01*
X48561904Y-11842857D01*
X48680952Y-11842857D01*
X48728571Y-11819047D01*
X48752380Y-11795238D01*
X48776190Y-11747619D01*
X48776190Y-11628571D01*
X48752380Y-11580952D01*
X48728571Y-11557142D01*
%TO.C,C5*%
X46628571Y-11266666D02*
X46652380Y-11242857D01*
X46676190Y-11171428D01*
X46676190Y-11123809D01*
X46652380Y-11052380D01*
X46604761Y-11004761D01*
X46557142Y-10980952D01*
X46461904Y-10957142D01*
X46390476Y-10957142D01*
X46295238Y-10980952D01*
X46247619Y-11004761D01*
X46200000Y-11052380D01*
X46176190Y-11123809D01*
X46176190Y-11171428D01*
X46200000Y-11242857D01*
X46223809Y-11266666D01*
X46176190Y-11719047D02*
X46176190Y-11480952D01*
X46414285Y-11457142D01*
X46390476Y-11480952D01*
X46366666Y-11528571D01*
X46366666Y-11647619D01*
X46390476Y-11695238D01*
X46414285Y-11719047D01*
X46461904Y-11742857D01*
X46580952Y-11742857D01*
X46628571Y-11719047D01*
X46652380Y-11695238D01*
X46676190Y-11647619D01*
X46676190Y-11528571D01*
X46652380Y-11480952D01*
X46628571Y-11457142D01*
D12*
%TO.C,H1*%
X5461904Y-4952380D02*
X5461904Y-3952380D01*
X5461904Y-4428571D02*
X4890476Y-4428571D01*
X4890476Y-4952380D02*
X4890476Y-3952380D01*
X3890476Y-4952380D02*
X4461904Y-4952380D01*
X4176190Y-4952380D02*
X4176190Y-3952380D01*
X4271428Y-4095238D01*
X4366666Y-4190476D01*
X4461904Y-4238095D01*
%TO.C,H3*%
X5461904Y-32952380D02*
X5461904Y-31952380D01*
X5461904Y-32428571D02*
X4890476Y-32428571D01*
X4890476Y-32952380D02*
X4890476Y-31952380D01*
X4509523Y-31952380D02*
X3890476Y-31952380D01*
X4223809Y-32333333D01*
X4080952Y-32333333D01*
X3985714Y-32380952D01*
X3938095Y-32428571D01*
X3890476Y-32523809D01*
X3890476Y-32761904D01*
X3938095Y-32857142D01*
X3985714Y-32904761D01*
X4080952Y-32952380D01*
X4366666Y-32952380D01*
X4461904Y-32904761D01*
X4509523Y-32857142D01*
D11*
%TO.C,C8*%
X36218571Y-17416666D02*
X36242380Y-17392857D01*
X36266190Y-17321428D01*
X36266190Y-17273809D01*
X36242380Y-17202380D01*
X36194761Y-17154761D01*
X36147142Y-17130952D01*
X36051904Y-17107142D01*
X35980476Y-17107142D01*
X35885238Y-17130952D01*
X35837619Y-17154761D01*
X35790000Y-17202380D01*
X35766190Y-17273809D01*
X35766190Y-17321428D01*
X35790000Y-17392857D01*
X35813809Y-17416666D01*
X35980476Y-17702380D02*
X35956666Y-17654761D01*
X35932857Y-17630952D01*
X35885238Y-17607142D01*
X35861428Y-17607142D01*
X35813809Y-17630952D01*
X35790000Y-17654761D01*
X35766190Y-17702380D01*
X35766190Y-17797619D01*
X35790000Y-17845238D01*
X35813809Y-17869047D01*
X35861428Y-17892857D01*
X35885238Y-17892857D01*
X35932857Y-17869047D01*
X35956666Y-17845238D01*
X35980476Y-17797619D01*
X35980476Y-17702380D01*
X36004285Y-17654761D01*
X36028095Y-17630952D01*
X36075714Y-17607142D01*
X36170952Y-17607142D01*
X36218571Y-17630952D01*
X36242380Y-17654761D01*
X36266190Y-17702380D01*
X36266190Y-17797619D01*
X36242380Y-17845238D01*
X36218571Y-17869047D01*
X36170952Y-17892857D01*
X36075714Y-17892857D01*
X36028095Y-17869047D01*
X36004285Y-17845238D01*
X35980476Y-17797619D01*
%TO.C,R4*%
X43233333Y-10376190D02*
X43400000Y-10138095D01*
X43519047Y-10376190D02*
X43519047Y-9876190D01*
X43328571Y-9876190D01*
X43280952Y-9900000D01*
X43257142Y-9923809D01*
X43233333Y-9971428D01*
X43233333Y-10042857D01*
X43257142Y-10090476D01*
X43280952Y-10114285D01*
X43328571Y-10138095D01*
X43519047Y-10138095D01*
X42804761Y-10042857D02*
X42804761Y-10376190D01*
X42923809Y-9852380D02*
X43042857Y-10209523D01*
X42733333Y-10209523D01*
%TO.C,R6*%
X52776190Y-11366666D02*
X52538095Y-11200000D01*
X52776190Y-11080952D02*
X52276190Y-11080952D01*
X52276190Y-11271428D01*
X52300000Y-11319047D01*
X52323809Y-11342857D01*
X52371428Y-11366666D01*
X52442857Y-11366666D01*
X52490476Y-11342857D01*
X52514285Y-11319047D01*
X52538095Y-11271428D01*
X52538095Y-11080952D01*
X52276190Y-11795238D02*
X52276190Y-11700000D01*
X52300000Y-11652380D01*
X52323809Y-11628571D01*
X52395238Y-11580952D01*
X52490476Y-11557142D01*
X52680952Y-11557142D01*
X52728571Y-11580952D01*
X52752380Y-11604761D01*
X52776190Y-11652380D01*
X52776190Y-11747619D01*
X52752380Y-11795238D01*
X52728571Y-11819047D01*
X52680952Y-11842857D01*
X52561904Y-11842857D01*
X52514285Y-11819047D01*
X52490476Y-11795238D01*
X52466666Y-11747619D01*
X52466666Y-11652380D01*
X52490476Y-11604761D01*
X52514285Y-11580952D01*
X52561904Y-11557142D01*
%TO.C,L1*%
X37083333Y-10626190D02*
X37321428Y-10626190D01*
X37321428Y-10126190D01*
X36654761Y-10626190D02*
X36940476Y-10626190D01*
X36797619Y-10626190D02*
X36797619Y-10126190D01*
X36845238Y-10197619D01*
X36892857Y-10245238D01*
X36940476Y-10269047D01*
D13*
%TO.C,Q1*%
X38173809Y-13502380D02*
X38150000Y-13454761D01*
X38102380Y-13407142D01*
X38030952Y-13335714D01*
X38007142Y-13288095D01*
X38007142Y-13240476D01*
X38126190Y-13264285D02*
X38102380Y-13216666D01*
X38054761Y-13169047D01*
X37959523Y-13145238D01*
X37792857Y-13145238D01*
X37697619Y-13169047D01*
X37650000Y-13216666D01*
X37626190Y-13264285D01*
X37626190Y-13359523D01*
X37650000Y-13407142D01*
X37697619Y-13454761D01*
X37792857Y-13478571D01*
X37959523Y-13478571D01*
X38054761Y-13454761D01*
X38102380Y-13407142D01*
X38126190Y-13359523D01*
X38126190Y-13264285D01*
X38126190Y-13954761D02*
X38126190Y-13669047D01*
X38126190Y-13811904D02*
X37626190Y-13811904D01*
X37697619Y-13764285D01*
X37745238Y-13716666D01*
X37769047Y-13669047D01*
D12*
%TO.C,U1*%
X45413333Y-16403333D02*
X46206666Y-16403333D01*
X46300000Y-16450000D01*
X46346666Y-16496666D01*
X46393333Y-16590000D01*
X46393333Y-16776666D01*
X46346666Y-16870000D01*
X46300000Y-16916666D01*
X46206666Y-16963333D01*
X45413333Y-16963333D01*
X46393333Y-17943333D02*
X46393333Y-17383333D01*
X46393333Y-17663333D02*
X45413333Y-17663333D01*
X45553333Y-17570000D01*
X45646666Y-17476666D01*
X45693333Y-17383333D01*
D14*
%TO.C,C7*%
X33000000Y-25300000D02*
X34600000Y-25300000D01*
X34600000Y-25300000D02*
X34600000Y-22100000D01*
X34600000Y-22100000D02*
X33000000Y-22100000D01*
X33000000Y-22100000D02*
X33000000Y-25300000D01*
%TO.C,C4*%
X35700000Y-6600000D02*
X35700000Y-5000000D01*
X35700000Y-5000000D02*
X32500000Y-5000000D01*
X32500000Y-5000000D02*
X32500000Y-6600000D01*
X32500000Y-6600000D02*
X35700000Y-6600000D01*
%TO.C,C3*%
X31500000Y-16700000D02*
X33100000Y-16700000D01*
X33100000Y-16700000D02*
X33100000Y-13500000D01*
X33100000Y-13500000D02*
X31500000Y-13500000D01*
X31500000Y-13500000D02*
X31500000Y-16700000D01*
%TO.C,C6*%
X49925000Y-12450000D02*
X51175000Y-12450000D01*
X49925000Y-10450000D02*
X49925000Y-12450000D01*
X51175000Y-12450000D02*
X51175000Y-10450000D01*
X51175000Y-10450000D02*
X49925000Y-10450000D01*
%TO.C,C1*%
X40290000Y-21395000D02*
X40290000Y-22645000D01*
X42290000Y-22645000D02*
X42290000Y-21395000D01*
X40290000Y-22645000D02*
X42290000Y-22645000D01*
X42290000Y-21395000D02*
X40290000Y-21395000D01*
%TO.C,D1*%
X8620560Y-24608980D02*
X9771180Y-25409080D01*
X11570000Y-26610000D02*
X6970000Y-26610000D01*
X9771180Y-23859680D02*
X9771180Y-25409080D01*
X8620560Y-24608980D02*
X7718860Y-24608980D01*
X11570000Y-26610000D02*
X11570000Y-22610000D01*
X8620560Y-25409080D02*
X8620560Y-23808880D01*
X6970000Y-22610000D02*
X6970000Y-26610000D01*
X8620560Y-24608980D02*
X9771180Y-23859680D01*
X9771180Y-24608980D02*
X10769400Y-24608980D01*
X11570000Y-22610000D02*
X6970000Y-22610000D01*
%TO.C,C2*%
X33050000Y-8925000D02*
X35050000Y-8925000D01*
X35050000Y-7675000D02*
X33050000Y-7675000D01*
X33050000Y-7675000D02*
X33050000Y-8925000D01*
X35050000Y-8925000D02*
X35050000Y-7675000D01*
%TO.C,U2*%
X17300000Y-24200000D02*
X19750000Y-24200000D01*
X19750000Y-26000000D02*
X19750000Y-24200000D01*
X16650000Y-26000000D02*
X19750000Y-26000000D01*
X17300000Y-24200000D02*
X16650000Y-24850000D01*
X16650000Y-26000000D02*
X16650000Y-24850000D01*
%TO.C,R3*%
X42150000Y-12775000D02*
X44150000Y-12775000D01*
X42150000Y-11525000D02*
X42150000Y-12775000D01*
X44150000Y-12775000D02*
X44150000Y-11525000D01*
X44150000Y-11525000D02*
X42150000Y-11525000D01*
%TO.C,R8*%
X38885000Y-16550000D02*
X38885000Y-18550000D01*
X40135000Y-18550000D02*
X40135000Y-16550000D01*
X40135000Y-16550000D02*
X38885000Y-16550000D01*
X38885000Y-18550000D02*
X40135000Y-18550000D01*
%TO.C,R5*%
X49175000Y-12450000D02*
X49175000Y-10450000D01*
X49175000Y-10450000D02*
X47925000Y-10450000D01*
X47925000Y-12450000D02*
X49175000Y-12450000D01*
X47925000Y-10450000D02*
X47925000Y-12450000D01*
%TO.C,C5*%
X45825000Y-12350000D02*
X47075000Y-12350000D01*
X47075000Y-10350000D02*
X45825000Y-10350000D01*
X47075000Y-12350000D02*
X47075000Y-10350000D01*
X45825000Y-10350000D02*
X45825000Y-12350000D01*
%TO.C,C8*%
X36665000Y-16500000D02*
X35415000Y-16500000D01*
X36665000Y-18500000D02*
X36665000Y-16500000D01*
X35415000Y-18500000D02*
X36665000Y-18500000D01*
X35415000Y-16500000D02*
X35415000Y-18500000D01*
%TO.C,R4*%
X42150000Y-9525000D02*
X42150000Y-10775000D01*
X42150000Y-10775000D02*
X44150000Y-10775000D01*
X44150000Y-10775000D02*
X44150000Y-9525000D01*
X44150000Y-9525000D02*
X42150000Y-9525000D01*
%TO.C,R6*%
X51925000Y-10450000D02*
X51925000Y-12450000D01*
X53175000Y-10450000D02*
X51925000Y-10450000D01*
X53175000Y-12450000D02*
X53175000Y-10450000D01*
X51925000Y-12450000D02*
X53175000Y-12450000D01*
%TO.C,L1*%
X38000000Y-9800000D02*
X36000000Y-9800000D01*
X38000000Y-11000000D02*
X38000000Y-9800000D01*
X36000000Y-11000000D02*
X38000000Y-11000000D01*
X36000000Y-9800000D02*
X36000000Y-11000000D01*
%TO.C,Q1*%
X38050000Y-12030000D02*
X37200000Y-12030000D01*
X37200000Y-12030000D02*
X37200000Y-15070000D01*
X38600000Y-12600000D02*
X38050000Y-12030000D01*
X38600000Y-12600000D02*
X38600000Y-15050000D01*
X38600000Y-15070000D02*
X37200000Y-15070000D01*
%TO.C,U1*%
X41000000Y-19100000D02*
X50900000Y-19100000D01*
X41000000Y-16175000D02*
X41000000Y-19100000D01*
X41975000Y-15200000D02*
X41000000Y-16175000D01*
X50900000Y-19100000D02*
X50900000Y-15200000D01*
X50900000Y-15200000D02*
X41975000Y-15200000D01*
%TD*%
M02*
