%TF.GenerationSoftware,KiCad,Pcbnew,(6.0.0)*%
%TF.CreationDate,2022-01-14T12:25:06-05:00*%
%TF.ProjectId,ADC-board-HX711,4144432d-626f-4617-9264-2d4858373131,rev?*%
%TF.SameCoordinates,Original*%
%TF.FileFunction,Legend,Top*%
%TF.FilePolarity,Positive*%
%FSLAX46Y46*%
G04 Gerber Fmt 4.6, Leading zero omitted, Abs format (unit mm)*
G04 Created by KiCad (PCBNEW (6.0.0)) date 2022-01-14 12:25:06*
%MOMM*%
%LPD*%
G01*
G04 APERTURE LIST*
%ADD10C,0.300000*%
%ADD11C,0.200000*%
%ADD12C,0.150000*%
%ADD13C,0.120000*%
%ADD14C,0.100000*%
G04 APERTURE END LIST*
D10*
X53250000Y-11980714D02*
X53250000Y-12695000D01*
X52821428Y-11837857D02*
X54321428Y-12337857D01*
X52821428Y-12837857D01*
X53392857Y-13337857D02*
X53392857Y-14480714D01*
X52821428Y-13909285D02*
X53964285Y-13909285D01*
X52250000Y-16766428D02*
X52321428Y-16695000D01*
X52535714Y-16552142D01*
X52678571Y-16480714D01*
X52892857Y-16409285D01*
X53250000Y-16337857D01*
X53535714Y-16337857D01*
X53892857Y-16409285D01*
X54107142Y-16480714D01*
X54250000Y-16552142D01*
X54464285Y-16695000D01*
X54535714Y-16766428D01*
X54250000Y-18123571D02*
X54321428Y-17980714D01*
X54321428Y-17766428D01*
X54250000Y-17552142D01*
X54107142Y-17409285D01*
X53964285Y-17337857D01*
X53678571Y-17266428D01*
X53464285Y-17266428D01*
X53178571Y-17337857D01*
X53035714Y-17409285D01*
X52892857Y-17552142D01*
X52821428Y-17766428D01*
X52821428Y-17909285D01*
X52892857Y-18123571D01*
X52964285Y-18195000D01*
X53464285Y-18195000D01*
X53464285Y-17909285D01*
X52821428Y-18837857D02*
X53821428Y-18837857D01*
X53535714Y-18837857D02*
X53678571Y-18909285D01*
X53750000Y-18980714D01*
X53821428Y-19123571D01*
X53821428Y-19266428D01*
X52892857Y-20337857D02*
X52821428Y-20195000D01*
X52821428Y-19909285D01*
X52892857Y-19766428D01*
X53035714Y-19695000D01*
X53607142Y-19695000D01*
X53750000Y-19766428D01*
X53821428Y-19909285D01*
X53821428Y-20195000D01*
X53750000Y-20337857D01*
X53607142Y-20409285D01*
X53464285Y-20409285D01*
X53321428Y-19695000D01*
X52892857Y-21623571D02*
X52821428Y-21480714D01*
X52821428Y-21195000D01*
X52892857Y-21052142D01*
X53035714Y-20980714D01*
X53607142Y-20980714D01*
X53750000Y-21052142D01*
X53821428Y-21195000D01*
X53821428Y-21480714D01*
X53750000Y-21623571D01*
X53607142Y-21695000D01*
X53464285Y-21695000D01*
X53321428Y-20980714D01*
X53821428Y-22337857D02*
X52821428Y-22337857D01*
X53678571Y-22337857D02*
X53750000Y-22409285D01*
X53821428Y-22552142D01*
X53821428Y-22766428D01*
X53750000Y-22909285D01*
X53607142Y-22980714D01*
X52821428Y-22980714D01*
X52821428Y-25052142D02*
X52892857Y-24909285D01*
X52964285Y-24837857D01*
X53107142Y-24766428D01*
X53535714Y-24766428D01*
X53678571Y-24837857D01*
X53750000Y-24909285D01*
X53821428Y-25052142D01*
X53821428Y-25266428D01*
X53750000Y-25409285D01*
X53678571Y-25480714D01*
X53535714Y-25552142D01*
X53107142Y-25552142D01*
X52964285Y-25480714D01*
X52892857Y-25409285D01*
X52821428Y-25266428D01*
X52821428Y-25052142D01*
X52821428Y-26195000D02*
X53821428Y-26195000D01*
X53535714Y-26195000D02*
X53678571Y-26266428D01*
X53750000Y-26337857D01*
X53821428Y-26480714D01*
X53821428Y-26623571D01*
X52821428Y-28266428D02*
X54321428Y-28266428D01*
X53750000Y-28266428D02*
X53821428Y-28409285D01*
X53821428Y-28695000D01*
X53750000Y-28837857D01*
X53678571Y-28909285D01*
X53535714Y-28980714D01*
X53107142Y-28980714D01*
X52964285Y-28909285D01*
X52892857Y-28837857D01*
X52821428Y-28695000D01*
X52821428Y-28409285D01*
X52892857Y-28266428D01*
X52821428Y-29837857D02*
X52892857Y-29695000D01*
X53035714Y-29623571D01*
X54321428Y-29623571D01*
X53821428Y-31052142D02*
X52821428Y-31052142D01*
X53821428Y-30409285D02*
X53035714Y-30409285D01*
X52892857Y-30480714D01*
X52821428Y-30623571D01*
X52821428Y-30837857D01*
X52892857Y-30980714D01*
X52964285Y-31052142D01*
X52892857Y-32337857D02*
X52821428Y-32195000D01*
X52821428Y-31909285D01*
X52892857Y-31766428D01*
X53035714Y-31695000D01*
X53607142Y-31695000D01*
X53750000Y-31766428D01*
X53821428Y-31909285D01*
X53821428Y-32195000D01*
X53749999Y-32337857D01*
X53607142Y-32409285D01*
X53464285Y-32409285D01*
X53321428Y-31695000D01*
X52249999Y-32909285D02*
X52321428Y-32980714D01*
X52535714Y-33123571D01*
X52678571Y-33195000D01*
X52892857Y-33266428D01*
X53249999Y-33337857D01*
X53535714Y-33337857D01*
X53892857Y-33266428D01*
X54107142Y-33195000D01*
X54249999Y-33123571D01*
X54464285Y-32980714D01*
X54535714Y-32909285D01*
X48250000Y-11980714D02*
X48250000Y-12695000D01*
X47821428Y-11837857D02*
X49321428Y-12337857D01*
X47821428Y-12837857D01*
X48392857Y-13337857D02*
X48392857Y-14480714D01*
X47250000Y-16766428D02*
X47321428Y-16695000D01*
X47535714Y-16552142D01*
X47678571Y-16480714D01*
X47892857Y-16409285D01*
X48250000Y-16337857D01*
X48535714Y-16337857D01*
X48892857Y-16409285D01*
X49107142Y-16480714D01*
X49250000Y-16552142D01*
X49464285Y-16695000D01*
X49535714Y-16766428D01*
X49321428Y-17195000D02*
X47821428Y-17552142D01*
X48892857Y-17837857D01*
X47821428Y-18123571D01*
X49321428Y-18480714D01*
X47821428Y-19052142D02*
X49321428Y-19052142D01*
X47821428Y-19695000D02*
X48607142Y-19695000D01*
X48750000Y-19623571D01*
X48821428Y-19480714D01*
X48821428Y-19266428D01*
X48750000Y-19123571D01*
X48678571Y-19052142D01*
X47821428Y-20409285D02*
X48821428Y-20409285D01*
X49321428Y-20409285D02*
X49250000Y-20337857D01*
X49178571Y-20409285D01*
X49250000Y-20480714D01*
X49321428Y-20409285D01*
X49178571Y-20409285D01*
X48821428Y-20909285D02*
X48821428Y-21480714D01*
X49321428Y-21123571D02*
X48035714Y-21123571D01*
X47892857Y-21195000D01*
X47821428Y-21337857D01*
X47821428Y-21480714D01*
X47892857Y-22552142D02*
X47821428Y-22409285D01*
X47821428Y-22123571D01*
X47892857Y-21980714D01*
X48035714Y-21909285D01*
X48607142Y-21909285D01*
X48750000Y-21980714D01*
X48821428Y-22123571D01*
X48821428Y-22409285D01*
X48750000Y-22552142D01*
X48607142Y-22623571D01*
X48464285Y-22623571D01*
X48321428Y-21909285D01*
X47250000Y-23123571D02*
X47321428Y-23195000D01*
X47535714Y-23337857D01*
X47678571Y-23409285D01*
X47892857Y-23480714D01*
X48250000Y-23552142D01*
X48535714Y-23552142D01*
X48892857Y-23480714D01*
X49107142Y-23409285D01*
X49250000Y-23337857D01*
X49464285Y-23195000D01*
X49535714Y-23123571D01*
X60664285Y-6755357D02*
X60164285Y-6755357D01*
X60164285Y-7541071D02*
X60164285Y-6041071D01*
X60878571Y-6041071D01*
X61664285Y-7541071D02*
X61521428Y-7469642D01*
X61450000Y-7398214D01*
X61378571Y-7255357D01*
X61378571Y-6826785D01*
X61450000Y-6683928D01*
X61521428Y-6612500D01*
X61664285Y-6541071D01*
X61878571Y-6541071D01*
X62021428Y-6612500D01*
X62092857Y-6683928D01*
X62164285Y-6826785D01*
X62164285Y-7255357D01*
X62092857Y-7398214D01*
X62021428Y-7469642D01*
X61878571Y-7541071D01*
X61664285Y-7541071D01*
X62807142Y-7541071D02*
X62807142Y-6541071D01*
X62807142Y-6826785D02*
X62878571Y-6683928D01*
X62950000Y-6612500D01*
X63092857Y-6541071D01*
X63235714Y-6541071D01*
X64378571Y-7469642D02*
X64235714Y-7541071D01*
X63950000Y-7541071D01*
X63807142Y-7469642D01*
X63735714Y-7398214D01*
X63664285Y-7255357D01*
X63664285Y-6826785D01*
X63735714Y-6683928D01*
X63807142Y-6612500D01*
X63950000Y-6541071D01*
X64235714Y-6541071D01*
X64378571Y-6612500D01*
X65592857Y-7469642D02*
X65450000Y-7541071D01*
X65164285Y-7541071D01*
X65021428Y-7469642D01*
X64950000Y-7326785D01*
X64950000Y-6755357D01*
X65021428Y-6612500D01*
X65164285Y-6541071D01*
X65450000Y-6541071D01*
X65592857Y-6612500D01*
X65664285Y-6755357D01*
X65664285Y-6898214D01*
X64950000Y-7041071D01*
X68092857Y-7469642D02*
X67950000Y-7541071D01*
X67664285Y-7541071D01*
X67521428Y-7469642D01*
X67450000Y-7398214D01*
X67378571Y-7255357D01*
X67378571Y-6826785D01*
X67450000Y-6683928D01*
X67521428Y-6612500D01*
X67664285Y-6541071D01*
X67950000Y-6541071D01*
X68092857Y-6612500D01*
X69378571Y-6541071D02*
X69378571Y-7541071D01*
X68735714Y-6541071D02*
X68735714Y-7326785D01*
X68807142Y-7469642D01*
X68950000Y-7541071D01*
X69164285Y-7541071D01*
X69307142Y-7469642D01*
X69378571Y-7398214D01*
X70092857Y-7541071D02*
X70092857Y-6541071D01*
X70092857Y-6826785D02*
X70164285Y-6683928D01*
X70235714Y-6612500D01*
X70378571Y-6541071D01*
X70521428Y-6541071D01*
X70878571Y-6541071D02*
X71235714Y-7541071D01*
X71592857Y-6541071D01*
X72735714Y-7469642D02*
X72592857Y-7541071D01*
X72307142Y-7541071D01*
X72164285Y-7469642D01*
X72092857Y-7326785D01*
X72092857Y-6755357D01*
X72164285Y-6612500D01*
X72307142Y-6541071D01*
X72592857Y-6541071D01*
X72735714Y-6612500D01*
X72807142Y-6755357D01*
X72807142Y-6898214D01*
X72092857Y-7041071D01*
X74592857Y-7541071D02*
X74592857Y-6541071D01*
X74592857Y-6683928D02*
X74664285Y-6612500D01*
X74807142Y-6541071D01*
X75021428Y-6541071D01*
X75164285Y-6612500D01*
X75235714Y-6755357D01*
X75235714Y-7541071D01*
X75235714Y-6755357D02*
X75307142Y-6612500D01*
X75450000Y-6541071D01*
X75664285Y-6541071D01*
X75807142Y-6612500D01*
X75878571Y-6755357D01*
X75878571Y-7541071D01*
X77164285Y-7469642D02*
X77021428Y-7541071D01*
X76735714Y-7541071D01*
X76592857Y-7469642D01*
X76521428Y-7326785D01*
X76521428Y-6755357D01*
X76592857Y-6612500D01*
X76735714Y-6541071D01*
X77021428Y-6541071D01*
X77164285Y-6612500D01*
X77235714Y-6755357D01*
X77235714Y-6898214D01*
X76521428Y-7041071D01*
X77664285Y-6541071D02*
X78235714Y-6541071D01*
X77878571Y-6041071D02*
X77878571Y-7326785D01*
X77950000Y-7469642D01*
X78092857Y-7541071D01*
X78235714Y-7541071D01*
X79307142Y-7469642D02*
X79164285Y-7541071D01*
X78878571Y-7541071D01*
X78735714Y-7469642D01*
X78664285Y-7326785D01*
X78664285Y-6755357D01*
X78735714Y-6612500D01*
X78878571Y-6541071D01*
X79164285Y-6541071D01*
X79307142Y-6612500D01*
X79378571Y-6755357D01*
X79378571Y-6898214D01*
X78664285Y-7041071D01*
X80021428Y-7541071D02*
X80021428Y-6541071D01*
X80021428Y-6826785D02*
X80092857Y-6683928D01*
X80164285Y-6612500D01*
X80307142Y-6541071D01*
X80450000Y-6541071D01*
X59378571Y-9527500D02*
X60092857Y-9527500D01*
X59235714Y-9956071D02*
X59735714Y-8456071D01*
X60235714Y-9956071D01*
X60735714Y-9956071D02*
X60735714Y-8456071D01*
X61092857Y-8456071D01*
X61307142Y-8527500D01*
X61450000Y-8670357D01*
X61521428Y-8813214D01*
X61592857Y-9098928D01*
X61592857Y-9313214D01*
X61521428Y-9598928D01*
X61450000Y-9741785D01*
X61307142Y-9884642D01*
X61092857Y-9956071D01*
X60735714Y-9956071D01*
X63092857Y-9813214D02*
X63021428Y-9884642D01*
X62807142Y-9956071D01*
X62664285Y-9956071D01*
X62450000Y-9884642D01*
X62307142Y-9741785D01*
X62235714Y-9598928D01*
X62164285Y-9313214D01*
X62164285Y-9098928D01*
X62235714Y-8813214D01*
X62307142Y-8670357D01*
X62450000Y-8527500D01*
X62664285Y-8456071D01*
X62807142Y-8456071D01*
X63021428Y-8527500D01*
X63092857Y-8598928D01*
X64878571Y-9956071D02*
X64878571Y-8456071D01*
X64878571Y-9027500D02*
X65021428Y-8956071D01*
X65307142Y-8956071D01*
X65450000Y-9027500D01*
X65521428Y-9098928D01*
X65592857Y-9241785D01*
X65592857Y-9670357D01*
X65521428Y-9813214D01*
X65450000Y-9884642D01*
X65307142Y-9956071D01*
X65021428Y-9956071D01*
X64878571Y-9884642D01*
X66450000Y-9956071D02*
X66307142Y-9884642D01*
X66235714Y-9813214D01*
X66164285Y-9670357D01*
X66164285Y-9241785D01*
X66235714Y-9098928D01*
X66307142Y-9027500D01*
X66450000Y-8956071D01*
X66664285Y-8956071D01*
X66807142Y-9027500D01*
X66878571Y-9098928D01*
X66950000Y-9241785D01*
X66950000Y-9670357D01*
X66878571Y-9813214D01*
X66807142Y-9884642D01*
X66664285Y-9956071D01*
X66450000Y-9956071D01*
X68235714Y-9956071D02*
X68235714Y-9170357D01*
X68164285Y-9027500D01*
X68021428Y-8956071D01*
X67735714Y-8956071D01*
X67592857Y-9027500D01*
X68235714Y-9884642D02*
X68092857Y-9956071D01*
X67735714Y-9956071D01*
X67592857Y-9884642D01*
X67521428Y-9741785D01*
X67521428Y-9598928D01*
X67592857Y-9456071D01*
X67735714Y-9384642D01*
X68092857Y-9384642D01*
X68235714Y-9313214D01*
X68950000Y-9956071D02*
X68950000Y-8956071D01*
X68950000Y-9241785D02*
X69021428Y-9098928D01*
X69092857Y-9027500D01*
X69235714Y-8956071D01*
X69378571Y-8956071D01*
X70521428Y-9956071D02*
X70521428Y-8456071D01*
X70521428Y-9884642D02*
X70378571Y-9956071D01*
X70092857Y-9956071D01*
X69950000Y-9884642D01*
X69878571Y-9813214D01*
X69807142Y-9670357D01*
X69807142Y-9241785D01*
X69878571Y-9098928D01*
X69950000Y-9027500D01*
X70092857Y-8956071D01*
X70378571Y-8956071D01*
X70521428Y-9027500D01*
X72807142Y-10527500D02*
X72735714Y-10456071D01*
X72592857Y-10241785D01*
X72521428Y-10098928D01*
X72450000Y-9884642D01*
X72378571Y-9527500D01*
X72378571Y-9241785D01*
X72450000Y-8884642D01*
X72521428Y-8670357D01*
X72592857Y-8527500D01*
X72735714Y-8313214D01*
X72807142Y-8241785D01*
X73378571Y-9956071D02*
X73378571Y-8456071D01*
X73378571Y-9170357D02*
X74235714Y-9170357D01*
X74235714Y-9956071D02*
X74235714Y-8456071D01*
X74807142Y-8456071D02*
X75807142Y-9956071D01*
X75807142Y-8456071D02*
X74807142Y-9956071D01*
X76235714Y-8456071D02*
X77235714Y-8456071D01*
X76592857Y-9956071D01*
X78592857Y-9956071D02*
X77735714Y-9956071D01*
X78164285Y-9956071D02*
X78164285Y-8456071D01*
X78021428Y-8670357D01*
X77878571Y-8813214D01*
X77735714Y-8884642D01*
X80021428Y-9956071D02*
X79164285Y-9956071D01*
X79592857Y-9956071D02*
X79592857Y-8456071D01*
X79450000Y-8670357D01*
X79307142Y-8813214D01*
X79164285Y-8884642D01*
X80521428Y-10527500D02*
X80592857Y-10456071D01*
X80735714Y-10241785D01*
X80807142Y-10098928D01*
X80878571Y-9884642D01*
X80950000Y-9527500D01*
X80950000Y-9241785D01*
X80878571Y-8884642D01*
X80807142Y-8670357D01*
X80735714Y-8527500D01*
X80592857Y-8313214D01*
X80521428Y-8241785D01*
X64164285Y-13357500D02*
X64021428Y-13286071D01*
X63807142Y-13286071D01*
X63592857Y-13357500D01*
X63450000Y-13500357D01*
X63378571Y-13643214D01*
X63307142Y-13928928D01*
X63307142Y-14143214D01*
X63378571Y-14428928D01*
X63450000Y-14571785D01*
X63592857Y-14714642D01*
X63807142Y-14786071D01*
X63950000Y-14786071D01*
X64164285Y-14714642D01*
X64235714Y-14643214D01*
X64235714Y-14143214D01*
X63950000Y-14143214D01*
X65450000Y-14714642D02*
X65307142Y-14786071D01*
X65021428Y-14786071D01*
X64878571Y-14714642D01*
X64807142Y-14571785D01*
X64807142Y-14000357D01*
X64878571Y-13857500D01*
X65021428Y-13786071D01*
X65307142Y-13786071D01*
X65450000Y-13857500D01*
X65521428Y-14000357D01*
X65521428Y-14143214D01*
X64807142Y-14286071D01*
X66164285Y-13786071D02*
X66164285Y-14786071D01*
X66164285Y-13928928D02*
X66235714Y-13857500D01*
X66378571Y-13786071D01*
X66592857Y-13786071D01*
X66735714Y-13857500D01*
X66807142Y-14000357D01*
X66807142Y-14786071D01*
X68592857Y-13428928D02*
X68664285Y-13357500D01*
X68807142Y-13286071D01*
X69164285Y-13286071D01*
X69307142Y-13357500D01*
X69378571Y-13428928D01*
X69450000Y-13571785D01*
X69450000Y-13714642D01*
X69378571Y-13928928D01*
X68521428Y-14786071D01*
X69450000Y-14786071D01*
X72092857Y-14786071D02*
X71592857Y-14071785D01*
X71235714Y-14786071D02*
X71235714Y-13286071D01*
X71807142Y-13286071D01*
X71950000Y-13357500D01*
X72021428Y-13428928D01*
X72092857Y-13571785D01*
X72092857Y-13786071D01*
X72021428Y-13928928D01*
X71950000Y-14000357D01*
X71807142Y-14071785D01*
X71235714Y-14071785D01*
X73307142Y-14714642D02*
X73164285Y-14786071D01*
X72878571Y-14786071D01*
X72735714Y-14714642D01*
X72664285Y-14571785D01*
X72664285Y-14000357D01*
X72735714Y-13857500D01*
X72878571Y-13786071D01*
X73164285Y-13786071D01*
X73307142Y-13857500D01*
X73378571Y-14000357D01*
X73378571Y-14143214D01*
X72664285Y-14286071D01*
X73878571Y-13786071D02*
X74235714Y-14786071D01*
X74592857Y-13786071D01*
X76592857Y-13286071D02*
X76735714Y-13286071D01*
X76878571Y-13357500D01*
X76950000Y-13428928D01*
X77021428Y-13571785D01*
X77092857Y-13857500D01*
X77092857Y-14214642D01*
X77021428Y-14500357D01*
X76950000Y-14643214D01*
X76878571Y-14714642D01*
X76735714Y-14786071D01*
X76592857Y-14786071D01*
X76450000Y-14714642D01*
X76378571Y-14643214D01*
X76307142Y-14500357D01*
X76235714Y-14214642D01*
X76235714Y-13857500D01*
X76307142Y-13571785D01*
X76378571Y-13428928D01*
X76450000Y-13357500D01*
X76592857Y-13286071D01*
X63985714Y-15701071D02*
X63985714Y-16772500D01*
X63914285Y-16986785D01*
X63771428Y-17129642D01*
X63557142Y-17201071D01*
X63414285Y-17201071D01*
X65342857Y-17201071D02*
X65342857Y-16415357D01*
X65271428Y-16272500D01*
X65128571Y-16201071D01*
X64842857Y-16201071D01*
X64700000Y-16272500D01*
X65342857Y-17129642D02*
X65200000Y-17201071D01*
X64842857Y-17201071D01*
X64700000Y-17129642D01*
X64628571Y-16986785D01*
X64628571Y-16843928D01*
X64700000Y-16701071D01*
X64842857Y-16629642D01*
X65200000Y-16629642D01*
X65342857Y-16558214D01*
X66057142Y-16201071D02*
X66057142Y-17201071D01*
X66057142Y-16343928D02*
X66128571Y-16272500D01*
X66271428Y-16201071D01*
X66485714Y-16201071D01*
X66628571Y-16272500D01*
X66700000Y-16415357D01*
X66700000Y-17201071D01*
X69271428Y-15701071D02*
X68557142Y-15701071D01*
X68485714Y-16415357D01*
X68557142Y-16343928D01*
X68700000Y-16272500D01*
X69057142Y-16272500D01*
X69200000Y-16343928D01*
X69271428Y-16415357D01*
X69342857Y-16558214D01*
X69342857Y-16915357D01*
X69271428Y-17058214D01*
X69200000Y-17129642D01*
X69057142Y-17201071D01*
X68700000Y-17201071D01*
X68557142Y-17129642D01*
X68485714Y-17058214D01*
X70057142Y-17129642D02*
X70057142Y-17201071D01*
X69985714Y-17343928D01*
X69914285Y-17415357D01*
X71771428Y-15843928D02*
X71842857Y-15772500D01*
X71985714Y-15701071D01*
X72342857Y-15701071D01*
X72485714Y-15772500D01*
X72557142Y-15843928D01*
X72628571Y-15986785D01*
X72628571Y-16129642D01*
X72557142Y-16343928D01*
X71700000Y-17201071D01*
X72628571Y-17201071D01*
X73557142Y-15701071D02*
X73700000Y-15701071D01*
X73842857Y-15772500D01*
X73914285Y-15843928D01*
X73985714Y-15986785D01*
X74057142Y-16272500D01*
X74057142Y-16629642D01*
X73985714Y-16915357D01*
X73914285Y-17058214D01*
X73842857Y-17129642D01*
X73700000Y-17201071D01*
X73557142Y-17201071D01*
X73414285Y-17129642D01*
X73342857Y-17058214D01*
X73271428Y-16915357D01*
X73200000Y-16629642D01*
X73200000Y-16272500D01*
X73271428Y-15986785D01*
X73342857Y-15843928D01*
X73414285Y-15772500D01*
X73557142Y-15701071D01*
X74628571Y-15843928D02*
X74700000Y-15772500D01*
X74842857Y-15701071D01*
X75200000Y-15701071D01*
X75342857Y-15772500D01*
X75414285Y-15843928D01*
X75485714Y-15986785D01*
X75485714Y-16129642D01*
X75414285Y-16343928D01*
X74557142Y-17201071D01*
X75485714Y-17201071D01*
X76057142Y-15843928D02*
X76128571Y-15772500D01*
X76271428Y-15701071D01*
X76628571Y-15701071D01*
X76771428Y-15772500D01*
X76842857Y-15843928D01*
X76914285Y-15986785D01*
X76914285Y-16129642D01*
X76842857Y-16343928D01*
X75985714Y-17201071D01*
X76914285Y-17201071D01*
X60057142Y-19616071D02*
X60057142Y-18116071D01*
X60414285Y-18116071D01*
X60628571Y-18187500D01*
X60771428Y-18330357D01*
X60842857Y-18473214D01*
X60914285Y-18758928D01*
X60914285Y-18973214D01*
X60842857Y-19258928D01*
X60771428Y-19401785D01*
X60628571Y-19544642D01*
X60414285Y-19616071D01*
X60057142Y-19616071D01*
X62128571Y-19544642D02*
X61985714Y-19616071D01*
X61700000Y-19616071D01*
X61557142Y-19544642D01*
X61485714Y-19401785D01*
X61485714Y-18830357D01*
X61557142Y-18687500D01*
X61700000Y-18616071D01*
X61985714Y-18616071D01*
X62128571Y-18687500D01*
X62200000Y-18830357D01*
X62200000Y-18973214D01*
X61485714Y-19116071D01*
X62771428Y-19544642D02*
X62914285Y-19616071D01*
X63200000Y-19616071D01*
X63342857Y-19544642D01*
X63414285Y-19401785D01*
X63414285Y-19330357D01*
X63342857Y-19187500D01*
X63200000Y-19116071D01*
X62985714Y-19116071D01*
X62842857Y-19044642D01*
X62771428Y-18901785D01*
X62771428Y-18830357D01*
X62842857Y-18687500D01*
X62985714Y-18616071D01*
X63200000Y-18616071D01*
X63342857Y-18687500D01*
X64057142Y-19616071D02*
X64057142Y-18616071D01*
X64057142Y-18116071D02*
X63985714Y-18187500D01*
X64057142Y-18258928D01*
X64128571Y-18187500D01*
X64057142Y-18116071D01*
X64057142Y-18258928D01*
X65414285Y-18616071D02*
X65414285Y-19830357D01*
X65342857Y-19973214D01*
X65271428Y-20044642D01*
X65128571Y-20116071D01*
X64914285Y-20116071D01*
X64771428Y-20044642D01*
X65414285Y-19544642D02*
X65271428Y-19616071D01*
X64985714Y-19616071D01*
X64842857Y-19544642D01*
X64771428Y-19473214D01*
X64700000Y-19330357D01*
X64700000Y-18901785D01*
X64771428Y-18758928D01*
X64842857Y-18687500D01*
X64985714Y-18616071D01*
X65271428Y-18616071D01*
X65414285Y-18687500D01*
X66128571Y-18616071D02*
X66128571Y-19616071D01*
X66128571Y-18758928D02*
X66200000Y-18687500D01*
X66342857Y-18616071D01*
X66557142Y-18616071D01*
X66700000Y-18687500D01*
X66771428Y-18830357D01*
X66771428Y-19616071D01*
X68057142Y-19544642D02*
X67914285Y-19616071D01*
X67628571Y-19616071D01*
X67485714Y-19544642D01*
X67414285Y-19401785D01*
X67414285Y-18830357D01*
X67485714Y-18687500D01*
X67628571Y-18616071D01*
X67914285Y-18616071D01*
X68057142Y-18687500D01*
X68128571Y-18830357D01*
X68128571Y-18973214D01*
X67414285Y-19116071D01*
X69414285Y-19616071D02*
X69414285Y-18116071D01*
X69414285Y-19544642D02*
X69271428Y-19616071D01*
X68985714Y-19616071D01*
X68842857Y-19544642D01*
X68771428Y-19473214D01*
X68700000Y-19330357D01*
X68700000Y-18901785D01*
X68771428Y-18758928D01*
X68842857Y-18687500D01*
X68985714Y-18616071D01*
X69271428Y-18616071D01*
X69414285Y-18687500D01*
X71271428Y-19616071D02*
X71271428Y-18116071D01*
X71271428Y-18687500D02*
X71414285Y-18616071D01*
X71700000Y-18616071D01*
X71842857Y-18687500D01*
X71914285Y-18758928D01*
X71985714Y-18901785D01*
X71985714Y-19330357D01*
X71914285Y-19473214D01*
X71842857Y-19544642D01*
X71700000Y-19616071D01*
X71414285Y-19616071D01*
X71271428Y-19544642D01*
X72485714Y-18616071D02*
X72842857Y-19616071D01*
X73200000Y-18616071D02*
X72842857Y-19616071D01*
X72700000Y-19973214D01*
X72628571Y-20044642D01*
X72485714Y-20116071D01*
X74914285Y-19616071D02*
X74914285Y-18116071D01*
X75485714Y-18116071D01*
X75628571Y-18187500D01*
X75700000Y-18258928D01*
X75771428Y-18401785D01*
X75771428Y-18616071D01*
X75700000Y-18758928D01*
X75628571Y-18830357D01*
X75485714Y-18901785D01*
X74914285Y-18901785D01*
X76271428Y-18616071D02*
X76628571Y-19616071D01*
X76985714Y-18616071D02*
X76628571Y-19616071D01*
X76485714Y-19973214D01*
X76414285Y-20044642D01*
X76271428Y-20116071D01*
X77771428Y-19616071D02*
X77628571Y-19544642D01*
X77557142Y-19401785D01*
X77557142Y-18116071D01*
X78557142Y-19616071D02*
X78414285Y-19544642D01*
X78342857Y-19473214D01*
X78271428Y-19330357D01*
X78271428Y-18901785D01*
X78342857Y-18758928D01*
X78414285Y-18687500D01*
X78557142Y-18616071D01*
X78771428Y-18616071D01*
X78914285Y-18687500D01*
X78985714Y-18758928D01*
X79057142Y-18901785D01*
X79057142Y-19330357D01*
X78985714Y-19473214D01*
X78914285Y-19544642D01*
X78771428Y-19616071D01*
X78557142Y-19616071D01*
X79700000Y-18616071D02*
X79700000Y-19616071D01*
X79700000Y-18758928D02*
X79771428Y-18687500D01*
X79914285Y-18616071D01*
X80128571Y-18616071D01*
X80271428Y-18687500D01*
X80342857Y-18830357D01*
X80342857Y-19616071D01*
X39107142Y-12357142D02*
X39107142Y-12857142D01*
X38321428Y-13071428D02*
X38321428Y-12357142D01*
X39821428Y-12357142D01*
X39821428Y-13071428D01*
X38892857Y-13714285D02*
X38892857Y-14857142D01*
X38321428Y-14285714D02*
X39464285Y-14285714D01*
X37750000Y-17142857D02*
X37821428Y-17071428D01*
X38035714Y-16928571D01*
X38178571Y-16857142D01*
X38392857Y-16785714D01*
X38750000Y-16714285D01*
X39035714Y-16714285D01*
X39392857Y-16785714D01*
X39607142Y-16857142D01*
X39750000Y-16928571D01*
X39964285Y-17071428D01*
X40035714Y-17142857D01*
X38321428Y-18571428D02*
X39035714Y-18071428D01*
X38321428Y-17714285D02*
X39821428Y-17714285D01*
X39821428Y-18285714D01*
X39750000Y-18428571D01*
X39678571Y-18500000D01*
X39535714Y-18571428D01*
X39321428Y-18571428D01*
X39178571Y-18500000D01*
X39107142Y-18428571D01*
X39035714Y-18285714D01*
X39035714Y-17714285D01*
X38392857Y-19785714D02*
X38321428Y-19642857D01*
X38321428Y-19357142D01*
X38392857Y-19214285D01*
X38535714Y-19142857D01*
X39107142Y-19142857D01*
X39250000Y-19214285D01*
X39321428Y-19357142D01*
X39321428Y-19642857D01*
X39250000Y-19785714D01*
X39107142Y-19857142D01*
X38964285Y-19857142D01*
X38821428Y-19142857D01*
X38321428Y-21142857D02*
X39821428Y-21142857D01*
X38392857Y-21142857D02*
X38321428Y-21000000D01*
X38321428Y-20714285D01*
X38392857Y-20571428D01*
X38464285Y-20500000D01*
X38607142Y-20428571D01*
X39035714Y-20428571D01*
X39178571Y-20500000D01*
X39250000Y-20571428D01*
X39321428Y-20714285D01*
X39321428Y-21000000D01*
X39250000Y-21142857D01*
X37750000Y-21714285D02*
X37821428Y-21785714D01*
X38035714Y-21928571D01*
X38178571Y-22000000D01*
X38392857Y-22071428D01*
X38750000Y-22142857D01*
X39035714Y-22142857D01*
X39392857Y-22071428D01*
X39607142Y-22000000D01*
X39750000Y-21928571D01*
X39964285Y-21785714D01*
X40035714Y-21714285D01*
D11*
X23425714Y-37052857D02*
X24111428Y-37052857D01*
X23768571Y-38252857D02*
X23768571Y-37052857D01*
X24682857Y-38252857D02*
X24568571Y-38195714D01*
X24511428Y-38138571D01*
X24454285Y-38024285D01*
X24454285Y-37681428D01*
X24511428Y-37567142D01*
X24568571Y-37510000D01*
X24682857Y-37452857D01*
X24854285Y-37452857D01*
X24968571Y-37510000D01*
X25025714Y-37567142D01*
X25082857Y-37681428D01*
X25082857Y-38024285D01*
X25025714Y-38138571D01*
X24968571Y-38195714D01*
X24854285Y-38252857D01*
X24682857Y-38252857D01*
X26511428Y-38252857D02*
X26511428Y-37452857D01*
X26511428Y-37567142D02*
X26568571Y-37510000D01*
X26682857Y-37452857D01*
X26854285Y-37452857D01*
X26968571Y-37510000D01*
X27025714Y-37624285D01*
X27025714Y-38252857D01*
X27025714Y-37624285D02*
X27082857Y-37510000D01*
X27197142Y-37452857D01*
X27368571Y-37452857D01*
X27482857Y-37510000D01*
X27540000Y-37624285D01*
X27540000Y-38252857D01*
X28625714Y-38252857D02*
X28625714Y-37624285D01*
X28568571Y-37510000D01*
X28454285Y-37452857D01*
X28225714Y-37452857D01*
X28111428Y-37510000D01*
X28625714Y-38195714D02*
X28511428Y-38252857D01*
X28225714Y-38252857D01*
X28111428Y-38195714D01*
X28054285Y-38081428D01*
X28054285Y-37967142D01*
X28111428Y-37852857D01*
X28225714Y-37795714D01*
X28511428Y-37795714D01*
X28625714Y-37738571D01*
X29197142Y-38252857D02*
X29197142Y-37452857D01*
X29197142Y-37052857D02*
X29140000Y-37110000D01*
X29197142Y-37167142D01*
X29254285Y-37110000D01*
X29197142Y-37052857D01*
X29197142Y-37167142D01*
X29768571Y-37452857D02*
X29768571Y-38252857D01*
X29768571Y-37567142D02*
X29825714Y-37510000D01*
X29940000Y-37452857D01*
X30111428Y-37452857D01*
X30225714Y-37510000D01*
X30282857Y-37624285D01*
X30282857Y-38252857D01*
X31768571Y-38252857D02*
X31768571Y-37052857D01*
X31768571Y-37510000D02*
X31882857Y-37452857D01*
X32111428Y-37452857D01*
X32225714Y-37510000D01*
X32282857Y-37567142D01*
X32340000Y-37681428D01*
X32340000Y-38024285D01*
X32282857Y-38138571D01*
X32225714Y-38195714D01*
X32111428Y-38252857D01*
X31882857Y-38252857D01*
X31768571Y-38195714D01*
X33025714Y-38252857D02*
X32911428Y-38195714D01*
X32854285Y-38138571D01*
X32797142Y-38024285D01*
X32797142Y-37681428D01*
X32854285Y-37567142D01*
X32911428Y-37510000D01*
X33025714Y-37452857D01*
X33197142Y-37452857D01*
X33311428Y-37510000D01*
X33368571Y-37567142D01*
X33425714Y-37681428D01*
X33425714Y-38024285D01*
X33368571Y-38138571D01*
X33311428Y-38195714D01*
X33197142Y-38252857D01*
X33025714Y-38252857D01*
X34454285Y-38252857D02*
X34454285Y-37624285D01*
X34397142Y-37510000D01*
X34282857Y-37452857D01*
X34054285Y-37452857D01*
X33940000Y-37510000D01*
X34454285Y-38195714D02*
X34340000Y-38252857D01*
X34054285Y-38252857D01*
X33940000Y-38195714D01*
X33882857Y-38081428D01*
X33882857Y-37967142D01*
X33940000Y-37852857D01*
X34054285Y-37795714D01*
X34340000Y-37795714D01*
X34454285Y-37738571D01*
X35025714Y-38252857D02*
X35025714Y-37452857D01*
X35025714Y-37681428D02*
X35082857Y-37567142D01*
X35140000Y-37510000D01*
X35254285Y-37452857D01*
X35368571Y-37452857D01*
X36282857Y-38252857D02*
X36282857Y-37052857D01*
X36282857Y-38195714D02*
X36168571Y-38252857D01*
X35940000Y-38252857D01*
X35825714Y-38195714D01*
X35768571Y-38138571D01*
X35711428Y-38024285D01*
X35711428Y-37681428D01*
X35768571Y-37567142D01*
X35825714Y-37510000D01*
X35940000Y-37452857D01*
X36168571Y-37452857D01*
X36282857Y-37510000D01*
D10*
X33111412Y-15405810D02*
X33111412Y-14548667D01*
X34611412Y-14977239D02*
X33111412Y-14977239D01*
X34611412Y-13834382D02*
X34539983Y-13977239D01*
X34468555Y-14048667D01*
X34325698Y-14120096D01*
X33897126Y-14120096D01*
X33754269Y-14048667D01*
X33682841Y-13977239D01*
X33611412Y-13834382D01*
X33611412Y-13620096D01*
X33682841Y-13477239D01*
X33754269Y-13405810D01*
X33897126Y-13334382D01*
X34325698Y-13334382D01*
X34468555Y-13405810D01*
X34539983Y-13477239D01*
X34611412Y-13620096D01*
X34611412Y-13834382D01*
X34611412Y-10834382D02*
X34611412Y-11548667D01*
X33111412Y-11548667D01*
X34611412Y-10120096D02*
X34539983Y-10262953D01*
X34468555Y-10334382D01*
X34325698Y-10405810D01*
X33897126Y-10405810D01*
X33754269Y-10334382D01*
X33682841Y-10262953D01*
X33611412Y-10120096D01*
X33611412Y-9905810D01*
X33682841Y-9762953D01*
X33754269Y-9691524D01*
X33897126Y-9620096D01*
X34325698Y-9620096D01*
X34468555Y-9691524D01*
X34539983Y-9762953D01*
X34611412Y-9905810D01*
X34611412Y-10120096D01*
X34611412Y-8334382D02*
X33825698Y-8334382D01*
X33682841Y-8405810D01*
X33611412Y-8548667D01*
X33611412Y-8834382D01*
X33682841Y-8977239D01*
X34539983Y-8334382D02*
X34611412Y-8477239D01*
X34611412Y-8834382D01*
X34539983Y-8977239D01*
X34397126Y-9048667D01*
X34254269Y-9048667D01*
X34111412Y-8977239D01*
X34039983Y-8834382D01*
X34039983Y-8477239D01*
X33968555Y-8334382D01*
X34611412Y-6977239D02*
X33111412Y-6977239D01*
X34539983Y-6977239D02*
X34611412Y-7120096D01*
X34611412Y-7405810D01*
X34539983Y-7548667D01*
X34468555Y-7620096D01*
X34325698Y-7691524D01*
X33897126Y-7691524D01*
X33754269Y-7620096D01*
X33682841Y-7548667D01*
X33611412Y-7405810D01*
X33611412Y-7120096D01*
X33682841Y-6977239D01*
X34468555Y-4262953D02*
X34539983Y-4334382D01*
X34611412Y-4548667D01*
X34611412Y-4691524D01*
X34539983Y-4905810D01*
X34397126Y-5048667D01*
X34254269Y-5120096D01*
X33968555Y-5191524D01*
X33754269Y-5191524D01*
X33468555Y-5120096D01*
X33325698Y-5048667D01*
X33182841Y-4905810D01*
X33111412Y-4691524D01*
X33111412Y-4548667D01*
X33182841Y-4334382D01*
X33254269Y-4262953D01*
X34539983Y-3048667D02*
X34611412Y-3191524D01*
X34611412Y-3477239D01*
X34539983Y-3620096D01*
X34397126Y-3691524D01*
X33825698Y-3691524D01*
X33682841Y-3620096D01*
X33611412Y-3477239D01*
X33611412Y-3191524D01*
X33682841Y-3048667D01*
X33825698Y-2977239D01*
X33968555Y-2977239D01*
X34111412Y-3691524D01*
X34611412Y-2120096D02*
X34539983Y-2262953D01*
X34397126Y-2334382D01*
X33111412Y-2334382D01*
X34611412Y-1334382D02*
X34539983Y-1477239D01*
X34397126Y-1548667D01*
X33111412Y-1548667D01*
D11*
X70142857Y-26642857D02*
X70828571Y-26642857D01*
X70485714Y-27842857D02*
X70485714Y-26642857D01*
X71400000Y-27842857D02*
X71285714Y-27785714D01*
X71228571Y-27728571D01*
X71171428Y-27614285D01*
X71171428Y-27271428D01*
X71228571Y-27157142D01*
X71285714Y-27100000D01*
X71400000Y-27042857D01*
X71571428Y-27042857D01*
X71685714Y-27100000D01*
X71742857Y-27157142D01*
X71800000Y-27271428D01*
X71800000Y-27614285D01*
X71742857Y-27728571D01*
X71685714Y-27785714D01*
X71571428Y-27842857D01*
X71400000Y-27842857D01*
X73171428Y-27785714D02*
X73285714Y-27842857D01*
X73514285Y-27842857D01*
X73628571Y-27785714D01*
X73685714Y-27671428D01*
X73685714Y-27614285D01*
X73628571Y-27500000D01*
X73514285Y-27442857D01*
X73342857Y-27442857D01*
X73228571Y-27385714D01*
X73171428Y-27271428D01*
X73171428Y-27214285D01*
X73228571Y-27100000D01*
X73342857Y-27042857D01*
X73514285Y-27042857D01*
X73628571Y-27100000D01*
X74085714Y-27042857D02*
X74314285Y-27842857D01*
X74542857Y-27271428D01*
X74771428Y-27842857D01*
X75000000Y-27042857D01*
X75457142Y-27842857D02*
X75457142Y-27042857D01*
X75457142Y-26642857D02*
X75400000Y-26700000D01*
X75457142Y-26757142D01*
X75514285Y-26700000D01*
X75457142Y-26642857D01*
X75457142Y-26757142D01*
X75857142Y-27042857D02*
X76314285Y-27042857D01*
X76028571Y-26642857D02*
X76028571Y-27671428D01*
X76085714Y-27785714D01*
X76200000Y-27842857D01*
X76314285Y-27842857D01*
X77228571Y-27785714D02*
X77114285Y-27842857D01*
X76885714Y-27842857D01*
X76771428Y-27785714D01*
X76714285Y-27728571D01*
X76657142Y-27614285D01*
X76657142Y-27271428D01*
X76714285Y-27157142D01*
X76771428Y-27100000D01*
X76885714Y-27042857D01*
X77114285Y-27042857D01*
X77228571Y-27100000D01*
X77742857Y-27842857D02*
X77742857Y-26642857D01*
X78257142Y-27842857D02*
X78257142Y-27214285D01*
X78200000Y-27100000D01*
X78085714Y-27042857D01*
X77914285Y-27042857D01*
X77800000Y-27100000D01*
X77742857Y-27157142D01*
X79742857Y-27042857D02*
X79742857Y-28242857D01*
X79742857Y-27100000D02*
X79857142Y-27042857D01*
X80085714Y-27042857D01*
X80200000Y-27100000D01*
X80257142Y-27157142D01*
X80314285Y-27271428D01*
X80314285Y-27614285D01*
X80257142Y-27728571D01*
X80200000Y-27785714D01*
X80085714Y-27842857D01*
X79857142Y-27842857D01*
X79742857Y-27785714D01*
X80828571Y-27842857D02*
X80828571Y-27042857D01*
X80828571Y-26642857D02*
X80771428Y-26700000D01*
X80828571Y-26757142D01*
X80885714Y-26700000D01*
X80828571Y-26642857D01*
X80828571Y-26757142D01*
X81400000Y-27042857D02*
X81400000Y-27842857D01*
X81400000Y-27157142D02*
X81457142Y-27100000D01*
X81571428Y-27042857D01*
X81742857Y-27042857D01*
X81857142Y-27100000D01*
X81914285Y-27214285D01*
X81914285Y-27842857D01*
X82428571Y-27785714D02*
X82542857Y-27842857D01*
X82771428Y-27842857D01*
X82885714Y-27785714D01*
X82942857Y-27671428D01*
X82942857Y-27614285D01*
X82885714Y-27500000D01*
X82771428Y-27442857D01*
X82600000Y-27442857D01*
X82485714Y-27385714D01*
X82428571Y-27271428D01*
X82428571Y-27214285D01*
X82485714Y-27100000D01*
X82600000Y-27042857D01*
X82771428Y-27042857D01*
X82885714Y-27100000D01*
D10*
X43607142Y-12052142D02*
X43607142Y-12552142D01*
X42821428Y-12766428D02*
X42821428Y-12052142D01*
X44321428Y-12052142D01*
X44321428Y-12766428D01*
X43392857Y-13409285D02*
X43392857Y-14552142D01*
X42250000Y-16837857D02*
X42321428Y-16766428D01*
X42535714Y-16623571D01*
X42678571Y-16552142D01*
X42892857Y-16480714D01*
X43250000Y-16409285D01*
X43535714Y-16409285D01*
X43892857Y-16480714D01*
X44107142Y-16552142D01*
X44250000Y-16623571D01*
X44464285Y-16766428D01*
X44535714Y-16837857D01*
X43607142Y-17909285D02*
X43535714Y-18123571D01*
X43464285Y-18195000D01*
X43321428Y-18266428D01*
X43107142Y-18266428D01*
X42964285Y-18195000D01*
X42892857Y-18123571D01*
X42821428Y-17980714D01*
X42821428Y-17409285D01*
X44321428Y-17409285D01*
X44321428Y-17909285D01*
X44250000Y-18052142D01*
X44178571Y-18123571D01*
X44035714Y-18195000D01*
X43892857Y-18195000D01*
X43750000Y-18123571D01*
X43678571Y-18052142D01*
X43607142Y-17909285D01*
X43607142Y-17409285D01*
X42821428Y-19123571D02*
X42892857Y-18980714D01*
X43035714Y-18909285D01*
X44321428Y-18909285D01*
X42821428Y-20337857D02*
X43607142Y-20337857D01*
X43750000Y-20266428D01*
X43821428Y-20123571D01*
X43821428Y-19837857D01*
X43750000Y-19695000D01*
X42892857Y-20337857D02*
X42821428Y-20195000D01*
X42821428Y-19837857D01*
X42892857Y-19695000D01*
X43035714Y-19623571D01*
X43178571Y-19623571D01*
X43321428Y-19695000D01*
X43392857Y-19837857D01*
X43392857Y-20195000D01*
X43464285Y-20337857D01*
X42892857Y-21695000D02*
X42821428Y-21552142D01*
X42821428Y-21266428D01*
X42892857Y-21123571D01*
X42964285Y-21052142D01*
X43107142Y-20980714D01*
X43535714Y-20980714D01*
X43678571Y-21052142D01*
X43750000Y-21123571D01*
X43821428Y-21266428D01*
X43821428Y-21552142D01*
X43750000Y-21695000D01*
X42821428Y-22337857D02*
X44321428Y-22337857D01*
X43392857Y-22480714D02*
X42821428Y-22909285D01*
X43821428Y-22909285D02*
X43250000Y-22337857D01*
X42250000Y-23409285D02*
X42321428Y-23480714D01*
X42535714Y-23623571D01*
X42678571Y-23695000D01*
X42892857Y-23766428D01*
X43250000Y-23837857D01*
X43535714Y-23837857D01*
X43892857Y-23766428D01*
X44107142Y-23695000D01*
X44250000Y-23623571D01*
X44464285Y-23480714D01*
X44535714Y-23409285D01*
D12*
%TO.C,D2*%
X7551904Y-23622380D02*
X7551904Y-22622380D01*
X7790000Y-22622380D01*
X7932857Y-22670000D01*
X8028095Y-22765238D01*
X8075714Y-22860476D01*
X8123333Y-23050952D01*
X8123333Y-23193809D01*
X8075714Y-23384285D01*
X8028095Y-23479523D01*
X7932857Y-23574761D01*
X7790000Y-23622380D01*
X7551904Y-23622380D01*
X8504285Y-22717619D02*
X8551904Y-22670000D01*
X8647142Y-22622380D01*
X8885238Y-22622380D01*
X8980476Y-22670000D01*
X9028095Y-22717619D01*
X9075714Y-22812857D01*
X9075714Y-22908095D01*
X9028095Y-23050952D01*
X8456666Y-23622380D01*
X9075714Y-23622380D01*
X11838095Y-23252380D02*
X11838095Y-22252380D01*
X12409523Y-23252380D02*
X11980952Y-22680952D01*
X12409523Y-22252380D02*
X11838095Y-22823809D01*
D10*
%TO.C,J1*%
X21750000Y-25378571D02*
X21750000Y-26450000D01*
X21678571Y-26664285D01*
X21535714Y-26807142D01*
X21321428Y-26878571D01*
X21178571Y-26878571D01*
X23250000Y-26878571D02*
X22392857Y-26878571D01*
X22821428Y-26878571D02*
X22821428Y-25378571D01*
X22678571Y-25592857D01*
X22535714Y-25735714D01*
X22392857Y-25807142D01*
D12*
%TO.C,J3*%
X69852380Y-38033333D02*
X70566666Y-38033333D01*
X70709523Y-38080952D01*
X70804761Y-38176190D01*
X70852380Y-38319047D01*
X70852380Y-38414285D01*
X69852380Y-37652380D02*
X69852380Y-37033333D01*
X70233333Y-37366666D01*
X70233333Y-37223809D01*
X70280952Y-37128571D01*
X70328571Y-37080952D01*
X70423809Y-37033333D01*
X70661904Y-37033333D01*
X70757142Y-37080952D01*
X70804761Y-37128571D01*
X70852380Y-37223809D01*
X70852380Y-37509523D01*
X70804761Y-37604761D01*
X70757142Y-37652380D01*
D10*
%TO.C,J2*%
X56878571Y-2600000D02*
X57950000Y-2600000D01*
X58164285Y-2671428D01*
X58307142Y-2814285D01*
X58378571Y-3028571D01*
X58378571Y-3171428D01*
X57021428Y-1957142D02*
X56950000Y-1885714D01*
X56878571Y-1742857D01*
X56878571Y-1385714D01*
X56950000Y-1242857D01*
X57021428Y-1171428D01*
X57164285Y-1100000D01*
X57307142Y-1100000D01*
X57521428Y-1171428D01*
X58378571Y-2028571D01*
X58378571Y-1100000D01*
D13*
%TO.C,D2*%
X10230000Y-22170000D02*
X10230000Y-19230000D01*
X9990000Y-22170000D02*
X9990000Y-19230000D01*
X10110000Y-22170000D02*
X10110000Y-19230000D01*
X5570000Y-19230000D02*
X5570000Y-19360000D01*
X11010000Y-19230000D02*
X5570000Y-19230000D01*
X11010000Y-19360000D02*
X11010000Y-19230000D01*
X5570000Y-22170000D02*
X5570000Y-22040000D01*
X11010000Y-22170000D02*
X5570000Y-22170000D01*
X11010000Y-22040000D02*
X11010000Y-22170000D01*
D10*
%TO.C,J1*%
X13000000Y-29000000D02*
X13000000Y-35000000D01*
X11750000Y-36500000D02*
X19750000Y-36500000D01*
X11750000Y-27500000D02*
X32250000Y-27500000D01*
X19750000Y-36500000D02*
X19750000Y-35000000D01*
X13000000Y-29000000D02*
X31000000Y-29000000D01*
X31000000Y-29000000D02*
X31000000Y-35000000D01*
X32250000Y-27500000D02*
X32250000Y-36500000D01*
X11750000Y-27500000D02*
X11750000Y-36500000D01*
X31000000Y-35000000D02*
X24250000Y-35000000D01*
X13000000Y-35000000D02*
X19750000Y-35000000D01*
X32250000Y-36500000D02*
X24250000Y-36500000D01*
X24250000Y-36500000D02*
X24250000Y-35000000D01*
D14*
X18190000Y-38350000D02*
X15650000Y-38350000D01*
X15650000Y-38350000D02*
X16920000Y-37080000D01*
X16920000Y-37080000D02*
X18190000Y-38350000D01*
G36*
X18190000Y-38350000D02*
G01*
X15650000Y-38350000D01*
X16920000Y-37080000D01*
X18190000Y-38350000D01*
G37*
X18190000Y-38350000D02*
X15650000Y-38350000D01*
X16920000Y-37080000D01*
X18190000Y-38350000D01*
D13*
%TO.C,J3*%
X80070000Y-32725000D02*
X80035000Y-32761000D01*
X77773000Y-35023000D02*
X77726000Y-35069000D01*
X71440000Y-38660000D02*
X81560000Y-38660000D01*
X81560000Y-28739000D02*
X81560000Y-38660000D01*
X71440000Y-36600000D02*
X81560000Y-36600000D01*
X71440000Y-28739000D02*
X81560000Y-28739000D01*
X71440000Y-28739000D02*
X71440000Y-38660000D01*
X80275000Y-32931000D02*
X80228000Y-32977000D01*
X71200000Y-38160000D02*
X71200000Y-38900000D01*
X71200000Y-38900000D02*
X71700000Y-38900000D01*
X71440000Y-38100000D02*
X81560000Y-38100000D01*
X77966000Y-35239000D02*
X77931000Y-35274000D01*
X71440000Y-31699000D02*
X81560000Y-31699000D01*
X73316000Y-35535000D02*
G75*
G03*
X74028805Y-35680253I683999J1535001D01*
G01*
X72465000Y-33316000D02*
G75*
G03*
X72464573Y-34683042I1534993J-684001D01*
G01*
X74000000Y-35680000D02*
G75*
G03*
X74683318Y-35534756I1J1679992D01*
G01*
X75535000Y-34684000D02*
G75*
G03*
X75535427Y-33316958I-1534993J684001D01*
G01*
X74684000Y-32465000D02*
G75*
G03*
X73316958Y-32464573I-684001J-1534993D01*
G01*
X80680000Y-34000000D02*
G75*
G03*
X80680000Y-34000000I-1680000J0D01*
G01*
%TO.C,J2*%
X56300000Y-1535000D02*
X56300000Y-795000D01*
X37430000Y-6970000D02*
X37465000Y-6934000D01*
X47225000Y-6764000D02*
X47272000Y-6718000D01*
X49727000Y-4672000D02*
X49774000Y-4626000D01*
X56060000Y-10956000D02*
X35939000Y-10956000D01*
X49534000Y-4456000D02*
X49569000Y-4421000D01*
X56060000Y-1595000D02*
X35939000Y-1595000D01*
X56060000Y-3095000D02*
X35939000Y-3095000D01*
X56060000Y-1035000D02*
X35939000Y-1035000D01*
X35939000Y-10956000D02*
X35939000Y-1035000D01*
X42225000Y-6764000D02*
X42272000Y-6718000D01*
X56300000Y-795000D02*
X55800000Y-795000D01*
X56060000Y-7996000D02*
X35939000Y-7996000D01*
X39727000Y-4672000D02*
X39774000Y-4626000D01*
X42430000Y-6970000D02*
X42465000Y-6934000D01*
X37225000Y-6764000D02*
X37272000Y-6718000D01*
X47430000Y-6970000D02*
X47465000Y-6934000D01*
X44534000Y-4456000D02*
X44569000Y-4421000D01*
X44727000Y-4672000D02*
X44774000Y-4626000D01*
X39534000Y-4456000D02*
X39569000Y-4421000D01*
X56060000Y-10956000D02*
X56060000Y-1035000D01*
X53500000Y-4015000D02*
G75*
G03*
X52816682Y-4160244I-1J-1679992D01*
G01*
X54184000Y-4160000D02*
G75*
G03*
X53471195Y-4014747I-683999J-1535001D01*
G01*
X51965000Y-5011000D02*
G75*
G03*
X51964573Y-6378042I1534993J-684001D01*
G01*
X52816000Y-7230000D02*
G75*
G03*
X54183042Y-7230427I684001J1534993D01*
G01*
X55035000Y-6379000D02*
G75*
G03*
X55035427Y-5011958I-1534993J684001D01*
G01*
X40180000Y-5695000D02*
G75*
G03*
X40180000Y-5695000I-1680000J0D01*
G01*
X50180000Y-5695000D02*
G75*
G03*
X50180000Y-5695000I-1680000J0D01*
G01*
X45180000Y-5695000D02*
G75*
G03*
X45180000Y-5695000I-1680000J0D01*
G01*
%TD*%
M02*
