%TF.GenerationSoftware,KiCad,Pcbnew,(5.99.0-9519-ga70106a3bd)*%
%TF.CreationDate,2021-04-17T12:17:53-04:00*%
%TF.ProjectId,hotswap-board,686f7473-7761-4702-9d62-6f6172642e6b,rev?*%
%TF.SameCoordinates,Original*%
%TF.FileFunction,Legend,Top*%
%TF.FilePolarity,Positive*%
%FSLAX46Y46*%
G04 Gerber Fmt 4.6, Leading zero omitted, Abs format (unit mm)*
G04 Created by KiCad (PCBNEW (5.99.0-9519-ga70106a3bd)) date 2021-04-17 12:17:53*
%MOMM*%
%LPD*%
G01*
G04 APERTURE LIST*
%ADD10C,0.150000*%
%ADD11C,0.120000*%
G04 APERTURE END LIST*
D10*
%TO.C,H4*%
X-16761904Y-6602380D02*
X-16761904Y-5602380D01*
X-16761904Y-6078571D02*
X-16190476Y-6078571D01*
X-16190476Y-6602380D02*
X-16190476Y-5602380D01*
X-15285714Y-5935714D02*
X-15285714Y-6602380D01*
X-15523809Y-5554761D02*
X-15761904Y-6269047D01*
X-15142857Y-6269047D01*
%TO.C,H2*%
X15238095Y-6602380D02*
X15238095Y-5602380D01*
X15238095Y-6078571D02*
X15809523Y-6078571D01*
X15809523Y-6602380D02*
X15809523Y-5602380D01*
X16238095Y-5697619D02*
X16285714Y-5650000D01*
X16380952Y-5602380D01*
X16619047Y-5602380D01*
X16714285Y-5650000D01*
X16761904Y-5697619D01*
X16809523Y-5792857D01*
X16809523Y-5888095D01*
X16761904Y-6030952D01*
X16190476Y-6602380D01*
X16809523Y-6602380D01*
%TO.C,H3*%
X-16761904Y13397619D02*
X-16761904Y14397619D01*
X-16761904Y13921428D02*
X-16190476Y13921428D01*
X-16190476Y13397619D02*
X-16190476Y14397619D01*
X-15809523Y14397619D02*
X-15190476Y14397619D01*
X-15523809Y14016666D01*
X-15380952Y14016666D01*
X-15285714Y13969047D01*
X-15238095Y13921428D01*
X-15190476Y13826190D01*
X-15190476Y13588095D01*
X-15238095Y13492857D01*
X-15285714Y13445238D01*
X-15380952Y13397619D01*
X-15666666Y13397619D01*
X-15761904Y13445238D01*
X-15809523Y13492857D01*
%TO.C,H1*%
X15238095Y13397619D02*
X15238095Y14397619D01*
X15238095Y13921428D02*
X15809523Y13921428D01*
X15809523Y13397619D02*
X15809523Y14397619D01*
X16809523Y13397619D02*
X16238095Y13397619D01*
X16523809Y13397619D02*
X16523809Y14397619D01*
X16428571Y14254761D01*
X16333333Y14159523D01*
X16238095Y14111904D01*
%TO.C,J1*%
X9122380Y-63333D02*
X9836666Y-63333D01*
X9979523Y-110952D01*
X10074761Y-206190D01*
X10122380Y-349047D01*
X10122380Y-444285D01*
X10122380Y936666D02*
X10122380Y365238D01*
X10122380Y650952D02*
X9122380Y650952D01*
X9265238Y555714D01*
X9360476Y460476D01*
X9408095Y365238D01*
D11*
X13270000Y-2330000D02*
X13270000Y270000D01*
X10670000Y2870000D02*
X13330000Y2870000D01*
X12000000Y-2330000D02*
X10670000Y-2330000D01*
X13330000Y-2330000D02*
X13330000Y2870000D01*
X10670000Y-2330000D02*
X10670000Y-1000000D01*
X10670000Y270000D02*
X10670000Y2870000D01*
X13270000Y270000D02*
X10670000Y270000D01*
X13270000Y-2330000D02*
X13330000Y-2330000D01*
%TD*%
M02*
