%TF.GenerationSoftware,KiCad,Pcbnew,(5.99.0-9519-ga70106a3bd)*%
%TF.CreationDate,2021-04-17T12:19:11-04:00*%
%TF.ProjectId,plate,706c6174-652e-46b6-9963-61645f706362,rev?*%
%TF.SameCoordinates,Original*%
%TF.FileFunction,Copper,L1,Top*%
%TF.FilePolarity,Positive*%
%FSLAX46Y46*%
G04 Gerber Fmt 4.6, Leading zero omitted, Abs format (unit mm)*
G04 Created by KiCad (PCBNEW (5.99.0-9519-ga70106a3bd)) date 2021-04-17 12:19:11*
%MOMM*%
%LPD*%
G01*
G04 APERTURE LIST*
%TA.AperFunction,ComponentPad*%
%ADD10C,5.700000*%
%TD*%
G04 APERTURE END LIST*
D10*
%TO.P,H4,1,1*%
%TO.N,GND*%
X-16000000Y-10000000D03*
%TD*%
%TO.P,H2,1,1*%
%TO.N,GND*%
X16000000Y-10000000D03*
%TD*%
%TO.P,H3,1,1*%
%TO.N,GND*%
X-16000000Y10000000D03*
%TD*%
%TO.P,H1,1,1*%
%TO.N,GND*%
X16000000Y10000000D03*
%TD*%
%TA.AperFunction,Conductor*%
%TO.N,GND*%
G36*
X13507009Y12471998D02*
G01*
X13553502Y12418342D01*
X13563606Y12348068D01*
X13534699Y12284170D01*
X13330608Y12045209D01*
X13326454Y12039776D01*
X13125336Y11744949D01*
X13121801Y11739112D01*
X12953694Y11424275D01*
X12950813Y11418096D01*
X12817689Y11086940D01*
X12815498Y11080505D01*
X12718913Y10736894D01*
X12717430Y10730258D01*
X12658521Y10378235D01*
X12657762Y10371463D01*
X12637216Y10015138D01*
X12637192Y10008343D01*
X12655251Y9651866D01*
X12655961Y9645110D01*
X12712411Y9292681D01*
X12713850Y9286026D01*
X12808030Y8941763D01*
X12810179Y8935302D01*
X12940991Y8603216D01*
X12943822Y8597033D01*
X13109734Y8281016D01*
X13113217Y8275174D01*
X13312292Y7978919D01*
X13316385Y7973489D01*
X13440892Y7825631D01*
X13453631Y7817187D01*
X13464074Y7823284D01*
X15910905Y10270115D01*
X15973217Y10304141D01*
X16044032Y10299076D01*
X16089095Y10270115D01*
X16270115Y10089095D01*
X16304141Y10026783D01*
X16299076Y9955968D01*
X16270115Y9910905D01*
X13821361Y7462151D01*
X13813747Y7448207D01*
X13813823Y7447137D01*
X13817008Y7442303D01*
X14097304Y7227224D01*
X14102934Y7223369D01*
X14407897Y7037948D01*
X14413899Y7034730D01*
X14737114Y6883326D01*
X14743419Y6880778D01*
X15081099Y6765164D01*
X15087650Y6763311D01*
X15435827Y6684846D01*
X15442546Y6683709D01*
X15797170Y6643304D01*
X15803960Y6642901D01*
X16160869Y6641033D01*
X16167670Y6641365D01*
X16522697Y6678053D01*
X16529425Y6679119D01*
X16878419Y6753938D01*
X16884968Y6755717D01*
X17223845Y6867789D01*
X17230187Y6870275D01*
X17554949Y7018277D01*
X17561008Y7021444D01*
X17867888Y7203657D01*
X17873552Y7207449D01*
X18158958Y7421738D01*
X18164188Y7426127D01*
X18279907Y7534415D01*
X18343313Y7566356D01*
X18413922Y7558946D01*
X18469316Y7514538D01*
X18492000Y7442415D01*
X18492000Y-7442105D01*
X18471998Y-7510226D01*
X18418342Y-7556719D01*
X18348068Y-7566823D01*
X18279267Y-7533502D01*
X18182094Y-7441288D01*
X18176925Y-7436889D01*
X17892993Y-7220590D01*
X17887369Y-7216768D01*
X17581755Y-7032409D01*
X17575738Y-7029210D01*
X17252006Y-6878939D01*
X17245670Y-6876405D01*
X16907612Y-6761979D01*
X16901044Y-6760145D01*
X16552606Y-6682899D01*
X16545867Y-6681783D01*
X16191109Y-6642617D01*
X16184328Y-6642238D01*
X15827391Y-6641615D01*
X15820618Y-6641970D01*
X15465704Y-6679899D01*
X15458994Y-6680986D01*
X15110271Y-6757020D01*
X15103696Y-6758831D01*
X14765225Y-6872082D01*
X14758903Y-6874585D01*
X14434649Y-7023725D01*
X14428606Y-7026911D01*
X14122362Y-7210195D01*
X14116716Y-7214003D01*
X13832038Y-7429303D01*
X13826848Y-7433690D01*
X13822555Y-7437735D01*
X13814532Y-7451446D01*
X13814567Y-7452286D01*
X13819618Y-7460408D01*
X16270115Y-9910905D01*
X16304141Y-9973217D01*
X16299076Y-10044032D01*
X16270115Y-10089095D01*
X16089095Y-10270115D01*
X16026783Y-10304141D01*
X15955968Y-10299076D01*
X15910905Y-10270115D01*
X13465479Y-7824689D01*
X13451942Y-7817297D01*
X13442241Y-7824084D01*
X13330595Y-7954806D01*
X13326461Y-7960214D01*
X13125336Y-8255051D01*
X13121801Y-8260888D01*
X12953694Y-8575725D01*
X12950813Y-8581904D01*
X12817689Y-8913060D01*
X12815498Y-8919495D01*
X12718913Y-9263106D01*
X12717430Y-9269742D01*
X12658521Y-9621765D01*
X12657762Y-9628537D01*
X12637216Y-9984862D01*
X12637192Y-9991657D01*
X12655251Y-10348134D01*
X12655961Y-10354890D01*
X12712411Y-10707319D01*
X12713850Y-10713974D01*
X12808030Y-11058237D01*
X12810179Y-11064698D01*
X12940991Y-11396784D01*
X12943822Y-11402967D01*
X13109734Y-11718984D01*
X13113217Y-11724826D01*
X13312286Y-12021072D01*
X13316389Y-12026516D01*
X13533918Y-12284840D01*
X13562496Y-12349831D01*
X13551401Y-12419955D01*
X13504155Y-12472949D01*
X13437538Y-12492000D01*
X-13439486Y-12492000D01*
X-13507607Y-12471998D01*
X-13554100Y-12418342D01*
X-13564204Y-12348068D01*
X-13535011Y-12283836D01*
X-13337756Y-12054505D01*
X-13333598Y-12049107D01*
X-13131439Y-11754964D01*
X-13127892Y-11749153D01*
X-12958689Y-11434908D01*
X-12955782Y-11428730D01*
X-12821501Y-11098038D01*
X-12819287Y-11091608D01*
X-12721507Y-10748346D01*
X-12720000Y-10741716D01*
X-12659859Y-10389881D01*
X-12659079Y-10383141D01*
X-12637192Y-10025275D01*
X-12637076Y-10021673D01*
X-12637006Y-10001820D01*
X-12637098Y-9998193D01*
X-12656486Y-9640200D01*
X-12657221Y-9633434D01*
X-12714899Y-9281218D01*
X-12716366Y-9274546D01*
X-12811742Y-8930634D01*
X-12813916Y-8924170D01*
X-12945885Y-8592547D01*
X-12948741Y-8586367D01*
X-13115751Y-8270939D01*
X-13119251Y-8265114D01*
X-13319363Y-7969550D01*
X-13323477Y-7964130D01*
X-13440911Y-7825656D01*
X-13453737Y-7817219D01*
X-13464062Y-7823272D01*
X-15910905Y-10270115D01*
X-15973217Y-10304141D01*
X-16044032Y-10299076D01*
X-16089095Y-10270115D01*
X-16270115Y-10089095D01*
X-16304141Y-10026783D01*
X-16299076Y-9955968D01*
X-16270115Y-9910905D01*
X-13821786Y-7462576D01*
X-13814172Y-7448632D01*
X-13814240Y-7447677D01*
X-13819183Y-7440202D01*
X-13823085Y-7436881D01*
X-14107007Y-7220590D01*
X-14112631Y-7216768D01*
X-14418245Y-7032409D01*
X-14424262Y-7029210D01*
X-14747994Y-6878939D01*
X-14754330Y-6876405D01*
X-15092388Y-6761979D01*
X-15098956Y-6760145D01*
X-15447394Y-6682899D01*
X-15454133Y-6681783D01*
X-15808891Y-6642617D01*
X-15815672Y-6642238D01*
X-16172609Y-6641615D01*
X-16179382Y-6641970D01*
X-16534296Y-6679899D01*
X-16541006Y-6680986D01*
X-16889729Y-6757020D01*
X-16896304Y-6758831D01*
X-17234775Y-6872082D01*
X-17241097Y-6874585D01*
X-17565351Y-7023725D01*
X-17571394Y-7026911D01*
X-17877638Y-7210195D01*
X-17883284Y-7214003D01*
X-18167951Y-7429295D01*
X-18173152Y-7433690D01*
X-18279587Y-7533989D01*
X-18342881Y-7566150D01*
X-18413516Y-7558986D01*
X-18469064Y-7514772D01*
X-18492000Y-7442289D01*
X-18492000Y6553839D01*
X-7516067Y6553839D01*
X-7514593Y6544982D01*
X-7514593Y6544979D01*
X-7514328Y6543384D01*
X-7512665Y6519247D01*
X-7513764Y6479166D01*
X-7513251Y6474718D01*
X-7508830Y6436384D01*
X-7508000Y6421948D01*
X-7508000Y-6422039D01*
X-7509015Y-6438003D01*
X-7513854Y-6475889D01*
X-7513721Y-6480748D01*
X-7513721Y-6480753D01*
X-7512775Y-6515226D01*
X-7514105Y-6532953D01*
X-7514305Y-6538680D01*
X-7515886Y-6547512D01*
X-7514925Y-6556430D01*
X-7514925Y-6556432D01*
X-7511065Y-6592246D01*
X-7510387Y-6602295D01*
X-7510269Y-6606583D01*
X-7510051Y-6614555D01*
X-7506966Y-6632563D01*
X-7505885Y-6640316D01*
X-7503605Y-6661475D01*
X-7500694Y-6672336D01*
X-7498208Y-6683680D01*
X-7491207Y-6724551D01*
X-7487269Y-6732618D01*
X-7486556Y-6734079D01*
X-7478080Y-6756738D01*
X-7474117Y-6771527D01*
X-7470274Y-6793487D01*
X-7468973Y-6808821D01*
X-7455636Y-6843296D01*
X-7453374Y-6850228D01*
X-7453360Y-6850223D01*
X-7451892Y-6854469D01*
X-7450732Y-6858797D01*
X-7440106Y-6883649D01*
X-7438465Y-6887682D01*
X-7429373Y-6911182D01*
X-7427616Y-6915723D01*
X-7425183Y-6919937D01*
X-7423082Y-6924327D01*
X-7423165Y-6924367D01*
X-7419936Y-6930823D01*
X-7406858Y-6961410D01*
X-7401152Y-6968344D01*
X-7394640Y-6976258D01*
X-7382814Y-6993322D01*
X-7370647Y-7014397D01*
X-7361256Y-7034605D01*
X-7356027Y-7049088D01*
X-7350734Y-7056334D01*
X-7350732Y-7056337D01*
X-7334220Y-7078940D01*
X-7330239Y-7085051D01*
X-7330227Y-7085043D01*
X-7327716Y-7088755D01*
X-7325475Y-7092636D01*
X-7322703Y-7096164D01*
X-7322703Y-7096165D01*
X-7308788Y-7113881D01*
X-7306134Y-7117384D01*
X-7303793Y-7120588D01*
X-7288411Y-7141643D01*
X-7284963Y-7145091D01*
X-7281804Y-7148780D01*
X-7281875Y-7148841D01*
X-7277082Y-7154244D01*
X-7256538Y-7180398D01*
X-7243279Y-7189873D01*
X-7240892Y-7191579D01*
X-7225056Y-7204998D01*
X-7207850Y-7222204D01*
X-7193544Y-7239297D01*
X-7184743Y-7251936D01*
X-7177752Y-7257567D01*
X-7177750Y-7257569D01*
X-7155954Y-7275124D01*
X-7150521Y-7280003D01*
X-7150511Y-7279991D01*
X-7147132Y-7282921D01*
X-7143960Y-7286093D01*
X-7140377Y-7288778D01*
X-7140374Y-7288781D01*
X-7122340Y-7302297D01*
X-7118871Y-7304993D01*
X-7095476Y-7323836D01*
X-7091261Y-7326269D01*
X-7087241Y-7329024D01*
X-7087294Y-7329101D01*
X-7081275Y-7333073D01*
X-7054658Y-7353022D01*
X-7036646Y-7359774D01*
X-7017884Y-7368634D01*
X-7002219Y-7377678D01*
X-6996806Y-7380803D01*
X-6978568Y-7393608D01*
X-6966798Y-7403537D01*
X-6958587Y-7407167D01*
X-6932998Y-7418480D01*
X-6926478Y-7421791D01*
X-6926472Y-7421778D01*
X-6922440Y-7423738D01*
X-6918562Y-7425977D01*
X-6914411Y-7427641D01*
X-6914406Y-7427644D01*
X-6893472Y-7436038D01*
X-6889422Y-7437745D01*
X-6866413Y-7447917D01*
X-6866410Y-7447918D01*
X-6861963Y-7449884D01*
X-6857264Y-7451143D01*
X-6852674Y-7452762D01*
X-6852705Y-7452849D01*
X-6845857Y-7455131D01*
X-6823316Y-7464169D01*
X-6823313Y-7464170D01*
X-6814980Y-7467511D01*
X-6797364Y-7469223D01*
X-6795847Y-7469370D01*
X-6775421Y-7473073D01*
X-6760620Y-7477039D01*
X-6744020Y-7483365D01*
X-6738577Y-7485193D01*
X-6730563Y-7489228D01*
X-6721736Y-7490851D01*
X-6721731Y-7490853D01*
X-6686304Y-7497369D01*
X-6676488Y-7499583D01*
X-6669773Y-7501382D01*
X-6664641Y-7502757D01*
X-6646508Y-7504935D01*
X-6638750Y-7506113D01*
X-6617831Y-7509961D01*
X-6612968Y-7510094D01*
X-6612954Y-7510096D01*
X-6606583Y-7510271D01*
X-6595017Y-7511122D01*
X-6568324Y-7514328D01*
X-6553839Y-7516068D01*
X-6544983Y-7514594D01*
X-6544979Y-7514594D01*
X-6543383Y-7514328D01*
X-6519245Y-7512665D01*
X-6479165Y-7513764D01*
X-6436383Y-7508830D01*
X-6421948Y-7508000D01*
X6422039Y-7508000D01*
X6438003Y-7509015D01*
X6475889Y-7513854D01*
X6480748Y-7513721D01*
X6480753Y-7513721D01*
X6495489Y-7513317D01*
X6515231Y-7512775D01*
X6532953Y-7514105D01*
X6538680Y-7514305D01*
X6547512Y-7515886D01*
X6556430Y-7514925D01*
X6556432Y-7514925D01*
X6592246Y-7511065D01*
X6602295Y-7510387D01*
X6610073Y-7510174D01*
X6610076Y-7510174D01*
X6614555Y-7510051D01*
X6632563Y-7506966D01*
X6640316Y-7505885D01*
X6649135Y-7504935D01*
X6656642Y-7504126D01*
X6656644Y-7504126D01*
X6661475Y-7503605D01*
X6672345Y-7500692D01*
X6683682Y-7498208D01*
X6715702Y-7492723D01*
X6715703Y-7492723D01*
X6724551Y-7491207D01*
X6734079Y-7486556D01*
X6756738Y-7478080D01*
X6771527Y-7474117D01*
X6793487Y-7470274D01*
X6797436Y-7469939D01*
X6808821Y-7468973D01*
X6843296Y-7455636D01*
X6850228Y-7453374D01*
X6850223Y-7453360D01*
X6854469Y-7451892D01*
X6858797Y-7450732D01*
X6883649Y-7440106D01*
X6887682Y-7438465D01*
X6911182Y-7429373D01*
X6911184Y-7429372D01*
X6915723Y-7427616D01*
X6919937Y-7425183D01*
X6924327Y-7423082D01*
X6924367Y-7423165D01*
X6930823Y-7419936D01*
X6961410Y-7406858D01*
X6976258Y-7394640D01*
X6993318Y-7382817D01*
X7014397Y-7370647D01*
X7034605Y-7361256D01*
X7040646Y-7359075D01*
X7040647Y-7359074D01*
X7049088Y-7356027D01*
X7056334Y-7350734D01*
X7056337Y-7350732D01*
X7078940Y-7334220D01*
X7085051Y-7330239D01*
X7085043Y-7330227D01*
X7088755Y-7327716D01*
X7092636Y-7325475D01*
X7096165Y-7322703D01*
X7113881Y-7308788D01*
X7117384Y-7306134D01*
X7137706Y-7291287D01*
X7141643Y-7288411D01*
X7145091Y-7284963D01*
X7148780Y-7281804D01*
X7148841Y-7281875D01*
X7154244Y-7277082D01*
X7156737Y-7275124D01*
X7180398Y-7256538D01*
X7191579Y-7240892D01*
X7204998Y-7225056D01*
X7222204Y-7207850D01*
X7239297Y-7193544D01*
X7251936Y-7184743D01*
X7275125Y-7155953D01*
X7280003Y-7150521D01*
X7279991Y-7150511D01*
X7282921Y-7147132D01*
X7286093Y-7143960D01*
X7290781Y-7137706D01*
X7302297Y-7122340D01*
X7304993Y-7118871D01*
X7320782Y-7099268D01*
X7320783Y-7099266D01*
X7323836Y-7095476D01*
X7326269Y-7091261D01*
X7329024Y-7087241D01*
X7329101Y-7087294D01*
X7333073Y-7081275D01*
X7353022Y-7054658D01*
X7359774Y-7036646D01*
X7368635Y-7017881D01*
X7380803Y-6996806D01*
X7393608Y-6978568D01*
X7403537Y-6966798D01*
X7418480Y-6932998D01*
X7421791Y-6926478D01*
X7421778Y-6926472D01*
X7423738Y-6922440D01*
X7425977Y-6918562D01*
X7428937Y-6911182D01*
X7436038Y-6893472D01*
X7437745Y-6889422D01*
X7447917Y-6866413D01*
X7447918Y-6866410D01*
X7449884Y-6861963D01*
X7451143Y-6857264D01*
X7452762Y-6852674D01*
X7452849Y-6852705D01*
X7455131Y-6845857D01*
X7464169Y-6823316D01*
X7464170Y-6823313D01*
X7467511Y-6814980D01*
X7469370Y-6795847D01*
X7473073Y-6775421D01*
X7477039Y-6760620D01*
X7483365Y-6744020D01*
X7485193Y-6738577D01*
X7489228Y-6730563D01*
X7490851Y-6721736D01*
X7490853Y-6721731D01*
X7497369Y-6686304D01*
X7499583Y-6676488D01*
X7501594Y-6668981D01*
X7502757Y-6664641D01*
X7504935Y-6646507D01*
X7506115Y-6638739D01*
X7507255Y-6632543D01*
X7509961Y-6617831D01*
X7510094Y-6612968D01*
X7510096Y-6612954D01*
X7510271Y-6606583D01*
X7511122Y-6595017D01*
X7514997Y-6562754D01*
X7516068Y-6553839D01*
X7514594Y-6544983D01*
X7514594Y-6544979D01*
X7514328Y-6543383D01*
X7512665Y-6519244D01*
X7513515Y-6488240D01*
X7513764Y-6479165D01*
X7508830Y-6436383D01*
X7508000Y-6421948D01*
X7508000Y6422038D01*
X7509015Y6438002D01*
X7510261Y6447758D01*
X7513854Y6475888D01*
X7513516Y6488240D01*
X7512775Y6515226D01*
X7514105Y6532953D01*
X7514305Y6538680D01*
X7515886Y6547512D01*
X7511065Y6592247D01*
X7510387Y6602295D01*
X7510174Y6610073D01*
X7510174Y6610076D01*
X7510051Y6614554D01*
X7509295Y6618969D01*
X7509294Y6618976D01*
X7506969Y6632547D01*
X7505885Y6640319D01*
X7504126Y6656637D01*
X7503605Y6661475D01*
X7502345Y6666176D01*
X7502344Y6666183D01*
X7500694Y6672340D01*
X7498210Y6683673D01*
X7496633Y6692877D01*
X7491207Y6724551D01*
X7486556Y6734079D01*
X7478080Y6756738D01*
X7474117Y6771527D01*
X7470274Y6793487D01*
X7469732Y6799879D01*
X7469731Y6799881D01*
X7468973Y6808822D01*
X7465736Y6817189D01*
X7465735Y6817194D01*
X7455637Y6843294D01*
X7453373Y6850234D01*
X7453358Y6850229D01*
X7451893Y6854466D01*
X7450732Y6858797D01*
X7447476Y6866412D01*
X7440116Y6883627D01*
X7438458Y6887699D01*
X7429373Y6911182D01*
X7429372Y6911185D01*
X7427616Y6915723D01*
X7425183Y6919938D01*
X7423081Y6924329D01*
X7423164Y6924369D01*
X7419933Y6930829D01*
X7410387Y6953156D01*
X7406858Y6961410D01*
X7394644Y6976253D01*
X7382822Y6993308D01*
X7370647Y7014395D01*
X7361257Y7034603D01*
X7356028Y7049088D01*
X7334224Y7078933D01*
X7330239Y7085052D01*
X7330226Y7085043D01*
X7327721Y7088747D01*
X7325475Y7092637D01*
X7308783Y7113887D01*
X7306129Y7117390D01*
X7291281Y7137714D01*
X7291279Y7137717D01*
X7288411Y7141642D01*
X7284968Y7145085D01*
X7281806Y7148777D01*
X7281877Y7148838D01*
X7277090Y7154234D01*
X7262082Y7173340D01*
X7262083Y7173340D01*
X7256538Y7180398D01*
X7249237Y7185616D01*
X7249235Y7185617D01*
X7240897Y7191575D01*
X7225057Y7204997D01*
X7207845Y7222209D01*
X7193541Y7239301D01*
X7184743Y7251936D01*
X7155955Y7275123D01*
X7150527Y7279998D01*
X7150517Y7279986D01*
X7147141Y7282913D01*
X7143961Y7286093D01*
X7122330Y7302303D01*
X7118872Y7304991D01*
X7099277Y7320774D01*
X7099274Y7320776D01*
X7095475Y7323836D01*
X7091253Y7326273D01*
X7087243Y7329022D01*
X7087296Y7329099D01*
X7081275Y7333073D01*
X7061838Y7347640D01*
X7054658Y7353021D01*
X7046258Y7356170D01*
X7046254Y7356172D01*
X7036658Y7359769D01*
X7017882Y7368634D01*
X6996804Y7380804D01*
X6978562Y7393613D01*
X6973661Y7397748D01*
X6973659Y7397750D01*
X6966798Y7403537D01*
X6958585Y7407168D01*
X6932993Y7418482D01*
X6926481Y7421790D01*
X6926474Y7421776D01*
X6922447Y7423734D01*
X6918562Y7425977D01*
X6914404Y7427644D01*
X6914394Y7427649D01*
X6893486Y7436032D01*
X6889429Y7437741D01*
X6866412Y7447917D01*
X6861963Y7449884D01*
X6857263Y7451143D01*
X6852670Y7452763D01*
X6852701Y7452851D01*
X6845853Y7455132D01*
X6823315Y7464169D01*
X6823312Y7464170D01*
X6814979Y7467511D01*
X6795841Y7469371D01*
X6775423Y7473073D01*
X6760613Y7477042D01*
X6744021Y7483364D01*
X6738580Y7485192D01*
X6730563Y7489228D01*
X6721736Y7490851D01*
X6721731Y7490853D01*
X6686304Y7497369D01*
X6676488Y7499583D01*
X6668974Y7501596D01*
X6668973Y7501596D01*
X6664641Y7502757D01*
X6660199Y7503291D01*
X6660197Y7503291D01*
X6651917Y7504286D01*
X6646507Y7504935D01*
X6638749Y7506114D01*
X6634100Y7506969D01*
X6617831Y7509961D01*
X6609271Y7510196D01*
X6606577Y7510270D01*
X6595010Y7511122D01*
X6562752Y7514997D01*
X6562748Y7514997D01*
X6553839Y7516067D01*
X6544982Y7514593D01*
X6544979Y7514593D01*
X6543384Y7514328D01*
X6519247Y7512665D01*
X6479166Y7513764D01*
X6448870Y7510270D01*
X6436384Y7508830D01*
X6421948Y7508000D01*
X-6422038Y7508000D01*
X-6438002Y7509015D01*
X-6475888Y7513854D01*
X-6480747Y7513721D01*
X-6480752Y7513721D01*
X-6495548Y7513315D01*
X-6515231Y7512775D01*
X-6532953Y7514105D01*
X-6538680Y7514305D01*
X-6547512Y7515886D01*
X-6556430Y7514925D01*
X-6556432Y7514925D01*
X-6592247Y7511065D01*
X-6602295Y7510387D01*
X-6610073Y7510174D01*
X-6610076Y7510174D01*
X-6614554Y7510051D01*
X-6618969Y7509295D01*
X-6618976Y7509294D01*
X-6632547Y7506969D01*
X-6640319Y7505885D01*
X-6643071Y7505588D01*
X-6661475Y7503605D01*
X-6666176Y7502345D01*
X-6666183Y7502344D01*
X-6672340Y7500694D01*
X-6683673Y7498210D01*
X-6692877Y7496633D01*
X-6724551Y7491207D01*
X-6732618Y7487269D01*
X-6734079Y7486556D01*
X-6756738Y7478080D01*
X-6771527Y7474117D01*
X-6793487Y7470274D01*
X-6799879Y7469732D01*
X-6799881Y7469731D01*
X-6808822Y7468973D01*
X-6817189Y7465736D01*
X-6817194Y7465735D01*
X-6843294Y7455637D01*
X-6850234Y7453373D01*
X-6850229Y7453358D01*
X-6854466Y7451893D01*
X-6858797Y7450732D01*
X-6862924Y7448967D01*
X-6862928Y7448966D01*
X-6883627Y7440116D01*
X-6887699Y7438458D01*
X-6911182Y7429373D01*
X-6911185Y7429372D01*
X-6915723Y7427616D01*
X-6919938Y7425183D01*
X-6924329Y7423081D01*
X-6924369Y7423164D01*
X-6930823Y7419936D01*
X-6961410Y7406858D01*
X-6972480Y7397748D01*
X-6976251Y7394645D01*
X-6993308Y7382822D01*
X-7014395Y7370647D01*
X-7034603Y7361257D01*
X-7049088Y7356028D01*
X-7056337Y7350732D01*
X-7078933Y7334224D01*
X-7085052Y7330239D01*
X-7085043Y7330226D01*
X-7088747Y7327721D01*
X-7092637Y7325475D01*
X-7111767Y7310448D01*
X-7113887Y7308783D01*
X-7117390Y7306129D01*
X-7122647Y7302288D01*
X-7141642Y7288411D01*
X-7145085Y7284968D01*
X-7148777Y7281806D01*
X-7148838Y7281877D01*
X-7154233Y7277091D01*
X-7180398Y7256538D01*
X-7185616Y7249237D01*
X-7185617Y7249235D01*
X-7191575Y7240897D01*
X-7204997Y7225057D01*
X-7222209Y7207845D01*
X-7239301Y7193541D01*
X-7251936Y7184743D01*
X-7257564Y7177755D01*
X-7275123Y7155955D01*
X-7279998Y7150527D01*
X-7279986Y7150517D01*
X-7282913Y7147141D01*
X-7286093Y7143961D01*
X-7302303Y7122330D01*
X-7304991Y7118872D01*
X-7309006Y7113887D01*
X-7323836Y7095475D01*
X-7326273Y7091253D01*
X-7329022Y7087243D01*
X-7329099Y7087296D01*
X-7333073Y7081275D01*
X-7353021Y7054658D01*
X-7356170Y7046258D01*
X-7356172Y7046254D01*
X-7359769Y7036658D01*
X-7368634Y7017882D01*
X-7380804Y6996804D01*
X-7393613Y6978562D01*
X-7397748Y6973661D01*
X-7397750Y6973659D01*
X-7403537Y6966798D01*
X-7407168Y6958586D01*
X-7407168Y6958585D01*
X-7418482Y6932993D01*
X-7421790Y6926481D01*
X-7421776Y6926474D01*
X-7423734Y6922447D01*
X-7425977Y6918562D01*
X-7427644Y6914404D01*
X-7427649Y6914394D01*
X-7436032Y6893486D01*
X-7437741Y6889429D01*
X-7449884Y6861963D01*
X-7451143Y6857263D01*
X-7452763Y6852670D01*
X-7452851Y6852701D01*
X-7455132Y6845853D01*
X-7464169Y6823315D01*
X-7464170Y6823312D01*
X-7467511Y6814979D01*
X-7469371Y6795841D01*
X-7473073Y6775423D01*
X-7477042Y6760613D01*
X-7483364Y6744021D01*
X-7485192Y6738580D01*
X-7489228Y6730563D01*
X-7490851Y6721736D01*
X-7490853Y6721731D01*
X-7497369Y6686304D01*
X-7499583Y6676488D01*
X-7500694Y6672340D01*
X-7502757Y6664641D01*
X-7503291Y6660199D01*
X-7503291Y6660197D01*
X-7504935Y6646510D01*
X-7506114Y6638749D01*
X-7509961Y6617831D01*
X-7510094Y6612975D01*
X-7510270Y6606577D01*
X-7511122Y6595010D01*
X-7514997Y6562752D01*
X-7514997Y6562748D01*
X-7516067Y6553839D01*
X-18492000Y6553839D01*
X-18492000Y7441860D01*
X-18471998Y7509981D01*
X-18418342Y7556474D01*
X-18348068Y7566578D01*
X-18278949Y7532954D01*
X-18191017Y7448924D01*
X-18185849Y7444496D01*
X-17902696Y7227224D01*
X-17897066Y7223369D01*
X-17592103Y7037948D01*
X-17586101Y7034730D01*
X-17262886Y6883326D01*
X-17256581Y6880778D01*
X-16918901Y6765164D01*
X-16912350Y6763311D01*
X-16564173Y6684846D01*
X-16557454Y6683709D01*
X-16202830Y6643304D01*
X-16196040Y6642901D01*
X-15839131Y6641033D01*
X-15832330Y6641365D01*
X-15477303Y6678053D01*
X-15470575Y6679119D01*
X-15121581Y6753938D01*
X-15115032Y6755717D01*
X-14776155Y6867789D01*
X-14769813Y6870275D01*
X-14445051Y7018277D01*
X-14438992Y7021444D01*
X-14132112Y7203657D01*
X-14126448Y7207449D01*
X-13841038Y7421741D01*
X-13835812Y7426126D01*
X-13822963Y7438150D01*
X-13814895Y7451828D01*
X-13814923Y7452554D01*
X-13820065Y7460855D01*
X-16270115Y9910905D01*
X-16304141Y9973217D01*
X-16299076Y10044032D01*
X-16270115Y10089095D01*
X-16089095Y10270115D01*
X-16026783Y10304141D01*
X-15955968Y10299076D01*
X-15910905Y10270115D01*
X-13465489Y7824699D01*
X-13451892Y7817274D01*
X-13442283Y7823971D01*
X-13337749Y7945502D01*
X-13333600Y7950890D01*
X-13131439Y8245036D01*
X-13127892Y8250847D01*
X-12958689Y8565092D01*
X-12955782Y8571270D01*
X-12821501Y8901962D01*
X-12819287Y8908392D01*
X-12721507Y9251654D01*
X-12720000Y9258284D01*
X-12659859Y9610119D01*
X-12659079Y9616859D01*
X-12637192Y9974725D01*
X-12637076Y9978327D01*
X-12637006Y9998180D01*
X-12637098Y10001807D01*
X-12656486Y10359800D01*
X-12657221Y10366566D01*
X-12714899Y10718782D01*
X-12716366Y10725454D01*
X-12811742Y11069366D01*
X-12813916Y11075830D01*
X-12945885Y11407453D01*
X-12948741Y11413633D01*
X-13115751Y11729061D01*
X-13119251Y11734886D01*
X-13319363Y12030450D01*
X-13323477Y12035869D01*
X-13534335Y12284505D01*
X-13563140Y12349395D01*
X-13552290Y12419558D01*
X-13505229Y12472716D01*
X-13438239Y12492000D01*
X13438888Y12492000D01*
X13507009Y12471998D01*
G37*
%TD.AperFunction*%
%TD*%
M02*
