%TF.GenerationSoftware,KiCad,Pcbnew,8.0.1*%
%TF.CreationDate,2024-04-18T10:21:10-04:00*%
%TF.ProjectId,Main-board-ArduinoNano,4d61696e-2d62-46f6-9172-642d41726475,rev?*%
%TF.SameCoordinates,Original*%
%TF.FileFunction,AssemblyDrawing,Top*%
%FSLAX46Y46*%
G04 Gerber Fmt 4.6, Leading zero omitted, Abs format (unit mm)*
G04 Created by KiCad (PCBNEW 8.0.1) date 2024-04-18 10:21:10*
%MOMM*%
%LPD*%
G01*
G04 APERTURE LIST*
%ADD10C,0.150000*%
%ADD11C,0.100000*%
G04 APERTURE END LIST*
D10*
X89109580Y-15616666D02*
X89157200Y-15664285D01*
X89157200Y-15664285D02*
X89204819Y-15807142D01*
X89204819Y-15807142D02*
X89204819Y-15902380D01*
X89204819Y-15902380D02*
X89157200Y-16045237D01*
X89157200Y-16045237D02*
X89061961Y-16140475D01*
X89061961Y-16140475D02*
X88966723Y-16188094D01*
X88966723Y-16188094D02*
X88776247Y-16235713D01*
X88776247Y-16235713D02*
X88633390Y-16235713D01*
X88633390Y-16235713D02*
X88442914Y-16188094D01*
X88442914Y-16188094D02*
X88347676Y-16140475D01*
X88347676Y-16140475D02*
X88252438Y-16045237D01*
X88252438Y-16045237D02*
X88204819Y-15902380D01*
X88204819Y-15902380D02*
X88204819Y-15807142D01*
X88204819Y-15807142D02*
X88252438Y-15664285D01*
X88252438Y-15664285D02*
X88300057Y-15616666D01*
X89204819Y-14664285D02*
X89204819Y-15235713D01*
X89204819Y-14949999D02*
X88204819Y-14949999D01*
X88204819Y-14949999D02*
X88347676Y-15045237D01*
X88347676Y-15045237D02*
X88442914Y-15140475D01*
X88442914Y-15140475D02*
X88490533Y-15235713D01*
X125466666Y-3231009D02*
X125133333Y-3231009D01*
X125133333Y-3754819D02*
X125133333Y-2754819D01*
X125133333Y-2754819D02*
X125609523Y-2754819D01*
X126514285Y-3754819D02*
X125942857Y-3754819D01*
X126228571Y-3754819D02*
X126228571Y-2754819D01*
X126228571Y-2754819D02*
X126133333Y-2897676D01*
X126133333Y-2897676D02*
X126038095Y-2992914D01*
X126038095Y-2992914D02*
X125942857Y-3040533D01*
X134538095Y-45454819D02*
X134538095Y-44454819D01*
X134538095Y-44931009D02*
X135109523Y-44931009D01*
X135109523Y-45454819D02*
X135109523Y-44454819D01*
X136109523Y-45454819D02*
X135538095Y-45454819D01*
X135823809Y-45454819D02*
X135823809Y-44454819D01*
X135823809Y-44454819D02*
X135728571Y-44597676D01*
X135728571Y-44597676D02*
X135633333Y-44692914D01*
X135633333Y-44692914D02*
X135538095Y-44740533D01*
X5359580Y-18264015D02*
X5407200Y-18311634D01*
X5407200Y-18311634D02*
X5454819Y-18454491D01*
X5454819Y-18454491D02*
X5454819Y-18549729D01*
X5454819Y-18549729D02*
X5407200Y-18692586D01*
X5407200Y-18692586D02*
X5311961Y-18787824D01*
X5311961Y-18787824D02*
X5216723Y-18835443D01*
X5216723Y-18835443D02*
X5026247Y-18883062D01*
X5026247Y-18883062D02*
X4883390Y-18883062D01*
X4883390Y-18883062D02*
X4692914Y-18835443D01*
X4692914Y-18835443D02*
X4597676Y-18787824D01*
X4597676Y-18787824D02*
X4502438Y-18692586D01*
X4502438Y-18692586D02*
X4454819Y-18549729D01*
X4454819Y-18549729D02*
X4454819Y-18454491D01*
X4454819Y-18454491D02*
X4502438Y-18311634D01*
X4502438Y-18311634D02*
X4550057Y-18264015D01*
X4454819Y-17930681D02*
X4454819Y-17311634D01*
X4454819Y-17311634D02*
X4835771Y-17644967D01*
X4835771Y-17644967D02*
X4835771Y-17502110D01*
X4835771Y-17502110D02*
X4883390Y-17406872D01*
X4883390Y-17406872D02*
X4931009Y-17359253D01*
X4931009Y-17359253D02*
X5026247Y-17311634D01*
X5026247Y-17311634D02*
X5264342Y-17311634D01*
X5264342Y-17311634D02*
X5359580Y-17359253D01*
X5359580Y-17359253D02*
X5407200Y-17406872D01*
X5407200Y-17406872D02*
X5454819Y-17502110D01*
X5454819Y-17502110D02*
X5454819Y-17787824D01*
X5454819Y-17787824D02*
X5407200Y-17883062D01*
X5407200Y-17883062D02*
X5359580Y-17930681D01*
X75816667Y-30533200D02*
X75959524Y-30580819D01*
X75959524Y-30580819D02*
X76197619Y-30580819D01*
X76197619Y-30580819D02*
X76292857Y-30533200D01*
X76292857Y-30533200D02*
X76340476Y-30485580D01*
X76340476Y-30485580D02*
X76388095Y-30390342D01*
X76388095Y-30390342D02*
X76388095Y-30295104D01*
X76388095Y-30295104D02*
X76340476Y-30199866D01*
X76340476Y-30199866D02*
X76292857Y-30152247D01*
X76292857Y-30152247D02*
X76197619Y-30104628D01*
X76197619Y-30104628D02*
X76007143Y-30057009D01*
X76007143Y-30057009D02*
X75911905Y-30009390D01*
X75911905Y-30009390D02*
X75864286Y-29961771D01*
X75864286Y-29961771D02*
X75816667Y-29866533D01*
X75816667Y-29866533D02*
X75816667Y-29771295D01*
X75816667Y-29771295D02*
X75864286Y-29676057D01*
X75864286Y-29676057D02*
X75911905Y-29628438D01*
X75911905Y-29628438D02*
X76007143Y-29580819D01*
X76007143Y-29580819D02*
X76245238Y-29580819D01*
X76245238Y-29580819D02*
X76388095Y-29628438D01*
X76721429Y-29580819D02*
X76959524Y-30580819D01*
X76959524Y-30580819D02*
X77150000Y-29866533D01*
X77150000Y-29866533D02*
X77340476Y-30580819D01*
X77340476Y-30580819D02*
X77578572Y-29580819D01*
X78388095Y-29914152D02*
X78388095Y-30580819D01*
X78150000Y-29533200D02*
X77911905Y-30247485D01*
X77911905Y-30247485D02*
X78530952Y-30247485D01*
X20166666Y-7959819D02*
X20166666Y-8674104D01*
X20166666Y-8674104D02*
X20119047Y-8816961D01*
X20119047Y-8816961D02*
X20023809Y-8912200D01*
X20023809Y-8912200D02*
X19880952Y-8959819D01*
X19880952Y-8959819D02*
X19785714Y-8959819D01*
X20785714Y-8388390D02*
X20690476Y-8340771D01*
X20690476Y-8340771D02*
X20642857Y-8293152D01*
X20642857Y-8293152D02*
X20595238Y-8197914D01*
X20595238Y-8197914D02*
X20595238Y-8150295D01*
X20595238Y-8150295D02*
X20642857Y-8055057D01*
X20642857Y-8055057D02*
X20690476Y-8007438D01*
X20690476Y-8007438D02*
X20785714Y-7959819D01*
X20785714Y-7959819D02*
X20976190Y-7959819D01*
X20976190Y-7959819D02*
X21071428Y-8007438D01*
X21071428Y-8007438D02*
X21119047Y-8055057D01*
X21119047Y-8055057D02*
X21166666Y-8150295D01*
X21166666Y-8150295D02*
X21166666Y-8197914D01*
X21166666Y-8197914D02*
X21119047Y-8293152D01*
X21119047Y-8293152D02*
X21071428Y-8340771D01*
X21071428Y-8340771D02*
X20976190Y-8388390D01*
X20976190Y-8388390D02*
X20785714Y-8388390D01*
X20785714Y-8388390D02*
X20690476Y-8436009D01*
X20690476Y-8436009D02*
X20642857Y-8483628D01*
X20642857Y-8483628D02*
X20595238Y-8578866D01*
X20595238Y-8578866D02*
X20595238Y-8769342D01*
X20595238Y-8769342D02*
X20642857Y-8864580D01*
X20642857Y-8864580D02*
X20690476Y-8912200D01*
X20690476Y-8912200D02*
X20785714Y-8959819D01*
X20785714Y-8959819D02*
X20976190Y-8959819D01*
X20976190Y-8959819D02*
X21071428Y-8912200D01*
X21071428Y-8912200D02*
X21119047Y-8864580D01*
X21119047Y-8864580D02*
X21166666Y-8769342D01*
X21166666Y-8769342D02*
X21166666Y-8578866D01*
X21166666Y-8578866D02*
X21119047Y-8483628D01*
X21119047Y-8483628D02*
X21071428Y-8436009D01*
X21071428Y-8436009D02*
X20976190Y-8388390D01*
X-4071904Y-3374819D02*
X-4071904Y-2374819D01*
X-4071904Y-2851009D02*
X-3500476Y-2851009D01*
X-3500476Y-3374819D02*
X-3500476Y-2374819D01*
X-2595714Y-2708152D02*
X-2595714Y-3374819D01*
X-2833809Y-2327200D02*
X-3071904Y-3041485D01*
X-3071904Y-3041485D02*
X-2452857Y-3041485D01*
X118856666Y-19454819D02*
X118856666Y-20169104D01*
X118856666Y-20169104D02*
X118809047Y-20311961D01*
X118809047Y-20311961D02*
X118713809Y-20407200D01*
X118713809Y-20407200D02*
X118570952Y-20454819D01*
X118570952Y-20454819D02*
X118475714Y-20454819D01*
X119237619Y-19454819D02*
X119856666Y-19454819D01*
X119856666Y-19454819D02*
X119523333Y-19835771D01*
X119523333Y-19835771D02*
X119666190Y-19835771D01*
X119666190Y-19835771D02*
X119761428Y-19883390D01*
X119761428Y-19883390D02*
X119809047Y-19931009D01*
X119809047Y-19931009D02*
X119856666Y-20026247D01*
X119856666Y-20026247D02*
X119856666Y-20264342D01*
X119856666Y-20264342D02*
X119809047Y-20359580D01*
X119809047Y-20359580D02*
X119761428Y-20407200D01*
X119761428Y-20407200D02*
X119666190Y-20454819D01*
X119666190Y-20454819D02*
X119380476Y-20454819D01*
X119380476Y-20454819D02*
X119285238Y-20407200D01*
X119285238Y-20407200D02*
X119237619Y-20359580D01*
X134538095Y-5454819D02*
X134538095Y-4454819D01*
X134538095Y-4931009D02*
X135109523Y-4931009D01*
X135109523Y-5454819D02*
X135109523Y-4454819D01*
X135538095Y-4550057D02*
X135585714Y-4502438D01*
X135585714Y-4502438D02*
X135680952Y-4454819D01*
X135680952Y-4454819D02*
X135919047Y-4454819D01*
X135919047Y-4454819D02*
X136014285Y-4502438D01*
X136014285Y-4502438D02*
X136061904Y-4550057D01*
X136061904Y-4550057D02*
X136109523Y-4645295D01*
X136109523Y-4645295D02*
X136109523Y-4740533D01*
X136109523Y-4740533D02*
X136061904Y-4883390D01*
X136061904Y-4883390D02*
X135490476Y-5454819D01*
X135490476Y-5454819D02*
X136109523Y-5454819D01*
X150108849Y-42881099D02*
X150108849Y-43595384D01*
X150108849Y-43595384D02*
X150061230Y-43738241D01*
X150061230Y-43738241D02*
X149965992Y-43833480D01*
X149965992Y-43833480D02*
X149823135Y-43881099D01*
X149823135Y-43881099D02*
X149727897Y-43881099D01*
X151108849Y-43881099D02*
X150537421Y-43881099D01*
X150823135Y-43881099D02*
X150823135Y-42881099D01*
X150823135Y-42881099D02*
X150727897Y-43023956D01*
X150727897Y-43023956D02*
X150632659Y-43119194D01*
X150632659Y-43119194D02*
X150537421Y-43166813D01*
X18666667Y-30533200D02*
X18809524Y-30580819D01*
X18809524Y-30580819D02*
X19047619Y-30580819D01*
X19047619Y-30580819D02*
X19142857Y-30533200D01*
X19142857Y-30533200D02*
X19190476Y-30485580D01*
X19190476Y-30485580D02*
X19238095Y-30390342D01*
X19238095Y-30390342D02*
X19238095Y-30295104D01*
X19238095Y-30295104D02*
X19190476Y-30199866D01*
X19190476Y-30199866D02*
X19142857Y-30152247D01*
X19142857Y-30152247D02*
X19047619Y-30104628D01*
X19047619Y-30104628D02*
X18857143Y-30057009D01*
X18857143Y-30057009D02*
X18761905Y-30009390D01*
X18761905Y-30009390D02*
X18714286Y-29961771D01*
X18714286Y-29961771D02*
X18666667Y-29866533D01*
X18666667Y-29866533D02*
X18666667Y-29771295D01*
X18666667Y-29771295D02*
X18714286Y-29676057D01*
X18714286Y-29676057D02*
X18761905Y-29628438D01*
X18761905Y-29628438D02*
X18857143Y-29580819D01*
X18857143Y-29580819D02*
X19095238Y-29580819D01*
X19095238Y-29580819D02*
X19238095Y-29628438D01*
X19571429Y-29580819D02*
X19809524Y-30580819D01*
X19809524Y-30580819D02*
X20000000Y-29866533D01*
X20000000Y-29866533D02*
X20190476Y-30580819D01*
X20190476Y-30580819D02*
X20428572Y-29580819D01*
X21333333Y-30580819D02*
X20761905Y-30580819D01*
X21047619Y-30580819D02*
X21047619Y-29580819D01*
X21047619Y-29580819D02*
X20952381Y-29723676D01*
X20952381Y-29723676D02*
X20857143Y-29818914D01*
X20857143Y-29818914D02*
X20761905Y-29866533D01*
X109491905Y-14704819D02*
X109491905Y-13704819D01*
X109491905Y-13704819D02*
X109730000Y-13704819D01*
X109730000Y-13704819D02*
X109872857Y-13752438D01*
X109872857Y-13752438D02*
X109968095Y-13847676D01*
X109968095Y-13847676D02*
X110015714Y-13942914D01*
X110015714Y-13942914D02*
X110063333Y-14133390D01*
X110063333Y-14133390D02*
X110063333Y-14276247D01*
X110063333Y-14276247D02*
X110015714Y-14466723D01*
X110015714Y-14466723D02*
X109968095Y-14561961D01*
X109968095Y-14561961D02*
X109872857Y-14657200D01*
X109872857Y-14657200D02*
X109730000Y-14704819D01*
X109730000Y-14704819D02*
X109491905Y-14704819D01*
X111015714Y-14704819D02*
X110444286Y-14704819D01*
X110730000Y-14704819D02*
X110730000Y-13704819D01*
X110730000Y-13704819D02*
X110634762Y-13847676D01*
X110634762Y-13847676D02*
X110539524Y-13942914D01*
X110539524Y-13942914D02*
X110444286Y-13990533D01*
X105768095Y-12604819D02*
X105768095Y-11604819D01*
X106339523Y-12604819D02*
X105910952Y-12033390D01*
X106339523Y-11604819D02*
X105768095Y-12176247D01*
X118315714Y-33059104D02*
X118791904Y-33059104D01*
X118220476Y-33344819D02*
X118553809Y-32344819D01*
X118553809Y-32344819D02*
X118887142Y-33344819D01*
X119172857Y-32440057D02*
X119220476Y-32392438D01*
X119220476Y-32392438D02*
X119315714Y-32344819D01*
X119315714Y-32344819D02*
X119553809Y-32344819D01*
X119553809Y-32344819D02*
X119649047Y-32392438D01*
X119649047Y-32392438D02*
X119696666Y-32440057D01*
X119696666Y-32440057D02*
X119744285Y-32535295D01*
X119744285Y-32535295D02*
X119744285Y-32630533D01*
X119744285Y-32630533D02*
X119696666Y-32773390D01*
X119696666Y-32773390D02*
X119125238Y-33344819D01*
X119125238Y-33344819D02*
X119744285Y-33344819D01*
X22907200Y-22833333D02*
X22954819Y-22690476D01*
X22954819Y-22690476D02*
X22954819Y-22452381D01*
X22954819Y-22452381D02*
X22907200Y-22357143D01*
X22907200Y-22357143D02*
X22859580Y-22309524D01*
X22859580Y-22309524D02*
X22764342Y-22261905D01*
X22764342Y-22261905D02*
X22669104Y-22261905D01*
X22669104Y-22261905D02*
X22573866Y-22309524D01*
X22573866Y-22309524D02*
X22526247Y-22357143D01*
X22526247Y-22357143D02*
X22478628Y-22452381D01*
X22478628Y-22452381D02*
X22431009Y-22642857D01*
X22431009Y-22642857D02*
X22383390Y-22738095D01*
X22383390Y-22738095D02*
X22335771Y-22785714D01*
X22335771Y-22785714D02*
X22240533Y-22833333D01*
X22240533Y-22833333D02*
X22145295Y-22833333D01*
X22145295Y-22833333D02*
X22050057Y-22785714D01*
X22050057Y-22785714D02*
X22002438Y-22738095D01*
X22002438Y-22738095D02*
X21954819Y-22642857D01*
X21954819Y-22642857D02*
X21954819Y-22404762D01*
X21954819Y-22404762D02*
X22002438Y-22261905D01*
X21811961Y-22547619D02*
X23097676Y-22547619D01*
X23335771Y-21547619D02*
X23335771Y-21595238D01*
X23335771Y-21595238D02*
X23288152Y-21690476D01*
X23288152Y-21690476D02*
X23192914Y-21738095D01*
X23192914Y-21738095D02*
X22716723Y-21738095D01*
X22716723Y-21738095D02*
X22621485Y-21785714D01*
X22621485Y-21785714D02*
X22573866Y-21880952D01*
X22573866Y-21880952D02*
X22526247Y-21785714D01*
X22526247Y-21785714D02*
X22431009Y-21738095D01*
X22431009Y-21738095D02*
X21954819Y-21738095D01*
X21954819Y-21738095D02*
X21859580Y-21690476D01*
X21859580Y-21690476D02*
X21811961Y-21595238D01*
X21811961Y-21595238D02*
X21811961Y-21547619D01*
X22954819Y-20595238D02*
X22478628Y-20928571D01*
X22954819Y-21166666D02*
X21954819Y-21166666D01*
X21954819Y-21166666D02*
X21954819Y-20785714D01*
X21954819Y-20785714D02*
X22002438Y-20690476D01*
X22002438Y-20690476D02*
X22050057Y-20642857D01*
X22050057Y-20642857D02*
X22145295Y-20595238D01*
X22145295Y-20595238D02*
X22288152Y-20595238D01*
X22288152Y-20595238D02*
X22383390Y-20642857D01*
X22383390Y-20642857D02*
X22431009Y-20690476D01*
X22431009Y-20690476D02*
X22478628Y-20785714D01*
X22478628Y-20785714D02*
X22478628Y-21166666D01*
X22431009Y-20166666D02*
X22431009Y-19833333D01*
X22954819Y-19690476D02*
X22954819Y-20166666D01*
X22954819Y-20166666D02*
X21954819Y-20166666D01*
X21954819Y-20166666D02*
X21954819Y-19690476D01*
X22431009Y-18928571D02*
X22431009Y-19261904D01*
X22954819Y-19261904D02*
X21954819Y-19261904D01*
X21954819Y-19261904D02*
X21954819Y-18785714D01*
X23335771Y-18499999D02*
X23335771Y-18452380D01*
X23335771Y-18452380D02*
X23288152Y-18357142D01*
X23288152Y-18357142D02*
X23192914Y-18309523D01*
X23192914Y-18309523D02*
X22716723Y-18309523D01*
X22716723Y-18309523D02*
X22621485Y-18261904D01*
X22621485Y-18261904D02*
X22573866Y-18166666D01*
X22573866Y-18166666D02*
X22526247Y-18261904D01*
X22526247Y-18261904D02*
X22431009Y-18309523D01*
X22431009Y-18309523D02*
X21954819Y-18309523D01*
X21954819Y-18309523D02*
X21859580Y-18357142D01*
X21859580Y-18357142D02*
X21811961Y-18452380D01*
X21811961Y-18452380D02*
X21811961Y-18499999D01*
X4538095Y-45454819D02*
X4538095Y-44454819D01*
X4538095Y-44931009D02*
X5109523Y-44931009D01*
X5109523Y-45454819D02*
X5109523Y-44454819D01*
X5490476Y-44454819D02*
X6109523Y-44454819D01*
X6109523Y-44454819D02*
X5776190Y-44835771D01*
X5776190Y-44835771D02*
X5919047Y-44835771D01*
X5919047Y-44835771D02*
X6014285Y-44883390D01*
X6014285Y-44883390D02*
X6061904Y-44931009D01*
X6061904Y-44931009D02*
X6109523Y-45026247D01*
X6109523Y-45026247D02*
X6109523Y-45264342D01*
X6109523Y-45264342D02*
X6061904Y-45359580D01*
X6061904Y-45359580D02*
X6014285Y-45407200D01*
X6014285Y-45407200D02*
X5919047Y-45454819D01*
X5919047Y-45454819D02*
X5633333Y-45454819D01*
X5633333Y-45454819D02*
X5538095Y-45407200D01*
X5538095Y-45407200D02*
X5490476Y-45359580D01*
X122004819Y-13158094D02*
X121004819Y-13158094D01*
X121004819Y-13158094D02*
X121004819Y-12919999D01*
X121004819Y-12919999D02*
X121052438Y-12777142D01*
X121052438Y-12777142D02*
X121147676Y-12681904D01*
X121147676Y-12681904D02*
X121242914Y-12634285D01*
X121242914Y-12634285D02*
X121433390Y-12586666D01*
X121433390Y-12586666D02*
X121576247Y-12586666D01*
X121576247Y-12586666D02*
X121766723Y-12634285D01*
X121766723Y-12634285D02*
X121861961Y-12681904D01*
X121861961Y-12681904D02*
X121957200Y-12777142D01*
X121957200Y-12777142D02*
X122004819Y-12919999D01*
X122004819Y-12919999D02*
X122004819Y-13158094D01*
X121004819Y-12253332D02*
X121004819Y-11634285D01*
X121004819Y-11634285D02*
X121385771Y-11967618D01*
X121385771Y-11967618D02*
X121385771Y-11824761D01*
X121385771Y-11824761D02*
X121433390Y-11729523D01*
X121433390Y-11729523D02*
X121481009Y-11681904D01*
X121481009Y-11681904D02*
X121576247Y-11634285D01*
X121576247Y-11634285D02*
X121814342Y-11634285D01*
X121814342Y-11634285D02*
X121909580Y-11681904D01*
X121909580Y-11681904D02*
X121957200Y-11729523D01*
X121957200Y-11729523D02*
X122004819Y-11824761D01*
X122004819Y-11824761D02*
X122004819Y-12110475D01*
X122004819Y-12110475D02*
X121957200Y-12205713D01*
X121957200Y-12205713D02*
X121909580Y-12253332D01*
X108666666Y-7204819D02*
X108666666Y-7919104D01*
X108666666Y-7919104D02*
X108619047Y-8061961D01*
X108619047Y-8061961D02*
X108523809Y-8157200D01*
X108523809Y-8157200D02*
X108380952Y-8204819D01*
X108380952Y-8204819D02*
X108285714Y-8204819D01*
X109095238Y-7300057D02*
X109142857Y-7252438D01*
X109142857Y-7252438D02*
X109238095Y-7204819D01*
X109238095Y-7204819D02*
X109476190Y-7204819D01*
X109476190Y-7204819D02*
X109571428Y-7252438D01*
X109571428Y-7252438D02*
X109619047Y-7300057D01*
X109619047Y-7300057D02*
X109666666Y-7395295D01*
X109666666Y-7395295D02*
X109666666Y-7490533D01*
X109666666Y-7490533D02*
X109619047Y-7633390D01*
X109619047Y-7633390D02*
X109047619Y-8204819D01*
X109047619Y-8204819D02*
X109666666Y-8204819D01*
X56766667Y-30533200D02*
X56909524Y-30580819D01*
X56909524Y-30580819D02*
X57147619Y-30580819D01*
X57147619Y-30580819D02*
X57242857Y-30533200D01*
X57242857Y-30533200D02*
X57290476Y-30485580D01*
X57290476Y-30485580D02*
X57338095Y-30390342D01*
X57338095Y-30390342D02*
X57338095Y-30295104D01*
X57338095Y-30295104D02*
X57290476Y-30199866D01*
X57290476Y-30199866D02*
X57242857Y-30152247D01*
X57242857Y-30152247D02*
X57147619Y-30104628D01*
X57147619Y-30104628D02*
X56957143Y-30057009D01*
X56957143Y-30057009D02*
X56861905Y-30009390D01*
X56861905Y-30009390D02*
X56814286Y-29961771D01*
X56814286Y-29961771D02*
X56766667Y-29866533D01*
X56766667Y-29866533D02*
X56766667Y-29771295D01*
X56766667Y-29771295D02*
X56814286Y-29676057D01*
X56814286Y-29676057D02*
X56861905Y-29628438D01*
X56861905Y-29628438D02*
X56957143Y-29580819D01*
X56957143Y-29580819D02*
X57195238Y-29580819D01*
X57195238Y-29580819D02*
X57338095Y-29628438D01*
X57671429Y-29580819D02*
X57909524Y-30580819D01*
X57909524Y-30580819D02*
X58100000Y-29866533D01*
X58100000Y-29866533D02*
X58290476Y-30580819D01*
X58290476Y-30580819D02*
X58528572Y-29580819D01*
X58814286Y-29580819D02*
X59433333Y-29580819D01*
X59433333Y-29580819D02*
X59100000Y-29961771D01*
X59100000Y-29961771D02*
X59242857Y-29961771D01*
X59242857Y-29961771D02*
X59338095Y-30009390D01*
X59338095Y-30009390D02*
X59385714Y-30057009D01*
X59385714Y-30057009D02*
X59433333Y-30152247D01*
X59433333Y-30152247D02*
X59433333Y-30390342D01*
X59433333Y-30390342D02*
X59385714Y-30485580D01*
X59385714Y-30485580D02*
X59338095Y-30533200D01*
X59338095Y-30533200D02*
X59242857Y-30580819D01*
X59242857Y-30580819D02*
X58957143Y-30580819D01*
X58957143Y-30580819D02*
X58861905Y-30533200D01*
X58861905Y-30533200D02*
X58814286Y-30485580D01*
X96548095Y-6554819D02*
X96548095Y-5554819D01*
X97119523Y-6554819D02*
X96690952Y-5983390D01*
X97119523Y-5554819D02*
X96548095Y-6126247D01*
X91871905Y-4454819D02*
X91871905Y-3454819D01*
X91871905Y-3454819D02*
X92110000Y-3454819D01*
X92110000Y-3454819D02*
X92252857Y-3502438D01*
X92252857Y-3502438D02*
X92348095Y-3597676D01*
X92348095Y-3597676D02*
X92395714Y-3692914D01*
X92395714Y-3692914D02*
X92443333Y-3883390D01*
X92443333Y-3883390D02*
X92443333Y-4026247D01*
X92443333Y-4026247D02*
X92395714Y-4216723D01*
X92395714Y-4216723D02*
X92348095Y-4311961D01*
X92348095Y-4311961D02*
X92252857Y-4407200D01*
X92252857Y-4407200D02*
X92110000Y-4454819D01*
X92110000Y-4454819D02*
X91871905Y-4454819D01*
X93348095Y-3454819D02*
X92871905Y-3454819D01*
X92871905Y-3454819D02*
X92824286Y-3931009D01*
X92824286Y-3931009D02*
X92871905Y-3883390D01*
X92871905Y-3883390D02*
X92967143Y-3835771D01*
X92967143Y-3835771D02*
X93205238Y-3835771D01*
X93205238Y-3835771D02*
X93300476Y-3883390D01*
X93300476Y-3883390D02*
X93348095Y-3931009D01*
X93348095Y-3931009D02*
X93395714Y-4026247D01*
X93395714Y-4026247D02*
X93395714Y-4264342D01*
X93395714Y-4264342D02*
X93348095Y-4359580D01*
X93348095Y-4359580D02*
X93300476Y-4407200D01*
X93300476Y-4407200D02*
X93205238Y-4454819D01*
X93205238Y-4454819D02*
X92967143Y-4454819D01*
X92967143Y-4454819D02*
X92871905Y-4407200D01*
X92871905Y-4407200D02*
X92824286Y-4359580D01*
X80364819Y-17704047D02*
X80364819Y-18180237D01*
X80364819Y-18180237D02*
X79364819Y-18180237D01*
X79841009Y-17370713D02*
X79841009Y-17037380D01*
X80364819Y-16894523D02*
X80364819Y-17370713D01*
X80364819Y-17370713D02*
X79364819Y-17370713D01*
X79364819Y-17370713D02*
X79364819Y-16894523D01*
X80364819Y-16465951D02*
X79364819Y-16465951D01*
X79364819Y-16465951D02*
X79364819Y-16227856D01*
X79364819Y-16227856D02*
X79412438Y-16084999D01*
X79412438Y-16084999D02*
X79507676Y-15989761D01*
X79507676Y-15989761D02*
X79602914Y-15942142D01*
X79602914Y-15942142D02*
X79793390Y-15894523D01*
X79793390Y-15894523D02*
X79936247Y-15894523D01*
X79936247Y-15894523D02*
X80126723Y-15942142D01*
X80126723Y-15942142D02*
X80221961Y-15989761D01*
X80221961Y-15989761D02*
X80317200Y-16084999D01*
X80317200Y-16084999D02*
X80364819Y-16227856D01*
X80364819Y-16227856D02*
X80364819Y-16465951D01*
X80364819Y-14942142D02*
X80364819Y-15513570D01*
X80364819Y-15227856D02*
X79364819Y-15227856D01*
X79364819Y-15227856D02*
X79507676Y-15323094D01*
X79507676Y-15323094D02*
X79602914Y-15418332D01*
X79602914Y-15418332D02*
X79650533Y-15513570D01*
X37716667Y-30533200D02*
X37859524Y-30580819D01*
X37859524Y-30580819D02*
X38097619Y-30580819D01*
X38097619Y-30580819D02*
X38192857Y-30533200D01*
X38192857Y-30533200D02*
X38240476Y-30485580D01*
X38240476Y-30485580D02*
X38288095Y-30390342D01*
X38288095Y-30390342D02*
X38288095Y-30295104D01*
X38288095Y-30295104D02*
X38240476Y-30199866D01*
X38240476Y-30199866D02*
X38192857Y-30152247D01*
X38192857Y-30152247D02*
X38097619Y-30104628D01*
X38097619Y-30104628D02*
X37907143Y-30057009D01*
X37907143Y-30057009D02*
X37811905Y-30009390D01*
X37811905Y-30009390D02*
X37764286Y-29961771D01*
X37764286Y-29961771D02*
X37716667Y-29866533D01*
X37716667Y-29866533D02*
X37716667Y-29771295D01*
X37716667Y-29771295D02*
X37764286Y-29676057D01*
X37764286Y-29676057D02*
X37811905Y-29628438D01*
X37811905Y-29628438D02*
X37907143Y-29580819D01*
X37907143Y-29580819D02*
X38145238Y-29580819D01*
X38145238Y-29580819D02*
X38288095Y-29628438D01*
X38621429Y-29580819D02*
X38859524Y-30580819D01*
X38859524Y-30580819D02*
X39050000Y-29866533D01*
X39050000Y-29866533D02*
X39240476Y-30580819D01*
X39240476Y-30580819D02*
X39478572Y-29580819D01*
X39811905Y-29676057D02*
X39859524Y-29628438D01*
X39859524Y-29628438D02*
X39954762Y-29580819D01*
X39954762Y-29580819D02*
X40192857Y-29580819D01*
X40192857Y-29580819D02*
X40288095Y-29628438D01*
X40288095Y-29628438D02*
X40335714Y-29676057D01*
X40335714Y-29676057D02*
X40383333Y-29771295D01*
X40383333Y-29771295D02*
X40383333Y-29866533D01*
X40383333Y-29866533D02*
X40335714Y-30009390D01*
X40335714Y-30009390D02*
X39764286Y-30580819D01*
X39764286Y-30580819D02*
X40383333Y-30580819D01*
X91871905Y-8454819D02*
X91871905Y-7454819D01*
X91871905Y-7454819D02*
X92110000Y-7454819D01*
X92110000Y-7454819D02*
X92252857Y-7502438D01*
X92252857Y-7502438D02*
X92348095Y-7597676D01*
X92348095Y-7597676D02*
X92395714Y-7692914D01*
X92395714Y-7692914D02*
X92443333Y-7883390D01*
X92443333Y-7883390D02*
X92443333Y-8026247D01*
X92443333Y-8026247D02*
X92395714Y-8216723D01*
X92395714Y-8216723D02*
X92348095Y-8311961D01*
X92348095Y-8311961D02*
X92252857Y-8407200D01*
X92252857Y-8407200D02*
X92110000Y-8454819D01*
X92110000Y-8454819D02*
X91871905Y-8454819D01*
X93300476Y-7788152D02*
X93300476Y-8454819D01*
X93062381Y-7407200D02*
X92824286Y-8121485D01*
X92824286Y-8121485D02*
X93443333Y-8121485D01*
X96548095Y-10554819D02*
X96548095Y-9554819D01*
X97119523Y-10554819D02*
X96690952Y-9983390D01*
X97119523Y-9554819D02*
X96548095Y-10126247D01*
D11*
%TO.C,C1*%
X86602500Y-18476759D02*
X87402500Y-18476759D01*
X87002500Y-18876759D02*
X87002500Y-18076759D01*
X92750000Y-15450000D02*
G75*
G02*
X84750000Y-15450000I-4000000J0D01*
G01*
X84750000Y-15450000D02*
G75*
G02*
X92750000Y-15450000I4000000J0D01*
G01*
%TO.C,F1*%
X120550000Y-800000D02*
X120550000Y-5800000D01*
X120550000Y-5800000D02*
X131050000Y-5800000D01*
X131050000Y-800000D02*
X120550000Y-800000D01*
X131050000Y-5800000D02*
X131050000Y-800000D01*
%TO.C,C3*%
X6747500Y-14670590D02*
X6747500Y-15470590D01*
X7147500Y-15070590D02*
X6347500Y-15070590D01*
X9000000Y-18097349D02*
G75*
G02*
X1000000Y-18097349I-4000000J0D01*
G01*
X1000000Y-18097349D02*
G75*
G02*
X9000000Y-18097349I4000000J0D01*
G01*
%TO.C,SW4*%
X70800000Y-31650000D02*
X83500000Y-31650000D01*
X70800000Y-44350000D02*
X70800000Y-31650000D01*
X83500000Y-31650000D02*
X83500000Y-44350000D01*
X83500000Y-44350000D02*
X70800000Y-44350000D01*
%TO.C,J8*%
X10500000Y-105000D02*
X30500000Y-105000D01*
X10500000Y-3005000D02*
X30500000Y-3005000D01*
X10500000Y-7905000D02*
X30500000Y-7905000D01*
X10500000Y-9405000D02*
X10500000Y-105000D01*
X10500000Y-9405000D02*
X30500000Y-9405000D01*
X11000000Y-9905000D02*
X10500000Y-9405000D01*
X13955000Y-4167000D02*
X11862000Y-6260000D01*
X14138000Y-4350000D02*
X12045000Y-6443000D01*
X18955000Y-4167000D02*
X16863000Y-6260000D01*
X19138000Y-4350000D02*
X17046000Y-6443000D01*
X23955000Y-4167000D02*
X21863000Y-6260000D01*
X24138000Y-4350000D02*
X22046000Y-6443000D01*
X28955000Y-4167000D02*
X26863000Y-6260000D01*
X29138000Y-4350000D02*
X27046000Y-6443000D01*
X30500000Y-105000D02*
X30500000Y-9905000D01*
X30500000Y-9905000D02*
X11000000Y-9905000D01*
X14500000Y-5305000D02*
G75*
G02*
X11500000Y-5305000I-1500000J0D01*
G01*
X11500000Y-5305000D02*
G75*
G02*
X14500000Y-5305000I1500000J0D01*
G01*
X19500000Y-5305000D02*
G75*
G02*
X16500000Y-5305000I-1500000J0D01*
G01*
X16500000Y-5305000D02*
G75*
G02*
X19500000Y-5305000I1500000J0D01*
G01*
X24500000Y-5305000D02*
G75*
G02*
X21500000Y-5305000I-1500000J0D01*
G01*
X21500000Y-5305000D02*
G75*
G02*
X24500000Y-5305000I1500000J0D01*
G01*
X29500000Y-5305000D02*
G75*
G02*
X26500000Y-5305000I-1500000J0D01*
G01*
X26500000Y-5305000D02*
G75*
G02*
X29500000Y-5305000I1500000J0D01*
G01*
%TO.C,J3*%
X109030000Y-18730000D02*
X129350000Y-18730000D01*
X109030000Y-21270000D02*
X109030000Y-18730000D01*
X128715000Y-21270000D02*
X109030000Y-21270000D01*
X129350000Y-18730000D02*
X129350000Y-20635000D01*
X129350000Y-20635000D02*
X128715000Y-21270000D01*
%TO.C,J1*%
X125450000Y-8757500D02*
X125450000Y-17007500D01*
X126250000Y-17757500D02*
X139950000Y-17757500D01*
X126253213Y-17762925D02*
X125450000Y-17007500D01*
X136450000Y-17757500D02*
X136450000Y-8757500D01*
X139950000Y-8757500D02*
X125450000Y-8757500D01*
X139950000Y-17757500D02*
X139950000Y-8757500D01*
%TO.C,SW1*%
X13650000Y-31650000D02*
X26350000Y-31650000D01*
X13650000Y-44350000D02*
X13650000Y-31650000D01*
X26350000Y-31650000D02*
X26350000Y-44350000D01*
X26350000Y-44350000D02*
X13650000Y-44350000D01*
%TO.C,D1*%
X106030000Y-14250000D02*
X107240000Y-14250000D01*
X107240000Y-12900000D02*
X107240000Y-15600000D01*
X107240000Y-15600000D02*
X112440000Y-15600000D01*
X107920000Y-12900000D02*
X107920000Y-15600000D01*
X108020000Y-12900000D02*
X108020000Y-15600000D01*
X108120000Y-12900000D02*
X108120000Y-15600000D01*
X112440000Y-12900000D02*
X107240000Y-12900000D01*
X112440000Y-15600000D02*
X112440000Y-12900000D01*
X113650000Y-14250000D02*
X112440000Y-14250000D01*
%TO.C,A2*%
X96170000Y-22730000D02*
X139350000Y-22730000D01*
X96170000Y-39240000D02*
X96170000Y-22730000D01*
X97440000Y-40510000D02*
X96170000Y-39240000D01*
X131730000Y-27810000D02*
X141890000Y-27810000D01*
X131730000Y-35430000D02*
X131730000Y-27810000D01*
X139350000Y-22730000D02*
X139350000Y-40510000D01*
X139350000Y-40510000D02*
X97440000Y-40510000D01*
X141890000Y-27810000D02*
X141890000Y-35430000D01*
X141890000Y-35430000D02*
X131730000Y-35430000D01*
%TO.C,D3*%
X120200000Y-10210000D02*
X120200000Y-15410000D01*
X120200000Y-14530000D02*
X122900000Y-14530000D01*
X120200000Y-14630000D02*
X122900000Y-14630000D01*
X120200000Y-14730000D02*
X122900000Y-14730000D01*
X120200000Y-15410000D02*
X122900000Y-15410000D01*
X121550000Y-9000000D02*
X121550000Y-10210000D01*
X121550000Y-16620000D02*
X121550000Y-15410000D01*
X122900000Y-10210000D02*
X120200000Y-10210000D01*
X122900000Y-15410000D02*
X122900000Y-10210000D01*
%TO.C,J2*%
X102645000Y-5105000D02*
X114075000Y-5105000D01*
X102645000Y-10185000D02*
X102645000Y-5105000D01*
X114075000Y-5105000D02*
X115345000Y-6375000D01*
X115345000Y-6375000D02*
X115345000Y-10185000D01*
X115345000Y-10185000D02*
X102645000Y-10185000D01*
%TO.C,SW3*%
X51750000Y-31650000D02*
X64450000Y-31650000D01*
X51750000Y-44350000D02*
X51750000Y-31650000D01*
X64450000Y-31650000D02*
X64450000Y-44350000D01*
X64450000Y-44350000D02*
X51750000Y-44350000D01*
%TO.C,D5*%
X89190000Y-4000000D02*
X90400000Y-4000000D01*
X90400000Y-2650000D02*
X90400000Y-5350000D01*
X90400000Y-5350000D02*
X95600000Y-5350000D01*
X94720000Y-5350000D02*
X94720000Y-2650000D01*
X94820000Y-5350000D02*
X94820000Y-2650000D01*
X94920000Y-5350000D02*
X94920000Y-2650000D01*
X95600000Y-2650000D02*
X90400000Y-2650000D01*
X95600000Y-5350000D02*
X95600000Y-2650000D01*
X96810000Y-4000000D02*
X95600000Y-4000000D01*
%TO.C,LED1*%
X77419694Y-14085000D02*
X74480306Y-14085000D01*
X77419694Y-14085000D02*
G75*
G02*
X74480334Y-14084984I-1469694J-2500000D01*
G01*
X78450000Y-16585000D02*
G75*
G02*
X73450000Y-16585000I-2500000J0D01*
G01*
X73450000Y-16585000D02*
G75*
G02*
X78450000Y-16585000I2500000J0D01*
G01*
%TO.C,SW2*%
X32700000Y-31650000D02*
X45400000Y-31650000D01*
X32700000Y-44350000D02*
X32700000Y-31650000D01*
X45400000Y-31650000D02*
X45400000Y-44350000D01*
X45400000Y-44350000D02*
X32700000Y-44350000D01*
%TO.C,D4*%
X89190000Y-8000000D02*
X90400000Y-8000000D01*
X90400000Y-6650000D02*
X90400000Y-9350000D01*
X90400000Y-9350000D02*
X95600000Y-9350000D01*
X94720000Y-9350000D02*
X94720000Y-6650000D01*
X94820000Y-9350000D02*
X94820000Y-6650000D01*
X94920000Y-9350000D02*
X94920000Y-6650000D01*
X95600000Y-6650000D02*
X90400000Y-6650000D01*
X95600000Y-9350000D02*
X95600000Y-6650000D01*
X96810000Y-8000000D02*
X95600000Y-8000000D01*
%TD*%
M02*
