%TF.GenerationSoftware,KiCad,Pcbnew,8.0.1*%
%TF.CreationDate,2024-04-18T10:21:10-04:00*%
%TF.ProjectId,Main-board-ArduinoNano,4d61696e-2d62-46f6-9172-642d41726475,rev?*%
%TF.SameCoordinates,Original*%
%TF.FileFunction,Legend,Top*%
%TF.FilePolarity,Positive*%
%FSLAX46Y46*%
G04 Gerber Fmt 4.6, Leading zero omitted, Abs format (unit mm)*
G04 Created by KiCad (PCBNEW 8.0.1) date 2024-04-18 10:21:10*
%MOMM*%
%LPD*%
G01*
G04 APERTURE LIST*
%ADD10C,0.300000*%
%ADD11C,0.200000*%
%ADD12C,0.150000*%
%ADD13C,0.120000*%
%ADD14C,0.100000*%
G04 APERTURE END LIST*
D10*
X11750000Y-29750000D02*
X10250000Y-29750000D01*
X11000000Y-28500000D01*
X11750000Y-29750000D01*
G36*
X11750000Y-29750000D02*
G01*
X10250000Y-29750000D01*
X11000000Y-28500000D01*
X11750000Y-29750000D01*
G37*
X53028572Y-49035471D02*
X52957144Y-49106900D01*
X52957144Y-49106900D02*
X52742858Y-49178328D01*
X52742858Y-49178328D02*
X52600001Y-49178328D01*
X52600001Y-49178328D02*
X52385715Y-49106900D01*
X52385715Y-49106900D02*
X52242858Y-48964042D01*
X52242858Y-48964042D02*
X52171429Y-48821185D01*
X52171429Y-48821185D02*
X52100001Y-48535471D01*
X52100001Y-48535471D02*
X52100001Y-48321185D01*
X52100001Y-48321185D02*
X52171429Y-48035471D01*
X52171429Y-48035471D02*
X52242858Y-47892614D01*
X52242858Y-47892614D02*
X52385715Y-47749757D01*
X52385715Y-47749757D02*
X52600001Y-47678328D01*
X52600001Y-47678328D02*
X52742858Y-47678328D01*
X52742858Y-47678328D02*
X52957144Y-47749757D01*
X52957144Y-47749757D02*
X53028572Y-47821185D01*
X53528572Y-48178328D02*
X53885715Y-49178328D01*
X54242858Y-48178328D02*
X53885715Y-49178328D01*
X53885715Y-49178328D02*
X53742858Y-49535471D01*
X53742858Y-49535471D02*
X53671429Y-49606900D01*
X53671429Y-49606900D02*
X53528572Y-49678328D01*
X55457144Y-49106900D02*
X55314286Y-49178328D01*
X55314286Y-49178328D02*
X55028572Y-49178328D01*
X55028572Y-49178328D02*
X54885715Y-49106900D01*
X54885715Y-49106900D02*
X54814286Y-49035471D01*
X54814286Y-49035471D02*
X54742858Y-48892614D01*
X54742858Y-48892614D02*
X54742858Y-48464042D01*
X54742858Y-48464042D02*
X54814286Y-48321185D01*
X54814286Y-48321185D02*
X54885715Y-48249757D01*
X54885715Y-48249757D02*
X55028572Y-48178328D01*
X55028572Y-48178328D02*
X55314286Y-48178328D01*
X55314286Y-48178328D02*
X55457144Y-48249757D01*
X56314286Y-49178328D02*
X56171429Y-49106900D01*
X56171429Y-49106900D02*
X56100000Y-48964042D01*
X56100000Y-48964042D02*
X56100000Y-47678328D01*
X57457143Y-49106900D02*
X57314286Y-49178328D01*
X57314286Y-49178328D02*
X57028572Y-49178328D01*
X57028572Y-49178328D02*
X56885714Y-49106900D01*
X56885714Y-49106900D02*
X56814286Y-48964042D01*
X56814286Y-48964042D02*
X56814286Y-48392614D01*
X56814286Y-48392614D02*
X56885714Y-48249757D01*
X56885714Y-48249757D02*
X57028572Y-48178328D01*
X57028572Y-48178328D02*
X57314286Y-48178328D01*
X57314286Y-48178328D02*
X57457143Y-48249757D01*
X57457143Y-48249757D02*
X57528572Y-48392614D01*
X57528572Y-48392614D02*
X57528572Y-48535471D01*
X57528572Y-48535471D02*
X56814286Y-48678328D01*
X59242857Y-49106900D02*
X59457143Y-49178328D01*
X59457143Y-49178328D02*
X59814285Y-49178328D01*
X59814285Y-49178328D02*
X59957143Y-49106900D01*
X59957143Y-49106900D02*
X60028571Y-49035471D01*
X60028571Y-49035471D02*
X60100000Y-48892614D01*
X60100000Y-48892614D02*
X60100000Y-48749757D01*
X60100000Y-48749757D02*
X60028571Y-48606900D01*
X60028571Y-48606900D02*
X59957143Y-48535471D01*
X59957143Y-48535471D02*
X59814285Y-48464042D01*
X59814285Y-48464042D02*
X59528571Y-48392614D01*
X59528571Y-48392614D02*
X59385714Y-48321185D01*
X59385714Y-48321185D02*
X59314285Y-48249757D01*
X59314285Y-48249757D02*
X59242857Y-48106900D01*
X59242857Y-48106900D02*
X59242857Y-47964042D01*
X59242857Y-47964042D02*
X59314285Y-47821185D01*
X59314285Y-47821185D02*
X59385714Y-47749757D01*
X59385714Y-47749757D02*
X59528571Y-47678328D01*
X59528571Y-47678328D02*
X59885714Y-47678328D01*
X59885714Y-47678328D02*
X60100000Y-47749757D01*
X60528571Y-48178328D02*
X61099999Y-48178328D01*
X60742856Y-47678328D02*
X60742856Y-48964042D01*
X60742856Y-48964042D02*
X60814285Y-49106900D01*
X60814285Y-49106900D02*
X60957142Y-49178328D01*
X60957142Y-49178328D02*
X61099999Y-49178328D01*
X62242857Y-49178328D02*
X62242857Y-48392614D01*
X62242857Y-48392614D02*
X62171428Y-48249757D01*
X62171428Y-48249757D02*
X62028571Y-48178328D01*
X62028571Y-48178328D02*
X61742857Y-48178328D01*
X61742857Y-48178328D02*
X61599999Y-48249757D01*
X62242857Y-49106900D02*
X62099999Y-49178328D01*
X62099999Y-49178328D02*
X61742857Y-49178328D01*
X61742857Y-49178328D02*
X61599999Y-49106900D01*
X61599999Y-49106900D02*
X61528571Y-48964042D01*
X61528571Y-48964042D02*
X61528571Y-48821185D01*
X61528571Y-48821185D02*
X61599999Y-48678328D01*
X61599999Y-48678328D02*
X61742857Y-48606900D01*
X61742857Y-48606900D02*
X62099999Y-48606900D01*
X62099999Y-48606900D02*
X62242857Y-48535471D01*
X62957142Y-49178328D02*
X62957142Y-48178328D01*
X62957142Y-48464042D02*
X63028571Y-48321185D01*
X63028571Y-48321185D02*
X63100000Y-48249757D01*
X63100000Y-48249757D02*
X63242857Y-48178328D01*
X63242857Y-48178328D02*
X63385714Y-48178328D01*
X63671428Y-48178328D02*
X64242856Y-48178328D01*
X63885713Y-47678328D02*
X63885713Y-48964042D01*
X63885713Y-48964042D02*
X63957142Y-49106900D01*
X63957142Y-49106900D02*
X64099999Y-49178328D01*
X64099999Y-49178328D02*
X64242856Y-49178328D01*
D11*
X17114286Y-12044742D02*
X16714286Y-11473314D01*
X16428572Y-12044742D02*
X16428572Y-10844742D01*
X16428572Y-10844742D02*
X16885715Y-10844742D01*
X16885715Y-10844742D02*
X17000000Y-10901885D01*
X17000000Y-10901885D02*
X17057143Y-10959028D01*
X17057143Y-10959028D02*
X17114286Y-11073314D01*
X17114286Y-11073314D02*
X17114286Y-11244742D01*
X17114286Y-11244742D02*
X17057143Y-11359028D01*
X17057143Y-11359028D02*
X17000000Y-11416171D01*
X17000000Y-11416171D02*
X16885715Y-11473314D01*
X16885715Y-11473314D02*
X16428572Y-11473314D01*
X18085715Y-11987600D02*
X17971429Y-12044742D01*
X17971429Y-12044742D02*
X17742858Y-12044742D01*
X17742858Y-12044742D02*
X17628572Y-11987600D01*
X17628572Y-11987600D02*
X17571429Y-11873314D01*
X17571429Y-11873314D02*
X17571429Y-11416171D01*
X17571429Y-11416171D02*
X17628572Y-11301885D01*
X17628572Y-11301885D02*
X17742858Y-11244742D01*
X17742858Y-11244742D02*
X17971429Y-11244742D01*
X17971429Y-11244742D02*
X18085715Y-11301885D01*
X18085715Y-11301885D02*
X18142858Y-11416171D01*
X18142858Y-11416171D02*
X18142858Y-11530457D01*
X18142858Y-11530457D02*
X17571429Y-11644742D01*
X19171429Y-12044742D02*
X19171429Y-10844742D01*
X19171429Y-11987600D02*
X19057143Y-12044742D01*
X19057143Y-12044742D02*
X18828571Y-12044742D01*
X18828571Y-12044742D02*
X18714286Y-11987600D01*
X18714286Y-11987600D02*
X18657143Y-11930457D01*
X18657143Y-11930457D02*
X18600000Y-11816171D01*
X18600000Y-11816171D02*
X18600000Y-11473314D01*
X18600000Y-11473314D02*
X18657143Y-11359028D01*
X18657143Y-11359028D02*
X18714286Y-11301885D01*
X18714286Y-11301885D02*
X18828571Y-11244742D01*
X18828571Y-11244742D02*
X19057143Y-11244742D01*
X19057143Y-11244742D02*
X19171429Y-11301885D01*
X134014286Y-19594742D02*
X133328572Y-19594742D01*
X133671429Y-19594742D02*
X133671429Y-18394742D01*
X133671429Y-18394742D02*
X133557143Y-18566171D01*
X133557143Y-18566171D02*
X133442858Y-18680457D01*
X133442858Y-18680457D02*
X133328572Y-18737600D01*
X134471429Y-18509028D02*
X134528572Y-18451885D01*
X134528572Y-18451885D02*
X134642858Y-18394742D01*
X134642858Y-18394742D02*
X134928572Y-18394742D01*
X134928572Y-18394742D02*
X135042858Y-18451885D01*
X135042858Y-18451885D02*
X135100000Y-18509028D01*
X135100000Y-18509028D02*
X135157143Y-18623314D01*
X135157143Y-18623314D02*
X135157143Y-18737600D01*
X135157143Y-18737600D02*
X135100000Y-18909028D01*
X135100000Y-18909028D02*
X134414286Y-19594742D01*
X134414286Y-19594742D02*
X135157143Y-19594742D01*
X135500000Y-18394742D02*
X135900000Y-19594742D01*
X135900000Y-19594742D02*
X136300000Y-18394742D01*
X137557143Y-18509028D02*
X137614286Y-18451885D01*
X137614286Y-18451885D02*
X137728572Y-18394742D01*
X137728572Y-18394742D02*
X138014286Y-18394742D01*
X138014286Y-18394742D02*
X138128572Y-18451885D01*
X138128572Y-18451885D02*
X138185714Y-18509028D01*
X138185714Y-18509028D02*
X138242857Y-18623314D01*
X138242857Y-18623314D02*
X138242857Y-18737600D01*
X138242857Y-18737600D02*
X138185714Y-18909028D01*
X138185714Y-18909028D02*
X137500000Y-19594742D01*
X137500000Y-19594742D02*
X138242857Y-19594742D01*
X138700000Y-19251885D02*
X139271429Y-19251885D01*
X138585714Y-19594742D02*
X138985714Y-18394742D01*
X138985714Y-18394742D02*
X139385714Y-19594742D01*
D10*
X37892856Y-47678328D02*
X37892856Y-48892614D01*
X37892856Y-48892614D02*
X37964285Y-49035471D01*
X37964285Y-49035471D02*
X38035714Y-49106900D01*
X38035714Y-49106900D02*
X38178571Y-49178328D01*
X38178571Y-49178328D02*
X38464285Y-49178328D01*
X38464285Y-49178328D02*
X38607142Y-49106900D01*
X38607142Y-49106900D02*
X38678571Y-49035471D01*
X38678571Y-49035471D02*
X38749999Y-48892614D01*
X38749999Y-48892614D02*
X38749999Y-47678328D01*
X39464285Y-48178328D02*
X39464285Y-49678328D01*
X39464285Y-48249757D02*
X39607143Y-48178328D01*
X39607143Y-48178328D02*
X39892857Y-48178328D01*
X39892857Y-48178328D02*
X40035714Y-48249757D01*
X40035714Y-48249757D02*
X40107143Y-48321185D01*
X40107143Y-48321185D02*
X40178571Y-48464042D01*
X40178571Y-48464042D02*
X40178571Y-48892614D01*
X40178571Y-48892614D02*
X40107143Y-49035471D01*
X40107143Y-49035471D02*
X40035714Y-49106900D01*
X40035714Y-49106900D02*
X39892857Y-49178328D01*
X39892857Y-49178328D02*
X39607143Y-49178328D01*
X39607143Y-49178328D02*
X39464285Y-49106900D01*
D11*
X98752380Y-1652219D02*
X99323808Y-1652219D01*
X99038094Y-2652219D02*
X99038094Y-1652219D01*
X99799999Y-2652219D02*
X99704761Y-2604600D01*
X99704761Y-2604600D02*
X99657142Y-2556980D01*
X99657142Y-2556980D02*
X99609523Y-2461742D01*
X99609523Y-2461742D02*
X99609523Y-2176028D01*
X99609523Y-2176028D02*
X99657142Y-2080790D01*
X99657142Y-2080790D02*
X99704761Y-2033171D01*
X99704761Y-2033171D02*
X99799999Y-1985552D01*
X99799999Y-1985552D02*
X99942856Y-1985552D01*
X99942856Y-1985552D02*
X100038094Y-2033171D01*
X100038094Y-2033171D02*
X100085713Y-2080790D01*
X100085713Y-2080790D02*
X100133332Y-2176028D01*
X100133332Y-2176028D02*
X100133332Y-2461742D01*
X100133332Y-2461742D02*
X100085713Y-2556980D01*
X100085713Y-2556980D02*
X100038094Y-2604600D01*
X100038094Y-2604600D02*
X99942856Y-2652219D01*
X99942856Y-2652219D02*
X99799999Y-2652219D01*
X101276190Y-2366504D02*
X101752380Y-2366504D01*
X101180952Y-2652219D02*
X101514285Y-1652219D01*
X101514285Y-1652219D02*
X101847618Y-2652219D01*
X102180952Y-2652219D02*
X102180952Y-1652219D01*
X102180952Y-1652219D02*
X102419047Y-1652219D01*
X102419047Y-1652219D02*
X102561904Y-1699838D01*
X102561904Y-1699838D02*
X102657142Y-1795076D01*
X102657142Y-1795076D02*
X102704761Y-1890314D01*
X102704761Y-1890314D02*
X102752380Y-2080790D01*
X102752380Y-2080790D02*
X102752380Y-2223647D01*
X102752380Y-2223647D02*
X102704761Y-2414123D01*
X102704761Y-2414123D02*
X102657142Y-2509361D01*
X102657142Y-2509361D02*
X102561904Y-2604600D01*
X102561904Y-2604600D02*
X102419047Y-2652219D01*
X102419047Y-2652219D02*
X102180952Y-2652219D01*
X103752380Y-2556980D02*
X103704761Y-2604600D01*
X103704761Y-2604600D02*
X103561904Y-2652219D01*
X103561904Y-2652219D02*
X103466666Y-2652219D01*
X103466666Y-2652219D02*
X103323809Y-2604600D01*
X103323809Y-2604600D02*
X103228571Y-2509361D01*
X103228571Y-2509361D02*
X103180952Y-2414123D01*
X103180952Y-2414123D02*
X103133333Y-2223647D01*
X103133333Y-2223647D02*
X103133333Y-2080790D01*
X103133333Y-2080790D02*
X103180952Y-1890314D01*
X103180952Y-1890314D02*
X103228571Y-1795076D01*
X103228571Y-1795076D02*
X103323809Y-1699838D01*
X103323809Y-1699838D02*
X103466666Y-1652219D01*
X103466666Y-1652219D02*
X103561904Y-1652219D01*
X103561904Y-1652219D02*
X103704761Y-1699838D01*
X103704761Y-1699838D02*
X103752380Y-1747457D01*
X104942857Y-2652219D02*
X104942857Y-1652219D01*
X104942857Y-2033171D02*
X105038095Y-1985552D01*
X105038095Y-1985552D02*
X105228571Y-1985552D01*
X105228571Y-1985552D02*
X105323809Y-2033171D01*
X105323809Y-2033171D02*
X105371428Y-2080790D01*
X105371428Y-2080790D02*
X105419047Y-2176028D01*
X105419047Y-2176028D02*
X105419047Y-2461742D01*
X105419047Y-2461742D02*
X105371428Y-2556980D01*
X105371428Y-2556980D02*
X105323809Y-2604600D01*
X105323809Y-2604600D02*
X105228571Y-2652219D01*
X105228571Y-2652219D02*
X105038095Y-2652219D01*
X105038095Y-2652219D02*
X104942857Y-2604600D01*
X105990476Y-2652219D02*
X105895238Y-2604600D01*
X105895238Y-2604600D02*
X105847619Y-2556980D01*
X105847619Y-2556980D02*
X105800000Y-2461742D01*
X105800000Y-2461742D02*
X105800000Y-2176028D01*
X105800000Y-2176028D02*
X105847619Y-2080790D01*
X105847619Y-2080790D02*
X105895238Y-2033171D01*
X105895238Y-2033171D02*
X105990476Y-1985552D01*
X105990476Y-1985552D02*
X106133333Y-1985552D01*
X106133333Y-1985552D02*
X106228571Y-2033171D01*
X106228571Y-2033171D02*
X106276190Y-2080790D01*
X106276190Y-2080790D02*
X106323809Y-2176028D01*
X106323809Y-2176028D02*
X106323809Y-2461742D01*
X106323809Y-2461742D02*
X106276190Y-2556980D01*
X106276190Y-2556980D02*
X106228571Y-2604600D01*
X106228571Y-2604600D02*
X106133333Y-2652219D01*
X106133333Y-2652219D02*
X105990476Y-2652219D01*
X107180952Y-2652219D02*
X107180952Y-2128409D01*
X107180952Y-2128409D02*
X107133333Y-2033171D01*
X107133333Y-2033171D02*
X107038095Y-1985552D01*
X107038095Y-1985552D02*
X106847619Y-1985552D01*
X106847619Y-1985552D02*
X106752381Y-2033171D01*
X107180952Y-2604600D02*
X107085714Y-2652219D01*
X107085714Y-2652219D02*
X106847619Y-2652219D01*
X106847619Y-2652219D02*
X106752381Y-2604600D01*
X106752381Y-2604600D02*
X106704762Y-2509361D01*
X106704762Y-2509361D02*
X106704762Y-2414123D01*
X106704762Y-2414123D02*
X106752381Y-2318885D01*
X106752381Y-2318885D02*
X106847619Y-2271266D01*
X106847619Y-2271266D02*
X107085714Y-2271266D01*
X107085714Y-2271266D02*
X107180952Y-2223647D01*
X107657143Y-2652219D02*
X107657143Y-1985552D01*
X107657143Y-2176028D02*
X107704762Y-2080790D01*
X107704762Y-2080790D02*
X107752381Y-2033171D01*
X107752381Y-2033171D02*
X107847619Y-1985552D01*
X107847619Y-1985552D02*
X107942857Y-1985552D01*
X108704762Y-2652219D02*
X108704762Y-1652219D01*
X108704762Y-2604600D02*
X108609524Y-2652219D01*
X108609524Y-2652219D02*
X108419048Y-2652219D01*
X108419048Y-2652219D02*
X108323810Y-2604600D01*
X108323810Y-2604600D02*
X108276191Y-2556980D01*
X108276191Y-2556980D02*
X108228572Y-2461742D01*
X108228572Y-2461742D02*
X108228572Y-2176028D01*
X108228572Y-2176028D02*
X108276191Y-2080790D01*
X108276191Y-2080790D02*
X108323810Y-2033171D01*
X108323810Y-2033171D02*
X108419048Y-1985552D01*
X108419048Y-1985552D02*
X108609524Y-1985552D01*
X108609524Y-1985552D02*
X108704762Y-2033171D01*
D10*
X17742857Y-49178328D02*
X17242857Y-48464042D01*
X16885714Y-49178328D02*
X16885714Y-47678328D01*
X16885714Y-47678328D02*
X17457143Y-47678328D01*
X17457143Y-47678328D02*
X17600000Y-47749757D01*
X17600000Y-47749757D02*
X17671429Y-47821185D01*
X17671429Y-47821185D02*
X17742857Y-47964042D01*
X17742857Y-47964042D02*
X17742857Y-48178328D01*
X17742857Y-48178328D02*
X17671429Y-48321185D01*
X17671429Y-48321185D02*
X17600000Y-48392614D01*
X17600000Y-48392614D02*
X17457143Y-48464042D01*
X17457143Y-48464042D02*
X16885714Y-48464042D01*
X18957143Y-49106900D02*
X18814286Y-49178328D01*
X18814286Y-49178328D02*
X18528572Y-49178328D01*
X18528572Y-49178328D02*
X18385714Y-49106900D01*
X18385714Y-49106900D02*
X18314286Y-48964042D01*
X18314286Y-48964042D02*
X18314286Y-48392614D01*
X18314286Y-48392614D02*
X18385714Y-48249757D01*
X18385714Y-48249757D02*
X18528572Y-48178328D01*
X18528572Y-48178328D02*
X18814286Y-48178328D01*
X18814286Y-48178328D02*
X18957143Y-48249757D01*
X18957143Y-48249757D02*
X19028572Y-48392614D01*
X19028572Y-48392614D02*
X19028572Y-48535471D01*
X19028572Y-48535471D02*
X18314286Y-48678328D01*
X19600000Y-49106900D02*
X19742857Y-49178328D01*
X19742857Y-49178328D02*
X20028571Y-49178328D01*
X20028571Y-49178328D02*
X20171428Y-49106900D01*
X20171428Y-49106900D02*
X20242857Y-48964042D01*
X20242857Y-48964042D02*
X20242857Y-48892614D01*
X20242857Y-48892614D02*
X20171428Y-48749757D01*
X20171428Y-48749757D02*
X20028571Y-48678328D01*
X20028571Y-48678328D02*
X19814286Y-48678328D01*
X19814286Y-48678328D02*
X19671428Y-48606900D01*
X19671428Y-48606900D02*
X19600000Y-48464042D01*
X19600000Y-48464042D02*
X19600000Y-48392614D01*
X19600000Y-48392614D02*
X19671428Y-48249757D01*
X19671428Y-48249757D02*
X19814286Y-48178328D01*
X19814286Y-48178328D02*
X20028571Y-48178328D01*
X20028571Y-48178328D02*
X20171428Y-48249757D01*
X21457143Y-49106900D02*
X21314286Y-49178328D01*
X21314286Y-49178328D02*
X21028572Y-49178328D01*
X21028572Y-49178328D02*
X20885714Y-49106900D01*
X20885714Y-49106900D02*
X20814286Y-48964042D01*
X20814286Y-48964042D02*
X20814286Y-48392614D01*
X20814286Y-48392614D02*
X20885714Y-48249757D01*
X20885714Y-48249757D02*
X21028572Y-48178328D01*
X21028572Y-48178328D02*
X21314286Y-48178328D01*
X21314286Y-48178328D02*
X21457143Y-48249757D01*
X21457143Y-48249757D02*
X21528572Y-48392614D01*
X21528572Y-48392614D02*
X21528572Y-48535471D01*
X21528572Y-48535471D02*
X20814286Y-48678328D01*
X21957143Y-48178328D02*
X22528571Y-48178328D01*
X22171428Y-47678328D02*
X22171428Y-48964042D01*
X22171428Y-48964042D02*
X22242857Y-49106900D01*
X22242857Y-49106900D02*
X22385714Y-49178328D01*
X22385714Y-49178328D02*
X22528571Y-49178328D01*
D11*
X119022054Y-26681504D02*
X119498244Y-26681504D01*
X118926816Y-26967219D02*
X119260149Y-25967219D01*
X119260149Y-25967219D02*
X119593482Y-26967219D01*
X119926816Y-26967219D02*
X119926816Y-26300552D01*
X119926816Y-26491028D02*
X119974435Y-26395790D01*
X119974435Y-26395790D02*
X120022054Y-26348171D01*
X120022054Y-26348171D02*
X120117292Y-26300552D01*
X120117292Y-26300552D02*
X120212530Y-26300552D01*
X120974435Y-26967219D02*
X120974435Y-25967219D01*
X120974435Y-26919600D02*
X120879197Y-26967219D01*
X120879197Y-26967219D02*
X120688721Y-26967219D01*
X120688721Y-26967219D02*
X120593483Y-26919600D01*
X120593483Y-26919600D02*
X120545864Y-26871980D01*
X120545864Y-26871980D02*
X120498245Y-26776742D01*
X120498245Y-26776742D02*
X120498245Y-26491028D01*
X120498245Y-26491028D02*
X120545864Y-26395790D01*
X120545864Y-26395790D02*
X120593483Y-26348171D01*
X120593483Y-26348171D02*
X120688721Y-26300552D01*
X120688721Y-26300552D02*
X120879197Y-26300552D01*
X120879197Y-26300552D02*
X120974435Y-26348171D01*
X121879197Y-26300552D02*
X121879197Y-26967219D01*
X121450626Y-26300552D02*
X121450626Y-26824361D01*
X121450626Y-26824361D02*
X121498245Y-26919600D01*
X121498245Y-26919600D02*
X121593483Y-26967219D01*
X121593483Y-26967219D02*
X121736340Y-26967219D01*
X121736340Y-26967219D02*
X121831578Y-26919600D01*
X121831578Y-26919600D02*
X121879197Y-26871980D01*
X122355388Y-26967219D02*
X122355388Y-26300552D01*
X122355388Y-25967219D02*
X122307769Y-26014838D01*
X122307769Y-26014838D02*
X122355388Y-26062457D01*
X122355388Y-26062457D02*
X122403007Y-26014838D01*
X122403007Y-26014838D02*
X122355388Y-25967219D01*
X122355388Y-25967219D02*
X122355388Y-26062457D01*
X122831578Y-26300552D02*
X122831578Y-26967219D01*
X122831578Y-26395790D02*
X122879197Y-26348171D01*
X122879197Y-26348171D02*
X122974435Y-26300552D01*
X122974435Y-26300552D02*
X123117292Y-26300552D01*
X123117292Y-26300552D02*
X123212530Y-26348171D01*
X123212530Y-26348171D02*
X123260149Y-26443409D01*
X123260149Y-26443409D02*
X123260149Y-26967219D01*
X123879197Y-26967219D02*
X123783959Y-26919600D01*
X123783959Y-26919600D02*
X123736340Y-26871980D01*
X123736340Y-26871980D02*
X123688721Y-26776742D01*
X123688721Y-26776742D02*
X123688721Y-26491028D01*
X123688721Y-26491028D02*
X123736340Y-26395790D01*
X123736340Y-26395790D02*
X123783959Y-26348171D01*
X123783959Y-26348171D02*
X123879197Y-26300552D01*
X123879197Y-26300552D02*
X124022054Y-26300552D01*
X124022054Y-26300552D02*
X124117292Y-26348171D01*
X124117292Y-26348171D02*
X124164911Y-26395790D01*
X124164911Y-26395790D02*
X124212530Y-26491028D01*
X124212530Y-26491028D02*
X124212530Y-26776742D01*
X124212530Y-26776742D02*
X124164911Y-26871980D01*
X124164911Y-26871980D02*
X124117292Y-26919600D01*
X124117292Y-26919600D02*
X124022054Y-26967219D01*
X124022054Y-26967219D02*
X123879197Y-26967219D01*
X125403007Y-26967219D02*
X125403007Y-25967219D01*
X125403007Y-25967219D02*
X125974435Y-26967219D01*
X125974435Y-26967219D02*
X125974435Y-25967219D01*
X126879197Y-26967219D02*
X126879197Y-26443409D01*
X126879197Y-26443409D02*
X126831578Y-26348171D01*
X126831578Y-26348171D02*
X126736340Y-26300552D01*
X126736340Y-26300552D02*
X126545864Y-26300552D01*
X126545864Y-26300552D02*
X126450626Y-26348171D01*
X126879197Y-26919600D02*
X126783959Y-26967219D01*
X126783959Y-26967219D02*
X126545864Y-26967219D01*
X126545864Y-26967219D02*
X126450626Y-26919600D01*
X126450626Y-26919600D02*
X126403007Y-26824361D01*
X126403007Y-26824361D02*
X126403007Y-26729123D01*
X126403007Y-26729123D02*
X126450626Y-26633885D01*
X126450626Y-26633885D02*
X126545864Y-26586266D01*
X126545864Y-26586266D02*
X126783959Y-26586266D01*
X126783959Y-26586266D02*
X126879197Y-26538647D01*
X127355388Y-26300552D02*
X127355388Y-26967219D01*
X127355388Y-26395790D02*
X127403007Y-26348171D01*
X127403007Y-26348171D02*
X127498245Y-26300552D01*
X127498245Y-26300552D02*
X127641102Y-26300552D01*
X127641102Y-26300552D02*
X127736340Y-26348171D01*
X127736340Y-26348171D02*
X127783959Y-26443409D01*
X127783959Y-26443409D02*
X127783959Y-26967219D01*
X128403007Y-26967219D02*
X128307769Y-26919600D01*
X128307769Y-26919600D02*
X128260150Y-26871980D01*
X128260150Y-26871980D02*
X128212531Y-26776742D01*
X128212531Y-26776742D02*
X128212531Y-26491028D01*
X128212531Y-26491028D02*
X128260150Y-26395790D01*
X128260150Y-26395790D02*
X128307769Y-26348171D01*
X128307769Y-26348171D02*
X128403007Y-26300552D01*
X128403007Y-26300552D02*
X128545864Y-26300552D01*
X128545864Y-26300552D02*
X128641102Y-26348171D01*
X128641102Y-26348171D02*
X128688721Y-26395790D01*
X128688721Y-26395790D02*
X128736340Y-26491028D01*
X128736340Y-26491028D02*
X128736340Y-26776742D01*
X128736340Y-26776742D02*
X128688721Y-26871980D01*
X128688721Y-26871980D02*
X128641102Y-26919600D01*
X128641102Y-26919600D02*
X128545864Y-26967219D01*
X128545864Y-26967219D02*
X128403007Y-26967219D01*
D10*
X74464285Y-49178328D02*
X74464285Y-47678328D01*
X74464285Y-47678328D02*
X74821428Y-47678328D01*
X74821428Y-47678328D02*
X75035714Y-47749757D01*
X75035714Y-47749757D02*
X75178571Y-47892614D01*
X75178571Y-47892614D02*
X75250000Y-48035471D01*
X75250000Y-48035471D02*
X75321428Y-48321185D01*
X75321428Y-48321185D02*
X75321428Y-48535471D01*
X75321428Y-48535471D02*
X75250000Y-48821185D01*
X75250000Y-48821185D02*
X75178571Y-48964042D01*
X75178571Y-48964042D02*
X75035714Y-49106900D01*
X75035714Y-49106900D02*
X74821428Y-49178328D01*
X74821428Y-49178328D02*
X74464285Y-49178328D01*
X76178571Y-49178328D02*
X76035714Y-49106900D01*
X76035714Y-49106900D02*
X75964285Y-49035471D01*
X75964285Y-49035471D02*
X75892857Y-48892614D01*
X75892857Y-48892614D02*
X75892857Y-48464042D01*
X75892857Y-48464042D02*
X75964285Y-48321185D01*
X75964285Y-48321185D02*
X76035714Y-48249757D01*
X76035714Y-48249757D02*
X76178571Y-48178328D01*
X76178571Y-48178328D02*
X76392857Y-48178328D01*
X76392857Y-48178328D02*
X76535714Y-48249757D01*
X76535714Y-48249757D02*
X76607143Y-48321185D01*
X76607143Y-48321185D02*
X76678571Y-48464042D01*
X76678571Y-48464042D02*
X76678571Y-48892614D01*
X76678571Y-48892614D02*
X76607143Y-49035471D01*
X76607143Y-49035471D02*
X76535714Y-49106900D01*
X76535714Y-49106900D02*
X76392857Y-49178328D01*
X76392857Y-49178328D02*
X76178571Y-49178328D01*
X77178571Y-48178328D02*
X77464286Y-49178328D01*
X77464286Y-49178328D02*
X77750000Y-48464042D01*
X77750000Y-48464042D02*
X78035714Y-49178328D01*
X78035714Y-49178328D02*
X78321428Y-48178328D01*
X78892857Y-48178328D02*
X78892857Y-49178328D01*
X78892857Y-48321185D02*
X78964286Y-48249757D01*
X78964286Y-48249757D02*
X79107143Y-48178328D01*
X79107143Y-48178328D02*
X79321429Y-48178328D01*
X79321429Y-48178328D02*
X79464286Y-48249757D01*
X79464286Y-48249757D02*
X79535715Y-48392614D01*
X79535715Y-48392614D02*
X79535715Y-49178328D01*
D11*
X26628572Y-11416171D02*
X26800000Y-11473314D01*
X26800000Y-11473314D02*
X26857143Y-11530457D01*
X26857143Y-11530457D02*
X26914286Y-11644742D01*
X26914286Y-11644742D02*
X26914286Y-11816171D01*
X26914286Y-11816171D02*
X26857143Y-11930457D01*
X26857143Y-11930457D02*
X26800000Y-11987600D01*
X26800000Y-11987600D02*
X26685715Y-12044742D01*
X26685715Y-12044742D02*
X26228572Y-12044742D01*
X26228572Y-12044742D02*
X26228572Y-10844742D01*
X26228572Y-10844742D02*
X26628572Y-10844742D01*
X26628572Y-10844742D02*
X26742858Y-10901885D01*
X26742858Y-10901885D02*
X26800000Y-10959028D01*
X26800000Y-10959028D02*
X26857143Y-11073314D01*
X26857143Y-11073314D02*
X26857143Y-11187600D01*
X26857143Y-11187600D02*
X26800000Y-11301885D01*
X26800000Y-11301885D02*
X26742858Y-11359028D01*
X26742858Y-11359028D02*
X26628572Y-11416171D01*
X26628572Y-11416171D02*
X26228572Y-11416171D01*
X27600000Y-12044742D02*
X27485715Y-11987600D01*
X27485715Y-11987600D02*
X27428572Y-11873314D01*
X27428572Y-11873314D02*
X27428572Y-10844742D01*
X28571429Y-12044742D02*
X28571429Y-11416171D01*
X28571429Y-11416171D02*
X28514286Y-11301885D01*
X28514286Y-11301885D02*
X28400000Y-11244742D01*
X28400000Y-11244742D02*
X28171429Y-11244742D01*
X28171429Y-11244742D02*
X28057143Y-11301885D01*
X28571429Y-11987600D02*
X28457143Y-12044742D01*
X28457143Y-12044742D02*
X28171429Y-12044742D01*
X28171429Y-12044742D02*
X28057143Y-11987600D01*
X28057143Y-11987600D02*
X28000000Y-11873314D01*
X28000000Y-11873314D02*
X28000000Y-11759028D01*
X28000000Y-11759028D02*
X28057143Y-11644742D01*
X28057143Y-11644742D02*
X28171429Y-11587600D01*
X28171429Y-11587600D02*
X28457143Y-11587600D01*
X28457143Y-11587600D02*
X28571429Y-11530457D01*
X29657143Y-11987600D02*
X29542857Y-12044742D01*
X29542857Y-12044742D02*
X29314285Y-12044742D01*
X29314285Y-12044742D02*
X29200000Y-11987600D01*
X29200000Y-11987600D02*
X29142857Y-11930457D01*
X29142857Y-11930457D02*
X29085714Y-11816171D01*
X29085714Y-11816171D02*
X29085714Y-11473314D01*
X29085714Y-11473314D02*
X29142857Y-11359028D01*
X29142857Y-11359028D02*
X29200000Y-11301885D01*
X29200000Y-11301885D02*
X29314285Y-11244742D01*
X29314285Y-11244742D02*
X29542857Y-11244742D01*
X29542857Y-11244742D02*
X29657143Y-11301885D01*
X30171428Y-12044742D02*
X30171428Y-10844742D01*
X30285714Y-11587600D02*
X30628571Y-12044742D01*
X30628571Y-11244742D02*
X30171428Y-11701885D01*
X10914286Y-11416171D02*
X11085714Y-11473314D01*
X11085714Y-11473314D02*
X11142857Y-11530457D01*
X11142857Y-11530457D02*
X11200000Y-11644742D01*
X11200000Y-11644742D02*
X11200000Y-11816171D01*
X11200000Y-11816171D02*
X11142857Y-11930457D01*
X11142857Y-11930457D02*
X11085714Y-11987600D01*
X11085714Y-11987600D02*
X10971429Y-12044742D01*
X10971429Y-12044742D02*
X10514286Y-12044742D01*
X10514286Y-12044742D02*
X10514286Y-10844742D01*
X10514286Y-10844742D02*
X10914286Y-10844742D01*
X10914286Y-10844742D02*
X11028572Y-10901885D01*
X11028572Y-10901885D02*
X11085714Y-10959028D01*
X11085714Y-10959028D02*
X11142857Y-11073314D01*
X11142857Y-11073314D02*
X11142857Y-11187600D01*
X11142857Y-11187600D02*
X11085714Y-11301885D01*
X11085714Y-11301885D02*
X11028572Y-11359028D01*
X11028572Y-11359028D02*
X10914286Y-11416171D01*
X10914286Y-11416171D02*
X10514286Y-11416171D01*
X11885714Y-12044742D02*
X11771429Y-11987600D01*
X11771429Y-11987600D02*
X11714286Y-11873314D01*
X11714286Y-11873314D02*
X11714286Y-10844742D01*
X12857143Y-11244742D02*
X12857143Y-12044742D01*
X12342857Y-11244742D02*
X12342857Y-11873314D01*
X12342857Y-11873314D02*
X12400000Y-11987600D01*
X12400000Y-11987600D02*
X12514285Y-12044742D01*
X12514285Y-12044742D02*
X12685714Y-12044742D01*
X12685714Y-12044742D02*
X12800000Y-11987600D01*
X12800000Y-11987600D02*
X12857143Y-11930457D01*
X13885714Y-11987600D02*
X13771428Y-12044742D01*
X13771428Y-12044742D02*
X13542857Y-12044742D01*
X13542857Y-12044742D02*
X13428571Y-11987600D01*
X13428571Y-11987600D02*
X13371428Y-11873314D01*
X13371428Y-11873314D02*
X13371428Y-11416171D01*
X13371428Y-11416171D02*
X13428571Y-11301885D01*
X13428571Y-11301885D02*
X13542857Y-11244742D01*
X13542857Y-11244742D02*
X13771428Y-11244742D01*
X13771428Y-11244742D02*
X13885714Y-11301885D01*
X13885714Y-11301885D02*
X13942857Y-11416171D01*
X13942857Y-11416171D02*
X13942857Y-11530457D01*
X13942857Y-11530457D02*
X13371428Y-11644742D01*
X31378776Y-9754136D02*
X31378776Y-9068422D01*
X32578776Y-9411279D02*
X31378776Y-9411279D01*
X32578776Y-8496993D02*
X32521634Y-8611278D01*
X32521634Y-8611278D02*
X32464491Y-8668421D01*
X32464491Y-8668421D02*
X32350205Y-8725564D01*
X32350205Y-8725564D02*
X32007348Y-8725564D01*
X32007348Y-8725564D02*
X31893062Y-8668421D01*
X31893062Y-8668421D02*
X31835919Y-8611278D01*
X31835919Y-8611278D02*
X31778776Y-8496993D01*
X31778776Y-8496993D02*
X31778776Y-8325564D01*
X31778776Y-8325564D02*
X31835919Y-8211278D01*
X31835919Y-8211278D02*
X31893062Y-8154136D01*
X31893062Y-8154136D02*
X32007348Y-8096993D01*
X32007348Y-8096993D02*
X32350205Y-8096993D01*
X32350205Y-8096993D02*
X32464491Y-8154136D01*
X32464491Y-8154136D02*
X32521634Y-8211278D01*
X32521634Y-8211278D02*
X32578776Y-8325564D01*
X32578776Y-8325564D02*
X32578776Y-8496993D01*
X32521634Y-6725564D02*
X32578776Y-6611278D01*
X32578776Y-6611278D02*
X32578776Y-6382707D01*
X32578776Y-6382707D02*
X32521634Y-6268421D01*
X32521634Y-6268421D02*
X32407348Y-6211278D01*
X32407348Y-6211278D02*
X32350205Y-6211278D01*
X32350205Y-6211278D02*
X32235919Y-6268421D01*
X32235919Y-6268421D02*
X32178776Y-6382707D01*
X32178776Y-6382707D02*
X32178776Y-6554136D01*
X32178776Y-6554136D02*
X32121634Y-6668421D01*
X32121634Y-6668421D02*
X32007348Y-6725564D01*
X32007348Y-6725564D02*
X31950205Y-6725564D01*
X31950205Y-6725564D02*
X31835919Y-6668421D01*
X31835919Y-6668421D02*
X31778776Y-6554136D01*
X31778776Y-6554136D02*
X31778776Y-6382707D01*
X31778776Y-6382707D02*
X31835919Y-6268421D01*
X31778776Y-5868421D02*
X31778776Y-5411278D01*
X31378776Y-5696992D02*
X32407348Y-5696992D01*
X32407348Y-5696992D02*
X32521634Y-5639849D01*
X32521634Y-5639849D02*
X32578776Y-5525564D01*
X32578776Y-5525564D02*
X32578776Y-5411278D01*
X32521634Y-4554135D02*
X32578776Y-4668421D01*
X32578776Y-4668421D02*
X32578776Y-4896993D01*
X32578776Y-4896993D02*
X32521634Y-5011278D01*
X32521634Y-5011278D02*
X32407348Y-5068421D01*
X32407348Y-5068421D02*
X31950205Y-5068421D01*
X31950205Y-5068421D02*
X31835919Y-5011278D01*
X31835919Y-5011278D02*
X31778776Y-4896993D01*
X31778776Y-4896993D02*
X31778776Y-4668421D01*
X31778776Y-4668421D02*
X31835919Y-4554135D01*
X31835919Y-4554135D02*
X31950205Y-4496993D01*
X31950205Y-4496993D02*
X32064491Y-4496993D01*
X32064491Y-4496993D02*
X32178776Y-5068421D01*
X31778776Y-3982707D02*
X32978776Y-3982707D01*
X31835919Y-3982707D02*
X31778776Y-3868422D01*
X31778776Y-3868422D02*
X31778776Y-3639850D01*
X31778776Y-3639850D02*
X31835919Y-3525564D01*
X31835919Y-3525564D02*
X31893062Y-3468422D01*
X31893062Y-3468422D02*
X32007348Y-3411279D01*
X32007348Y-3411279D02*
X32350205Y-3411279D01*
X32350205Y-3411279D02*
X32464491Y-3468422D01*
X32464491Y-3468422D02*
X32521634Y-3525564D01*
X32521634Y-3525564D02*
X32578776Y-3639850D01*
X32578776Y-3639850D02*
X32578776Y-3868422D01*
X32578776Y-3868422D02*
X32521634Y-3982707D01*
X31778776Y-2896993D02*
X32978776Y-2896993D01*
X31835919Y-2896993D02*
X31778776Y-2782708D01*
X31778776Y-2782708D02*
X31778776Y-2554136D01*
X31778776Y-2554136D02*
X31835919Y-2439850D01*
X31835919Y-2439850D02*
X31893062Y-2382708D01*
X31893062Y-2382708D02*
X32007348Y-2325565D01*
X32007348Y-2325565D02*
X32350205Y-2325565D01*
X32350205Y-2325565D02*
X32464491Y-2382708D01*
X32464491Y-2382708D02*
X32521634Y-2439850D01*
X32521634Y-2439850D02*
X32578776Y-2554136D01*
X32578776Y-2554136D02*
X32578776Y-2782708D01*
X32578776Y-2782708D02*
X32521634Y-2896993D01*
X32521634Y-1354136D02*
X32578776Y-1468422D01*
X32578776Y-1468422D02*
X32578776Y-1696994D01*
X32578776Y-1696994D02*
X32521634Y-1811279D01*
X32521634Y-1811279D02*
X32407348Y-1868422D01*
X32407348Y-1868422D02*
X31950205Y-1868422D01*
X31950205Y-1868422D02*
X31835919Y-1811279D01*
X31835919Y-1811279D02*
X31778776Y-1696994D01*
X31778776Y-1696994D02*
X31778776Y-1468422D01*
X31778776Y-1468422D02*
X31835919Y-1354136D01*
X31835919Y-1354136D02*
X31950205Y-1296994D01*
X31950205Y-1296994D02*
X32064491Y-1296994D01*
X32064491Y-1296994D02*
X32178776Y-1868422D01*
X32578776Y-782708D02*
X31778776Y-782708D01*
X32007348Y-782708D02*
X31893062Y-725565D01*
X31893062Y-725565D02*
X31835919Y-668423D01*
X31835919Y-668423D02*
X31778776Y-554137D01*
X31778776Y-554137D02*
X31778776Y-439851D01*
X34510709Y-9582707D02*
X33710709Y-9582707D01*
X33824995Y-9582707D02*
X33767852Y-9525564D01*
X33767852Y-9525564D02*
X33710709Y-9411279D01*
X33710709Y-9411279D02*
X33710709Y-9239850D01*
X33710709Y-9239850D02*
X33767852Y-9125564D01*
X33767852Y-9125564D02*
X33882138Y-9068422D01*
X33882138Y-9068422D02*
X34510709Y-9068422D01*
X33882138Y-9068422D02*
X33767852Y-9011279D01*
X33767852Y-9011279D02*
X33710709Y-8896993D01*
X33710709Y-8896993D02*
X33710709Y-8725564D01*
X33710709Y-8725564D02*
X33767852Y-8611279D01*
X33767852Y-8611279D02*
X33882138Y-8554136D01*
X33882138Y-8554136D02*
X34510709Y-8554136D01*
X34510709Y-7811279D02*
X34453567Y-7925564D01*
X34453567Y-7925564D02*
X34396424Y-7982707D01*
X34396424Y-7982707D02*
X34282138Y-8039850D01*
X34282138Y-8039850D02*
X33939281Y-8039850D01*
X33939281Y-8039850D02*
X33824995Y-7982707D01*
X33824995Y-7982707D02*
X33767852Y-7925564D01*
X33767852Y-7925564D02*
X33710709Y-7811279D01*
X33710709Y-7811279D02*
X33710709Y-7639850D01*
X33710709Y-7639850D02*
X33767852Y-7525564D01*
X33767852Y-7525564D02*
X33824995Y-7468422D01*
X33824995Y-7468422D02*
X33939281Y-7411279D01*
X33939281Y-7411279D02*
X34282138Y-7411279D01*
X34282138Y-7411279D02*
X34396424Y-7468422D01*
X34396424Y-7468422D02*
X34453567Y-7525564D01*
X34453567Y-7525564D02*
X34510709Y-7639850D01*
X34510709Y-7639850D02*
X34510709Y-7811279D01*
X33710709Y-7068422D02*
X33710709Y-6611279D01*
X33310709Y-6896993D02*
X34339281Y-6896993D01*
X34339281Y-6896993D02*
X34453567Y-6839850D01*
X34453567Y-6839850D02*
X34510709Y-6725565D01*
X34510709Y-6725565D02*
X34510709Y-6611279D01*
X34510709Y-6039851D02*
X34453567Y-6154136D01*
X34453567Y-6154136D02*
X34396424Y-6211279D01*
X34396424Y-6211279D02*
X34282138Y-6268422D01*
X34282138Y-6268422D02*
X33939281Y-6268422D01*
X33939281Y-6268422D02*
X33824995Y-6211279D01*
X33824995Y-6211279D02*
X33767852Y-6154136D01*
X33767852Y-6154136D02*
X33710709Y-6039851D01*
X33710709Y-6039851D02*
X33710709Y-5868422D01*
X33710709Y-5868422D02*
X33767852Y-5754136D01*
X33767852Y-5754136D02*
X33824995Y-5696994D01*
X33824995Y-5696994D02*
X33939281Y-5639851D01*
X33939281Y-5639851D02*
X34282138Y-5639851D01*
X34282138Y-5639851D02*
X34396424Y-5696994D01*
X34396424Y-5696994D02*
X34453567Y-5754136D01*
X34453567Y-5754136D02*
X34510709Y-5868422D01*
X34510709Y-5868422D02*
X34510709Y-6039851D01*
X34510709Y-5125565D02*
X33710709Y-5125565D01*
X33939281Y-5125565D02*
X33824995Y-5068422D01*
X33824995Y-5068422D02*
X33767852Y-5011280D01*
X33767852Y-5011280D02*
X33710709Y-4896994D01*
X33710709Y-4896994D02*
X33710709Y-4782708D01*
X124942857Y-2759028D02*
X125000000Y-2701885D01*
X125000000Y-2701885D02*
X125114286Y-2644742D01*
X125114286Y-2644742D02*
X125400000Y-2644742D01*
X125400000Y-2644742D02*
X125514286Y-2701885D01*
X125514286Y-2701885D02*
X125571428Y-2759028D01*
X125571428Y-2759028D02*
X125628571Y-2873314D01*
X125628571Y-2873314D02*
X125628571Y-2987600D01*
X125628571Y-2987600D02*
X125571428Y-3159028D01*
X125571428Y-3159028D02*
X124885714Y-3844742D01*
X124885714Y-3844742D02*
X125628571Y-3844742D01*
X126085714Y-3501885D02*
X126657143Y-3501885D01*
X125971428Y-3844742D02*
X126371428Y-2644742D01*
X126371428Y-2644742D02*
X126771428Y-3844742D01*
X21371429Y-10901885D02*
X21257144Y-10844742D01*
X21257144Y-10844742D02*
X21085715Y-10844742D01*
X21085715Y-10844742D02*
X20914286Y-10901885D01*
X20914286Y-10901885D02*
X20800001Y-11016171D01*
X20800001Y-11016171D02*
X20742858Y-11130457D01*
X20742858Y-11130457D02*
X20685715Y-11359028D01*
X20685715Y-11359028D02*
X20685715Y-11530457D01*
X20685715Y-11530457D02*
X20742858Y-11759028D01*
X20742858Y-11759028D02*
X20800001Y-11873314D01*
X20800001Y-11873314D02*
X20914286Y-11987600D01*
X20914286Y-11987600D02*
X21085715Y-12044742D01*
X21085715Y-12044742D02*
X21200001Y-12044742D01*
X21200001Y-12044742D02*
X21371429Y-11987600D01*
X21371429Y-11987600D02*
X21428572Y-11930457D01*
X21428572Y-11930457D02*
X21428572Y-11530457D01*
X21428572Y-11530457D02*
X21200001Y-11530457D01*
X21942858Y-12044742D02*
X21942858Y-11244742D01*
X21942858Y-11473314D02*
X22000001Y-11359028D01*
X22000001Y-11359028D02*
X22057144Y-11301885D01*
X22057144Y-11301885D02*
X22171429Y-11244742D01*
X22171429Y-11244742D02*
X22285715Y-11244742D01*
X23142858Y-11987600D02*
X23028572Y-12044742D01*
X23028572Y-12044742D02*
X22800001Y-12044742D01*
X22800001Y-12044742D02*
X22685715Y-11987600D01*
X22685715Y-11987600D02*
X22628572Y-11873314D01*
X22628572Y-11873314D02*
X22628572Y-11416171D01*
X22628572Y-11416171D02*
X22685715Y-11301885D01*
X22685715Y-11301885D02*
X22800001Y-11244742D01*
X22800001Y-11244742D02*
X23028572Y-11244742D01*
X23028572Y-11244742D02*
X23142858Y-11301885D01*
X23142858Y-11301885D02*
X23200001Y-11416171D01*
X23200001Y-11416171D02*
X23200001Y-11530457D01*
X23200001Y-11530457D02*
X22628572Y-11644742D01*
X24171429Y-11987600D02*
X24057143Y-12044742D01*
X24057143Y-12044742D02*
X23828572Y-12044742D01*
X23828572Y-12044742D02*
X23714286Y-11987600D01*
X23714286Y-11987600D02*
X23657143Y-11873314D01*
X23657143Y-11873314D02*
X23657143Y-11416171D01*
X23657143Y-11416171D02*
X23714286Y-11301885D01*
X23714286Y-11301885D02*
X23828572Y-11244742D01*
X23828572Y-11244742D02*
X24057143Y-11244742D01*
X24057143Y-11244742D02*
X24171429Y-11301885D01*
X24171429Y-11301885D02*
X24228572Y-11416171D01*
X24228572Y-11416171D02*
X24228572Y-11530457D01*
X24228572Y-11530457D02*
X23657143Y-11644742D01*
X24742857Y-11244742D02*
X24742857Y-12044742D01*
X24742857Y-11359028D02*
X24800000Y-11301885D01*
X24800000Y-11301885D02*
X24914285Y-11244742D01*
X24914285Y-11244742D02*
X25085714Y-11244742D01*
X25085714Y-11244742D02*
X25200000Y-11301885D01*
X25200000Y-11301885D02*
X25257143Y-11416171D01*
X25257143Y-11416171D02*
X25257143Y-12044742D01*
D12*
X83859580Y-15616666D02*
X83907200Y-15664285D01*
X83907200Y-15664285D02*
X83954819Y-15807142D01*
X83954819Y-15807142D02*
X83954819Y-15902380D01*
X83954819Y-15902380D02*
X83907200Y-16045237D01*
X83907200Y-16045237D02*
X83811961Y-16140475D01*
X83811961Y-16140475D02*
X83716723Y-16188094D01*
X83716723Y-16188094D02*
X83526247Y-16235713D01*
X83526247Y-16235713D02*
X83383390Y-16235713D01*
X83383390Y-16235713D02*
X83192914Y-16188094D01*
X83192914Y-16188094D02*
X83097676Y-16140475D01*
X83097676Y-16140475D02*
X83002438Y-16045237D01*
X83002438Y-16045237D02*
X82954819Y-15902380D01*
X82954819Y-15902380D02*
X82954819Y-15807142D01*
X82954819Y-15807142D02*
X83002438Y-15664285D01*
X83002438Y-15664285D02*
X83050057Y-15616666D01*
X83954819Y-14664285D02*
X83954819Y-15235713D01*
X83954819Y-14949999D02*
X82954819Y-14949999D01*
X82954819Y-14949999D02*
X83097676Y-15045237D01*
X83097676Y-15045237D02*
X83192914Y-15140475D01*
X83192914Y-15140475D02*
X83240533Y-15235713D01*
X121166666Y-6831009D02*
X120833333Y-6831009D01*
X120833333Y-7354819D02*
X120833333Y-6354819D01*
X120833333Y-6354819D02*
X121309523Y-6354819D01*
X122214285Y-7354819D02*
X121642857Y-7354819D01*
X121928571Y-7354819D02*
X121928571Y-6354819D01*
X121928571Y-6354819D02*
X121833333Y-6497676D01*
X121833333Y-6497676D02*
X121738095Y-6592914D01*
X121738095Y-6592914D02*
X121642857Y-6640533D01*
X1859580Y-14166666D02*
X1907200Y-14214285D01*
X1907200Y-14214285D02*
X1954819Y-14357142D01*
X1954819Y-14357142D02*
X1954819Y-14452380D01*
X1954819Y-14452380D02*
X1907200Y-14595237D01*
X1907200Y-14595237D02*
X1811961Y-14690475D01*
X1811961Y-14690475D02*
X1716723Y-14738094D01*
X1716723Y-14738094D02*
X1526247Y-14785713D01*
X1526247Y-14785713D02*
X1383390Y-14785713D01*
X1383390Y-14785713D02*
X1192914Y-14738094D01*
X1192914Y-14738094D02*
X1097676Y-14690475D01*
X1097676Y-14690475D02*
X1002438Y-14595237D01*
X1002438Y-14595237D02*
X954819Y-14452380D01*
X954819Y-14452380D02*
X954819Y-14357142D01*
X954819Y-14357142D02*
X1002438Y-14214285D01*
X1002438Y-14214285D02*
X1050057Y-14166666D01*
X954819Y-13833332D02*
X954819Y-13214285D01*
X954819Y-13214285D02*
X1335771Y-13547618D01*
X1335771Y-13547618D02*
X1335771Y-13404761D01*
X1335771Y-13404761D02*
X1383390Y-13309523D01*
X1383390Y-13309523D02*
X1431009Y-13261904D01*
X1431009Y-13261904D02*
X1526247Y-13214285D01*
X1526247Y-13214285D02*
X1764342Y-13214285D01*
X1764342Y-13214285D02*
X1859580Y-13261904D01*
X1859580Y-13261904D02*
X1907200Y-13309523D01*
X1907200Y-13309523D02*
X1954819Y-13404761D01*
X1954819Y-13404761D02*
X1954819Y-13690475D01*
X1954819Y-13690475D02*
X1907200Y-13785713D01*
X1907200Y-13785713D02*
X1859580Y-13833332D01*
X75816667Y-30533200D02*
X75959524Y-30580819D01*
X75959524Y-30580819D02*
X76197619Y-30580819D01*
X76197619Y-30580819D02*
X76292857Y-30533200D01*
X76292857Y-30533200D02*
X76340476Y-30485580D01*
X76340476Y-30485580D02*
X76388095Y-30390342D01*
X76388095Y-30390342D02*
X76388095Y-30295104D01*
X76388095Y-30295104D02*
X76340476Y-30199866D01*
X76340476Y-30199866D02*
X76292857Y-30152247D01*
X76292857Y-30152247D02*
X76197619Y-30104628D01*
X76197619Y-30104628D02*
X76007143Y-30057009D01*
X76007143Y-30057009D02*
X75911905Y-30009390D01*
X75911905Y-30009390D02*
X75864286Y-29961771D01*
X75864286Y-29961771D02*
X75816667Y-29866533D01*
X75816667Y-29866533D02*
X75816667Y-29771295D01*
X75816667Y-29771295D02*
X75864286Y-29676057D01*
X75864286Y-29676057D02*
X75911905Y-29628438D01*
X75911905Y-29628438D02*
X76007143Y-29580819D01*
X76007143Y-29580819D02*
X76245238Y-29580819D01*
X76245238Y-29580819D02*
X76388095Y-29628438D01*
X76721429Y-29580819D02*
X76959524Y-30580819D01*
X76959524Y-30580819D02*
X77150000Y-29866533D01*
X77150000Y-29866533D02*
X77340476Y-30580819D01*
X77340476Y-30580819D02*
X77578572Y-29580819D01*
X78388095Y-29914152D02*
X78388095Y-30580819D01*
X78150000Y-29533200D02*
X77911905Y-30247485D01*
X77911905Y-30247485D02*
X78530952Y-30247485D01*
X8654819Y-9733333D02*
X9369104Y-9733333D01*
X9369104Y-9733333D02*
X9511961Y-9780952D01*
X9511961Y-9780952D02*
X9607200Y-9876190D01*
X9607200Y-9876190D02*
X9654819Y-10019047D01*
X9654819Y-10019047D02*
X9654819Y-10114285D01*
X9083390Y-9114285D02*
X9035771Y-9209523D01*
X9035771Y-9209523D02*
X8988152Y-9257142D01*
X8988152Y-9257142D02*
X8892914Y-9304761D01*
X8892914Y-9304761D02*
X8845295Y-9304761D01*
X8845295Y-9304761D02*
X8750057Y-9257142D01*
X8750057Y-9257142D02*
X8702438Y-9209523D01*
X8702438Y-9209523D02*
X8654819Y-9114285D01*
X8654819Y-9114285D02*
X8654819Y-8923809D01*
X8654819Y-8923809D02*
X8702438Y-8828571D01*
X8702438Y-8828571D02*
X8750057Y-8780952D01*
X8750057Y-8780952D02*
X8845295Y-8733333D01*
X8845295Y-8733333D02*
X8892914Y-8733333D01*
X8892914Y-8733333D02*
X8988152Y-8780952D01*
X8988152Y-8780952D02*
X9035771Y-8828571D01*
X9035771Y-8828571D02*
X9083390Y-8923809D01*
X9083390Y-8923809D02*
X9083390Y-9114285D01*
X9083390Y-9114285D02*
X9131009Y-9209523D01*
X9131009Y-9209523D02*
X9178628Y-9257142D01*
X9178628Y-9257142D02*
X9273866Y-9304761D01*
X9273866Y-9304761D02*
X9464342Y-9304761D01*
X9464342Y-9304761D02*
X9559580Y-9257142D01*
X9559580Y-9257142D02*
X9607200Y-9209523D01*
X9607200Y-9209523D02*
X9654819Y-9114285D01*
X9654819Y-9114285D02*
X9654819Y-8923809D01*
X9654819Y-8923809D02*
X9607200Y-8828571D01*
X9607200Y-8828571D02*
X9559580Y-8780952D01*
X9559580Y-8780952D02*
X9464342Y-8733333D01*
X9464342Y-8733333D02*
X9273866Y-8733333D01*
X9273866Y-8733333D02*
X9178628Y-8780952D01*
X9178628Y-8780952D02*
X9131009Y-8828571D01*
X9131009Y-8828571D02*
X9083390Y-8923809D01*
X130304819Y-20333333D02*
X131019104Y-20333333D01*
X131019104Y-20333333D02*
X131161961Y-20380952D01*
X131161961Y-20380952D02*
X131257200Y-20476190D01*
X131257200Y-20476190D02*
X131304819Y-20619047D01*
X131304819Y-20619047D02*
X131304819Y-20714285D01*
X130304819Y-19952380D02*
X130304819Y-19333333D01*
X130304819Y-19333333D02*
X130685771Y-19666666D01*
X130685771Y-19666666D02*
X130685771Y-19523809D01*
X130685771Y-19523809D02*
X130733390Y-19428571D01*
X130733390Y-19428571D02*
X130781009Y-19380952D01*
X130781009Y-19380952D02*
X130876247Y-19333333D01*
X130876247Y-19333333D02*
X131114342Y-19333333D01*
X131114342Y-19333333D02*
X131209580Y-19380952D01*
X131209580Y-19380952D02*
X131257200Y-19428571D01*
X131257200Y-19428571D02*
X131304819Y-19523809D01*
X131304819Y-19523809D02*
X131304819Y-19809523D01*
X131304819Y-19809523D02*
X131257200Y-19904761D01*
X131257200Y-19904761D02*
X131209580Y-19952380D01*
X125916666Y-6962319D02*
X125916666Y-7676604D01*
X125916666Y-7676604D02*
X125869047Y-7819461D01*
X125869047Y-7819461D02*
X125773809Y-7914700D01*
X125773809Y-7914700D02*
X125630952Y-7962319D01*
X125630952Y-7962319D02*
X125535714Y-7962319D01*
X126916666Y-7962319D02*
X126345238Y-7962319D01*
X126630952Y-7962319D02*
X126630952Y-6962319D01*
X126630952Y-6962319D02*
X126535714Y-7105176D01*
X126535714Y-7105176D02*
X126440476Y-7200414D01*
X126440476Y-7200414D02*
X126345238Y-7248033D01*
X18666667Y-30533200D02*
X18809524Y-30580819D01*
X18809524Y-30580819D02*
X19047619Y-30580819D01*
X19047619Y-30580819D02*
X19142857Y-30533200D01*
X19142857Y-30533200D02*
X19190476Y-30485580D01*
X19190476Y-30485580D02*
X19238095Y-30390342D01*
X19238095Y-30390342D02*
X19238095Y-30295104D01*
X19238095Y-30295104D02*
X19190476Y-30199866D01*
X19190476Y-30199866D02*
X19142857Y-30152247D01*
X19142857Y-30152247D02*
X19047619Y-30104628D01*
X19047619Y-30104628D02*
X18857143Y-30057009D01*
X18857143Y-30057009D02*
X18761905Y-30009390D01*
X18761905Y-30009390D02*
X18714286Y-29961771D01*
X18714286Y-29961771D02*
X18666667Y-29866533D01*
X18666667Y-29866533D02*
X18666667Y-29771295D01*
X18666667Y-29771295D02*
X18714286Y-29676057D01*
X18714286Y-29676057D02*
X18761905Y-29628438D01*
X18761905Y-29628438D02*
X18857143Y-29580819D01*
X18857143Y-29580819D02*
X19095238Y-29580819D01*
X19095238Y-29580819D02*
X19238095Y-29628438D01*
X19571429Y-29580819D02*
X19809524Y-30580819D01*
X19809524Y-30580819D02*
X20000000Y-29866533D01*
X20000000Y-29866533D02*
X20190476Y-30580819D01*
X20190476Y-30580819D02*
X20428572Y-29580819D01*
X21333333Y-30580819D02*
X20761905Y-30580819D01*
X21047619Y-30580819D02*
X21047619Y-29580819D01*
X21047619Y-29580819D02*
X20952381Y-29723676D01*
X20952381Y-29723676D02*
X20857143Y-29818914D01*
X20857143Y-29818914D02*
X20761905Y-29866533D01*
X109491905Y-14704819D02*
X109491905Y-13704819D01*
X109491905Y-13704819D02*
X109730000Y-13704819D01*
X109730000Y-13704819D02*
X109872857Y-13752438D01*
X109872857Y-13752438D02*
X109968095Y-13847676D01*
X109968095Y-13847676D02*
X110015714Y-13942914D01*
X110015714Y-13942914D02*
X110063333Y-14133390D01*
X110063333Y-14133390D02*
X110063333Y-14276247D01*
X110063333Y-14276247D02*
X110015714Y-14466723D01*
X110015714Y-14466723D02*
X109968095Y-14561961D01*
X109968095Y-14561961D02*
X109872857Y-14657200D01*
X109872857Y-14657200D02*
X109730000Y-14704819D01*
X109730000Y-14704819D02*
X109491905Y-14704819D01*
X111015714Y-14704819D02*
X110444286Y-14704819D01*
X110730000Y-14704819D02*
X110730000Y-13704819D01*
X110730000Y-13704819D02*
X110634762Y-13847676D01*
X110634762Y-13847676D02*
X110539524Y-13942914D01*
X110539524Y-13942914D02*
X110444286Y-13990533D01*
X95069104Y-32334285D02*
X95069104Y-31858095D01*
X95354819Y-32429523D02*
X94354819Y-32096190D01*
X94354819Y-32096190D02*
X95354819Y-31762857D01*
X94450057Y-31477142D02*
X94402438Y-31429523D01*
X94402438Y-31429523D02*
X94354819Y-31334285D01*
X94354819Y-31334285D02*
X94354819Y-31096190D01*
X94354819Y-31096190D02*
X94402438Y-31000952D01*
X94402438Y-31000952D02*
X94450057Y-30953333D01*
X94450057Y-30953333D02*
X94545295Y-30905714D01*
X94545295Y-30905714D02*
X94640533Y-30905714D01*
X94640533Y-30905714D02*
X94783390Y-30953333D01*
X94783390Y-30953333D02*
X95354819Y-31524761D01*
X95354819Y-31524761D02*
X95354819Y-30905714D01*
X134994819Y-32881904D02*
X135804342Y-32881904D01*
X135804342Y-32881904D02*
X135899580Y-32834285D01*
X135899580Y-32834285D02*
X135947200Y-32786666D01*
X135947200Y-32786666D02*
X135994819Y-32691428D01*
X135994819Y-32691428D02*
X135994819Y-32500952D01*
X135994819Y-32500952D02*
X135947200Y-32405714D01*
X135947200Y-32405714D02*
X135899580Y-32358095D01*
X135899580Y-32358095D02*
X135804342Y-32310476D01*
X135804342Y-32310476D02*
X134994819Y-32310476D01*
X135947200Y-31881904D02*
X135994819Y-31739047D01*
X135994819Y-31739047D02*
X135994819Y-31500952D01*
X135994819Y-31500952D02*
X135947200Y-31405714D01*
X135947200Y-31405714D02*
X135899580Y-31358095D01*
X135899580Y-31358095D02*
X135804342Y-31310476D01*
X135804342Y-31310476D02*
X135709104Y-31310476D01*
X135709104Y-31310476D02*
X135613866Y-31358095D01*
X135613866Y-31358095D02*
X135566247Y-31405714D01*
X135566247Y-31405714D02*
X135518628Y-31500952D01*
X135518628Y-31500952D02*
X135471009Y-31691428D01*
X135471009Y-31691428D02*
X135423390Y-31786666D01*
X135423390Y-31786666D02*
X135375771Y-31834285D01*
X135375771Y-31834285D02*
X135280533Y-31881904D01*
X135280533Y-31881904D02*
X135185295Y-31881904D01*
X135185295Y-31881904D02*
X135090057Y-31834285D01*
X135090057Y-31834285D02*
X135042438Y-31786666D01*
X135042438Y-31786666D02*
X134994819Y-31691428D01*
X134994819Y-31691428D02*
X134994819Y-31453333D01*
X134994819Y-31453333D02*
X135042438Y-31310476D01*
X135471009Y-30548571D02*
X135518628Y-30405714D01*
X135518628Y-30405714D02*
X135566247Y-30358095D01*
X135566247Y-30358095D02*
X135661485Y-30310476D01*
X135661485Y-30310476D02*
X135804342Y-30310476D01*
X135804342Y-30310476D02*
X135899580Y-30358095D01*
X135899580Y-30358095D02*
X135947200Y-30405714D01*
X135947200Y-30405714D02*
X135994819Y-30500952D01*
X135994819Y-30500952D02*
X135994819Y-30881904D01*
X135994819Y-30881904D02*
X134994819Y-30881904D01*
X134994819Y-30881904D02*
X134994819Y-30548571D01*
X134994819Y-30548571D02*
X135042438Y-30453333D01*
X135042438Y-30453333D02*
X135090057Y-30405714D01*
X135090057Y-30405714D02*
X135185295Y-30358095D01*
X135185295Y-30358095D02*
X135280533Y-30358095D01*
X135280533Y-30358095D02*
X135375771Y-30405714D01*
X135375771Y-30405714D02*
X135423390Y-30453333D01*
X135423390Y-30453333D02*
X135471009Y-30548571D01*
X135471009Y-30548571D02*
X135471009Y-30881904D01*
X8024819Y-27761904D02*
X8834342Y-27761904D01*
X8834342Y-27761904D02*
X8929580Y-27714285D01*
X8929580Y-27714285D02*
X8977200Y-27666666D01*
X8977200Y-27666666D02*
X9024819Y-27571428D01*
X9024819Y-27571428D02*
X9024819Y-27380952D01*
X9024819Y-27380952D02*
X8977200Y-27285714D01*
X8977200Y-27285714D02*
X8929580Y-27238095D01*
X8929580Y-27238095D02*
X8834342Y-27190476D01*
X8834342Y-27190476D02*
X8024819Y-27190476D01*
X8120057Y-26761904D02*
X8072438Y-26714285D01*
X8072438Y-26714285D02*
X8024819Y-26619047D01*
X8024819Y-26619047D02*
X8024819Y-26380952D01*
X8024819Y-26380952D02*
X8072438Y-26285714D01*
X8072438Y-26285714D02*
X8120057Y-26238095D01*
X8120057Y-26238095D02*
X8215295Y-26190476D01*
X8215295Y-26190476D02*
X8310533Y-26190476D01*
X8310533Y-26190476D02*
X8453390Y-26238095D01*
X8453390Y-26238095D02*
X9024819Y-26809523D01*
X9024819Y-26809523D02*
X9024819Y-26190476D01*
D11*
X16042600Y-24442856D02*
X16099742Y-24271428D01*
X16099742Y-24271428D02*
X16099742Y-23985713D01*
X16099742Y-23985713D02*
X16042600Y-23871428D01*
X16042600Y-23871428D02*
X15985457Y-23814285D01*
X15985457Y-23814285D02*
X15871171Y-23757142D01*
X15871171Y-23757142D02*
X15756885Y-23757142D01*
X15756885Y-23757142D02*
X15642600Y-23814285D01*
X15642600Y-23814285D02*
X15585457Y-23871428D01*
X15585457Y-23871428D02*
X15528314Y-23985713D01*
X15528314Y-23985713D02*
X15471171Y-24214285D01*
X15471171Y-24214285D02*
X15414028Y-24328570D01*
X15414028Y-24328570D02*
X15356885Y-24385713D01*
X15356885Y-24385713D02*
X15242600Y-24442856D01*
X15242600Y-24442856D02*
X15128314Y-24442856D01*
X15128314Y-24442856D02*
X15014028Y-24385713D01*
X15014028Y-24385713D02*
X14956885Y-24328570D01*
X14956885Y-24328570D02*
X14899742Y-24214285D01*
X14899742Y-24214285D02*
X14899742Y-23928570D01*
X14899742Y-23928570D02*
X14956885Y-23757142D01*
X15299742Y-23414285D02*
X15299742Y-22957142D01*
X14899742Y-23242856D02*
X15928314Y-23242856D01*
X15928314Y-23242856D02*
X16042600Y-23185713D01*
X16042600Y-23185713D02*
X16099742Y-23071428D01*
X16099742Y-23071428D02*
X16099742Y-22957142D01*
X16042600Y-22099999D02*
X16099742Y-22214285D01*
X16099742Y-22214285D02*
X16099742Y-22442857D01*
X16099742Y-22442857D02*
X16042600Y-22557142D01*
X16042600Y-22557142D02*
X15928314Y-22614285D01*
X15928314Y-22614285D02*
X15471171Y-22614285D01*
X15471171Y-22614285D02*
X15356885Y-22557142D01*
X15356885Y-22557142D02*
X15299742Y-22442857D01*
X15299742Y-22442857D02*
X15299742Y-22214285D01*
X15299742Y-22214285D02*
X15356885Y-22099999D01*
X15356885Y-22099999D02*
X15471171Y-22042857D01*
X15471171Y-22042857D02*
X15585457Y-22042857D01*
X15585457Y-22042857D02*
X15699742Y-22614285D01*
X15299742Y-21528571D02*
X16499742Y-21528571D01*
X15356885Y-21528571D02*
X15299742Y-21414286D01*
X15299742Y-21414286D02*
X15299742Y-21185714D01*
X15299742Y-21185714D02*
X15356885Y-21071428D01*
X15356885Y-21071428D02*
X15414028Y-21014286D01*
X15414028Y-21014286D02*
X15528314Y-20957143D01*
X15528314Y-20957143D02*
X15871171Y-20957143D01*
X15871171Y-20957143D02*
X15985457Y-21014286D01*
X15985457Y-21014286D02*
X16042600Y-21071428D01*
X16042600Y-21071428D02*
X16099742Y-21185714D01*
X16099742Y-21185714D02*
X16099742Y-21414286D01*
X16099742Y-21414286D02*
X16042600Y-21528571D01*
X16042600Y-20500000D02*
X16099742Y-20328572D01*
X16099742Y-20328572D02*
X16099742Y-20042857D01*
X16099742Y-20042857D02*
X16042600Y-19928572D01*
X16042600Y-19928572D02*
X15985457Y-19871429D01*
X15985457Y-19871429D02*
X15871171Y-19814286D01*
X15871171Y-19814286D02*
X15756885Y-19814286D01*
X15756885Y-19814286D02*
X15642600Y-19871429D01*
X15642600Y-19871429D02*
X15585457Y-19928572D01*
X15585457Y-19928572D02*
X15528314Y-20042857D01*
X15528314Y-20042857D02*
X15471171Y-20271429D01*
X15471171Y-20271429D02*
X15414028Y-20385714D01*
X15414028Y-20385714D02*
X15356885Y-20442857D01*
X15356885Y-20442857D02*
X15242600Y-20500000D01*
X15242600Y-20500000D02*
X15128314Y-20500000D01*
X15128314Y-20500000D02*
X15014028Y-20442857D01*
X15014028Y-20442857D02*
X14956885Y-20385714D01*
X14956885Y-20385714D02*
X14899742Y-20271429D01*
X14899742Y-20271429D02*
X14899742Y-19985714D01*
X14899742Y-19985714D02*
X14956885Y-19814286D01*
X15299742Y-19471429D02*
X15299742Y-19014286D01*
X14899742Y-19300000D02*
X15928314Y-19300000D01*
X15928314Y-19300000D02*
X16042600Y-19242857D01*
X16042600Y-19242857D02*
X16099742Y-19128572D01*
X16099742Y-19128572D02*
X16099742Y-19014286D01*
X16099742Y-18614286D02*
X15299742Y-18614286D01*
X14899742Y-18614286D02*
X14956885Y-18671429D01*
X14956885Y-18671429D02*
X15014028Y-18614286D01*
X15014028Y-18614286D02*
X14956885Y-18557143D01*
X14956885Y-18557143D02*
X14899742Y-18614286D01*
X14899742Y-18614286D02*
X15014028Y-18614286D01*
X16042600Y-17528572D02*
X16099742Y-17642857D01*
X16099742Y-17642857D02*
X16099742Y-17871429D01*
X16099742Y-17871429D02*
X16042600Y-17985714D01*
X16042600Y-17985714D02*
X15985457Y-18042857D01*
X15985457Y-18042857D02*
X15871171Y-18100000D01*
X15871171Y-18100000D02*
X15528314Y-18100000D01*
X15528314Y-18100000D02*
X15414028Y-18042857D01*
X15414028Y-18042857D02*
X15356885Y-17985714D01*
X15356885Y-17985714D02*
X15299742Y-17871429D01*
X15299742Y-17871429D02*
X15299742Y-17642857D01*
X15299742Y-17642857D02*
X15356885Y-17528572D01*
X16099742Y-17014286D02*
X14899742Y-17014286D01*
X15642600Y-16900001D02*
X16099742Y-16557143D01*
X15299742Y-16557143D02*
X15756885Y-17014286D01*
X23719742Y-22814285D02*
X22519742Y-22814285D01*
X22519742Y-22814285D02*
X22519742Y-22528571D01*
X22519742Y-22528571D02*
X22576885Y-22357142D01*
X22576885Y-22357142D02*
X22691171Y-22242857D01*
X22691171Y-22242857D02*
X22805457Y-22185714D01*
X22805457Y-22185714D02*
X23034028Y-22128571D01*
X23034028Y-22128571D02*
X23205457Y-22128571D01*
X23205457Y-22128571D02*
X23434028Y-22185714D01*
X23434028Y-22185714D02*
X23548314Y-22242857D01*
X23548314Y-22242857D02*
X23662600Y-22357142D01*
X23662600Y-22357142D02*
X23719742Y-22528571D01*
X23719742Y-22528571D02*
X23719742Y-22814285D01*
X23719742Y-21614285D02*
X22919742Y-21614285D01*
X23148314Y-21614285D02*
X23034028Y-21557142D01*
X23034028Y-21557142D02*
X22976885Y-21500000D01*
X22976885Y-21500000D02*
X22919742Y-21385714D01*
X22919742Y-21385714D02*
X22919742Y-21271428D01*
X23719742Y-20871428D02*
X22919742Y-20871428D01*
X22519742Y-20871428D02*
X22576885Y-20928571D01*
X22576885Y-20928571D02*
X22634028Y-20871428D01*
X22634028Y-20871428D02*
X22576885Y-20814285D01*
X22576885Y-20814285D02*
X22519742Y-20871428D01*
X22519742Y-20871428D02*
X22634028Y-20871428D01*
X22919742Y-20414285D02*
X23719742Y-20128571D01*
X23719742Y-20128571D02*
X22919742Y-19842856D01*
X23662600Y-18928570D02*
X23719742Y-19042856D01*
X23719742Y-19042856D02*
X23719742Y-19271428D01*
X23719742Y-19271428D02*
X23662600Y-19385713D01*
X23662600Y-19385713D02*
X23548314Y-19442856D01*
X23548314Y-19442856D02*
X23091171Y-19442856D01*
X23091171Y-19442856D02*
X22976885Y-19385713D01*
X22976885Y-19385713D02*
X22919742Y-19271428D01*
X22919742Y-19271428D02*
X22919742Y-19042856D01*
X22919742Y-19042856D02*
X22976885Y-18928570D01*
X22976885Y-18928570D02*
X23091171Y-18871428D01*
X23091171Y-18871428D02*
X23205457Y-18871428D01*
X23205457Y-18871428D02*
X23319742Y-19442856D01*
X23719742Y-18357142D02*
X22919742Y-18357142D01*
X23148314Y-18357142D02*
X23034028Y-18299999D01*
X23034028Y-18299999D02*
X22976885Y-18242857D01*
X22976885Y-18242857D02*
X22919742Y-18128571D01*
X22919742Y-18128571D02*
X22919742Y-18014285D01*
X18582600Y-22471427D02*
X18639742Y-22299999D01*
X18639742Y-22299999D02*
X18639742Y-22014284D01*
X18639742Y-22014284D02*
X18582600Y-21899999D01*
X18582600Y-21899999D02*
X18525457Y-21842856D01*
X18525457Y-21842856D02*
X18411171Y-21785713D01*
X18411171Y-21785713D02*
X18296885Y-21785713D01*
X18296885Y-21785713D02*
X18182600Y-21842856D01*
X18182600Y-21842856D02*
X18125457Y-21899999D01*
X18125457Y-21899999D02*
X18068314Y-22014284D01*
X18068314Y-22014284D02*
X18011171Y-22242856D01*
X18011171Y-22242856D02*
X17954028Y-22357141D01*
X17954028Y-22357141D02*
X17896885Y-22414284D01*
X17896885Y-22414284D02*
X17782600Y-22471427D01*
X17782600Y-22471427D02*
X17668314Y-22471427D01*
X17668314Y-22471427D02*
X17554028Y-22414284D01*
X17554028Y-22414284D02*
X17496885Y-22357141D01*
X17496885Y-22357141D02*
X17439742Y-22242856D01*
X17439742Y-22242856D02*
X17439742Y-21957141D01*
X17439742Y-21957141D02*
X17496885Y-21785713D01*
X17839742Y-21442856D02*
X17839742Y-20985713D01*
X17439742Y-21271427D02*
X18468314Y-21271427D01*
X18468314Y-21271427D02*
X18582600Y-21214284D01*
X18582600Y-21214284D02*
X18639742Y-21099999D01*
X18639742Y-21099999D02*
X18639742Y-20985713D01*
X17839742Y-20699999D02*
X18639742Y-20414285D01*
X17839742Y-20128570D02*
X18639742Y-20414285D01*
X18639742Y-20414285D02*
X18925457Y-20528570D01*
X18925457Y-20528570D02*
X18982600Y-20585713D01*
X18982600Y-20585713D02*
X19039742Y-20699999D01*
X18639742Y-19499999D02*
X18582600Y-19614284D01*
X18582600Y-19614284D02*
X18468314Y-19671427D01*
X18468314Y-19671427D02*
X17439742Y-19671427D01*
X18582600Y-18585713D02*
X18639742Y-18699999D01*
X18639742Y-18699999D02*
X18639742Y-18928571D01*
X18639742Y-18928571D02*
X18582600Y-19042856D01*
X18582600Y-19042856D02*
X18468314Y-19099999D01*
X18468314Y-19099999D02*
X18011171Y-19099999D01*
X18011171Y-19099999D02*
X17896885Y-19042856D01*
X17896885Y-19042856D02*
X17839742Y-18928571D01*
X17839742Y-18928571D02*
X17839742Y-18699999D01*
X17839742Y-18699999D02*
X17896885Y-18585713D01*
X17896885Y-18585713D02*
X18011171Y-18528571D01*
X18011171Y-18528571D02*
X18125457Y-18528571D01*
X18125457Y-18528571D02*
X18239742Y-19099999D01*
X21122600Y-23671427D02*
X21179742Y-23499999D01*
X21179742Y-23499999D02*
X21179742Y-23214284D01*
X21179742Y-23214284D02*
X21122600Y-23099999D01*
X21122600Y-23099999D02*
X21065457Y-23042856D01*
X21065457Y-23042856D02*
X20951171Y-22985713D01*
X20951171Y-22985713D02*
X20836885Y-22985713D01*
X20836885Y-22985713D02*
X20722600Y-23042856D01*
X20722600Y-23042856D02*
X20665457Y-23099999D01*
X20665457Y-23099999D02*
X20608314Y-23214284D01*
X20608314Y-23214284D02*
X20551171Y-23442856D01*
X20551171Y-23442856D02*
X20494028Y-23557141D01*
X20494028Y-23557141D02*
X20436885Y-23614284D01*
X20436885Y-23614284D02*
X20322600Y-23671427D01*
X20322600Y-23671427D02*
X20208314Y-23671427D01*
X20208314Y-23671427D02*
X20094028Y-23614284D01*
X20094028Y-23614284D02*
X20036885Y-23557141D01*
X20036885Y-23557141D02*
X19979742Y-23442856D01*
X19979742Y-23442856D02*
X19979742Y-23157141D01*
X19979742Y-23157141D02*
X20036885Y-22985713D01*
X20379742Y-22642856D02*
X20379742Y-22185713D01*
X19979742Y-22471427D02*
X21008314Y-22471427D01*
X21008314Y-22471427D02*
X21122600Y-22414284D01*
X21122600Y-22414284D02*
X21179742Y-22299999D01*
X21179742Y-22299999D02*
X21179742Y-22185713D01*
X21122600Y-21328570D02*
X21179742Y-21442856D01*
X21179742Y-21442856D02*
X21179742Y-21671428D01*
X21179742Y-21671428D02*
X21122600Y-21785713D01*
X21122600Y-21785713D02*
X21008314Y-21842856D01*
X21008314Y-21842856D02*
X20551171Y-21842856D01*
X20551171Y-21842856D02*
X20436885Y-21785713D01*
X20436885Y-21785713D02*
X20379742Y-21671428D01*
X20379742Y-21671428D02*
X20379742Y-21442856D01*
X20379742Y-21442856D02*
X20436885Y-21328570D01*
X20436885Y-21328570D02*
X20551171Y-21271428D01*
X20551171Y-21271428D02*
X20665457Y-21271428D01*
X20665457Y-21271428D02*
X20779742Y-21842856D01*
X20379742Y-20757142D02*
X21579742Y-20757142D01*
X20436885Y-20757142D02*
X20379742Y-20642857D01*
X20379742Y-20642857D02*
X20379742Y-20414285D01*
X20379742Y-20414285D02*
X20436885Y-20299999D01*
X20436885Y-20299999D02*
X20494028Y-20242857D01*
X20494028Y-20242857D02*
X20608314Y-20185714D01*
X20608314Y-20185714D02*
X20951171Y-20185714D01*
X20951171Y-20185714D02*
X21065457Y-20242857D01*
X21065457Y-20242857D02*
X21122600Y-20299999D01*
X21122600Y-20299999D02*
X21179742Y-20414285D01*
X21179742Y-20414285D02*
X21179742Y-20642857D01*
X21179742Y-20642857D02*
X21122600Y-20757142D01*
X20379742Y-19671428D02*
X21579742Y-19671428D01*
X20436885Y-19671428D02*
X20379742Y-19557143D01*
X20379742Y-19557143D02*
X20379742Y-19328571D01*
X20379742Y-19328571D02*
X20436885Y-19214285D01*
X20436885Y-19214285D02*
X20494028Y-19157143D01*
X20494028Y-19157143D02*
X20608314Y-19100000D01*
X20608314Y-19100000D02*
X20951171Y-19100000D01*
X20951171Y-19100000D02*
X21065457Y-19157143D01*
X21065457Y-19157143D02*
X21122600Y-19214285D01*
X21122600Y-19214285D02*
X21179742Y-19328571D01*
X21179742Y-19328571D02*
X21179742Y-19557143D01*
X21179742Y-19557143D02*
X21122600Y-19671428D01*
X21122600Y-18128571D02*
X21179742Y-18242857D01*
X21179742Y-18242857D02*
X21179742Y-18471429D01*
X21179742Y-18471429D02*
X21122600Y-18585714D01*
X21122600Y-18585714D02*
X21008314Y-18642857D01*
X21008314Y-18642857D02*
X20551171Y-18642857D01*
X20551171Y-18642857D02*
X20436885Y-18585714D01*
X20436885Y-18585714D02*
X20379742Y-18471429D01*
X20379742Y-18471429D02*
X20379742Y-18242857D01*
X20379742Y-18242857D02*
X20436885Y-18128571D01*
X20436885Y-18128571D02*
X20551171Y-18071429D01*
X20551171Y-18071429D02*
X20665457Y-18071429D01*
X20665457Y-18071429D02*
X20779742Y-18642857D01*
X21179742Y-17557143D02*
X20379742Y-17557143D01*
X20608314Y-17557143D02*
X20494028Y-17500000D01*
X20494028Y-17500000D02*
X20436885Y-17442858D01*
X20436885Y-17442858D02*
X20379742Y-17328572D01*
X20379742Y-17328572D02*
X20379742Y-17214286D01*
D12*
X122004819Y-13173094D02*
X121004819Y-13173094D01*
X121004819Y-13173094D02*
X121004819Y-12934999D01*
X121004819Y-12934999D02*
X121052438Y-12792142D01*
X121052438Y-12792142D02*
X121147676Y-12696904D01*
X121147676Y-12696904D02*
X121242914Y-12649285D01*
X121242914Y-12649285D02*
X121433390Y-12601666D01*
X121433390Y-12601666D02*
X121576247Y-12601666D01*
X121576247Y-12601666D02*
X121766723Y-12649285D01*
X121766723Y-12649285D02*
X121861961Y-12696904D01*
X121861961Y-12696904D02*
X121957200Y-12792142D01*
X121957200Y-12792142D02*
X122004819Y-12934999D01*
X122004819Y-12934999D02*
X122004819Y-13173094D01*
X121004819Y-12268332D02*
X121004819Y-11649285D01*
X121004819Y-11649285D02*
X121385771Y-11982618D01*
X121385771Y-11982618D02*
X121385771Y-11839761D01*
X121385771Y-11839761D02*
X121433390Y-11744523D01*
X121433390Y-11744523D02*
X121481009Y-11696904D01*
X121481009Y-11696904D02*
X121576247Y-11649285D01*
X121576247Y-11649285D02*
X121814342Y-11649285D01*
X121814342Y-11649285D02*
X121909580Y-11696904D01*
X121909580Y-11696904D02*
X121957200Y-11744523D01*
X121957200Y-11744523D02*
X122004819Y-11839761D01*
X122004819Y-11839761D02*
X122004819Y-12125475D01*
X122004819Y-12125475D02*
X121957200Y-12220713D01*
X121957200Y-12220713D02*
X121909580Y-12268332D01*
X118066666Y-1654819D02*
X118066666Y-2369104D01*
X118066666Y-2369104D02*
X118019047Y-2511961D01*
X118019047Y-2511961D02*
X117923809Y-2607200D01*
X117923809Y-2607200D02*
X117780952Y-2654819D01*
X117780952Y-2654819D02*
X117685714Y-2654819D01*
X118495238Y-1750057D02*
X118542857Y-1702438D01*
X118542857Y-1702438D02*
X118638095Y-1654819D01*
X118638095Y-1654819D02*
X118876190Y-1654819D01*
X118876190Y-1654819D02*
X118971428Y-1702438D01*
X118971428Y-1702438D02*
X119019047Y-1750057D01*
X119019047Y-1750057D02*
X119066666Y-1845295D01*
X119066666Y-1845295D02*
X119066666Y-1940533D01*
X119066666Y-1940533D02*
X119019047Y-2083390D01*
X119019047Y-2083390D02*
X118447619Y-2654819D01*
X118447619Y-2654819D02*
X119066666Y-2654819D01*
X56766667Y-30533200D02*
X56909524Y-30580819D01*
X56909524Y-30580819D02*
X57147619Y-30580819D01*
X57147619Y-30580819D02*
X57242857Y-30533200D01*
X57242857Y-30533200D02*
X57290476Y-30485580D01*
X57290476Y-30485580D02*
X57338095Y-30390342D01*
X57338095Y-30390342D02*
X57338095Y-30295104D01*
X57338095Y-30295104D02*
X57290476Y-30199866D01*
X57290476Y-30199866D02*
X57242857Y-30152247D01*
X57242857Y-30152247D02*
X57147619Y-30104628D01*
X57147619Y-30104628D02*
X56957143Y-30057009D01*
X56957143Y-30057009D02*
X56861905Y-30009390D01*
X56861905Y-30009390D02*
X56814286Y-29961771D01*
X56814286Y-29961771D02*
X56766667Y-29866533D01*
X56766667Y-29866533D02*
X56766667Y-29771295D01*
X56766667Y-29771295D02*
X56814286Y-29676057D01*
X56814286Y-29676057D02*
X56861905Y-29628438D01*
X56861905Y-29628438D02*
X56957143Y-29580819D01*
X56957143Y-29580819D02*
X57195238Y-29580819D01*
X57195238Y-29580819D02*
X57338095Y-29628438D01*
X57671429Y-29580819D02*
X57909524Y-30580819D01*
X57909524Y-30580819D02*
X58100000Y-29866533D01*
X58100000Y-29866533D02*
X58290476Y-30580819D01*
X58290476Y-30580819D02*
X58528572Y-29580819D01*
X58814286Y-29580819D02*
X59433333Y-29580819D01*
X59433333Y-29580819D02*
X59100000Y-29961771D01*
X59100000Y-29961771D02*
X59242857Y-29961771D01*
X59242857Y-29961771D02*
X59338095Y-30009390D01*
X59338095Y-30009390D02*
X59385714Y-30057009D01*
X59385714Y-30057009D02*
X59433333Y-30152247D01*
X59433333Y-30152247D02*
X59433333Y-30390342D01*
X59433333Y-30390342D02*
X59385714Y-30485580D01*
X59385714Y-30485580D02*
X59338095Y-30533200D01*
X59338095Y-30533200D02*
X59242857Y-30580819D01*
X59242857Y-30580819D02*
X58957143Y-30580819D01*
X58957143Y-30580819D02*
X58861905Y-30533200D01*
X58861905Y-30533200D02*
X58814286Y-30485580D01*
X91886905Y-4454819D02*
X91886905Y-3454819D01*
X91886905Y-3454819D02*
X92125000Y-3454819D01*
X92125000Y-3454819D02*
X92267857Y-3502438D01*
X92267857Y-3502438D02*
X92363095Y-3597676D01*
X92363095Y-3597676D02*
X92410714Y-3692914D01*
X92410714Y-3692914D02*
X92458333Y-3883390D01*
X92458333Y-3883390D02*
X92458333Y-4026247D01*
X92458333Y-4026247D02*
X92410714Y-4216723D01*
X92410714Y-4216723D02*
X92363095Y-4311961D01*
X92363095Y-4311961D02*
X92267857Y-4407200D01*
X92267857Y-4407200D02*
X92125000Y-4454819D01*
X92125000Y-4454819D02*
X91886905Y-4454819D01*
X93363095Y-3454819D02*
X92886905Y-3454819D01*
X92886905Y-3454819D02*
X92839286Y-3931009D01*
X92839286Y-3931009D02*
X92886905Y-3883390D01*
X92886905Y-3883390D02*
X92982143Y-3835771D01*
X92982143Y-3835771D02*
X93220238Y-3835771D01*
X93220238Y-3835771D02*
X93315476Y-3883390D01*
X93315476Y-3883390D02*
X93363095Y-3931009D01*
X93363095Y-3931009D02*
X93410714Y-4026247D01*
X93410714Y-4026247D02*
X93410714Y-4264342D01*
X93410714Y-4264342D02*
X93363095Y-4359580D01*
X93363095Y-4359580D02*
X93315476Y-4407200D01*
X93315476Y-4407200D02*
X93220238Y-4454819D01*
X93220238Y-4454819D02*
X92982143Y-4454819D01*
X92982143Y-4454819D02*
X92886905Y-4407200D01*
X92886905Y-4407200D02*
X92839286Y-4359580D01*
X80364819Y-17704047D02*
X80364819Y-18180237D01*
X80364819Y-18180237D02*
X79364819Y-18180237D01*
X79841009Y-17370713D02*
X79841009Y-17037380D01*
X80364819Y-16894523D02*
X80364819Y-17370713D01*
X80364819Y-17370713D02*
X79364819Y-17370713D01*
X79364819Y-17370713D02*
X79364819Y-16894523D01*
X80364819Y-16465951D02*
X79364819Y-16465951D01*
X79364819Y-16465951D02*
X79364819Y-16227856D01*
X79364819Y-16227856D02*
X79412438Y-16084999D01*
X79412438Y-16084999D02*
X79507676Y-15989761D01*
X79507676Y-15989761D02*
X79602914Y-15942142D01*
X79602914Y-15942142D02*
X79793390Y-15894523D01*
X79793390Y-15894523D02*
X79936247Y-15894523D01*
X79936247Y-15894523D02*
X80126723Y-15942142D01*
X80126723Y-15942142D02*
X80221961Y-15989761D01*
X80221961Y-15989761D02*
X80317200Y-16084999D01*
X80317200Y-16084999D02*
X80364819Y-16227856D01*
X80364819Y-16227856D02*
X80364819Y-16465951D01*
X80364819Y-14942142D02*
X80364819Y-15513570D01*
X80364819Y-15227856D02*
X79364819Y-15227856D01*
X79364819Y-15227856D02*
X79507676Y-15323094D01*
X79507676Y-15323094D02*
X79602914Y-15418332D01*
X79602914Y-15418332D02*
X79650533Y-15513570D01*
X37716667Y-30533200D02*
X37859524Y-30580819D01*
X37859524Y-30580819D02*
X38097619Y-30580819D01*
X38097619Y-30580819D02*
X38192857Y-30533200D01*
X38192857Y-30533200D02*
X38240476Y-30485580D01*
X38240476Y-30485580D02*
X38288095Y-30390342D01*
X38288095Y-30390342D02*
X38288095Y-30295104D01*
X38288095Y-30295104D02*
X38240476Y-30199866D01*
X38240476Y-30199866D02*
X38192857Y-30152247D01*
X38192857Y-30152247D02*
X38097619Y-30104628D01*
X38097619Y-30104628D02*
X37907143Y-30057009D01*
X37907143Y-30057009D02*
X37811905Y-30009390D01*
X37811905Y-30009390D02*
X37764286Y-29961771D01*
X37764286Y-29961771D02*
X37716667Y-29866533D01*
X37716667Y-29866533D02*
X37716667Y-29771295D01*
X37716667Y-29771295D02*
X37764286Y-29676057D01*
X37764286Y-29676057D02*
X37811905Y-29628438D01*
X37811905Y-29628438D02*
X37907143Y-29580819D01*
X37907143Y-29580819D02*
X38145238Y-29580819D01*
X38145238Y-29580819D02*
X38288095Y-29628438D01*
X38621429Y-29580819D02*
X38859524Y-30580819D01*
X38859524Y-30580819D02*
X39050000Y-29866533D01*
X39050000Y-29866533D02*
X39240476Y-30580819D01*
X39240476Y-30580819D02*
X39478572Y-29580819D01*
X39811905Y-29676057D02*
X39859524Y-29628438D01*
X39859524Y-29628438D02*
X39954762Y-29580819D01*
X39954762Y-29580819D02*
X40192857Y-29580819D01*
X40192857Y-29580819D02*
X40288095Y-29628438D01*
X40288095Y-29628438D02*
X40335714Y-29676057D01*
X40335714Y-29676057D02*
X40383333Y-29771295D01*
X40383333Y-29771295D02*
X40383333Y-29866533D01*
X40383333Y-29866533D02*
X40335714Y-30009390D01*
X40335714Y-30009390D02*
X39764286Y-30580819D01*
X39764286Y-30580819D02*
X40383333Y-30580819D01*
X91861905Y-8454819D02*
X91861905Y-7454819D01*
X91861905Y-7454819D02*
X92100000Y-7454819D01*
X92100000Y-7454819D02*
X92242857Y-7502438D01*
X92242857Y-7502438D02*
X92338095Y-7597676D01*
X92338095Y-7597676D02*
X92385714Y-7692914D01*
X92385714Y-7692914D02*
X92433333Y-7883390D01*
X92433333Y-7883390D02*
X92433333Y-8026247D01*
X92433333Y-8026247D02*
X92385714Y-8216723D01*
X92385714Y-8216723D02*
X92338095Y-8311961D01*
X92338095Y-8311961D02*
X92242857Y-8407200D01*
X92242857Y-8407200D02*
X92100000Y-8454819D01*
X92100000Y-8454819D02*
X91861905Y-8454819D01*
X93290476Y-7788152D02*
X93290476Y-8454819D01*
X93052381Y-7407200D02*
X92814286Y-8121485D01*
X92814286Y-8121485D02*
X93433333Y-8121485D01*
D13*
%TO.C,C1*%
X84670000Y-15370000D02*
X92830000Y-15370000D01*
X84670000Y-15410000D02*
X92830000Y-15410000D01*
X84670000Y-15450000D02*
X92830000Y-15450000D01*
X84671000Y-15330000D02*
X92829000Y-15330000D01*
X84673000Y-15290000D02*
X92827000Y-15290000D01*
X84674000Y-15250000D02*
X92826000Y-15250000D01*
X84676000Y-15210000D02*
X92824000Y-15210000D01*
X84679000Y-15170000D02*
X92821000Y-15170000D01*
X84682000Y-15130000D02*
X92818000Y-15130000D01*
X84685000Y-15090000D02*
X92815000Y-15090000D01*
X84689000Y-15050000D02*
X92811000Y-15050000D01*
X84693000Y-15010000D02*
X92807000Y-15010000D01*
X84698000Y-14970000D02*
X92802000Y-14970000D01*
X84702000Y-14930000D02*
X92798000Y-14930000D01*
X84708000Y-14890000D02*
X92792000Y-14890000D01*
X84713000Y-14850000D02*
X92787000Y-14850000D01*
X84720000Y-14810000D02*
X92780000Y-14810000D01*
X84726000Y-14770000D02*
X92774000Y-14770000D01*
X84733000Y-14729000D02*
X87710000Y-14729000D01*
X84740000Y-14689000D02*
X87710000Y-14689000D01*
X84748000Y-14649000D02*
X87710000Y-14649000D01*
X84756000Y-14609000D02*
X87710000Y-14609000D01*
X84765000Y-14569000D02*
X87710000Y-14569000D01*
X84774000Y-14529000D02*
X87710000Y-14529000D01*
X84783000Y-14489000D02*
X87710000Y-14489000D01*
X84793000Y-14449000D02*
X87710000Y-14449000D01*
X84803000Y-14409000D02*
X87710000Y-14409000D01*
X84814000Y-14369000D02*
X87710000Y-14369000D01*
X84825000Y-14329000D02*
X87710000Y-14329000D01*
X84836000Y-14289000D02*
X87710000Y-14289000D01*
X84848000Y-14249000D02*
X87710000Y-14249000D01*
X84861000Y-14209000D02*
X87710000Y-14209000D01*
X84873000Y-14169000D02*
X87710000Y-14169000D01*
X84887000Y-14129000D02*
X87710000Y-14129000D01*
X84900000Y-14089000D02*
X87710000Y-14089000D01*
X84915000Y-14049000D02*
X87710000Y-14049000D01*
X84929000Y-14009000D02*
X87710000Y-14009000D01*
X84945000Y-13969000D02*
X87710000Y-13969000D01*
X84960000Y-13929000D02*
X87710000Y-13929000D01*
X84976000Y-13889000D02*
X87710000Y-13889000D01*
X84993000Y-13849000D02*
X87710000Y-13849000D01*
X85010000Y-13809000D02*
X87710000Y-13809000D01*
X85028000Y-13769000D02*
X87710000Y-13769000D01*
X85046000Y-13729000D02*
X87710000Y-13729000D01*
X85064000Y-13689000D02*
X87710000Y-13689000D01*
X85084000Y-13649000D02*
X87710000Y-13649000D01*
X85103000Y-13609000D02*
X87710000Y-13609000D01*
X85123000Y-13569000D02*
X87710000Y-13569000D01*
X85144000Y-13529000D02*
X87710000Y-13529000D01*
X85166000Y-13489000D02*
X87710000Y-13489000D01*
X85188000Y-13449000D02*
X87710000Y-13449000D01*
X85210000Y-13409000D02*
X87710000Y-13409000D01*
X85233000Y-13369000D02*
X87710000Y-13369000D01*
X85257000Y-13329000D02*
X87710000Y-13329000D01*
X85281000Y-13289000D02*
X87710000Y-13289000D01*
X85306000Y-13249000D02*
X87710000Y-13249000D01*
X85332000Y-13209000D02*
X87710000Y-13209000D01*
X85358000Y-13169000D02*
X87710000Y-13169000D01*
X85385000Y-13129000D02*
X87710000Y-13129000D01*
X85412000Y-13089000D02*
X87710000Y-13089000D01*
X85441000Y-13049000D02*
X87710000Y-13049000D01*
X85470000Y-13009000D02*
X87710000Y-13009000D01*
X85500000Y-12969000D02*
X87710000Y-12969000D01*
X85530000Y-12929000D02*
X87710000Y-12929000D01*
X85561000Y-12889000D02*
X87710000Y-12889000D01*
X85594000Y-12849000D02*
X87710000Y-12849000D01*
X85626000Y-12809000D02*
X87710000Y-12809000D01*
X85660000Y-12769000D02*
X87710000Y-12769000D01*
X85695000Y-12729000D02*
X87710000Y-12729000D01*
X85731000Y-12689000D02*
X87710000Y-12689000D01*
X85767000Y-12649000D02*
X91733000Y-12649000D01*
X85805000Y-12609000D02*
X91695000Y-12609000D01*
X85843000Y-12569000D02*
X91657000Y-12569000D01*
X85883000Y-12529000D02*
X91617000Y-12529000D01*
X85924000Y-12489000D02*
X91576000Y-12489000D01*
X85966000Y-12449000D02*
X91534000Y-12449000D01*
X86009000Y-12409000D02*
X91491000Y-12409000D01*
X86035000Y-19459698D02*
X86835000Y-19459698D01*
X86053000Y-12369000D02*
X91447000Y-12369000D01*
X86099000Y-12329000D02*
X91401000Y-12329000D01*
X86146000Y-12289000D02*
X91354000Y-12289000D01*
X86194000Y-12249000D02*
X91306000Y-12249000D01*
X86245000Y-12209000D02*
X91255000Y-12209000D01*
X86296000Y-12169000D02*
X91204000Y-12169000D01*
X86350000Y-12129000D02*
X91150000Y-12129000D01*
X86405000Y-12089000D02*
X91095000Y-12089000D01*
X86435000Y-19859698D02*
X86435000Y-19059698D01*
X86463000Y-12049000D02*
X91037000Y-12049000D01*
X86522000Y-12009000D02*
X90978000Y-12009000D01*
X86584000Y-11969000D02*
X90916000Y-11969000D01*
X86648000Y-11929000D02*
X90852000Y-11929000D01*
X86716000Y-11889000D02*
X90784000Y-11889000D01*
X86786000Y-11849000D02*
X90714000Y-11849000D01*
X86860000Y-11809000D02*
X90640000Y-11809000D01*
X86937000Y-11769000D02*
X90563000Y-11769000D01*
X87019000Y-11729000D02*
X90481000Y-11729000D01*
X87105000Y-11689000D02*
X90395000Y-11689000D01*
X87198000Y-11649000D02*
X90302000Y-11649000D01*
X87297000Y-11609000D02*
X90203000Y-11609000D01*
X87404000Y-11569000D02*
X90096000Y-11569000D01*
X87521000Y-11529000D02*
X89979000Y-11529000D01*
X87652000Y-11489000D02*
X89848000Y-11489000D01*
X87802000Y-11449000D02*
X89698000Y-11449000D01*
X87982000Y-11409000D02*
X89518000Y-11409000D01*
X88217000Y-11369000D02*
X89283000Y-11369000D01*
X89790000Y-12689000D02*
X91769000Y-12689000D01*
X89790000Y-12729000D02*
X91805000Y-12729000D01*
X89790000Y-12769000D02*
X91840000Y-12769000D01*
X89790000Y-12809000D02*
X91874000Y-12809000D01*
X89790000Y-12849000D02*
X91906000Y-12849000D01*
X89790000Y-12889000D02*
X91939000Y-12889000D01*
X89790000Y-12929000D02*
X91970000Y-12929000D01*
X89790000Y-12969000D02*
X92000000Y-12969000D01*
X89790000Y-13009000D02*
X92030000Y-13009000D01*
X89790000Y-13049000D02*
X92059000Y-13049000D01*
X89790000Y-13089000D02*
X92088000Y-13089000D01*
X89790000Y-13129000D02*
X92115000Y-13129000D01*
X89790000Y-13169000D02*
X92142000Y-13169000D01*
X89790000Y-13209000D02*
X92168000Y-13209000D01*
X89790000Y-13249000D02*
X92194000Y-13249000D01*
X89790000Y-13289000D02*
X92219000Y-13289000D01*
X89790000Y-13329000D02*
X92243000Y-13329000D01*
X89790000Y-13369000D02*
X92267000Y-13369000D01*
X89790000Y-13409000D02*
X92290000Y-13409000D01*
X89790000Y-13449000D02*
X92312000Y-13449000D01*
X89790000Y-13489000D02*
X92334000Y-13489000D01*
X89790000Y-13529000D02*
X92356000Y-13529000D01*
X89790000Y-13569000D02*
X92377000Y-13569000D01*
X89790000Y-13609000D02*
X92397000Y-13609000D01*
X89790000Y-13649000D02*
X92416000Y-13649000D01*
X89790000Y-13689000D02*
X92436000Y-13689000D01*
X89790000Y-13729000D02*
X92454000Y-13729000D01*
X89790000Y-13769000D02*
X92472000Y-13769000D01*
X89790000Y-13809000D02*
X92490000Y-13809000D01*
X89790000Y-13849000D02*
X92507000Y-13849000D01*
X89790000Y-13889000D02*
X92524000Y-13889000D01*
X89790000Y-13929000D02*
X92540000Y-13929000D01*
X89790000Y-13969000D02*
X92555000Y-13969000D01*
X89790000Y-14009000D02*
X92571000Y-14009000D01*
X89790000Y-14049000D02*
X92585000Y-14049000D01*
X89790000Y-14089000D02*
X92600000Y-14089000D01*
X89790000Y-14129000D02*
X92613000Y-14129000D01*
X89790000Y-14169000D02*
X92627000Y-14169000D01*
X89790000Y-14209000D02*
X92639000Y-14209000D01*
X89790000Y-14249000D02*
X92652000Y-14249000D01*
X89790000Y-14289000D02*
X92664000Y-14289000D01*
X89790000Y-14329000D02*
X92675000Y-14329000D01*
X89790000Y-14369000D02*
X92686000Y-14369000D01*
X89790000Y-14409000D02*
X92697000Y-14409000D01*
X89790000Y-14449000D02*
X92707000Y-14449000D01*
X89790000Y-14489000D02*
X92717000Y-14489000D01*
X89790000Y-14529000D02*
X92726000Y-14529000D01*
X89790000Y-14569000D02*
X92735000Y-14569000D01*
X89790000Y-14609000D02*
X92744000Y-14609000D01*
X89790000Y-14649000D02*
X92752000Y-14649000D01*
X89790000Y-14689000D02*
X92760000Y-14689000D01*
X89790000Y-14729000D02*
X92767000Y-14729000D01*
X92870000Y-15450000D02*
G75*
G02*
X84630000Y-15450000I-4120000J0D01*
G01*
X84630000Y-15450000D02*
G75*
G02*
X92870000Y-15450000I4120000J0D01*
G01*
%TO.C,F1*%
X120430000Y-680000D02*
X120430000Y-5920000D01*
X120430000Y-680000D02*
X131170000Y-680000D01*
X120430000Y-5920000D02*
X131170000Y-5920000D01*
X131170000Y-680000D02*
X131170000Y-5920000D01*
%TO.C,C3*%
X3960000Y-18818349D02*
X983000Y-18818349D01*
X3960000Y-18858349D02*
X990000Y-18858349D01*
X3960000Y-18898349D02*
X998000Y-18898349D01*
X3960000Y-18938349D02*
X1006000Y-18938349D01*
X3960000Y-18978349D02*
X1015000Y-18978349D01*
X3960000Y-19018349D02*
X1024000Y-19018349D01*
X3960000Y-19058349D02*
X1033000Y-19058349D01*
X3960000Y-19098349D02*
X1043000Y-19098349D01*
X3960000Y-19138349D02*
X1053000Y-19138349D01*
X3960000Y-19178349D02*
X1064000Y-19178349D01*
X3960000Y-19218349D02*
X1075000Y-19218349D01*
X3960000Y-19258349D02*
X1086000Y-19258349D01*
X3960000Y-19298349D02*
X1098000Y-19298349D01*
X3960000Y-19338349D02*
X1111000Y-19338349D01*
X3960000Y-19378349D02*
X1123000Y-19378349D01*
X3960000Y-19418349D02*
X1137000Y-19418349D01*
X3960000Y-19458349D02*
X1150000Y-19458349D01*
X3960000Y-19498349D02*
X1165000Y-19498349D01*
X3960000Y-19538349D02*
X1179000Y-19538349D01*
X3960000Y-19578349D02*
X1195000Y-19578349D01*
X3960000Y-19618349D02*
X1210000Y-19618349D01*
X3960000Y-19658349D02*
X1226000Y-19658349D01*
X3960000Y-19698349D02*
X1243000Y-19698349D01*
X3960000Y-19738349D02*
X1260000Y-19738349D01*
X3960000Y-19778349D02*
X1278000Y-19778349D01*
X3960000Y-19818349D02*
X1296000Y-19818349D01*
X3960000Y-19858349D02*
X1314000Y-19858349D01*
X3960000Y-19898349D02*
X1334000Y-19898349D01*
X3960000Y-19938349D02*
X1353000Y-19938349D01*
X3960000Y-19978349D02*
X1373000Y-19978349D01*
X3960000Y-20018349D02*
X1394000Y-20018349D01*
X3960000Y-20058349D02*
X1416000Y-20058349D01*
X3960000Y-20098349D02*
X1438000Y-20098349D01*
X3960000Y-20138349D02*
X1460000Y-20138349D01*
X3960000Y-20178349D02*
X1483000Y-20178349D01*
X3960000Y-20218349D02*
X1507000Y-20218349D01*
X3960000Y-20258349D02*
X1531000Y-20258349D01*
X3960000Y-20298349D02*
X1556000Y-20298349D01*
X3960000Y-20338349D02*
X1582000Y-20338349D01*
X3960000Y-20378349D02*
X1608000Y-20378349D01*
X3960000Y-20418349D02*
X1635000Y-20418349D01*
X3960000Y-20458349D02*
X1662000Y-20458349D01*
X3960000Y-20498349D02*
X1691000Y-20498349D01*
X3960000Y-20538349D02*
X1720000Y-20538349D01*
X3960000Y-20578349D02*
X1750000Y-20578349D01*
X3960000Y-20618349D02*
X1780000Y-20618349D01*
X3960000Y-20658349D02*
X1811000Y-20658349D01*
X3960000Y-20698349D02*
X1844000Y-20698349D01*
X3960000Y-20738349D02*
X1876000Y-20738349D01*
X3960000Y-20778349D02*
X1910000Y-20778349D01*
X3960000Y-20818349D02*
X1945000Y-20818349D01*
X3960000Y-20858349D02*
X1981000Y-20858349D01*
X5533000Y-22178349D02*
X4467000Y-22178349D01*
X5768000Y-22138349D02*
X4232000Y-22138349D01*
X5948000Y-22098349D02*
X4052000Y-22098349D01*
X6098000Y-22058349D02*
X3902000Y-22058349D01*
X6229000Y-22018349D02*
X3771000Y-22018349D01*
X6346000Y-21978349D02*
X3654000Y-21978349D01*
X6453000Y-21938349D02*
X3547000Y-21938349D01*
X6552000Y-21898349D02*
X3448000Y-21898349D01*
X6645000Y-21858349D02*
X3355000Y-21858349D01*
X6731000Y-21818349D02*
X3269000Y-21818349D01*
X6813000Y-21778349D02*
X3187000Y-21778349D01*
X6890000Y-21738349D02*
X3110000Y-21738349D01*
X6964000Y-21698349D02*
X3036000Y-21698349D01*
X7034000Y-21658349D02*
X2966000Y-21658349D01*
X7102000Y-21618349D02*
X2898000Y-21618349D01*
X7166000Y-21578349D02*
X2834000Y-21578349D01*
X7228000Y-21538349D02*
X2772000Y-21538349D01*
X7287000Y-21498349D02*
X2713000Y-21498349D01*
X7315000Y-13687651D02*
X7315000Y-14487651D01*
X7345000Y-21458349D02*
X2655000Y-21458349D01*
X7400000Y-21418349D02*
X2600000Y-21418349D01*
X7454000Y-21378349D02*
X2546000Y-21378349D01*
X7505000Y-21338349D02*
X2495000Y-21338349D01*
X7556000Y-21298349D02*
X2444000Y-21298349D01*
X7604000Y-21258349D02*
X2396000Y-21258349D01*
X7651000Y-21218349D02*
X2349000Y-21218349D01*
X7697000Y-21178349D02*
X2303000Y-21178349D01*
X7715000Y-14087651D02*
X6915000Y-14087651D01*
X7741000Y-21138349D02*
X2259000Y-21138349D01*
X7784000Y-21098349D02*
X2216000Y-21098349D01*
X7826000Y-21058349D02*
X2174000Y-21058349D01*
X7867000Y-21018349D02*
X2133000Y-21018349D01*
X7907000Y-20978349D02*
X2093000Y-20978349D01*
X7945000Y-20938349D02*
X2055000Y-20938349D01*
X7983000Y-20898349D02*
X2017000Y-20898349D01*
X8019000Y-20858349D02*
X6040000Y-20858349D01*
X8055000Y-20818349D02*
X6040000Y-20818349D01*
X8090000Y-20778349D02*
X6040000Y-20778349D01*
X8124000Y-20738349D02*
X6040000Y-20738349D01*
X8156000Y-20698349D02*
X6040000Y-20698349D01*
X8189000Y-20658349D02*
X6040000Y-20658349D01*
X8220000Y-20618349D02*
X6040000Y-20618349D01*
X8250000Y-20578349D02*
X6040000Y-20578349D01*
X8280000Y-20538349D02*
X6040000Y-20538349D01*
X8309000Y-20498349D02*
X6040000Y-20498349D01*
X8338000Y-20458349D02*
X6040000Y-20458349D01*
X8365000Y-20418349D02*
X6040000Y-20418349D01*
X8392000Y-20378349D02*
X6040000Y-20378349D01*
X8418000Y-20338349D02*
X6040000Y-20338349D01*
X8444000Y-20298349D02*
X6040000Y-20298349D01*
X8469000Y-20258349D02*
X6040000Y-20258349D01*
X8493000Y-20218349D02*
X6040000Y-20218349D01*
X8517000Y-20178349D02*
X6040000Y-20178349D01*
X8540000Y-20138349D02*
X6040000Y-20138349D01*
X8562000Y-20098349D02*
X6040000Y-20098349D01*
X8584000Y-20058349D02*
X6040000Y-20058349D01*
X8606000Y-20018349D02*
X6040000Y-20018349D01*
X8627000Y-19978349D02*
X6040000Y-19978349D01*
X8647000Y-19938349D02*
X6040000Y-19938349D01*
X8666000Y-19898349D02*
X6040000Y-19898349D01*
X8686000Y-19858349D02*
X6040000Y-19858349D01*
X8704000Y-19818349D02*
X6040000Y-19818349D01*
X8722000Y-19778349D02*
X6040000Y-19778349D01*
X8740000Y-19738349D02*
X6040000Y-19738349D01*
X8757000Y-19698349D02*
X6040000Y-19698349D01*
X8774000Y-19658349D02*
X6040000Y-19658349D01*
X8790000Y-19618349D02*
X6040000Y-19618349D01*
X8805000Y-19578349D02*
X6040000Y-19578349D01*
X8821000Y-19538349D02*
X6040000Y-19538349D01*
X8835000Y-19498349D02*
X6040000Y-19498349D01*
X8850000Y-19458349D02*
X6040000Y-19458349D01*
X8863000Y-19418349D02*
X6040000Y-19418349D01*
X8877000Y-19378349D02*
X6040000Y-19378349D01*
X8889000Y-19338349D02*
X6040000Y-19338349D01*
X8902000Y-19298349D02*
X6040000Y-19298349D01*
X8914000Y-19258349D02*
X6040000Y-19258349D01*
X8925000Y-19218349D02*
X6040000Y-19218349D01*
X8936000Y-19178349D02*
X6040000Y-19178349D01*
X8947000Y-19138349D02*
X6040000Y-19138349D01*
X8957000Y-19098349D02*
X6040000Y-19098349D01*
X8967000Y-19058349D02*
X6040000Y-19058349D01*
X8976000Y-19018349D02*
X6040000Y-19018349D01*
X8985000Y-18978349D02*
X6040000Y-18978349D01*
X8994000Y-18938349D02*
X6040000Y-18938349D01*
X9002000Y-18898349D02*
X6040000Y-18898349D01*
X9010000Y-18858349D02*
X6040000Y-18858349D01*
X9017000Y-18818349D02*
X6040000Y-18818349D01*
X9024000Y-18777349D02*
X976000Y-18777349D01*
X9030000Y-18737349D02*
X970000Y-18737349D01*
X9037000Y-18697349D02*
X963000Y-18697349D01*
X9042000Y-18657349D02*
X958000Y-18657349D01*
X9048000Y-18617349D02*
X952000Y-18617349D01*
X9052000Y-18577349D02*
X948000Y-18577349D01*
X9057000Y-18537349D02*
X943000Y-18537349D01*
X9061000Y-18497349D02*
X939000Y-18497349D01*
X9065000Y-18457349D02*
X935000Y-18457349D01*
X9068000Y-18417349D02*
X932000Y-18417349D01*
X9071000Y-18377349D02*
X929000Y-18377349D01*
X9074000Y-18337349D02*
X926000Y-18337349D01*
X9076000Y-18297349D02*
X924000Y-18297349D01*
X9077000Y-18257349D02*
X923000Y-18257349D01*
X9079000Y-18217349D02*
X921000Y-18217349D01*
X9080000Y-18097349D02*
X920000Y-18097349D01*
X9080000Y-18137349D02*
X920000Y-18137349D01*
X9080000Y-18177349D02*
X920000Y-18177349D01*
X9120000Y-18097349D02*
G75*
G02*
X880000Y-18097349I-4120000J0D01*
G01*
X880000Y-18097349D02*
G75*
G02*
X9120000Y-18097349I4120000J0D01*
G01*
%TO.C,SW4*%
X70165000Y-31015000D02*
X84135000Y-31015000D01*
X70165000Y-44985000D02*
X70165000Y-31015000D01*
X84135000Y-31015000D02*
X84135000Y-44985000D01*
X84135000Y-44985000D02*
X70165000Y-44985000D01*
%TO.C,J8*%
X10200000Y-9465000D02*
X10200000Y-10205000D01*
X10200000Y-10205000D02*
X10700000Y-10205000D01*
X10440000Y-44000D02*
X10440000Y-9965000D01*
X10440000Y-44000D02*
X30561000Y-44000D01*
X10440000Y-3004000D02*
X30561000Y-3004000D01*
X10440000Y-7905000D02*
X30561000Y-7905000D01*
X10440000Y-9405000D02*
X30561000Y-9405000D01*
X10440000Y-9965000D02*
X30561000Y-9965000D01*
X16773000Y-6328000D02*
X16726000Y-6374000D01*
X16966000Y-6544000D02*
X16931000Y-6579000D01*
X19070000Y-4030000D02*
X19035000Y-4066000D01*
X19275000Y-4236000D02*
X19228000Y-4282000D01*
X21773000Y-6328000D02*
X21726000Y-6374000D01*
X21966000Y-6544000D02*
X21931000Y-6579000D01*
X24070000Y-4030000D02*
X24035000Y-4066000D01*
X24275000Y-4236000D02*
X24228000Y-4282000D01*
X26773000Y-6328000D02*
X26726000Y-6374000D01*
X26966000Y-6544000D02*
X26931000Y-6579000D01*
X29070000Y-4030000D02*
X29035000Y-4066000D01*
X29275000Y-4236000D02*
X29228000Y-4282000D01*
X30561000Y-44000D02*
X30561000Y-9965000D01*
X11464574Y-5988042D02*
G75*
G02*
X11465001Y-4621001I1535419J683041D01*
G01*
X12316958Y-3769574D02*
G75*
G02*
X13683999Y-3770001I683041J-1535419D01*
G01*
X13028805Y-6985252D02*
G75*
G02*
X12316000Y-6839999I-28806J1680253D01*
G01*
X13683318Y-6839755D02*
G75*
G02*
X13000000Y-6984999I-683318J1534755D01*
G01*
X14535426Y-4621958D02*
G75*
G02*
X14535000Y-5989000I-1535426J-683042D01*
G01*
X19680000Y-5305000D02*
G75*
G02*
X16320000Y-5305000I-1680000J0D01*
G01*
X16320000Y-5305000D02*
G75*
G02*
X19680000Y-5305000I1680000J0D01*
G01*
X24680000Y-5305000D02*
G75*
G02*
X21320000Y-5305000I-1680000J0D01*
G01*
X21320000Y-5305000D02*
G75*
G02*
X24680000Y-5305000I1680000J0D01*
G01*
X29680000Y-5305000D02*
G75*
G02*
X26320000Y-5305000I-1680000J0D01*
G01*
X26320000Y-5305000D02*
G75*
G02*
X29680000Y-5305000I1680000J0D01*
G01*
%TO.C,J3*%
X108970000Y-18670000D02*
X108970000Y-21330000D01*
X126810000Y-18670000D02*
X108970000Y-18670000D01*
X126810000Y-18670000D02*
X126810000Y-21330000D01*
X126810000Y-21330000D02*
X108970000Y-21330000D01*
X129410000Y-20000000D02*
X129410000Y-21330000D01*
X129410000Y-21330000D02*
X128080000Y-21330000D01*
%TO.C,J1*%
X125150000Y-17007500D02*
X125150000Y-18057500D01*
X125350000Y-8657500D02*
X127250000Y-8657500D01*
X125350000Y-11357500D02*
X125350000Y-8657500D01*
X125350000Y-17857500D02*
X125350000Y-15257500D01*
X126200000Y-18057500D02*
X125150000Y-18057500D01*
X131250000Y-8657500D02*
X140050000Y-8657500D01*
X140050000Y-8657500D02*
X140050000Y-17857500D01*
X140050000Y-17857500D02*
X125350000Y-17857500D01*
%TO.C,SW1*%
X13015000Y-31015000D02*
X26985000Y-31015000D01*
X13015000Y-44985000D02*
X13015000Y-31015000D01*
X26985000Y-31015000D02*
X26985000Y-44985000D01*
X26985000Y-44985000D02*
X13015000Y-44985000D01*
%TO.C,D1*%
X107120000Y-12780000D02*
X112560000Y-12780000D01*
X107120000Y-12910000D02*
X107120000Y-12780000D01*
X107120000Y-15590000D02*
X107120000Y-15720000D01*
X107120000Y-15720000D02*
X112560000Y-15720000D01*
X107900000Y-12780000D02*
X107900000Y-15720000D01*
X108020000Y-12780000D02*
X108020000Y-15720000D01*
X108140000Y-12780000D02*
X108140000Y-15720000D01*
X112560000Y-12780000D02*
X112560000Y-12910000D01*
X112560000Y-15720000D02*
X112560000Y-15590000D01*
%TO.C,A2*%
X96040000Y-22600000D02*
X96040000Y-40640000D01*
X96040000Y-40640000D02*
X98710000Y-40640000D01*
X98710000Y-25270000D02*
X98710000Y-22600000D01*
X98710000Y-25270000D02*
X136810000Y-25270000D01*
X98710000Y-37970000D02*
X98710000Y-40640000D01*
X101250000Y-37970000D02*
X98710000Y-37970000D01*
X101250000Y-37970000D02*
X101250000Y-40640000D01*
X101250000Y-37970000D02*
X136810000Y-37970000D01*
X101250000Y-40640000D02*
X139480000Y-40640000D01*
X131600000Y-27680000D02*
X142020000Y-27680000D01*
X131600000Y-35560000D02*
X131600000Y-27680000D01*
X136810000Y-25270000D02*
X136810000Y-22600000D01*
X136810000Y-37970000D02*
X136810000Y-40640000D01*
X139480000Y-22600000D02*
X96040000Y-22600000D01*
X139480000Y-22600000D02*
X139480000Y-27680000D01*
X139480000Y-40640000D02*
X139480000Y-35560000D01*
X142020000Y-27680000D02*
X142020000Y-35560000D01*
X142020000Y-35560000D02*
X131600000Y-35560000D01*
%TO.C,U2*%
X9840000Y-12880000D02*
X9840000Y-28120000D01*
X9840000Y-28120000D02*
X30160000Y-28120000D01*
X30160000Y-12880000D02*
X9840000Y-12880000D01*
X30160000Y-28120000D02*
X30160000Y-12880000D01*
%TO.C,D3*%
X120080000Y-10090000D02*
X120210000Y-10090000D01*
X120080000Y-14510000D02*
X123020000Y-14510000D01*
X120080000Y-14630000D02*
X123020000Y-14630000D01*
X120080000Y-14750000D02*
X123020000Y-14750000D01*
X120080000Y-15530000D02*
X120080000Y-10090000D01*
X120210000Y-15530000D02*
X120080000Y-15530000D01*
X122890000Y-15530000D02*
X123020000Y-15530000D01*
X123020000Y-10090000D02*
X122890000Y-10090000D01*
X123020000Y-15530000D02*
X123020000Y-10090000D01*
D10*
%TO.C,J2*%
X98750000Y-3250000D02*
X98750000Y-12250000D01*
X98750000Y-3250000D02*
X119250000Y-3250000D01*
X98750000Y-12250000D02*
X106750000Y-12250000D01*
X100000000Y-4750000D02*
X100000000Y-10750000D01*
X100000000Y-4750000D02*
X118000000Y-4750000D01*
X100000000Y-10750000D02*
X106750000Y-10750000D01*
X106750000Y-12250000D02*
X106750000Y-10750000D01*
X111250000Y-12250000D02*
X111250000Y-10750000D01*
X118000000Y-4750000D02*
X118000000Y-10750000D01*
X118000000Y-10750000D02*
X111250000Y-10750000D01*
X119250000Y-3250000D02*
X119250000Y-12250000D01*
X119250000Y-12250000D02*
X111250000Y-12250000D01*
D14*
X105190000Y-14100000D02*
X102650000Y-14100000D01*
X103920000Y-12830000D01*
X105190000Y-14100000D01*
G36*
X105190000Y-14100000D02*
G01*
X102650000Y-14100000D01*
X103920000Y-12830000D01*
X105190000Y-14100000D01*
G37*
D13*
%TO.C,SW3*%
X51115000Y-31015000D02*
X65085000Y-31015000D01*
X51115000Y-44985000D02*
X51115000Y-31015000D01*
X65085000Y-31015000D02*
X65085000Y-44985000D01*
X65085000Y-44985000D02*
X51115000Y-44985000D01*
%TO.C,D5*%
X90280000Y-2530000D02*
X90280000Y-2660000D01*
X90280000Y-5470000D02*
X90280000Y-5340000D01*
X94700000Y-5470000D02*
X94700000Y-2530000D01*
X94820000Y-5470000D02*
X94820000Y-2530000D01*
X94940000Y-5470000D02*
X94940000Y-2530000D01*
X95720000Y-2530000D02*
X90280000Y-2530000D01*
X95720000Y-2660000D02*
X95720000Y-2530000D01*
X95720000Y-5340000D02*
X95720000Y-5470000D01*
X95720000Y-5470000D02*
X90280000Y-5470000D01*
%TO.C,LED1*%
X74870000Y-14025000D02*
X74405000Y-14025000D01*
X77495000Y-14025000D02*
X77030000Y-14025000D01*
X74869173Y-19372814D02*
G75*
G02*
X74405170Y-14025001I1080827J2787814D01*
G01*
X74869571Y-18839479D02*
G75*
G02*
X74870000Y-14330316I1080429J2254479D01*
G01*
X77030000Y-14330317D02*
G75*
G02*
X77030428Y-18839478I-1080000J-2254683D01*
G01*
X77494830Y-14025001D02*
G75*
G02*
X77030827Y-19372814I-1544830J-2559999D01*
G01*
%TO.C,SW2*%
X32065000Y-31015000D02*
X46035000Y-31015000D01*
X32065000Y-44985000D02*
X32065000Y-31015000D01*
X46035000Y-31015000D02*
X46035000Y-44985000D01*
X46035000Y-44985000D02*
X32065000Y-44985000D01*
%TO.C,D4*%
X90280000Y-6530000D02*
X90280000Y-6660000D01*
X90280000Y-9470000D02*
X90280000Y-9340000D01*
X94700000Y-9470000D02*
X94700000Y-6530000D01*
X94820000Y-9470000D02*
X94820000Y-6530000D01*
X94940000Y-9470000D02*
X94940000Y-6530000D01*
X95720000Y-6530000D02*
X90280000Y-6530000D01*
X95720000Y-6660000D02*
X95720000Y-6530000D01*
X95720000Y-9340000D02*
X95720000Y-9470000D01*
X95720000Y-9470000D02*
X90280000Y-9470000D01*
%TD*%
M02*
