M48
; DRILL file {KiCad 8.0.1} date 2024-04-17T23:07:59-0400
; FORMAT={-:-/ absolute / metric / decimal}
; #@! TF.CreationDate,2024-04-17T23:07:59-04:00
; #@! TF.GenerationSoftware,Kicad,Pcbnew,8.0.1
; #@! TF.FileFunction,Plated,1,2,PTH
FMAT,2
METRIC
; #@! TA.AperFunction,Plated,PTH,ViaDrill
T1C0.400
; #@! TA.AperFunction,Plated,PTH,ComponentDrill
T2C0.800
; #@! TA.AperFunction,Plated,PTH,ComponentDrill
T3C0.900
; #@! TA.AperFunction,Plated,PTH,ComponentDrill
T4C1.000
; #@! TA.AperFunction,Plated,PTH,ComponentDrill
T5C1.100
; #@! TA.AperFunction,Plated,PTH,ComponentDrill
T6C1.300
; #@! TA.AperFunction,Plated,PTH,ComponentDrill
T7C1.500
; #@! TA.AperFunction,Plated,PTH,ComponentDrill
T8C3.200
%
G90
G05
T1
X15.6Y-3.6
X25.4Y-3.6
X29.0Y-18.1
X34.6Y-25.0
X85.7Y-27.6
X86.1Y-34.05
X86.1Y-35.8
X86.15Y-32.05
X86.9Y-27.5
X87.05Y-36.45
X87.95Y-32.05
X87.95Y-34.05
X88.0Y-27.6
X88.05Y-35.85
X95.8Y-15.65
X96.0Y-16.8
X97.15Y-17.0
X97.8Y-13.7
X99.0Y-15.1
X99.1Y-13.7
X106.7Y-20.55
X107.6Y-19.4
X108.5Y-21.05
X109.75Y-31.0
X110.25Y-29.0
X110.3Y-30.05
X110.3Y-35.25
X110.35Y-32.0
X110.35Y-33.1
X110.4Y-34.2
X113.65Y-35.3
X113.75Y-29.0
X113.75Y-32.05
X113.8Y-33.1
X113.85Y-31.0
X113.85Y-34.25
X114.25Y-30.0
T2
X5.0Y-16.347
X5.0Y-19.847
X88.75Y-13.7
X88.75Y-17.2
T3
X75.95Y-14.68
X75.95Y-15.95
X75.95Y-17.22
X75.95Y-18.49
T4
X11.11Y-14.15
X11.11Y-21.77
X11.11Y-24.31
X11.11Y-26.85
X13.65Y-14.15
X13.65Y-26.85
X16.19Y-14.15
X16.19Y-26.85
X18.73Y-14.15
X18.73Y-26.85
X21.27Y-14.15
X21.27Y-26.85
X23.81Y-14.15
X23.81Y-26.85
X26.35Y-14.15
X26.35Y-26.85
X28.89Y-14.15
X28.89Y-26.85
X99.98Y-24.0
X99.98Y-39.24
X102.52Y-24.0
X102.52Y-39.24
X103.92Y-6.48
X103.92Y-9.02
X105.06Y-24.0
X105.06Y-39.24
X106.46Y-6.48
X106.46Y-9.02
X107.6Y-24.0
X107.6Y-39.24
X109.0Y-6.48
X109.0Y-9.02
X110.14Y-24.0
X110.14Y-39.24
X110.3Y-20.0
X111.54Y-6.48
X111.54Y-9.02
X112.68Y-24.0
X112.68Y-39.24
X112.84Y-20.0
X114.08Y-6.48
X114.08Y-9.02
X115.22Y-24.0
X115.22Y-39.24
X115.38Y-20.0
X117.76Y-24.0
X117.76Y-39.24
X117.92Y-20.0
X120.3Y-24.0
X120.3Y-39.24
X120.46Y-20.0
X122.84Y-24.0
X122.84Y-39.24
X123.0Y-20.0
X123.3Y-3.3
X125.38Y-24.0
X125.38Y-39.24
X125.54Y-20.0
X127.92Y-24.0
X127.92Y-39.24
X128.08Y-20.0
X128.3Y-3.3
X130.46Y-24.0
X130.46Y-39.24
X133.0Y-24.0
X133.0Y-39.24
X135.54Y-24.0
X135.54Y-39.24
T5
X89.19Y-4.0
X89.19Y-8.0
X96.81Y-4.0
X96.81Y-8.0
X106.03Y-14.25
X113.65Y-14.25
X121.55Y-9.0
X121.55Y-16.62
T6
X13.0Y-5.305
X18.0Y-5.305
X23.0Y-5.305
X28.0Y-5.305
T7
X16.19Y-35.46
X22.54Y-32.92
X35.24Y-35.46
X41.59Y-32.92
X54.29Y-35.46
X60.64Y-32.92
X73.34Y-35.46
X79.69Y-32.92
T8
X135.0Y-45.0
T4
G00X126.25Y-14.257
M15
G01X126.25Y-12.258
M16
G05
G00X130.25Y-8.557
M15
G01X128.25Y-8.557
M16
G05
G00X132.25Y-14.257
M15
G01X132.25Y-12.258
M16
G05
M30
