M48
; DRILL file {KiCad (5.99.0-9519-ga70106a3bd)} date 04/17/21 12:18:38
; FORMAT={-:-/ absolute / metric / decimal}
; #@! TF.CreationDate,2021-04-17T12:18:38-04:00
; #@! TF.GenerationSoftware,Kicad,Pcbnew,(5.99.0-9519-ga70106a3bd)
; #@! TF.FileFunction,Plated,1,2,PTH
FMAT,2
METRIC
T1C0.400
T2C0.750
T3C0.800
T4C0.900
T5C0.950
T6C1.000
T7C1.500
T8C5.300
%
G90
G05
T1
X1.0Y-32.5
X2.5Y-32.5
X4.0Y-32.5
X5.95Y-44.125
X8.0Y-32.5
X9.5Y-32.5
X11.0Y-32.5
X12.5Y-32.5
X14.0Y-32.5
X14.5Y-13.9
X14.57Y-20.8
X14.77Y-44.005
X15.5Y-32.5
X16.2Y-27.0
X17.0Y-32.5
X18.1Y-14.8
X18.3Y-25.9
X18.5Y-32.5
X19.64Y-17.12
X19.64Y-18.17
X19.7Y-22.62
X19.7Y-41.375
X19.96Y-23.59
X20.69Y-32.78
X21.38Y-19.39
X21.625Y-38.825
X21.88Y-21.52
X22.12Y-16.67
X22.38Y-19.42
X22.83Y-33.0
X23.38Y-19.39
X23.495Y-21.505
X23.94Y-15.01
X25.28Y-16.78
X27.19Y-14.0
X28.9Y-22.4
X29.7Y-18.5
X30.7Y-22.28
T2
X11.97Y-15.95
X11.97Y-17.95
X11.97Y-19.95
X11.97Y-21.95
X11.97Y-23.95
X11.97Y-25.95
T3
X31.8Y-5.78
X31.8Y-9.28
T4
X55.2Y-32.93
X55.2Y-34.2
X55.2Y-35.47
X55.2Y-36.74
T5
X4.505Y-17.19
X4.505Y-19.69
X4.505Y-22.19
X4.505Y-24.69
T6
X2.97Y-37.205
X2.97Y-39.745
X2.97Y-42.285
X2.97Y-44.825
X2.97Y-47.365
X2.97Y-52.445
X2.97Y-54.985
X18.25Y-1.8
X18.25Y-6.8
X23.25Y-4.3
X35.08Y-13.71
X35.08Y-28.95
X37.62Y-13.71
X37.62Y-28.95
X38.72Y-10.24
X40.16Y-13.71
X40.16Y-28.95
X41.26Y-10.24
X42.7Y-13.71
X42.7Y-28.95
X45.14Y-10.28
X45.24Y-13.71
X45.24Y-28.95
X47.68Y-10.28
X47.78Y-13.71
X47.78Y-28.95
X50.22Y-10.28
X50.32Y-13.71
X50.32Y-28.95
X52.76Y-10.28
X52.86Y-13.71
X52.86Y-28.95
X55.3Y-10.28
X55.4Y-13.71
X55.4Y-28.95
X57.84Y-10.28
X57.94Y-13.71
X57.94Y-28.95
X60.38Y-10.28
X60.48Y-13.71
X60.48Y-28.95
X62.92Y-10.28
X63.02Y-13.71
X63.02Y-28.95
X65.56Y-13.71
X65.56Y-28.95
X68.1Y-13.71
X68.1Y-28.95
X68.59Y-25.34
X70.64Y-13.71
X70.64Y-28.95
X71.13Y-17.34
X71.13Y-25.34
T7
X33.188Y-45.385
X39.538Y-42.845
X52.358Y-45.385
X58.708Y-42.845
T8
X72.0Y-52.05
T6
G00X66.1Y-8.008
M15
G01X66.1Y-6.007
M16
G05
G00X70.1Y-2.308
M15
G01X68.1Y-2.308
M16
G05
G00X72.1Y-8.008
M15
G01X72.1Y-6.007
M16
G05
T0
M30
