%TF.GenerationSoftware,KiCad,Pcbnew,(5.99.0-9519-ga70106a3bd)*%
%TF.CreationDate,2021-04-17T12:18:36-04:00*%
%TF.ProjectId,Main-PCB,4d61696e-2d50-4434-922e-6b696361645f,rev?*%
%TF.SameCoordinates,Original*%
%TF.FileFunction,Soldermask,Bot*%
%TF.FilePolarity,Negative*%
%FSLAX46Y46*%
G04 Gerber Fmt 4.6, Leading zero omitted, Abs format (unit mm)*
G04 Created by KiCad (PCBNEW (5.99.0-9519-ga70106a3bd)) date 2021-04-17 12:18:36*
%MOMM*%
%LPD*%
G01*
G04 APERTURE LIST*
G04 Aperture macros list*
%AMRoundRect*
0 Rectangle with rounded corners*
0 $1 Rounding radius*
0 $2 $3 $4 $5 $6 $7 $8 $9 X,Y pos of 4 corners*
0 Add a 4 corners polygon primitive as box body*
4,1,4,$2,$3,$4,$5,$6,$7,$8,$9,$2,$3,0*
0 Add four circle primitives for the rounded corners*
1,1,$1+$1,$2,$3*
1,1,$1+$1,$4,$5*
1,1,$1+$1,$6,$7*
1,1,$1+$1,$8,$9*
0 Add four rect primitives between the rounded corners*
20,1,$1+$1,$2,$3,$4,$5,0*
20,1,$1+$1,$4,$5,$6,$7,0*
20,1,$1+$1,$6,$7,$8,$9,0*
20,1,$1+$1,$8,$9,$2,$3,0*%
%AMFreePoly0*
4,1,6,1.000000,0.000000,0.500000,-0.750000,-0.500000,-0.750000,-0.500000,0.750000,0.500000,0.750000,1.000000,0.000000,1.000000,0.000000,$1*%
%AMFreePoly1*
4,1,6,0.500000,-0.750000,-0.650000,-0.750000,-0.150000,0.000000,-0.650000,0.750000,0.500000,0.750000,0.500000,-0.750000,0.500000,-0.750000,$1*%
G04 Aperture macros list end*
%ADD10R,1.600000X1.600000*%
%ADD11C,1.600000*%
%ADD12R,1.550000X1.550000*%
%ADD13C,1.550000*%
%ADD14C,1.448000*%
%ADD15R,1.700000X1.700000*%
%ADD16O,1.700000X1.700000*%
%ADD17R,3.500000X3.500000*%
%ADD18RoundRect,0.750000X0.750000X1.000000X-0.750000X1.000000X-0.750000X-1.000000X0.750000X-1.000000X0*%
%ADD19RoundRect,0.875000X0.875000X0.875000X-0.875000X0.875000X-0.875000X-0.875000X0.875000X-0.875000X0*%
%ADD20C,3.200000*%
%ADD21R,1.800000X1.070000*%
%ADD22O,1.800000X1.070000*%
%ADD23O,1.600000X1.600000*%
%ADD24C,5.300000*%
%ADD25C,1.700000*%
%ADD26C,4.000000*%
%ADD27C,2.200000*%
%ADD28C,9.500000*%
%ADD29RoundRect,0.250000X0.725000X-0.600000X0.725000X0.600000X-0.725000X0.600000X-0.725000X-0.600000X0*%
%ADD30O,1.950000X1.700000*%
%ADD31RoundRect,0.250000X-0.625000X0.350000X-0.625000X-0.350000X0.625000X-0.350000X0.625000X0.350000X0*%
%ADD32O,1.750000X1.200000*%
%ADD33FreePoly0,90.000000*%
%ADD34FreePoly1,90.000000*%
G04 APERTURE END LIST*
D10*
%TO.C,C3*%
X31800000Y-5780000D03*
D11*
X31800000Y-9280000D03*
%TD*%
D12*
%TO.C,RV1*%
X18250000Y-6800000D03*
D13*
X23250000Y-4300000D03*
X18250000Y-1800000D03*
%TD*%
D14*
%TO.C,HT3*%
X2000000Y-2000000D03*
%TD*%
D15*
%TO.C,J6*%
X62920000Y-10280000D03*
D16*
X60380000Y-10280000D03*
X57840000Y-10280000D03*
X55300000Y-10280000D03*
X52760000Y-10280000D03*
X50220000Y-10280000D03*
X47680000Y-10280000D03*
X45140000Y-10280000D03*
%TD*%
D17*
%TO.C,J7*%
X66100000Y-7007500D03*
D18*
X72100000Y-7007500D03*
D19*
X69100000Y-2307500D03*
%TD*%
D14*
%TO.C,HT4*%
X75000000Y-2000000D03*
%TD*%
D20*
%TO.C,H5*%
X72000000Y-43000000D03*
%TD*%
D21*
%TO.C,D1*%
X55200000Y-36740000D03*
D22*
X55200000Y-35470000D03*
X55200000Y-34200000D03*
X55200000Y-32930000D03*
%TD*%
D10*
%TO.C,A1*%
X35080000Y-28950000D03*
D23*
X37620000Y-28950000D03*
X40160000Y-28950000D03*
X42700000Y-28950000D03*
X45240000Y-28950000D03*
X47780000Y-28950000D03*
X50320000Y-28950000D03*
X52860000Y-28950000D03*
X55400000Y-28950000D03*
X57940000Y-28950000D03*
X60480000Y-28950000D03*
X63020000Y-28950000D03*
X65560000Y-28950000D03*
X68100000Y-28950000D03*
X70640000Y-28950000D03*
X70640000Y-13710000D03*
X68100000Y-13710000D03*
X65560000Y-13710000D03*
X63020000Y-13710000D03*
X60480000Y-13710000D03*
X57940000Y-13710000D03*
X55400000Y-13710000D03*
X52860000Y-13710000D03*
X50320000Y-13710000D03*
X47780000Y-13710000D03*
X45240000Y-13710000D03*
X42700000Y-13710000D03*
X40160000Y-13710000D03*
X37620000Y-13710000D03*
X35080000Y-13710000D03*
%TD*%
D15*
%TO.C,J4*%
X71130000Y-25340000D03*
D16*
X68590000Y-25340000D03*
%TD*%
D14*
%TO.C,HT2*%
X65000000Y-56000000D03*
%TD*%
D24*
%TO.C,H2*%
X5000000Y-6000000D03*
%TD*%
D20*
%TO.C,H4*%
X13000000Y-3000000D03*
%TD*%
D25*
%TO.C,SW1*%
X31918125Y-47925000D03*
D26*
X36998125Y-47925000D03*
D25*
X42078125Y-47925000D03*
D27*
X39538125Y-42845000D03*
X33188125Y-45385000D03*
%TD*%
D15*
%TO.C,J5*%
X71130000Y-17340000D03*
%TD*%
D28*
%TO.C,H1*%
X72000000Y-52050000D03*
%TD*%
D29*
%TO.C,J8*%
X4505000Y-24690000D03*
D30*
X4505000Y-22190000D03*
X4505000Y-19690000D03*
X4505000Y-17190000D03*
%TD*%
D24*
%TO.C,H7*%
X20000000Y-52250000D03*
%TD*%
D20*
%TO.C,H3*%
X12000000Y-54250000D03*
%TD*%
D14*
%TO.C,HT1*%
X7000000Y-56000000D03*
%TD*%
D15*
%TO.C,J3*%
X38720000Y-10240000D03*
D16*
X41260000Y-10240000D03*
%TD*%
D31*
%TO.C,J9*%
X11970000Y-15950000D03*
D32*
X11970000Y-17950000D03*
X11970000Y-19950000D03*
X11970000Y-21950000D03*
X11970000Y-23950000D03*
X11970000Y-25950000D03*
%TD*%
D20*
%TO.C,H6*%
X60000000Y-4250000D03*
%TD*%
D15*
%TO.C,J1*%
X2970000Y-37205000D03*
D16*
X2970000Y-39745000D03*
X2970000Y-42285000D03*
X2970000Y-44825000D03*
X2970000Y-47365000D03*
%TD*%
D15*
%TO.C,J2*%
X2970000Y-52445000D03*
D16*
X2970000Y-54985000D03*
%TD*%
D25*
%TO.C,SW2*%
X61248125Y-47925000D03*
X51088125Y-47925000D03*
D26*
X56168125Y-47925000D03*
D27*
X58708125Y-42845000D03*
X52358125Y-45385000D03*
%TD*%
D33*
%TO.C,JP4*%
X29000000Y-22025000D03*
D34*
X29000000Y-20575000D03*
%TD*%
D33*
%TO.C,JP3*%
X42980000Y-7565000D03*
D34*
X42980000Y-6115000D03*
%TD*%
M02*
