%TF.GenerationSoftware,KiCad,Pcbnew,(5.99.0-9519-ga70106a3bd)*%
%TF.CreationDate,2021-04-17T12:18:36-04:00*%
%TF.ProjectId,Main-PCB,4d61696e-2d50-4434-922e-6b696361645f,rev?*%
%TF.SameCoordinates,Original*%
%TF.FileFunction,Legend,Top*%
%TF.FilePolarity,Positive*%
%FSLAX46Y46*%
G04 Gerber Fmt 4.6, Leading zero omitted, Abs format (unit mm)*
G04 Created by KiCad (PCBNEW (5.99.0-9519-ga70106a3bd)) date 2021-04-17 12:18:36*
%MOMM*%
%LPD*%
G01*
G04 APERTURE LIST*
%ADD10C,0.150000*%
%ADD11C,0.250000*%
%ADD12C,0.500000*%
%ADD13C,0.120000*%
G04 APERTURE END LIST*
D10*
X23100000Y-33100000D02*
X23100000Y-32700000D01*
X20516015Y-22890000D02*
G75*
G03*
X20516015Y-22890000I-136015J0D01*
G01*
D11*
X37100000Y-17750000D02*
X38690000Y-17750000D01*
D10*
X27625000Y-31650000D02*
X28550000Y-31650000D01*
X29200000Y-33200000D02*
X29200000Y-34000000D01*
X28550000Y-31650000D02*
X28550000Y-32600000D01*
X24820000Y-33200000D02*
X29200000Y-33200000D01*
X28550000Y-32600000D02*
X30600000Y-32600000D01*
X24820000Y-32662500D02*
X24820000Y-33200000D01*
X29200000Y-34000000D02*
X30600000Y-34000000D01*
X19852036Y-36280000D02*
G75*
G03*
X19852036Y-36280000I-222036J0D01*
G01*
D11*
X30740000Y-28790000D02*
X32620000Y-28790000D01*
D10*
X29461904Y-38852142D02*
X29414285Y-38899761D01*
X29271428Y-38947380D01*
X29176190Y-38947380D01*
X29033333Y-38899761D01*
X28938095Y-38804523D01*
X28890476Y-38709285D01*
X28842857Y-38518809D01*
X28842857Y-38375952D01*
X28890476Y-38185476D01*
X28938095Y-38090238D01*
X29033333Y-37995000D01*
X29176190Y-37947380D01*
X29271428Y-37947380D01*
X29414285Y-37995000D01*
X29461904Y-38042619D01*
X30319047Y-38280714D02*
X30319047Y-38947380D01*
X29890476Y-38280714D02*
X29890476Y-38804523D01*
X29938095Y-38899761D01*
X30033333Y-38947380D01*
X30176190Y-38947380D01*
X30271428Y-38899761D01*
X30319047Y-38852142D01*
X30652380Y-38280714D02*
X31033333Y-38280714D01*
X30795238Y-37947380D02*
X30795238Y-38804523D01*
X30842857Y-38899761D01*
X30938095Y-38947380D01*
X31033333Y-38947380D01*
X32414285Y-37947380D02*
X32414285Y-38661666D01*
X32366666Y-38804523D01*
X32271428Y-38899761D01*
X32128571Y-38947380D01*
X32033333Y-38947380D01*
X32890476Y-38947380D02*
X32890476Y-37947380D01*
X33271428Y-37947380D01*
X33366666Y-37995000D01*
X33414285Y-38042619D01*
X33461904Y-38137857D01*
X33461904Y-38280714D01*
X33414285Y-38375952D01*
X33366666Y-38423571D01*
X33271428Y-38471190D01*
X32890476Y-38471190D01*
X34414285Y-38947380D02*
X33842857Y-38947380D01*
X34128571Y-38947380D02*
X34128571Y-37947380D01*
X34033333Y-38090238D01*
X33938095Y-38185476D01*
X33842857Y-38233095D01*
X35461904Y-38280714D02*
X35842857Y-38280714D01*
X35604761Y-37947380D02*
X35604761Y-38804523D01*
X35652380Y-38899761D01*
X35747619Y-38947380D01*
X35842857Y-38947380D01*
X36319047Y-38947380D02*
X36223809Y-38899761D01*
X36176190Y-38852142D01*
X36128571Y-38756904D01*
X36128571Y-38471190D01*
X36176190Y-38375952D01*
X36223809Y-38328333D01*
X36319047Y-38280714D01*
X36461904Y-38280714D01*
X36557142Y-38328333D01*
X36604761Y-38375952D01*
X36652380Y-38471190D01*
X36652380Y-38756904D01*
X36604761Y-38852142D01*
X36557142Y-38899761D01*
X36461904Y-38947380D01*
X36319047Y-38947380D01*
X37842857Y-38947380D02*
X37842857Y-38280714D01*
X37842857Y-37947380D02*
X37795238Y-37995000D01*
X37842857Y-38042619D01*
X37890476Y-37995000D01*
X37842857Y-37947380D01*
X37842857Y-38042619D01*
X38319047Y-38280714D02*
X38319047Y-38947380D01*
X38319047Y-38375952D02*
X38366666Y-38328333D01*
X38461904Y-38280714D01*
X38604761Y-38280714D01*
X38699999Y-38328333D01*
X38747619Y-38423571D01*
X38747619Y-38947380D01*
X39652380Y-38899761D02*
X39557142Y-38947380D01*
X39366666Y-38947380D01*
X39271428Y-38899761D01*
X39223809Y-38852142D01*
X39176190Y-38756904D01*
X39176190Y-38471190D01*
X39223809Y-38375952D01*
X39271428Y-38328333D01*
X39366666Y-38280714D01*
X39557142Y-38280714D01*
X39652380Y-38328333D01*
X40080952Y-38947380D02*
X40080952Y-38280714D01*
X40080952Y-38471190D02*
X40128571Y-38375952D01*
X40176190Y-38328333D01*
X40271428Y-38280714D01*
X40366666Y-38280714D01*
X41080952Y-38899761D02*
X40985714Y-38947380D01*
X40795238Y-38947380D01*
X40699999Y-38899761D01*
X40652380Y-38804523D01*
X40652380Y-38423571D01*
X40699999Y-38328333D01*
X40795238Y-38280714D01*
X40985714Y-38280714D01*
X41080952Y-38328333D01*
X41128571Y-38423571D01*
X41128571Y-38518809D01*
X40652380Y-38614047D01*
X41985714Y-38947380D02*
X41985714Y-38423571D01*
X41938095Y-38328333D01*
X41842857Y-38280714D01*
X41652380Y-38280714D01*
X41557142Y-38328333D01*
X41985714Y-38899761D02*
X41890476Y-38947380D01*
X41652380Y-38947380D01*
X41557142Y-38899761D01*
X41509523Y-38804523D01*
X41509523Y-38709285D01*
X41557142Y-38614047D01*
X41652380Y-38566428D01*
X41890476Y-38566428D01*
X41985714Y-38518809D01*
X42414285Y-38899761D02*
X42509523Y-38947380D01*
X42699999Y-38947380D01*
X42795238Y-38899761D01*
X42842857Y-38804523D01*
X42842857Y-38756904D01*
X42795238Y-38661666D01*
X42699999Y-38614047D01*
X42557142Y-38614047D01*
X42461904Y-38566428D01*
X42414285Y-38471190D01*
X42414285Y-38423571D01*
X42461904Y-38328333D01*
X42557142Y-38280714D01*
X42699999Y-38280714D01*
X42795238Y-38328333D01*
X43652380Y-38899761D02*
X43557142Y-38947380D01*
X43366666Y-38947380D01*
X43271428Y-38899761D01*
X43223809Y-38804523D01*
X43223809Y-38423571D01*
X43271428Y-38328333D01*
X43366666Y-38280714D01*
X43557142Y-38280714D01*
X43652380Y-38328333D01*
X43699999Y-38423571D01*
X43699999Y-38518809D01*
X43223809Y-38614047D01*
X44842857Y-38899761D02*
X44938095Y-38947380D01*
X45128571Y-38947380D01*
X45223809Y-38899761D01*
X45271428Y-38804523D01*
X45271428Y-38756904D01*
X45223809Y-38661666D01*
X45128571Y-38614047D01*
X44985714Y-38614047D01*
X44890476Y-38566428D01*
X44842857Y-38471190D01*
X44842857Y-38423571D01*
X44890476Y-38328333D01*
X44985714Y-38280714D01*
X45128571Y-38280714D01*
X45223809Y-38328333D01*
X46128571Y-38947380D02*
X46128571Y-38423571D01*
X46080952Y-38328333D01*
X45985714Y-38280714D01*
X45795238Y-38280714D01*
X45699999Y-38328333D01*
X46128571Y-38899761D02*
X46033333Y-38947380D01*
X45795238Y-38947380D01*
X45699999Y-38899761D01*
X45652380Y-38804523D01*
X45652380Y-38709285D01*
X45699999Y-38614047D01*
X45795238Y-38566428D01*
X46033333Y-38566428D01*
X46128571Y-38518809D01*
X46604761Y-38947380D02*
X46604761Y-38280714D01*
X46604761Y-38375952D02*
X46652380Y-38328333D01*
X46747619Y-38280714D01*
X46890476Y-38280714D01*
X46985714Y-38328333D01*
X47033333Y-38423571D01*
X47033333Y-38947380D01*
X47033333Y-38423571D02*
X47080952Y-38328333D01*
X47176190Y-38280714D01*
X47319047Y-38280714D01*
X47414285Y-38328333D01*
X47461904Y-38423571D01*
X47461904Y-38947380D01*
X47938095Y-38280714D02*
X47938095Y-39280714D01*
X47938095Y-38328333D02*
X48033333Y-38280714D01*
X48223809Y-38280714D01*
X48319047Y-38328333D01*
X48366666Y-38375952D01*
X48414285Y-38471190D01*
X48414285Y-38756904D01*
X48366666Y-38852142D01*
X48319047Y-38899761D01*
X48223809Y-38947380D01*
X48033333Y-38947380D01*
X47938095Y-38899761D01*
X48985714Y-38947380D02*
X48890476Y-38899761D01*
X48842857Y-38804523D01*
X48842857Y-37947380D01*
X49747619Y-38899761D02*
X49652380Y-38947380D01*
X49461904Y-38947380D01*
X49366666Y-38899761D01*
X49319047Y-38804523D01*
X49319047Y-38423571D01*
X49366666Y-38328333D01*
X49461904Y-38280714D01*
X49652380Y-38280714D01*
X49747619Y-38328333D01*
X49795238Y-38423571D01*
X49795238Y-38518809D01*
X49319047Y-38614047D01*
X30723809Y-40557380D02*
X30723809Y-39890714D01*
X30723809Y-40081190D02*
X30771428Y-39985952D01*
X30819047Y-39938333D01*
X30914285Y-39890714D01*
X31009523Y-39890714D01*
X31771428Y-40557380D02*
X31771428Y-40033571D01*
X31723809Y-39938333D01*
X31628571Y-39890714D01*
X31438095Y-39890714D01*
X31342857Y-39938333D01*
X31771428Y-40509761D02*
X31676190Y-40557380D01*
X31438095Y-40557380D01*
X31342857Y-40509761D01*
X31295238Y-40414523D01*
X31295238Y-40319285D01*
X31342857Y-40224047D01*
X31438095Y-40176428D01*
X31676190Y-40176428D01*
X31771428Y-40128809D01*
X32104761Y-39890714D02*
X32485714Y-39890714D01*
X32247619Y-39557380D02*
X32247619Y-40414523D01*
X32295238Y-40509761D01*
X32390476Y-40557380D01*
X32485714Y-40557380D01*
X33199999Y-40509761D02*
X33104761Y-40557380D01*
X32914285Y-40557380D01*
X32819047Y-40509761D01*
X32771428Y-40414523D01*
X32771428Y-40033571D01*
X32819047Y-39938333D01*
X32914285Y-39890714D01*
X33104761Y-39890714D01*
X33199999Y-39938333D01*
X33247619Y-40033571D01*
X33247619Y-40128809D01*
X32771428Y-40224047D01*
X34295238Y-39890714D02*
X34676190Y-39890714D01*
X34438095Y-40557380D02*
X34438095Y-39700238D01*
X34485714Y-39605000D01*
X34580952Y-39557380D01*
X34676190Y-39557380D01*
X35009523Y-40557380D02*
X35009523Y-39890714D01*
X35009523Y-40081190D02*
X35057142Y-39985952D01*
X35104761Y-39938333D01*
X35200000Y-39890714D01*
X35295238Y-39890714D01*
X35771428Y-40557380D02*
X35676190Y-40509761D01*
X35628571Y-40462142D01*
X35580952Y-40366904D01*
X35580952Y-40081190D01*
X35628571Y-39985952D01*
X35676190Y-39938333D01*
X35771428Y-39890714D01*
X35914285Y-39890714D01*
X36009523Y-39938333D01*
X36057142Y-39985952D01*
X36104761Y-40081190D01*
X36104761Y-40366904D01*
X36057142Y-40462142D01*
X36009523Y-40509761D01*
X35914285Y-40557380D01*
X35771428Y-40557380D01*
X36533333Y-40557380D02*
X36533333Y-39890714D01*
X36533333Y-39985952D02*
X36580952Y-39938333D01*
X36676190Y-39890714D01*
X36819047Y-39890714D01*
X36914285Y-39938333D01*
X36961904Y-40033571D01*
X36961904Y-40557380D01*
X36961904Y-40033571D02*
X37009523Y-39938333D01*
X37104761Y-39890714D01*
X37247619Y-39890714D01*
X37342857Y-39938333D01*
X37390476Y-40033571D01*
X37390476Y-40557380D01*
X39152380Y-40557380D02*
X38580952Y-40557380D01*
X38866666Y-40557380D02*
X38866666Y-39557380D01*
X38771428Y-39700238D01*
X38676190Y-39795476D01*
X38580952Y-39843095D01*
X39771428Y-39557380D02*
X39866666Y-39557380D01*
X39961904Y-39605000D01*
X40009523Y-39652619D01*
X40057142Y-39747857D01*
X40104761Y-39938333D01*
X40104761Y-40176428D01*
X40057142Y-40366904D01*
X40009523Y-40462142D01*
X39961904Y-40509761D01*
X39866666Y-40557380D01*
X39771428Y-40557380D01*
X39676190Y-40509761D01*
X39628571Y-40462142D01*
X39580952Y-40366904D01*
X39533333Y-40176428D01*
X39533333Y-39938333D01*
X39580952Y-39747857D01*
X39628571Y-39652619D01*
X39676190Y-39605000D01*
X39771428Y-39557380D01*
X40533333Y-40557380D02*
X40533333Y-39557380D01*
X40533333Y-40033571D02*
X41104761Y-40033571D01*
X41104761Y-40557380D02*
X41104761Y-39557380D01*
X41485714Y-39890714D02*
X42009523Y-39890714D01*
X41485714Y-40557380D01*
X42009523Y-40557380D01*
X43009523Y-39890714D02*
X43390476Y-39890714D01*
X43152380Y-39557380D02*
X43152380Y-40414523D01*
X43199999Y-40509761D01*
X43295238Y-40557380D01*
X43390476Y-40557380D01*
X43866666Y-40557380D02*
X43771428Y-40509761D01*
X43723809Y-40462142D01*
X43676190Y-40366904D01*
X43676190Y-40081190D01*
X43723809Y-39985952D01*
X43771428Y-39938333D01*
X43866666Y-39890714D01*
X44009523Y-39890714D01*
X44104761Y-39938333D01*
X44152380Y-39985952D01*
X44199999Y-40081190D01*
X44199999Y-40366904D01*
X44152380Y-40462142D01*
X44104761Y-40509761D01*
X44009523Y-40557380D01*
X43866666Y-40557380D01*
X45533333Y-39985952D02*
X45438095Y-39938333D01*
X45390476Y-39890714D01*
X45342857Y-39795476D01*
X45342857Y-39747857D01*
X45390476Y-39652619D01*
X45438095Y-39605000D01*
X45533333Y-39557380D01*
X45723809Y-39557380D01*
X45819047Y-39605000D01*
X45866666Y-39652619D01*
X45914285Y-39747857D01*
X45914285Y-39795476D01*
X45866666Y-39890714D01*
X45819047Y-39938333D01*
X45723809Y-39985952D01*
X45533333Y-39985952D01*
X45438095Y-40033571D01*
X45390476Y-40081190D01*
X45342857Y-40176428D01*
X45342857Y-40366904D01*
X45390476Y-40462142D01*
X45438095Y-40509761D01*
X45533333Y-40557380D01*
X45723809Y-40557380D01*
X45819047Y-40509761D01*
X45866666Y-40462142D01*
X45914285Y-40366904D01*
X45914285Y-40176428D01*
X45866666Y-40081190D01*
X45819047Y-40033571D01*
X45723809Y-39985952D01*
X46533333Y-39557380D02*
X46628571Y-39557380D01*
X46723809Y-39605000D01*
X46771428Y-39652619D01*
X46819047Y-39747857D01*
X46866666Y-39938333D01*
X46866666Y-40176428D01*
X46819047Y-40366904D01*
X46771428Y-40462142D01*
X46723809Y-40509761D01*
X46628571Y-40557380D01*
X46533333Y-40557380D01*
X46438095Y-40509761D01*
X46390476Y-40462142D01*
X46342857Y-40366904D01*
X46295238Y-40176428D01*
X46295238Y-39938333D01*
X46342857Y-39747857D01*
X46390476Y-39652619D01*
X46438095Y-39605000D01*
X46533333Y-39557380D01*
X47295238Y-40557380D02*
X47295238Y-39557380D01*
X47295238Y-40033571D02*
X47866666Y-40033571D01*
X47866666Y-40557380D02*
X47866666Y-39557380D01*
X48247619Y-39890714D02*
X48771428Y-39890714D01*
X48247619Y-40557380D01*
X48771428Y-40557380D01*
X9904761Y-8547380D02*
X9904761Y-9261666D01*
X9857142Y-9404523D01*
X9761904Y-9499761D01*
X9619047Y-9547380D01*
X9523809Y-9547380D01*
X10380952Y-9547380D02*
X10380952Y-8547380D01*
X10761904Y-8547380D01*
X10857142Y-8595000D01*
X10904761Y-8642619D01*
X10952380Y-8737857D01*
X10952380Y-8880714D01*
X10904761Y-8975952D01*
X10857142Y-9023571D01*
X10761904Y-9071190D01*
X10380952Y-9071190D01*
X11809523Y-8547380D02*
X11619047Y-8547380D01*
X11523809Y-8595000D01*
X11476190Y-8642619D01*
X11380952Y-8785476D01*
X11333333Y-8975952D01*
X11333333Y-9356904D01*
X11380952Y-9452142D01*
X11428571Y-9499761D01*
X11523809Y-9547380D01*
X11714285Y-9547380D01*
X11809523Y-9499761D01*
X11857142Y-9452142D01*
X11904761Y-9356904D01*
X11904761Y-9118809D01*
X11857142Y-9023571D01*
X11809523Y-8975952D01*
X11714285Y-8928333D01*
X11523809Y-8928333D01*
X11428571Y-8975952D01*
X11380952Y-9023571D01*
X11333333Y-9118809D01*
X12333333Y-9166428D02*
X13095238Y-9166428D01*
X13523809Y-9499761D02*
X13619047Y-9547380D01*
X13809523Y-9547380D01*
X13904761Y-9499761D01*
X13952380Y-9404523D01*
X13952380Y-9356904D01*
X13904761Y-9261666D01*
X13809523Y-9214047D01*
X13666666Y-9214047D01*
X13571428Y-9166428D01*
X13523809Y-9071190D01*
X13523809Y-9023571D01*
X13571428Y-8928333D01*
X13666666Y-8880714D01*
X13809523Y-8880714D01*
X13904761Y-8928333D01*
X14238095Y-8880714D02*
X14619047Y-8880714D01*
X14380952Y-8547380D02*
X14380952Y-9404523D01*
X14428571Y-9499761D01*
X14523809Y-9547380D01*
X14619047Y-9547380D01*
X15333333Y-9499761D02*
X15238095Y-9547380D01*
X15047619Y-9547380D01*
X14952380Y-9499761D01*
X14904761Y-9404523D01*
X14904761Y-9023571D01*
X14952380Y-8928333D01*
X15047619Y-8880714D01*
X15238095Y-8880714D01*
X15333333Y-8928333D01*
X15380952Y-9023571D01*
X15380952Y-9118809D01*
X14904761Y-9214047D01*
X15809523Y-8880714D02*
X15809523Y-9880714D01*
X15809523Y-8928333D02*
X15904761Y-8880714D01*
X16095238Y-8880714D01*
X16190476Y-8928333D01*
X16238095Y-8975952D01*
X16285714Y-9071190D01*
X16285714Y-9356904D01*
X16238095Y-9452142D01*
X16190476Y-9499761D01*
X16095238Y-9547380D01*
X15904761Y-9547380D01*
X15809523Y-9499761D01*
X16714285Y-8880714D02*
X16714285Y-9880714D01*
X16714285Y-8928333D02*
X16809523Y-8880714D01*
X17000000Y-8880714D01*
X17095238Y-8928333D01*
X17142857Y-8975952D01*
X17190476Y-9071190D01*
X17190476Y-9356904D01*
X17142857Y-9452142D01*
X17095238Y-9499761D01*
X17000000Y-9547380D01*
X16809523Y-9547380D01*
X16714285Y-9499761D01*
X18000000Y-9499761D02*
X17904761Y-9547380D01*
X17714285Y-9547380D01*
X17619047Y-9499761D01*
X17571428Y-9404523D01*
X17571428Y-9023571D01*
X17619047Y-8928333D01*
X17714285Y-8880714D01*
X17904761Y-8880714D01*
X18000000Y-8928333D01*
X18047619Y-9023571D01*
X18047619Y-9118809D01*
X17571428Y-9214047D01*
X18476190Y-9547380D02*
X18476190Y-8880714D01*
X18476190Y-9071190D02*
X18523809Y-8975952D01*
X18571428Y-8928333D01*
X18666666Y-8880714D01*
X18761904Y-8880714D01*
X12500000Y-11109761D02*
X12404761Y-11157380D01*
X12214285Y-11157380D01*
X12119047Y-11109761D01*
X12071428Y-11062142D01*
X12023809Y-10966904D01*
X12023809Y-10681190D01*
X12071428Y-10585952D01*
X12119047Y-10538333D01*
X12214285Y-10490714D01*
X12404761Y-10490714D01*
X12500000Y-10538333D01*
X13357142Y-10490714D02*
X13357142Y-11157380D01*
X12928571Y-10490714D02*
X12928571Y-11014523D01*
X12976190Y-11109761D01*
X13071428Y-11157380D01*
X13214285Y-11157380D01*
X13309523Y-11109761D01*
X13357142Y-11062142D01*
X13833333Y-11157380D02*
X13833333Y-10490714D01*
X13833333Y-10681190D02*
X13880952Y-10585952D01*
X13928571Y-10538333D01*
X14023809Y-10490714D01*
X14119047Y-10490714D01*
X14452380Y-11157380D02*
X14452380Y-10490714D01*
X14452380Y-10681190D02*
X14500000Y-10585952D01*
X14547619Y-10538333D01*
X14642857Y-10490714D01*
X14738095Y-10490714D01*
X15452380Y-11109761D02*
X15357142Y-11157380D01*
X15166666Y-11157380D01*
X15071428Y-11109761D01*
X15023809Y-11014523D01*
X15023809Y-10633571D01*
X15071428Y-10538333D01*
X15166666Y-10490714D01*
X15357142Y-10490714D01*
X15452380Y-10538333D01*
X15500000Y-10633571D01*
X15500000Y-10728809D01*
X15023809Y-10824047D01*
X15928571Y-10490714D02*
X15928571Y-11157380D01*
X15928571Y-10585952D02*
X15976190Y-10538333D01*
X16071428Y-10490714D01*
X16214285Y-10490714D01*
X16309523Y-10538333D01*
X16357142Y-10633571D01*
X16357142Y-11157380D01*
X16690476Y-10490714D02*
X17071428Y-10490714D01*
X16833333Y-10157380D02*
X16833333Y-11014523D01*
X16880952Y-11109761D01*
X16976190Y-11157380D01*
X17071428Y-11157380D01*
X31488095Y-32175000D02*
X31392857Y-32127380D01*
X31250000Y-32127380D01*
X31107142Y-32175000D01*
X31011904Y-32270238D01*
X30964285Y-32365476D01*
X30916666Y-32555952D01*
X30916666Y-32698809D01*
X30964285Y-32889285D01*
X31011904Y-32984523D01*
X31107142Y-33079761D01*
X31250000Y-33127380D01*
X31345238Y-33127380D01*
X31488095Y-33079761D01*
X31535714Y-33032142D01*
X31535714Y-32698809D01*
X31345238Y-32698809D01*
X31964285Y-33127380D02*
X31964285Y-32127380D01*
X32535714Y-33127380D01*
X32535714Y-32127380D01*
X33011904Y-33127380D02*
X33011904Y-32127380D01*
X33250000Y-32127380D01*
X33392857Y-32175000D01*
X33488095Y-32270238D01*
X33535714Y-32365476D01*
X33583333Y-32555952D01*
X33583333Y-32698809D01*
X33535714Y-32889285D01*
X33488095Y-32984523D01*
X33392857Y-33079761D01*
X33250000Y-33127380D01*
X33011904Y-33127380D01*
X17202380Y-27552380D02*
X17202380Y-27361904D01*
X17250000Y-27266666D01*
X17345238Y-27171428D01*
X17535714Y-27123809D01*
X17869047Y-27123809D01*
X18059523Y-27171428D01*
X18154761Y-27266666D01*
X18202380Y-27361904D01*
X18202380Y-27552380D01*
X18154761Y-27647619D01*
X18059523Y-27742857D01*
X17869047Y-27790476D01*
X17535714Y-27790476D01*
X17345238Y-27742857D01*
X17250000Y-27647619D01*
X17202380Y-27552380D01*
X17678571Y-26361904D02*
X17678571Y-26695238D01*
X18202380Y-26695238D02*
X17202380Y-26695238D01*
X17202380Y-26219047D01*
X17678571Y-25504761D02*
X17678571Y-25838095D01*
X18202380Y-25838095D02*
X17202380Y-25838095D01*
X17202380Y-25361904D01*
X21514285Y-33971428D02*
X22276190Y-33971428D01*
X21895238Y-34352380D02*
X21895238Y-33590476D01*
X23228571Y-33352380D02*
X22752380Y-33352380D01*
X22704761Y-33828571D01*
X22752380Y-33780952D01*
X22847619Y-33733333D01*
X23085714Y-33733333D01*
X23180952Y-33780952D01*
X23228571Y-33828571D01*
X23276190Y-33923809D01*
X23276190Y-34161904D01*
X23228571Y-34257142D01*
X23180952Y-34304761D01*
X23085714Y-34352380D01*
X22847619Y-34352380D01*
X22752380Y-34304761D01*
X22704761Y-34257142D01*
X23561904Y-33352380D02*
X23895238Y-34352380D01*
X24228571Y-33352380D01*
D12*
X48985714Y-16933333D02*
X49938095Y-16933333D01*
X48795238Y-17504761D02*
X49461904Y-15504761D01*
X50128571Y-17504761D01*
X50795238Y-17504761D02*
X50795238Y-16171428D01*
X50795238Y-16552380D02*
X50890476Y-16361904D01*
X50985714Y-16266666D01*
X51176190Y-16171428D01*
X51366666Y-16171428D01*
X52890476Y-17504761D02*
X52890476Y-15504761D01*
X52890476Y-17409523D02*
X52700000Y-17504761D01*
X52319047Y-17504761D01*
X52128571Y-17409523D01*
X52033333Y-17314285D01*
X51938095Y-17123809D01*
X51938095Y-16552380D01*
X52033333Y-16361904D01*
X52128571Y-16266666D01*
X52319047Y-16171428D01*
X52700000Y-16171428D01*
X52890476Y-16266666D01*
X54700000Y-16171428D02*
X54700000Y-17504761D01*
X53842857Y-16171428D02*
X53842857Y-17219047D01*
X53938095Y-17409523D01*
X54128571Y-17504761D01*
X54414285Y-17504761D01*
X54604761Y-17409523D01*
X54700000Y-17314285D01*
X55652380Y-17504761D02*
X55652380Y-16171428D01*
X55652380Y-15504761D02*
X55557142Y-15600000D01*
X55652380Y-15695238D01*
X55747619Y-15600000D01*
X55652380Y-15504761D01*
X55652380Y-15695238D01*
X56604761Y-16171428D02*
X56604761Y-17504761D01*
X56604761Y-16361904D02*
X56700000Y-16266666D01*
X56890476Y-16171428D01*
X57176190Y-16171428D01*
X57366666Y-16266666D01*
X57461904Y-16457142D01*
X57461904Y-17504761D01*
X58700000Y-17504761D02*
X58509523Y-17409523D01*
X58414285Y-17314285D01*
X58319047Y-17123809D01*
X58319047Y-16552380D01*
X58414285Y-16361904D01*
X58509523Y-16266666D01*
X58700000Y-16171428D01*
X58985714Y-16171428D01*
X59176190Y-16266666D01*
X59271428Y-16361904D01*
X59366666Y-16552380D01*
X59366666Y-17123809D01*
X59271428Y-17314285D01*
X59176190Y-17409523D01*
X58985714Y-17504761D01*
X58700000Y-17504761D01*
X61747619Y-17504761D02*
X61747619Y-15504761D01*
X62890476Y-17504761D01*
X62890476Y-15504761D01*
X64700000Y-17504761D02*
X64700000Y-16457142D01*
X64604761Y-16266666D01*
X64414285Y-16171428D01*
X64033333Y-16171428D01*
X63842857Y-16266666D01*
X64700000Y-17409523D02*
X64509523Y-17504761D01*
X64033333Y-17504761D01*
X63842857Y-17409523D01*
X63747619Y-17219047D01*
X63747619Y-17028571D01*
X63842857Y-16838095D01*
X64033333Y-16742857D01*
X64509523Y-16742857D01*
X64700000Y-16647619D01*
X65652380Y-16171428D02*
X65652380Y-17504761D01*
X65652380Y-16361904D02*
X65747619Y-16266666D01*
X65938095Y-16171428D01*
X66223809Y-16171428D01*
X66414285Y-16266666D01*
X66509523Y-16457142D01*
X66509523Y-17504761D01*
X67747619Y-17504761D02*
X67557142Y-17409523D01*
X67461904Y-17314285D01*
X67366666Y-17123809D01*
X67366666Y-16552380D01*
X67461904Y-16361904D01*
X67557142Y-16266666D01*
X67747619Y-16171428D01*
X68033333Y-16171428D01*
X68223809Y-16266666D01*
X68319047Y-16361904D01*
X68414285Y-16552380D01*
X68414285Y-17123809D01*
X68319047Y-17314285D01*
X68223809Y-17409523D01*
X68033333Y-17504761D01*
X67747619Y-17504761D01*
D10*
X20332380Y-27639047D02*
X20332380Y-27448571D01*
X20380000Y-27353333D01*
X20475238Y-27258095D01*
X20665714Y-27210476D01*
X20999047Y-27210476D01*
X21189523Y-27258095D01*
X21284761Y-27353333D01*
X21332380Y-27448571D01*
X21332380Y-27639047D01*
X21284761Y-27734285D01*
X21189523Y-27829523D01*
X20999047Y-27877142D01*
X20665714Y-27877142D01*
X20475238Y-27829523D01*
X20380000Y-27734285D01*
X20332380Y-27639047D01*
X21332380Y-26781904D02*
X20332380Y-26781904D01*
X21332380Y-26210476D01*
X20332380Y-26210476D01*
X30933333Y-34504761D02*
X31076190Y-34552380D01*
X31314285Y-34552380D01*
X31409523Y-34504761D01*
X31457142Y-34457142D01*
X31504761Y-34361904D01*
X31504761Y-34266666D01*
X31457142Y-34171428D01*
X31409523Y-34123809D01*
X31314285Y-34076190D01*
X31123809Y-34028571D01*
X31028571Y-33980952D01*
X30980952Y-33933333D01*
X30933333Y-33838095D01*
X30933333Y-33742857D01*
X30980952Y-33647619D01*
X31028571Y-33600000D01*
X31123809Y-33552380D01*
X31361904Y-33552380D01*
X31504761Y-33600000D01*
X31933333Y-34552380D02*
X31933333Y-33552380D01*
X32314285Y-33552380D01*
X32409523Y-33600000D01*
X32457142Y-33647619D01*
X32504761Y-33742857D01*
X32504761Y-33885714D01*
X32457142Y-33980952D01*
X32409523Y-34028571D01*
X32314285Y-34076190D01*
X31933333Y-34076190D01*
X33504761Y-34552380D02*
X33171428Y-34076190D01*
X32933333Y-34552380D02*
X32933333Y-33552380D01*
X33314285Y-33552380D01*
X33409523Y-33600000D01*
X33457142Y-33647619D01*
X33504761Y-33742857D01*
X33504761Y-33885714D01*
X33457142Y-33980952D01*
X33409523Y-34028571D01*
X33314285Y-34076190D01*
X32933333Y-34076190D01*
X33933333Y-34028571D02*
X34266666Y-34028571D01*
X34409523Y-34552380D02*
X33933333Y-34552380D01*
X33933333Y-33552380D01*
X34409523Y-33552380D01*
X34790476Y-34266666D02*
X35266666Y-34266666D01*
X34695238Y-34552380D02*
X35028571Y-33552380D01*
X35361904Y-34552380D01*
X35695238Y-34552380D02*
X35695238Y-33552380D01*
X35933333Y-33552380D01*
X36076190Y-33600000D01*
X36171428Y-33695238D01*
X36219047Y-33790476D01*
X36266666Y-33980952D01*
X36266666Y-34123809D01*
X36219047Y-34314285D01*
X36171428Y-34409523D01*
X36076190Y-34504761D01*
X35933333Y-34552380D01*
X35695238Y-34552380D01*
X73961666Y-23745238D02*
X73961666Y-23269047D01*
X74247380Y-23840476D02*
X73247380Y-23507142D01*
X74247380Y-23173809D01*
X74247380Y-22840476D02*
X73580714Y-22840476D01*
X73771190Y-22840476D02*
X73675952Y-22792857D01*
X73628333Y-22745238D01*
X73580714Y-22650000D01*
X73580714Y-22554761D01*
X74247380Y-21792857D02*
X73247380Y-21792857D01*
X74199761Y-21792857D02*
X74247380Y-21888095D01*
X74247380Y-22078571D01*
X74199761Y-22173809D01*
X74152142Y-22221428D01*
X74056904Y-22269047D01*
X73771190Y-22269047D01*
X73675952Y-22221428D01*
X73628333Y-22173809D01*
X73580714Y-22078571D01*
X73580714Y-21888095D01*
X73628333Y-21792857D01*
X73580714Y-20888095D02*
X74247380Y-20888095D01*
X73580714Y-21316666D02*
X74104523Y-21316666D01*
X74199761Y-21269047D01*
X74247380Y-21173809D01*
X74247380Y-21030952D01*
X74199761Y-20935714D01*
X74152142Y-20888095D01*
X74247380Y-20411904D02*
X73580714Y-20411904D01*
X73247380Y-20411904D02*
X73295000Y-20459523D01*
X73342619Y-20411904D01*
X73295000Y-20364285D01*
X73247380Y-20411904D01*
X73342619Y-20411904D01*
X73580714Y-19935714D02*
X74247380Y-19935714D01*
X73675952Y-19935714D02*
X73628333Y-19888095D01*
X73580714Y-19792857D01*
X73580714Y-19650000D01*
X73628333Y-19554761D01*
X73723571Y-19507142D01*
X74247380Y-19507142D01*
X74247380Y-18888095D02*
X74199761Y-18983333D01*
X74152142Y-19030952D01*
X74056904Y-19078571D01*
X73771190Y-19078571D01*
X73675952Y-19030952D01*
X73628333Y-18983333D01*
X73580714Y-18888095D01*
X73580714Y-18745238D01*
X73628333Y-18650000D01*
X73675952Y-18602380D01*
X73771190Y-18554761D01*
X74056904Y-18554761D01*
X74152142Y-18602380D01*
X74199761Y-18650000D01*
X74247380Y-18745238D01*
X74247380Y-18888095D01*
X74857380Y-22792857D02*
X75666904Y-22792857D01*
X75762142Y-22745238D01*
X75809761Y-22697619D01*
X75857380Y-22602380D01*
X75857380Y-22411904D01*
X75809761Y-22316666D01*
X75762142Y-22269047D01*
X75666904Y-22221428D01*
X74857380Y-22221428D01*
X75809761Y-21792857D02*
X75857380Y-21650000D01*
X75857380Y-21411904D01*
X75809761Y-21316666D01*
X75762142Y-21269047D01*
X75666904Y-21221428D01*
X75571666Y-21221428D01*
X75476428Y-21269047D01*
X75428809Y-21316666D01*
X75381190Y-21411904D01*
X75333571Y-21602380D01*
X75285952Y-21697619D01*
X75238333Y-21745238D01*
X75143095Y-21792857D01*
X75047857Y-21792857D01*
X74952619Y-21745238D01*
X74905000Y-21697619D01*
X74857380Y-21602380D01*
X74857380Y-21364285D01*
X74905000Y-21221428D01*
X75333571Y-20459523D02*
X75381190Y-20316666D01*
X75428809Y-20269047D01*
X75524047Y-20221428D01*
X75666904Y-20221428D01*
X75762142Y-20269047D01*
X75809761Y-20316666D01*
X75857380Y-20411904D01*
X75857380Y-20792857D01*
X74857380Y-20792857D01*
X74857380Y-20459523D01*
X74905000Y-20364285D01*
X74952619Y-20316666D01*
X75047857Y-20269047D01*
X75143095Y-20269047D01*
X75238333Y-20316666D01*
X75285952Y-20364285D01*
X75333571Y-20459523D01*
X75333571Y-20792857D01*
X19218571Y-27738095D02*
X19218571Y-27404761D01*
X19742380Y-27261904D02*
X19742380Y-27738095D01*
X18742380Y-27738095D01*
X18742380Y-27261904D01*
X19742380Y-26833333D02*
X18742380Y-26833333D01*
X19742380Y-26261904D01*
X18742380Y-26261904D01*
%TO.C,C3*%
X37407142Y-7696666D02*
X37454761Y-7744285D01*
X37502380Y-7887142D01*
X37502380Y-7982380D01*
X37454761Y-8125238D01*
X37359523Y-8220476D01*
X37264285Y-8268095D01*
X37073809Y-8315714D01*
X36930952Y-8315714D01*
X36740476Y-8268095D01*
X36645238Y-8220476D01*
X36550000Y-8125238D01*
X36502380Y-7982380D01*
X36502380Y-7887142D01*
X36550000Y-7744285D01*
X36597619Y-7696666D01*
X36502380Y-7363333D02*
X36502380Y-6744285D01*
X36883333Y-7077619D01*
X36883333Y-6934761D01*
X36930952Y-6839523D01*
X36978571Y-6791904D01*
X37073809Y-6744285D01*
X37311904Y-6744285D01*
X37407142Y-6791904D01*
X37454761Y-6839523D01*
X37502380Y-6934761D01*
X37502380Y-7220476D01*
X37454761Y-7315714D01*
X37407142Y-7363333D01*
%TO.C,R14*%
X63357142Y-22952380D02*
X63023809Y-22476190D01*
X62785714Y-22952380D02*
X62785714Y-21952380D01*
X63166666Y-21952380D01*
X63261904Y-22000000D01*
X63309523Y-22047619D01*
X63357142Y-22142857D01*
X63357142Y-22285714D01*
X63309523Y-22380952D01*
X63261904Y-22428571D01*
X63166666Y-22476190D01*
X62785714Y-22476190D01*
X64309523Y-22952380D02*
X63738095Y-22952380D01*
X64023809Y-22952380D02*
X64023809Y-21952380D01*
X63928571Y-22095238D01*
X63833333Y-22190476D01*
X63738095Y-22238095D01*
X65166666Y-22285714D02*
X65166666Y-22952380D01*
X64928571Y-21904761D02*
X64690476Y-22619047D01*
X65309523Y-22619047D01*
%TO.C,RV1*%
X16202380Y-4795238D02*
X15726190Y-5128571D01*
X16202380Y-5366666D02*
X15202380Y-5366666D01*
X15202380Y-4985714D01*
X15250000Y-4890476D01*
X15297619Y-4842857D01*
X15392857Y-4795238D01*
X15535714Y-4795238D01*
X15630952Y-4842857D01*
X15678571Y-4890476D01*
X15726190Y-4985714D01*
X15726190Y-5366666D01*
X15202380Y-4509523D02*
X16202380Y-4176190D01*
X15202380Y-3842857D01*
X16202380Y-2985714D02*
X16202380Y-3557142D01*
X16202380Y-3271428D02*
X15202380Y-3271428D01*
X15345238Y-3366666D01*
X15440476Y-3461904D01*
X15488095Y-3557142D01*
%TO.C,HT3*%
X707142Y-1202380D02*
X707142Y-202380D01*
X707142Y-678571D02*
X1278571Y-678571D01*
X1278571Y-1202380D02*
X1278571Y-202380D01*
X1611904Y-202380D02*
X2183333Y-202380D01*
X1897619Y-1202380D02*
X1897619Y-202380D01*
X2421428Y-202380D02*
X3040476Y-202380D01*
X2707142Y-583333D01*
X2850000Y-583333D01*
X2945238Y-630952D01*
X2992857Y-678571D01*
X3040476Y-773809D01*
X3040476Y-1011904D01*
X2992857Y-1107142D01*
X2945238Y-1154761D01*
X2850000Y-1202380D01*
X2564285Y-1202380D01*
X2469047Y-1154761D01*
X2421428Y-1107142D01*
%TO.C,C13*%
X20167142Y-25272857D02*
X20214761Y-25320476D01*
X20262380Y-25463333D01*
X20262380Y-25558571D01*
X20214761Y-25701428D01*
X20119523Y-25796666D01*
X20024285Y-25844285D01*
X19833809Y-25891904D01*
X19690952Y-25891904D01*
X19500476Y-25844285D01*
X19405238Y-25796666D01*
X19310000Y-25701428D01*
X19262380Y-25558571D01*
X19262380Y-25463333D01*
X19310000Y-25320476D01*
X19357619Y-25272857D01*
X20262380Y-24320476D02*
X20262380Y-24891904D01*
X20262380Y-24606190D02*
X19262380Y-24606190D01*
X19405238Y-24701428D01*
X19500476Y-24796666D01*
X19548095Y-24891904D01*
X19262380Y-23987142D02*
X19262380Y-23368095D01*
X19643333Y-23701428D01*
X19643333Y-23558571D01*
X19690952Y-23463333D01*
X19738571Y-23415714D01*
X19833809Y-23368095D01*
X20071904Y-23368095D01*
X20167142Y-23415714D01*
X20214761Y-23463333D01*
X20262380Y-23558571D01*
X20262380Y-23844285D01*
X20214761Y-23939523D01*
X20167142Y-23987142D01*
%TO.C,R6*%
X9733333Y-46652380D02*
X9400000Y-46176190D01*
X9161904Y-46652380D02*
X9161904Y-45652380D01*
X9542857Y-45652380D01*
X9638095Y-45700000D01*
X9685714Y-45747619D01*
X9733333Y-45842857D01*
X9733333Y-45985714D01*
X9685714Y-46080952D01*
X9638095Y-46128571D01*
X9542857Y-46176190D01*
X9161904Y-46176190D01*
X10590476Y-45652380D02*
X10400000Y-45652380D01*
X10304761Y-45700000D01*
X10257142Y-45747619D01*
X10161904Y-45890476D01*
X10114285Y-46080952D01*
X10114285Y-46461904D01*
X10161904Y-46557142D01*
X10209523Y-46604761D01*
X10304761Y-46652380D01*
X10495238Y-46652380D01*
X10590476Y-46604761D01*
X10638095Y-46557142D01*
X10685714Y-46461904D01*
X10685714Y-46223809D01*
X10638095Y-46128571D01*
X10590476Y-46080952D01*
X10495238Y-46033333D01*
X10304761Y-46033333D01*
X10209523Y-46080952D01*
X10161904Y-46128571D01*
X10114285Y-46223809D01*
%TO.C,J6*%
X62302380Y-8333333D02*
X63016666Y-8333333D01*
X63159523Y-8380952D01*
X63254761Y-8476190D01*
X63302380Y-8619047D01*
X63302380Y-8714285D01*
X62302380Y-7428571D02*
X62302380Y-7619047D01*
X62350000Y-7714285D01*
X62397619Y-7761904D01*
X62540476Y-7857142D01*
X62730952Y-7904761D01*
X63111904Y-7904761D01*
X63207142Y-7857142D01*
X63254761Y-7809523D01*
X63302380Y-7714285D01*
X63302380Y-7523809D01*
X63254761Y-7428571D01*
X63207142Y-7380952D01*
X63111904Y-7333333D01*
X62873809Y-7333333D01*
X62778571Y-7380952D01*
X62730952Y-7428571D01*
X62683333Y-7523809D01*
X62683333Y-7714285D01*
X62730952Y-7809523D01*
X62778571Y-7857142D01*
X62873809Y-7904761D01*
%TO.C,J7*%
X63666666Y-3209880D02*
X63666666Y-3924166D01*
X63619047Y-4067023D01*
X63523809Y-4162261D01*
X63380952Y-4209880D01*
X63285714Y-4209880D01*
X64047619Y-3209880D02*
X64714285Y-3209880D01*
X64285714Y-4209880D01*
%TO.C,R7*%
X30827380Y-23891666D02*
X30351190Y-24225000D01*
X30827380Y-24463095D02*
X29827380Y-24463095D01*
X29827380Y-24082142D01*
X29875000Y-23986904D01*
X29922619Y-23939285D01*
X30017857Y-23891666D01*
X30160714Y-23891666D01*
X30255952Y-23939285D01*
X30303571Y-23986904D01*
X30351190Y-24082142D01*
X30351190Y-24463095D01*
X29827380Y-23558333D02*
X29827380Y-22891666D01*
X30827380Y-23320238D01*
%TO.C,HT4*%
X73732142Y-1302380D02*
X73732142Y-302380D01*
X73732142Y-778571D02*
X74303571Y-778571D01*
X74303571Y-1302380D02*
X74303571Y-302380D01*
X74636904Y-302380D02*
X75208333Y-302380D01*
X74922619Y-1302380D02*
X74922619Y-302380D01*
X75970238Y-635714D02*
X75970238Y-1302380D01*
X75732142Y-254761D02*
X75494047Y-969047D01*
X76113095Y-969047D01*
%TO.C,H5*%
X71238095Y-39602380D02*
X71238095Y-38602380D01*
X71238095Y-39078571D02*
X71809523Y-39078571D01*
X71809523Y-39602380D02*
X71809523Y-38602380D01*
X72761904Y-38602380D02*
X72285714Y-38602380D01*
X72238095Y-39078571D01*
X72285714Y-39030952D01*
X72380952Y-38983333D01*
X72619047Y-38983333D01*
X72714285Y-39030952D01*
X72761904Y-39078571D01*
X72809523Y-39173809D01*
X72809523Y-39411904D01*
X72761904Y-39507142D01*
X72714285Y-39554761D01*
X72619047Y-39602380D01*
X72380952Y-39602380D01*
X72285714Y-39554761D01*
X72238095Y-39507142D01*
%TO.C,D1*%
X51692380Y-35573095D02*
X50692380Y-35573095D01*
X50692380Y-35335000D01*
X50740000Y-35192142D01*
X50835238Y-35096904D01*
X50930476Y-35049285D01*
X51120952Y-35001666D01*
X51263809Y-35001666D01*
X51454285Y-35049285D01*
X51549523Y-35096904D01*
X51644761Y-35192142D01*
X51692380Y-35335000D01*
X51692380Y-35573095D01*
X51692380Y-34049285D02*
X51692380Y-34620714D01*
X51692380Y-34335000D02*
X50692380Y-34335000D01*
X50835238Y-34430238D01*
X50930476Y-34525476D01*
X50978095Y-34620714D01*
%TO.C,A1*%
X35241666Y-31514285D02*
X35241666Y-31038095D01*
X35527380Y-31609523D02*
X34527380Y-31276190D01*
X35527380Y-30942857D01*
X35527380Y-30085714D02*
X35527380Y-30657142D01*
X35527380Y-30371428D02*
X34527380Y-30371428D01*
X34670238Y-30466666D01*
X34765476Y-30561904D01*
X34813095Y-30657142D01*
%TO.C,C12*%
X18467142Y-14412857D02*
X18514761Y-14460476D01*
X18562380Y-14603333D01*
X18562380Y-14698571D01*
X18514761Y-14841428D01*
X18419523Y-14936666D01*
X18324285Y-14984285D01*
X18133809Y-15031904D01*
X17990952Y-15031904D01*
X17800476Y-14984285D01*
X17705238Y-14936666D01*
X17610000Y-14841428D01*
X17562380Y-14698571D01*
X17562380Y-14603333D01*
X17610000Y-14460476D01*
X17657619Y-14412857D01*
X18562380Y-13460476D02*
X18562380Y-14031904D01*
X18562380Y-13746190D02*
X17562380Y-13746190D01*
X17705238Y-13841428D01*
X17800476Y-13936666D01*
X17848095Y-14031904D01*
X17657619Y-13079523D02*
X17610000Y-13031904D01*
X17562380Y-12936666D01*
X17562380Y-12698571D01*
X17610000Y-12603333D01*
X17657619Y-12555714D01*
X17752857Y-12508095D01*
X17848095Y-12508095D01*
X17990952Y-12555714D01*
X18562380Y-13127142D01*
X18562380Y-12508095D01*
%TO.C,J4*%
X73352380Y-25673333D02*
X74066666Y-25673333D01*
X74209523Y-25720952D01*
X74304761Y-25816190D01*
X74352380Y-25959047D01*
X74352380Y-26054285D01*
X73685714Y-24768571D02*
X74352380Y-24768571D01*
X73304761Y-25006666D02*
X74019047Y-25244761D01*
X74019047Y-24625714D01*
%TO.C,HT2*%
X63882142Y-55052380D02*
X63882142Y-54052380D01*
X63882142Y-54528571D02*
X64453571Y-54528571D01*
X64453571Y-55052380D02*
X64453571Y-54052380D01*
X64786904Y-54052380D02*
X65358333Y-54052380D01*
X65072619Y-55052380D02*
X65072619Y-54052380D01*
X65644047Y-54147619D02*
X65691666Y-54100000D01*
X65786904Y-54052380D01*
X66025000Y-54052380D01*
X66120238Y-54100000D01*
X66167857Y-54147619D01*
X66215476Y-54242857D01*
X66215476Y-54338095D01*
X66167857Y-54480952D01*
X65596428Y-55052380D01*
X66215476Y-55052380D01*
%TO.C,H2*%
X7638095Y-1327380D02*
X7638095Y-327380D01*
X7638095Y-803571D02*
X8209523Y-803571D01*
X8209523Y-1327380D02*
X8209523Y-327380D01*
X8638095Y-422619D02*
X8685714Y-375000D01*
X8780952Y-327380D01*
X9019047Y-327380D01*
X9114285Y-375000D01*
X9161904Y-422619D01*
X9209523Y-517857D01*
X9209523Y-613095D01*
X9161904Y-755952D01*
X8590476Y-1327380D01*
X9209523Y-1327380D01*
%TO.C,L3*%
X8402380Y-33766666D02*
X8402380Y-34242857D01*
X7402380Y-34242857D01*
X7402380Y-33528571D02*
X7402380Y-32909523D01*
X7783333Y-33242857D01*
X7783333Y-33100000D01*
X7830952Y-33004761D01*
X7878571Y-32957142D01*
X7973809Y-32909523D01*
X8211904Y-32909523D01*
X8307142Y-32957142D01*
X8354761Y-33004761D01*
X8402380Y-33100000D01*
X8402380Y-33385714D01*
X8354761Y-33480952D01*
X8307142Y-33528571D01*
%TO.C,R9*%
X38313333Y-27512380D02*
X37980000Y-27036190D01*
X37741904Y-27512380D02*
X37741904Y-26512380D01*
X38122857Y-26512380D01*
X38218095Y-26560000D01*
X38265714Y-26607619D01*
X38313333Y-26702857D01*
X38313333Y-26845714D01*
X38265714Y-26940952D01*
X38218095Y-26988571D01*
X38122857Y-27036190D01*
X37741904Y-27036190D01*
X38789523Y-27512380D02*
X38980000Y-27512380D01*
X39075238Y-27464761D01*
X39122857Y-27417142D01*
X39218095Y-27274285D01*
X39265714Y-27083809D01*
X39265714Y-26702857D01*
X39218095Y-26607619D01*
X39170476Y-26560000D01*
X39075238Y-26512380D01*
X38884761Y-26512380D01*
X38789523Y-26560000D01*
X38741904Y-26607619D01*
X38694285Y-26702857D01*
X38694285Y-26940952D01*
X38741904Y-27036190D01*
X38789523Y-27083809D01*
X38884761Y-27131428D01*
X39075238Y-27131428D01*
X39170476Y-27083809D01*
X39218095Y-27036190D01*
X39265714Y-26940952D01*
%TO.C,JP6*%
X22166666Y-8952380D02*
X22166666Y-9666666D01*
X22119047Y-9809523D01*
X22023809Y-9904761D01*
X21880952Y-9952380D01*
X21785714Y-9952380D01*
X22642857Y-9952380D02*
X22642857Y-8952380D01*
X23023809Y-8952380D01*
X23119047Y-9000000D01*
X23166666Y-9047619D01*
X23214285Y-9142857D01*
X23214285Y-9285714D01*
X23166666Y-9380952D01*
X23119047Y-9428571D01*
X23023809Y-9476190D01*
X22642857Y-9476190D01*
X24071428Y-8952380D02*
X23880952Y-8952380D01*
X23785714Y-9000000D01*
X23738095Y-9047619D01*
X23642857Y-9190476D01*
X23595238Y-9380952D01*
X23595238Y-9761904D01*
X23642857Y-9857142D01*
X23690476Y-9904761D01*
X23785714Y-9952380D01*
X23976190Y-9952380D01*
X24071428Y-9904761D01*
X24119047Y-9857142D01*
X24166666Y-9761904D01*
X24166666Y-9523809D01*
X24119047Y-9428571D01*
X24071428Y-9380952D01*
X23976190Y-9333333D01*
X23785714Y-9333333D01*
X23690476Y-9380952D01*
X23642857Y-9428571D01*
X23595238Y-9523809D01*
%TO.C,H4*%
X12238095Y397619D02*
X12238095Y1397619D01*
X12238095Y921428D02*
X12809523Y921428D01*
X12809523Y397619D02*
X12809523Y1397619D01*
X13714285Y1064285D02*
X13714285Y397619D01*
X13476190Y1445238D02*
X13238095Y730952D01*
X13857142Y730952D01*
%TO.C,SW1*%
X35366666Y-44004761D02*
X35509523Y-44052380D01*
X35747619Y-44052380D01*
X35842857Y-44004761D01*
X35890476Y-43957142D01*
X35938095Y-43861904D01*
X35938095Y-43766666D01*
X35890476Y-43671428D01*
X35842857Y-43623809D01*
X35747619Y-43576190D01*
X35557142Y-43528571D01*
X35461904Y-43480952D01*
X35414285Y-43433333D01*
X35366666Y-43338095D01*
X35366666Y-43242857D01*
X35414285Y-43147619D01*
X35461904Y-43100000D01*
X35557142Y-43052380D01*
X35795238Y-43052380D01*
X35938095Y-43100000D01*
X36271428Y-43052380D02*
X36509523Y-44052380D01*
X36700000Y-43338095D01*
X36890476Y-44052380D01*
X37128571Y-43052380D01*
X38033333Y-44052380D02*
X37461904Y-44052380D01*
X37747619Y-44052380D02*
X37747619Y-43052380D01*
X37652380Y-43195238D01*
X37557142Y-43290476D01*
X37461904Y-43338095D01*
%TO.C,R4*%
X12222380Y-42666666D02*
X11746190Y-43000000D01*
X12222380Y-43238095D02*
X11222380Y-43238095D01*
X11222380Y-42857142D01*
X11270000Y-42761904D01*
X11317619Y-42714285D01*
X11412857Y-42666666D01*
X11555714Y-42666666D01*
X11650952Y-42714285D01*
X11698571Y-42761904D01*
X11746190Y-42857142D01*
X11746190Y-43238095D01*
X11555714Y-41809523D02*
X12222380Y-41809523D01*
X11174761Y-42047619D02*
X11889047Y-42285714D01*
X11889047Y-41666666D01*
%TO.C,C5*%
X16332142Y-44766666D02*
X16379761Y-44814285D01*
X16427380Y-44957142D01*
X16427380Y-45052380D01*
X16379761Y-45195238D01*
X16284523Y-45290476D01*
X16189285Y-45338095D01*
X15998809Y-45385714D01*
X15855952Y-45385714D01*
X15665476Y-45338095D01*
X15570238Y-45290476D01*
X15475000Y-45195238D01*
X15427380Y-45052380D01*
X15427380Y-44957142D01*
X15475000Y-44814285D01*
X15522619Y-44766666D01*
X15427380Y-43861904D02*
X15427380Y-44338095D01*
X15903571Y-44385714D01*
X15855952Y-44338095D01*
X15808333Y-44242857D01*
X15808333Y-44004761D01*
X15855952Y-43909523D01*
X15903571Y-43861904D01*
X15998809Y-43814285D01*
X16236904Y-43814285D01*
X16332142Y-43861904D01*
X16379761Y-43909523D01*
X16427380Y-44004761D01*
X16427380Y-44242857D01*
X16379761Y-44338095D01*
X16332142Y-44385714D01*
%TO.C,D3*%
X36492380Y-18058095D02*
X35492380Y-18058095D01*
X35492380Y-17820000D01*
X35540000Y-17677142D01*
X35635238Y-17581904D01*
X35730476Y-17534285D01*
X35920952Y-17486666D01*
X36063809Y-17486666D01*
X36254285Y-17534285D01*
X36349523Y-17581904D01*
X36444761Y-17677142D01*
X36492380Y-17820000D01*
X36492380Y-18058095D01*
X35492380Y-17153333D02*
X35492380Y-16534285D01*
X35873333Y-16867619D01*
X35873333Y-16724761D01*
X35920952Y-16629523D01*
X35968571Y-16581904D01*
X36063809Y-16534285D01*
X36301904Y-16534285D01*
X36397142Y-16581904D01*
X36444761Y-16629523D01*
X36492380Y-16724761D01*
X36492380Y-17010476D01*
X36444761Y-17105714D01*
X36397142Y-17153333D01*
%TO.C,C7*%
X28627142Y-23666666D02*
X28674761Y-23714285D01*
X28722380Y-23857142D01*
X28722380Y-23952380D01*
X28674761Y-24095238D01*
X28579523Y-24190476D01*
X28484285Y-24238095D01*
X28293809Y-24285714D01*
X28150952Y-24285714D01*
X27960476Y-24238095D01*
X27865238Y-24190476D01*
X27770000Y-24095238D01*
X27722380Y-23952380D01*
X27722380Y-23857142D01*
X27770000Y-23714285D01*
X27817619Y-23666666D01*
X27722380Y-23333333D02*
X27722380Y-22666666D01*
X28722380Y-23095238D01*
%TO.C,R12*%
X14977142Y-21452380D02*
X14643809Y-20976190D01*
X14405714Y-21452380D02*
X14405714Y-20452380D01*
X14786666Y-20452380D01*
X14881904Y-20500000D01*
X14929523Y-20547619D01*
X14977142Y-20642857D01*
X14977142Y-20785714D01*
X14929523Y-20880952D01*
X14881904Y-20928571D01*
X14786666Y-20976190D01*
X14405714Y-20976190D01*
X15929523Y-21452380D02*
X15358095Y-21452380D01*
X15643809Y-21452380D02*
X15643809Y-20452380D01*
X15548571Y-20595238D01*
X15453333Y-20690476D01*
X15358095Y-20738095D01*
X16310476Y-20547619D02*
X16358095Y-20500000D01*
X16453333Y-20452380D01*
X16691428Y-20452380D01*
X16786666Y-20500000D01*
X16834285Y-20547619D01*
X16881904Y-20642857D01*
X16881904Y-20738095D01*
X16834285Y-20880952D01*
X16262857Y-21452380D01*
X16881904Y-21452380D01*
%TO.C,J5*%
X73166666Y-16727380D02*
X73166666Y-17441666D01*
X73119047Y-17584523D01*
X73023809Y-17679761D01*
X72880952Y-17727380D01*
X72785714Y-17727380D01*
X74119047Y-16727380D02*
X73642857Y-16727380D01*
X73595238Y-17203571D01*
X73642857Y-17155952D01*
X73738095Y-17108333D01*
X73976190Y-17108333D01*
X74071428Y-17155952D01*
X74119047Y-17203571D01*
X74166666Y-17298809D01*
X74166666Y-17536904D01*
X74119047Y-17632142D01*
X74071428Y-17679761D01*
X73976190Y-17727380D01*
X73738095Y-17727380D01*
X73642857Y-17679761D01*
X73595238Y-17632142D01*
%TO.C,H1*%
X71238095Y-46752380D02*
X71238095Y-45752380D01*
X71238095Y-46228571D02*
X71809523Y-46228571D01*
X71809523Y-46752380D02*
X71809523Y-45752380D01*
X72809523Y-46752380D02*
X72238095Y-46752380D01*
X72523809Y-46752380D02*
X72523809Y-45752380D01*
X72428571Y-45895238D01*
X72333333Y-45990476D01*
X72238095Y-46038095D01*
%TO.C,U1*%
X19868095Y-34297380D02*
X19868095Y-35106904D01*
X19915714Y-35202142D01*
X19963333Y-35249761D01*
X20058571Y-35297380D01*
X20249047Y-35297380D01*
X20344285Y-35249761D01*
X20391904Y-35202142D01*
X20439523Y-35106904D01*
X20439523Y-34297380D01*
X21439523Y-35297380D02*
X20868095Y-35297380D01*
X21153809Y-35297380D02*
X21153809Y-34297380D01*
X21058571Y-34440238D01*
X20963333Y-34535476D01*
X20868095Y-34583095D01*
%TO.C,C10*%
X25327142Y-26397142D02*
X25279523Y-26444761D01*
X25136666Y-26492380D01*
X25041428Y-26492380D01*
X24898571Y-26444761D01*
X24803333Y-26349523D01*
X24755714Y-26254285D01*
X24708095Y-26063809D01*
X24708095Y-25920952D01*
X24755714Y-25730476D01*
X24803333Y-25635238D01*
X24898571Y-25540000D01*
X25041428Y-25492380D01*
X25136666Y-25492380D01*
X25279523Y-25540000D01*
X25327142Y-25587619D01*
X26279523Y-26492380D02*
X25708095Y-26492380D01*
X25993809Y-26492380D02*
X25993809Y-25492380D01*
X25898571Y-25635238D01*
X25803333Y-25730476D01*
X25708095Y-25778095D01*
X26898571Y-25492380D02*
X26993809Y-25492380D01*
X27089047Y-25540000D01*
X27136666Y-25587619D01*
X27184285Y-25682857D01*
X27231904Y-25873333D01*
X27231904Y-26111428D01*
X27184285Y-26301904D01*
X27136666Y-26397142D01*
X27089047Y-26444761D01*
X26993809Y-26492380D01*
X26898571Y-26492380D01*
X26803333Y-26444761D01*
X26755714Y-26397142D01*
X26708095Y-26301904D01*
X26660476Y-26111428D01*
X26660476Y-25873333D01*
X26708095Y-25682857D01*
X26755714Y-25587619D01*
X26803333Y-25540000D01*
X26898571Y-25492380D01*
%TO.C,L1*%
X9033333Y-38252380D02*
X8557142Y-38252380D01*
X8557142Y-37252380D01*
X9890476Y-38252380D02*
X9319047Y-38252380D01*
X9604761Y-38252380D02*
X9604761Y-37252380D01*
X9509523Y-37395238D01*
X9414285Y-37490476D01*
X9319047Y-37538095D01*
%TO.C,R15*%
X63357142Y-20952380D02*
X63023809Y-20476190D01*
X62785714Y-20952380D02*
X62785714Y-19952380D01*
X63166666Y-19952380D01*
X63261904Y-20000000D01*
X63309523Y-20047619D01*
X63357142Y-20142857D01*
X63357142Y-20285714D01*
X63309523Y-20380952D01*
X63261904Y-20428571D01*
X63166666Y-20476190D01*
X62785714Y-20476190D01*
X64309523Y-20952380D02*
X63738095Y-20952380D01*
X64023809Y-20952380D02*
X64023809Y-19952380D01*
X63928571Y-20095238D01*
X63833333Y-20190476D01*
X63738095Y-20238095D01*
X65214285Y-19952380D02*
X64738095Y-19952380D01*
X64690476Y-20428571D01*
X64738095Y-20380952D01*
X64833333Y-20333333D01*
X65071428Y-20333333D01*
X65166666Y-20380952D01*
X65214285Y-20428571D01*
X65261904Y-20523809D01*
X65261904Y-20761904D01*
X65214285Y-20857142D01*
X65166666Y-20904761D01*
X65071428Y-20952380D01*
X64833333Y-20952380D01*
X64738095Y-20904761D01*
X64690476Y-20857142D01*
%TO.C,R11*%
X24327142Y-12282380D02*
X23993809Y-11806190D01*
X23755714Y-12282380D02*
X23755714Y-11282380D01*
X24136666Y-11282380D01*
X24231904Y-11330000D01*
X24279523Y-11377619D01*
X24327142Y-11472857D01*
X24327142Y-11615714D01*
X24279523Y-11710952D01*
X24231904Y-11758571D01*
X24136666Y-11806190D01*
X23755714Y-11806190D01*
X25279523Y-12282380D02*
X24708095Y-12282380D01*
X24993809Y-12282380D02*
X24993809Y-11282380D01*
X24898571Y-11425238D01*
X24803333Y-11520476D01*
X24708095Y-11568095D01*
X26231904Y-12282380D02*
X25660476Y-12282380D01*
X25946190Y-12282380D02*
X25946190Y-11282380D01*
X25850952Y-11425238D01*
X25755714Y-11520476D01*
X25660476Y-11568095D01*
%TO.C,J8*%
X407380Y-21273333D02*
X1121666Y-21273333D01*
X1264523Y-21320952D01*
X1359761Y-21416190D01*
X1407380Y-21559047D01*
X1407380Y-21654285D01*
X835952Y-20654285D02*
X788333Y-20749523D01*
X740714Y-20797142D01*
X645476Y-20844761D01*
X597857Y-20844761D01*
X502619Y-20797142D01*
X455000Y-20749523D01*
X407380Y-20654285D01*
X407380Y-20463809D01*
X455000Y-20368571D01*
X502619Y-20320952D01*
X597857Y-20273333D01*
X645476Y-20273333D01*
X740714Y-20320952D01*
X788333Y-20368571D01*
X835952Y-20463809D01*
X835952Y-20654285D01*
X883571Y-20749523D01*
X931190Y-20797142D01*
X1026428Y-20844761D01*
X1216904Y-20844761D01*
X1312142Y-20797142D01*
X1359761Y-20749523D01*
X1407380Y-20654285D01*
X1407380Y-20463809D01*
X1359761Y-20368571D01*
X1312142Y-20320952D01*
X1216904Y-20273333D01*
X1026428Y-20273333D01*
X931190Y-20320952D01*
X883571Y-20368571D01*
X835952Y-20463809D01*
%TO.C,R5*%
X8853333Y-41452380D02*
X8520000Y-40976190D01*
X8281904Y-41452380D02*
X8281904Y-40452380D01*
X8662857Y-40452380D01*
X8758095Y-40500000D01*
X8805714Y-40547619D01*
X8853333Y-40642857D01*
X8853333Y-40785714D01*
X8805714Y-40880952D01*
X8758095Y-40928571D01*
X8662857Y-40976190D01*
X8281904Y-40976190D01*
X9758095Y-40452380D02*
X9281904Y-40452380D01*
X9234285Y-40928571D01*
X9281904Y-40880952D01*
X9377142Y-40833333D01*
X9615238Y-40833333D01*
X9710476Y-40880952D01*
X9758095Y-40928571D01*
X9805714Y-41023809D01*
X9805714Y-41261904D01*
X9758095Y-41357142D01*
X9710476Y-41404761D01*
X9615238Y-41452380D01*
X9377142Y-41452380D01*
X9281904Y-41404761D01*
X9234285Y-41357142D01*
%TO.C,H7*%
X19238095Y-46952380D02*
X19238095Y-45952380D01*
X19238095Y-46428571D02*
X19809523Y-46428571D01*
X19809523Y-46952380D02*
X19809523Y-45952380D01*
X20190476Y-45952380D02*
X20857142Y-45952380D01*
X20428571Y-46952380D01*
%TO.C,L2*%
X30152380Y-36666666D02*
X30152380Y-37142857D01*
X29152380Y-37142857D01*
X29247619Y-36380952D02*
X29200000Y-36333333D01*
X29152380Y-36238095D01*
X29152380Y-36000000D01*
X29200000Y-35904761D01*
X29247619Y-35857142D01*
X29342857Y-35809523D01*
X29438095Y-35809523D01*
X29580952Y-35857142D01*
X30152380Y-36428571D01*
X30152380Y-35809523D01*
%TO.C,R13*%
X15027142Y-20022380D02*
X14693809Y-19546190D01*
X14455714Y-20022380D02*
X14455714Y-19022380D01*
X14836666Y-19022380D01*
X14931904Y-19070000D01*
X14979523Y-19117619D01*
X15027142Y-19212857D01*
X15027142Y-19355714D01*
X14979523Y-19450952D01*
X14931904Y-19498571D01*
X14836666Y-19546190D01*
X14455714Y-19546190D01*
X15979523Y-20022380D02*
X15408095Y-20022380D01*
X15693809Y-20022380D02*
X15693809Y-19022380D01*
X15598571Y-19165238D01*
X15503333Y-19260476D01*
X15408095Y-19308095D01*
X16312857Y-19022380D02*
X16931904Y-19022380D01*
X16598571Y-19403333D01*
X16741428Y-19403333D01*
X16836666Y-19450952D01*
X16884285Y-19498571D01*
X16931904Y-19593809D01*
X16931904Y-19831904D01*
X16884285Y-19927142D01*
X16836666Y-19974761D01*
X16741428Y-20022380D01*
X16455714Y-20022380D01*
X16360476Y-19974761D01*
X16312857Y-19927142D01*
%TO.C,C4*%
X5833333Y-44957142D02*
X5785714Y-45004761D01*
X5642857Y-45052380D01*
X5547619Y-45052380D01*
X5404761Y-45004761D01*
X5309523Y-44909523D01*
X5261904Y-44814285D01*
X5214285Y-44623809D01*
X5214285Y-44480952D01*
X5261904Y-44290476D01*
X5309523Y-44195238D01*
X5404761Y-44100000D01*
X5547619Y-44052380D01*
X5642857Y-44052380D01*
X5785714Y-44100000D01*
X5833333Y-44147619D01*
X6690476Y-44385714D02*
X6690476Y-45052380D01*
X6452380Y-44004761D02*
X6214285Y-44719047D01*
X6833333Y-44719047D01*
%TO.C,H3*%
X11238095Y-50852380D02*
X11238095Y-49852380D01*
X11238095Y-50328571D02*
X11809523Y-50328571D01*
X11809523Y-50852380D02*
X11809523Y-49852380D01*
X12190476Y-49852380D02*
X12809523Y-49852380D01*
X12476190Y-50233333D01*
X12619047Y-50233333D01*
X12714285Y-50280952D01*
X12761904Y-50328571D01*
X12809523Y-50423809D01*
X12809523Y-50661904D01*
X12761904Y-50757142D01*
X12714285Y-50804761D01*
X12619047Y-50852380D01*
X12333333Y-50852380D01*
X12238095Y-50804761D01*
X12190476Y-50757142D01*
%TO.C,HT1*%
X5857142Y-55077380D02*
X5857142Y-54077380D01*
X5857142Y-54553571D02*
X6428571Y-54553571D01*
X6428571Y-55077380D02*
X6428571Y-54077380D01*
X6761904Y-54077380D02*
X7333333Y-54077380D01*
X7047619Y-55077380D02*
X7047619Y-54077380D01*
X8190476Y-55077380D02*
X7619047Y-55077380D01*
X7904761Y-55077380D02*
X7904761Y-54077380D01*
X7809523Y-54220238D01*
X7714285Y-54315476D01*
X7619047Y-54363095D01*
%TO.C,C2*%
X7957142Y-37466666D02*
X8004761Y-37514285D01*
X8052380Y-37657142D01*
X8052380Y-37752380D01*
X8004761Y-37895238D01*
X7909523Y-37990476D01*
X7814285Y-38038095D01*
X7623809Y-38085714D01*
X7480952Y-38085714D01*
X7290476Y-38038095D01*
X7195238Y-37990476D01*
X7100000Y-37895238D01*
X7052380Y-37752380D01*
X7052380Y-37657142D01*
X7100000Y-37514285D01*
X7147619Y-37466666D01*
X7147619Y-37085714D02*
X7100000Y-37038095D01*
X7052380Y-36942857D01*
X7052380Y-36704761D01*
X7100000Y-36609523D01*
X7147619Y-36561904D01*
X7242857Y-36514285D01*
X7338095Y-36514285D01*
X7480952Y-36561904D01*
X8052380Y-37133333D01*
X8052380Y-36514285D01*
%TO.C,C6*%
X29457142Y-49716666D02*
X29504761Y-49764285D01*
X29552380Y-49907142D01*
X29552380Y-50002380D01*
X29504761Y-50145238D01*
X29409523Y-50240476D01*
X29314285Y-50288095D01*
X29123809Y-50335714D01*
X28980952Y-50335714D01*
X28790476Y-50288095D01*
X28695238Y-50240476D01*
X28600000Y-50145238D01*
X28552380Y-50002380D01*
X28552380Y-49907142D01*
X28600000Y-49764285D01*
X28647619Y-49716666D01*
X28552380Y-48859523D02*
X28552380Y-49050000D01*
X28600000Y-49145238D01*
X28647619Y-49192857D01*
X28790476Y-49288095D01*
X28980952Y-49335714D01*
X29361904Y-49335714D01*
X29457142Y-49288095D01*
X29504761Y-49240476D01*
X29552380Y-49145238D01*
X29552380Y-48954761D01*
X29504761Y-48859523D01*
X29457142Y-48811904D01*
X29361904Y-48764285D01*
X29123809Y-48764285D01*
X29028571Y-48811904D01*
X28980952Y-48859523D01*
X28933333Y-48954761D01*
X28933333Y-49145238D01*
X28980952Y-49240476D01*
X29028571Y-49288095D01*
X29123809Y-49335714D01*
%TO.C,U2*%
X18032380Y-21151904D02*
X18841904Y-21151904D01*
X18937142Y-21104285D01*
X18984761Y-21056666D01*
X19032380Y-20961428D01*
X19032380Y-20770952D01*
X18984761Y-20675714D01*
X18937142Y-20628095D01*
X18841904Y-20580476D01*
X18032380Y-20580476D01*
X18127619Y-20151904D02*
X18080000Y-20104285D01*
X18032380Y-20009047D01*
X18032380Y-19770952D01*
X18080000Y-19675714D01*
X18127619Y-19628095D01*
X18222857Y-19580476D01*
X18318095Y-19580476D01*
X18460952Y-19628095D01*
X19032380Y-20199523D01*
X19032380Y-19580476D01*
%TO.C,R8*%
X27533333Y-38252380D02*
X27200000Y-37776190D01*
X26961904Y-38252380D02*
X26961904Y-37252380D01*
X27342857Y-37252380D01*
X27438095Y-37300000D01*
X27485714Y-37347619D01*
X27533333Y-37442857D01*
X27533333Y-37585714D01*
X27485714Y-37680952D01*
X27438095Y-37728571D01*
X27342857Y-37776190D01*
X26961904Y-37776190D01*
X28104761Y-37680952D02*
X28009523Y-37633333D01*
X27961904Y-37585714D01*
X27914285Y-37490476D01*
X27914285Y-37442857D01*
X27961904Y-37347619D01*
X28009523Y-37300000D01*
X28104761Y-37252380D01*
X28295238Y-37252380D01*
X28390476Y-37300000D01*
X28438095Y-37347619D01*
X28485714Y-37442857D01*
X28485714Y-37490476D01*
X28438095Y-37585714D01*
X28390476Y-37633333D01*
X28295238Y-37680952D01*
X28104761Y-37680952D01*
X28009523Y-37728571D01*
X27961904Y-37776190D01*
X27914285Y-37871428D01*
X27914285Y-38061904D01*
X27961904Y-38157142D01*
X28009523Y-38204761D01*
X28104761Y-38252380D01*
X28295238Y-38252380D01*
X28390476Y-38204761D01*
X28438095Y-38157142D01*
X28485714Y-38061904D01*
X28485714Y-37871428D01*
X28438095Y-37776190D01*
X28390476Y-37728571D01*
X28295238Y-37680952D01*
%TO.C,D2*%
X30142380Y-28698095D02*
X29142380Y-28698095D01*
X29142380Y-28460000D01*
X29190000Y-28317142D01*
X29285238Y-28221904D01*
X29380476Y-28174285D01*
X29570952Y-28126666D01*
X29713809Y-28126666D01*
X29904285Y-28174285D01*
X29999523Y-28221904D01*
X30094761Y-28317142D01*
X30142380Y-28460000D01*
X30142380Y-28698095D01*
X29237619Y-27745714D02*
X29190000Y-27698095D01*
X29142380Y-27602857D01*
X29142380Y-27364761D01*
X29190000Y-27269523D01*
X29237619Y-27221904D01*
X29332857Y-27174285D01*
X29428095Y-27174285D01*
X29570952Y-27221904D01*
X30142380Y-27793333D01*
X30142380Y-27174285D01*
%TO.C,J3*%
X35402380Y-10573333D02*
X36116666Y-10573333D01*
X36259523Y-10620952D01*
X36354761Y-10716190D01*
X36402380Y-10859047D01*
X36402380Y-10954285D01*
X35402380Y-10192380D02*
X35402380Y-9573333D01*
X35783333Y-9906666D01*
X35783333Y-9763809D01*
X35830952Y-9668571D01*
X35878571Y-9620952D01*
X35973809Y-9573333D01*
X36211904Y-9573333D01*
X36307142Y-9620952D01*
X36354761Y-9668571D01*
X36402380Y-9763809D01*
X36402380Y-10049523D01*
X36354761Y-10144761D01*
X36307142Y-10192380D01*
%TO.C,R2*%
X45633333Y-19192380D02*
X45300000Y-18716190D01*
X45061904Y-19192380D02*
X45061904Y-18192380D01*
X45442857Y-18192380D01*
X45538095Y-18240000D01*
X45585714Y-18287619D01*
X45633333Y-18382857D01*
X45633333Y-18525714D01*
X45585714Y-18620952D01*
X45538095Y-18668571D01*
X45442857Y-18716190D01*
X45061904Y-18716190D01*
X46014285Y-18287619D02*
X46061904Y-18240000D01*
X46157142Y-18192380D01*
X46395238Y-18192380D01*
X46490476Y-18240000D01*
X46538095Y-18287619D01*
X46585714Y-18382857D01*
X46585714Y-18478095D01*
X46538095Y-18620952D01*
X45966666Y-19192380D01*
X46585714Y-19192380D01*
%TO.C,R1*%
X52402380Y-32666666D02*
X51926190Y-33000000D01*
X52402380Y-33238095D02*
X51402380Y-33238095D01*
X51402380Y-32857142D01*
X51450000Y-32761904D01*
X51497619Y-32714285D01*
X51592857Y-32666666D01*
X51735714Y-32666666D01*
X51830952Y-32714285D01*
X51878571Y-32761904D01*
X51926190Y-32857142D01*
X51926190Y-33238095D01*
X52402380Y-31714285D02*
X52402380Y-32285714D01*
X52402380Y-32000000D02*
X51402380Y-32000000D01*
X51545238Y-32095238D01*
X51640476Y-32190476D01*
X51688095Y-32285714D01*
%TO.C,J9*%
X11422380Y-29663333D02*
X12136666Y-29663333D01*
X12279523Y-29710952D01*
X12374761Y-29806190D01*
X12422380Y-29949047D01*
X12422380Y-30044285D01*
X12422380Y-29139523D02*
X12422380Y-28949047D01*
X12374761Y-28853809D01*
X12327142Y-28806190D01*
X12184285Y-28710952D01*
X11993809Y-28663333D01*
X11612857Y-28663333D01*
X11517619Y-28710952D01*
X11470000Y-28758571D01*
X11422380Y-28853809D01*
X11422380Y-29044285D01*
X11470000Y-29139523D01*
X11517619Y-29187142D01*
X11612857Y-29234761D01*
X11850952Y-29234761D01*
X11946190Y-29187142D01*
X11993809Y-29139523D01*
X12041428Y-29044285D01*
X12041428Y-28853809D01*
X11993809Y-28758571D01*
X11946190Y-28710952D01*
X11850952Y-28663333D01*
%TO.C,Q1*%
X11004761Y-34247619D02*
X10909523Y-34200000D01*
X10814285Y-34104761D01*
X10671428Y-33961904D01*
X10576190Y-33914285D01*
X10480952Y-33914285D01*
X10528571Y-34152380D02*
X10433333Y-34104761D01*
X10338095Y-34009523D01*
X10290476Y-33819047D01*
X10290476Y-33485714D01*
X10338095Y-33295238D01*
X10433333Y-33200000D01*
X10528571Y-33152380D01*
X10719047Y-33152380D01*
X10814285Y-33200000D01*
X10909523Y-33295238D01*
X10957142Y-33485714D01*
X10957142Y-33819047D01*
X10909523Y-34009523D01*
X10814285Y-34104761D01*
X10719047Y-34152380D01*
X10528571Y-34152380D01*
X11909523Y-34152380D02*
X11338095Y-34152380D01*
X11623809Y-34152380D02*
X11623809Y-33152380D01*
X11528571Y-33295238D01*
X11433333Y-33390476D01*
X11338095Y-33438095D01*
%TO.C,C11*%
X25457142Y-28942857D02*
X25504761Y-28990476D01*
X25552380Y-29133333D01*
X25552380Y-29228571D01*
X25504761Y-29371428D01*
X25409523Y-29466666D01*
X25314285Y-29514285D01*
X25123809Y-29561904D01*
X24980952Y-29561904D01*
X24790476Y-29514285D01*
X24695238Y-29466666D01*
X24600000Y-29371428D01*
X24552380Y-29228571D01*
X24552380Y-29133333D01*
X24600000Y-28990476D01*
X24647619Y-28942857D01*
X25552380Y-27990476D02*
X25552380Y-28561904D01*
X25552380Y-28276190D02*
X24552380Y-28276190D01*
X24695238Y-28371428D01*
X24790476Y-28466666D01*
X24838095Y-28561904D01*
X25552380Y-27038095D02*
X25552380Y-27609523D01*
X25552380Y-27323809D02*
X24552380Y-27323809D01*
X24695238Y-27419047D01*
X24790476Y-27514285D01*
X24838095Y-27609523D01*
%TO.C,H6*%
X62113095Y-1502380D02*
X62113095Y-502380D01*
X62113095Y-978571D02*
X62684523Y-978571D01*
X62684523Y-1502380D02*
X62684523Y-502380D01*
X63589285Y-502380D02*
X63398809Y-502380D01*
X63303571Y-550000D01*
X63255952Y-597619D01*
X63160714Y-740476D01*
X63113095Y-930952D01*
X63113095Y-1311904D01*
X63160714Y-1407142D01*
X63208333Y-1454761D01*
X63303571Y-1502380D01*
X63494047Y-1502380D01*
X63589285Y-1454761D01*
X63636904Y-1407142D01*
X63684523Y-1311904D01*
X63684523Y-1073809D01*
X63636904Y-978571D01*
X63589285Y-930952D01*
X63494047Y-883333D01*
X63303571Y-883333D01*
X63208333Y-930952D01*
X63160714Y-978571D01*
X63113095Y-1073809D01*
%TO.C,JP5*%
X18152380Y-30633333D02*
X18866666Y-30633333D01*
X19009523Y-30680952D01*
X19104761Y-30776190D01*
X19152380Y-30919047D01*
X19152380Y-31014285D01*
X19152380Y-30157142D02*
X18152380Y-30157142D01*
X18152380Y-29776190D01*
X18200000Y-29680952D01*
X18247619Y-29633333D01*
X18342857Y-29585714D01*
X18485714Y-29585714D01*
X18580952Y-29633333D01*
X18628571Y-29680952D01*
X18676190Y-29776190D01*
X18676190Y-30157142D01*
X18152380Y-28680952D02*
X18152380Y-29157142D01*
X18628571Y-29204761D01*
X18580952Y-29157142D01*
X18533333Y-29061904D01*
X18533333Y-28823809D01*
X18580952Y-28728571D01*
X18628571Y-28680952D01*
X18723809Y-28633333D01*
X18961904Y-28633333D01*
X19057142Y-28680952D01*
X19104761Y-28728571D01*
X19152380Y-28823809D01*
X19152380Y-29061904D01*
X19104761Y-29157142D01*
X19057142Y-29204761D01*
%TO.C,J1*%
X2466666Y-34052380D02*
X2466666Y-34766666D01*
X2419047Y-34909523D01*
X2323809Y-35004761D01*
X2180952Y-35052380D01*
X2085714Y-35052380D01*
X3466666Y-35052380D02*
X2895238Y-35052380D01*
X3180952Y-35052380D02*
X3180952Y-34052380D01*
X3085714Y-34195238D01*
X2990476Y-34290476D01*
X2895238Y-34338095D01*
%TO.C,R3*%
X12222380Y-40171666D02*
X11746190Y-40505000D01*
X12222380Y-40743095D02*
X11222380Y-40743095D01*
X11222380Y-40362142D01*
X11270000Y-40266904D01*
X11317619Y-40219285D01*
X11412857Y-40171666D01*
X11555714Y-40171666D01*
X11650952Y-40219285D01*
X11698571Y-40266904D01*
X11746190Y-40362142D01*
X11746190Y-40743095D01*
X11222380Y-39838333D02*
X11222380Y-39219285D01*
X11603333Y-39552619D01*
X11603333Y-39409761D01*
X11650952Y-39314523D01*
X11698571Y-39266904D01*
X11793809Y-39219285D01*
X12031904Y-39219285D01*
X12127142Y-39266904D01*
X12174761Y-39314523D01*
X12222380Y-39409761D01*
X12222380Y-39695476D01*
X12174761Y-39790714D01*
X12127142Y-39838333D01*
%TO.C,C1*%
X61677142Y-35956666D02*
X61724761Y-36004285D01*
X61772380Y-36147142D01*
X61772380Y-36242380D01*
X61724761Y-36385238D01*
X61629523Y-36480476D01*
X61534285Y-36528095D01*
X61343809Y-36575714D01*
X61200952Y-36575714D01*
X61010476Y-36528095D01*
X60915238Y-36480476D01*
X60820000Y-36385238D01*
X60772380Y-36242380D01*
X60772380Y-36147142D01*
X60820000Y-36004285D01*
X60867619Y-35956666D01*
X61772380Y-35004285D02*
X61772380Y-35575714D01*
X61772380Y-35290000D02*
X60772380Y-35290000D01*
X60915238Y-35385238D01*
X61010476Y-35480476D01*
X61058095Y-35575714D01*
%TO.C,C8*%
X28737142Y-18166666D02*
X28784761Y-18214285D01*
X28832380Y-18357142D01*
X28832380Y-18452380D01*
X28784761Y-18595238D01*
X28689523Y-18690476D01*
X28594285Y-18738095D01*
X28403809Y-18785714D01*
X28260952Y-18785714D01*
X28070476Y-18738095D01*
X27975238Y-18690476D01*
X27880000Y-18595238D01*
X27832380Y-18452380D01*
X27832380Y-18357142D01*
X27880000Y-18214285D01*
X27927619Y-18166666D01*
X28260952Y-17595238D02*
X28213333Y-17690476D01*
X28165714Y-17738095D01*
X28070476Y-17785714D01*
X28022857Y-17785714D01*
X27927619Y-17738095D01*
X27880000Y-17690476D01*
X27832380Y-17595238D01*
X27832380Y-17404761D01*
X27880000Y-17309523D01*
X27927619Y-17261904D01*
X28022857Y-17214285D01*
X28070476Y-17214285D01*
X28165714Y-17261904D01*
X28213333Y-17309523D01*
X28260952Y-17404761D01*
X28260952Y-17595238D01*
X28308571Y-17690476D01*
X28356190Y-17738095D01*
X28451428Y-17785714D01*
X28641904Y-17785714D01*
X28737142Y-17738095D01*
X28784761Y-17690476D01*
X28832380Y-17595238D01*
X28832380Y-17404761D01*
X28784761Y-17309523D01*
X28737142Y-17261904D01*
X28641904Y-17214285D01*
X28451428Y-17214285D01*
X28356190Y-17261904D01*
X28308571Y-17309523D01*
X28260952Y-17404761D01*
%TO.C,J2*%
X2636666Y-49357380D02*
X2636666Y-50071666D01*
X2589047Y-50214523D01*
X2493809Y-50309761D01*
X2350952Y-50357380D01*
X2255714Y-50357380D01*
X3065238Y-49452619D02*
X3112857Y-49405000D01*
X3208095Y-49357380D01*
X3446190Y-49357380D01*
X3541428Y-49405000D01*
X3589047Y-49452619D01*
X3636666Y-49547857D01*
X3636666Y-49643095D01*
X3589047Y-49785952D01*
X3017619Y-50357380D01*
X3636666Y-50357380D01*
%TO.C,JP1*%
X27222380Y-40738333D02*
X27936666Y-40738333D01*
X28079523Y-40785952D01*
X28174761Y-40881190D01*
X28222380Y-41024047D01*
X28222380Y-41119285D01*
X28222380Y-40262142D02*
X27222380Y-40262142D01*
X27222380Y-39881190D01*
X27270000Y-39785952D01*
X27317619Y-39738333D01*
X27412857Y-39690714D01*
X27555714Y-39690714D01*
X27650952Y-39738333D01*
X27698571Y-39785952D01*
X27746190Y-39881190D01*
X27746190Y-40262142D01*
X28222380Y-38738333D02*
X28222380Y-39309761D01*
X28222380Y-39024047D02*
X27222380Y-39024047D01*
X27365238Y-39119285D01*
X27460476Y-39214523D01*
X27508095Y-39309761D01*
%TO.C,JP2*%
X26462380Y-29893333D02*
X27176666Y-29893333D01*
X27319523Y-29940952D01*
X27414761Y-30036190D01*
X27462380Y-30179047D01*
X27462380Y-30274285D01*
X27462380Y-29417142D02*
X26462380Y-29417142D01*
X26462380Y-29036190D01*
X26510000Y-28940952D01*
X26557619Y-28893333D01*
X26652857Y-28845714D01*
X26795714Y-28845714D01*
X26890952Y-28893333D01*
X26938571Y-28940952D01*
X26986190Y-29036190D01*
X26986190Y-29417142D01*
X26557619Y-28464761D02*
X26510000Y-28417142D01*
X26462380Y-28321904D01*
X26462380Y-28083809D01*
X26510000Y-27988571D01*
X26557619Y-27940952D01*
X26652857Y-27893333D01*
X26748095Y-27893333D01*
X26890952Y-27940952D01*
X27462380Y-28512380D01*
X27462380Y-27893333D01*
%TO.C,SW2*%
X54834791Y-40455761D02*
X54977648Y-40503380D01*
X55215744Y-40503380D01*
X55310982Y-40455761D01*
X55358601Y-40408142D01*
X55406220Y-40312904D01*
X55406220Y-40217666D01*
X55358601Y-40122428D01*
X55310982Y-40074809D01*
X55215744Y-40027190D01*
X55025267Y-39979571D01*
X54930029Y-39931952D01*
X54882410Y-39884333D01*
X54834791Y-39789095D01*
X54834791Y-39693857D01*
X54882410Y-39598619D01*
X54930029Y-39551000D01*
X55025267Y-39503380D01*
X55263363Y-39503380D01*
X55406220Y-39551000D01*
X55739553Y-39503380D02*
X55977648Y-40503380D01*
X56168125Y-39789095D01*
X56358601Y-40503380D01*
X56596696Y-39503380D01*
X56930029Y-39598619D02*
X56977648Y-39551000D01*
X57072886Y-39503380D01*
X57310982Y-39503380D01*
X57406220Y-39551000D01*
X57453839Y-39598619D01*
X57501458Y-39693857D01*
X57501458Y-39789095D01*
X57453839Y-39931952D01*
X56882410Y-40503380D01*
X57501458Y-40503380D01*
D13*
%TO.C,C3*%
X30760000Y-9091000D02*
X28026000Y-9091000D01*
X33764000Y-11131000D02*
X29836000Y-11131000D01*
X30760000Y-8331000D02*
X27798000Y-8331000D01*
X35702000Y-8731000D02*
X32840000Y-8731000D01*
X35868000Y-7850000D02*
X27732000Y-7850000D01*
X30760000Y-9731000D02*
X28356000Y-9731000D01*
X35447000Y-9371000D02*
X32840000Y-9371000D01*
X35842000Y-8090000D02*
X27758000Y-8090000D01*
X33029000Y-11451000D02*
X30571000Y-11451000D01*
X30760000Y-8891000D02*
X27950000Y-8891000D01*
X35650000Y-8891000D02*
X32840000Y-8891000D01*
X30760000Y-8251000D02*
X27783000Y-8251000D01*
X30760000Y-9611000D02*
X28283000Y-9611000D01*
X35138000Y-9891000D02*
X32840000Y-9891000D01*
X35218000Y-9771000D02*
X32840000Y-9771000D01*
X30760000Y-9771000D02*
X28382000Y-9771000D01*
X35874000Y-7770000D02*
X27726000Y-7770000D01*
X35785000Y-8411000D02*
X32840000Y-8411000D01*
X30760000Y-10211000D02*
X28710000Y-10211000D01*
X30760000Y-10051000D02*
X28580000Y-10051000D01*
X30760000Y-9291000D02*
X28114000Y-9291000D01*
X35192000Y-9811000D02*
X32840000Y-9811000D01*
X30760000Y-10171000D02*
X28676000Y-10171000D01*
X30760000Y-9931000D02*
X28491000Y-9931000D01*
X35865000Y-7890000D02*
X27735000Y-7890000D01*
X35165000Y-9851000D02*
X32840000Y-9851000D01*
X30760000Y-8411000D02*
X27815000Y-8411000D01*
X30760000Y-8771000D02*
X27911000Y-8771000D01*
X30760000Y-10251000D02*
X28745000Y-10251000D01*
X35880000Y-7570000D02*
X27720000Y-7570000D01*
X34087000Y-10931000D02*
X29513000Y-10931000D01*
X30760000Y-9531000D02*
X28238000Y-9531000D01*
X33253000Y-11371000D02*
X30347000Y-11371000D01*
X30760000Y-8531000D02*
X27843000Y-8531000D01*
X34356000Y-10731000D02*
X29244000Y-10731000D01*
X34497000Y-10611000D02*
X29103000Y-10611000D01*
X34956000Y-10131000D02*
X32840000Y-10131000D01*
X34515000Y-3520302D02*
X33715000Y-3520302D01*
X35109000Y-9931000D02*
X32840000Y-9931000D01*
X35574000Y-9091000D02*
X32840000Y-9091000D01*
X35876000Y-7730000D02*
X27724000Y-7730000D01*
X35776000Y-8451000D02*
X32840000Y-8451000D01*
X30760000Y-9211000D02*
X28078000Y-9211000D01*
X34584000Y-10531000D02*
X29016000Y-10531000D01*
X34145000Y-10891000D02*
X29455000Y-10891000D01*
X34855000Y-10251000D02*
X32840000Y-10251000D01*
X35080000Y-9971000D02*
X32840000Y-9971000D01*
X34541000Y-10571000D02*
X29059000Y-10571000D01*
X34819000Y-10291000D02*
X32840000Y-10291000D01*
X30760000Y-9411000D02*
X28173000Y-9411000D01*
X35830000Y-8170000D02*
X27770000Y-8170000D01*
X35244000Y-9731000D02*
X32840000Y-9731000D01*
X30760000Y-8291000D02*
X27790000Y-8291000D01*
X35317000Y-9611000D02*
X32840000Y-9611000D01*
X30760000Y-9491000D02*
X28216000Y-9491000D01*
X30760000Y-9051000D02*
X28010000Y-9051000D01*
X34028000Y-10971000D02*
X29572000Y-10971000D01*
X30760000Y-8491000D02*
X27833000Y-8491000D01*
X35747000Y-8571000D02*
X32840000Y-8571000D01*
X30760000Y-10091000D02*
X28611000Y-10091000D01*
X35871000Y-7810000D02*
X27729000Y-7810000D01*
X30760000Y-8691000D02*
X27886000Y-8691000D01*
X30760000Y-8371000D02*
X27806000Y-8371000D01*
X30760000Y-8971000D02*
X27979000Y-8971000D01*
X35837000Y-8130000D02*
X27763000Y-8130000D01*
X35427000Y-9411000D02*
X32840000Y-9411000D01*
X32333000Y-11611000D02*
X31267000Y-11611000D01*
X30760000Y-8731000D02*
X27898000Y-8731000D01*
X35817000Y-8251000D02*
X32840000Y-8251000D01*
X35848000Y-8050000D02*
X27752000Y-8050000D01*
X30760000Y-8571000D02*
X27853000Y-8571000D01*
X34707000Y-10411000D02*
X28893000Y-10411000D01*
X35362000Y-9531000D02*
X32840000Y-9531000D01*
X30760000Y-9131000D02*
X28043000Y-9131000D01*
X33146000Y-11411000D02*
X30454000Y-11411000D01*
X33902000Y-11051000D02*
X29698000Y-11051000D01*
X30760000Y-9971000D02*
X28520000Y-9971000D01*
X34745000Y-10371000D02*
X28855000Y-10371000D01*
X30760000Y-8651000D02*
X27875000Y-8651000D01*
X35877000Y-7690000D02*
X27723000Y-7690000D01*
X30760000Y-8851000D02*
X27937000Y-8851000D01*
X30760000Y-9251000D02*
X28096000Y-9251000D01*
X35540000Y-9171000D02*
X32840000Y-9171000D01*
X30760000Y-9851000D02*
X28435000Y-9851000D01*
X34989000Y-10091000D02*
X32840000Y-10091000D01*
X30760000Y-8451000D02*
X27824000Y-8451000D01*
X34626000Y-10491000D02*
X28974000Y-10491000D01*
X35725000Y-8651000D02*
X32840000Y-8651000D01*
X30760000Y-9331000D02*
X28134000Y-9331000D01*
X34924000Y-10171000D02*
X32840000Y-10171000D01*
X35590000Y-9051000D02*
X32840000Y-9051000D01*
X35689000Y-8771000D02*
X32840000Y-8771000D01*
X32898000Y-11491000D02*
X30702000Y-11491000D01*
X35269000Y-9691000D02*
X32840000Y-9691000D01*
X35736000Y-8611000D02*
X32840000Y-8611000D01*
X30760000Y-9011000D02*
X27995000Y-9011000D01*
X35857000Y-7970000D02*
X27743000Y-7970000D01*
X35466000Y-9331000D02*
X32840000Y-9331000D01*
X33531000Y-11251000D02*
X30069000Y-11251000D01*
X35340000Y-9571000D02*
X32840000Y-9571000D01*
X34115000Y-3120302D02*
X34115000Y-3920302D01*
X35635000Y-8931000D02*
X32840000Y-8931000D01*
X35522000Y-9211000D02*
X32840000Y-9211000D01*
X34783000Y-10331000D02*
X28817000Y-10331000D01*
X35810000Y-8291000D02*
X32840000Y-8291000D01*
X35605000Y-9011000D02*
X32840000Y-9011000D01*
X30760000Y-10291000D02*
X28781000Y-10291000D01*
X34451000Y-10651000D02*
X29149000Y-10651000D01*
X33445000Y-11291000D02*
X30155000Y-11291000D01*
X33966000Y-11011000D02*
X29634000Y-11011000D01*
X30760000Y-9651000D02*
X28307000Y-9651000D01*
X35293000Y-9651000D02*
X32840000Y-9651000D01*
X32568000Y-11571000D02*
X31032000Y-11571000D01*
X33352000Y-11331000D02*
X30248000Y-11331000D01*
X32748000Y-11531000D02*
X30852000Y-11531000D01*
X33613000Y-11211000D02*
X29987000Y-11211000D01*
X30760000Y-9891000D02*
X28462000Y-9891000D01*
X35824000Y-8210000D02*
X27776000Y-8210000D01*
X30760000Y-8611000D02*
X27864000Y-8611000D01*
X30760000Y-9371000D02*
X28153000Y-9371000D01*
X35663000Y-8851000D02*
X32840000Y-8851000D01*
X30760000Y-9811000D02*
X28408000Y-9811000D01*
X30760000Y-8811000D02*
X27923000Y-8811000D01*
X33834000Y-11091000D02*
X29766000Y-11091000D01*
X34890000Y-10211000D02*
X32840000Y-10211000D01*
X35384000Y-9491000D02*
X32840000Y-9491000D01*
X35557000Y-9131000D02*
X32840000Y-9131000D01*
X35852000Y-8010000D02*
X27748000Y-8010000D01*
X34200000Y-10851000D02*
X29400000Y-10851000D01*
X30760000Y-10011000D02*
X28550000Y-10011000D01*
X30760000Y-9171000D02*
X28060000Y-9171000D01*
X30760000Y-9691000D02*
X28331000Y-9691000D01*
X30760000Y-9451000D02*
X28194000Y-9451000D01*
X35767000Y-8491000D02*
X32840000Y-8491000D01*
X35802000Y-8331000D02*
X32840000Y-8331000D01*
X35879000Y-7650000D02*
X27721000Y-7650000D01*
X30760000Y-8931000D02*
X27965000Y-8931000D01*
X35020000Y-10051000D02*
X32840000Y-10051000D01*
X35677000Y-8811000D02*
X32840000Y-8811000D01*
X35406000Y-9451000D02*
X32840000Y-9451000D01*
X35486000Y-9291000D02*
X32840000Y-9291000D01*
X35794000Y-8371000D02*
X32840000Y-8371000D01*
X34254000Y-10811000D02*
X29346000Y-10811000D01*
X34404000Y-10691000D02*
X29196000Y-10691000D01*
X35504000Y-9251000D02*
X32840000Y-9251000D01*
X34305000Y-10771000D02*
X29295000Y-10771000D01*
X35880000Y-7610000D02*
X27720000Y-7610000D01*
X35880000Y-7530000D02*
X27720000Y-7530000D01*
X30760000Y-9571000D02*
X28260000Y-9571000D01*
X35621000Y-8971000D02*
X32840000Y-8971000D01*
X30760000Y-10131000D02*
X28644000Y-10131000D01*
X35050000Y-10011000D02*
X32840000Y-10011000D01*
X35861000Y-7930000D02*
X27739000Y-7930000D01*
X33690000Y-11171000D02*
X29910000Y-11171000D01*
X35714000Y-8691000D02*
X32840000Y-8691000D01*
X35757000Y-8531000D02*
X32840000Y-8531000D01*
X34667000Y-10451000D02*
X28933000Y-10451000D01*
X35920000Y-7530000D02*
G75*
G03*
X35920000Y-7530000I-4120000J0D01*
G01*
%TO.C,R14*%
X67527064Y-21665000D02*
X67072936Y-21665000D01*
X67527064Y-23135000D02*
X67072936Y-23135000D01*
%TO.C,RV1*%
X17040000Y-2510000D02*
X16840000Y-2510000D01*
X24060000Y-4810000D02*
X24060000Y-6300000D01*
X22750000Y-7610000D02*
X19210000Y-7610000D01*
X17040000Y-990000D02*
X17730000Y-990000D01*
X17040000Y-1090000D02*
X17040000Y-990000D01*
X18770000Y-990000D02*
X22750000Y-990000D01*
X16840000Y-1090000D02*
X17040000Y-1090000D01*
X16840000Y-7510000D02*
X16840000Y-6090000D01*
X24060000Y-2300000D02*
X24060000Y-3790000D01*
X16840000Y-2510000D02*
X16840000Y-1090000D01*
X17040000Y-7610000D02*
X17290000Y-7610000D01*
X17040000Y-7510000D02*
X17040000Y-7610000D01*
X17040000Y-6090000D02*
X17040000Y-2510000D01*
X16840000Y-7510000D02*
X17040000Y-7510000D01*
X17040000Y-6090000D02*
X16840000Y-6090000D01*
X22750000Y-990000D02*
G75*
G02*
X24060000Y-2300000I0J-1310000D01*
G01*
X24060000Y-6300000D02*
G75*
G02*
X22750000Y-7610000I-1310000J0D01*
G01*
%TO.C,C13*%
X17365000Y-23098748D02*
X17365000Y-23621252D01*
X18835000Y-23098748D02*
X18835000Y-23621252D01*
%TO.C,R6*%
X9492936Y-45240000D02*
X9947064Y-45240000D01*
X9492936Y-43770000D02*
X9947064Y-43770000D01*
%TO.C,J6*%
X64250000Y-10280000D02*
X64250000Y-11610000D01*
X64250000Y-11610000D02*
X62920000Y-11610000D01*
X61650000Y-8950000D02*
X43810000Y-8950000D01*
X61650000Y-11610000D02*
X43810000Y-11610000D01*
X43810000Y-8950000D02*
X43810000Y-11610000D01*
X61650000Y-8950000D02*
X61650000Y-11610000D01*
%TO.C,J7*%
X65000000Y-10757500D02*
X65000000Y-11807500D01*
X71100000Y-2407500D02*
X79900000Y-2407500D01*
X65200000Y-2407500D02*
X67100000Y-2407500D01*
X79900000Y-11607500D02*
X65200000Y-11607500D01*
X79900000Y-2407500D02*
X79900000Y-11607500D01*
X65200000Y-11607500D02*
X65200000Y-9007500D01*
X65200000Y-5107500D02*
X65200000Y-2407500D01*
X66050000Y-11807500D02*
X65000000Y-11807500D01*
%TO.C,R7*%
X31615000Y-23807064D02*
X31615000Y-23352936D01*
X33085000Y-23807064D02*
X33085000Y-23352936D01*
%TO.C,D1*%
X53655000Y-37395000D02*
X54120000Y-37395000D01*
X56280000Y-37395000D02*
X56745000Y-37395000D01*
X54119173Y-32047185D02*
G75*
G03*
X53655170Y-37395000I1080827J-2787815D01*
G01*
X56280429Y-32580521D02*
G75*
G02*
X56280000Y-37089684I-1080429J-2254479D01*
G01*
X54119571Y-32580521D02*
G75*
G03*
X54120000Y-37089684I1080429J-2254479D01*
G01*
X56280827Y-32047185D02*
G75*
G02*
X56744830Y-37395000I-1080827J-2787815D01*
G01*
%TO.C,A1*%
X74580000Y-12310000D02*
X31140000Y-12310000D01*
X36350000Y-27680000D02*
X36350000Y-30350000D01*
X36350000Y-27680000D02*
X33810000Y-27680000D01*
X31140000Y-12310000D02*
X31140000Y-30350000D01*
X36350000Y-27680000D02*
X71910000Y-27680000D01*
X33810000Y-27680000D02*
X33810000Y-30350000D01*
X33810000Y-14980000D02*
X71910000Y-14980000D01*
X36350000Y-30350000D02*
X74580000Y-30350000D01*
X74580000Y-30350000D02*
X74580000Y-12310000D01*
X71910000Y-14980000D02*
X71910000Y-12310000D01*
X71910000Y-27680000D02*
X71910000Y-30350000D01*
X33810000Y-14980000D02*
X33810000Y-12310000D01*
X31140000Y-30350000D02*
X33810000Y-30350000D01*
%TO.C,C12*%
X17395000Y-17381252D02*
X17395000Y-16858748D01*
X18865000Y-17381252D02*
X18865000Y-16858748D01*
%TO.C,J4*%
X69860000Y-24010000D02*
X67260000Y-24010000D01*
X69860000Y-26670000D02*
X67260000Y-26670000D01*
X72460000Y-26670000D02*
X71130000Y-26670000D01*
X69860000Y-24010000D02*
X69860000Y-26670000D01*
X67260000Y-24010000D02*
X67260000Y-26670000D01*
X72460000Y-25340000D02*
X72460000Y-26670000D01*
%TO.C,L3*%
X7010000Y-33338748D02*
X7010000Y-33861252D01*
X5590000Y-33338748D02*
X5590000Y-33861252D01*
%TO.C,R9*%
X38707064Y-24675000D02*
X38252936Y-24675000D01*
X38707064Y-26145000D02*
X38252936Y-26145000D01*
%TO.C,JP6*%
X19300000Y-8325000D02*
X21300000Y-8325000D01*
X19300000Y-11125000D02*
X19300000Y-8325000D01*
X21300000Y-8325000D02*
X21300000Y-11125000D01*
X21300000Y-11125000D02*
X19300000Y-11125000D01*
%TO.C,SW1*%
X30013125Y-54910000D02*
X30013125Y-40940000D01*
X30013125Y-40940000D02*
X43983125Y-40940000D01*
X43983125Y-54910000D02*
X30013125Y-54910000D01*
X43983125Y-40940000D02*
X43983125Y-54910000D01*
%TO.C,R4*%
X14155000Y-44032064D02*
X14155000Y-43577936D01*
X12685000Y-44032064D02*
X12685000Y-43577936D01*
%TO.C,C5*%
X14895000Y-41438748D02*
X14895000Y-41961252D01*
X16365000Y-41438748D02*
X16365000Y-41961252D01*
%TO.C,D3*%
X38740000Y-18820000D02*
X38740000Y-16270000D01*
X37040000Y-18820000D02*
X37040000Y-16270000D01*
X37040000Y-18820000D02*
X38740000Y-18820000D01*
%TO.C,C7*%
X25855000Y-23238748D02*
X25855000Y-23761252D01*
X27325000Y-23238748D02*
X27325000Y-23761252D01*
%TO.C,R12*%
X16750000Y-24522064D02*
X16750000Y-23317936D01*
X14930000Y-24522064D02*
X14930000Y-23317936D01*
%TO.C,J5*%
X71130000Y-16010000D02*
X72460000Y-16010000D01*
X69800000Y-18670000D02*
X72460000Y-18670000D01*
X72460000Y-16010000D02*
X72460000Y-17340000D01*
X69800000Y-18550000D02*
X69800000Y-18670000D01*
X72460000Y-18550000D02*
X72460000Y-18670000D01*
%TO.C,U1*%
X20630000Y-45805000D02*
X22580000Y-45805000D01*
X20630000Y-35685000D02*
X17130000Y-35685000D01*
X20630000Y-45805000D02*
X18680000Y-45805000D01*
X20630000Y-35685000D02*
X22580000Y-35685000D01*
%TO.C,C10*%
X22368748Y-26115000D02*
X22891252Y-26115000D01*
X22368748Y-24645000D02*
X22891252Y-24645000D01*
%TO.C,L1*%
X8868748Y-40145000D02*
X9391252Y-40145000D01*
X8868748Y-38725000D02*
X9391252Y-38725000D01*
%TO.C,R15*%
X67527064Y-21035000D02*
X67072936Y-21035000D01*
X67527064Y-19565000D02*
X67072936Y-19565000D01*
%TO.C,R11*%
X24742936Y-12745000D02*
X25197064Y-12745000D01*
X24742936Y-14215000D02*
X25197064Y-14215000D01*
%TO.C,J8*%
X7255000Y-15390000D02*
X7255000Y-20940000D01*
X8015000Y-14630000D02*
X2045000Y-14630000D01*
X2805000Y-23940000D02*
X2805000Y-17940000D01*
X2055000Y-27240000D02*
X2805000Y-27240000D01*
X8015000Y-27250000D02*
X8015000Y-14630000D01*
X2805000Y-27240000D02*
X2805000Y-25440000D01*
X2045000Y-14630000D02*
X2045000Y-27250000D01*
X2055000Y-25440000D02*
X2055000Y-27240000D01*
X1755000Y-26290000D02*
X1755000Y-27540000D01*
X4305000Y-27240000D02*
X4305000Y-26490000D01*
X1755000Y-27540000D02*
X3005000Y-27540000D01*
X2055000Y-23940000D02*
X2805000Y-23940000D01*
X2055000Y-16440000D02*
X2805000Y-16440000D01*
X2055000Y-17940000D02*
X2055000Y-23940000D01*
X2805000Y-14640000D02*
X2055000Y-14640000D01*
X7255000Y-26490000D02*
X7255000Y-20940000D01*
X4305000Y-26490000D02*
X7255000Y-26490000D01*
X2805000Y-16440000D02*
X2805000Y-14640000D01*
X2045000Y-27250000D02*
X8015000Y-27250000D01*
X4305000Y-14640000D02*
X4305000Y-15390000D01*
X2805000Y-17940000D02*
X2055000Y-17940000D01*
X2805000Y-25440000D02*
X2055000Y-25440000D01*
X4305000Y-15390000D02*
X7255000Y-15390000D01*
X2055000Y-14640000D02*
X2055000Y-16440000D01*
%TO.C,R5*%
X8792936Y-41570000D02*
X9247064Y-41570000D01*
X8792936Y-43040000D02*
X9247064Y-43040000D01*
%TO.C,L2*%
X28610000Y-35586252D02*
X28610000Y-35063748D01*
X27190000Y-35586252D02*
X27190000Y-35063748D01*
%TO.C,R13*%
X16780000Y-15947936D02*
X16780000Y-17152064D01*
X14960000Y-15947936D02*
X14960000Y-17152064D01*
%TO.C,C4*%
X6685000Y-41683748D02*
X6685000Y-42206252D01*
X5215000Y-41683748D02*
X5215000Y-42206252D01*
%TO.C,C2*%
X6675000Y-38286252D02*
X6675000Y-37763748D01*
X5205000Y-38286252D02*
X5205000Y-37763748D01*
%TO.C,C6*%
X12635000Y-47543748D02*
X12635000Y-48066252D01*
X14105000Y-47543748D02*
X14105000Y-48066252D01*
%TO.C,U2*%
X24990000Y-23000000D02*
X24265000Y-23000000D01*
X19770000Y-17780000D02*
X20495000Y-17780000D01*
X19770000Y-22275000D02*
X19770000Y-23000000D01*
X24990000Y-18505000D02*
X24990000Y-17780000D01*
X24990000Y-22275000D02*
X24990000Y-23000000D01*
X19770000Y-18505000D02*
X19770000Y-17780000D01*
X24990000Y-17780000D02*
X24265000Y-17780000D01*
%TO.C,R8*%
X24935000Y-36077936D02*
X24935000Y-36532064D01*
X26405000Y-36077936D02*
X26405000Y-36532064D01*
%TO.C,D2*%
X32690000Y-30210000D02*
X32690000Y-26310000D01*
X30690000Y-30210000D02*
X30690000Y-26310000D01*
X30690000Y-30210000D02*
X32690000Y-30210000D01*
%TO.C,J3*%
X39990000Y-8910000D02*
X42590000Y-8910000D01*
X39990000Y-11570000D02*
X42590000Y-11570000D01*
X37390000Y-8910000D02*
X38720000Y-8910000D01*
X37390000Y-10240000D02*
X37390000Y-8910000D01*
X39990000Y-11570000D02*
X39990000Y-8910000D01*
X42590000Y-11570000D02*
X42590000Y-8910000D01*
%TO.C,R2*%
X46027064Y-16355000D02*
X45572936Y-16355000D01*
X46027064Y-17825000D02*
X45572936Y-17825000D01*
%TO.C,R1*%
X51035000Y-32272936D02*
X51035000Y-32727064D01*
X49565000Y-32272936D02*
X49565000Y-32727064D01*
%TO.C,J9*%
X9670000Y-24850000D02*
X10170000Y-24850000D01*
X11170000Y-28010000D02*
X11170000Y-27400000D01*
X9670000Y-16950000D02*
X10170000Y-16950000D01*
X9670000Y-24950000D02*
X10170000Y-24950000D01*
X10170000Y-20850000D02*
X10170000Y-21050000D01*
X13780000Y-16450000D02*
X13170000Y-16450000D01*
X9060000Y-28010000D02*
X13780000Y-28010000D01*
X9670000Y-20950000D02*
X10170000Y-20950000D01*
X13880000Y-15650000D02*
X13880000Y-15350000D01*
X10170000Y-19050000D02*
X9670000Y-19050000D01*
X9670000Y-16850000D02*
X10170000Y-16850000D01*
X11170000Y-13890000D02*
X11170000Y-14500000D01*
X13170000Y-14500000D02*
X9670000Y-14500000D01*
X13170000Y-27400000D02*
X13170000Y-25450000D01*
X13780000Y-28010000D02*
X13780000Y-13890000D01*
X13780000Y-13890000D02*
X9060000Y-13890000D01*
X10170000Y-25050000D02*
X9670000Y-25050000D01*
X14080000Y-14840000D02*
X14080000Y-13590000D01*
X9670000Y-18850000D02*
X10170000Y-18850000D01*
X13780000Y-15650000D02*
X13980000Y-15650000D01*
X10170000Y-17050000D02*
X9670000Y-17050000D01*
X14080000Y-13590000D02*
X12830000Y-13590000D01*
X10170000Y-24850000D02*
X10170000Y-25050000D01*
X10170000Y-16850000D02*
X10170000Y-17050000D01*
X9670000Y-27400000D02*
X13170000Y-27400000D01*
X9670000Y-22850000D02*
X10170000Y-22850000D01*
X9670000Y-22950000D02*
X10170000Y-22950000D01*
X13980000Y-15650000D02*
X13980000Y-15350000D01*
X13170000Y-25450000D02*
X13780000Y-25450000D01*
X10170000Y-21050000D02*
X9670000Y-21050000D01*
X13170000Y-16450000D02*
X13170000Y-14500000D01*
X9670000Y-20850000D02*
X10170000Y-20850000D01*
X10170000Y-22850000D02*
X10170000Y-23050000D01*
X13980000Y-15350000D02*
X13780000Y-15350000D01*
X9060000Y-13890000D02*
X9060000Y-28010000D01*
X10170000Y-18850000D02*
X10170000Y-19050000D01*
X9670000Y-14500000D02*
X9670000Y-27400000D01*
X10170000Y-23050000D02*
X9670000Y-23050000D01*
X9670000Y-18950000D02*
X10170000Y-18950000D01*
X12470000Y-28010000D02*
X12470000Y-27400000D01*
X12470000Y-13890000D02*
X12470000Y-14500000D01*
%TO.C,Q1*%
X10300000Y-34685000D02*
X11760000Y-34685000D01*
X10300000Y-37845000D02*
X10300000Y-36915000D01*
X10300000Y-37845000D02*
X13460000Y-37845000D01*
X10300000Y-34685000D02*
X10300000Y-35615000D01*
%TO.C,C11*%
X24215000Y-28641252D02*
X24215000Y-28118748D01*
X22745000Y-28641252D02*
X22745000Y-28118748D01*
%TO.C,JP5*%
X17900000Y-31200000D02*
X15900000Y-31200000D01*
X15900000Y-31200000D02*
X15900000Y-28400000D01*
X15900000Y-28400000D02*
X17900000Y-28400000D01*
X17900000Y-28400000D02*
X17900000Y-31200000D01*
%TO.C,J1*%
X1640000Y-38475000D02*
X4300000Y-38475000D01*
X2970000Y-35875000D02*
X4300000Y-35875000D01*
X1640000Y-48695000D02*
X4300000Y-48695000D01*
X1640000Y-38475000D02*
X1640000Y-48695000D01*
X4300000Y-35875000D02*
X4300000Y-37205000D01*
X4300000Y-38475000D02*
X4300000Y-48695000D01*
%TO.C,R3*%
X12685000Y-40232064D02*
X12685000Y-39777936D01*
X14155000Y-40232064D02*
X14155000Y-39777936D01*
%TO.C,C1*%
X58905000Y-35528748D02*
X58905000Y-36051252D01*
X60375000Y-35528748D02*
X60375000Y-36051252D01*
%TO.C,C8*%
X27435000Y-17738748D02*
X27435000Y-18261252D01*
X25965000Y-17738748D02*
X25965000Y-18261252D01*
%TO.C,J2*%
X2970000Y-51115000D02*
X4300000Y-51115000D01*
X1640000Y-53715000D02*
X4300000Y-53715000D01*
X1640000Y-56315000D02*
X4300000Y-56315000D01*
X1640000Y-53715000D02*
X1640000Y-56315000D01*
X4300000Y-51115000D02*
X4300000Y-52445000D01*
X4300000Y-53715000D02*
X4300000Y-56315000D01*
%TO.C,JP1*%
X26970000Y-41305000D02*
X24970000Y-41305000D01*
X24970000Y-41305000D02*
X24970000Y-38505000D01*
X24970000Y-38505000D02*
X26970000Y-38505000D01*
X26970000Y-38505000D02*
X26970000Y-41305000D01*
%TO.C,JP2*%
X26520000Y-30162500D02*
X25920000Y-30162500D01*
X22070000Y-30712500D02*
X27570000Y-30712500D01*
X25920000Y-30162500D02*
X26220000Y-30462500D01*
X27570000Y-30712500D02*
X27570000Y-32662500D01*
X27570000Y-32662500D02*
X22070000Y-32662500D01*
X26220000Y-30462500D02*
X26520000Y-30162500D01*
X22070000Y-32662500D02*
X22070000Y-30712500D01*
%TO.C,SW2*%
X49183125Y-40940000D02*
X63153125Y-40940000D01*
X63153125Y-54910000D02*
X49183125Y-54910000D01*
X63153125Y-40940000D02*
X63153125Y-54910000D01*
X49183125Y-54910000D02*
X49183125Y-40940000D01*
%TD*%
M02*
