%TF.GenerationSoftware,KiCad,Pcbnew,(5.99.0-9519-ga70106a3bd)*%
%TF.CreationDate,2021-04-17T12:18:36-04:00*%
%TF.ProjectId,Main-PCB,4d61696e-2d50-4434-922e-6b696361645f,rev?*%
%TF.SameCoordinates,Original*%
%TF.FileFunction,AssemblyDrawing,Top*%
%FSLAX46Y46*%
G04 Gerber Fmt 4.6, Leading zero omitted, Abs format (unit mm)*
G04 Created by KiCad (PCBNEW (5.99.0-9519-ga70106a3bd)) date 2021-04-17 12:18:36*
%MOMM*%
%LPD*%
G01*
G04 APERTURE LIST*
%ADD10C,0.150000*%
%ADD11C,0.080000*%
%ADD12C,0.120000*%
%ADD13C,0.075000*%
%ADD14C,0.100000*%
G04 APERTURE END LIST*
D10*
%TO.C,C3*%
X32157142Y-7696666D02*
X32204761Y-7744285D01*
X32252380Y-7887142D01*
X32252380Y-7982380D01*
X32204761Y-8125238D01*
X32109523Y-8220476D01*
X32014285Y-8268095D01*
X31823809Y-8315714D01*
X31680952Y-8315714D01*
X31490476Y-8268095D01*
X31395238Y-8220476D01*
X31300000Y-8125238D01*
X31252380Y-7982380D01*
X31252380Y-7887142D01*
X31300000Y-7744285D01*
X31347619Y-7696666D01*
X31252380Y-7363333D02*
X31252380Y-6744285D01*
X31633333Y-7077619D01*
X31633333Y-6934761D01*
X31680952Y-6839523D01*
X31728571Y-6791904D01*
X31823809Y-6744285D01*
X32061904Y-6744285D01*
X32157142Y-6791904D01*
X32204761Y-6839523D01*
X32252380Y-6934761D01*
X32252380Y-7220476D01*
X32204761Y-7315714D01*
X32157142Y-7363333D01*
D11*
%TO.C,R14*%
X66978571Y-22626190D02*
X66811904Y-22388095D01*
X66692857Y-22626190D02*
X66692857Y-22126190D01*
X66883333Y-22126190D01*
X66930952Y-22150000D01*
X66954761Y-22173809D01*
X66978571Y-22221428D01*
X66978571Y-22292857D01*
X66954761Y-22340476D01*
X66930952Y-22364285D01*
X66883333Y-22388095D01*
X66692857Y-22388095D01*
X67454761Y-22626190D02*
X67169047Y-22626190D01*
X67311904Y-22626190D02*
X67311904Y-22126190D01*
X67264285Y-22197619D01*
X67216666Y-22245238D01*
X67169047Y-22269047D01*
X67883333Y-22292857D02*
X67883333Y-22626190D01*
X67764285Y-22102380D02*
X67645238Y-22459523D01*
X67954761Y-22459523D01*
D10*
%TO.C,RV1*%
X21202380Y-4895238D02*
X20726190Y-5228571D01*
X21202380Y-5466666D02*
X20202380Y-5466666D01*
X20202380Y-5085714D01*
X20250000Y-4990476D01*
X20297619Y-4942857D01*
X20392857Y-4895238D01*
X20535714Y-4895238D01*
X20630952Y-4942857D01*
X20678571Y-4990476D01*
X20726190Y-5085714D01*
X20726190Y-5466666D01*
X20202380Y-4609523D02*
X21202380Y-4276190D01*
X20202380Y-3942857D01*
X21202380Y-3085714D02*
X21202380Y-3657142D01*
X21202380Y-3371428D02*
X20202380Y-3371428D01*
X20345238Y-3466666D01*
X20440476Y-3561904D01*
X20488095Y-3657142D01*
D11*
%TO.C,C13*%
X18278571Y-23681428D02*
X18302380Y-23705238D01*
X18326190Y-23776666D01*
X18326190Y-23824285D01*
X18302380Y-23895714D01*
X18254761Y-23943333D01*
X18207142Y-23967142D01*
X18111904Y-23990952D01*
X18040476Y-23990952D01*
X17945238Y-23967142D01*
X17897619Y-23943333D01*
X17850000Y-23895714D01*
X17826190Y-23824285D01*
X17826190Y-23776666D01*
X17850000Y-23705238D01*
X17873809Y-23681428D01*
X18326190Y-23205238D02*
X18326190Y-23490952D01*
X18326190Y-23348095D02*
X17826190Y-23348095D01*
X17897619Y-23395714D01*
X17945238Y-23443333D01*
X17969047Y-23490952D01*
X17826190Y-23038571D02*
X17826190Y-22729047D01*
X18016666Y-22895714D01*
X18016666Y-22824285D01*
X18040476Y-22776666D01*
X18064285Y-22752857D01*
X18111904Y-22729047D01*
X18230952Y-22729047D01*
X18278571Y-22752857D01*
X18302380Y-22776666D01*
X18326190Y-22824285D01*
X18326190Y-22967142D01*
X18302380Y-23014761D01*
X18278571Y-23038571D01*
%TO.C,R6*%
X9636666Y-44731190D02*
X9470000Y-44493095D01*
X9350952Y-44731190D02*
X9350952Y-44231190D01*
X9541428Y-44231190D01*
X9589047Y-44255000D01*
X9612857Y-44278809D01*
X9636666Y-44326428D01*
X9636666Y-44397857D01*
X9612857Y-44445476D01*
X9589047Y-44469285D01*
X9541428Y-44493095D01*
X9350952Y-44493095D01*
X10065238Y-44231190D02*
X9970000Y-44231190D01*
X9922380Y-44255000D01*
X9898571Y-44278809D01*
X9850952Y-44350238D01*
X9827142Y-44445476D01*
X9827142Y-44635952D01*
X9850952Y-44683571D01*
X9874761Y-44707380D01*
X9922380Y-44731190D01*
X10017619Y-44731190D01*
X10065238Y-44707380D01*
X10089047Y-44683571D01*
X10112857Y-44635952D01*
X10112857Y-44516904D01*
X10089047Y-44469285D01*
X10065238Y-44445476D01*
X10017619Y-44421666D01*
X9922380Y-44421666D01*
X9874761Y-44445476D01*
X9850952Y-44469285D01*
X9827142Y-44516904D01*
D10*
%TO.C,J6*%
X53696666Y-9732380D02*
X53696666Y-10446666D01*
X53649047Y-10589523D01*
X53553809Y-10684761D01*
X53410952Y-10732380D01*
X53315714Y-10732380D01*
X54601428Y-9732380D02*
X54410952Y-9732380D01*
X54315714Y-9780000D01*
X54268095Y-9827619D01*
X54172857Y-9970476D01*
X54125238Y-10160952D01*
X54125238Y-10541904D01*
X54172857Y-10637142D01*
X54220476Y-10684761D01*
X54315714Y-10732380D01*
X54506190Y-10732380D01*
X54601428Y-10684761D01*
X54649047Y-10637142D01*
X54696666Y-10541904D01*
X54696666Y-10303809D01*
X54649047Y-10208571D01*
X54601428Y-10160952D01*
X54506190Y-10113333D01*
X54315714Y-10113333D01*
X54220476Y-10160952D01*
X54172857Y-10208571D01*
X54125238Y-10303809D01*
%TO.C,J7*%
X68766666Y-9409880D02*
X68766666Y-10124166D01*
X68719047Y-10267023D01*
X68623809Y-10362261D01*
X68480952Y-10409880D01*
X68385714Y-10409880D01*
X69147619Y-9409880D02*
X69814285Y-9409880D01*
X69385714Y-10409880D01*
D11*
%TO.C,R7*%
X32576190Y-23663333D02*
X32338095Y-23830000D01*
X32576190Y-23949047D02*
X32076190Y-23949047D01*
X32076190Y-23758571D01*
X32100000Y-23710952D01*
X32123809Y-23687142D01*
X32171428Y-23663333D01*
X32242857Y-23663333D01*
X32290476Y-23687142D01*
X32314285Y-23710952D01*
X32338095Y-23758571D01*
X32338095Y-23949047D01*
X32076190Y-23496666D02*
X32076190Y-23163333D01*
X32576190Y-23377619D01*
D10*
%TO.C,H5*%
X71538095Y-43452380D02*
X71538095Y-42452380D01*
X71538095Y-42928571D02*
X72109523Y-42928571D01*
X72109523Y-43452380D02*
X72109523Y-42452380D01*
X73061904Y-42452380D02*
X72585714Y-42452380D01*
X72538095Y-42928571D01*
X72585714Y-42880952D01*
X72680952Y-42833333D01*
X72919047Y-42833333D01*
X73014285Y-42880952D01*
X73061904Y-42928571D01*
X73109523Y-43023809D01*
X73109523Y-43261904D01*
X73061904Y-43357142D01*
X73014285Y-43404761D01*
X72919047Y-43452380D01*
X72680952Y-43452380D01*
X72585714Y-43404761D01*
X72538095Y-43357142D01*
%TO.C,D1*%
X51692380Y-35573095D02*
X50692380Y-35573095D01*
X50692380Y-35335000D01*
X50740000Y-35192142D01*
X50835238Y-35096904D01*
X50930476Y-35049285D01*
X51120952Y-35001666D01*
X51263809Y-35001666D01*
X51454285Y-35049285D01*
X51549523Y-35096904D01*
X51644761Y-35192142D01*
X51692380Y-35335000D01*
X51692380Y-35573095D01*
X51692380Y-34049285D02*
X51692380Y-34620714D01*
X51692380Y-34335000D02*
X50692380Y-34335000D01*
X50835238Y-34430238D01*
X50930476Y-34525476D01*
X50978095Y-34620714D01*
%TO.C,A1*%
X53415714Y-22766666D02*
X53891904Y-22766666D01*
X53320476Y-23052380D02*
X53653809Y-22052380D01*
X53987142Y-23052380D01*
X54844285Y-23052380D02*
X54272857Y-23052380D01*
X54558571Y-23052380D02*
X54558571Y-22052380D01*
X54463333Y-22195238D01*
X54368095Y-22290476D01*
X54272857Y-22338095D01*
D11*
%TO.C,C12*%
X18308571Y-17441428D02*
X18332380Y-17465238D01*
X18356190Y-17536666D01*
X18356190Y-17584285D01*
X18332380Y-17655714D01*
X18284761Y-17703333D01*
X18237142Y-17727142D01*
X18141904Y-17750952D01*
X18070476Y-17750952D01*
X17975238Y-17727142D01*
X17927619Y-17703333D01*
X17880000Y-17655714D01*
X17856190Y-17584285D01*
X17856190Y-17536666D01*
X17880000Y-17465238D01*
X17903809Y-17441428D01*
X18356190Y-16965238D02*
X18356190Y-17250952D01*
X18356190Y-17108095D02*
X17856190Y-17108095D01*
X17927619Y-17155714D01*
X17975238Y-17203333D01*
X17999047Y-17250952D01*
X17903809Y-16774761D02*
X17880000Y-16750952D01*
X17856190Y-16703333D01*
X17856190Y-16584285D01*
X17880000Y-16536666D01*
X17903809Y-16512857D01*
X17951428Y-16489047D01*
X17999047Y-16489047D01*
X18070476Y-16512857D01*
X18356190Y-16798571D01*
X18356190Y-16489047D01*
D10*
%TO.C,J4*%
X69526666Y-24792380D02*
X69526666Y-25506666D01*
X69479047Y-25649523D01*
X69383809Y-25744761D01*
X69240952Y-25792380D01*
X69145714Y-25792380D01*
X70431428Y-25125714D02*
X70431428Y-25792380D01*
X70193333Y-24744761D02*
X69955238Y-25459047D01*
X70574285Y-25459047D01*
%TO.C,H2*%
X4538095Y-6452380D02*
X4538095Y-5452380D01*
X4538095Y-5928571D02*
X5109523Y-5928571D01*
X5109523Y-6452380D02*
X5109523Y-5452380D01*
X5538095Y-5547619D02*
X5585714Y-5500000D01*
X5680952Y-5452380D01*
X5919047Y-5452380D01*
X6014285Y-5500000D01*
X6061904Y-5547619D01*
X6109523Y-5642857D01*
X6109523Y-5738095D01*
X6061904Y-5880952D01*
X5490476Y-6452380D01*
X6109523Y-6452380D01*
D11*
%TO.C,L3*%
X6526190Y-33683333D02*
X6526190Y-33921428D01*
X6026190Y-33921428D01*
X6026190Y-33564285D02*
X6026190Y-33254761D01*
X6216666Y-33421428D01*
X6216666Y-33350000D01*
X6240476Y-33302380D01*
X6264285Y-33278571D01*
X6311904Y-33254761D01*
X6430952Y-33254761D01*
X6478571Y-33278571D01*
X6502380Y-33302380D01*
X6526190Y-33350000D01*
X6526190Y-33492857D01*
X6502380Y-33540476D01*
X6478571Y-33564285D01*
%TO.C,R9*%
X38396666Y-25636190D02*
X38230000Y-25398095D01*
X38110952Y-25636190D02*
X38110952Y-25136190D01*
X38301428Y-25136190D01*
X38349047Y-25160000D01*
X38372857Y-25183809D01*
X38396666Y-25231428D01*
X38396666Y-25302857D01*
X38372857Y-25350476D01*
X38349047Y-25374285D01*
X38301428Y-25398095D01*
X38110952Y-25398095D01*
X38634761Y-25636190D02*
X38730000Y-25636190D01*
X38777619Y-25612380D01*
X38801428Y-25588571D01*
X38849047Y-25517142D01*
X38872857Y-25421904D01*
X38872857Y-25231428D01*
X38849047Y-25183809D01*
X38825238Y-25160000D01*
X38777619Y-25136190D01*
X38682380Y-25136190D01*
X38634761Y-25160000D01*
X38610952Y-25183809D01*
X38587142Y-25231428D01*
X38587142Y-25350476D01*
X38610952Y-25398095D01*
X38634761Y-25421904D01*
X38682380Y-25445714D01*
X38777619Y-25445714D01*
X38825238Y-25421904D01*
X38849047Y-25398095D01*
X38872857Y-25350476D01*
D10*
%TO.C,H4*%
X12538095Y-3452380D02*
X12538095Y-2452380D01*
X12538095Y-2928571D02*
X13109523Y-2928571D01*
X13109523Y-3452380D02*
X13109523Y-2452380D01*
X14014285Y-2785714D02*
X14014285Y-3452380D01*
X13776190Y-2404761D02*
X13538095Y-3119047D01*
X14157142Y-3119047D01*
%TO.C,SW1*%
X35664791Y-40455761D02*
X35807648Y-40503380D01*
X36045744Y-40503380D01*
X36140982Y-40455761D01*
X36188601Y-40408142D01*
X36236220Y-40312904D01*
X36236220Y-40217666D01*
X36188601Y-40122428D01*
X36140982Y-40074809D01*
X36045744Y-40027190D01*
X35855267Y-39979571D01*
X35760029Y-39931952D01*
X35712410Y-39884333D01*
X35664791Y-39789095D01*
X35664791Y-39693857D01*
X35712410Y-39598619D01*
X35760029Y-39551000D01*
X35855267Y-39503380D01*
X36093363Y-39503380D01*
X36236220Y-39551000D01*
X36569553Y-39503380D02*
X36807648Y-40503380D01*
X36998125Y-39789095D01*
X37188601Y-40503380D01*
X37426696Y-39503380D01*
X38331458Y-40503380D02*
X37760029Y-40503380D01*
X38045744Y-40503380D02*
X38045744Y-39503380D01*
X37950505Y-39646238D01*
X37855267Y-39741476D01*
X37760029Y-39789095D01*
D11*
%TO.C,R4*%
X13646190Y-43888333D02*
X13408095Y-44055000D01*
X13646190Y-44174047D02*
X13146190Y-44174047D01*
X13146190Y-43983571D01*
X13170000Y-43935952D01*
X13193809Y-43912142D01*
X13241428Y-43888333D01*
X13312857Y-43888333D01*
X13360476Y-43912142D01*
X13384285Y-43935952D01*
X13408095Y-43983571D01*
X13408095Y-44174047D01*
X13312857Y-43459761D02*
X13646190Y-43459761D01*
X13122380Y-43578809D02*
X13479523Y-43697857D01*
X13479523Y-43388333D01*
%TO.C,C5*%
X15808571Y-41783333D02*
X15832380Y-41807142D01*
X15856190Y-41878571D01*
X15856190Y-41926190D01*
X15832380Y-41997619D01*
X15784761Y-42045238D01*
X15737142Y-42069047D01*
X15641904Y-42092857D01*
X15570476Y-42092857D01*
X15475238Y-42069047D01*
X15427619Y-42045238D01*
X15380000Y-41997619D01*
X15356190Y-41926190D01*
X15356190Y-41878571D01*
X15380000Y-41807142D01*
X15403809Y-41783333D01*
X15356190Y-41330952D02*
X15356190Y-41569047D01*
X15594285Y-41592857D01*
X15570476Y-41569047D01*
X15546666Y-41521428D01*
X15546666Y-41402380D01*
X15570476Y-41354761D01*
X15594285Y-41330952D01*
X15641904Y-41307142D01*
X15760952Y-41307142D01*
X15808571Y-41330952D01*
X15832380Y-41354761D01*
X15856190Y-41402380D01*
X15856190Y-41521428D01*
X15832380Y-41569047D01*
X15808571Y-41592857D01*
D10*
%TO.C,D3*%
X36492380Y-18058095D02*
X35492380Y-18058095D01*
X35492380Y-17820000D01*
X35540000Y-17677142D01*
X35635238Y-17581904D01*
X35730476Y-17534285D01*
X35920952Y-17486666D01*
X36063809Y-17486666D01*
X36254285Y-17534285D01*
X36349523Y-17581904D01*
X36444761Y-17677142D01*
X36492380Y-17820000D01*
X36492380Y-18058095D01*
X35492380Y-17153333D02*
X35492380Y-16534285D01*
X35873333Y-16867619D01*
X35873333Y-16724761D01*
X35920952Y-16629523D01*
X35968571Y-16581904D01*
X36063809Y-16534285D01*
X36301904Y-16534285D01*
X36397142Y-16581904D01*
X36444761Y-16629523D01*
X36492380Y-16724761D01*
X36492380Y-17010476D01*
X36444761Y-17105714D01*
X36397142Y-17153333D01*
D11*
%TO.C,C7*%
X26768571Y-23583333D02*
X26792380Y-23607142D01*
X26816190Y-23678571D01*
X26816190Y-23726190D01*
X26792380Y-23797619D01*
X26744761Y-23845238D01*
X26697142Y-23869047D01*
X26601904Y-23892857D01*
X26530476Y-23892857D01*
X26435238Y-23869047D01*
X26387619Y-23845238D01*
X26340000Y-23797619D01*
X26316190Y-23726190D01*
X26316190Y-23678571D01*
X26340000Y-23607142D01*
X26363809Y-23583333D01*
X26316190Y-23416666D02*
X26316190Y-23083333D01*
X26816190Y-23297619D01*
D12*
%TO.C,R12*%
X16201904Y-24434285D02*
X15820952Y-24700952D01*
X16201904Y-24891428D02*
X15401904Y-24891428D01*
X15401904Y-24586666D01*
X15440000Y-24510476D01*
X15478095Y-24472380D01*
X15554285Y-24434285D01*
X15668571Y-24434285D01*
X15744761Y-24472380D01*
X15782857Y-24510476D01*
X15820952Y-24586666D01*
X15820952Y-24891428D01*
X16201904Y-23672380D02*
X16201904Y-24129523D01*
X16201904Y-23900952D02*
X15401904Y-23900952D01*
X15516190Y-23977142D01*
X15592380Y-24053333D01*
X15630476Y-24129523D01*
X15478095Y-23367619D02*
X15440000Y-23329523D01*
X15401904Y-23253333D01*
X15401904Y-23062857D01*
X15440000Y-22986666D01*
X15478095Y-22948571D01*
X15554285Y-22910476D01*
X15630476Y-22910476D01*
X15744761Y-22948571D01*
X16201904Y-23405714D01*
X16201904Y-22910476D01*
D10*
%TO.C,J5*%
X70796666Y-16792380D02*
X70796666Y-17506666D01*
X70749047Y-17649523D01*
X70653809Y-17744761D01*
X70510952Y-17792380D01*
X70415714Y-17792380D01*
X71749047Y-16792380D02*
X71272857Y-16792380D01*
X71225238Y-17268571D01*
X71272857Y-17220952D01*
X71368095Y-17173333D01*
X71606190Y-17173333D01*
X71701428Y-17220952D01*
X71749047Y-17268571D01*
X71796666Y-17363809D01*
X71796666Y-17601904D01*
X71749047Y-17697142D01*
X71701428Y-17744761D01*
X71606190Y-17792380D01*
X71368095Y-17792380D01*
X71272857Y-17744761D01*
X71225238Y-17697142D01*
%TO.C,H1*%
X71538095Y-52502380D02*
X71538095Y-51502380D01*
X71538095Y-51978571D02*
X72109523Y-51978571D01*
X72109523Y-52502380D02*
X72109523Y-51502380D01*
X73109523Y-52502380D02*
X72538095Y-52502380D01*
X72823809Y-52502380D02*
X72823809Y-51502380D01*
X72728571Y-51645238D01*
X72633333Y-51740476D01*
X72538095Y-51788095D01*
%TO.C,U1*%
X19883333Y-40208333D02*
X19883333Y-41001666D01*
X19930000Y-41095000D01*
X19976666Y-41141666D01*
X20070000Y-41188333D01*
X20256666Y-41188333D01*
X20350000Y-41141666D01*
X20396666Y-41095000D01*
X20443333Y-41001666D01*
X20443333Y-40208333D01*
X21423333Y-41188333D02*
X20863333Y-41188333D01*
X21143333Y-41188333D02*
X21143333Y-40208333D01*
X21050000Y-40348333D01*
X20956666Y-40441666D01*
X20863333Y-40488333D01*
D11*
%TO.C,C10*%
X22308571Y-25558571D02*
X22284761Y-25582380D01*
X22213333Y-25606190D01*
X22165714Y-25606190D01*
X22094285Y-25582380D01*
X22046666Y-25534761D01*
X22022857Y-25487142D01*
X21999047Y-25391904D01*
X21999047Y-25320476D01*
X22022857Y-25225238D01*
X22046666Y-25177619D01*
X22094285Y-25130000D01*
X22165714Y-25106190D01*
X22213333Y-25106190D01*
X22284761Y-25130000D01*
X22308571Y-25153809D01*
X22784761Y-25606190D02*
X22499047Y-25606190D01*
X22641904Y-25606190D02*
X22641904Y-25106190D01*
X22594285Y-25177619D01*
X22546666Y-25225238D01*
X22499047Y-25249047D01*
X23094285Y-25106190D02*
X23141904Y-25106190D01*
X23189523Y-25130000D01*
X23213333Y-25153809D01*
X23237142Y-25201428D01*
X23260952Y-25296666D01*
X23260952Y-25415714D01*
X23237142Y-25510952D01*
X23213333Y-25558571D01*
X23189523Y-25582380D01*
X23141904Y-25606190D01*
X23094285Y-25606190D01*
X23046666Y-25582380D01*
X23022857Y-25558571D01*
X22999047Y-25510952D01*
X22975238Y-25415714D01*
X22975238Y-25296666D01*
X22999047Y-25201428D01*
X23022857Y-25153809D01*
X23046666Y-25130000D01*
X23094285Y-25106190D01*
%TO.C,L1*%
X9046666Y-39661190D02*
X8808571Y-39661190D01*
X8808571Y-39161190D01*
X9475238Y-39661190D02*
X9189523Y-39661190D01*
X9332380Y-39661190D02*
X9332380Y-39161190D01*
X9284761Y-39232619D01*
X9237142Y-39280238D01*
X9189523Y-39304047D01*
%TO.C,R15*%
X66978571Y-20526190D02*
X66811904Y-20288095D01*
X66692857Y-20526190D02*
X66692857Y-20026190D01*
X66883333Y-20026190D01*
X66930952Y-20050000D01*
X66954761Y-20073809D01*
X66978571Y-20121428D01*
X66978571Y-20192857D01*
X66954761Y-20240476D01*
X66930952Y-20264285D01*
X66883333Y-20288095D01*
X66692857Y-20288095D01*
X67454761Y-20526190D02*
X67169047Y-20526190D01*
X67311904Y-20526190D02*
X67311904Y-20026190D01*
X67264285Y-20097619D01*
X67216666Y-20145238D01*
X67169047Y-20169047D01*
X67907142Y-20026190D02*
X67669047Y-20026190D01*
X67645238Y-20264285D01*
X67669047Y-20240476D01*
X67716666Y-20216666D01*
X67835714Y-20216666D01*
X67883333Y-20240476D01*
X67907142Y-20264285D01*
X67930952Y-20311904D01*
X67930952Y-20430952D01*
X67907142Y-20478571D01*
X67883333Y-20502380D01*
X67835714Y-20526190D01*
X67716666Y-20526190D01*
X67669047Y-20502380D01*
X67645238Y-20478571D01*
%TO.C,R11*%
X24648571Y-13706190D02*
X24481904Y-13468095D01*
X24362857Y-13706190D02*
X24362857Y-13206190D01*
X24553333Y-13206190D01*
X24600952Y-13230000D01*
X24624761Y-13253809D01*
X24648571Y-13301428D01*
X24648571Y-13372857D01*
X24624761Y-13420476D01*
X24600952Y-13444285D01*
X24553333Y-13468095D01*
X24362857Y-13468095D01*
X25124761Y-13706190D02*
X24839047Y-13706190D01*
X24981904Y-13706190D02*
X24981904Y-13206190D01*
X24934285Y-13277619D01*
X24886666Y-13325238D01*
X24839047Y-13349047D01*
X25600952Y-13706190D02*
X25315238Y-13706190D01*
X25458095Y-13706190D02*
X25458095Y-13206190D01*
X25410476Y-13277619D01*
X25362857Y-13325238D01*
X25315238Y-13349047D01*
D10*
%TO.C,J8*%
X6657380Y-21273333D02*
X7371666Y-21273333D01*
X7514523Y-21320952D01*
X7609761Y-21416190D01*
X7657380Y-21559047D01*
X7657380Y-21654285D01*
X7085952Y-20654285D02*
X7038333Y-20749523D01*
X6990714Y-20797142D01*
X6895476Y-20844761D01*
X6847857Y-20844761D01*
X6752619Y-20797142D01*
X6705000Y-20749523D01*
X6657380Y-20654285D01*
X6657380Y-20463809D01*
X6705000Y-20368571D01*
X6752619Y-20320952D01*
X6847857Y-20273333D01*
X6895476Y-20273333D01*
X6990714Y-20320952D01*
X7038333Y-20368571D01*
X7085952Y-20463809D01*
X7085952Y-20654285D01*
X7133571Y-20749523D01*
X7181190Y-20797142D01*
X7276428Y-20844761D01*
X7466904Y-20844761D01*
X7562142Y-20797142D01*
X7609761Y-20749523D01*
X7657380Y-20654285D01*
X7657380Y-20463809D01*
X7609761Y-20368571D01*
X7562142Y-20320952D01*
X7466904Y-20273333D01*
X7276428Y-20273333D01*
X7181190Y-20320952D01*
X7133571Y-20368571D01*
X7085952Y-20463809D01*
D11*
%TO.C,R5*%
X8936666Y-42531190D02*
X8770000Y-42293095D01*
X8650952Y-42531190D02*
X8650952Y-42031190D01*
X8841428Y-42031190D01*
X8889047Y-42055000D01*
X8912857Y-42078809D01*
X8936666Y-42126428D01*
X8936666Y-42197857D01*
X8912857Y-42245476D01*
X8889047Y-42269285D01*
X8841428Y-42293095D01*
X8650952Y-42293095D01*
X9389047Y-42031190D02*
X9150952Y-42031190D01*
X9127142Y-42269285D01*
X9150952Y-42245476D01*
X9198571Y-42221666D01*
X9317619Y-42221666D01*
X9365238Y-42245476D01*
X9389047Y-42269285D01*
X9412857Y-42316904D01*
X9412857Y-42435952D01*
X9389047Y-42483571D01*
X9365238Y-42507380D01*
X9317619Y-42531190D01*
X9198571Y-42531190D01*
X9150952Y-42507380D01*
X9127142Y-42483571D01*
D10*
%TO.C,H7*%
X19538095Y-52702380D02*
X19538095Y-51702380D01*
X19538095Y-52178571D02*
X20109523Y-52178571D01*
X20109523Y-52702380D02*
X20109523Y-51702380D01*
X20490476Y-51702380D02*
X21157142Y-51702380D01*
X20728571Y-52702380D01*
D11*
%TO.C,L2*%
X28126190Y-35408333D02*
X28126190Y-35646428D01*
X27626190Y-35646428D01*
X27673809Y-35265476D02*
X27650000Y-35241666D01*
X27626190Y-35194047D01*
X27626190Y-35075000D01*
X27650000Y-35027380D01*
X27673809Y-35003571D01*
X27721428Y-34979761D01*
X27769047Y-34979761D01*
X27840476Y-35003571D01*
X28126190Y-35289285D01*
X28126190Y-34979761D01*
D12*
%TO.C,R13*%
X16231904Y-17064285D02*
X15850952Y-17330952D01*
X16231904Y-17521428D02*
X15431904Y-17521428D01*
X15431904Y-17216666D01*
X15470000Y-17140476D01*
X15508095Y-17102380D01*
X15584285Y-17064285D01*
X15698571Y-17064285D01*
X15774761Y-17102380D01*
X15812857Y-17140476D01*
X15850952Y-17216666D01*
X15850952Y-17521428D01*
X16231904Y-16302380D02*
X16231904Y-16759523D01*
X16231904Y-16530952D02*
X15431904Y-16530952D01*
X15546190Y-16607142D01*
X15622380Y-16683333D01*
X15660476Y-16759523D01*
X15431904Y-16035714D02*
X15431904Y-15540476D01*
X15736666Y-15807142D01*
X15736666Y-15692857D01*
X15774761Y-15616666D01*
X15812857Y-15578571D01*
X15889047Y-15540476D01*
X16079523Y-15540476D01*
X16155714Y-15578571D01*
X16193809Y-15616666D01*
X16231904Y-15692857D01*
X16231904Y-15921428D01*
X16193809Y-15997619D01*
X16155714Y-16035714D01*
D11*
%TO.C,C4*%
X6128571Y-42028333D02*
X6152380Y-42052142D01*
X6176190Y-42123571D01*
X6176190Y-42171190D01*
X6152380Y-42242619D01*
X6104761Y-42290238D01*
X6057142Y-42314047D01*
X5961904Y-42337857D01*
X5890476Y-42337857D01*
X5795238Y-42314047D01*
X5747619Y-42290238D01*
X5700000Y-42242619D01*
X5676190Y-42171190D01*
X5676190Y-42123571D01*
X5700000Y-42052142D01*
X5723809Y-42028333D01*
X5842857Y-41599761D02*
X6176190Y-41599761D01*
X5652380Y-41718809D02*
X6009523Y-41837857D01*
X6009523Y-41528333D01*
D10*
%TO.C,H3*%
X11538095Y-54702380D02*
X11538095Y-53702380D01*
X11538095Y-54178571D02*
X12109523Y-54178571D01*
X12109523Y-54702380D02*
X12109523Y-53702380D01*
X12490476Y-53702380D02*
X13109523Y-53702380D01*
X12776190Y-54083333D01*
X12919047Y-54083333D01*
X13014285Y-54130952D01*
X13061904Y-54178571D01*
X13109523Y-54273809D01*
X13109523Y-54511904D01*
X13061904Y-54607142D01*
X13014285Y-54654761D01*
X12919047Y-54702380D01*
X12633333Y-54702380D01*
X12538095Y-54654761D01*
X12490476Y-54607142D01*
D11*
%TO.C,C2*%
X6118571Y-38108333D02*
X6142380Y-38132142D01*
X6166190Y-38203571D01*
X6166190Y-38251190D01*
X6142380Y-38322619D01*
X6094761Y-38370238D01*
X6047142Y-38394047D01*
X5951904Y-38417857D01*
X5880476Y-38417857D01*
X5785238Y-38394047D01*
X5737619Y-38370238D01*
X5690000Y-38322619D01*
X5666190Y-38251190D01*
X5666190Y-38203571D01*
X5690000Y-38132142D01*
X5713809Y-38108333D01*
X5713809Y-37917857D02*
X5690000Y-37894047D01*
X5666190Y-37846428D01*
X5666190Y-37727380D01*
X5690000Y-37679761D01*
X5713809Y-37655952D01*
X5761428Y-37632142D01*
X5809047Y-37632142D01*
X5880476Y-37655952D01*
X6166190Y-37941666D01*
X6166190Y-37632142D01*
%TO.C,C6*%
X13548571Y-47888333D02*
X13572380Y-47912142D01*
X13596190Y-47983571D01*
X13596190Y-48031190D01*
X13572380Y-48102619D01*
X13524761Y-48150238D01*
X13477142Y-48174047D01*
X13381904Y-48197857D01*
X13310476Y-48197857D01*
X13215238Y-48174047D01*
X13167619Y-48150238D01*
X13120000Y-48102619D01*
X13096190Y-48031190D01*
X13096190Y-47983571D01*
X13120000Y-47912142D01*
X13143809Y-47888333D01*
X13096190Y-47459761D02*
X13096190Y-47555000D01*
X13120000Y-47602619D01*
X13143809Y-47626428D01*
X13215238Y-47674047D01*
X13310476Y-47697857D01*
X13500952Y-47697857D01*
X13548571Y-47674047D01*
X13572380Y-47650238D01*
X13596190Y-47602619D01*
X13596190Y-47507380D01*
X13572380Y-47459761D01*
X13548571Y-47435952D01*
X13500952Y-47412142D01*
X13381904Y-47412142D01*
X13334285Y-47435952D01*
X13310476Y-47459761D01*
X13286666Y-47507380D01*
X13286666Y-47602619D01*
X13310476Y-47650238D01*
X13334285Y-47674047D01*
X13381904Y-47697857D01*
D10*
%TO.C,U2*%
X21832380Y-21151904D02*
X22641904Y-21151904D01*
X22737142Y-21104285D01*
X22784761Y-21056666D01*
X22832380Y-20961428D01*
X22832380Y-20770952D01*
X22784761Y-20675714D01*
X22737142Y-20628095D01*
X22641904Y-20580476D01*
X21832380Y-20580476D01*
X21927619Y-20151904D02*
X21880000Y-20104285D01*
X21832380Y-20009047D01*
X21832380Y-19770952D01*
X21880000Y-19675714D01*
X21927619Y-19628095D01*
X22022857Y-19580476D01*
X22118095Y-19580476D01*
X22260952Y-19628095D01*
X22832380Y-20199523D01*
X22832380Y-19580476D01*
D11*
%TO.C,R8*%
X25896190Y-36388333D02*
X25658095Y-36555000D01*
X25896190Y-36674047D02*
X25396190Y-36674047D01*
X25396190Y-36483571D01*
X25420000Y-36435952D01*
X25443809Y-36412142D01*
X25491428Y-36388333D01*
X25562857Y-36388333D01*
X25610476Y-36412142D01*
X25634285Y-36435952D01*
X25658095Y-36483571D01*
X25658095Y-36674047D01*
X25610476Y-36102619D02*
X25586666Y-36150238D01*
X25562857Y-36174047D01*
X25515238Y-36197857D01*
X25491428Y-36197857D01*
X25443809Y-36174047D01*
X25420000Y-36150238D01*
X25396190Y-36102619D01*
X25396190Y-36007380D01*
X25420000Y-35959761D01*
X25443809Y-35935952D01*
X25491428Y-35912142D01*
X25515238Y-35912142D01*
X25562857Y-35935952D01*
X25586666Y-35959761D01*
X25610476Y-36007380D01*
X25610476Y-36102619D01*
X25634285Y-36150238D01*
X25658095Y-36174047D01*
X25705714Y-36197857D01*
X25800952Y-36197857D01*
X25848571Y-36174047D01*
X25872380Y-36150238D01*
X25896190Y-36102619D01*
X25896190Y-36007380D01*
X25872380Y-35959761D01*
X25848571Y-35935952D01*
X25800952Y-35912142D01*
X25705714Y-35912142D01*
X25658095Y-35935952D01*
X25634285Y-35959761D01*
X25610476Y-36007380D01*
D10*
%TO.C,D2*%
X30142380Y-28698095D02*
X29142380Y-28698095D01*
X29142380Y-28460000D01*
X29190000Y-28317142D01*
X29285238Y-28221904D01*
X29380476Y-28174285D01*
X29570952Y-28126666D01*
X29713809Y-28126666D01*
X29904285Y-28174285D01*
X29999523Y-28221904D01*
X30094761Y-28317142D01*
X30142380Y-28460000D01*
X30142380Y-28698095D01*
X29237619Y-27745714D02*
X29190000Y-27698095D01*
X29142380Y-27602857D01*
X29142380Y-27364761D01*
X29190000Y-27269523D01*
X29237619Y-27221904D01*
X29332857Y-27174285D01*
X29428095Y-27174285D01*
X29570952Y-27221904D01*
X30142380Y-27793333D01*
X30142380Y-27174285D01*
%TO.C,J3*%
X39656666Y-9692380D02*
X39656666Y-10406666D01*
X39609047Y-10549523D01*
X39513809Y-10644761D01*
X39370952Y-10692380D01*
X39275714Y-10692380D01*
X40037619Y-9692380D02*
X40656666Y-9692380D01*
X40323333Y-10073333D01*
X40466190Y-10073333D01*
X40561428Y-10120952D01*
X40609047Y-10168571D01*
X40656666Y-10263809D01*
X40656666Y-10501904D01*
X40609047Y-10597142D01*
X40561428Y-10644761D01*
X40466190Y-10692380D01*
X40180476Y-10692380D01*
X40085238Y-10644761D01*
X40037619Y-10597142D01*
D11*
%TO.C,R2*%
X45716666Y-17316190D02*
X45550000Y-17078095D01*
X45430952Y-17316190D02*
X45430952Y-16816190D01*
X45621428Y-16816190D01*
X45669047Y-16840000D01*
X45692857Y-16863809D01*
X45716666Y-16911428D01*
X45716666Y-16982857D01*
X45692857Y-17030476D01*
X45669047Y-17054285D01*
X45621428Y-17078095D01*
X45430952Y-17078095D01*
X45907142Y-16863809D02*
X45930952Y-16840000D01*
X45978571Y-16816190D01*
X46097619Y-16816190D01*
X46145238Y-16840000D01*
X46169047Y-16863809D01*
X46192857Y-16911428D01*
X46192857Y-16959047D01*
X46169047Y-17030476D01*
X45883333Y-17316190D01*
X46192857Y-17316190D01*
%TO.C,R1*%
X50526190Y-32583333D02*
X50288095Y-32750000D01*
X50526190Y-32869047D02*
X50026190Y-32869047D01*
X50026190Y-32678571D01*
X50050000Y-32630952D01*
X50073809Y-32607142D01*
X50121428Y-32583333D01*
X50192857Y-32583333D01*
X50240476Y-32607142D01*
X50264285Y-32630952D01*
X50288095Y-32678571D01*
X50288095Y-32869047D01*
X50526190Y-32107142D02*
X50526190Y-32392857D01*
X50526190Y-32250000D02*
X50026190Y-32250000D01*
X50097619Y-32297619D01*
X50145238Y-32345238D01*
X50169047Y-32392857D01*
D10*
%TO.C,J9*%
X9922380Y-21283333D02*
X10636666Y-21283333D01*
X10779523Y-21330952D01*
X10874761Y-21426190D01*
X10922380Y-21569047D01*
X10922380Y-21664285D01*
X10922380Y-20759523D02*
X10922380Y-20569047D01*
X10874761Y-20473809D01*
X10827142Y-20426190D01*
X10684285Y-20330952D01*
X10493809Y-20283333D01*
X10112857Y-20283333D01*
X10017619Y-20330952D01*
X9970000Y-20378571D01*
X9922380Y-20473809D01*
X9922380Y-20664285D01*
X9970000Y-20759523D01*
X10017619Y-20807142D01*
X10112857Y-20854761D01*
X10350952Y-20854761D01*
X10446190Y-20807142D01*
X10493809Y-20759523D01*
X10541428Y-20664285D01*
X10541428Y-20473809D01*
X10493809Y-20378571D01*
X10446190Y-20330952D01*
X10350952Y-20283333D01*
D13*
%TO.C,Q1*%
X11333809Y-36312619D02*
X11310000Y-36360238D01*
X11262380Y-36407857D01*
X11190952Y-36479285D01*
X11167142Y-36526904D01*
X11167142Y-36574523D01*
X11286190Y-36550714D02*
X11262380Y-36598333D01*
X11214761Y-36645952D01*
X11119523Y-36669761D01*
X10952857Y-36669761D01*
X10857619Y-36645952D01*
X10810000Y-36598333D01*
X10786190Y-36550714D01*
X10786190Y-36455476D01*
X10810000Y-36407857D01*
X10857619Y-36360238D01*
X10952857Y-36336428D01*
X11119523Y-36336428D01*
X11214761Y-36360238D01*
X11262380Y-36407857D01*
X11286190Y-36455476D01*
X11286190Y-36550714D01*
X11286190Y-35860238D02*
X11286190Y-36145952D01*
X11286190Y-36003095D02*
X10786190Y-36003095D01*
X10857619Y-36050714D01*
X10905238Y-36098333D01*
X10929047Y-36145952D01*
D11*
%TO.C,C11*%
X23658571Y-28701428D02*
X23682380Y-28725238D01*
X23706190Y-28796666D01*
X23706190Y-28844285D01*
X23682380Y-28915714D01*
X23634761Y-28963333D01*
X23587142Y-28987142D01*
X23491904Y-29010952D01*
X23420476Y-29010952D01*
X23325238Y-28987142D01*
X23277619Y-28963333D01*
X23230000Y-28915714D01*
X23206190Y-28844285D01*
X23206190Y-28796666D01*
X23230000Y-28725238D01*
X23253809Y-28701428D01*
X23706190Y-28225238D02*
X23706190Y-28510952D01*
X23706190Y-28368095D02*
X23206190Y-28368095D01*
X23277619Y-28415714D01*
X23325238Y-28463333D01*
X23349047Y-28510952D01*
X23706190Y-27749047D02*
X23706190Y-28034761D01*
X23706190Y-27891904D02*
X23206190Y-27891904D01*
X23277619Y-27939523D01*
X23325238Y-27987142D01*
X23349047Y-28034761D01*
D10*
%TO.C,H6*%
X59538095Y-4702380D02*
X59538095Y-3702380D01*
X59538095Y-4178571D02*
X60109523Y-4178571D01*
X60109523Y-4702380D02*
X60109523Y-3702380D01*
X61014285Y-3702380D02*
X60823809Y-3702380D01*
X60728571Y-3750000D01*
X60680952Y-3797619D01*
X60585714Y-3940476D01*
X60538095Y-4130952D01*
X60538095Y-4511904D01*
X60585714Y-4607142D01*
X60633333Y-4654761D01*
X60728571Y-4702380D01*
X60919047Y-4702380D01*
X61014285Y-4654761D01*
X61061904Y-4607142D01*
X61109523Y-4511904D01*
X61109523Y-4273809D01*
X61061904Y-4178571D01*
X61014285Y-4130952D01*
X60919047Y-4083333D01*
X60728571Y-4083333D01*
X60633333Y-4130952D01*
X60585714Y-4178571D01*
X60538095Y-4273809D01*
%TO.C,J1*%
X2422380Y-42618333D02*
X3136666Y-42618333D01*
X3279523Y-42665952D01*
X3374761Y-42761190D01*
X3422380Y-42904047D01*
X3422380Y-42999285D01*
X3422380Y-41618333D02*
X3422380Y-42189761D01*
X3422380Y-41904047D02*
X2422380Y-41904047D01*
X2565238Y-41999285D01*
X2660476Y-42094523D01*
X2708095Y-42189761D01*
D11*
%TO.C,R3*%
X13646190Y-40088333D02*
X13408095Y-40255000D01*
X13646190Y-40374047D02*
X13146190Y-40374047D01*
X13146190Y-40183571D01*
X13170000Y-40135952D01*
X13193809Y-40112142D01*
X13241428Y-40088333D01*
X13312857Y-40088333D01*
X13360476Y-40112142D01*
X13384285Y-40135952D01*
X13408095Y-40183571D01*
X13408095Y-40374047D01*
X13146190Y-39921666D02*
X13146190Y-39612142D01*
X13336666Y-39778809D01*
X13336666Y-39707380D01*
X13360476Y-39659761D01*
X13384285Y-39635952D01*
X13431904Y-39612142D01*
X13550952Y-39612142D01*
X13598571Y-39635952D01*
X13622380Y-39659761D01*
X13646190Y-39707380D01*
X13646190Y-39850238D01*
X13622380Y-39897857D01*
X13598571Y-39921666D01*
%TO.C,C1*%
X59818571Y-35873333D02*
X59842380Y-35897142D01*
X59866190Y-35968571D01*
X59866190Y-36016190D01*
X59842380Y-36087619D01*
X59794761Y-36135238D01*
X59747142Y-36159047D01*
X59651904Y-36182857D01*
X59580476Y-36182857D01*
X59485238Y-36159047D01*
X59437619Y-36135238D01*
X59390000Y-36087619D01*
X59366190Y-36016190D01*
X59366190Y-35968571D01*
X59390000Y-35897142D01*
X59413809Y-35873333D01*
X59866190Y-35397142D02*
X59866190Y-35682857D01*
X59866190Y-35540000D02*
X59366190Y-35540000D01*
X59437619Y-35587619D01*
X59485238Y-35635238D01*
X59509047Y-35682857D01*
%TO.C,C8*%
X26878571Y-18083333D02*
X26902380Y-18107142D01*
X26926190Y-18178571D01*
X26926190Y-18226190D01*
X26902380Y-18297619D01*
X26854761Y-18345238D01*
X26807142Y-18369047D01*
X26711904Y-18392857D01*
X26640476Y-18392857D01*
X26545238Y-18369047D01*
X26497619Y-18345238D01*
X26450000Y-18297619D01*
X26426190Y-18226190D01*
X26426190Y-18178571D01*
X26450000Y-18107142D01*
X26473809Y-18083333D01*
X26640476Y-17797619D02*
X26616666Y-17845238D01*
X26592857Y-17869047D01*
X26545238Y-17892857D01*
X26521428Y-17892857D01*
X26473809Y-17869047D01*
X26450000Y-17845238D01*
X26426190Y-17797619D01*
X26426190Y-17702380D01*
X26450000Y-17654761D01*
X26473809Y-17630952D01*
X26521428Y-17607142D01*
X26545238Y-17607142D01*
X26592857Y-17630952D01*
X26616666Y-17654761D01*
X26640476Y-17702380D01*
X26640476Y-17797619D01*
X26664285Y-17845238D01*
X26688095Y-17869047D01*
X26735714Y-17892857D01*
X26830952Y-17892857D01*
X26878571Y-17869047D01*
X26902380Y-17845238D01*
X26926190Y-17797619D01*
X26926190Y-17702380D01*
X26902380Y-17654761D01*
X26878571Y-17630952D01*
X26830952Y-17607142D01*
X26735714Y-17607142D01*
X26688095Y-17630952D01*
X26664285Y-17654761D01*
X26640476Y-17702380D01*
D10*
%TO.C,J2*%
X2422380Y-54048333D02*
X3136666Y-54048333D01*
X3279523Y-54095952D01*
X3374761Y-54191190D01*
X3422380Y-54334047D01*
X3422380Y-54429285D01*
X2517619Y-53619761D02*
X2470000Y-53572142D01*
X2422380Y-53476904D01*
X2422380Y-53238809D01*
X2470000Y-53143571D01*
X2517619Y-53095952D01*
X2612857Y-53048333D01*
X2708095Y-53048333D01*
X2850952Y-53095952D01*
X3422380Y-53667380D01*
X3422380Y-53048333D01*
%TO.C,SW2*%
X54834791Y-40455761D02*
X54977648Y-40503380D01*
X55215744Y-40503380D01*
X55310982Y-40455761D01*
X55358601Y-40408142D01*
X55406220Y-40312904D01*
X55406220Y-40217666D01*
X55358601Y-40122428D01*
X55310982Y-40074809D01*
X55215744Y-40027190D01*
X55025267Y-39979571D01*
X54930029Y-39931952D01*
X54882410Y-39884333D01*
X54834791Y-39789095D01*
X54834791Y-39693857D01*
X54882410Y-39598619D01*
X54930029Y-39551000D01*
X55025267Y-39503380D01*
X55263363Y-39503380D01*
X55406220Y-39551000D01*
X55739553Y-39503380D02*
X55977648Y-40503380D01*
X56168125Y-39789095D01*
X56358601Y-40503380D01*
X56596696Y-39503380D01*
X56930029Y-39598619D02*
X56977648Y-39551000D01*
X57072886Y-39503380D01*
X57310982Y-39503380D01*
X57406220Y-39551000D01*
X57453839Y-39598619D01*
X57501458Y-39693857D01*
X57501458Y-39789095D01*
X57453839Y-39931952D01*
X56882410Y-40503380D01*
X57501458Y-40503380D01*
D14*
%TO.C,C3*%
X33547500Y-4103241D02*
X33547500Y-4903241D01*
X33947500Y-4503241D02*
X33147500Y-4503241D01*
X35800000Y-7530000D02*
G75*
G03*
X35800000Y-7530000I-4000000J0D01*
G01*
%TO.C,R14*%
X66300000Y-23025000D02*
X66300000Y-21775000D01*
X68300000Y-21775000D02*
X68300000Y-23025000D01*
X68300000Y-23025000D02*
X66300000Y-23025000D01*
X66300000Y-21775000D02*
X68300000Y-21775000D01*
%TO.C,RV1*%
X16950000Y-6200000D02*
X17150000Y-6200000D01*
X23950000Y-6300000D02*
X23950000Y-2300000D01*
X17150000Y-1100000D02*
X17150000Y-7500000D01*
X16950000Y-1200000D02*
X16950000Y-2390000D01*
X16950000Y-7400000D02*
X16950000Y-6200000D01*
X22750000Y-7500000D02*
X17150000Y-7500000D01*
X22750000Y-1100000D02*
X17150000Y-1100000D01*
X16950000Y-2400000D02*
X17150000Y-2400000D01*
X17150000Y-7400000D02*
X16950000Y-7400000D01*
X17150000Y-1200000D02*
X16950000Y-1200000D01*
X23950000Y-6300000D02*
G75*
G02*
X22750000Y-7500000I-1200000J0D01*
G01*
X22750000Y-1100000D02*
G75*
G02*
X23950000Y-2300000I0J-1200000D01*
G01*
X23750000Y-4300000D02*
G75*
G03*
X23750000Y-4300000I-3000000J0D01*
G01*
%TO.C,C13*%
X17475000Y-24360000D02*
X17475000Y-22360000D01*
X18725000Y-24360000D02*
X17475000Y-24360000D01*
X18725000Y-22360000D02*
X18725000Y-24360000D01*
X17475000Y-22360000D02*
X18725000Y-22360000D01*
%TO.C,R6*%
X8720000Y-43880000D02*
X10720000Y-43880000D01*
X10720000Y-43880000D02*
X10720000Y-45130000D01*
X10720000Y-45130000D02*
X8720000Y-45130000D01*
X8720000Y-45130000D02*
X8720000Y-43880000D01*
%TO.C,J6*%
X64190000Y-9010000D02*
X64190000Y-10915000D01*
X63555000Y-11550000D02*
X43870000Y-11550000D01*
X64190000Y-10915000D02*
X63555000Y-11550000D01*
X43870000Y-9010000D02*
X64190000Y-9010000D01*
X43870000Y-11550000D02*
X43870000Y-9010000D01*
%TO.C,J7*%
X76300000Y-11507500D02*
X76300000Y-2507500D01*
X65300000Y-2507500D02*
X65300000Y-10757500D01*
X66103213Y-11512925D02*
X65300000Y-10757500D01*
X66100000Y-11507500D02*
X79800000Y-11507500D01*
X79800000Y-11507500D02*
X79800000Y-2507500D01*
X79800000Y-2507500D02*
X65300000Y-2507500D01*
%TO.C,R7*%
X31725000Y-22580000D02*
X32975000Y-22580000D01*
X32975000Y-24580000D02*
X31725000Y-24580000D01*
X32975000Y-22580000D02*
X32975000Y-24580000D01*
X31725000Y-24580000D02*
X31725000Y-22580000D01*
%TO.C,D1*%
X53730306Y-37335000D02*
X56669694Y-37335000D01*
X56669666Y-37335016D02*
G75*
G03*
X53730306Y-37335000I-1469666J2500016D01*
G01*
X57700000Y-34835000D02*
G75*
G03*
X57700000Y-34835000I-2500000J0D01*
G01*
%TO.C,A1*%
X76990000Y-17520000D02*
X76990000Y-25140000D01*
X31270000Y-28950000D02*
X31270000Y-12440000D01*
X66830000Y-17520000D02*
X76990000Y-17520000D01*
X76990000Y-25140000D02*
X66830000Y-25140000D01*
X74450000Y-12440000D02*
X74450000Y-30220000D01*
X32540000Y-30220000D02*
X31270000Y-28950000D01*
X66830000Y-25140000D02*
X66830000Y-17520000D01*
X31270000Y-12440000D02*
X74450000Y-12440000D01*
X74450000Y-30220000D02*
X32540000Y-30220000D01*
%TO.C,C12*%
X18755000Y-16120000D02*
X18755000Y-18120000D01*
X17505000Y-16120000D02*
X18755000Y-16120000D01*
X17505000Y-18120000D02*
X17505000Y-16120000D01*
X18755000Y-18120000D02*
X17505000Y-18120000D01*
%TO.C,J4*%
X67320000Y-24070000D02*
X72400000Y-24070000D01*
X67320000Y-26610000D02*
X67320000Y-24070000D01*
X72400000Y-24070000D02*
X72400000Y-25975000D01*
X71765000Y-26610000D02*
X67320000Y-26610000D01*
X72400000Y-25975000D02*
X71765000Y-26610000D01*
%TO.C,L3*%
X6900000Y-34600000D02*
X5700000Y-34600000D01*
X6900000Y-32600000D02*
X6900000Y-34600000D01*
X5700000Y-32600000D02*
X6900000Y-32600000D01*
X5700000Y-34600000D02*
X5700000Y-32600000D01*
%TO.C,R9*%
X37480000Y-24785000D02*
X39480000Y-24785000D01*
X37480000Y-26035000D02*
X37480000Y-24785000D01*
X39480000Y-24785000D02*
X39480000Y-26035000D01*
X39480000Y-26035000D02*
X37480000Y-26035000D01*
%TO.C,SW1*%
X43348125Y-54275000D02*
X30648125Y-54275000D01*
X43348125Y-41575000D02*
X43348125Y-54275000D01*
X30648125Y-41575000D02*
X43348125Y-41575000D01*
X30648125Y-54275000D02*
X30648125Y-41575000D01*
%TO.C,R4*%
X12795000Y-42805000D02*
X14045000Y-42805000D01*
X14045000Y-44805000D02*
X12795000Y-44805000D01*
X14045000Y-42805000D02*
X14045000Y-44805000D01*
X12795000Y-44805000D02*
X12795000Y-42805000D01*
%TO.C,C5*%
X15005000Y-40700000D02*
X16255000Y-40700000D01*
X16255000Y-40700000D02*
X16255000Y-42700000D01*
X15005000Y-42700000D02*
X15005000Y-40700000D01*
X16255000Y-42700000D02*
X15005000Y-42700000D01*
%TO.C,D3*%
X38240000Y-17120000D02*
X37890000Y-17620000D01*
X37890000Y-17620000D02*
X37890000Y-17820000D01*
X37540000Y-17120000D02*
X38240000Y-17120000D01*
X38590000Y-16420000D02*
X38590000Y-18220000D01*
X38590000Y-18220000D02*
X37190000Y-18220000D01*
X37190000Y-18220000D02*
X37190000Y-16420000D01*
X37890000Y-17120000D02*
X37890000Y-16870000D01*
X37190000Y-16420000D02*
X38590000Y-16420000D01*
X37890000Y-17620000D02*
X37540000Y-17120000D01*
X37540000Y-17620000D02*
X38240000Y-17620000D01*
%TO.C,C7*%
X25965000Y-24500000D02*
X25965000Y-22500000D01*
X25965000Y-22500000D02*
X27215000Y-22500000D01*
X27215000Y-22500000D02*
X27215000Y-24500000D01*
X27215000Y-24500000D02*
X25965000Y-24500000D01*
%TO.C,R12*%
X16640000Y-22320000D02*
X16640000Y-25520000D01*
X16640000Y-25520000D02*
X15040000Y-25520000D01*
X15040000Y-22320000D02*
X16640000Y-22320000D01*
X15040000Y-25520000D02*
X15040000Y-22320000D01*
%TO.C,J5*%
X69860000Y-16070000D02*
X71765000Y-16070000D01*
X72400000Y-18610000D02*
X69860000Y-18610000D01*
X69860000Y-18610000D02*
X69860000Y-16070000D01*
X72400000Y-16705000D02*
X72400000Y-18610000D01*
X71765000Y-16070000D02*
X72400000Y-16705000D01*
%TO.C,U1*%
X22580000Y-35795000D02*
X22580000Y-45695000D01*
X18680000Y-45695000D02*
X18680000Y-36770000D01*
X18680000Y-36770000D02*
X19655000Y-35795000D01*
X19655000Y-35795000D02*
X22580000Y-35795000D01*
X22580000Y-45695000D02*
X18680000Y-45695000D01*
%TO.C,C10*%
X21630000Y-24755000D02*
X23630000Y-24755000D01*
X23630000Y-26005000D02*
X21630000Y-26005000D01*
X21630000Y-26005000D02*
X21630000Y-24755000D01*
X23630000Y-24755000D02*
X23630000Y-26005000D01*
%TO.C,L1*%
X8130000Y-38835000D02*
X10130000Y-38835000D01*
X8130000Y-40035000D02*
X8130000Y-38835000D01*
X10130000Y-40035000D02*
X8130000Y-40035000D01*
X10130000Y-38835000D02*
X10130000Y-40035000D01*
%TO.C,R15*%
X68300000Y-19675000D02*
X68300000Y-20925000D01*
X68300000Y-20925000D02*
X66300000Y-20925000D01*
X66300000Y-20925000D02*
X66300000Y-19675000D01*
X66300000Y-19675000D02*
X68300000Y-19675000D01*
%TO.C,R11*%
X23970000Y-12855000D02*
X25970000Y-12855000D01*
X23970000Y-14105000D02*
X23970000Y-12855000D01*
X25970000Y-12855000D02*
X25970000Y-14105000D01*
X25970000Y-14105000D02*
X23970000Y-14105000D01*
%TO.C,J8*%
X2155000Y-25315000D02*
X3155000Y-24690000D01*
X3155000Y-24690000D02*
X2155000Y-24065000D01*
X7905000Y-14740000D02*
X2155000Y-14740000D01*
X7905000Y-27140000D02*
X7905000Y-14740000D01*
X2155000Y-27140000D02*
X7905000Y-27140000D01*
X2155000Y-14740000D02*
X2155000Y-27140000D01*
%TO.C,R5*%
X8020000Y-42930000D02*
X8020000Y-41680000D01*
X10020000Y-42930000D02*
X8020000Y-42930000D01*
X8020000Y-41680000D02*
X10020000Y-41680000D01*
X10020000Y-41680000D02*
X10020000Y-42930000D01*
%TO.C,L2*%
X28500000Y-36325000D02*
X27300000Y-36325000D01*
X27300000Y-36325000D02*
X27300000Y-34325000D01*
X28500000Y-34325000D02*
X28500000Y-36325000D01*
X27300000Y-34325000D02*
X28500000Y-34325000D01*
%TO.C,R13*%
X15070000Y-14950000D02*
X16670000Y-14950000D01*
X15070000Y-18150000D02*
X15070000Y-14950000D01*
X16670000Y-14950000D02*
X16670000Y-18150000D01*
X16670000Y-18150000D02*
X15070000Y-18150000D01*
%TO.C,C4*%
X5325000Y-40945000D02*
X6575000Y-40945000D01*
X6575000Y-40945000D02*
X6575000Y-42945000D01*
X5325000Y-42945000D02*
X5325000Y-40945000D01*
X6575000Y-42945000D02*
X5325000Y-42945000D01*
%TO.C,C2*%
X6565000Y-39025000D02*
X5315000Y-39025000D01*
X5315000Y-39025000D02*
X5315000Y-37025000D01*
X5315000Y-37025000D02*
X6565000Y-37025000D01*
X6565000Y-37025000D02*
X6565000Y-39025000D01*
%TO.C,C6*%
X13995000Y-48805000D02*
X12745000Y-48805000D01*
X12745000Y-48805000D02*
X12745000Y-46805000D01*
X12745000Y-46805000D02*
X13995000Y-46805000D01*
X13995000Y-46805000D02*
X13995000Y-48805000D01*
%TO.C,U2*%
X24880000Y-17890000D02*
X24880000Y-22890000D01*
X24880000Y-22890000D02*
X20880000Y-22890000D01*
X19880000Y-17890000D02*
X24880000Y-17890000D01*
X19880000Y-21890000D02*
X19880000Y-17890000D01*
X20880000Y-22890000D02*
X19880000Y-21890000D01*
%TO.C,R8*%
X26295000Y-35305000D02*
X26295000Y-37305000D01*
X25045000Y-37305000D02*
X25045000Y-35305000D01*
X26295000Y-37305000D02*
X25045000Y-37305000D01*
X25045000Y-35305000D02*
X26295000Y-35305000D01*
%TO.C,D2*%
X31690000Y-28310000D02*
X31140000Y-28310000D01*
X31690000Y-28310000D02*
X32240000Y-28310000D01*
X31690000Y-28310000D02*
X31290000Y-27710000D01*
X32090000Y-27710000D02*
X31690000Y-28310000D01*
X31290000Y-27710000D02*
X32090000Y-27710000D01*
X32590000Y-29360000D02*
X30790000Y-29360000D01*
X31690000Y-28710000D02*
X31690000Y-28310000D01*
X31690000Y-27710000D02*
X31690000Y-27210000D01*
X30790000Y-29360000D02*
X30790000Y-26560000D01*
X30790000Y-26560000D02*
X32590000Y-26560000D01*
X32590000Y-26560000D02*
X32590000Y-29360000D01*
%TO.C,J3*%
X37450000Y-11510000D02*
X37450000Y-9605000D01*
X37450000Y-9605000D02*
X38085000Y-8970000D01*
X42530000Y-8970000D02*
X42530000Y-11510000D01*
X42530000Y-11510000D02*
X37450000Y-11510000D01*
X38085000Y-8970000D02*
X42530000Y-8970000D01*
%TO.C,R2*%
X46800000Y-17715000D02*
X44800000Y-17715000D01*
X44800000Y-17715000D02*
X44800000Y-16465000D01*
X46800000Y-16465000D02*
X46800000Y-17715000D01*
X44800000Y-16465000D02*
X46800000Y-16465000D01*
%TO.C,R1*%
X50925000Y-31500000D02*
X50925000Y-33500000D01*
X50925000Y-33500000D02*
X49675000Y-33500000D01*
X49675000Y-33500000D02*
X49675000Y-31500000D01*
X49675000Y-31500000D02*
X50925000Y-31500000D01*
%TO.C,J9*%
X14080000Y-13590000D02*
X12830000Y-13590000D01*
X13670000Y-14000000D02*
X9170000Y-14000000D01*
X14080000Y-14840000D02*
X14080000Y-13590000D01*
X9170000Y-27900000D02*
X13670000Y-27900000D01*
X13670000Y-27900000D02*
X13670000Y-14000000D01*
X9170000Y-14000000D02*
X9170000Y-27900000D01*
%TO.C,Q1*%
X11760000Y-37215000D02*
X11210000Y-37785000D01*
X11210000Y-37785000D02*
X10360000Y-37785000D01*
X11760000Y-37215000D02*
X11760000Y-34765000D01*
X11760000Y-34745000D02*
X10360000Y-34745000D01*
X10360000Y-37785000D02*
X10360000Y-34745000D01*
%TO.C,C11*%
X22855000Y-27380000D02*
X24105000Y-27380000D01*
X22855000Y-29380000D02*
X22855000Y-27380000D01*
X24105000Y-29380000D02*
X22855000Y-29380000D01*
X24105000Y-27380000D02*
X24105000Y-29380000D01*
%TO.C,J1*%
X1700000Y-35935000D02*
X3605000Y-35935000D01*
X4240000Y-48635000D02*
X1700000Y-48635000D01*
X4240000Y-36570000D02*
X4240000Y-48635000D01*
X1700000Y-48635000D02*
X1700000Y-35935000D01*
X3605000Y-35935000D02*
X4240000Y-36570000D01*
%TO.C,R3*%
X12795000Y-41005000D02*
X12795000Y-39005000D01*
X12795000Y-39005000D02*
X14045000Y-39005000D01*
X14045000Y-41005000D02*
X12795000Y-41005000D01*
X14045000Y-39005000D02*
X14045000Y-41005000D01*
%TO.C,C1*%
X59015000Y-34790000D02*
X60265000Y-34790000D01*
X60265000Y-34790000D02*
X60265000Y-36790000D01*
X60265000Y-36790000D02*
X59015000Y-36790000D01*
X59015000Y-36790000D02*
X59015000Y-34790000D01*
%TO.C,C8*%
X27325000Y-17000000D02*
X27325000Y-19000000D01*
X26075000Y-17000000D02*
X27325000Y-17000000D01*
X26075000Y-19000000D02*
X26075000Y-17000000D01*
X27325000Y-19000000D02*
X26075000Y-19000000D01*
%TO.C,J2*%
X1700000Y-56255000D02*
X1700000Y-51175000D01*
X3605000Y-51175000D02*
X4240000Y-51810000D01*
X4240000Y-51810000D02*
X4240000Y-56255000D01*
X4240000Y-56255000D02*
X1700000Y-56255000D01*
X1700000Y-51175000D02*
X3605000Y-51175000D01*
%TO.C,SW2*%
X62518125Y-41575000D02*
X62518125Y-54275000D01*
X49818125Y-41575000D02*
X62518125Y-41575000D01*
X49818125Y-54275000D02*
X49818125Y-41575000D01*
X62518125Y-54275000D02*
X49818125Y-54275000D01*
%TD*%
M02*
