%TF.GenerationSoftware,KiCad,Pcbnew,(5.99.0-9519-ga70106a3bd)*%
%TF.CreationDate,2021-04-17T12:18:36-04:00*%
%TF.ProjectId,Main-PCB,4d61696e-2d50-4434-922e-6b696361645f,rev?*%
%TF.SameCoordinates,Original*%
%TF.FileFunction,Paste,Top*%
%TF.FilePolarity,Positive*%
%FSLAX46Y46*%
G04 Gerber Fmt 4.6, Leading zero omitted, Abs format (unit mm)*
G04 Created by KiCad (PCBNEW (5.99.0-9519-ga70106a3bd)) date 2021-04-17 12:18:36*
%MOMM*%
%LPD*%
G01*
G04 APERTURE LIST*
G04 Aperture macros list*
%AMRoundRect*
0 Rectangle with rounded corners*
0 $1 Rounding radius*
0 $2 $3 $4 $5 $6 $7 $8 $9 X,Y pos of 4 corners*
0 Add a 4 corners polygon primitive as box body*
4,1,4,$2,$3,$4,$5,$6,$7,$8,$9,$2,$3,0*
0 Add four circle primitives for the rounded corners*
1,1,$1+$1,$2,$3*
1,1,$1+$1,$4,$5*
1,1,$1+$1,$6,$7*
1,1,$1+$1,$8,$9*
0 Add four rect primitives between the rounded corners*
20,1,$1+$1,$2,$3,$4,$5,0*
20,1,$1+$1,$4,$5,$6,$7,0*
20,1,$1+$1,$6,$7,$8,$9,0*
20,1,$1+$1,$8,$9,$2,$3,0*%
G04 Aperture macros list end*
%ADD10RoundRect,0.250000X0.350000X0.450000X-0.350000X0.450000X-0.350000X-0.450000X0.350000X-0.450000X0*%
%ADD11RoundRect,0.250000X-0.475000X0.337500X-0.475000X-0.337500X0.475000X-0.337500X0.475000X0.337500X0*%
%ADD12RoundRect,0.250000X-0.350000X-0.450000X0.350000X-0.450000X0.350000X0.450000X-0.350000X0.450000X0*%
%ADD13RoundRect,0.250000X0.450000X-0.350000X0.450000X0.350000X-0.450000X0.350000X-0.450000X-0.350000X0*%
%ADD14RoundRect,0.250000X0.475000X-0.337500X0.475000X0.337500X-0.475000X0.337500X-0.475000X-0.337500X0*%
%ADD15RoundRect,0.250000X-0.450000X0.325000X-0.450000X-0.325000X0.450000X-0.325000X0.450000X0.325000X0*%
%ADD16R,0.450000X0.600000*%
%ADD17RoundRect,0.250001X0.624999X-0.462499X0.624999X0.462499X-0.624999X0.462499X-0.624999X-0.462499X0*%
%ADD18RoundRect,0.150000X-0.850000X-0.150000X0.850000X-0.150000X0.850000X0.150000X-0.850000X0.150000X0*%
%ADD19RoundRect,0.250000X-0.337500X-0.475000X0.337500X-0.475000X0.337500X0.475000X-0.337500X0.475000X0*%
%ADD20RoundRect,0.250000X-0.325000X-0.450000X0.325000X-0.450000X0.325000X0.450000X-0.325000X0.450000X0*%
%ADD21RoundRect,0.250000X0.450000X-0.325000X0.450000X0.325000X-0.450000X0.325000X-0.450000X-0.325000X0*%
%ADD22RoundRect,0.250001X-0.624999X0.462499X-0.624999X-0.462499X0.624999X-0.462499X0.624999X0.462499X0*%
%ADD23RoundRect,0.225000X0.225000X-0.225000X0.225000X0.225000X-0.225000X0.225000X-0.225000X-0.225000X0*%
%ADD24RoundRect,0.062500X0.062500X-0.337500X0.062500X0.337500X-0.062500X0.337500X-0.062500X-0.337500X0*%
%ADD25RoundRect,0.062500X0.337500X-0.062500X0.337500X0.062500X-0.337500X0.062500X-0.337500X-0.062500X0*%
%ADD26RoundRect,0.250000X-0.450000X0.350000X-0.450000X-0.350000X0.450000X-0.350000X0.450000X0.350000X0*%
%ADD27R,1.200000X0.900000*%
%ADD28R,1.900000X0.800000*%
G04 APERTURE END LIST*
D10*
%TO.C,R14*%
X68300000Y-22400000D03*
X66300000Y-22400000D03*
%TD*%
D11*
%TO.C,C13*%
X18100000Y-22322500D03*
X18100000Y-24397500D03*
%TD*%
D12*
%TO.C,R6*%
X8720000Y-44505000D03*
X10720000Y-44505000D03*
%TD*%
D13*
%TO.C,R7*%
X32350000Y-24580000D03*
X32350000Y-22580000D03*
%TD*%
D14*
%TO.C,C12*%
X18130000Y-18157500D03*
X18130000Y-16082500D03*
%TD*%
D15*
%TO.C,L3*%
X6300000Y-32575000D03*
X6300000Y-34625000D03*
%TD*%
D10*
%TO.C,R9*%
X39480000Y-25410000D03*
X37480000Y-25410000D03*
%TD*%
D13*
%TO.C,R4*%
X13420000Y-44805000D03*
X13420000Y-42805000D03*
%TD*%
D11*
%TO.C,C5*%
X15630000Y-40662500D03*
X15630000Y-42737500D03*
%TD*%
D16*
%TO.C,D3*%
X37890000Y-18370000D03*
X37890000Y-16270000D03*
%TD*%
D11*
%TO.C,C7*%
X26590000Y-22462500D03*
X26590000Y-24537500D03*
%TD*%
D17*
%TO.C,R12*%
X15840000Y-25407500D03*
X15840000Y-22432500D03*
%TD*%
D18*
%TO.C,U1*%
X18130000Y-36300000D03*
X18130000Y-37570000D03*
X18130000Y-38840000D03*
X18130000Y-40110000D03*
X18130000Y-41380000D03*
X18130000Y-42650000D03*
X18130000Y-43920000D03*
X18130000Y-45190000D03*
X23130000Y-45190000D03*
X23130000Y-43920000D03*
X23130000Y-42650000D03*
X23130000Y-41380000D03*
X23130000Y-40110000D03*
X23130000Y-38840000D03*
X23130000Y-37570000D03*
X23130000Y-36300000D03*
%TD*%
D19*
%TO.C,C10*%
X21592500Y-25380000D03*
X23667500Y-25380000D03*
%TD*%
D20*
%TO.C,L1*%
X8105000Y-39435000D03*
X10155000Y-39435000D03*
%TD*%
D10*
%TO.C,R15*%
X68300000Y-20300000D03*
X66300000Y-20300000D03*
%TD*%
D12*
%TO.C,R11*%
X23970000Y-13480000D03*
X25970000Y-13480000D03*
%TD*%
%TO.C,R5*%
X8020000Y-42305000D03*
X10020000Y-42305000D03*
%TD*%
D21*
%TO.C,L2*%
X27900000Y-36350000D03*
X27900000Y-34300000D03*
%TD*%
D22*
%TO.C,R13*%
X15870000Y-15062500D03*
X15870000Y-18037500D03*
%TD*%
D11*
%TO.C,C4*%
X5950000Y-40907500D03*
X5950000Y-42982500D03*
%TD*%
D14*
%TO.C,C2*%
X5940000Y-39062500D03*
X5940000Y-36987500D03*
%TD*%
D11*
%TO.C,C6*%
X13370000Y-46767500D03*
X13370000Y-48842500D03*
%TD*%
D23*
%TO.C,U2*%
X21260000Y-20390000D03*
X22380000Y-21510000D03*
X23500000Y-21510000D03*
X22380000Y-19270000D03*
X23500000Y-19270000D03*
X22380000Y-20390000D03*
X21260000Y-19270000D03*
X23500000Y-20390000D03*
X21260000Y-21510000D03*
D24*
X20880000Y-22840000D03*
X21380000Y-22840000D03*
X21880000Y-22840000D03*
X22380000Y-22840000D03*
X22880000Y-22840000D03*
X23380000Y-22840000D03*
X23880000Y-22840000D03*
D25*
X24830000Y-21890000D03*
X24830000Y-21390000D03*
X24830000Y-20890000D03*
X24830000Y-20390000D03*
X24830000Y-19890000D03*
X24830000Y-19390000D03*
X24830000Y-18890000D03*
D24*
X23880000Y-17940000D03*
X23380000Y-17940000D03*
X22880000Y-17940000D03*
X22380000Y-17940000D03*
X21880000Y-17940000D03*
X21380000Y-17940000D03*
X20880000Y-17940000D03*
D25*
X19930000Y-18890000D03*
X19930000Y-19390000D03*
X19930000Y-19890000D03*
X19930000Y-20390000D03*
X19930000Y-20890000D03*
X19930000Y-21390000D03*
X19930000Y-21890000D03*
%TD*%
D26*
%TO.C,R8*%
X25670000Y-35305000D03*
X25670000Y-37305000D03*
%TD*%
D27*
%TO.C,D2*%
X31690000Y-29610000D03*
X31690000Y-26310000D03*
%TD*%
D10*
%TO.C,R2*%
X46800000Y-17090000D03*
X44800000Y-17090000D03*
%TD*%
D26*
%TO.C,R1*%
X50300000Y-31500000D03*
X50300000Y-33500000D03*
%TD*%
D28*
%TO.C,Q1*%
X12560000Y-37215000D03*
X12560000Y-35315000D03*
X9560000Y-36265000D03*
%TD*%
D14*
%TO.C,C11*%
X23480000Y-29417500D03*
X23480000Y-27342500D03*
%TD*%
D13*
%TO.C,R3*%
X13420000Y-41005000D03*
X13420000Y-39005000D03*
%TD*%
D11*
%TO.C,C1*%
X59640000Y-34752500D03*
X59640000Y-36827500D03*
%TD*%
%TO.C,C8*%
X26700000Y-16962500D03*
X26700000Y-19037500D03*
%TD*%
M02*
