%TF.GenerationSoftware,KiCad,Pcbnew,(5.99.0-9519-ga70106a3bd)*%
%TF.CreationDate,2021-04-17T12:17:53-04:00*%
%TF.ProjectId,hotswap-board,686f7473-7761-4702-9d62-6f6172642e6b,rev?*%
%TF.SameCoordinates,Original*%
%TF.FileFunction,Copper,L1,Top*%
%TF.FilePolarity,Positive*%
%FSLAX46Y46*%
G04 Gerber Fmt 4.6, Leading zero omitted, Abs format (unit mm)*
G04 Created by KiCad (PCBNEW (5.99.0-9519-ga70106a3bd)) date 2021-04-17 12:17:53*
%MOMM*%
%LPD*%
G01*
G04 APERTURE LIST*
%TA.AperFunction,ComponentPad*%
%ADD10C,5.700000*%
%TD*%
%TA.AperFunction,ComponentPad*%
%ADD11R,1.700000X1.700000*%
%TD*%
%TA.AperFunction,ComponentPad*%
%ADD12O,1.700000X1.700000*%
%TD*%
G04 APERTURE END LIST*
D10*
%TO.P,H4,1,1*%
%TO.N,GND*%
X-16000000Y-10000000D03*
%TD*%
%TO.P,H2,1,1*%
%TO.N,GND*%
X16000000Y-10000000D03*
%TD*%
%TO.P,H3,1,1*%
%TO.N,GND*%
X-16000000Y10000000D03*
%TD*%
%TO.P,H1,1,1*%
%TO.N,GND*%
X16000000Y10000000D03*
%TD*%
D11*
%TO.P,J1,1,Pin_1*%
%TO.N,Net-(J1-Pad1)*%
X12000000Y-1000000D03*
D12*
%TO.P,J1,2,Pin_2*%
%TO.N,Net-(J1-Pad2)*%
X12000000Y1540000D03*
%TD*%
%TA.AperFunction,Conductor*%
%TO.N,GND*%
G36*
X13507009Y12471998D02*
G01*
X13553502Y12418342D01*
X13563606Y12348068D01*
X13534699Y12284170D01*
X13330608Y12045209D01*
X13326454Y12039776D01*
X13125336Y11744949D01*
X13121801Y11739112D01*
X12953694Y11424275D01*
X12950813Y11418096D01*
X12817689Y11086940D01*
X12815498Y11080505D01*
X12718913Y10736894D01*
X12717430Y10730258D01*
X12658521Y10378235D01*
X12657762Y10371463D01*
X12637216Y10015138D01*
X12637192Y10008343D01*
X12655251Y9651866D01*
X12655961Y9645110D01*
X12712411Y9292681D01*
X12713850Y9286026D01*
X12808030Y8941763D01*
X12810179Y8935302D01*
X12940991Y8603216D01*
X12943822Y8597033D01*
X13109734Y8281016D01*
X13113217Y8275174D01*
X13312292Y7978919D01*
X13316385Y7973489D01*
X13440892Y7825631D01*
X13453631Y7817187D01*
X13464074Y7823284D01*
X15910905Y10270115D01*
X15973217Y10304141D01*
X16044032Y10299076D01*
X16089095Y10270115D01*
X16270115Y10089095D01*
X16304141Y10026783D01*
X16299076Y9955968D01*
X16270115Y9910905D01*
X13821361Y7462151D01*
X13813747Y7448207D01*
X13813823Y7447137D01*
X13817008Y7442303D01*
X14097304Y7227224D01*
X14102934Y7223369D01*
X14407897Y7037948D01*
X14413899Y7034730D01*
X14737114Y6883326D01*
X14743419Y6880778D01*
X15081099Y6765164D01*
X15087650Y6763311D01*
X15435827Y6684846D01*
X15442546Y6683709D01*
X15797170Y6643304D01*
X15803960Y6642901D01*
X16160869Y6641033D01*
X16167670Y6641365D01*
X16522697Y6678053D01*
X16529425Y6679119D01*
X16878419Y6753938D01*
X16884968Y6755717D01*
X17223845Y6867789D01*
X17230187Y6870275D01*
X17554949Y7018277D01*
X17561008Y7021444D01*
X17867888Y7203657D01*
X17873552Y7207449D01*
X18158958Y7421738D01*
X18164188Y7426127D01*
X18279907Y7534415D01*
X18343313Y7566356D01*
X18413922Y7558946D01*
X18469316Y7514538D01*
X18492000Y7442415D01*
X18492000Y-7442105D01*
X18471998Y-7510226D01*
X18418342Y-7556719D01*
X18348068Y-7566823D01*
X18279267Y-7533502D01*
X18182094Y-7441288D01*
X18176925Y-7436889D01*
X17892993Y-7220590D01*
X17887369Y-7216768D01*
X17581755Y-7032409D01*
X17575738Y-7029210D01*
X17252006Y-6878939D01*
X17245670Y-6876405D01*
X16907612Y-6761979D01*
X16901044Y-6760145D01*
X16552606Y-6682899D01*
X16545867Y-6681783D01*
X16191109Y-6642617D01*
X16184328Y-6642238D01*
X15827391Y-6641615D01*
X15820618Y-6641970D01*
X15465704Y-6679899D01*
X15458994Y-6680986D01*
X15110271Y-6757020D01*
X15103696Y-6758831D01*
X14765225Y-6872082D01*
X14758903Y-6874585D01*
X14434649Y-7023725D01*
X14428606Y-7026911D01*
X14122362Y-7210195D01*
X14116716Y-7214003D01*
X13832038Y-7429303D01*
X13826848Y-7433690D01*
X13822555Y-7437735D01*
X13814532Y-7451446D01*
X13814567Y-7452286D01*
X13819618Y-7460408D01*
X16270115Y-9910905D01*
X16304141Y-9973217D01*
X16299076Y-10044032D01*
X16270115Y-10089095D01*
X16089095Y-10270115D01*
X16026783Y-10304141D01*
X15955968Y-10299076D01*
X15910905Y-10270115D01*
X13465479Y-7824689D01*
X13451942Y-7817297D01*
X13442241Y-7824084D01*
X13330595Y-7954806D01*
X13326461Y-7960214D01*
X13125336Y-8255051D01*
X13121801Y-8260888D01*
X12953694Y-8575725D01*
X12950813Y-8581904D01*
X12817689Y-8913060D01*
X12815498Y-8919495D01*
X12718913Y-9263106D01*
X12717430Y-9269742D01*
X12658521Y-9621765D01*
X12657762Y-9628537D01*
X12637216Y-9984862D01*
X12637192Y-9991657D01*
X12655251Y-10348134D01*
X12655961Y-10354890D01*
X12712411Y-10707319D01*
X12713850Y-10713974D01*
X12808030Y-11058237D01*
X12810179Y-11064698D01*
X12940991Y-11396784D01*
X12943822Y-11402967D01*
X13109734Y-11718984D01*
X13113217Y-11724826D01*
X13312286Y-12021072D01*
X13316389Y-12026516D01*
X13533918Y-12284840D01*
X13562496Y-12349831D01*
X13551401Y-12419955D01*
X13504155Y-12472949D01*
X13437538Y-12492000D01*
X-13439486Y-12492000D01*
X-13507607Y-12471998D01*
X-13554100Y-12418342D01*
X-13564204Y-12348068D01*
X-13535011Y-12283836D01*
X-13337756Y-12054505D01*
X-13333598Y-12049107D01*
X-13131439Y-11754964D01*
X-13127892Y-11749153D01*
X-12958689Y-11434908D01*
X-12955782Y-11428730D01*
X-12821501Y-11098038D01*
X-12819287Y-11091608D01*
X-12721507Y-10748346D01*
X-12720000Y-10741716D01*
X-12659859Y-10389881D01*
X-12659079Y-10383141D01*
X-12637192Y-10025275D01*
X-12637076Y-10021673D01*
X-12637006Y-10001820D01*
X-12637098Y-9998193D01*
X-12656486Y-9640200D01*
X-12657221Y-9633434D01*
X-12714899Y-9281218D01*
X-12716366Y-9274546D01*
X-12811742Y-8930634D01*
X-12813916Y-8924170D01*
X-12945885Y-8592547D01*
X-12948741Y-8586367D01*
X-13115751Y-8270939D01*
X-13119251Y-8265114D01*
X-13319363Y-7969550D01*
X-13323477Y-7964130D01*
X-13440911Y-7825656D01*
X-13453737Y-7817219D01*
X-13464062Y-7823272D01*
X-15910905Y-10270115D01*
X-15973217Y-10304141D01*
X-16044032Y-10299076D01*
X-16089095Y-10270115D01*
X-16270115Y-10089095D01*
X-16304141Y-10026783D01*
X-16299076Y-9955968D01*
X-16270115Y-9910905D01*
X-13821786Y-7462576D01*
X-13814172Y-7448632D01*
X-13814240Y-7447677D01*
X-13819183Y-7440202D01*
X-13823085Y-7436881D01*
X-14107007Y-7220590D01*
X-14112631Y-7216768D01*
X-14418245Y-7032409D01*
X-14424262Y-7029210D01*
X-14747994Y-6878939D01*
X-14754330Y-6876405D01*
X-15092388Y-6761979D01*
X-15098956Y-6760145D01*
X-15447394Y-6682899D01*
X-15454133Y-6681783D01*
X-15808891Y-6642617D01*
X-15815672Y-6642238D01*
X-16172609Y-6641615D01*
X-16179382Y-6641970D01*
X-16534296Y-6679899D01*
X-16541006Y-6680986D01*
X-16889729Y-6757020D01*
X-16896304Y-6758831D01*
X-17234775Y-6872082D01*
X-17241097Y-6874585D01*
X-17565351Y-7023725D01*
X-17571394Y-7026911D01*
X-17877638Y-7210195D01*
X-17883284Y-7214003D01*
X-18167951Y-7429295D01*
X-18173152Y-7433690D01*
X-18279587Y-7533989D01*
X-18342881Y-7566150D01*
X-18413516Y-7558986D01*
X-18469064Y-7514772D01*
X-18492000Y-7442289D01*
X-18492000Y-102301D01*
X-6440559Y-102301D01*
X-6403871Y-330078D01*
X-6329330Y-548418D01*
X-6219066Y-751076D01*
X-6076233Y-932259D01*
X-6072273Y-935830D01*
X-6072272Y-935832D01*
X-5954401Y-1042149D01*
X-5904915Y-1086785D01*
X-5900408Y-1089640D01*
X-5900405Y-1089642D01*
X-5792601Y-1157925D01*
X-5710010Y-1210238D01*
X-5705084Y-1212294D01*
X-5705083Y-1212294D01*
X-5554189Y-1275259D01*
X-5497091Y-1299085D01*
X-5491887Y-1300282D01*
X-5491886Y-1300282D01*
X-5277449Y-1349592D01*
X-5277444Y-1349593D01*
X-5272246Y-1350788D01*
X-5266918Y-1351091D01*
X-5266915Y-1351091D01*
X-5108677Y-1360076D01*
X-5041904Y-1363868D01*
X-5036597Y-1363268D01*
X-5036595Y-1363268D01*
X-4926203Y-1350788D01*
X-4812651Y-1337951D01*
X-4807530Y-1336468D01*
X-4807525Y-1336467D01*
X-4596161Y-1275259D01*
X-4596162Y-1275259D01*
X-4591043Y-1273777D01*
X-4459898Y-1210238D01*
X-4388220Y-1175510D01*
X-4383415Y-1173182D01*
X-4266512Y-1089642D01*
X-4200051Y-1042149D01*
X-4200049Y-1042147D01*
X-4195705Y-1039043D01*
X-4033280Y-875194D01*
X-3900783Y-686320D01*
X-3802004Y-477823D01*
X-3739767Y-255663D01*
X-3729223Y-154496D01*
X-3716158Y-29143D01*
X-3716157Y-29133D01*
X-3715851Y-26193D01*
X-3715600Y0D01*
X-3726042Y123061D01*
X-3734655Y224576D01*
X-3734656Y224580D01*
X-3735106Y229887D01*
X-3767629Y355192D01*
X-3765382Y426151D01*
X-3725128Y484633D01*
X-3658841Y512155D01*
X-3554666Y523104D01*
X-3460567Y532994D01*
X-3460565Y532994D01*
X-3456192Y533454D01*
X-3281767Y576943D01*
X-3184653Y601156D01*
X-3184651Y601157D01*
X-3180378Y602222D01*
X-2916819Y708707D01*
X-2670644Y850836D01*
X-2572076Y927845D01*
X-2506083Y954023D01*
X-2436412Y940365D01*
X-2385185Y891209D01*
X-2368666Y822161D01*
X-2374671Y789620D01*
X-2413620Y669745D01*
X-2428625Y623565D01*
X-2487628Y314261D01*
X-2507400Y0D01*
X-2487628Y-314261D01*
X-2428625Y-623565D01*
X-2331322Y-923036D01*
X-2197251Y-1207949D01*
X-2195133Y-1211287D01*
X-2195131Y-1211290D01*
X-2138655Y-1300282D01*
X-2028529Y-1473813D01*
X-1827816Y-1716433D01*
X-1598277Y-1931985D01*
X-1343532Y-2117068D01*
X-1340063Y-2118975D01*
X-1340060Y-2118977D01*
X-1123417Y-2238077D01*
X-1067599Y-2268763D01*
X-945524Y-2317096D01*
X-778512Y-2383221D01*
X-778509Y-2383222D01*
X-774829Y-2384679D01*
X-770995Y-2385663D01*
X-770987Y-2385666D01*
X-582204Y-2434137D01*
X-469840Y-2462987D01*
X-465912Y-2463483D01*
X-465908Y-2463484D01*
X-342078Y-2479127D01*
X-157441Y-2502452D01*
X157441Y-2502452D01*
X342078Y-2479127D01*
X465908Y-2463484D01*
X465912Y-2463483D01*
X469840Y-2462987D01*
X582204Y-2434137D01*
X770987Y-2385666D01*
X770995Y-2385663D01*
X774829Y-2384679D01*
X778509Y-2383222D01*
X778512Y-2383221D01*
X945524Y-2317096D01*
X1067599Y-2268763D01*
X1123417Y-2238077D01*
X1340060Y-2118977D01*
X1340063Y-2118975D01*
X1343532Y-2117068D01*
X1598277Y-1931985D01*
X1827816Y-1716433D01*
X2028529Y-1473813D01*
X2138655Y-1300282D01*
X2195131Y-1211290D01*
X2195133Y-1211287D01*
X2197251Y-1207949D01*
X2331322Y-923036D01*
X2428625Y-623565D01*
X2487628Y-314261D01*
X2500964Y-102301D01*
X3719441Y-102301D01*
X3756129Y-330078D01*
X3830670Y-548418D01*
X3940934Y-751076D01*
X4083767Y-932259D01*
X4087727Y-935830D01*
X4087728Y-935832D01*
X4205599Y-1042149D01*
X4255085Y-1086785D01*
X4259592Y-1089640D01*
X4259595Y-1089642D01*
X4367399Y-1157925D01*
X4449990Y-1210238D01*
X4454916Y-1212294D01*
X4454917Y-1212294D01*
X4605811Y-1275259D01*
X4662909Y-1299085D01*
X4668113Y-1300282D01*
X4668114Y-1300282D01*
X4882551Y-1349592D01*
X4882556Y-1349593D01*
X4887754Y-1350788D01*
X4893082Y-1351091D01*
X4893085Y-1351091D01*
X5051323Y-1360076D01*
X5118096Y-1363868D01*
X5123403Y-1363268D01*
X5123405Y-1363268D01*
X5233797Y-1350788D01*
X5347349Y-1337951D01*
X5352470Y-1336468D01*
X5352475Y-1336467D01*
X5563839Y-1275259D01*
X5563838Y-1275259D01*
X5568957Y-1273777D01*
X5700102Y-1210238D01*
X5771780Y-1175510D01*
X5776585Y-1173182D01*
X5893488Y-1089642D01*
X5959949Y-1042149D01*
X5959951Y-1042147D01*
X5964295Y-1039043D01*
X6126720Y-875194D01*
X6259217Y-686320D01*
X6357996Y-477823D01*
X6420233Y-255663D01*
X6430777Y-154496D01*
X6431246Y-150000D01*
X10636500Y-150000D01*
X10636500Y-1850000D01*
X10641727Y-1923079D01*
X10682904Y-2063316D01*
X10687775Y-2070895D01*
X10757051Y-2178691D01*
X10757053Y-2178694D01*
X10761923Y-2186271D01*
X10768733Y-2192172D01*
X10865569Y-2276082D01*
X10865572Y-2276084D01*
X10872381Y-2281984D01*
X11005330Y-2342700D01*
X11014245Y-2343982D01*
X11014246Y-2343982D01*
X11145552Y-2362861D01*
X11145559Y-2362862D01*
X11150000Y-2363500D01*
X12850000Y-2363500D01*
X12923079Y-2358273D01*
X13001165Y-2335345D01*
X13054670Y-2319635D01*
X13054672Y-2319634D01*
X13063316Y-2317096D01*
X13138523Y-2268763D01*
X13178691Y-2242949D01*
X13178694Y-2242947D01*
X13186271Y-2238077D01*
X13226048Y-2192172D01*
X13276082Y-2134431D01*
X13276084Y-2134428D01*
X13281984Y-2127619D01*
X13285931Y-2118977D01*
X13338958Y-2002864D01*
X13338958Y-2002863D01*
X13342700Y-1994670D01*
X13352061Y-1929562D01*
X13362861Y-1854448D01*
X13362862Y-1854441D01*
X13363500Y-1850000D01*
X13363500Y-150000D01*
X13358273Y-76921D01*
X13317096Y63316D01*
X13271393Y134431D01*
X13242949Y178691D01*
X13242947Y178694D01*
X13238077Y186271D01*
X13187742Y229887D01*
X13134431Y276082D01*
X13134428Y276084D01*
X13127619Y281984D01*
X12994670Y342700D01*
X12987612Y343715D01*
X12928687Y381583D01*
X12899193Y446164D01*
X12909296Y516438D01*
X12934427Y552803D01*
X12936199Y554590D01*
X13046030Y665383D01*
X13118133Y768166D01*
X13175375Y849764D01*
X13175376Y849766D01*
X13178439Y854132D01*
X13277153Y1062492D01*
X13339349Y1284506D01*
X13344194Y1330988D01*
X13359079Y1473813D01*
X13363249Y1513824D01*
X13363500Y1540000D01*
X13359473Y1587462D01*
X13344458Y1764424D01*
X13344457Y1764428D01*
X13344007Y1769735D01*
X13310551Y1898637D01*
X13287426Y1987731D01*
X13286084Y1992902D01*
X13234731Y2106902D01*
X13193578Y2198257D01*
X13193577Y2198259D01*
X13191388Y2203118D01*
X13062627Y2394374D01*
X12903482Y2561201D01*
X12718504Y2698829D01*
X12713753Y2701245D01*
X12713749Y2701247D01*
X12517740Y2800903D01*
X12517739Y2800903D01*
X12512982Y2803322D01*
X12372033Y2847088D01*
X12297895Y2870109D01*
X12297889Y2870110D01*
X12292792Y2871693D01*
X12187798Y2885609D01*
X12069515Y2901286D01*
X12069510Y2901286D01*
X12064230Y2901986D01*
X12058900Y2901786D01*
X12058899Y2901786D01*
X11949030Y2897661D01*
X11833831Y2893337D01*
X11751368Y2876034D01*
X11613411Y2847088D01*
X11613408Y2847087D01*
X11608184Y2845991D01*
X11393740Y2761303D01*
X11196631Y2641694D01*
X11192601Y2638197D01*
X11035595Y2501955D01*
X11022492Y2490585D01*
X11019109Y2486459D01*
X11019105Y2486455D01*
X10943604Y2394374D01*
X10876304Y2312295D01*
X10873665Y2307659D01*
X10873663Y2307656D01*
X10844506Y2256435D01*
X10762245Y2111923D01*
X10683578Y1895198D01*
X10682629Y1889949D01*
X10682628Y1889946D01*
X10660890Y1769735D01*
X10642551Y1668317D01*
X10642500Y1662977D01*
X10640423Y1446591D01*
X10640338Y1437767D01*
X10677002Y1210139D01*
X10751494Y991944D01*
X10754044Y987257D01*
X10754045Y987255D01*
X10787033Y926625D01*
X10861685Y789420D01*
X11004424Y608356D01*
X11064034Y554589D01*
X11101219Y494112D01*
X11099805Y423129D01*
X11060240Y364179D01*
X11015138Y340132D01*
X10945330Y319635D01*
X10945328Y319634D01*
X10936684Y317096D01*
X10898528Y292574D01*
X10821309Y242949D01*
X10821306Y242947D01*
X10813729Y238077D01*
X10807828Y231267D01*
X10723918Y134431D01*
X10723916Y134428D01*
X10718016Y127619D01*
X10657300Y-5330D01*
X10656018Y-14245D01*
X10656018Y-14246D01*
X10637139Y-145552D01*
X10637138Y-145559D01*
X10636500Y-150000D01*
X6431246Y-150000D01*
X6443842Y-29143D01*
X6443843Y-29133D01*
X6444149Y-26193D01*
X6444400Y0D01*
X6433958Y123061D01*
X6425345Y224576D01*
X6425344Y224580D01*
X6424894Y229887D01*
X6423556Y235044D01*
X6423555Y235048D01*
X6368275Y448030D01*
X6366933Y453201D01*
X6272175Y663556D01*
X6143329Y854938D01*
X5984079Y1021875D01*
X5798978Y1159594D01*
X5794227Y1162010D01*
X5794223Y1162012D01*
X5598078Y1261737D01*
X5598077Y1261737D01*
X5593320Y1264156D01*
X5455814Y1306853D01*
X5378088Y1330988D01*
X5378082Y1330989D01*
X5372985Y1332572D01*
X5267929Y1346496D01*
X5149557Y1362185D01*
X5149552Y1362185D01*
X5144272Y1362885D01*
X5138943Y1362685D01*
X5138941Y1362685D01*
X5028997Y1358558D01*
X4913721Y1354230D01*
X4687925Y1306853D01*
X4682969Y1304896D01*
X4682963Y1304894D01*
X4573684Y1261737D01*
X4473340Y1222109D01*
X4276100Y1102421D01*
X4272070Y1098924D01*
X4154611Y996998D01*
X4101847Y951212D01*
X4098460Y947081D01*
X3958946Y776933D01*
X3958942Y776927D01*
X3955562Y772805D01*
X3841428Y572300D01*
X3762709Y355432D01*
X3761760Y350183D01*
X3761759Y350180D01*
X3730749Y178691D01*
X3721655Y128401D01*
X3720568Y15148D01*
X3719685Y-76921D01*
X3719441Y-102301D01*
X2500964Y-102301D01*
X2507400Y0D01*
X2487628Y314261D01*
X2428625Y623565D01*
X2413621Y669745D01*
X2355129Y849764D01*
X2331322Y923036D01*
X2197251Y1207949D01*
X2190022Y1219341D01*
X2048015Y1443108D01*
X2028529Y1473813D01*
X1976226Y1537037D01*
X1940908Y1579728D01*
X1827816Y1716433D01*
X1598277Y1931985D01*
X1343532Y2117068D01*
X1336866Y2120733D01*
X1071061Y2266860D01*
X1071058Y2266861D01*
X1067599Y2268763D01*
X908318Y2331827D01*
X778512Y2383221D01*
X778509Y2383222D01*
X774829Y2384679D01*
X770995Y2385663D01*
X770987Y2385666D01*
X582204Y2434137D01*
X469840Y2462987D01*
X465912Y2463483D01*
X465908Y2463484D01*
X342078Y2479127D01*
X157441Y2502452D01*
X-157441Y2502452D01*
X-342078Y2479127D01*
X-465908Y2463484D01*
X-465912Y2463483D01*
X-469840Y2462987D01*
X-582204Y2434137D01*
X-770987Y2385666D01*
X-770995Y2385663D01*
X-774829Y2384679D01*
X-778509Y2383222D01*
X-778512Y2383221D01*
X-908318Y2331827D01*
X-1067599Y2268763D01*
X-1071058Y2266861D01*
X-1071061Y2266860D01*
X-1336865Y2120733D01*
X-1343532Y2117068D01*
X-1598277Y1931985D01*
X-1631333Y1900944D01*
X-1633789Y1898637D01*
X-1697139Y1866586D01*
X-1767761Y1873873D01*
X-1823232Y1918184D01*
X-1845941Y1985450D01*
X-1843289Y2016684D01*
X-1793242Y2252139D01*
X-1793242Y2252141D01*
X-1792329Y2256435D01*
X-1777850Y2463484D01*
X-1772807Y2535610D01*
X-1772500Y2540000D01*
X-1783384Y2695643D01*
X-1792022Y2819180D01*
X-1792023Y2819185D01*
X-1792329Y2823565D01*
X-1796678Y2844028D01*
X-1822997Y2967847D01*
X-1851429Y3101611D01*
X-1866810Y3143872D01*
X-1928567Y3313546D01*
X-1948651Y3368726D01*
X-2004854Y3474428D01*
X-2080032Y3615819D01*
X-2080036Y3615825D01*
X-2082102Y3619711D01*
X-2112598Y3661686D01*
X-2246595Y3846117D01*
X-2246597Y3846120D01*
X-2249184Y3849680D01*
X-2277514Y3879017D01*
X-2443592Y4050996D01*
X-2443596Y4050999D01*
X-2446646Y4054158D01*
X-2670644Y4229164D01*
X-2916819Y4371293D01*
X-3180378Y4477778D01*
X-3184651Y4478843D01*
X-3184653Y4478844D01*
X-3451921Y4545481D01*
X-3451919Y4545481D01*
X-3456192Y4546546D01*
X-3460560Y4547005D01*
X-3460565Y4547006D01*
X-3734523Y4575800D01*
X-3734526Y4575800D01*
X-3738892Y4576259D01*
X-3743280Y4576106D01*
X-3743286Y4576106D01*
X-4018579Y4566492D01*
X-4018585Y4566491D01*
X-4022977Y4566338D01*
X-4302916Y4516978D01*
X-4573261Y4429137D01*
X-4577214Y4427209D01*
X-4577219Y4427207D01*
X-4696372Y4369092D01*
X-4828750Y4304527D01*
X-4832389Y4302072D01*
X-4832395Y4302069D01*
X-5060764Y4148032D01*
X-5060771Y4148027D01*
X-5064410Y4145572D01*
X-5275655Y3955366D01*
X-5278484Y3951994D01*
X-5455544Y3740983D01*
X-5455548Y3740978D01*
X-5458372Y3737612D01*
X-5609006Y3496548D01*
X-5724624Y3236866D01*
X-5802976Y2963620D01*
X-5803587Y2959270D01*
X-5803588Y2959267D01*
X-5812826Y2893537D01*
X-5842537Y2682129D01*
X-5842537Y2397871D01*
X-5802976Y2116380D01*
X-5724624Y1843134D01*
X-5609006Y1583452D01*
X-5540495Y1473813D01*
X-5523485Y1446591D01*
X-5504349Y1378222D01*
X-5525214Y1310361D01*
X-5584057Y1262629D01*
X-5686660Y1222109D01*
X-5883900Y1102421D01*
X-5887930Y1098924D01*
X-6005389Y996998D01*
X-6058153Y951212D01*
X-6061540Y947081D01*
X-6201054Y776933D01*
X-6201058Y776927D01*
X-6204438Y772805D01*
X-6318572Y572300D01*
X-6397291Y355432D01*
X-6398240Y350183D01*
X-6398241Y350180D01*
X-6429251Y178691D01*
X-6438345Y128401D01*
X-6439432Y15148D01*
X-6440315Y-76921D01*
X-6440559Y-102301D01*
X-18492000Y-102301D01*
X-18492000Y5222129D01*
X507463Y5222129D01*
X507463Y4937871D01*
X547024Y4656380D01*
X625376Y4383134D01*
X740994Y4123452D01*
X891628Y3882388D01*
X894452Y3879022D01*
X894456Y3879017D01*
X982674Y3773883D01*
X1074345Y3664634D01*
X1285590Y3474428D01*
X1289229Y3471973D01*
X1289236Y3471968D01*
X1517605Y3317931D01*
X1517611Y3317928D01*
X1521250Y3315473D01*
X1525201Y3313546D01*
X1772781Y3192793D01*
X1772786Y3192791D01*
X1776739Y3190863D01*
X2047084Y3103022D01*
X2327023Y3053662D01*
X2331415Y3053509D01*
X2331421Y3053508D01*
X2606714Y3043894D01*
X2606720Y3043894D01*
X2611108Y3043741D01*
X2615474Y3044200D01*
X2615477Y3044200D01*
X2889435Y3072994D01*
X2889440Y3072995D01*
X2893808Y3073454D01*
X3030261Y3107476D01*
X3165347Y3141156D01*
X3165349Y3141157D01*
X3169622Y3142222D01*
X3433181Y3248707D01*
X3679356Y3390836D01*
X3903354Y3565842D01*
X3951617Y3615819D01*
X4097758Y3767153D01*
X4097760Y3767156D01*
X4100816Y3770320D01*
X4155886Y3846117D01*
X4265309Y3996725D01*
X4265311Y3996729D01*
X4267898Y4000289D01*
X4269964Y4004175D01*
X4269968Y4004181D01*
X4389593Y4229164D01*
X4401349Y4251274D01*
X4450881Y4387361D01*
X4497066Y4514253D01*
X4497067Y4514258D01*
X4498571Y4518389D01*
X4557671Y4796435D01*
X4577500Y5080000D01*
X4557671Y5363565D01*
X4498571Y5641611D01*
X4401349Y5908726D01*
X4331405Y6040272D01*
X4269968Y6155819D01*
X4269964Y6155825D01*
X4267898Y6159711D01*
X4184950Y6273880D01*
X4103405Y6386117D01*
X4103403Y6386120D01*
X4100816Y6389680D01*
X4002013Y6491994D01*
X3906408Y6590996D01*
X3906404Y6590999D01*
X3903354Y6594158D01*
X3679356Y6769164D01*
X3433181Y6911293D01*
X3169622Y7017778D01*
X3165349Y7018843D01*
X3165347Y7018844D01*
X2898079Y7085481D01*
X2898081Y7085481D01*
X2893808Y7086546D01*
X2889440Y7087005D01*
X2889435Y7087006D01*
X2615477Y7115800D01*
X2615474Y7115800D01*
X2611108Y7116259D01*
X2606720Y7116106D01*
X2606714Y7116106D01*
X2331421Y7106492D01*
X2331415Y7106491D01*
X2327023Y7106338D01*
X2047084Y7056978D01*
X1776739Y6969137D01*
X1772786Y6967209D01*
X1772781Y6967207D01*
X1653628Y6909092D01*
X1521250Y6844527D01*
X1517611Y6842072D01*
X1517605Y6842069D01*
X1289236Y6688032D01*
X1289229Y6688027D01*
X1285590Y6685572D01*
X1074345Y6495366D01*
X1071516Y6491994D01*
X894456Y6280983D01*
X894452Y6280978D01*
X891628Y6277612D01*
X740994Y6036548D01*
X625376Y5776866D01*
X547024Y5503620D01*
X507463Y5222129D01*
X-18492000Y5222129D01*
X-18492000Y7441860D01*
X-18471998Y7509981D01*
X-18418342Y7556474D01*
X-18348068Y7566578D01*
X-18278949Y7532954D01*
X-18191017Y7448924D01*
X-18185849Y7444496D01*
X-17902696Y7227224D01*
X-17897066Y7223369D01*
X-17592103Y7037948D01*
X-17586101Y7034730D01*
X-17262886Y6883326D01*
X-17256581Y6880778D01*
X-16918901Y6765164D01*
X-16912350Y6763311D01*
X-16564173Y6684846D01*
X-16557454Y6683709D01*
X-16202830Y6643304D01*
X-16196040Y6642901D01*
X-15839131Y6641033D01*
X-15832330Y6641365D01*
X-15477303Y6678053D01*
X-15470575Y6679119D01*
X-15121581Y6753938D01*
X-15115032Y6755717D01*
X-14776155Y6867789D01*
X-14769813Y6870275D01*
X-14445051Y7018277D01*
X-14438992Y7021444D01*
X-14132112Y7203657D01*
X-14126448Y7207449D01*
X-13841038Y7421741D01*
X-13835812Y7426126D01*
X-13822963Y7438150D01*
X-13814895Y7451828D01*
X-13814923Y7452554D01*
X-13820065Y7460855D01*
X-16270115Y9910905D01*
X-16304141Y9973217D01*
X-16299076Y10044032D01*
X-16270115Y10089095D01*
X-16089095Y10270115D01*
X-16026783Y10304141D01*
X-15955968Y10299076D01*
X-15910905Y10270115D01*
X-13465489Y7824699D01*
X-13451892Y7817274D01*
X-13442283Y7823971D01*
X-13337749Y7945502D01*
X-13333600Y7950890D01*
X-13131439Y8245036D01*
X-13127892Y8250847D01*
X-12958689Y8565092D01*
X-12955782Y8571270D01*
X-12821501Y8901962D01*
X-12819287Y8908392D01*
X-12721507Y9251654D01*
X-12720000Y9258284D01*
X-12659859Y9610119D01*
X-12659079Y9616859D01*
X-12637192Y9974725D01*
X-12637076Y9978327D01*
X-12637006Y9998180D01*
X-12637098Y10001807D01*
X-12656486Y10359800D01*
X-12657221Y10366566D01*
X-12714899Y10718782D01*
X-12716366Y10725454D01*
X-12811742Y11069366D01*
X-12813916Y11075830D01*
X-12945885Y11407453D01*
X-12948741Y11413633D01*
X-13115751Y11729061D01*
X-13119251Y11734886D01*
X-13319363Y12030450D01*
X-13323477Y12035869D01*
X-13534335Y12284505D01*
X-13563140Y12349395D01*
X-13552290Y12419558D01*
X-13505229Y12472716D01*
X-13438239Y12492000D01*
X13438888Y12492000D01*
X13507009Y12471998D01*
G37*
%TD.AperFunction*%
%TD*%
M02*
